<?xml version="1.0" encoding="utf-8" ?>
<svg xmlns="http://www.w3.org/2000/svg" xmlns:xlink="http://www.w3.org/1999/xlink" width="417" height="417">
	<path fill="#345CAB" transform="scale(0.407715 0.407715)" d="M465.239 62.6152Q512.133 63.1316 559.027 62.7382C559.021 69.4787 558.928 76.2283 559.277 82.9618L635.971 82.9616Q635.891 94.2634 636.001 105.565Q651.532 105.817 667.064 105.849Q667.027 117.415 667.168 128.979L734.579 129.048Q734.672 139.22 734.982 149.387L773.97 149.379L774.06 175.042L799.922 175.166L799.948 198.087Q812.996 197.953 826.041 198.233L826.126 223.025L850.87 223.061L851.054 250.871L873.534 250.979C873.748 266.675 874.542 282.341 874.74 298.038L894.385 298.085Q894.229 311.099 894.53 324.11C900.332 324.322 906.166 324.274 911.972 324.329C911.571 344.397 911.871 364.511 912.008 384.582C921.487 385.155 931.058 384.886 940.541 384.529C940.977 411.334 940.13 438.179 940.905 464.978L966.324 465.052L966.561 524.487C966.599 535.948 966.247 547.569 966.872 559.009Q953.807 558.91 940.743 559.07C941.471 586.476 940.772 614.038 941.073 641.469Q926.548 641.261 912.024 641.465Q912.396 656.202 912.364 670.943C908.275 670.605 904.197 670.485 900.097 670.384L900.49 752.808C894.658 752.556 888.838 752.696 883.007 752.889L883.006 778.816C872.931 778.371 862.844 778.851 852.765 778.633C852.578 787.85 852.829 797.084 852.962 806.301C843.752 805.652 834.278 806.102 825.041 806.14L825.046 835.005Q811.97 834.396 798.891 834.948C798.668 843.488 798.887 852.072 798.933 860.616L768.031 860.624C767.929 868.759 768.02 876.905 768.027 885.041C757.395 884.677 746.68 884.803 736.045 884.91L736.026 902.011C720.364 901.692 704.651 901.919 688.984 901.967L689.005 920.646C670.08 920.57 651.046 920.178 632.136 920.95Q632.091 932.374 632.332 943.795C623.171 943.497 613.902 943.863 604.728 943.902Q581.832 943.893 558.938 944.229Q558.866 955.899 559.035 967.568L465.111 967.925L465.028 943.871L394.084 944.139L394.026 920.579Q361.539 920.331 329.054 920.762L329.013 898.961C318.155 898.725 307.276 898.901 296.415 898.941C296.263 894.549 296.216 890.148 296.123 885.753C286.627 886.52 276.609 885.911 267.054 885.952L267.004 861.578C252.086 861.593 237.133 861.407 222.22 861.766L222.133 834.953Q208.904 834.792 195.674 834.92C195.405 826.296 195.526 817.638 195.499 809.009L170.044 809.031L170.027 783.018C161.82 782.926 153.605 783.005 145.397 783.018L145.309 756.728L123.904 756.659L123.522 670.393C117.73 670.212 111.958 670.267 106.165 670.345C105.948 660.881 106.075 651.388 106.053 641.92Q95.2438 641.843 84.4346 641.921Q84.4507 600.779 84.0239 559.64C75.7069 559.927 67.3246 559.759 58.9993 559.802L58.7356 464.985L84.1667 464.901L84.0706 384.756Q97.4845 384.827 110.898 384.735C110.615 364.52 110.934 344.254 110.813 324.031L137.026 324.065L137.032 298.023C143.155 298.094 149.259 297.562 155.383 297.711C155.476 282.53 155.03 267.318 155.02 252.128L170.009 252.063L170.025 224.708C178.771 225.098 187.573 224.733 196.329 224.824L196.333 198.077L221.471 198.035L221.491 174.065C230.757 173.958 240.033 174.037 249.3 174.024C248.862 167.806 249.276 161.286 249.301 155.037L271.358 154.995L271.396 147.972C279.105 147.92 286.835 147.971 294.534 147.547L294.603 130.061L354.035 130.005L354.062 106.606C362.317 106.574 370.851 106.107 379.065 106.788L379.079 83.056Q422.185 83.3281 465.29 83.0561Q465.331 72.8355 465.239 62.6152Z"/>
	<path fill="#683901" transform="scale(0.407715 0.407715)" d="M138.165 642.083C147.592 642.016 156.996 641.993 166.416 642.437L166.486 699.999L194.007 700.103L194.035 729.005L166.514 729.001L166.516 700.085C157.038 700.079 147.549 700.32 138.072 700.45L138.165 642.083Z"/>
	<path fill="#FEDD40" transform="scale(0.407715 0.407715)" d="M401.509 118.092Q511.538 117.328 621.562 118.592L621.527 144.707Q656.771 144.253 692.016 144.501L692.021 170.508Q713.781 170.369 735.54 170.514L735.519 196.712Q756.185 196.456 776.85 196.738L776.829 222.01L801.977 221.996L801.974 247.015L828.774 246.921C828.56 255.422 828.728 263.95 828.544 272.461L828.495 297.575C802.613 297.539 776.706 297.721 750.827 297.325Q750.571 284.734 750.553 272.141Q737.808 272.358 725.065 272.077L725.076 247.162L699.004 247.561L699.057 221.166L670.832 221.328C670.821 212.717 670.694 204.087 670.95 195.48L592.107 195.517L592.028 170.973C539.068 171.119 485.924 169.234 432.993 171.032Q433.268 183.315 433.03 195.598L356.962 195.135C356.991 203.937 357.079 212.712 356.628 221.505L327.575 221.296L327.463 247.503L297.502 247.48L297.501 272.978C288.491 272.999 279.499 273.023 270.494 272.65L270.477 297.991L166.888 297.999Q166.441 285.454 166.664 272.903Q180.444 272.611 194.225 272.903C194.471 264.802 194.371 256.662 194.424 248.555Q208.208 248.452 221.992 248.59L221.989 222.993L248.987 222.993L248.987 195.493Q271.225 195.536 293.458 195.043L293.476 170.005L332.506 169.978L332.585 144.427L401.472 144.053L401.509 118.092Z"/>
	<path fill="#683901" transform="scale(0.407715 0.407715)" d="M884.759 586.022C893.838 586.06 902.949 585.936 912.023 586.202C912.012 604.611 911.73 623.061 912.024 641.465Q912.396 656.202 912.364 670.943C908.275 670.605 904.197 670.485 900.097 670.384Q892.326 670.322 884.557 670.513L884.455 726.022Q870.235 725.908 856.015 726.018L856.078 755.023C846.387 754.995 836.677 755.094 826.99 754.838C826.986 763.847 826.863 772.861 827.466 781.855L799.952 782.017L800.004 810.604L772.951 810.575L773.017 837.01L758.899 836.519C759.03 845.349 758.502 855.304 756.904 863.981C752.302 864.06 740.369 865.075 736.446 863.6C730.862 864.252 725.066 863.676 719.447 863.612C710.293 863.508 701.132 863.57 691.977 863.578L692.006 890.002C676.144 889.005 660.118 889.227 644.229 889.313L592.501 889.504L592.53 914.017L432.072 914.001Q432.066 901.476 432.253 888.952L327.584 888.595L327.65 862.586Q311.829 862.423 296.009 862.608L296.039 835.433Q271.321 834.958 246.598 835.073C246.988 826.73 246.959 818.367 247.016 810.017L221.135 809.997C221.771 801.189 221.486 792.257 221.461 783.427L194.035 783.511L194.035 729.005L220.83 728.934L220.816 756.091Q258.898 756.466 296.981 756.111L296.847 784.03L327.499 783.942C327.468 792.766 327.773 801.602 327.963 810.424L357.008 810.121L357.006 837.514L432.475 837.002L432.415 863.51L592.488 863.598L592.52 838.03L636.022 838.005L636.024 809.583L696.02 809.601L696.01 783.031L724.091 783.003Q724.389 769.057 724.237 755.109L801.062 755.003L801.001 726.963L828.012 726.929L828.015 699.036L856.016 698.933L856.052 642.58Q870.469 643.034 884.886 642.599C884.488 635.582 884.781 628.527 884.794 621.501L884.759 586.022Z"/>
	<path fill="#426CB6" transform="scale(0.407715 0.407715)" d="M736.472 836.873C743.8 835.926 751.524 836.408 758.899 836.519C759.03 845.349 758.502 855.304 756.904 863.981C752.302 864.06 740.369 865.075 736.446 863.6C736.867 854.752 736.493 845.739 736.472 836.873Z"/>
	<path fill="#B57104" transform="scale(0.407715 0.407715)" d="M751.513 410.505L751.887 410.531C759.543 412.583 770.018 411.17 777.993 410.996L803.528 411.008L803.508 440.687C811.507 441.296 819.938 440.701 827.967 440.46L912.045 441.081L912.023 586.202C902.949 585.936 893.838 586.06 884.759 586.022L884.794 621.501C884.781 628.527 884.488 635.582 884.886 642.599Q870.469 643.034 856.052 642.58L856.016 698.933L828.015 699.036L828.012 726.929L801.001 726.963L801.062 755.003L724.237 755.109Q724.389 769.057 724.091 783.003L696.01 783.031L696.02 809.601L636.024 809.583L636.022 838.005L592.52 838.03L592.488 863.598L432.415 863.51L432.475 837.002L357.006 837.514L357.008 810.121L327.963 810.424C327.773 801.602 327.468 792.766 327.499 783.942L296.847 784.03L296.981 756.111Q258.898 756.466 220.816 756.091L220.83 728.934L194.035 729.005L194.007 700.103L166.486 699.999L166.416 642.437C156.996 641.993 147.592 642.016 138.165 642.083C137.857 633.227 138.025 624.335 138.037 615.474L111.38 615.579C110.953 605.716 111.06 595.821 111.034 585.95C123.543 587.131 135.982 586.087 148.502 586.024L217.106 586.038C224.38 586.038 235.646 584.327 242.421 586.411L242.557 642.512L269.654 642.513L269.672 643.014C270.299 652.39 270 661.928 269.944 671.324C276.901 672.2 286.23 673.034 293.226 671.753C294.605 671.796 296.108 671.629 297.278 672.453C298.329 680.876 297.684 691.368 297.311 699.928C307.1 699.978 317.208 699.445 326.942 700.045L327.443 700.123Q327.21 714.037 327.473 727.951Q342.155 728.125 356.839 728.083L356.931 728.564C357.001 730.433 357.142 732.33 357.063 734.199L357.415 734.061L357.427 728.315C382.565 729.121 407.815 728.199 432.967 728.45C433.026 737.338 433.908 747.233 432.411 755.976L543.959 755.517C559.951 755.467 576.126 754.437 592.095 755.154L592.026 727.127Q617.83 727.132 643.633 727.404C651.24 727.458 659.726 726.667 667.194 727.722C667.549 729.215 667.751 730.629 667.886 732.156C667.903 730.697 668.03 729.388 668.265 727.947C671.12 726.615 691.949 727.472 696.501 727.482L696.511 698.799C705.717 697.951 715.305 698.52 724.552 698.625C724.408 689.416 724.288 680.233 724.619 671.026L751.124 670.911Q750.808 628.499 751.424 586.091C749.493 567.984 751.985 548.923 751.903 530.694C751.723 490.593 750.427 450.624 751.513 410.505Z"/>
	<path fill="#945602" transform="scale(0.407715 0.407715)" d="M242.488 642.978C251.528 643.25 260.626 643.027 269.672 643.014C270.299 652.39 270 661.928 269.944 671.324C265.582 670.346 248.375 671.058 242.428 670.992Q242.146 656.984 242.488 642.978Z"/>
	<path fill="#945602" transform="scale(0.407715 0.407715)" d="M327.481 728.363C337.256 728.887 347.142 728.589 356.931 728.564C357.001 730.433 357.142 732.33 357.063 734.199C356.032 740.962 356.882 749.073 356.924 755.953Q342.209 756.121 327.494 756.027L327.481 728.363Z"/>
	<path fill="#945602" transform="scale(0.407715 0.407715)" d="M269.944 671.324C276.901 672.2 286.23 673.034 293.226 671.753C294.605 671.796 296.108 671.629 297.278 672.453C298.329 680.876 297.684 691.368 297.311 699.928C307.1 699.978 317.208 699.445 326.942 700.045Q326.81 713.759 326.929 727.474Q312.139 727.883 297.344 728.019C296.833 718.515 296.373 709.333 297.158 699.833C287.931 699.342 278.69 699.731 269.463 700.017Q269.611 685.669 269.944 671.324Z"/>
	<path fill="#945602" transform="scale(0.407715 0.407715)" d="M357.451 755.996L432.153 756.019Q431.909 769.801 432.11 783.583C426.936 785.224 366.504 784.047 357.199 784.036Q357.239 770.015 357.451 755.996Z"/>
	<path fill="#945602" transform="scale(0.407715 0.407715)" d="M667.886 732.156C667.903 730.697 668.03 729.388 668.265 727.947C671.12 726.615 691.949 727.472 696.501 727.482L696.502 755.024L668.024 755.511L668.215 783.755L621.959 783.499C612.206 783.447 602.186 782.972 592.485 783.981L592.479 811.981L432.098 811.995C432.154 802.62 432.575 793.117 432.298 783.76C438.652 784.691 445.36 784.268 451.778 784.247L482.279 784.163L592.421 783.985C593.144 774.389 592.848 765.002 592.467 755.4L667.855 755.465Q668.258 743.811 667.886 732.156Z"/>
	<path fill="#FEDD40" transform="scale(0.407715 0.407715)" d="M592.026 727.127Q617.83 727.132 643.633 727.404C651.24 727.458 659.726 726.667 667.194 727.722C667.549 729.215 667.751 730.629 667.886 732.156Q668.258 743.811 667.855 755.465L592.467 755.4C592.848 765.002 593.144 774.389 592.421 783.985L482.279 784.163L451.778 784.247C445.36 784.268 438.652 784.691 432.298 783.76L432.11 783.583Q431.909 769.801 432.153 756.019L357.451 755.996L357.415 734.061L357.427 728.315C382.565 729.121 407.815 728.199 432.967 728.45C433.026 737.338 433.908 747.233 432.411 755.976L543.959 755.517C559.951 755.467 576.126 754.437 592.095 755.154L592.026 727.127Z"/>
	<path fill="#E38C05" transform="scale(0.407715 0.407715)" d="M827.967 440.46L912.045 441.081L912.023 586.202C902.949 585.936 893.838 586.06 884.759 586.022L827.983 586.027L827.967 440.46Z"/>
	<path fill="#945602" transform="scale(0.407715 0.407715)" d="M751.513 410.505L751.887 410.531C759.543 412.583 770.018 411.17 777.993 410.996L803.528 411.008L803.508 440.687C803.474 498.904 802.939 557.279 803.933 615.485Q790.883 616.03 777.822 615.968C776.917 623.67 777.356 631.665 777.421 639.417L777.509 670.985L751.425 670.981L751.469 698.487C742.632 698.672 733.763 699.023 724.925 698.901Q724.988 713.195 724.774 727.488C715.617 727.792 705.567 728.804 696.501 727.482L696.511 698.799C705.717 697.951 715.305 698.52 724.552 698.625C724.408 689.416 724.288 680.233 724.619 671.026L751.124 670.911Q750.808 628.499 751.424 586.091C749.493 567.984 751.985 548.923 751.903 530.694C751.723 490.593 750.427 450.624 751.513 410.505Z"/>
	<path fill="#F6B112" transform="scale(0.407715 0.407715)" d="M751.513 410.505L751.887 410.531C759.543 412.583 770.018 411.17 777.993 410.996C777.015 444.31 777.51 477.7 777.676 511.027Q777.921 548.518 777.502 586.007L751.424 586.091C749.493 567.984 751.985 548.923 751.903 530.694C751.723 490.593 750.427 450.624 751.513 410.505Z"/>
	<path fill="#F6B112" transform="scale(0.407715 0.407715)" d="M432.993 171.032C485.924 169.234 539.068 171.119 592.028 170.973L592.107 195.517L670.95 195.48C670.694 204.087 670.821 212.717 670.832 221.328L699.057 221.166L699.004 247.561L725.076 247.162L725.065 272.077Q737.808 272.358 750.553 272.141Q750.571 284.734 750.827 297.325C776.706 297.721 802.613 297.539 828.495 297.575L828.544 272.461L855.941 272.415L856.031 350.945Q870.829 350.867 885.625 350.593L885.472 411.944Q898.739 411.447 912.015 411.482L912.045 441.081L827.967 440.46C819.938 440.701 811.507 441.296 803.508 440.687L803.528 411.008L777.993 410.996C770.018 411.17 759.543 412.583 751.887 410.531L751.513 410.505C742.654 410.367 733.818 410.285 724.964 410.674C724.801 400.779 724.96 390.866 724.996 380.97C716.076 379.69 706.043 380.462 697.049 381.015C697.072 372.273 697.419 363.389 696.882 354.668C695.888 362.978 696.586 372.086 696.656 380.489Q681.819 380.682 666.982 380.515Q666.93 366.184 667.098 351.853C657.181 350.837 646.949 351.375 636.989 351.533L637.035 323.001Q637.122 310.66 636.927 298.32L636.964 296.97C622.249 297.008 606.577 298.777 591.979 296.756L592 271.888Q512.271 273.091 432.535 272.344L432.36 296.634C423.831 296.543 415.266 296.298 406.741 296.59L387.496 296.483L387.537 322.785L388.376 323.075C385.889 326.369 387.605 346.97 387.849 351.981L357.437 352.003C357.75 361.472 357.574 370.999 357.417 380.471C351.227 380.675 331.66 382.226 326.88 380.613C325.196 380.634 323.544 380.611 321.883 380.931C313.8 381.143 305.597 381.197 297.52 380.89L297.49 410.995Q297.584 423.669 297.476 436.343L297.332 515.356C297.144 538.976 296.494 562.643 297.456 586.253C288.144 585.895 278.781 586.461 269.49 586.013C260.717 586.654 251.254 587.265 242.524 586.118L242.421 586.411C235.646 584.327 224.38 586.038 217.106 586.038L148.502 586.024C135.982 586.087 123.543 587.131 111.034 585.95C110.989 533.165 110.289 480.391 110.721 427.596L110.699 411.563L136.988 411.599Q137.174 381.245 136.988 350.89L166.928 350.937Q167.044 324.468 166.888 297.999L270.477 297.991L270.494 272.65C279.499 273.023 288.491 272.999 297.501 272.978L297.502 247.48L327.463 247.503L327.575 221.296L356.628 221.505C357.079 212.712 356.991 203.937 356.962 195.135L433.03 195.598Q433.268 183.315 432.993 171.032Z"/>
	<path fill="#FEDD40" transform="scale(0.407715 0.407715)" d="M696.931 352.225C705.569 353.234 716.216 352.762 724.969 352.38L724.996 380.97C716.076 379.69 706.043 380.462 697.049 381.015C697.072 372.273 697.419 363.389 696.882 354.668L696.931 352.225Z"/>
	<path fill="#E38C05" transform="scale(0.407715 0.407715)" d="M775.096 380.571L777.266 380.81C779.716 383.901 777.908 405.497 777.993 410.996C770.018 411.17 759.543 412.583 751.887 410.531C752.238 400.708 752.039 390.852 751.99 381.024C759.648 380.94 767.476 381.292 775.096 380.571Z"/>
	<path fill="#FEDD40" transform="scale(0.407715 0.407715)" d="M636.964 296.97C646.346 296.91 658.012 295.913 667.15 297.161L667.404 297.324L667.472 322.995L637.035 323.001Q637.122 310.66 636.927 298.32L636.964 296.97Z"/>
	<path fill="#FEDD40" transform="scale(0.407715 0.407715)" d="M724.996 380.97L751.99 381.024C752.039 390.852 752.238 400.708 751.887 410.531L751.513 410.505C742.654 410.367 733.818 410.285 724.964 410.674C724.801 400.779 724.96 390.866 724.996 380.97Z"/>
	<path fill="#FEDD40" transform="scale(0.407715 0.407715)" d="M269.541 381.002Q283.53 380.775 297.52 380.89L297.49 410.995C288.456 410.983 279.371 410.774 270.345 411.182C268.648 405.703 269.552 387.906 269.541 381.002Z"/>
	<path fill="#FEDD40" transform="scale(0.407715 0.407715)" d="M667.472 322.995Q681.985 322.729 696.498 323.018L696.49 351.997Q681.778 352.083 667.067 351.857Q667.583 337.43 667.472 322.995Z"/>
	<path fill="#FEDD40" transform="scale(0.407715 0.407715)" d="M327.004 323.09L357.016 323.017L357.026 351.498C347.012 351.627 336.979 351.516 326.962 351.516Q326.64 337.302 327.004 323.09Z"/>
	<path fill="#FEDD40" transform="scale(0.407715 0.407715)" d="M297.437 351.998Q312.203 351.662 326.97 351.965C327.099 361.523 327.232 371.057 326.88 380.613C325.196 380.634 323.544 380.611 321.883 380.931C313.8 381.143 305.597 381.197 297.52 380.89L297.437 351.998Z"/>
	<path fill="#FEDD40" transform="scale(0.407715 0.407715)" d="M242.058 411.537C251.243 411.356 260.415 411.164 269.594 411.616C269.162 421.251 269.456 430.839 269.491 440.476L269.49 586.013C260.717 586.654 251.254 587.265 242.524 586.118C241.99 569.425 242.461 552.736 242.442 536.037Q242.212 488.744 242.512 441.454C243.073 431.595 242.366 421.411 242.058 411.537Z"/>
	<path fill="#FEDD40" transform="scale(0.407715 0.407715)" d="M432.422 246.031L591.987 246.103L592.002 271.536C606.717 269.926 622.214 270.993 637.012 271.466Q637.15 282.125 637.106 292.784L636.964 296.97C622.249 297.008 606.577 298.777 591.979 296.756L592 271.888Q512.271 273.091 432.535 272.344L432.36 296.634C423.831 296.543 415.266 296.298 406.741 296.59L387.496 296.483L387.537 322.785C377.613 323.732 367.018 323 357.016 323.017L357.018 296.023Q372.017 295.88 387.017 296L387.013 270.59Q409.742 270.944 432.473 271.022L432.422 246.031Z"/>
	<path fill="#E38C05" transform="scale(0.407715 0.407715)" d="M110.721 427.596C111.682 431.766 110.987 437.073 111.004 441.424C154.767 441.43 198.786 439.93 242.512 441.454Q242.211 488.746 242.442 536.037C242.461 552.736 241.99 569.425 242.524 586.118L242.421 586.411C235.646 584.327 224.38 586.038 217.106 586.038L148.502 586.024C135.982 586.087 123.543 587.131 111.034 585.95C110.989 533.165 110.289 480.391 110.721 427.596Z"/>
	<path fill="#FAC221" transform="scale(0.407715 0.407715)" d="M432.535 272.344Q512.271 273.091 592 271.888L591.979 296.756C606.577 298.777 622.249 297.008 636.964 296.97L636.927 298.32Q637.122 310.66 637.035 323.001L636.989 351.533C646.949 351.375 657.181 350.837 667.098 351.853Q666.93 366.184 666.982 380.515Q681.819 380.682 696.656 380.489C696.586 372.086 695.888 362.978 696.882 354.668C697.419 363.389 697.072 372.273 697.049 381.015C706.043 380.462 716.076 379.69 724.996 380.97C724.96 390.866 724.801 400.779 724.964 410.674C733.818 410.285 742.654 410.367 751.513 410.505C750.427 450.624 751.723 490.593 751.903 530.694C751.985 548.923 749.493 567.984 751.424 586.091Q750.808 628.5 751.124 670.911L724.619 671.026C724.288 680.233 724.408 689.416 724.552 698.625C715.305 698.52 705.717 697.951 696.511 698.799L696.501 727.482C691.949 727.472 671.12 726.615 668.265 727.947C668.03 729.388 667.903 730.697 667.886 732.156C667.751 730.629 667.549 729.215 667.194 727.722C659.726 726.667 651.24 727.458 643.633 727.404Q617.83 727.132 592.026 727.127L592.095 755.154C576.126 754.437 559.951 755.467 543.959 755.517L432.411 755.976C433.908 747.233 433.026 737.338 432.967 728.45C407.815 728.199 382.565 729.121 357.427 728.315L357.415 734.061L357.063 734.199C357.142 732.33 357.001 730.433 356.931 728.564L356.839 728.083Q342.155 728.125 327.473 727.951Q327.21 714.037 327.443 700.123L326.942 700.045C317.208 699.445 307.1 699.978 297.311 699.928C297.684 691.368 298.329 680.876 297.278 672.453C296.108 671.629 294.605 671.796 293.226 671.753C286.23 673.034 276.901 672.2 269.944 671.324C270 661.928 270.299 652.39 269.672 643.014L269.654 642.513L242.557 642.512L242.421 586.411L242.524 586.118C251.254 587.265 260.717 586.654 269.49 586.013C278.781 586.461 288.144 585.895 297.456 586.253C296.494 562.643 297.144 538.976 297.332 515.356L297.476 436.343Q297.584 423.669 297.49 410.995L297.52 380.89C305.597 381.197 313.8 381.143 321.883 380.931C323.544 380.611 325.196 380.634 326.88 380.613C331.66 382.226 351.227 380.675 357.417 380.471C357.574 370.999 357.75 361.472 357.437 352.003L387.849 351.981C387.605 346.97 385.889 326.369 388.376 323.075L387.537 322.785L387.496 296.483L406.741 296.59C415.266 296.298 423.831 296.543 432.36 296.634L432.535 272.344Z"/>
	<path fill="#F6B112" transform="scale(0.407715 0.407715)" d="M432.532 298.016C454.766 297.975 477.033 297.841 499.265 298.116C493.712 298.833 487.887 298.652 482.293 298.679C466.087 298.757 449.405 297.542 433.248 298.746L433.245 322.5C444.647 322.498 456.27 322.071 467.644 322.72C456.031 323.523 444.165 322.944 432.515 323.083Q432.407 337.093 433.013 351.09Q422.244 351.613 411.463 351.567C411.518 342.158 411.394 332.714 411.621 323.31C405.262 323.528 394.863 324.809 388.835 323.097C403.186 322.189 418.076 322.993 432.485 322.987L432.532 298.016Z"/>
	<path fill="#F6B112" transform="scale(0.407715 0.407715)" d="M697.049 381.015C706.043 380.462 716.076 379.69 724.996 380.97C724.96 390.866 724.801 400.779 724.964 410.674C718.388 411.927 704.174 411.127 696.94 411.212Q696.875 396.113 697.049 381.015Z"/>
	<path fill="#F6B112" transform="scale(0.407715 0.407715)" d="M321.883 380.931C323.381 381 325.221 380.822 326.511 381.661C327.154 391.308 326.732 401.166 326.873 410.846C317.087 410.903 307.274 411.124 297.49 410.995L297.52 380.89C305.597 381.197 313.8 381.143 321.883 380.931Z"/>
	<path fill="#F6B112" transform="scale(0.407715 0.407715)" d="M624.726 473.088L626.516 473.073C627.787 474.405 627.766 476.372 627.716 478.168Q627.596 481.743 627.563 485.319C626.877 490.475 627.557 496.095 627.638 501.311C615.851 502.184 603.797 501.737 591.968 502.077C592.041 492.544 592.155 483.019 591.798 473.49C602.673 473.422 613.913 474.187 624.726 473.088Z"/>
	<path fill="#F6B112" transform="scale(0.407715 0.407715)" d="M421.789 587.098C425.173 586.948 428.602 586.896 431.97 586.539C432.243 596.19 432.786 605.881 431.859 615.51C427.962 615.824 423.716 615.49 419.795 615.462Q407.908 615.35 396.021 615.449L396 587.266C403.343 587.762 414.709 588.808 421.789 587.098Z"/>
	<path fill="#F6B112" transform="scale(0.407715 0.407715)" d="M629.4 410.872C633.899 409.698 659.921 410.977 666.5 410.916C666.483 420.642 667.019 430.619 666.558 440.307C664.375 440.289 657.113 439.616 655.628 440.786L629.023 441.007Q629.087 425.938 629.4 410.872Z"/>
	<path fill="#F6B112" transform="scale(0.407715 0.407715)" d="M592.051 384.186C592.272 382.708 592.342 380.926 593.054 379.622C605.033 379.706 616.947 380.094 628.94 379.927C628.883 390.182 628.755 400.49 629.166 410.737C617.089 409.416 604.268 410.357 592.125 410.581C591.624 401.739 591.777 393.031 592.051 384.186Z"/>
	<path fill="#F6B112" transform="scale(0.407715 0.407715)" d="M592.066 587.142C604.327 586.102 617.226 587.003 629.58 586.967L629.513 617.406C617.347 617.436 603.867 618.269 591.852 617.465C593.242 607.597 592.523 597.073 592.066 587.142Z"/>
	<path fill="#F6B112" transform="scale(0.407715 0.407715)" d="M359.126 557.18C371.193 556.662 383.355 556.606 395.435 556.485C395.554 565.714 395.024 575.343 395.716 584.505L395.245 585.921C391.864 587.594 362.761 586.534 356.884 586.526C356.935 581.864 355.677 559.988 357.012 557.554L359.126 557.18Z"/>
	<path fill="#E38C05" transform="scale(0.407715 0.407715)" d="M387.496 296.483L406.741 296.59C421.902 298.094 438.402 297.024 453.739 297.013L550.316 297.15Q561.793 297.203 573.268 296.957C579.139 296.808 585.041 296.345 590.91 296.634L590.483 297.363C585.501 298.217 579.475 297.293 574.819 298.95C574.538 299.05 574.253 299.142 573.97 299.239C565.125 297.825 555.346 298.384 546.38 298.315L499.265 298.116C477.033 297.841 454.766 297.975 432.532 298.016L432.485 322.987C418.076 322.993 403.186 322.189 388.835 323.097L388.376 323.075L387.537 322.785L387.496 296.483Z"/>
	<path fill="#F6B112" transform="scale(0.407715 0.407715)" d="M568.871 441.666L591.023 441.488C591.829 450.538 590.997 459.603 591.113 468.669C590.84 469.781 590.927 471.055 590.894 472.202Q566.893 471.987 542.891 472.209L542.791 442.138C546.875 442.169 566.76 442.95 568.871 441.666Z"/>
	<path fill="#FEDD40" transform="scale(0.407715 0.407715)" d="M269.508 586.531L297.533 586.557Q297.732 615.019 297.585 643.481C297.166 652.55 298.373 662.2 297.214 671.138L293.226 671.753C286.23 673.034 276.901 672.2 269.944 671.324C270 661.928 270.299 652.39 269.672 643.014L269.654 642.513C270.342 636.512 269.574 629.539 269.52 623.441Q269.406 604.986 269.508 586.531Z"/>
	<path fill="#F6B112" transform="scale(0.407715 0.407715)" d="M297.533 586.557Q312.309 586.419 327.08 586.021L327.009 671.468L297.869 671.54C297.863 662.343 298.47 652.616 297.585 643.481Q297.732 615.019 297.533 586.557Z"/>
	<path fill="#F6B112" transform="scale(0.407715 0.407715)" d="M327.384 671.513C337.28 671.151 347.157 671.324 357.042 671.046L357.042 699.076L387.711 698.995Q387.643 713.521 387.987 728.043C380.167 727.972 364.415 726.831 357.427 728.315L357.415 734.061L357.063 734.199C357.142 732.33 357.001 730.433 356.931 728.564L356.839 728.083Q342.155 728.125 327.473 727.951Q327.21 714.037 327.443 700.123L327.848 699.678C326.302 691.718 327.336 679.918 327.384 671.513Z"/>
	<path fill="#FEDD40" transform="scale(0.407715 0.407715)" d="M327.848 699.678C337.553 699.356 347.283 699.485 356.993 699.49C357.009 709.004 357.25 718.578 356.839 728.083Q342.155 728.125 327.473 727.951Q327.21 714.037 327.443 700.123L327.848 699.678Z"/>
	<path fill="#F6B112" transform="scale(0.407715 0.407715)" d="M566.287 618.097C574.147 617.991 582.16 618.335 589.989 617.76C590.803 617.975 591.194 618.139 591.895 618.549C592.478 625.782 592.079 633.178 592.05 640.432Q592.002 656.202 592.306 671.969L543.445 672.064C543.432 654.215 543.627 636.38 543.038 618.537C550.161 618.651 559.368 619.751 566.287 618.097Z"/>
	<path fill="#F6B112" transform="scale(0.407715 0.407715)" d="M667.962 470.913L696.502 470.908L697.014 587.03L630.117 587.177C630.183 581.511 630.622 575.55 629.92 569.924C629.514 565.834 629.838 561.434 629.836 557.308Q638.898 556.438 648.001 556.588C653.317 556.652 662.374 557.855 667.214 556.55L667.616 555.257C668.4 545.694 667.903 535.819 667.902 526.217L667.962 470.913Z"/>
	<path fill="#F6B112" transform="scale(0.407715 0.407715)" d="M477.489 586.961C488.626 586.953 499.831 587.171 510.961 586.845L511.032 672.036C491.853 672.318 472.766 672.247 453.587 671.967Q453.641 656.977 454.031 641.993Q442.983 641.96 431.937 642.172C431.703 634.061 431.552 626.09 432.045 617.985L454.118 617.837Q465.758 618.12 477.4 618.026Q477.572 602.494 477.489 586.961Z"/>
	<path fill="#F6B112" transform="scale(0.407715 0.407715)" d="M432.535 272.344Q512.271 273.091 592 271.888L591.979 296.756C606.577 298.777 622.249 297.008 636.964 296.97L636.927 298.32C635.469 305.803 636.488 315.202 636.551 322.906L592.053 323.016L592.074 299.991C585.995 300.07 579.996 300.207 573.97 299.239C574.253 299.142 574.538 299.05 574.819 298.95C579.475 297.293 585.501 298.217 590.483 297.363L590.91 296.634C585.041 296.345 579.139 296.808 573.268 296.957Q561.793 297.203 550.316 297.15L453.739 297.013C438.402 297.024 421.902 298.094 406.741 296.59C415.266 296.298 423.831 296.543 432.36 296.634L432.535 272.344Z"/>
	<path fill="#F6B112" transform="scale(0.407715 0.407715)" d="M478.129 410.98Q494.553 411.124 510.977 410.966L511.001 472.012Q494.504 472.2 478.005 472.143C477.712 481.922 477.573 491.626 477.905 501.404L427.75 501.4C417.099 501.351 406.494 500.949 395.845 501.432Q396.039 486.719 395.657 472.009L432.447 472.11Q432.436 456.913 432.038 441.722C447.274 441.045 462.674 441.513 477.928 441.571C477.493 436.97 477.55 432.401 477.616 427.788C478.851 422.634 478.177 416.284 478.129 410.98Z"/>
	<path fill="#FEFEFE" transform="scale(0.407715 0.407715)" d="M431.999 379.412L477.587 379.429L477.616 427.788C477.55 432.401 477.493 436.97 477.928 441.571C462.674 441.513 447.274 441.045 432.038 441.722Q432.436 456.913 432.447 472.11L395.657 472.009Q396.039 486.719 395.845 501.432L396.017 525.004L432.027 525.017L432.021 556.435L477.523 556.506L477.489 586.961Q477.572 602.494 477.4 618.026Q465.757 618.12 454.118 617.837L432.045 617.985L431.859 615.51C432.786 605.881 432.243 596.19 431.97 586.539C428.602 586.896 425.173 586.948 421.789 587.098C417.509 587.003 398.516 587.897 396.122 586.534L395.716 584.505C395.024 575.343 395.554 565.714 395.435 556.485C383.355 556.606 371.193 556.662 359.126 557.18C358.244 557.109 357.699 556.983 356.908 556.584C354.886 552.176 355.997 454.507 355.997 441.414Q375.26 441.189 394.523 441.416L394.552 410.759C406.979 410.079 419.568 410.539 432.013 410.6L431.999 379.412Z"/>
	<path fill="#FEFEFE" transform="scale(0.407715 0.407715)" d="M542.472 379.045C552.92 378.634 563.374 378.784 573.827 378.865C579.622 378.91 585.697 378.575 591.43 379.288C592.255 380.474 592.002 382.705 592.051 384.186C591.777 393.031 591.624 401.739 592.125 410.581C604.268 410.357 617.089 409.416 629.166 410.737L629.4 410.872Q629.087 425.938 629.023 441.007L655.628 440.786C659.571 440.819 663.532 440.775 667.472 440.912L667.493 514.86C667.492 528.297 667.116 541.839 667.616 555.257L667.214 556.55C662.374 557.855 653.317 556.652 648.001 556.588Q638.898 556.438 629.836 557.308C629.838 561.434 629.514 565.834 629.92 569.924C629.506 575.588 629.602 581.291 629.58 586.967C617.226 587.003 604.327 586.102 592.066 587.142C592.523 597.073 593.242 607.597 591.852 617.465L589.989 617.76C582.16 618.335 574.147 617.991 566.287 618.097C558.546 617.899 550.765 618.04 543.019 618.021Q542.611 587.381 542.959 556.741L591.525 556.501L591.503 525.604L627.626 525.41C627.55 512.219 629.211 498.418 627.563 485.319Q627.596 481.743 627.716 478.168C627.766 476.372 627.787 474.405 626.516 473.073L624.726 473.088C613.766 472.615 602.603 473 591.624 473.003C591.54 471.511 591.387 470.137 591.113 468.669C590.997 459.603 591.829 450.538 591.023 441.488L568.871 441.666C560.181 441.241 551.286 441.622 542.573 441.609Q542.345 410.326 542.472 379.045Z"/>
</svg>
