<?xml version="1.0" encoding="utf-8" ?>
<svg xmlns="http://www.w3.org/2000/svg" xmlns:xlink="http://www.w3.org/1999/xlink" width="272" height="272">
	<path fill="#404D6B" transform="scale(0.266042 0.266042)" d="M671.495 728.012L675.686 728.107C673.667 728.303 672.315 728.172 670.628 729.419C669.524 731.489 670.519 734.328 671.037 736.485C670.177 735.542 669.276 734.727 668.196 734.047C667.778 733.784 667.046 733.433 666.731 733.054C665.6 731.698 666.008 729.675 666.037 728.009L671.495 728.012Z"/>
	<path fill="#5566A1" transform="scale(0.266042 0.266042)" d="M291.924 343.725C291.968 342.082 291.887 339.79 292.601 338.292C293.441 336.531 295.305 336.174 297.008 335.733C297.222 338.376 297.33 341.41 296.746 344.019C291.306 343.742 285.889 344.318 280.443 343.779C284.148 343.373 288.184 343.709 291.924 343.725Z"/>
	<path fill="#FDFCFC" transform="scale(0.266042 0.266042)" d="M655.987 728.001L666.037 728.009C666.008 729.675 665.6 731.698 666.731 733.054C667.046 733.433 667.778 733.784 668.196 734.047C669.276 734.727 670.177 735.542 671.037 736.485C671.196 739.358 671.343 742.194 671.237 745.073L663.154 744.984C660.767 744.61 658.652 744.581 656.253 744.7C655.72 739.198 655.985 733.528 655.987 728.001Z"/>
	<path fill="#58EAE8" transform="scale(0.266042 0.266042)" d="M752.544 791.747L760.074 791.644Q760.25 799.333 760.11 807.023L752.625 806.971L743.486 806.964L743.441 791.814L752.544 791.747Z"/>
	<path fill="#58EAE8" transform="scale(0.266042 0.266042)" d="M156.963 270.988L173.031 270.975L173.054 287.16C167.704 286.982 162.323 287.138 156.971 287.171Q156.822 279.08 156.963 270.988Z"/>
	<path fill="#58EAE8" transform="scale(0.266042 0.266042)" d="M598.024 104.977L615.009 104.944L615.032 121.118C609.371 121.303 603.695 121.265 598.031 121.308L598.024 104.977Z"/>
	<path fill="#58EAE8" transform="scale(0.266042 0.266042)" d="M792.462 712.451C794.981 712.263 797.47 712.374 799.99 712.459L800.121 718.903L807.026 718.903L807.035 728.016L800.342 728.153C800.369 730.785 800.472 733.366 799.911 735.956C798.254 736.014 796.474 736.183 794.826 736.048C793.484 735.938 793.048 735.631 792.168 734.655C791.718 732.564 792.383 730.507 792.821 728.453L785.987 728.226L785.974 719.532L792.498 719.414L792.462 712.451Z"/>
	<path fill="#87C5DB" transform="scale(0.266042 0.266042)" d="M414.739 127.238Q420.713 127.218 426.685 127.35C426.852 132.777 426.746 138.226 426.738 143.656L420.625 143.734C416.406 143.725 412.183 143.804 407.964 143.841C407.767 138.363 407.711 133.017 407.995 127.541C410.237 127.391 412.493 127.336 414.739 127.238Z"/>
	<path fill="#87C5DB" transform="scale(0.266042 0.266042)" d="M158.892 419.736L174.028 419.618C174.108 423.645 175.218 434.72 173.563 437.958L172.125 438.169Q164.585 438.223 157.047 438.425C156.967 433.112 155.934 425.137 157.457 420.202L158.892 419.736Z"/>
	<path fill="#58EAE8" transform="scale(0.266042 0.266042)" d="M832.902 352.678L848.994 352.515C849.046 358.601 849.582 365.173 848.836 371.194L848.064 371.545L831.71 371.529Q831.556 366.618 831.498 361.704C831.486 359.028 830.913 354.685 832.902 352.678Z"/>
	<path fill="#87C5DB" transform="scale(0.266042 0.266042)" d="M130.372 572.035L148.499 571.997L148.529 590.373Q139.487 590.171 130.444 590.348L130.372 572.035Z"/>
	<path fill="#58EAE8" transform="scale(0.266042 0.266042)" d="M865.3 547.45C871.869 547.335 878.454 547.421 885.025 547.415L885.057 567.038L865.363 567.085C865.254 560.544 865.313 553.992 865.3 547.45Z"/>
	<path fill="#8297CA" transform="scale(0.266042 0.266042)" d="M319.987 695.537C325.335 695.243 330.633 695.012 335.992 695.088C335.979 700.56 336.109 706.076 335.936 711.543C335.749 714.323 335.561 717.085 335.574 719.873L320.019 719.959L319.987 695.537Z"/>
	<path fill="#FDFCFC" transform="scale(0.266042 0.266042)" d="M326.955 264.42C329.804 264.428 332.608 264.318 335.45 264.128C335.437 266.42 334.974 269.584 336.007 271.679L337.382 272.009C339.605 272.353 341.758 272.566 344.007 272.642L343.818 288.008L314.926 288.031C314.29 285.413 314.445 282.624 314.413 279.941C318.585 279.987 322.764 279.888 326.936 279.841Q326.847 272.13 326.955 264.42Z"/>
	<path fill="#A4DDE5" transform="scale(0.266042 0.266042)" d="M232.395 552.962C237.817 552.962 243.277 552.845 248.695 553C249.438 563.062 248.354 572.988 248.59 583.022L232.057 582.99L232.395 552.962Z"/>
	<path fill="#BCCBE5" transform="scale(0.266042 0.266042)" d="M742.999 656.632L743.313 656.865C741.37 659.964 742.444 675.38 742.482 680.016C736.02 679.972 729.342 680.253 722.913 679.704C722.091 679.58 721.361 679.402 720.572 679.141C720.056 671.656 720.455 663.982 720.503 656.475C728.043 657.16 735.455 656.996 742.999 656.632Z"/>
	<path fill="#FDFCFC" transform="scale(0.266042 0.266042)" d="M496.365 142.98L527.967 142.921L527.979 159.148C523.701 160.557 516.547 159.948 511.943 160.02Q504.17 160.146 496.401 159.855C496.2 154.225 496.714 148.624 496.365 142.98Z"/>
	<path fill="#FDFCFC" transform="scale(0.266042 0.266042)" d="M297.027 296.954L312.641 296.887Q313.252 316.402 312.95 335.925C307.735 336.077 302.086 336.537 296.966 335.364L297.027 296.954Z"/>
	<path fill="#8297CA" transform="scale(0.266042 0.266042)" d="M287.995 655.945L304.034 656.057L304.072 672.003L320.01 672.003L319.987 695.537L303.953 695.877L303.912 680.531L287.989 680.54C287.806 672.352 287.964 664.137 287.995 655.945Z"/>
	<path fill="#FDFCFC" transform="scale(0.266042 0.266042)" d="M791.483 527.286C795.423 527.018 799.296 527 803.243 527.088C804.086 527.242 806.605 527.408 807.073 528.041C807.712 528.907 807.761 530.241 807.924 531.284Q808.097 541.942 808.048 552.602L791.728 552.534Q791.987 566.679 792.025 580.826Q783.778 580.531 775.527 580.685C776.422 571.334 775.921 561.768 775.676 552.395C780.95 552.236 786.24 552.4 791.514 552.475L791.483 527.286Z"/>
	<path fill="#D2A866" transform="scale(0.266042 0.266042)" d="M262.385 225.971L273.972 225.811L274.042 242.943C278.86 243.132 283.708 242.955 288.529 242.886L288.543 256.47L274.616 256.461C274.728 259.367 275.812 269.333 274.411 271.553L262.063 271.539L262.125 256.466C257.3 256.058 252.408 256.158 247.568 256.115C246.996 251.784 247.104 247.393 247.088 243.032C251.193 243.156 257.638 244.184 261.201 242.02C263.759 238.936 262.437 230.126 262.385 225.971Z"/>
	<path fill="#A2B3D5" transform="scale(0.266042 0.266042)" d="M495.133 159.797L495.55 159.718C497.091 156.95 495.794 147.019 496.365 142.98C496.714 148.624 496.2 154.225 496.401 159.855Q504.17 160.146 511.943 160.02C511.876 165.307 511.653 170.581 512.011 175.862C506.973 176.573 501.921 176.526 496.845 176.354L496.944 191.978C492.346 192.286 477.793 193.654 474.294 192.01C474.664 186.66 474.486 181.245 474.397 175.885L474.489 175.654L474.544 159.968Q484.84 160.082 495.133 159.797Z"/>
	<path fill="#FDFCFC" transform="scale(0.266042 0.266042)" d="M474.544 159.968Q484.84 160.082 495.133 159.797C496.28 160.903 496.029 162.192 496.056 163.745C496.124 167.826 496.06 171.918 496.045 176C490.713 176.045 478.973 177.09 474.489 175.654L474.544 159.968Z"/>
	<path fill="#F2E18E" transform="scale(0.266042 0.266042)" d="M764.61 266.253C768.603 266.097 772.623 266.226 776.619 266.264C776.613 271.271 776.502 276.28 776.431 281.286C781.642 281.397 786.868 281.352 792.08 281.382C792.18 286.579 792.085 291.791 792.069 296.99C787.07 296.83 782.05 296.934 777.048 296.951L777.04 311.205C774.401 312.893 768.272 312.162 765.059 312.141Q765.13 304.338 765.075 296.534L751.014 296.628L751.032 281.448C755.541 281.352 760.058 281.368 764.567 281.332Q764.445 273.792 764.61 266.253Z"/>
	<path fill="#D2A866" transform="scale(0.266042 0.266042)" d="M695.4 161.978L712.046 161.913L712.088 176.927L726.557 176.939L726.564 192.085L712.047 192.097L712.081 205.934C706.762 206.476 700.938 206.059 695.564 206.085L695.491 192.042Q688.487 192.049 681.484 192.129L681.411 177.015L695.424 176.942L695.4 161.978Z"/>
	<path fill="#D2A866" transform="scale(0.266042 0.266042)" d="M247.842 712.262C253.288 712.183 258.709 712.08 264.15 712.397L264.179 727.933L279.484 727.989L279.441 744.063C274.319 743.989 269.185 744.046 264.061 744.041C264.091 749.1 264.698 755.039 263.825 759.994L263.013 760.25C257.967 760.074 252.951 760.22 247.907 760.374C247.749 755.039 247.873 749.689 247.915 744.353L232.012 744.404C231.952 738.908 232.004 733.406 232.001 727.91L247.88 727.829C247.72 722.676 247.453 717.404 247.842 712.262Z"/>
	<path fill="#6F85BF" transform="scale(0.266042 0.266042)" d="M248.911 589.716C249.207 587.491 249.123 585.227 249.126 582.987L272.107 583.047L272.036 607.488C277.348 607.282 282.673 606.985 287.99 607.066L287.995 655.945C281.711 655.816 275.407 655.94 269.122 655.975Q269.265 631.931 269.09 607.888L248.937 607.908C248.866 601.846 248.719 595.776 248.911 589.716Z"/>
	<defs>
		<linearGradient id="gradient_0" gradientUnits="userSpaceOnUse" x1="714.50488" y1="614.23816" x2="755.33215" y2="623.84174">
			<stop offset="0" stop-color="#5F8AB2"/>
			<stop offset="1" stop-color="#75A8C7"/>
		</linearGradient>
	</defs>
	<path fill="url(#gradient_0)" transform="scale(0.266042 0.266042)" d="M720.822 583.997L758.597 584.002C758.626 587.511 758.496 591.122 758.926 594.604C758.971 601.048 759.141 607.528 758.953 613.969C758.935 616.003 758.887 617.821 759.462 619.795C759.889 632.176 759.539 644.606 759.578 656.995C754.217 656.979 748.652 657.232 743.313 656.865L742.999 656.632C735.455 656.996 728.043 657.16 720.503 656.475C720.615 632.409 719.272 608.034 720.822 583.997Z"/>
	<path fill="#FDFCFC" transform="scale(0.266042 0.266042)" d="M742.987 614.334Q750.972 614.247 758.953 613.969C758.935 616.003 758.887 617.821 759.462 619.795C759.889 632.176 759.539 644.606 759.578 656.995C754.217 656.979 748.652 657.232 743.313 656.865L742.999 656.632C742.569 651.174 743.22 645.266 743.258 639.753C743.316 631.289 743.045 622.801 742.987 614.334Z"/>
	<path fill="#FDFCFC" transform="scale(0.266042 0.266042)" d="M456.486 175.972L474.397 175.885C474.486 181.245 474.664 186.66 474.294 192.01L473.065 192.286C472.144 197.593 472.183 202.98 472.433 208.346C467.287 208.397 462.134 208.591 457.013 207.996C451.315 207.841 445.684 207.718 439.988 208.053L440.007 224.135C431.787 223.294 423.993 224.058 415.814 224.039C415.715 227.308 416.483 237.356 415.683 239.977C411.315 240.057 406.938 239.991 402.569 239.984C401.851 240.227 400.885 240.297 400.502 241.005C398.82 244.12 399.94 252.349 400.006 255.995L391.987 255.992C386.644 256.267 381.168 256.307 375.865 257.013L375.982 273.011C365.471 273.02 355.017 272.939 344.514 272.463C344.555 267.532 345.176 261.673 344.311 256.855Q356.233 256.861 368.153 256.671Q368.024 248.329 368.22 239.989L384.915 239.965C384.85 234.65 384.975 229.315 385.017 223.998L409.492 223.886L409.541 208.022L433.03 207.931C432.947 202.517 433.024 197.089 433.025 191.673C440.799 192.116 448.658 191.819 456.436 191.656L456.486 175.972Z"/>
	<path fill="#A2B3D5" transform="scale(0.266042 0.266042)" d="M391.982 240.018L402.569 239.984C401.851 240.227 400.885 240.297 400.502 241.005C398.82 244.12 399.94 252.349 400.006 255.995L391.987 255.992L391.982 240.018Z"/>
	<path fill="#A2B3D5" transform="scale(0.266042 0.266042)" d="M456.939 192.361C462.454 192.915 467.541 192.831 473.065 192.286C472.144 197.593 472.183 202.98 472.433 208.346C467.287 208.397 462.134 208.591 457.013 207.996L456.939 192.361Z"/>
	<path fill="#404D6B" transform="scale(0.266042 0.266042)" d="M592.25 728.542C602.37 728.489 612.915 727.837 622.988 728.683C623.991 733.814 623.399 739.47 623.307 744.694L624.24 744.83C632.009 745.995 639.057 750.767 647.267 747.831C648.06 746.919 647.984 746.877 648.006 745.653C650.763 745.39 653.521 745.164 656.253 744.7C658.652 744.581 660.767 744.61 663.154 744.984C660.907 745.12 658.663 745.268 656.412 745.322C656.388 746.853 656.374 748.221 655.944 749.709C655.253 750.199 655.266 750.442 654.367 750.26C653.195 750.023 652.203 749.519 651.137 749.004C650.435 749.063 650.115 748.918 649.606 749.489C646.764 752.676 649.075 763.582 648.351 768.066L632.401 768.055L632.383 784.095L615.59 784.064C615.721 787.537 617.069 797.695 615.207 800.326L614.09 800.393C607.028 800.434 599.537 799.747 592.543 800.507C592.519 805.927 592.941 811.886 592.235 817.236C591.67 811.798 592.109 806.057 592.217 800.591L583.651 800.564C581.151 800.331 578.563 800.488 576.051 800.512L576.022 792.151C581.429 791.83 586.761 792.168 592.145 792.676C593.24 783.065 592.386 772.659 592.405 762.961C592.427 751.698 593.288 739.716 592.25 728.542Z"/>
	<path fill="#CCF6F9" transform="scale(0.266042 0.266042)" d="M599.506 784.008C604.88 783.905 610.216 783.889 615.59 784.064C615.721 787.537 617.069 797.695 615.207 800.326L614.09 800.393C609.339 799.709 604.332 799.983 599.537 799.986L599.506 784.008Z"/>
	<path fill="#E2F5F8" transform="scale(0.266042 0.266042)" d="M631.921 751.489L648.123 751.5C648.127 756.835 647.642 762.812 648.351 768.066L632.401 768.055L632.114 767.86Q631.855 759.676 631.921 751.489Z"/>
	<path fill="#CCF6F9" transform="scale(0.266042 0.266042)" d="M632.114 767.86L632.401 768.055L632.383 784.095L615.59 784.064C615.283 778.752 615.482 773.326 615.473 768.001Q623.795 768.065 632.114 767.86Z"/>
	<path fill="#A2B3D5" transform="scale(0.266042 0.266042)" d="M375.865 257.013C381.168 256.307 386.644 256.267 391.987 255.992L392.018 288.514L384.345 288.492L383.989 296.003L367.976 295.984L368.011 311.996L359.989 312.005L360.008 319.997L351.102 320.004L343.986 320.013L343.991 336.003L336.48 336.009L336.502 343.993C331.172 344.051 325.264 344.599 320.017 343.635C318.537 343.568 317.372 343.516 315.987 342.905C314.562 340.957 314.951 338.387 314.931 336.032L312.95 335.925Q313.252 316.402 312.641 296.887C312.896 294.497 313.718 292.967 314.948 290.971C315.629 289.864 315.19 289.253 314.926 288.031L343.818 288.008L344.007 272.642C341.758 272.566 339.605 272.353 337.382 272.009C339.584 271.9 341.801 271.973 344.005 271.989C344.009 267.035 343.659 261.762 344.311 256.855C345.176 261.673 344.555 267.532 344.514 272.463C355.017 272.939 365.471 273.02 375.982 273.011L375.865 257.013Z"/>
	<path fill="#8297CA" transform="scale(0.266042 0.266042)" d="M314.931 336.032L320.005 336.064L320.017 343.635C318.537 343.568 317.372 343.516 315.987 342.905C314.562 340.957 314.951 338.387 314.931 336.032Z"/>
	<path fill="#8297CA" transform="scale(0.266042 0.266042)" d="M343.922 295.951L367.976 295.984L368.011 311.996L359.989 312.005L360.008 319.997L351.102 320.004L343.986 320.013C344.11 312.001 343.95 303.965 343.922 295.951Z"/>
	<path fill="#5566A1" transform="scale(0.266042 0.266042)" d="M264.49 512.006C264.589 514.672 264.607 517.367 264.834 520.024L271.968 519.99C272.046 522.681 272.074 525.376 272.367 528.054C272.5 530.701 272.565 533.354 272.985 535.973L279.493 536.31L280.043 543.564L295.519 543.493C295.688 546.348 295.915 549.211 296.021 552.068L304.502 552.02L304.477 568.021C309.379 567.97 315.23 567.338 320.018 568.279C320.021 573.219 319.95 578.173 320.038 583.111L319.949 583.4C314.145 582.903 308.111 583.154 302.285 583.118Q287.196 582.989 272.107 583.047L249.126 582.987C249.123 585.227 249.207 587.491 248.911 589.716C248.712 587.502 248.692 585.244 248.59 583.022C248.354 572.988 249.438 563.062 248.695 553C243.277 552.845 237.817 552.962 232.395 552.962C227.291 552.974 221.999 553.275 216.93 552.672C213.67 549.217 216.639 534.237 215.943 528.835L215.125 528.213C215.185 528.174 215.254 528.147 215.305 528.096C216.445 526.972 216.227 525.358 216.384 523.828C216.468 525.313 216.351 526.696 217.087 528.015C222.043 529.13 227.933 528.274 233.007 528.015L248.405 528.003C248.597 522.686 248.5 517.333 248.523 512.011L264.49 512.006Z"/>
	<path fill="#A4DDE5" transform="scale(0.266042 0.266042)" d="M215.125 528.213C215.185 528.174 215.254 528.147 215.305 528.096C216.445 526.972 216.227 525.358 216.384 523.828C216.468 525.313 216.351 526.696 217.087 528.015C222.043 529.13 227.933 528.274 233.007 528.015C233.006 536.155 233.151 544.325 232.927 552.461C227.614 552.469 222.23 552.293 216.93 552.672C213.67 549.217 216.639 534.237 215.943 528.835L215.125 528.213Z"/>
	<path fill="#A2B3D5" transform="scale(0.266042 0.266042)" d="M760.457 504.005L776.042 504.005L775.976 512.016L807.624 512.003C807.541 516.457 808.288 523.048 807.095 527.202L803.243 527.088C799.296 527 795.423 527.018 791.483 527.286L791.514 552.475C786.24 552.4 780.95 552.236 775.676 552.395C775.921 561.768 776.422 571.334 775.527 580.685C775.528 587.965 776.052 595.653 775.425 602.883L775.499 614.019C772.061 613.931 762.382 612.724 759.704 614.471Q759.555 617.132 759.462 619.795C758.887 617.821 758.935 616.003 758.953 613.969C759.141 607.528 758.971 601.048 758.926 594.604C758.496 591.122 758.626 587.511 758.597 584.002L720.822 583.997L708.049 584.01L703.718 584.026C703.429 581.701 703.043 578.822 704.224 576.717L704.025 576.309L704.008 568.228C709.304 568.746 714.711 568.529 720.029 568.518L720.001 560.538L719.974 553.483L728.941 553.481L728.928 545.07Q736.242 545.016 743.557 545.054L743.519 528.009L751.992 528.015L760.502 527.994L760.522 520.046L760.457 504.005Z"/>
	<path fill="#FDFCFC" transform="scale(0.266042 0.266042)" d="M704.224 576.717C705.788 576.933 706.927 576.972 708.113 578.136C708.91 579.918 708.324 582.127 708.049 584.01L703.718 584.026C703.429 581.701 703.043 578.822 704.224 576.717Z"/>
	<path fill="#BCCBE5" transform="scale(0.266042 0.266042)" d="M728.928 545.07Q736.242 545.016 743.557 545.054L744.009 552.968C738.951 553.591 733.899 553.544 728.81 553.486C728.688 555.979 728.525 558.475 728.542 560.972C725.659 560.655 722.903 560.481 720.001 560.538L719.974 553.483L728.941 553.481L728.928 545.07Z"/>
	<path fill="#BCCBE5" transform="scale(0.266042 0.266042)" d="M759.045 584.006C764.226 583.97 769.91 583.511 774.986 584.614C775.047 588.749 774.454 599.581 775.425 602.883L775.499 614.019C772.061 613.931 762.382 612.724 759.704 614.471Q759.555 617.132 759.462 619.795C758.887 617.821 758.935 616.003 758.953 613.969C759.141 607.528 758.971 601.048 758.926 594.604Q759.153 589.307 759.045 584.006Z"/>
	<path fill="#FDFCFC" transform="scale(0.266042 0.266042)" d="M711.895 296.928L728.016 296.967L728.075 328.187C733.512 328.176 738.917 328.176 744.347 328.52L744.43 346.395C749.777 346.403 755.148 346.301 760.491 346.485L760.5 399.032L776.016 399.492L776.044 431.897L792.024 431.958L792.068 463.435C797.38 463.486 802.751 463.368 808.054 463.661L808.105 478.987L823.955 479.019Q824.089 503.279 823.933 527.538L807.997 527.512C807.437 517.001 808.731 506.497 808.376 495.979Q799.697 496.062 791.03 496.538L791.021 480.433C788.664 480.472 786.355 480.81 784.021 481.114L783.901 463.995L775.028 464.019L775.038 449.002Q767.519 449.091 760.002 448.934C760.705 438.435 761.435 426.594 759.967 416.163Q759.9 407.698 760.072 399.234C754.757 399.085 749.365 399.876 744.043 400.08C743.89 389.264 744.222 378.446 743.882 367.63C741.599 367.301 739.264 367.251 736.961 367.127L736.927 360.002L728.005 360.022L728.019 343.998L719.988 344.039L719.381 327.867L712.013 328.683Q712.179 312.805 711.895 296.928Z"/>
	<path fill="#5175AE" transform="scale(0.266042 0.266042)" d="M708.049 584.01L720.822 583.997C719.272 608.034 720.615 632.409 720.503 656.475C720.455 663.982 720.056 671.656 720.572 679.141C721.361 679.402 722.091 679.58 722.913 679.704C722.224 679.853 721.414 679.771 721.05 680.447C720.436 681.587 720.601 683.24 720.574 684.513L720.546 695.545C715.457 695.53 710.101 695.867 705.051 695.324C703.031 697.389 704.061 708.733 704.077 712.032L687.792 712.05C687.832 717.411 687.911 722.776 687.888 728.138L675.686 728.107L671.495 728.012L666.037 728.009L655.987 728.001C655.985 733.528 655.72 739.198 656.253 744.7C653.521 745.164 650.763 745.39 648.006 745.653C647.984 746.877 648.06 746.919 647.267 747.831C639.057 750.767 632.009 745.995 624.24 744.83L623.307 744.694C623.399 739.47 623.991 733.814 622.988 728.683L623.703 728.011C624.332 725.436 624.068 722.662 624.021 720.026L640.071 719.999L640.088 712.007L640.053 704.993C645.433 705.011 650.83 704.697 656.207 704.492L656.527 697.34C656.532 694.283 656.36 691.23 656.222 688.177C661.8 687.797 667.428 687.991 673.015 688.04L673.004 672.639C677.969 672.656 683.085 673.199 688.024 672.717L688.007 656.372C692.098 654.96 699.589 655.983 704.02 656.028L704.015 610.838C704.011 601.94 704.317 592.898 703.718 584.026L708.049 584.01Z"/>
	<path fill="#FDFCFC" transform="scale(0.266042 0.266042)" d="M703.987 680.005C709.245 679.886 714.542 679.623 719.796 679.906C720.559 681.02 720.453 683.131 720.574 684.513L720.546 695.545C715.457 695.53 710.101 695.867 705.051 695.324L704.131 694.877C703.834 689.94 703.979 684.951 703.987 680.005Z"/>
	<path fill="#61BEE6" transform="scale(0.266042 0.266042)" d="M647.513 712.005Q659.51 711.913 671.508 712.002L671.495 728.012L666.037 728.009L655.987 728.001C655.985 733.528 655.72 739.198 656.253 744.7C653.521 745.164 650.763 745.39 648.006 745.653C646.47 741.575 647.488 718.04 647.513 712.005Z"/>
	<path fill="#D5DEE6" transform="scale(0.266042 0.266042)" d="M704.131 694.877L705.051 695.324C703.031 697.389 704.061 708.733 704.077 712.032L687.792 712.05C687.832 717.411 687.911 722.776 687.888 728.138L675.686 728.107L671.495 728.012L671.508 712.002L687.516 711.969L687.507 695.007C693.026 695.039 698.625 695.27 704.131 694.877Z"/>
	<path fill="#FDFCFC" transform="scale(0.266042 0.266042)" d="M264.028 359.963Q271.049 359.967 278.068 359.82L279.243 360.23C280.545 365.264 279.42 392.028 279.572 399.5L264 399.486C264.049 410.166 264.744 421.364 263.547 431.974C265.578 447.698 264 464.394 263.876 480.23C263.837 485.234 263.269 491.128 264.25 496.011C264.741 501.307 264.523 506.691 264.49 512.006L248.523 512.011C248.5 517.333 248.597 522.686 248.405 528.003L233.007 528.015C227.933 528.274 222.043 529.13 217.087 528.015C216.351 526.696 216.468 525.313 216.384 523.828C216.227 525.358 216.445 526.972 215.305 528.096C215.254 528.147 215.185 528.174 215.125 528.213C210.274 528.675 205.26 528.47 200.384 528.506C199.808 511.885 200.193 495.157 200.229 478.526L216.414 478.545L216.309 462.425L232.095 462.405C231.85 452.095 231.993 441.756 231.98 431.443C237.512 431.41 243.015 431.36 248.538 430.998L248.567 399.049L263.983 398.98Q263.907 379.471 264.028 359.963Z"/>
	<path fill="#A2B3D5" transform="scale(0.266042 0.266042)" d="M256.566 432.025L263.547 431.974C265.578 447.698 264 464.394 263.876 480.23C263.837 485.234 263.269 491.128 264.25 496.011C264.741 501.307 264.523 506.691 264.49 512.006L248.523 512.011C248.5 517.333 248.597 522.686 248.405 528.003L233.007 528.015C227.933 528.274 222.043 529.13 217.087 528.015C216.351 526.696 216.468 525.313 216.384 523.828C216.74 514.74 216.44 505.58 216.253 496.491Q224.6 496.592 232.942 496.293Q233.055 479.96 232.859 463.627C237.885 463.924 242.972 463.631 248.004 463.499L247.991 448.076L256.635 448C256.743 442.686 256.601 437.341 256.566 432.025Z"/>
	<path fill="#6F85BF" transform="scale(0.266042 0.266042)" d="M343.986 320.013L351.102 320.004C351.354 325.3 351.746 330.752 351.038 336.023L351.004 343.116L343.487 343.828L343.529 351.972L336.001 352.022L336.003 359.983L328.013 360.214C327.914 365.315 327.572 370.402 327.461 375.496L319.955 375.491C319.953 377.682 320.02 379.895 319.935 382.082L319.986 439.5L319.985 447.965L304.005 447.919L304.049 463.967L287.988 463.5Q287.786 471.25 287.97 479L272 479.029L272.025 496.005L264.25 496.011C263.269 491.128 263.837 485.234 263.876 480.23C264 464.394 265.578 447.698 263.547 431.974C264.744 421.364 264.049 410.166 264 399.486L279.572 399.5C279.42 392.028 280.545 365.264 279.243 360.23L278.068 359.82L279.487 359.6C279.621 354.588 278.692 348.521 280.443 343.779C285.889 344.318 291.306 343.742 296.746 344.019C297.33 341.41 297.222 338.376 297.008 335.733L296.966 335.364C302.086 336.537 307.735 336.077 312.95 335.925L314.931 336.032C314.951 338.387 314.562 340.957 315.987 342.905C317.372 343.516 318.537 343.568 320.017 343.635C325.264 344.599 331.172 344.051 336.502 343.993L336.48 336.009L343.991 336.003L343.986 320.013Z"/>
	<path fill="#FDFCFC" transform="scale(0.266042 0.266042)" d="M280.443 343.779C285.889 344.318 291.306 343.742 296.746 344.019C296.179 349.293 296.503 354.709 296.51 360.01C293.151 360.035 282.007 360.941 279.487 359.6C279.621 354.588 278.692 348.521 280.443 343.779Z"/>
	<path fill="#5175AE" transform="scale(0.266042 0.266042)" d="M304.949 368.468Q312.209 368.586 319.464 368.885C319.456 373.266 319.254 377.745 319.935 382.082L319.986 439.5L319.985 447.965L304.005 447.919L288.014 447.999C287.949 426.666 288.397 405.359 288.532 384.03L305.019 384.361L304.949 368.468Z"/>
	<path fill="#BCCBE5" transform="scale(0.266042 0.266042)" d="M527.979 159.148C528.731 159.3 529.511 159.513 530.273 159.584L528.609 160.087C526.81 163.576 527.921 171.196 528.076 175.21C522.878 175.768 517.595 175.283 512.376 175.595C511.463 185.028 511.994 194.849 512 204.335L512.027 255.947L512.013 263.974L496.059 263.996L496.114 272.096L487.949 272.049L488.04 287.061L479.054 287.043L479.121 295.079C475.657 295.039 466.562 293.921 463.906 295.864L463.729 296.383L463.571 296.028C462.14 295.197 436.112 296.011 431.971 296.009C432.182 287.849 432.684 280.116 431.953 271.936L424.4 272.048C424.482 261.426 424.204 250.821 424.008 240.202C421.353 239.71 418.7 239.848 416.028 240.046L415.683 239.977C416.483 237.356 415.715 227.308 415.814 224.039C423.993 224.058 431.787 223.294 440.007 224.135L439.988 208.053C445.684 207.718 451.315 207.841 457.013 207.996C462.134 208.591 467.287 208.397 472.433 208.346C472.183 202.98 472.144 197.593 473.065 192.286L474.294 192.01C477.793 193.654 492.346 192.286 496.944 191.978L496.845 176.354C501.921 176.526 506.973 176.573 512.011 175.862C511.653 170.581 511.876 165.307 511.943 160.02C516.547 159.948 523.701 160.557 527.979 159.148Z"/>
	<path fill="#A2B3D5" transform="scale(0.266042 0.266042)" d="M439.988 208.053C445.684 207.718 451.315 207.841 457.013 207.996C456.535 213.334 456.515 218.628 456.512 223.981C453.005 224.045 449.478 224.037 445.977 224.249C446.234 229.492 446.547 234.735 446.494 239.986C441.688 240.03 436.859 239.973 432.067 240.368C431.784 247.326 432.381 254.924 431.444 261.76C430.915 254.609 430.548 248.2 431.089 241.046C428.742 240.779 426.332 240.612 424.008 240.202C421.353 239.71 418.7 239.848 416.028 240.046L415.683 239.977C416.483 237.356 415.715 227.308 415.814 224.039C423.993 224.058 431.787 223.294 440.007 224.135L439.988 208.053Z"/>
	<path fill="#A2B3D5" transform="scale(0.266042 0.266042)" d="M687.656 576.022C692.885 576.209 698.855 576.976 704.025 576.309L704.224 576.717C703.043 578.822 703.429 581.701 703.718 584.026C704.317 592.898 704.011 601.94 704.015 610.838L704.02 656.028C699.589 655.983 692.098 654.96 688.007 656.372L688.024 672.717C683.085 673.199 677.969 672.656 673.004 672.639L673.015 688.04C667.428 687.991 661.8 687.797 656.222 688.177C656.36 691.23 656.532 694.283 656.527 697.34L656.207 704.492C650.83 704.697 645.433 705.011 640.053 704.993L640.088 712.007L640.071 719.999L624.021 720.026C624.068 722.662 624.332 725.436 623.703 728.011L622.988 728.683C612.915 727.837 602.37 728.489 592.25 728.542C590.791 721.065 591.934 704.917 592.023 696.496L591.991 688.855L592.017 688.629Q600.01 688.38 608.006 688.328L607.988 664.649L607.919 662.091C607.869 660.473 607.634 658.988 608.535 657.558C610.333 656.4 613.87 656.964 616.041 657.006L624.012 657.058L624.028 648.995L640.006 649.002L639.993 641.075L639.986 633.041L654.884 633.025C655.371 630.162 655.471 627.431 655.511 624.537L655.513 616.02L655.468 607.976L664.489 608.081L672.017 608.081L671.99 599.97C672 597.482 672.233 594.996 672.412 592.516L672.439 584.008L687.488 584.009L687.656 576.022Z"/>
	<path fill="#BCCBE5" transform="scale(0.266042 0.266042)" d="M688.024 672.717L684.102 672.312C683.149 667.931 683.781 662.41 684.051 657.922C685.019 656.734 686.542 656.729 688.007 656.372L688.024 672.717Z"/>
	<path fill="#B7DBF2" transform="scale(0.266042 0.266042)" d="M655.468 607.976L664.489 608.081C663.514 610.266 663.981 613.652 664.001 616.044L655.513 616.02L655.468 607.976Z"/>
	<path fill="#BCCBE5" transform="scale(0.266042 0.266042)" d="M616.041 657.006L624.012 657.058L624.019 665.006C618.695 664.796 613.313 664.411 607.988 664.649L607.919 662.091C607.869 660.473 607.634 658.988 608.535 657.558C610.333 656.4 613.87 656.964 616.041 657.006Z"/>
	<path fill="#BCCBE5" transform="scale(0.266042 0.266042)" d="M639.99 696.986C645.519 696.975 651.004 697.055 656.527 697.34L656.207 704.492C650.83 704.697 645.433 705.011 640.053 704.993L639.99 696.986Z"/>
	<path fill="#BCCBE5" transform="scale(0.266042 0.266042)" d="M624.003 712.032L640.088 712.007L640.071 719.999L624.021 720.026L624.003 712.032Z"/>
	<path fill="#D5DEE6" transform="scale(0.266042 0.266042)" d="M687.656 576.022C692.885 576.209 698.855 576.976 704.025 576.309L704.224 576.717C703.043 578.822 703.429 581.701 703.718 584.026L687.501 583.999L687.583 592.966C682.522 592.923 677.459 592.945 672.412 592.516L672.439 584.008L687.488 584.009L687.656 576.022Z"/>
	<path fill="#8297CA" transform="scale(0.266042 0.266042)" d="M319.985 447.965L335.259 448.032C334.87 453.348 334.987 458.698 334.994 464.025L351.546 463.998L351.498 480.342C356.861 480.501 362.249 480.654 367.609 480.304C368.457 482.525 368.028 485.64 367.992 488.014L376.038 487.986L375.996 504.012C378.755 504.036 381.55 503.975 384.304 504.111L384.205 504.701C384.115 507.121 383.982 509.548 383.985 511.97C381.416 512.035 378.797 511.997 376.242 512.279C376.15 514.582 375.956 516.93 376.099 519.231L376.068 527.998L360.449 528.054C360.496 533.318 360.873 538.853 360.137 544.07C357.262 543.851 354.377 543.577 351.498 543.451L351.518 551.697L335.937 551.746L336.003 567.951C330.689 568.471 325.348 568.757 320.018 568.279C315.23 567.338 309.379 567.97 304.477 568.021L304.502 552.02L296.021 552.068C295.915 549.211 295.688 546.348 295.519 543.493L280.043 543.564L279.493 536.31L272.985 535.973C272.565 533.354 272.5 530.701 272.367 528.054C272.074 525.376 272.046 522.681 271.968 519.99L264.834 520.024C264.607 517.367 264.589 514.672 264.49 512.006C264.523 506.691 264.741 501.307 264.25 496.011L272.025 496.005L272 479.029L287.97 479Q287.786 471.25 287.988 463.5L304.049 463.967L304.005 447.919L319.985 447.965Z"/>
	<path fill="#5175AE" transform="scale(0.266042 0.266042)" d="M272.367 528.054L279.46 528.217L279.493 536.31L272.985 535.973C272.565 533.354 272.5 530.701 272.367 528.054Z"/>
	<path fill="#D5DEE6" transform="scale(0.266042 0.266042)" d="M703.518 447.933L712.743 447.919L719.263 448.092Q718.981 456.051 719.019 464.015L728.718 464.005L728.643 471.999L743.562 471.955L743.517 480.401L753.655 480.501C753.423 483.009 753.211 485.517 752.87 488.013L759.974 487.984L760.002 448.934Q767.519 449.091 775.038 449.002L775.028 464.019L783.901 463.995L784.021 481.114C786.355 480.81 788.664 480.472 791.021 480.433L791.03 496.538Q799.697 496.062 808.376 495.979C808.731 506.497 807.437 517.001 807.997 527.512L807.924 531.284C807.761 530.241 807.712 528.907 807.073 528.041C806.605 527.408 804.086 527.242 803.243 527.088L807.095 527.202C808.288 523.048 807.541 516.457 807.624 512.003L775.976 512.016L776.042 504.005L760.457 504.005L760.522 520.046L760.502 527.994L751.992 528.015L743.519 528.009L743.557 545.054Q736.242 545.016 728.928 545.07L728.941 553.481L719.974 553.483L720.001 560.538L720.029 568.518C714.711 568.529 709.304 568.746 704.008 568.228C701.612 567.81 698.966 568.002 696.531 567.985L696.487 560.525C693.622 560.794 691.007 560.603 688.158 560.317C688.124 559.189 688.123 558.033 688 556.911C687.553 552.858 683.788 553.738 681.662 551.445C679.998 549.651 680.341 546.352 680.27 544.028L672.005 543.949Q671.936 535.983 672.005 528.017L655.106 528.003C654.882 522.877 654.996 517.707 654.976 512.576L647.196 512.904C647 509.95 647.05 506.977 647.037 504.017L655.027 504.054C654.999 501.327 654.922 498.624 655.319 495.917C655.707 494.21 655.558 492.583 655.466 490.847C655.488 489.077 655.528 487.986 656.511 486.506C658.486 485.542 660.884 485.943 663.03 486.026L662.909 480.032Q667.445 479.983 671.981 480.066L671.974 464.005L687.978 463.996L688.055 457.474L687.854 455.456C687.625 452.937 687.596 450.381 687.493 447.853C692.887 448.454 698.119 448.474 703.518 447.933Z"/>
	<path fill="#B7DBF2" transform="scale(0.266042 0.266042)" d="M752.012 519.922L760.522 520.046L760.502 527.994L751.992 528.015L752.012 519.922Z"/>
	<path fill="#CCF6F9" transform="scale(0.266042 0.266042)" d="M655.466 490.847C655.488 489.077 655.528 487.986 656.511 486.506C658.486 485.542 660.884 485.943 663.03 486.026C663.201 489.349 663.448 492.69 663.476 496.017L655.319 495.917C655.707 494.21 655.558 492.583 655.466 490.847Z"/>
	<path fill="#CAE7B4" transform="scale(0.266042 0.266042)" d="M760.602 497.488C765.697 497.425 770.948 497.628 776.016 497.151L776.042 504.005L760.457 504.005L760.602 497.488Z"/>
	<path fill="#E2F5F8" transform="scale(0.266042 0.266042)" d="M703.518 447.933L703.883 455.997Q695.864 455.859 687.854 455.456C687.625 452.937 687.596 450.381 687.493 447.853C692.887 448.454 698.119 448.474 703.518 447.933Z"/>
	<path fill="#B7DBF2" transform="scale(0.266042 0.266042)" d="M688.055 457.474C690.429 461.259 687.865 474.849 687.99 479.969C683.449 480.207 676.281 481.49 671.981 480.066L671.974 464.005L687.978 463.996L688.055 457.474Z"/>
	<path fill="#A2B3D5" transform="scale(0.266042 0.266042)" d="M416.028 240.046C418.7 239.848 421.353 239.71 424.008 240.202C424.204 250.821 424.482 261.426 424.4 272.048L431.953 271.936C432.684 280.116 432.182 287.849 431.971 296.009C436.112 296.011 462.14 295.197 463.571 296.028L463.729 296.383Q463.244 304.436 463.773 312.486L448.013 312.513L448.027 328.552L432.644 328.546Q432.541 336.26 432.524 343.974L424.437 344.005C424.478 346.659 424.456 349.329 424.647 351.976C422.049 352.003 418.264 351.533 416.026 352.962L416.011 360.861L416.006 367.742L408.007 368.005L399.494 368.024L399.579 375.98L384.004 376.001C383.991 381.349 384.017 386.646 384.395 391.985L375.987 392.007L375.96 399.976Q368.235 400.094 360.519 400.489L360.531 407.976L352.002 408.009L352.045 423.974Q344.02 424.135 336 424.458L336.048 432.401L335.939 440.005C335.778 442.695 335.579 445.355 335.259 448.032L319.985 447.965L319.986 439.5L319.935 382.082C320.02 379.895 319.953 377.682 319.955 375.491L327.461 375.496C327.572 370.402 327.914 365.315 328.013 360.214L336.003 359.983L336.001 352.022L343.529 351.972L343.487 343.828L351.004 343.116L351.038 336.023C351.746 330.752 351.354 325.3 351.102 320.004L360.008 319.997L359.989 312.005L368.011 311.996L367.976 295.984L383.989 296.003L384.345 288.492L392.018 288.514L391.987 255.992L400.006 255.995C399.94 252.349 398.82 244.12 400.502 241.005C400.885 240.297 401.851 240.227 402.569 239.984C406.938 239.991 411.315 240.057 415.683 239.977L416.028 240.046Z"/>
	<path fill="#BCCBE5" transform="scale(0.266042 0.266042)" d="M328.479 433.2L336.048 432.401L335.939 440.005C333.397 440.005 330.962 439.965 328.437 439.594L328.479 433.2Z"/>
	<path fill="#BCCBE5" transform="scale(0.266042 0.266042)" d="M416.011 360.861L416.006 367.742L408.007 368.005L407.999 361.057L416.011 360.861Z"/>
	<path fill="#BCCBE5" transform="scale(0.266042 0.266042)" d="M416.538 344.061L424.437 344.005C424.478 346.659 424.456 349.329 424.647 351.976C422.049 352.003 418.264 351.533 416.026 352.962Q416.342 348.515 416.538 344.061Z"/>
	<path fill="#CCF6F9" transform="scale(0.266042 0.266042)" d="M328.437 439.594C330.962 439.965 333.397 440.005 335.939 440.005C335.778 442.695 335.579 445.355 335.259 448.032L319.985 447.965L319.986 439.5C322.796 439.527 325.631 439.477 328.437 439.594Z"/>
	<path fill="#5175AE" transform="scale(0.266042 0.266042)" d="M416.028 240.046C418.7 239.848 421.353 239.71 424.008 240.202C424.204 250.821 424.482 261.426 424.4 272.048L424.337 276.777L424.33 278.994C421.236 281.443 412.014 279.981 407.919 280.109L407.878 288.042L400.514 288.113L400.309 295.931L391.987 295.933L392.002 303.77L383.981 303.73L383.985 311.988L375.004 312.1L375.339 319.01L367.034 319.455L367.094 326.985L358.976 327.012L358.976 335.987L351.038 336.023C351.746 330.752 351.354 325.3 351.102 320.004L360.008 319.997L359.989 312.005L368.011 311.996L367.976 295.984L383.989 296.003L384.345 288.492L392.018 288.514L391.987 255.992L400.006 255.995C399.94 252.349 398.82 244.12 400.502 241.005C400.885 240.297 401.851 240.227 402.569 239.984C406.938 239.991 411.315 240.057 415.683 239.977L416.028 240.046Z"/>
	<path fill="#6F85BF" transform="scale(0.266042 0.266042)" d="M416.028 240.046C418.7 239.848 421.353 239.71 424.008 240.202C424.204 250.821 424.482 261.426 424.4 272.048L424.337 276.777C423.124 270.586 423.852 263.118 423.902 256.767L416.001 256.486L416.028 240.046Z"/>
	<path fill="#0A1430" transform="scale(0.266042 0.266042)" d="M576.118 834.942C576.236 836.521 576.158 838.491 576.968 839.864C589.358 841.092 603.651 839.987 616.294 840.037L616.478 856.017L679.919 855.957L679.953 872.012L702.433 871.986L702.445 888.02L680.037 887.975L680.031 903.055L632.035 903.05L632.04 919.509L600.26 919.529L600.318 935.59L424.46 935.327L424.428 918.966L400.108 919.004L400.107 902.986L343.522 903.002L343.512 886.965C336.686 886.964 329.853 886.9 323.027 886.976L323.023 872.029L343.784 872.045C343.395 866.752 343.553 861.381 343.539 856.074L392.539 856.019L392.483 840.075L447.962 840.021C452.467 839.982 457.067 840.14 461.558 839.834C462.302 839.944 463.644 839.881 464.05 840.551C466.091 843.926 464.35 851.895 464.893 856.028C470.41 856.04 476.223 855.679 481.702 856.184L482.392 856.219Q482.556 864.228 482.508 872.239C488.371 872.428 494.256 872.572 500.1 871.944C501.651 872.113 502.043 871.947 503.17 873.089C504.782 878.219 501.996 884.486 503.846 889.067C508.813 888.705 514.233 887.953 519.107 889.173C519.555 888.983 519.868 888.667 520.239 888.357C521.444 883.137 520.721 877.437 520.412 872.129C522.752 871.934 525.177 872.046 527.528 872.031L543.402 872.005L543.475 855.999Q543.434 847.833 543.606 839.669C548.715 839.376 554.557 840.264 559.496 839.101L559.887 839.077C563.123 839.891 566.44 839.353 569.703 839.93C571.473 840.028 573.851 840.485 575.441 839.613C576.402 838.218 576.139 836.563 576.118 834.942Z"/>
	<path fill="#A4DDE5" transform="scale(0.266042 0.266042)" d="M559.496 839.101L559.887 839.077C563.123 839.891 566.44 839.353 569.703 839.93L560.109 839.995C559.71 845.382 559.767 850.622 559.987 856.012L543.475 855.999Q543.434 847.833 543.606 839.669C548.715 839.376 554.557 840.264 559.496 839.101Z"/>
	<path fill="#E2F5F8" transform="scale(0.266042 0.266042)" d="M631.984 503.787C634.553 503.42 636.933 503.547 639.502 503.721L639.897 503.935L647.037 504.017C647.05 506.977 647 509.95 647.196 512.904L654.976 512.576C654.996 517.707 654.882 522.877 655.106 528.003L672.005 528.017Q671.936 535.983 672.005 543.949L680.27 544.028C680.341 546.352 679.998 549.651 681.662 551.445C683.788 553.738 687.553 552.858 688 556.911C688.123 558.033 688.124 559.189 688.158 560.317C691.007 560.603 693.622 560.794 696.487 560.525L696.531 567.985C698.966 568.002 701.612 567.81 704.008 568.228L704.025 576.309C698.855 576.976 692.885 576.209 687.656 576.022L687.488 584.009L672.439 584.008L672.412 592.516C672.233 594.996 672 597.482 671.99 599.97L672.017 608.081L664.489 608.081L655.468 607.976L655.513 616.02L655.511 624.537C655.471 627.431 655.371 630.162 654.884 633.025L639.986 633.041L639.993 641.075L640.006 649.002L624.028 648.995L624.012 657.058L616.041 657.006C613.87 656.964 610.333 656.4 608.535 657.558C607.634 658.988 607.869 660.473 607.919 662.091L607.988 664.649L608.006 688.328Q600.01 688.38 592.017 688.629L591.991 688.855L592.023 696.496C589.59 696.499 586.526 696.139 584.19 696.758C584.296 698.857 584.684 701.159 583.887 703.143C583.13 703.527 583.134 703.62 582.234 703.562C577.564 704.096 572.808 703.947 568.113 703.959Q567.965 700.241 567.874 696.521C568.121 695.092 568.935 693.842 569.079 692.399C569.175 691.431 568.929 689.478 568.178 688.775C566.205 686.929 562.413 687.419 559.894 687.453C560.948 683.88 561.557 675.034 559.753 671.664C557.383 670.895 554.519 671.3 552.046 671.372C549.707 671.506 547.331 671.46 544.987 671.497L545 656C540.381 655.984 535.779 655.976 531.163 656.187C530.373 656.095 529.795 655.92 529.065 655.607C526.673 651.363 527.939 642.032 528.006 636.96Q527.967 631.552 528.093 626.146L528.005 623.52C523.54 623.594 516.354 622.762 512.131 623.887L511.498 624.048C510.726 616.136 511.932 607.996 511.965 600.042C509.502 600.021 507.034 600.208 504.574 600.337C504.427 594.122 505.549 563.128 504.166 559.938C504.204 558.688 504.371 557.482 504.529 556.243C505.116 552.462 504.768 548.055 504.902 544.188C509.882 544.121 515.125 544.391 520.055 543.695C519.815 538.853 520.023 533.916 520.033 529.064L519.992 503.994L535.123 503.972L536.911 504.073C544.651 504.075 553.052 504.725 560.706 503.74L561.782 504.027L624.042 504.006C626.635 503.987 629.426 504.18 631.984 503.787Z"/>
	<path fill="#A4DDE5" transform="scale(0.266042 0.266042)" d="M623.962 513.022L632.038 513.027C632.08 515.347 632.168 517.677 632.156 519.997L623.976 519.962L623.962 513.022Z"/>
	<path fill="#B7DBF2" transform="scale(0.266042 0.266042)" d="M568.167 575.965L576.989 576.372C576.991 578.258 577.348 580.974 576.645 582.712C573.669 582.375 570.545 582.458 567.545 582.387C567.706 580.237 567.874 578.102 568.167 575.965Z"/>
	<path fill="#BCCBE5" transform="scale(0.266042 0.266042)" d="M567.874 696.521C570.154 696.323 573.593 695.628 575.522 697.112C576.075 697.537 576.137 697.95 576.063 698.641C575.98 699.408 575.568 700.321 575.316 701.057C575.62 702.083 575.693 702.644 576.771 703.145C578.236 703.826 580.658 703.564 582.234 703.562C577.564 704.096 572.808 703.947 568.113 703.959Q567.965 700.241 567.874 696.521Z"/>
	<path fill="#CCF6F9" transform="scale(0.266042 0.266042)" d="M616.559 649.006C619.01 649.028 621.549 649.236 623.934 648.604L624.028 648.995L624.012 657.058L616.041 657.006C616.334 654.346 616.434 651.678 616.559 649.006Z"/>
	<path fill="#FDFCFC" transform="scale(0.266042 0.266042)" d="M631.984 503.787C634.553 503.42 636.933 503.547 639.502 503.721L639.897 503.935Q640.007 508.839 639.953 513.743C639.696 514.761 639.493 515.627 638.94 516.528C636.802 517.532 634.966 517.075 632.644 516.933C632.62 514.024 632.718 511.077 632.108 508.218L631.984 503.787Z"/>
	<path fill="#D5DEE6" transform="scale(0.266042 0.266042)" d="M577.345 688.967Q584.67 689.137 591.991 688.855L592.023 696.496C589.59 696.499 586.526 696.139 584.19 696.758L577.042 697.576C577.007 694.707 577.209 691.832 577.345 688.967Z"/>
	<path fill="#BCCBE5" transform="scale(0.266042 0.266042)" d="M623.933 640.937L639.993 641.075L640.006 649.002L624.028 648.995L623.934 648.604L623.933 640.937Z"/>
	<path fill="#BCCBE5" transform="scale(0.266042 0.266042)" d="M640.022 624.473L655.511 624.537C655.471 627.431 655.371 630.162 654.884 633.025L639.986 633.041L640.022 624.473Z"/>
	<path fill="#CCF6F9" transform="scale(0.266042 0.266042)" d="M671.99 599.97L672.017 608.081L664.489 608.081L655.468 607.976Q655.291 603.972 654.969 599.977C660.639 600.043 666.319 599.975 671.99 599.97Z"/>
	<path fill="#CCF6F9" transform="scale(0.266042 0.266042)" d="M576.898 559.436L591.973 559.467L593.437 559.902C592.047 559.981 590.122 559.703 589.139 560.662C588.87 568.136 589.39 575.605 589.096 583.084C585.019 583.069 580.667 583.361 576.645 582.712C577.348 580.974 576.991 578.258 576.989 576.372L576.995 568.484L576.898 559.436Z"/>
	<path fill="#CCF6F9" transform="scale(0.266042 0.266042)" d="M600.407 664.446C602.312 664.61 605.376 665.255 607.035 664.283C607.824 663.821 607.733 662.923 607.919 662.091L607.988 664.649L608.006 688.328Q600.01 688.38 592.017 688.629C591.013 683.361 591.45 677.369 591.387 672.004Q596.165 671.657 600.953 671.496C600.697 669.158 600.58 666.792 600.407 664.446Z"/>
	<path fill="#CCF6F9" transform="scale(0.266042 0.266042)" d="M639.897 503.935L647.037 504.017C647.05 506.977 647 509.95 647.196 512.904L654.976 512.576C654.996 517.707 654.882 522.877 655.106 528.003L672.005 528.017Q671.936 535.983 672.005 543.949L680.27 544.028C680.341 546.352 679.998 549.651 681.662 551.445C683.788 553.738 687.553 552.858 688 556.911C688.123 558.033 688.124 559.189 688.158 560.317C691.007 560.603 693.622 560.794 696.487 560.525L696.531 567.985C698.966 568.002 701.612 567.81 704.008 568.228L704.025 576.309C698.855 576.976 692.885 576.209 687.656 576.022C688.299 570.695 688.104 565.257 688.025 559.903C682.697 558.991 677.484 559.263 672.119 559.545C672.159 554.406 672.022 549.247 671.971 544.107C666.545 543.545 661.155 543.902 655.72 544.13L655.53 528.103C650.549 527.837 645.525 527.96 640.537 527.959C640.566 525.78 640.819 523.352 640.27 521.237C639.633 520.474 639.211 520.104 638.273 519.797C637.996 519.706 637.716 519.624 637.438 519.538C638.472 519.522 639.139 519.749 640.118 520.047C641.709 521.99 641.088 525.05 641 527.5C644.706 527.551 649.815 528.286 653.313 527.013C655.496 524.475 654.395 517.286 654.39 513.884C651.742 513.575 649.158 513.576 646.5 513.602L646.5 504.499L640.5 504.522C640.447 508.575 641.437 513.446 639.815 517.235C638.738 518.082 638.774 518.046 637.401 517.972L637.526 517.76L639.409 517.43C640.139 516.333 640.033 515.505 639.979 514.25L639.953 513.743Q640.007 508.839 639.897 503.935Z"/>
	<path fill="#CCF6F9" transform="scale(0.266042 0.266042)" d="M560.398 591.924L567.499 592.025C567.368 597.44 567.248 602.825 567.444 608.24L560.016 608.086C560.029 613.815 559.972 619.554 560.067 625.281C554.753 625.77 549.539 626.074 544.198 626.105C544.233 629.542 544.981 635.054 542.801 637.826C541.554 638.513 530.737 636.972 528.006 636.96Q527.967 631.552 528.093 626.146L528.005 623.52L527.678 615.692L532.385 616.091C533.302 615.806 533.866 615.513 534.624 614.925C535.532 612.732 535.113 610.275 534.974 607.951L543.552 607.924L543.518 599.5L551.53 599.5L551.406 592.04L560.398 591.924Z"/>
	<path fill="#FDFCFC" transform="scale(0.266042 0.266042)" d="M527.678 615.692L532.385 616.091L535.065 615.885L535.03 622.885C532.377 623.631 530.525 624.453 528.745 626.622L528.093 626.146L528.005 623.52L527.678 615.692Z"/>
	<path fill="#D5DEE6" transform="scale(0.266042 0.266042)" d="M543.552 607.924L543.488 615.63C540.742 615.755 537.795 616.093 535.065 615.885L532.385 616.091C533.302 615.806 533.866 615.513 534.624 614.925C535.532 612.732 535.113 610.275 534.974 607.951L543.552 607.924Z"/>
	<path fill="#6F85BF" transform="scale(0.266042 0.266042)" d="M624.042 504.006C626.635 503.987 629.426 504.18 631.984 503.787L632.108 508.218L632.038 513.027L623.962 513.022L623.976 519.962L624.001 527.509L607.5 527.498L607.527 543.497L599.558 543.562L599.49 550.023C599.51 552.685 600.213 556.813 599.005 559.123C597.213 560.329 595.533 560.006 593.437 559.902L591.973 559.467L576.898 559.436L576.995 568.484L576.989 576.372L568.167 575.965C567.874 578.102 567.706 580.237 567.545 582.387L567.499 592.025L560.398 591.924L551.406 592.04L551.53 599.5L543.518 599.5L543.552 607.924L534.974 607.951C535.113 610.275 535.532 612.732 534.624 614.925C533.866 615.513 533.302 615.806 532.385 616.091L527.678 615.692L528.005 623.52C523.54 623.594 516.354 622.762 512.131 623.887L511.498 624.048C510.726 616.136 511.932 607.996 511.965 600.042C509.502 600.021 507.034 600.208 504.574 600.337C504.427 594.122 505.549 563.128 504.166 559.938C504.204 558.688 504.371 557.482 504.529 556.243C505.116 552.462 504.768 548.055 504.902 544.188C509.882 544.121 515.125 544.391 520.055 543.695C519.815 538.853 520.023 533.916 520.033 529.064L519.992 503.994L535.123 503.972L536.911 504.073C544.651 504.075 553.052 504.725 560.706 503.74L561.782 504.027L624.042 504.006Z"/>
	<path fill="#87C5DB" transform="scale(0.266042 0.266042)" d="M591.996 543.676L599.558 543.562L599.49 550.023C597.032 549.843 594.45 550.104 591.984 550.194L591.996 543.676Z"/>
	<path fill="#87C5DB" transform="scale(0.266042 0.266042)" d="M576.995 568.484L576.989 576.372L568.167 575.965L567.732 575.796C567.371 573.443 567.513 570.895 567.471 568.512L576.995 568.484Z"/>
	<path fill="#61BEE6" transform="scale(0.266042 0.266042)" d="M591.984 550.194C594.45 550.104 597.032 549.843 599.49 550.023C599.51 552.685 600.213 556.813 599.005 559.123C597.213 560.329 595.533 560.006 593.437 559.902L591.973 559.467L591.984 550.194Z"/>
	<path fill="#A4DDE5" transform="scale(0.266042 0.266042)" d="M567.732 575.796L568.167 575.965C567.874 578.102 567.706 580.237 567.545 582.387L567.499 592.025L560.398 591.924C560.997 586.841 560.507 581.164 560.496 576.023C562.915 576.042 565.318 575.919 567.732 575.796Z"/>
	<path fill="#61BEE6" transform="scale(0.266042 0.266042)" d="M517.606 560.148L519.977 560.008L520.071 560.341Q519.935 573.288 520.008 586.235L520.018 600.027L511.983 600.021L511.951 585.631L504.918 585.049Q504.826 572.744 504.997 560.439C506.875 560.401 508.782 560.432 510.655 560.31C512.921 560.066 515.321 560.185 517.606 560.148Z"/>
	<path fill="#87C5DB" transform="scale(0.266042 0.266042)" d="M517.606 560.148L519.977 560.008L520.071 560.341Q519.935 573.288 520.008 586.235L511.992 585.816C511.795 579.213 514.65 566.156 513.191 560.831L510.655 560.31C512.921 560.066 515.321 560.185 517.606 560.148Z"/>
	<path fill="#61BEE6" transform="scale(0.266042 0.266042)" d="M560.706 503.74L561.782 504.027C562.513 522.625 562.022 541.387 561.955 560.006C555.03 560.015 524.248 559.121 520.071 560.341L519.977 560.008L517.606 560.148C515.321 560.185 512.921 560.066 510.655 560.31C508.782 560.432 506.875 560.401 504.997 560.439L504.529 556.243C505.116 552.462 504.768 548.055 504.902 544.188C509.882 544.121 515.125 544.391 520.055 543.695C519.815 538.853 520.023 533.916 520.033 529.064L519.992 503.994L535.123 503.972L536.911 504.073C544.651 504.075 553.052 504.725 560.706 503.74Z"/>
	<path fill="#A4DDE5" transform="scale(0.266042 0.266042)" d="M535.738 528.59C536.155 533.475 536.066 538.455 536.037 543.356C530.778 543.116 525.269 542.828 520.055 543.695C519.815 538.853 520.023 533.916 520.033 529.064C523.146 529.018 533.931 530.216 535.738 528.59Z"/>
	<path fill="#CCF6F9" transform="scale(0.266042 0.266042)" d="M520.055 543.695L519.977 544.852C519.993 549.893 520.145 554.972 519.977 560.008L517.606 560.148C515.321 560.185 512.921 560.066 510.655 560.31C508.782 560.432 506.875 560.401 504.997 560.439L504.529 556.243C505.116 552.462 504.768 548.055 504.902 544.188C509.882 544.121 515.125 544.391 520.055 543.695Z"/>
	<path fill="#E2F5F8" transform="scale(0.266042 0.266042)" d="M517.606 560.148C517.254 556.264 516.42 550.823 517.756 547.081C518.235 545.741 518.713 545.378 519.977 544.852C519.993 549.893 520.145 554.972 519.977 560.008L517.606 560.148Z"/>
	<path fill="#87C5DB" transform="scale(0.266042 0.266042)" d="M535.123 503.972L536.911 504.073C537.134 504.182 537.353 504.298 537.579 504.399C538.611 504.86 539.545 505.058 540.642 505.295C543.219 508.541 542.002 538.14 541.963 543.994C539.991 543.743 538.024 543.457 536.037 543.356C536.066 538.455 536.155 533.475 535.738 528.59C534.908 520.536 535.142 512.079 535.123 503.972Z"/>
	<path fill="#58EAE8" transform="scale(0.266042 0.266042)" d="M519.992 503.994L535.123 503.972C535.142 512.079 534.908 520.536 535.738 528.59C533.931 530.216 523.146 529.018 520.033 529.064L519.992 503.994Z"/>
	<path fill="#B7DBF2" transform="scale(0.266042 0.266042)" d="M496.059 263.996L512.013 263.974L512.014 271.552C511.989 305.811 511.114 340.74 512.071 374.921L513.879 375.066C512.819 378.044 512.964 380.863 513.11 383.972L513.486 384.051C514.403 398.778 514.037 413.641 513.983 428.393C513.961 434.357 514.696 441.605 513.656 447.391L513.047 447.391C507.373 447.556 501.709 447.756 496.033 447.592L496.025 455.167C495.95 463.437 495.757 471.726 495.901 479.995L479.932 480.012L479.977 487.953L463.985 487.837L463.982 495.988L464.095 503.957L455.998 503.999L410.116 503.903C406.599 503.479 403.077 503.537 399.546 503.662C397.295 504.268 395.517 504.511 393.188 504.341L393.024 504.708C390.234 504.607 386.924 504.174 384.205 504.701L384.304 504.111C381.55 503.975 378.755 504.036 375.996 504.012L376.038 487.986L367.992 488.014C368.028 485.64 368.457 482.525 367.609 480.304C362.249 480.654 356.861 480.501 351.498 480.342L351.546 463.998L334.994 464.025C334.987 458.698 334.87 453.348 335.259 448.032C335.579 445.355 335.778 442.695 335.939 440.005L336.048 432.401L336 424.458Q344.02 424.135 352.045 423.974L352.002 408.009L360.531 407.976L360.519 400.489Q368.235 400.094 375.96 399.976L375.987 392.007L384.395 391.985C384.017 386.646 383.991 381.349 384.004 376.001L399.579 375.98L399.494 368.024L408.007 368.005L416.006 367.742L416.011 360.861L416.026 352.962C418.264 351.533 422.049 352.003 424.647 351.976C424.456 349.329 424.478 346.659 424.437 344.005L432.524 343.974Q432.541 336.26 432.644 328.546L448.027 328.552L448.013 312.513L463.773 312.486Q463.244 304.436 463.729 296.383L463.906 295.864C466.562 293.921 475.657 295.039 479.121 295.079L479.054 287.043L488.04 287.061L487.949 272.049L496.114 272.096L496.059 263.996Z"/>
	<path fill="#87C5DB" transform="scale(0.266042 0.266042)" d="M496.003 384.036L503.989 383.927L503.952 392L496.04 391.993L496.003 384.036Z"/>
	<path fill="#BCCBE5" transform="scale(0.266042 0.266042)" d="M367.609 480.304C370.454 479.915 373.255 479.949 376.118 479.968L376.038 487.986L367.992 488.014C368.028 485.64 368.457 482.525 367.609 480.304Z"/>
	<path fill="#61BEE6" transform="scale(0.266042 0.266042)" d="M472.483 408.014L481.011 407.983L481.014 416.532C478.489 416.847 475.737 417.523 473.304 416.569L472.718 415.162L472.483 408.014Z"/>
	<path fill="#A4DDE5" transform="scale(0.266042 0.266042)" d="M386.144 496.973L393.258 497.008C395.445 496.974 397.336 496.707 399.079 498.246C399.219 498.369 399.341 498.511 399.472 498.643L399.546 503.662C397.295 504.268 395.517 504.511 393.188 504.341L393.024 504.708C390.234 504.607 386.924 504.174 384.205 504.701L384.304 504.111C385.735 502.11 385.844 499.343 386.144 496.973Z"/>
	<path fill="#5175AE" transform="scale(0.266042 0.266042)" d="M393.258 497.008C395.445 496.974 397.336 496.707 399.079 498.246C399.219 498.369 399.341 498.511 399.472 498.643L399.546 503.662C397.295 504.268 395.517 504.511 393.188 504.341C393.061 501.892 393.175 499.456 393.258 497.008Z"/>
	<path fill="#61BEE6" transform="scale(0.266042 0.266042)" d="M496.04 391.993L503.952 392L504.005 399.955C498.794 400.31 493.263 400.976 488.077 400.238L488 392.015L496.04 391.993Z"/>
	<path fill="#A2B3D5" transform="scale(0.266042 0.266042)" d="M440.118 440.011L448.569 440.07C445.875 447.721 448.533 456.145 447.632 463.979L440.018 464.026C437.388 464.04 434.818 463.928 432.197 463.721C432.649 458.835 432.364 453.695 432.523 448.768C434.938 448.952 437.312 449.154 439.736 449.061C440.015 446.036 440.087 443.048 440.118 440.011Z"/>
	<path fill="#61BEE6" transform="scale(0.266042 0.266042)" d="M432.523 448.768C434.938 448.952 437.312 449.154 439.736 449.061C440.66 453.734 440.048 459.232 440.018 464.026C437.388 464.04 434.818 463.928 432.197 463.721C432.649 458.835 432.364 453.695 432.523 448.768Z"/>
	<path fill="#61BEE6" transform="scale(0.266042 0.266042)" d="M407.983 472.425L415.982 473.02L416.006 479.972C415.924 485.295 415.862 490.602 416.01 495.925C410.963 495.954 405.513 495.596 400.53 496.401L399.886 496.489L399.804 480.003L407.992 480.003L407.983 472.425Z"/>
	<path fill="#87C5DB" transform="scale(0.266042 0.266042)" d="M424.855 447.894C427.42 448.135 429.979 448.357 432.523 448.768C432.364 453.695 432.649 458.835 432.197 463.721C431.69 469.062 431.975 474.575 431.994 479.94L416.006 479.972L415.982 473.02L415.954 463.997L424.967 463.987C424.985 458.624 424.895 453.256 424.855 447.894Z"/>
	<path fill="#A4DDE5" transform="scale(0.266042 0.266042)" d="M512.071 374.921L513.879 375.066C512.819 378.044 512.964 380.863 513.11 383.972L513.486 384.051C514.403 398.778 514.037 413.641 513.983 428.393C513.961 434.357 514.696 441.605 513.656 447.391L513.047 447.391Q512.868 431.704 513.011 416.016C502.366 415.631 491.592 414.959 481.014 416.532L481.011 407.983C481.145 405.346 481.191 402.696 481.279 400.056L488.077 400.238C493.263 400.976 498.794 400.31 504.005 399.955L503.952 392L503.989 383.927C503.889 381.758 504.025 379.565 504.091 377.395C504.102 376.57 504.187 376.229 504.456 375.476C506.624 374.46 509.692 374.927 512.071 374.921Z"/>
	<path fill="#61BEE6" transform="scale(0.266042 0.266042)" d="M512.071 374.921L513.879 375.066C512.819 378.044 512.964 380.863 513.11 383.972C510.715 383.998 507.197 384.517 505.216 383.067C504.011 381.437 504.187 379.343 504.091 377.395C504.102 376.57 504.187 376.229 504.456 375.476C506.624 374.46 509.692 374.927 512.071 374.921Z"/>
	<path fill="#87C5DB" transform="scale(0.266042 0.266042)" d="M472.718 415.162L473.304 416.569C475.737 417.523 478.489 416.847 481.014 416.532C480.943 421.686 480.952 426.851 480.492 431.988L463.991 432.069L464.001 464.032L447.952 464.058L447.632 463.979C448.533 456.145 445.875 447.721 448.569 440.07C450.581 437.936 448.819 434.928 450.773 432.623L451.663 432.572C452.571 433.214 453.408 433.85 454.475 434.208C454.664 434.271 454.861 434.31 455.054 434.361L454.498 434.362L455.838 433.263C456.626 430.283 456.535 427.072 456.468 424.017L464.57 424.011L464.432 415.957C467.047 416.041 469.508 416.377 472.142 416.201L472.718 415.162Z"/>
	<path fill="#A4DDE5" transform="scale(0.266042 0.266042)" d="M432.197 463.721C434.818 463.928 437.388 464.04 440.018 464.026L447.632 463.979L447.952 464.058L464.001 464.032L463.985 487.837L463.982 495.988L464.095 503.957L455.998 503.999L410.116 503.903C406.599 503.479 403.077 503.537 399.546 503.662L399.472 498.643L399.886 496.489L400.53 496.401C405.513 495.596 410.963 495.954 416.01 495.925C415.862 490.602 415.924 485.295 416.006 479.972L431.994 479.94C431.975 474.575 431.69 469.062 432.197 463.721Z"/>
	<path fill="#CCF6F9" transform="scale(0.266042 0.266042)" d="M431.137 496.186C440.924 497.59 454.016 496.622 463.982 495.988L464.095 503.957L455.998 503.999L410.116 503.903C406.599 503.479 403.077 503.537 399.546 503.662L399.472 498.643L399.886 496.489L400.53 496.401C410.715 497.048 420.932 495.639 431.137 496.186Z"/>
	<path fill="#CCF6F9" transform="scale(0.266042 0.266042)" d="M481.014 416.532C491.592 414.959 502.366 415.631 513.011 416.016Q512.868 431.704 513.047 447.391C507.373 447.556 501.709 447.756 496.033 447.592L496.025 455.167C495.95 463.437 495.757 471.726 495.901 479.995L479.932 480.012L479.977 487.953L463.985 487.837L464.001 464.032L463.991 432.069L480.492 431.988C480.952 426.851 480.943 421.686 481.014 416.532Z"/>
	<path fill="#D5DEE6" transform="scale(0.266042 0.266042)" d="M530.273 159.584Q537.586 159.411 544.901 159.425C544.894 164.599 545.174 169.951 544.685 175.097L562.024 175.028L562.042 191.969L584.049 191.946L584.079 207.828C592.062 207.836 600.106 207.649 608.08 207.91L608.056 223.018C616.181 223.002 624.339 222.833 632.46 223.027L632.541 240.03L656.332 240.012L656.378 256.681Q668.195 256.474 680.014 256.546C679.989 258.91 680.106 261.363 679.929 263.715C679.943 267.763 679.286 273.085 680.36 276.959L681.388 277.357C691.236 276.099 701.945 276.897 711.905 276.942L711.786 290.627L711.895 296.928Q712.179 312.805 712.013 328.683L719.381 327.867L719.988 344.039L728.019 343.998L728.005 360.022L736.927 360.002L736.961 367.127C739.264 367.251 741.599 367.301 743.882 367.63C744.222 378.446 743.89 389.264 744.043 400.08C749.365 399.876 754.757 399.085 760.072 399.234Q759.9 407.698 759.967 416.163C761.435 426.594 760.705 438.435 760.002 448.934L759.974 487.984L752.87 488.013C753.211 485.517 753.423 483.009 753.655 480.501L743.517 480.401L743.562 471.955L728.643 471.999L728.718 464.005L719.019 464.015Q718.981 456.051 719.263 448.092L712.743 447.919L703.518 447.933Q703.372 440.344 703.52 432.756C702.539 432.511 701.571 432.018 700.635 431.63C696.55 431.96 692.334 431.772 688.232 431.787C688.133 429.384 688.432 426.904 688.583 424.501C688.917 421.685 688.964 418.842 689.075 416.01L672.51 415.953L672.483 399.455C666.954 399.824 661.513 399.861 655.983 399.485L656.005 384.004C650.46 384.02 644.515 384.479 639.035 383.659L639.031 360.013L624.405 359.982C623.686 357.218 624 353.887 623.994 351.02C618.699 350.958 613.396 351.005 608.099 350.999L607.996 335.033L592.104 334.991C591.944 330.006 592.012 325.006 592.006 320.019C587.089 320.037 580.619 320.805 575.934 319.471C576.212 314.142 575.978 308.661 575.97 303.317C570.406 303.171 564.84 303.334 559.277 303.437C558.855 301.013 559.022 298.456 559.026 296L559.02 286.997Q551.435 286.94 543.851 287.012C542.728 282.478 543.1 276.734 542.957 272.02L527.875 272.052L527.538 272.07Q519.768 272.036 512.014 271.552L512.013 263.974L512.027 255.947L512 204.335C511.994 194.849 511.463 185.028 512.376 175.595C517.595 175.283 522.878 175.768 528.076 175.21C527.921 171.196 526.81 163.576 528.609 160.087L530.273 159.584Z"/>
	<path fill="#BCCBE5" transform="scale(0.266042 0.266042)" d="M562.834 208.27C567.057 208.61 571.278 208.531 575.51 208.496C575.503 213.539 575.219 218.748 575.642 223.769C570.806 224.504 565.365 224.025 560.466 223.996C560.249 220.238 558.789 211.559 560.806 208.615L562.834 208.27Z"/>
	<path fill="#87C5DB" transform="scale(0.266042 0.266042)" d="M688.052 359.981L704.011 359.916L703.903 376.219L703.644 376.36C703.475 376.198 703.332 376.004 703.137 375.874C700.155 373.897 691.686 374.926 688.006 375.016L688.052 359.981Z"/>
	<path fill="#E2F5F8" transform="scale(0.266042 0.266042)" d="M512.027 255.947C517.182 255.944 522.379 255.809 527.491 256.58L527.538 272.07Q519.768 272.036 512.014 271.552L512.013 263.974L512.027 255.947Z"/>
	<path fill="#87C5DB" transform="scale(0.266042 0.266042)" d="M672.043 344.46C677.358 344.466 682.68 344.528 687.993 344.464L688.052 359.981L671.992 360.009L672.043 344.46Z"/>
	<path fill="#87C5DB" transform="scale(0.266042 0.266042)" d="M576.128 224.023L591.54 224.033L591.468 239.881L591.196 239.96L575.947 240.009C575.925 234.718 575.65 229.292 576.128 224.023Z"/>
	<path fill="#BCCBE5" transform="scale(0.266042 0.266042)" d="M545.872 192.339Q552.96 192.363 560.04 192.013L560.026 207.896C554.763 208.177 549.351 207.951 544.074 207.946C543.339 203.497 542.709 196.829 544.485 192.595L545.872 192.339Z"/>
	<path fill="#A4DDE5" transform="scale(0.266042 0.266042)" d="M591.196 239.96L591.468 239.881C595.312 240.006 603.733 238.738 606.825 240.543L607.196 241.849Q606.926 248.939 606.991 256.034L591.001 256.01Q591.005 247.984 591.196 239.96Z"/>
	<path fill="#BCCBE5" transform="scale(0.266042 0.266042)" d="M528.286 175.397C533.625 176.353 538.724 175.514 544.084 175.431C544.026 179.88 543.795 184.406 544.174 188.842C544.119 189.879 543.99 190.87 543.825 191.895C538.521 192.595 532.408 192.041 527.018 192.007C526.986 188.333 526.163 178.027 528.286 175.397Z"/>
	<path fill="#A4DDE5" transform="scale(0.266042 0.266042)" d="M656.037 320.015L672.018 319.972C672.021 327.994 671.957 336.022 672.052 344.043L656.005 344.006L655.995 328.494L656.037 320.015Z"/>
	<path fill="#FDFCFC" transform="scale(0.266042 0.266042)" d="M681.388 277.357C691.236 276.099 701.945 276.897 711.905 276.942L711.786 290.627C710.92 292.274 711.272 294.554 711.284 296.408C703.591 295.622 695.699 295.916 687.992 296.382L688.014 288.006L680.497 288.018C680.353 285.155 679.837 281.625 680.299 278.831C680.483 277.722 680.543 277.945 681.388 277.357Z"/>
	<path fill="#A4DDE5" transform="scale(0.266042 0.266042)" d="M606.991 256.034C612.041 256.009 617.205 256.218 622.239 255.9C623.177 260.416 622.632 266.004 622.604 270.658Q622.408 283.332 622.636 296.005C617.425 295.888 612.194 295.994 606.981 296.006L606.991 256.034Z"/>
	<path fill="#87C5DB" transform="scale(0.266042 0.266042)" d="M622.958 296.03L630.906 295.987L630.907 304.43L656.012 304.396L656.037 320.015L655.995 328.494C650.568 328.549 645.138 328.716 639.712 328.838Q639.775 323.879 639.923 318.922L623.402 319.002Q623.708 307.506 622.958 296.03Z"/>
	<path fill="#8297CA" transform="scale(0.266042 0.266042)" d="M703.903 376.219C707.283 375.831 715.923 373.874 718.479 376.22C720.824 378.371 719.99 384.067 719.92 386.925C719.196 394.231 719.5 401.762 719.494 409.103L719.476 447.674C717.253 447.696 714.943 447.59 712.743 447.919L703.518 447.933Q703.372 440.344 703.52 432.756C704.201 413.946 702.463 395.178 703.644 376.36L703.903 376.219Z"/>
	<path fill="#A2B3D5" transform="scale(0.266042 0.266042)" d="M719.92 386.925L720.093 391.591C721.631 392.547 732.838 392.031 735.502 392.009L735.472 408.56C740.963 408.531 746.5 408.637 751.984 408.41L751.987 415.455C754.679 415.544 757.332 415.546 759.967 416.163C761.435 426.594 760.705 438.435 760.002 448.934L759.974 487.984L752.87 488.013C753.211 485.517 753.423 483.009 753.655 480.501L743.517 480.401L743.562 471.955L728.643 471.999L728.718 464.005L719.019 464.015Q718.981 456.051 719.263 448.092L712.743 447.919C714.943 447.59 717.253 447.696 719.476 447.674L719.494 409.103C719.5 401.762 719.196 394.231 719.92 386.925Z"/>
	<path fill="#FDFCFC" transform="scale(0.266042 0.266042)" d="M530.273 159.584Q537.586 159.411 544.901 159.425C544.894 164.599 545.174 169.951 544.685 175.097L562.024 175.028L562.042 191.969L584.049 191.946L584.079 207.828C592.062 207.836 600.106 207.649 608.08 207.91L608.056 223.018C616.181 223.002 624.339 222.833 632.46 223.027L632.541 240.03L656.332 240.012L656.378 256.681Q668.195 256.474 680.014 256.546C679.989 258.91 680.106 261.363 679.929 263.715C679.177 266.731 679.391 269.899 679.41 272.985L639.028 273.018L639.003 256.013C633.437 256.102 627.806 255.558 622.249 255.225L622.239 255.9C617.205 256.218 612.041 256.009 606.991 256.034Q606.926 248.939 607.196 241.849L606.825 240.543C603.733 238.738 595.312 240.006 591.468 239.881L591.54 224.033L576.128 224.023L575.642 223.769C575.219 218.748 575.503 213.539 575.51 208.496C571.278 208.531 567.057 208.61 562.834 208.27L560.026 207.896L560.04 192.013Q552.96 192.363 545.872 192.339C545.723 192.3 545.561 192.296 545.426 192.222C544.26 191.579 544.371 190.019 544.174 188.842C543.795 184.406 544.026 179.88 544.084 175.431C538.724 175.514 533.625 176.353 528.286 175.397L528.076 175.21C527.921 171.196 526.81 163.576 528.609 160.087L530.273 159.584Z"/>
	<path fill="#F2E18E" transform="scale(0.266042 0.266042)" d="M607.492 240.072C612.474 240.054 617.46 240.08 622.441 240.004C622.413 244.973 622.792 250.305 622.249 255.225L622.239 255.9C617.205 256.218 612.041 256.009 606.991 256.034Q606.926 248.939 607.196 241.849L607.492 240.072Z"/>
	<path fill="#CAE7B4" transform="scale(0.266042 0.266042)" d="M591.54 224.033C596.819 224.09 602.212 224.294 607.435 223.413C607.676 228.986 607.313 234.526 607.492 240.072L607.196 241.849L606.825 240.543C603.733 238.738 595.312 240.006 591.468 239.881L591.54 224.033Z"/>
	<path fill="#FDFCFC" transform="scale(0.266042 0.266042)" d="M512.014 271.552Q519.768 272.036 527.538 272.07L527.875 272.052L542.957 272.02C543.1 276.734 542.728 282.478 543.851 287.012Q551.435 286.941 559.02 286.997L559.026 296C559.022 298.456 558.855 301.013 559.277 303.437C564.84 303.334 570.406 303.171 575.97 303.317C575.978 308.661 576.212 314.142 575.934 319.471C580.619 320.805 587.089 320.037 592.006 320.019C592.012 325.006 591.944 330.006 592.104 334.991L607.996 335.033L608.099 350.999C613.396 351.005 618.699 350.958 623.994 351.02C624 353.887 623.686 357.218 624.405 359.982L639.031 360.013L639.035 383.659C644.515 384.479 650.46 384.02 656.005 384.004L655.983 399.485C661.513 399.861 666.954 399.824 672.483 399.455L672.51 415.953L689.075 416.01C688.964 418.842 688.917 421.685 688.583 424.501C688.432 426.904 688.133 429.384 688.232 431.787C692.334 431.772 696.55 431.96 700.635 431.63C701.571 432.018 702.539 432.511 703.52 432.756Q703.372 440.345 703.518 447.933C698.119 448.474 692.887 448.454 687.493 447.853C687.596 450.381 687.625 452.937 687.854 455.456L688.055 457.474L687.978 463.996L671.974 464.005L671.981 480.066Q667.445 479.983 662.909 480.032L663.03 486.026C660.884 485.943 658.486 485.542 656.511 486.506C655.528 487.986 655.488 489.077 655.466 490.847C655.558 492.583 655.707 494.21 655.319 495.917C654.922 498.624 654.999 501.327 655.027 504.054L647.037 504.017L639.897 503.935L639.502 503.721C636.933 503.547 634.553 503.42 631.984 503.787C629.426 504.18 626.635 503.987 624.042 504.006L561.782 504.027L560.706 503.74C553.052 504.725 544.651 504.075 536.911 504.073L535.123 503.972L519.992 503.994L520.033 529.064C520.023 533.916 519.815 538.853 520.055 543.695C515.125 544.391 509.882 544.121 504.902 544.188C504.768 548.055 505.116 552.462 504.529 556.243C504.371 557.482 504.204 558.688 504.166 559.938Q480.075 560.452 455.981 560.08L455.998 503.999L464.095 503.957L463.982 495.988L463.985 487.837L479.977 487.953L479.932 480.012L495.901 479.995C495.757 471.726 495.95 463.437 496.025 455.167L496.033 447.592C501.709 447.756 507.373 447.556 513.047 447.391L513.656 447.391C514.696 441.605 513.961 434.357 513.983 428.393C514.037 413.641 514.403 398.778 513.486 384.051L513.11 383.972C512.964 380.863 512.819 378.044 513.879 375.066L512.071 374.921C511.114 340.74 511.989 305.811 512.014 271.552Z"/>
	<path fill="#87C5DB" transform="scale(0.266042 0.266042)" d="M513.879 375.066C515.94 375.058 517.898 375.094 519.941 375.373C519.967 378.132 520.068 380.91 519.935 383.666C517.772 383.727 515.639 383.841 513.486 384.051L513.11 383.972C512.964 380.863 512.819 378.044 513.879 375.066Z"/>
	<path fill="#E2F5F8" transform="scale(0.266042 0.266042)" d="M544.409 409.611C549.595 408.641 554.71 408.329 559.98 408.353L560.007 414.847C554.827 415.235 549.67 415.421 544.48 415.55L544.409 409.611Z"/>
	<path fill="#CCF6F9" transform="scale(0.266042 0.266042)" d="M688.232 431.787C692.334 431.772 696.55 431.96 700.635 431.63C699.753 434.828 698.773 437.917 697.604 441.022C694.406 441.251 691.195 441.343 687.992 441.475C688.278 438.203 688.373 435.07 688.232 431.787Z"/>
	<path fill="#CCF6F9" transform="scale(0.266042 0.266042)" d="M592.021 456.962Q600.014 456.99 608.007 456.917L608.003 463.781C602.626 464.363 597.405 464.187 592.018 463.982L592.021 456.962Z"/>
	<path fill="#CCF6F9" transform="scale(0.266042 0.266042)" d="M607.995 470.336C608.228 471.054 608.3 472.113 609.014 472.481C612.157 474.099 620.086 472.437 623.863 472.405L623.888 479.496C618.71 479.347 613.299 480.035 608.047 479.99L607.995 470.336Z"/>
	<path fill="#87C5DB" transform="scale(0.266042 0.266042)" d="M623.994 495.991C629.19 495.994 634.446 496.169 639.633 495.919C639.679 498.404 640.05 501.309 639.502 503.721C636.933 503.547 634.553 503.42 631.984 503.787C629.426 504.18 626.635 503.987 624.042 504.006L623.994 495.991Z"/>
	<path fill="#E2F5F8" transform="scale(0.266042 0.266042)" d="M576.013 440.14L592.008 439.968L592 447.935L576.003 448.017L576.013 440.14Z"/>
	<path fill="#E2F5F8" transform="scale(0.266042 0.266042)" d="M639.633 495.919C644.459 494.428 649.738 496.662 654.16 495C655.327 493.69 655.212 492.558 655.466 490.847C655.558 492.583 655.707 494.21 655.319 495.917C654.922 498.624 654.999 501.327 655.027 504.054L647.037 504.017L639.897 503.935L639.502 503.721C640.05 501.309 639.679 498.404 639.633 495.919Z"/>
	<path fill="#A4DDE5" transform="scale(0.266042 0.266042)" d="M592.018 463.982C597.405 464.187 602.626 464.363 608.003 463.781L607.995 470.336L608.047 479.99L591.981 479.995C592.138 474.655 592.077 469.324 592.018 463.982Z"/>
	<path fill="#A4DDE5" transform="scale(0.266042 0.266042)" d="M608.047 479.99C613.299 480.035 618.71 479.347 623.888 479.496C623.922 484.987 623.844 490.504 623.994 495.991L608.029 495.993L608.047 479.99Z"/>
	<path fill="#87C5DB" transform="scale(0.266042 0.266042)" d="M576.003 448.017L592 447.935L592.021 456.962L592.018 463.982L576.024 464.015L576.003 448.017Z"/>
	<path fill="#E2F5F8" transform="scale(0.266042 0.266042)" d="M638.341 383.561L639.035 383.659C644.515 384.479 650.46 384.02 656.005 384.004L655.983 399.485C650.276 398.888 644.712 398.869 639.007 399.53C639.014 396.515 639.885 385.956 638.341 383.561Z"/>
	<path fill="#CCF6F9" transform="scale(0.266042 0.266042)" d="M527.875 272.052L542.957 272.02C543.1 276.734 542.728 282.478 543.851 287.012Q551.435 286.941 559.02 286.997L559.026 296L543.978 295.982C543.62 293.032 543.599 290.067 543.531 287.1C538.871 285.74 532.752 286.555 527.978 286.944Q528.02 279.497 527.875 272.052Z"/>
	<path fill="#CCF6F9" transform="scale(0.266042 0.266042)" d="M655.983 399.485C661.513 399.861 666.954 399.824 672.483 399.455L672.51 415.953L689.075 416.01C688.964 418.842 688.917 421.685 688.583 424.501C683.068 424.511 677.522 424.796 672.008 424.963L672.085 415.995L656.011 415.974L655.983 399.485Z"/>
	<path fill="#CCF6F9" transform="scale(0.266042 0.266042)" d="M559.277 303.437C564.84 303.334 570.406 303.171 575.97 303.317C575.978 308.661 576.212 314.142 575.934 319.471C580.619 320.805 587.089 320.037 592.006 320.019C592.012 325.006 591.944 330.006 592.104 334.991L607.996 335.033L608.099 350.999C613.396 351.005 618.699 350.958 623.994 351.02C624 353.887 623.686 357.218 624.405 359.982L639.031 360.013L639.035 383.659L638.341 383.561Q631.163 383.438 623.988 383.676Q623.855 371.904 624.076 360.134C618.824 359.424 613.284 359.878 607.991 359.991L607.997 351.011L591.995 350.985L592 335.021C586.561 334.933 581.11 334.99 575.67 334.983C575.801 330.198 576.667 324.164 575.608 319.53C570.352 319.277 565.178 318.854 559.934 319.482C559.638 314.14 559.537 308.783 559.277 303.437Z"/>
	<path fill="#CCF6F9" transform="scale(0.266042 0.266042)" d="M513.486 384.051C515.639 383.841 517.772 383.727 519.935 383.666C522.515 384.065 525.042 383.982 527.641 383.927C527.539 389.306 527.417 394.628 528.096 399.981L544.062 399.959L544.409 409.611L544.48 415.55C549.67 415.421 554.827 415.235 560.007 414.847L560.034 425.541L575.915 425.508L576.013 440.14L576.003 448.017L576.024 464.015L592.018 463.982C592.077 469.324 592.138 474.655 591.981 479.995L608.047 479.99L608.029 495.993L623.994 495.991L624.042 504.006L561.782 504.027L560.706 503.74C560.008 498.349 560.111 492.599 559.956 487.153L552.507 488.824L552.514 479.452L536.028 479.52L535.972 471.523L536.006 464.289C538.585 464.713 541.024 464.936 543.636 465.007C544.566 454.116 544.018 442.901 544.003 431.97L518.338 432.014C518.568 435.885 519.479 439.972 519.063 443.825C518.88 445.518 518.503 446.461 517.147 447.578L513.656 447.391C514.696 441.605 513.961 434.357 513.983 428.393C514.037 413.641 514.403 398.778 513.486 384.051Z"/>
	<path fill="#E2F5F8" transform="scale(0.266042 0.266042)" d="M536.006 464.289C538.585 464.713 541.024 464.936 543.636 465.007C544.158 467.317 544.006 469.687 543.983 472.043C541.314 471.899 538.629 471.813 535.972 471.523L536.006 464.289Z"/>
	<path fill="#FDFCFC" transform="scale(0.266042 0.266042)" d="M518.338 432.014L544.003 431.97C544.018 442.901 544.566 454.116 543.636 465.007C541.024 464.936 538.585 464.713 536.006 464.289L535.972 471.523L536.028 479.52L552.514 479.452L552.507 488.824L559.956 487.153C560.111 492.599 560.008 498.349 560.706 503.74C553.052 504.725 544.651 504.075 536.911 504.073L535.123 503.972L519.992 503.994L520.033 529.064C520.023 533.916 519.815 538.853 520.055 543.695C515.125 544.391 509.882 544.121 504.902 544.188C504.768 548.055 505.116 552.462 504.529 556.243C504.371 557.482 504.204 558.688 504.166 559.938Q480.075 560.452 455.981 560.08L455.998 503.999L464.095 503.957L463.982 495.988L463.985 487.837L479.977 487.953L479.932 480.012L495.901 479.995C495.757 471.726 495.95 463.437 496.025 455.167L496.033 447.592C501.709 447.756 507.373 447.556 513.047 447.391L513.656 447.391L517.147 447.578C518.503 446.461 518.88 445.518 519.063 443.825C519.479 439.972 518.568 435.885 518.338 432.014Z"/>
	<path fill="#E2F5F8" transform="scale(0.266042 0.266042)" d="M513.656 447.391L517.147 447.578C512.71 448.027 508.235 447.992 503.78 448.049L503.606 454.989L496.025 455.167L496.033 447.592C501.709 447.756 507.373 447.556 513.047 447.391L513.656 447.391Z"/>
	<path fill="#58EAE8" transform="scale(0.266042 0.266042)" d="M480.555 504.003L504.38 503.998C504.24 511.923 503.942 519.898 504.468 527.813C496.66 528.116 488.824 528.021 481.011 528.041C480.498 520.021 480.539 512.033 480.555 504.003Z"/>
	<path fill="#61BEE6" transform="scale(0.266042 0.266042)" d="M455.998 503.999L464.095 503.957L480.555 504.003C480.539 512.033 480.498 520.021 481.011 528.041C488.824 528.021 496.66 528.116 504.468 527.813C504.744 533.281 505.017 538.711 504.902 544.188C504.768 548.055 505.116 552.462 504.529 556.243C504.371 557.482 504.204 558.688 504.166 559.938Q480.075 560.452 455.981 560.08L455.998 503.999Z"/>
	<defs>
		<linearGradient id="gradient_1" gradientUnits="userSpaceOnUse" x1="443.96323" y1="669.20776" x2="368.17908" y2="780.79529">
			<stop offset="0" stop-color="#2A2C64"/>
			<stop offset="1" stop-color="#444582"/>
		</linearGradient>
	</defs>
	<path fill="url(#gradient_1)" transform="scale(0.266042 0.266042)" d="M399.546 503.662C403.077 503.537 406.599 503.479 410.116 503.903L455.998 503.999L455.981 560.08Q480.075 560.452 504.166 559.938C505.549 563.128 504.427 594.122 504.574 600.337C507.034 600.208 509.502 600.021 511.965 600.042C511.932 607.996 510.726 616.136 511.498 624.048L512.131 623.887C516.354 622.762 523.54 623.594 528.005 623.52L528.093 626.146Q527.967 631.552 528.006 636.96C527.939 642.032 526.673 651.363 529.065 655.607C529.795 655.92 530.373 656.095 531.163 656.187C535.779 655.976 540.381 655.984 545 656L544.987 671.497C547.331 671.46 549.707 671.506 552.046 671.372C554.519 671.3 557.383 670.895 559.753 671.664C561.557 675.034 560.948 683.88 559.894 687.453C562.413 687.419 566.205 686.929 568.178 688.775C568.929 689.478 569.175 691.431 569.079 692.399C568.935 693.842 568.121 695.092 567.874 696.521Q567.965 700.241 568.113 703.959C572.808 703.947 577.564 704.096 582.234 703.562C583.134 703.62 583.13 703.527 583.887 703.143C584.684 701.159 584.296 698.857 584.19 696.758C586.526 696.139 589.59 696.499 592.023 696.496C591.934 704.917 590.791 721.065 592.25 728.542C593.288 739.716 592.427 751.698 592.405 762.961C592.386 772.659 593.24 783.065 592.145 792.676C586.761 792.168 581.429 791.83 576.022 792.151L576.051 800.512C578.563 800.488 581.151 800.331 583.651 800.564L592.217 800.591C592.109 806.057 591.67 811.798 592.235 817.236L591.693 817.298C587.292 817.763 580.203 816.101 576.573 818.336C575.756 819.567 576.112 821.12 576.208 822.526C576.162 826.655 576.004 830.815 576.118 834.942C576.139 836.563 576.402 838.218 575.441 839.613C573.851 840.485 571.473 840.028 569.703 839.93C566.44 839.353 563.123 839.891 559.887 839.077L559.496 839.101C554.557 840.264 548.715 839.376 543.606 839.669Q543.434 847.833 543.475 855.999L543.402 872.005L527.528 872.031C525.177 872.046 522.752 871.934 520.412 872.129C520.721 877.437 521.444 883.137 520.239 888.357C519.868 888.667 519.555 888.983 519.107 889.173C514.233 887.953 508.813 888.705 503.846 889.067C501.996 884.486 504.782 878.219 503.17 873.089C502.043 871.947 501.651 872.113 500.1 871.944C494.256 872.572 488.371 872.428 482.508 872.239Q482.556 864.228 482.392 856.219L481.702 856.184C476.223 855.679 470.41 856.04 464.893 856.028C464.35 851.895 466.091 843.926 464.05 840.551C463.644 839.881 462.302 839.944 461.558 839.834C457.067 840.14 452.467 839.982 447.962 840.021L447.846 816.777L447.372 816.735C442.892 816.085 431.413 817.993 428.1 815.903L427.912 814.084C427.336 810.34 428.894 803.286 426.526 800.544L424.235 800.473Q416.143 800.391 408.05 800.416Q407.948 792.384 408.205 784.355C403.333 783.274 397.051 784.025 392.028 784.081L392.025 767.937L374.993 768.133C374.95 762.79 375.06 757.436 375.105 752.092C367.391 752.015 359.671 752.109 351.957 752.132Q351.886 744.557 351.934 736.982L351.75 736.187C346.544 735.442 340.755 735.968 335.49 736.028Q335.344 727.95 335.574 719.873C335.561 717.085 335.749 714.323 335.936 711.543C336.109 706.076 335.979 700.56 335.992 695.088C330.633 695.012 325.335 695.243 319.987 695.537L320.01 672.003L304.072 672.003L304.034 656.057L287.995 655.945L287.99 607.066C282.673 606.985 277.348 607.282 272.036 607.488L272.107 583.047Q287.196 582.988 302.285 583.118C308.111 583.154 314.145 582.903 319.949 583.4L320.038 583.111C319.95 578.173 320.021 573.219 320.018 568.279C325.348 568.757 330.689 568.471 336.003 567.951L335.937 551.746L351.518 551.697L351.498 543.451C354.377 543.577 357.262 543.851 360.137 544.07C360.873 538.853 360.496 533.318 360.449 528.054L376.068 527.998L376.099 519.231C375.956 516.93 376.15 514.582 376.242 512.279C378.797 511.997 381.416 512.035 383.985 511.97C383.982 509.548 384.115 507.121 384.205 504.701C386.924 504.174 390.234 504.607 393.024 504.708L393.188 504.341C395.517 504.511 397.295 504.268 399.546 503.662Z"/>
	<path fill="#6F85BF" transform="scale(0.266042 0.266042)" d="M360.52 720.472L360.868 720.352Q364.5 720.406 368.133 720.41L375.573 720.512L375.572 735.967L367.999 735.969L360.894 736.033L360.584 735.948C360.422 730.807 360.533 725.618 360.52 720.472Z"/>
	<path fill="#8297CA" transform="scale(0.266042 0.266042)" d="M360.52 720.472L360.868 720.352Q364.5 720.406 368.133 720.41Q367.91 728.188 367.999 735.969L360.894 736.033L360.584 735.948C360.422 730.807 360.533 725.618 360.52 720.472Z"/>
	<path fill="#B7DBF2" transform="scale(0.266042 0.266042)" d="M527.49 856.004L543.475 855.999L543.402 872.005L527.528 872.031L527.49 856.004Z"/>
	<path fill="#A4DDE5" transform="scale(0.266042 0.266042)" d="M465.011 839.744C470.529 839.396 476.029 839.397 481.554 839.513C481.42 845.096 481.326 850.604 481.702 856.184C476.223 855.679 470.41 856.04 464.893 856.028C465.091 850.598 465.048 845.177 465.011 839.744Z"/>
	<path fill="#A4DDE5" transform="scale(0.266042 0.266042)" d="M503.949 872.188C508.712 872.289 513.731 872.533 518.409 871.495L520.412 872.129C520.721 877.437 521.444 883.137 520.239 888.357C519.868 888.667 519.555 888.983 519.107 889.173C514.233 887.953 508.813 888.705 503.846 889.067C504.123 883.441 504.013 877.818 503.949 872.188Z"/>
	<path fill="#E2F5F8" transform="scale(0.266042 0.266042)" d="M518.409 871.495L520.412 872.129C520.721 877.437 521.444 883.137 520.239 888.357C519.868 888.667 519.555 888.983 519.107 889.173C517.372 883.99 517.426 876.824 518.409 871.495Z"/>
	<path fill="#A2B3D5" transform="scale(0.266042 0.266042)" d="M408.463 784.023L425.026 783.999C425.299 789.36 426.021 795.322 424.235 800.473Q416.143 800.391 408.05 800.416Q407.948 792.384 408.205 784.355L408.463 784.023Z"/>
	<path fill="#A4DDE5" transform="scale(0.266042 0.266042)" d="M482.392 856.219C488.281 855.477 494.233 855.495 500.159 855.507L500.1 871.944C494.256 872.572 488.371 872.428 482.508 872.239Q482.556 864.228 482.392 856.219Z"/>
	<path fill="#B7DBF2" transform="scale(0.266042 0.266042)" d="M427.904 800.411C434.467 799.586 440.856 799.731 447.441 800.025Q447.523 808.38 447.372 816.735C442.892 816.085 431.413 817.993 428.1 815.903L427.912 814.084Q428.073 807.247 427.904 800.411Z"/>
	<path fill="#87C5DB" transform="scale(0.266042 0.266042)" d="M447.846 816.777C453.221 816.155 459.109 816.592 464.52 816.808C464.573 824.03 465.276 831.938 464.358 839.087C463.389 839.632 462.656 839.724 461.558 839.834C457.067 840.14 452.467 839.982 447.962 840.021L447.846 816.777Z"/>
	<path fill="#6F85BF" transform="scale(0.266042 0.266042)" d="M335.936 711.543L360.451 711.513C360.443 714.426 360.2 717.505 360.868 720.352L360.52 720.472C360.533 725.618 360.422 730.807 360.584 735.948C357.853 735.958 354.372 735.604 351.934 736.982L351.75 736.187C346.544 735.442 340.755 735.968 335.49 736.028Q335.344 727.95 335.574 719.873C335.561 717.085 335.749 714.323 335.936 711.543Z"/>
	<path fill="#87C5DB" transform="scale(0.266042 0.266042)" d="M352.464 720.541L360.52 720.472C360.533 725.618 360.422 730.807 360.584 735.948C357.853 735.958 354.372 735.604 351.934 736.982L351.75 736.187C353.511 731.929 352.587 725.157 352.464 720.541Z"/>
	<path fill="#61BEE6" transform="scale(0.266042 0.266042)" d="M360.584 735.948L360.894 736.033L367.999 735.969L375.572 735.967L375.54 742.546L375.47 751.994L392.315 751.998L392.216 767.521C397.627 767.414 403.132 767.088 408.535 767.411Q408.56 775.717 408.463 784.023L408.205 784.355C403.333 783.274 397.051 784.025 392.028 784.081L392.025 767.937L374.993 768.133C374.95 762.79 375.06 757.436 375.105 752.092C367.391 752.015 359.671 752.109 351.957 752.132Q351.886 744.557 351.934 736.982C354.372 735.604 357.853 735.958 360.584 735.948Z"/>
	<path fill="#87C5DB" transform="scale(0.266042 0.266042)" d="M367.999 735.969L375.572 735.967L375.54 742.546C370.911 742.565 366.302 742.228 361.686 741.932L360.894 736.033L367.999 735.969Z"/>
	<path fill="#6F85BF" transform="scale(0.266042 0.266042)" d="M320.038 583.111C325.345 583.624 330.682 583.511 336.007 583.501L335.984 600.023L352.027 599.999L352.002 608.517L359.862 608.418L359.874 624.021L376.014 623.999L375.996 632.517L384.009 632.497L383.99 648.023L400.025 648.003L399.996 656.03L408.082 655.997L408.283 664.064L415.995 664.178C416.193 666.803 416.292 669.463 416.832 672.043L422.601 671.806L423.786 672.369C424.348 674.897 424.06 677.529 423.954 680.101L431.933 679.964L431.948 680.403L432.001 688.029L440.857 687.996C440.791 693.177 440.237 698.887 440.764 704.017L440.467 711.915L431.998 712.05C432.034 715.338 433.155 725.539 431.188 727.83C420.825 728.467 410.321 728.114 399.942 728.02L399.958 703.993L368.505 704.169C368.163 698.938 368.093 693.716 368.024 688.476C362.738 689.064 357.481 689.005 352.17 689.006C352 683.412 352.116 677.776 352.102 672.178L335.499 672.162L335.504 656.491L320.002 656.49C319.81 632.129 320.267 607.763 319.949 583.4L320.038 583.111Z"/>
	<path fill="#8297CA" transform="scale(0.266042 0.266042)" d="M416.832 672.043L422.601 671.806L423.786 672.369C424.348 674.897 424.06 677.529 423.954 680.101L431.933 679.964L431.948 680.403Q424.528 680.485 417.107 680.489Q417.079 676.263 416.832 672.043Z"/>
	<path fill="#5175AE" transform="scale(0.266042 0.266042)" d="M431.988 704.001L440.764 704.017L440.467 711.915L431.998 712.05L431.988 704.001Z"/>
	<path fill="#5566A1" transform="scale(0.266042 0.266042)" d="M504.744 647.996C507.091 648.135 509.446 648.24 511.789 648.439C512.777 661.291 511.949 674.53 512.166 687.445Q512.637 712.042 512.513 736.644C512.526 745.789 512.846 755.054 512.395 764.186L512.009 764.063C511.917 765.73 512.163 766.239 510.963 767.463C508.758 768.323 506.308 768.053 503.974 768.021L503.998 800.014L463.969 800.039L463.989 783.991L431.95 784.032L431.915 743.253C431.918 739.599 432.671 732.021 431.796 728.711C431.705 728.366 431.391 728.123 431.188 727.83C433.155 725.539 432.034 715.338 431.998 712.05L440.467 711.915L440.764 704.017L447.182 704.022L448.252 703.825L449.158 696.007L455.956 696.001L455.842 687.702L463.999 687.707L463.979 672.022L479.902 672.007L479.969 656.497L496.052 656.521L495.983 648.012L504.744 647.996Z"/>
	<path fill="#8297CA" transform="scale(0.266042 0.266042)" d="M504.744 647.996C507.091 648.135 509.446 648.24 511.789 648.439C512.777 661.291 511.949 674.53 512.166 687.445Q512.637 712.042 512.513 736.644C512.526 745.789 512.846 755.054 512.395 764.186L512.009 764.063L512.11 751.995L495.994 752.085L496.013 736.133C490.689 735.944 485.327 736.041 479.998 736.02L480.027 727.997L471.991 728.088L471.863 720.013L464.965 720.025L464.983 711.492L456.004 711.511L448.239 711.131C447.667 708.796 447.456 706.407 447.182 704.022L448.252 703.825L449.158 696.007L455.956 696.001L455.842 687.702L463.999 687.707L463.979 672.022L479.902 672.007L479.969 656.497L496.052 656.521L495.983 648.012L504.744 647.996Z"/>
	<path fill="#5175AE" transform="scale(0.266042 0.266042)" d="M448.252 703.825C450.853 703.964 453.414 704.023 456.018 703.984L456.004 711.511L448.239 711.131C447.667 708.796 447.456 706.407 447.182 704.022L448.252 703.825Z"/>
	<path fill="#6F85BF" transform="scale(0.266042 0.266042)" d="M511.789 648.439C514.447 648.576 517.099 648.63 519.711 649.18C520.084 651.814 520.019 654.424 519.991 657.076C523.75 656.932 527.43 656.646 531.163 656.187C535.779 655.976 540.381 655.984 545 656L544.987 671.497C547.331 671.46 549.707 671.506 552.046 671.372C554.519 671.3 557.383 670.895 559.753 671.664C561.557 675.034 560.948 683.88 559.894 687.453C562.413 687.419 566.205 686.929 568.178 688.775C568.929 689.478 569.175 691.431 569.079 692.399C568.935 693.842 568.121 695.092 567.874 696.521Q567.965 700.241 568.113 703.959C572.808 703.947 577.564 704.096 582.234 703.562C583.134 703.62 583.13 703.527 583.887 703.143C584.684 701.159 584.296 698.857 584.19 696.758C586.526 696.139 589.59 696.499 592.023 696.496C591.934 704.917 590.791 721.065 592.25 728.542C593.288 739.716 592.427 751.698 592.405 762.961C592.386 772.659 593.24 783.065 592.145 792.676C586.761 792.168 581.429 791.83 576.022 792.151L576.051 800.512C578.563 800.488 581.151 800.331 583.651 800.564L592.217 800.591C592.109 806.057 591.67 811.798 592.235 817.236L591.693 817.298C587.292 817.763 580.203 816.101 576.573 818.336C575.756 819.567 576.112 821.12 576.208 822.526C576.162 826.655 576.004 830.815 576.118 834.942C576.139 836.563 576.402 838.218 575.441 839.613C573.851 840.485 571.473 840.028 569.703 839.93C566.44 839.353 563.123 839.891 559.887 839.077L559.496 839.101L559.479 823.419C554.307 823.798 549.191 823.928 544.009 823.957L544.002 832.005L503.992 832.019L503.998 800.014L503.974 768.021C506.308 768.053 508.758 768.323 510.963 767.463C512.163 766.239 511.917 765.73 512.009 764.063L512.395 764.186C512.846 755.054 512.526 745.789 512.513 736.644Q512.637 712.042 512.166 687.445C511.949 674.53 512.777 661.291 511.789 648.439Z"/>
	<path fill="#404D6B" transform="scale(0.266042 0.266042)" d="M559.998 808.007L575.607 808C575.426 810.476 575.421 812.734 575.666 815.216C576.691 816.438 577.072 816.984 578.707 817.156C583.202 817.63 587.708 816.778 592.235 817.236L591.693 817.298C587.292 817.763 580.203 816.101 576.573 818.336C575.756 819.567 576.112 821.12 576.208 822.526L559.985 822.509L559.998 808.007Z"/>
	<path fill="#CCF6F9" transform="scale(0.266042 0.266042)" d="M583.651 800.564L592.217 800.591C592.109 806.057 591.67 811.798 592.235 817.236C587.708 816.778 583.202 817.63 578.707 817.156C577.072 816.984 576.691 816.438 575.666 815.216C576.056 810.505 575.953 805.749 575.969 801.025C578.545 800.993 581.086 800.785 583.651 800.564Z"/>
	<path fill="#CCF6F9" transform="scale(0.266042 0.266042)" d="M559.985 822.509L576.208 822.526C576.162 826.655 576.004 830.815 576.118 834.942C576.139 836.563 576.402 838.218 575.441 839.613C573.851 840.485 571.473 840.028 569.703 839.93C566.44 839.353 563.123 839.891 559.887 839.077C560.058 833.57 559.963 828.021 559.985 822.509Z"/>
	<path fill="#A2B3D5" transform="scale(0.266042 0.266042)" d="M511.789 648.439C514.447 648.576 517.099 648.63 519.711 649.18C520.084 651.814 520.019 654.424 519.991 657.076C523.75 656.932 527.43 656.646 531.163 656.187C535.779 655.976 540.381 655.984 545 656L544.987 671.497C547.331 671.46 549.707 671.506 552.046 671.372C554.519 671.3 557.383 670.895 559.753 671.664C561.557 675.034 560.948 683.88 559.894 687.453C562.413 687.419 566.205 686.929 568.178 688.775C568.929 689.478 569.175 691.431 569.079 692.399C568.935 693.842 568.121 695.092 567.874 696.521Q567.965 700.241 568.113 703.959L559.97 703.962L560.009 728L543.98 728.006L544.006 743.586L527.462 743.981L527.48 752.513L519.986 752.546L519.995 767.999C517.9 768.068 514.462 768.632 512.766 767.356C512.22 766.275 512.357 765.364 512.395 764.186C512.846 755.054 512.526 745.789 512.513 736.644Q512.637 712.042 512.166 687.445C511.949 674.53 512.777 661.291 511.789 648.439Z"/>
	<path fill="#BCCBE5" transform="scale(0.266042 0.266042)" d="M552.046 671.372C554.519 671.3 557.383 670.895 559.753 671.664C561.557 675.034 560.948 683.88 559.894 687.453L551.968 687.238L552.046 671.372Z"/>
	<path fill="#B7DBF2" transform="scale(0.266042 0.266042)" d="M399.546 503.662C403.077 503.537 406.599 503.479 410.116 503.903L455.998 503.999L455.981 560.08Q480.075 560.452 504.166 559.938C505.549 563.128 504.427 594.122 504.574 600.337C507.034 600.208 509.502 600.021 511.965 600.042C511.932 607.996 510.726 616.136 511.498 624.048L512.131 623.887C516.354 622.762 523.54 623.594 528.005 623.52L528.093 626.146Q527.967 631.552 528.006 636.96C527.939 642.032 526.673 651.363 529.065 655.607C529.795 655.92 530.373 656.095 531.163 656.187C527.43 656.646 523.75 656.932 519.991 657.076C520.019 654.424 520.084 651.814 519.711 649.18C517.099 648.63 514.447 648.576 511.789 648.439C509.446 648.24 507.091 648.135 504.744 647.996L495.983 648.012L496.052 656.521L479.969 656.497L479.902 672.007L463.979 672.022L463.999 687.707L455.842 687.702L455.956 696.001L449.158 696.007L448.252 703.825L447.182 704.022L440.764 704.017C440.237 698.887 440.791 693.177 440.857 687.996L432.001 688.029L431.948 680.403L431.933 679.964L423.954 680.101C424.06 677.529 424.348 674.897 423.786 672.369L422.601 671.806L416.832 672.043C416.292 669.463 416.193 666.803 415.995 664.178L408.283 664.064L408.082 655.997L399.996 656.03L400.025 648.003L383.99 648.023L384.009 632.497L375.996 632.517L376.014 623.999L359.874 624.021L359.862 608.418L352.002 608.517L352.027 599.999L335.984 600.023L336.007 583.501C330.682 583.511 325.345 583.624 320.038 583.111C319.95 578.173 320.021 573.219 320.018 568.279C325.348 568.757 330.689 568.471 336.003 567.951L335.937 551.746L351.518 551.697L351.498 543.451C354.377 543.577 357.262 543.851 360.137 544.07C360.873 538.853 360.496 533.318 360.449 528.054L376.068 527.998L376.099 519.231C375.956 516.93 376.15 514.582 376.242 512.279C378.797 511.997 381.416 512.035 383.985 511.97C383.982 509.548 384.115 507.121 384.205 504.701C386.924 504.174 390.234 504.607 393.024 504.708L393.188 504.341C395.517 504.511 397.295 504.268 399.546 503.662Z"/>
	<path fill="#A2B3D5" transform="scale(0.266042 0.266042)" d="M504.495 640.076L511.506 640.072C511.513 642.768 511.238 645.804 511.789 648.439C509.446 648.24 507.091 648.135 504.744 647.996L504.495 640.076Z"/>
	<path fill="#404D6B" transform="scale(0.266042 0.266042)" d="M503.964 624.029C506.25 624.015 509.293 623.619 511.446 624.357L511.493 631.975L504.229 631.941L503.964 624.029Z"/>
	<path fill="#A2B3D5" transform="scale(0.266042 0.266042)" d="M422.601 671.806C425.681 671.348 428.907 671.493 432.022 671.47L431.933 679.964L423.954 680.101C424.06 677.529 424.348 674.897 423.786 672.369L422.601 671.806Z"/>
	<path fill="#87C5DB" transform="scale(0.266042 0.266042)" d="M448.53 574.964C451.099 575.145 453.479 575.508 455.998 576.025C455.977 578.473 456.132 581.071 455.718 583.484C455.203 586.017 455.155 588.833 454.931 591.419L447.991 591.016C447.983 588.335 448 585.79 448.458 583.135L448.858 582.79C449.177 580.173 448.79 577.574 448.53 574.964Z"/>
	<path fill="#BCCBE5" transform="scale(0.266042 0.266042)" d="M376.099 519.231C376.942 524.369 376.519 529.858 376.328 535.043C373.31 534.888 370.278 534.788 367.265 534.573L367.502 543.98L360.137 544.07C360.873 538.853 360.496 533.318 360.449 528.054L376.068 527.998L376.099 519.231Z"/>
	<path fill="#A2B3D5" transform="scale(0.266042 0.266042)" d="M400.032 519.977L407.675 520C407.809 522.366 407.927 524.709 407.886 527.081L416.017 526.998L416.043 535.972L400 535.993L400.009 528.093L400.032 519.977Z"/>
	<path fill="#87C5DB" transform="scale(0.266042 0.266042)" d="M400.032 519.977L407.675 520C407.614 522.569 407.53 525.138 407.565 527.709L400.009 528.093L400.032 519.977Z"/>
	<path fill="#61BEE6" transform="scale(0.266042 0.266042)" d="M472.233 583.506C472.457 586.664 472.469 589.781 472.43 592.945L472.574 599.282L480.006 599.533C480.018 602.221 479.744 605.359 480.203 607.985L479.783 608.139C474.586 607.652 469.17 607.978 463.947 608.009L463.981 592.487L472.084 592.585C472.04 589.557 472.147 586.532 472.233 583.506Z"/>
	<path fill="#61BEE6" transform="scale(0.266042 0.266042)" d="M448.196 560.99L448.382 560.996L448.353 568.557C450.436 568.657 452.563 568.668 454.634 568.897L455.734 569.231C456.392 571.396 456.082 573.784 455.998 576.025C453.479 575.508 451.099 575.145 448.53 574.964C448.79 577.574 449.177 580.173 448.858 582.79L448.458 583.135C445.66 582.902 442.8 582.987 439.991 582.962L440 575.935L432.003 576.018L431.996 568.141Q440.043 568.361 448.093 568.49C448.067 565.992 448.151 563.488 448.196 560.99Z"/>
	<path fill="#A4DDE5" transform="scale(0.266042 0.266042)" d="M454.634 568.897L455.734 569.231C456.392 571.396 456.082 573.784 455.998 576.025C453.479 575.508 451.099 575.145 448.53 574.964C448.258 573.324 447.704 571.138 448.573 569.639C450.195 568.626 452.761 568.928 454.634 568.897Z"/>
	<path fill="#87C5DB" transform="scale(0.266042 0.266042)" d="M480.203 607.985C485.519 607.811 490.728 607.651 496.037 608.116L496.029 623.994L479.478 623.991C479.467 618.699 479.42 613.423 479.783 608.139L480.203 607.985Z"/>
	<path fill="#BCCBE5" transform="scale(0.266042 0.266042)" d="M528.005 623.52L528.093 626.146Q527.967 631.552 528.006 636.96C527.939 642.032 526.673 651.363 529.065 655.607C529.795 655.92 530.373 656.095 531.163 656.187C527.43 656.646 523.75 656.932 519.991 657.076C520.019 654.424 520.084 651.814 519.711 649.18C520.282 640.834 519.277 632.461 519.93 624.108C517.31 624.133 514.746 624.063 512.131 623.887C516.354 622.762 523.54 623.594 528.005 623.52Z"/>
	<path fill="#87C5DB" transform="scale(0.266042 0.266042)" d="M416.145 542.915C421.415 543.119 426.696 543.263 431.963 543.548L432.021 560C436.521 559.937 443.317 559.033 447.514 560.262L448.196 560.99C448.151 563.488 448.067 565.992 448.093 568.49Q440.044 568.361 431.996 568.141L431.987 560.007Q423.98 559.874 415.976 559.599L416.145 542.915Z"/>
	<path fill="#5566A1" transform="scale(0.266042 0.266042)" d="M504.166 559.938C505.549 563.128 504.427 594.122 504.574 600.337C507.034 600.208 509.502 600.021 511.965 600.042C511.932 607.996 510.726 616.136 511.498 624.048L511.446 624.357C509.293 623.619 506.25 624.015 503.964 624.029L496.029 623.994L496.037 608.116C490.728 607.651 485.519 607.811 480.203 607.985C479.744 605.359 480.018 602.221 480.006 599.533L472.574 599.282L472.43 592.945C472.469 589.781 472.457 586.664 472.233 583.506L455.718 583.484C456.132 581.071 455.977 578.473 455.998 576.025C456.082 573.784 456.392 571.396 455.734 569.231L454.634 568.897C452.563 568.668 450.436 568.657 448.353 568.557L448.382 560.996L449.019 560.117C451.109 559.445 453.801 559.937 455.981 560.08Q480.075 560.452 504.166 559.938Z"/>
	<path fill="#87C5DB" transform="scale(0.266042 0.266042)" d="M472.43 592.945L480.012 592.957L480.006 599.533L472.574 599.282L472.43 592.945Z"/>
	<path fill="#5175AE" transform="scale(0.266042 0.266042)" d="M399.546 503.662C403.077 503.537 406.599 503.479 410.116 503.903L455.998 503.999L455.981 560.08C453.801 559.937 451.109 559.445 449.019 560.117L448.382 560.996L448.196 560.99L447.514 560.262C443.317 559.033 436.521 559.937 432.021 560L431.963 543.548C426.696 543.263 421.415 543.119 416.145 542.915L416.043 535.972L416.017 526.998L407.886 527.081C407.927 524.709 407.809 522.366 407.675 520L400.032 519.977L400.024 512.458L393.025 512.511L393.024 504.708L393.188 504.341C395.517 504.511 397.295 504.268 399.546 503.662Z"/>
	<path fill="#61BEE6" transform="scale(0.266042 0.266042)" d="M399.546 503.662C403.077 503.537 406.599 503.479 410.116 503.903Q405.022 504.018 399.928 503.874L400.024 512.458L393.025 512.511L393.024 504.708L393.188 504.341C395.517 504.511 397.295 504.268 399.546 503.662Z"/>
</svg>
