<?xml version="1.0" encoding="utf-8" ?>
<svg xmlns="http://www.w3.org/2000/svg" xmlns:xlink="http://www.w3.org/1999/xlink" width="418" height="418">
	<path fill="#EBE6ED" transform="scale(0.407715 0.407715)" d="M440.406 174.976L448.361 174.964L448.36 184.197L440.404 184.195L440.406 174.976Z"/>
	<path fill="#EBE6ED" transform="scale(0.407715 0.407715)" d="M759.272 664.358C761.805 664.146 765.658 663.326 767.838 664.83L768.104 666.352L767.998 673.015L759.569 672.988C759.305 670.149 759.351 667.212 759.272 664.358Z"/>
	<path fill="#EBE6ED" transform="scale(0.407715 0.407715)" d="M439.942 146.023L448.493 145.98L448.441 159.103L439.939 159.029Q439.885 152.526 439.942 146.023Z"/>
	<path fill="#3A2A71" transform="scale(0.407715 0.407715)" d="M768.104 666.352Q768.318 669.416 768.495 672.483L769.335 673.197C766.986 676.26 768.018 684.706 768.069 688.609C765.054 688.334 762.517 688.293 759.503 688.693C759.441 693.527 759.801 698.664 759.306 703.455C758.808 698.538 759.026 693.488 759.028 688.548L753.763 688.596C753.914 688.413 754.078 688.24 754.218 688.049C755.333 686.526 755.442 685.433 755.242 683.628C755.101 682.35 755.076 681.468 755.31 680.208C756.047 680.106 756.662 680.139 757.394 680.237C758.588 680.399 758.362 680.306 759.279 679.67C760.128 677.63 759.69 675.158 759.569 672.988L767.998 673.015L768.104 666.352Z"/>
	<path fill="#EBE6ED" transform="scale(0.407715 0.407715)" d="M240.12 688.914L251.252 688.89C252.859 688.961 253.761 688.773 255.095 689.711C256.015 691.898 255.205 694.417 255.144 696.726C253.264 696.835 251.357 696.885 249.489 697.117L249.384 704.186C246.279 704.044 243.102 704.222 239.992 704.273Q240.003 696.593 240.12 688.914Z"/>
	<path fill="#EBE6ED" transform="scale(0.407715 0.407715)" d="M743.474 673.083Q751.522 673.092 759.569 672.988C759.69 675.158 760.128 677.63 759.279 679.67C758.362 680.306 758.588 680.399 757.394 680.237C756.662 680.139 756.047 680.106 755.31 680.208C755.076 681.468 755.101 682.35 755.242 683.628C755.442 685.433 755.333 686.526 754.218 688.049C754.078 688.24 753.914 688.413 753.763 688.596L743.614 688.484C743.394 683.37 743.507 678.204 743.474 673.083Z"/>
	<path fill="#EBE6ED" transform="scale(0.407715 0.407715)" d="M448.425 159.99L464.009 160.001L464.042 175.048C458.847 175.035 453.544 175.219 448.361 174.964L448.425 159.99Z"/>
	<path fill="#EBE6ED" transform="scale(0.407715 0.407715)" d="M439.541 159.83C440.813 161.635 440.107 172.303 440.072 175.17L424.575 175.087C422.977 172.949 423.959 163.048 423.998 160.016Q431.772 160.111 439.541 159.83Z"/>
	<path fill="#EBE6ED" transform="scale(0.407715 0.407715)" d="M741.747 256.094C745.501 256.069 749.26 255.998 753.013 256.025C753.038 261.369 753.168 266.736 752.96 272.076L736.106 272.057C736.033 267.257 735.478 261.673 736.636 256.995C738.148 256.179 740.046 256.251 741.747 256.094Z"/>
	<path fill="#EBE6ED" transform="scale(0.407715 0.407715)" d="M769.335 673.197C774.474 672.781 779.64 672.903 784.791 672.928L784.869 689.069L768.265 689.03L768.128 703.508L759.306 703.455C759.801 698.664 759.441 693.527 759.503 688.693C762.517 688.293 765.054 688.334 768.069 688.609C768.018 684.706 766.986 676.26 769.335 673.197Z"/>
	<path fill="#EBE6ED" transform="scale(0.407715 0.407715)" d="M727.418 247.95C730.219 247.981 733.604 246.921 735.944 248.756L736.109 250.968C736.234 252.634 736.067 254.403 737.026 255.785C738.618 256.158 740.12 256.115 741.747 256.094C740.046 256.251 738.148 256.179 736.636 256.995C735.478 261.673 736.033 267.257 736.106 272.057C735.912 277.328 736.034 282.663 736.012 287.941L727.931 288.04C727.746 282.72 727.916 277.382 727.994 272.061L712.024 272.073L711.997 256.094L727.624 255.952L727.418 247.95Z"/>
	<path fill="#3A2A71" transform="scale(0.407715 0.407715)" d="M736.109 250.968C736.234 252.634 736.067 254.403 737.026 255.785C738.618 256.158 740.12 256.115 741.747 256.094C740.046 256.251 738.148 256.179 736.636 256.995C735.478 261.673 736.033 267.257 736.106 272.057L728.414 272.031C728.693 266.833 728.858 261.711 728.746 256.503C730.706 256.564 733.492 257.019 735.253 256.116C736.325 254.724 736.083 252.665 736.109 250.968Z"/>
	<path fill="#EBE6ED" transform="scale(0.407715 0.407715)" d="M255.895 680.872L256.521 680.058C259.085 679.74 261.2 679.315 263.443 680.836C264.365 682.634 263.948 686.127 263.967 688.159C269.432 688.264 274.834 688.269 280.297 688.01L280.389 704.196C275.047 704.21 269.695 704.295 264.354 704.185L264.325 719.024L255.877 719.037L255.571 703.647C253.461 704.086 251.536 704.202 249.384 704.186L249.489 697.117C251.357 696.885 253.264 696.835 255.144 696.726C255.205 694.417 256.015 691.898 255.095 689.711C253.761 688.773 252.859 688.961 251.252 688.89C252.563 688.837 253.625 688.811 254.851 688.269C256.011 686.132 255.61 683.333 255.895 680.872Z"/>
	<path fill="#3A3C6D" transform="scale(0.407715 0.407715)" d="M255.895 680.872C255.944 683.421 256.01 685.963 255.92 688.512L263.293 688.552C263.066 693.514 262.87 698.275 263.635 703.201C261.666 703.17 257.113 702.542 255.571 703.647C253.461 704.086 251.536 704.202 249.384 704.186L249.489 697.117C251.357 696.885 253.264 696.835 255.144 696.726C255.205 694.417 256.015 691.898 255.095 689.711C253.761 688.773 252.859 688.961 251.252 688.89C252.563 688.837 253.625 688.811 254.851 688.269C256.011 686.132 255.61 683.333 255.895 680.872Z"/>
	<path fill="#3A2A71" transform="scale(0.407715 0.407715)" d="M344.117 743.716C359.96 744.639 376.201 743.633 392.103 743.715C418.429 744.821 445.05 743.959 471.41 744.028C501.025 745.091 530.874 744.155 560.515 744.099L624.432 743.998L671.676 744.027L671.695 752.037L727.905 752.078L727.937 759.938L751.458 760.035L751.505 776.003Q767.643 775.883 783.78 776.154C783.934 778.761 783.91 781.412 783.966 784.025C789.292 784.01 794.603 783.964 799.922 784.306L799.942 791.53L815.573 791.585L815.896 800.431L823.863 800.47L823.891 808.002L807.938 808.014L807.95 824.042L784.118 824.074L784.054 840.003L744.088 840.033L744.077 855.004Q720.041 854.854 696.005 855.002L696.009 862.006L632 862.004L631.99 872.03L392.578 871.98C392.662 868.236 392.576 864.473 392.565 860.727C371.083 860.977 349.561 860.72 328.077 860.619L328.04 846.901C312.061 846.462 295.996 846.747 280.012 847.009L280.004 839.698C266.746 840.196 253.336 839.854 240.059 839.922L240.05 831.141C234.553 830.991 229.04 831.07 223.541 831.068L223.527 823.644L216.074 823.933L216.081 815.638L208.091 815.878L208.098 808.02L200.384 807.973L200.431 800.419L208.051 800.333L208.044 791.907L216.303 791.829L216.323 784.089C224.227 783.973 232.14 784.02 240.045 783.987L240.085 776.048L264.289 775.984C264.154 773.363 264.234 770.689 264.222 768.062L288.095 767.837L288.105 760.029L296.141 759.978L296.215 751.552L344.062 751.365L344.117 743.716Z"/>
	<path fill="#242445" transform="scale(0.407715 0.407715)" d="M669.266 760.415C675.458 759.805 681.776 760.05 687.995 759.974C687.989 765.362 687.563 770.642 687.397 776.01L680.19 775.999L680.08 760.467Q674.672 760.562 669.266 760.415Z"/>
	<path fill="#03030A" transform="scale(0.407715 0.407715)" d="M392.103 743.715C418.429 744.821 445.05 743.959 471.41 744.028C501.025 745.091 530.874 744.155 560.515 744.099L624.432 743.998C624.232 749.378 623.951 754.639 624.721 759.996Q646.99 760.551 669.266 760.415Q674.672 760.562 680.08 760.467L680.19 775.999L687.397 776.01L704.035 775.966L704.004 783.999L720.281 783.963L720.478 791.496Q720.301 795.756 720.001 800.01L711.972 800L712.014 807.974L704.066 807.936C693.368 808.45 682.699 808.181 671.995 808.006L672.125 824.037L615.991 824.009L616.07 832.043L407.984 832.011L408.033 824.038C389.375 823.629 370.651 823.953 351.987 824.018L352.034 808.038L319.973 808.014L319.998 800.031L303.998 800.021C303.845 795.347 302.47 788.416 304.742 784.224C306.269 783.267 306.899 783.567 308.659 783.709C309.348 783.598 310.421 783.672 310.86 783.072C312.674 780.601 311.515 771.363 311.399 768.006L319.824 767.973L343.99 768.006L343.988 759.882Q367.997 760.119 392.007 760.007C391.661 754.542 391.605 749.173 392.103 743.715Z"/>
	<path fill="#242445" transform="scale(0.407715 0.407715)" d="M311.399 768.006L319.824 767.973C319.678 773.339 319.776 778.67 319.922 784.033C316.248 784.027 312.276 784.31 308.659 783.709C309.348 783.598 310.421 783.672 310.86 783.072C312.674 780.601 311.515 771.363 311.399 768.006Z"/>
	<path fill="#242445" transform="scale(0.407715 0.407715)" d="M704.001 792.001C709.377 792.233 715.24 792.919 720.478 791.496Q720.301 795.756 720.001 800.01L711.972 800L712.014 807.974L704.066 807.936L704.001 792.001Z"/>
	<path fill="#7158B7" transform="scale(0.407715 0.407715)" d="M457.471 216.071L560.025 216.01L560.105 224.068C573.151 224.053 586.522 223.468 599.525 224.323C599.667 226.594 599.855 228.865 599.824 231.14Q611.835 231.314 623.847 231.361L623.992 239.987L639.502 240.074L639.577 247.779L647.731 247.9C647.822 250.596 647.945 253.296 647.995 255.992C653.486 256.012 659.022 255.96 664.447 256.924L664.541 263.962C666.814 264.17 669.106 264.325 671.365 264.648L671.415 272.002C673.7 271.97 676.086 271.689 678.213 272.63C680.042 274.6 679.546 277.326 679.474 279.828C684.68 279.842 689.875 279.858 695.078 279.658L695.085 288.046C697.864 288.082 700.712 287.989 703.475 288.274C703.525 290.766 703.626 293.268 703.603 295.759L711.037 295.962L711.203 303.736L720.042 303.925C720.152 309.244 720.145 314.594 720.497 319.902L727.589 320.034C727.712 322.402 727.89 324.779 727.867 327.15L735.523 327.182C735.578 332.729 735.768 338.318 735.658 343.861L743.734 343.838L743.937 360.007C746.493 360.072 749.059 360.089 751.612 360.236C751.937 365.305 751.969 370.361 751.999 375.438L760.022 375.529C760.153 383.602 760.729 391.993 760.176 400.03L767.637 400.073L767.78 416.054L775.61 416.208C775.663 424.003 776.275 432.221 775.677 439.969L783.871 439.98C783.484 469.641 784.116 499.327 783.954 528.995L776.87 528.936C776.839 533.592 776.572 538.377 776.925 543.016L767.781 543.063L767.92 567.798L759.937 567.707L759.946 583.599C757.293 583.583 754.621 583.628 751.97 583.543L751.919 599.919L743.999 599.957L743.879 615.785C741.268 615.783 738.628 615.853 736.02 615.763C735.956 618.506 735.978 621.237 735.466 623.941L728.72 624.038L728.522 631.45L720.14 631.587L719.982 648.157L712.111 648.091C712.137 650.307 712.426 652.619 711.451 654.66C709.532 656.439 706.576 656.325 704.079 656.623C704.056 659.047 704.07 661.477 703.99 663.899L695.529 664.105L695.497 671.979L687.848 672.074L687.79 679.99L672.045 680.038L672.007 688.241L664.201 688.505L664.046 695.941L647.812 696.005L647.763 703.902C642.708 703.695 637.658 703.835 632.602 703.937L632.54 712.018L616.045 712.055L615.987 719.987L591.971 719.996L591.838 727.963Q579.956 727.848 568.073 727.97L567.988 735.945L560.081 735.922C560.11 738.668 560.082 741.381 560.515 744.099C530.874 744.155 501.025 745.091 471.41 744.028L471.423 735.731L455.902 735.615L455.604 727.544C442.415 727.558 429.189 727.784 416.004 727.544L415.938 719.691Q403.828 719.811 391.72 719.611L391.432 711.831L375.996 711.794L375.908 703.76Q367.965 703.922 360.024 703.651L359.929 695.603L352.048 695.518L351.983 687.965L336.059 687.87L335.956 679.513L328.007 679.43L327.977 671.48L320.018 671.368L319.971 663.465L312.057 663.511L312.003 655.58C309.386 655.505 306.755 655.486 304.143 655.313L303.952 647.65L296.056 647.576L295.964 640.051L288.264 639.897C287.923 634.59 287.937 629.287 287.921 623.972L279.958 623.88L279.751 615.473C277.186 615.341 274.618 615.173 272.049 615.156L271.964 592.046L264.106 592.005L264.015 575.669L256.141 575.608L256.044 543.964L247.632 543.926L247.46 535.547L240.245 535.475C239.72 523.737 240.032 511.892 240.034 500.142L240.018 440.068L248.077 439.926L248.05 416.111L256.411 415.967L256.359 408.478C253.625 408.384 250.84 408.397 248.121 408.099L247.998 401.004L256.362 400.872C256.338 392.631 256.423 384.376 256.283 376.137L264.039 376.012L264.03 368.041L272.066 367.906C272.017 362.659 271.885 357.398 272.007 352.153C275.003 352.102 278.002 352.018 280.998 352.01Q280.736 344.038 280.555 336.063L288.009 335.918L288.101 328.484C290.754 328.235 293.353 328.024 296.022 328.032L296.052 320.087L304.05 319.937C304.058 314.595 304.108 309.305 304.506 303.973L311.907 303.88L311.975 295.469L320.039 295.15C320.099 292.814 320.081 290.451 320.352 288.128L328.07 287.915L328.124 280.042L342.983 279.932L342.999 272.026L351.446 271.924L351.487 264.065L359.335 263.961Q359.269 259.734 359.322 255.506L375.098 255.155L375.071 248.018L383.882 247.918L383.941 240.083L399.446 239.977L399.522 232.247C407.513 231.886 415.534 232.033 423.532 232.059L423.549 224.152Q440.506 223.96 457.463 224.03L457.471 216.071Z"/>
	<path fill="#3A2A71" transform="scale(0.407715 0.407715)" d="M680.028 352.434L687.577 352.43L687.917 358.973C685.752 357.911 682.386 358.602 680.025 358.842L680.028 352.434Z"/>
	<path fill="#A285DD" transform="scale(0.407715 0.407715)" d="M664.48 337.151C666.93 337.042 669.401 336.692 671.646 337.845C672.645 339.918 672.012 341.303 671.271 343.391C671.164 343.692 671.052 343.991 670.921 344.282L664.438 343.792C664.333 341.565 664.398 339.376 664.48 337.151Z"/>
	<path fill="#03030A" transform="scale(0.407715 0.407715)" d="M624.003 303.984L632.063 303.984L631.953 311.653C630.093 311.642 628.293 311.581 626.461 311.939L623.673 311.989C624.087 309.405 623.945 306.603 624.003 303.984Z"/>
	<path fill="#242445" transform="scale(0.407715 0.407715)" d="M392.035 304.204L399.995 304C400.093 305.703 400.153 307.412 400.372 309.105C400.095 310.365 400.128 311.049 398.86 311.704C397.153 312.584 393.936 312.087 392.048 311.999L392.035 304.204Z"/>
	<path fill="#3A2A71" transform="scale(0.407715 0.407715)" d="M663.553 632.533L664.044 632.39L664.022 647.996L656.322 648.003C655.933 645.401 656.006 642.643 655.914 640.012L663.647 640.039L663.553 632.533Z"/>
	<path fill="#242445" transform="scale(0.407715 0.407715)" d="M680.025 358.842C682.386 358.602 685.752 357.911 687.917 358.973L687.93 368.003L680.295 368.051C679.149 365.272 679.599 362.636 679.966 359.759L680.025 358.842Z"/>
	<path fill="#101333" transform="scale(0.407715 0.407715)" d="M327.948 368.018L335.314 367.984C334.565 372.879 334.866 378.025 335.049 382.959C332.707 383.08 330.309 383.101 327.992 383.467L327.948 368.018Z"/>
	<path fill="#3A2A71" transform="scale(0.407715 0.407715)" d="M600.31 289.399C605.534 289.672 610.771 289.546 616.001 289.495C616.009 293.716 616.164 297.993 615.965 302.208L615.671 302.154C615.515 299.939 615.612 297.679 615.617 295.457C611.058 295.53 604.457 294.887 600.26 296.421L599.856 297.863C599.04 295.477 599.466 291.721 600.31 289.399Z"/>
	<path fill="#101333" transform="scale(0.407715 0.407715)" d="M344.01 359.627C343.984 355.337 342.694 348.149 345.118 344.526C346.185 343.774 347.14 343.328 348.497 343.618C349.823 343.901 350.513 344.627 351.137 345.772C352.769 348.762 351.422 356.252 351.517 359.885C349.061 359.602 346.486 359.688 344.01 359.627Z"/>
	<path fill="#03030A" transform="scale(0.407715 0.407715)" d="M599.856 297.863L600.26 296.421C604.457 294.887 611.058 295.53 615.617 295.457C615.612 297.679 615.515 299.939 615.671 302.154L615.388 304.014Q607.862 304.129 600.336 303.971L600.152 303.639L599.856 297.863Z"/>
	<path fill="#3A2A71" transform="scale(0.407715 0.407715)" d="M592.053 287.931C594.751 287.312 596.962 287.336 599.429 288.765C599.921 289.05 599.938 289.085 600.31 289.399C599.466 291.721 599.04 295.477 599.856 297.863L600.152 303.639C600.09 303.668 600.029 303.699 599.966 303.727C596.638 305.172 595.363 304.671 592.027 303.455C591.928 298.647 592.374 293.72 591.791 288.943L592.053 287.931Z"/>
	<path fill="#242445" transform="scale(0.407715 0.407715)" d="M375.495 312.016L383.983 311.998L383.857 321.029Q383.634 324.45 383.521 327.877C381.27 327.894 377.411 327.422 375.647 328.674L375.519 329.001L375.174 328.406C376.047 323.159 375.541 317.335 375.495 312.016Z"/>
	<path fill="#3A3C6D" transform="scale(0.407715 0.407715)" d="M647.899 640.012L655.914 640.012C656.006 642.643 655.933 645.401 656.322 648.003C656.827 650.652 657.187 653.262 657.464 655.943C651.709 656.078 645.799 656.918 640.072 656.563L640.116 656L647.998 656.178L647.899 640.012Z"/>
	<path fill="#03030A" transform="scale(0.407715 0.407715)" d="M647.177 631.979C652.366 631.975 658.51 631.346 663.553 632.533L663.647 640.039L655.914 640.012L647.899 640.012L647.998 656.178L640.116 656C639.954 650.085 640.326 644.059 640.499 638.14C642.352 638.045 644.439 638.17 646.056 637.18C647.142 635.712 647.05 633.745 647.177 631.979Z"/>
	<path fill="#3A3C6D" transform="scale(0.407715 0.407715)" d="M728.976 447.432L735.047 447.412C735.025 457.736 736.107 514.89 734.191 519.568C732.821 520.128 731.718 520.074 730.276 520.029C729.486 498.755 730.927 476.852 730.55 455.447C730.506 452.947 730.858 449.242 728.976 447.432Z"/>
	<path fill="#3A2A71" transform="scale(0.407715 0.407715)" d="M626.461 311.939C628.293 311.581 630.093 311.642 631.953 311.653C634.755 312.011 637.257 311.795 640.047 311.499L640.02 320.029L648.827 319.99C648.648 322.113 647.959 325.363 649.134 327.199C649.925 327.448 650.559 327.604 651.39 327.715C652.981 327.568 654.481 327.192 655.881 328.134C657.159 330.222 656.524 334.025 656.456 336.491L652.281 336.598C650.479 336.941 649.039 337.079 647.208 336.906C645.204 336.142 643.141 336.926 641.241 336.398C639.839 336.009 639.664 335.252 638.983 334.075C639.108 333.154 639.288 332.167 639.268 331.238C639.238 329.872 638.772 329.294 637.88 328.34C635.929 327.565 633.992 327.841 631.939 327.95L631.604 327.683L631.493 320.313C628.883 320.333 626.146 320.182 623.557 320.495C623.467 317.633 623.388 314.843 623.673 311.989L626.461 311.939Z"/>
	<path fill="#3A3C6D" transform="scale(0.407715 0.407715)" d="M623.673 311.989L626.461 311.939C628.299 312.044 629.682 311.833 631.209 312.954C632.142 315.15 631.45 317.955 631.493 320.313C628.883 320.333 626.146 320.182 623.557 320.495C623.467 317.633 623.388 314.843 623.673 311.989Z"/>
	<path fill="#03030A" transform="scale(0.407715 0.407715)" d="M651.39 327.715C652.981 327.568 654.481 327.192 655.881 328.134C657.159 330.222 656.524 334.025 656.456 336.491L652.281 336.598C651.209 336.662 649.975 336.873 648.974 336.414C648.329 336.118 647.721 334.671 647.52 334.018C647.011 332.361 647.744 329.942 648.715 328.539C649.198 327.842 650.575 327.861 651.39 327.715Z"/>
	<path fill="#242445" transform="scale(0.407715 0.407715)" d="M463.928 269.376C464.098 268.039 463.931 267.934 464.974 267.12C467.689 266.728 470.551 267.232 473.308 267.229L494.159 267.125L535.874 267.018C543.717 266.993 552.11 266.303 559.864 267.488C560.011 271.614 560.272 275.912 559.607 280.004C559.14 277.226 559.468 274.289 559.583 271.482C537.805 271.359 515.978 272.066 494.181 272.091C485.609 272.101 476.461 272.75 467.944 271.915C465.706 271.696 465.259 271.03 463.928 269.376Z"/>
	<path fill="#101333" transform="scale(0.407715 0.407715)" d="M359.51 328.011C364.398 327.972 370.464 327.229 375.174 328.406L375.519 329.001L375.647 328.674C377.411 327.422 381.27 327.894 383.521 327.877C383.873 330.618 383.987 333.209 383.944 335.969L384.052 343.048L383.893 351.157L376.584 351.145L375.76 351.117L375.291 350.623C374.533 348.4 374.837 346.1 375.489 343.894C372.916 343.644 370.65 343.63 368.066 343.866L352.013 343.773L352.03 336.081L359.551 336.05L359.51 328.011Z"/>
	<path fill="#A285DD" transform="scale(0.407715 0.407715)" d="M375.519 329.001L375.647 328.674C377.411 327.422 381.27 327.894 383.521 327.877C383.873 330.618 383.987 333.209 383.944 335.969L376.033 336.001C376.002 338.638 376.129 341.322 375.489 343.894C372.916 343.644 370.65 343.63 368.066 343.866L367.995 336.044C370.624 335.978 373.263 335.684 375.884 335.467L375.519 329.001Z"/>
	<path fill="#3A2A71" transform="scale(0.407715 0.407715)" d="M376.033 336.001L383.944 335.969L384.052 343.048L383.893 351.157L376.584 351.145L375.76 351.117L375.291 350.623C374.533 348.4 374.837 346.1 375.489 343.894C376.129 341.322 376.002 338.638 376.033 336.001Z"/>
	<path fill="#03030A" transform="scale(0.407715 0.407715)" d="M616.553 655.996L640.116 656L640.072 656.563Q639.947 664.304 640.036 672.046L616.081 672.007L616.129 680.504L592.319 680.574C591.856 678.039 592.109 674.968 592.082 672.367C597.672 672.713 603.276 672.161 608.864 671.926L608.947 664.539L616.47 664.561L616.553 655.996Z"/>
	<path fill="#03030A" transform="scale(0.407715 0.407715)" d="M320.05 407.709L320.146 407.926C320.633 421.236 321.466 434.567 320.465 447.868C315.215 448.719 309.021 448.14 303.719 447.746C304.432 434.544 303.849 421.186 303.582 407.972C309.138 408.253 314.541 408.689 320.05 407.709Z"/>
	<path fill="#03030A" transform="scale(0.407715 0.407715)" d="M728.976 447.432C730.858 449.242 730.506 452.947 730.55 455.447C730.927 476.852 729.486 498.755 730.276 520.029L719.869 520C721.023 511.665 720.548 503.671 720.645 495.301C720.83 479.496 721.003 463.829 719.971 448.033C722.982 448.013 725.978 447.692 728.976 447.432Z"/>
	<path fill="#03030A" transform="scale(0.407715 0.407715)" d="M375.973 647.571C381.309 647.881 386.597 647.995 391.94 647.989L391.997 655.886L407.972 656.026L407.944 664.082L415.993 664.191L415.942 672.053L431.967 671.986L432.142 680.034L407.958 680.007L408.006 671.884L392.005 672.012L383.958 672.01L383.988 664.006L376.548 663.947C376.528 661.448 376.355 659.048 376.088 656.565C375.869 653.595 375.978 650.552 375.973 647.571Z"/>
	<path fill="#3A3C6D" transform="scale(0.407715 0.407715)" d="M376.088 656.565Q383.95 656.366 391.809 656.075Q392.036 664.042 392.005 672.012L383.958 672.01L383.988 664.006L376.548 663.947C376.528 661.448 376.355 659.048 376.088 656.565Z"/>
	<path fill="#03030A" transform="scale(0.407715 0.407715)" d="M288.002 447.98L303.35 447.96C304.578 465.791 304.028 485.082 303.916 503.025C303.882 508.472 302.578 514.734 303.487 520.043L288.056 520.018L288.002 447.98Z"/>
	<path fill="#03030A" transform="scale(0.407715 0.407715)" d="M463.928 269.376C465.259 271.03 465.706 271.696 467.944 271.915C476.461 272.75 485.609 272.101 494.181 272.091C515.978 272.066 537.805 271.359 559.583 271.482C559.468 274.289 559.14 277.226 559.607 280.004C570.387 279.995 581.201 280.156 591.976 279.912L592.053 287.931L591.791 288.943C584.565 288.769 577.301 288.992 570.072 289.071C566.515 288.668 562.782 288.881 559.198 288.888C559.148 286.283 559.913 282.924 558.581 280.645C556.975 279.723 555.938 279.912 554.108 279.883C524.291 280.753 494.315 280.075 464.482 279.999L464.471 288.578L464.16 288.963C457.552 288.991 437.49 287.921 432.653 289.933C430.862 293.881 431.832 299.767 432.019 304.071L422.294 303.965C414.875 304.247 407.42 304.057 399.995 304C399.7 298.68 399.788 293.331 399.776 288.004Q415.908 288.165 432.039 287.96L431.994 279.999L464.039 279.978C463.923 276.449 463.954 272.907 463.928 269.376Z"/>
	<path fill="#03030A" transform="scale(0.407715 0.407715)" d="M552.062 680.044C557.264 679.924 589.531 678.677 592.048 680.802C592.013 683.66 591.953 686.519 592.015 689.378C585.576 689.949 563.659 689.163 560.13 690.462C558.585 694.423 559.382 699.795 559.536 704.028L463.603 704.01L463.865 689.025L432.455 689.008C432.757 686.045 432.611 682.918 432.635 679.933C448.408 679.697 464.22 679.932 479.997 679.959L479.985 688.039L551.728 687.992L552.062 680.044Z"/>
	<path fill="#101333" transform="scale(0.407715 0.407715)" d="M554.108 279.883C555.938 279.912 556.975 279.723 558.581 280.645C559.913 282.924 559.148 286.283 559.198 288.888C562.782 288.881 566.515 288.668 570.072 289.071C577.301 288.992 584.565 288.769 591.791 288.943C592.374 293.72 591.928 298.647 592.027 303.455C595.363 304.671 596.638 305.172 599.966 303.727C600.029 303.699 600.09 303.668 600.152 303.639L600.336 303.971Q607.862 304.129 615.388 304.014L615.671 302.154L615.965 302.208L616.389 303.61C618.643 304.461 621.608 304.006 624.003 303.984C623.945 306.603 624.087 309.405 623.673 311.989C623.388 314.843 623.467 317.633 623.557 320.495C626.146 320.182 628.883 320.333 631.493 320.313L631.604 327.683L631.939 327.95C633.992 327.841 635.929 327.565 637.88 328.34C638.772 329.294 639.238 329.872 639.268 331.238C639.288 332.167 639.108 333.154 638.983 334.075C639.664 335.252 639.839 336.009 641.241 336.398C643.141 336.926 645.204 336.142 647.208 336.906C649.039 337.079 650.479 336.941 652.281 336.598L656.456 336.491C658.44 336.45 662.994 335.827 664.48 337.151C664.398 339.376 664.333 341.565 664.438 343.792L670.921 344.282C671.684 344.384 672.714 344.384 673.39 344.738C675.205 344.817 677.22 344.661 678.748 345.75C679.955 347.472 679.84 350.368 680.028 352.434L680.025 358.842L679.966 359.759C679.599 362.636 679.149 365.272 680.295 368.051L687.93 368.003L695.643 367.969C696.305 373.246 695.907 378.71 695.998 384.025C699.138 383.861 702.419 383.509 705.554 383.851C707.629 384.757 709.678 385.442 711.212 387.174C711.479 388.042 711.727 388.877 711.918 389.766C712.42 398.4 712.303 406.865 711.935 415.5C714.179 415.521 716.447 415.473 718.688 415.58L719.547 416.004C720.544 420.741 720.011 426.378 719.923 431.237Q720.025 439.635 719.971 448.033C721.003 463.829 720.83 479.496 720.645 495.301C720.548 503.671 721.023 511.665 719.869 520C717.829 525.36 719.54 553.164 719.544 560.801C716.151 560.824 707.801 559.768 705.207 561.581L704.826 563.557C705.1 570.376 705.011 577.209 705.002 584.033L696.519 584.01L696.548 616.484L680.922 616.486Q680.417 624.287 680.498 632.103C675.04 632.725 669.52 632.206 664.044 632.39L663.553 632.533C658.51 631.346 652.366 631.975 647.177 631.979C647.05 633.745 647.142 635.712 646.056 637.18C644.439 638.17 642.352 638.045 640.499 638.14C640.326 644.059 639.954 650.085 640.116 656L616.553 655.996L616.47 664.561L608.947 664.539L608.864 671.926C603.276 672.161 597.672 672.713 592.082 672.367C592.109 674.968 591.856 678.039 592.319 680.574L592.048 680.802C589.531 678.677 557.264 679.924 552.062 680.044L551.728 687.992L479.985 688.039L479.997 679.959C464.22 679.932 448.408 679.697 432.635 679.933C432.611 682.918 432.757 686.045 432.455 689.008C431.952 686.102 432.159 682.981 432.142 680.034L431.967 671.986L415.942 672.053L415.993 664.191L407.944 664.082L407.972 656.026L391.997 655.886L391.94 647.989C386.597 647.995 381.309 647.881 375.973 647.571L376.082 640.501L360.018 640.504C357.226 640.536 354.433 640.442 351.641 640.376C351.578 638.037 351.875 635.17 350.254 633.285C347.926 630.577 338.825 631.983 335.464 631.97L336.072 624.698C333.306 624.567 330.525 624.543 327.756 624.475L327.985 616.661L328.046 599.463L328.024 576.511L312.969 576.438C312.964 570.975 313.046 565.509 312.564 560.062C309.374 560.266 306.436 560.233 303.259 559.876C304.219 548.231 303.533 536.357 303.565 524.676L303.487 520.043C302.578 514.734 303.882 508.472 303.916 503.025C304.028 485.082 304.578 465.791 303.35 447.96L303.719 447.746C309.021 448.14 315.215 448.719 320.465 447.868C321.466 434.567 320.633 421.236 320.146 407.926L320.05 407.709C319.941 403.05 318.728 387.376 320.401 383.602C322.919 383.456 325.469 383.5 327.992 383.467C330.309 383.101 332.707 383.08 335.049 382.959C334.866 378.025 334.565 372.879 335.314 367.984C335.643 366.529 335.52 365.086 335.561 363.601C335.617 361.549 335.963 360.876 337.465 359.459L344.01 359.627C346.486 359.688 349.061 359.602 351.517 359.885C354.31 359.997 357.216 359.713 360.014 359.585L360.018 352.007L367.999 351.957L368.066 343.866C370.65 343.63 372.916 343.644 375.489 343.894C374.837 346.1 374.533 348.4 375.291 350.623L375.76 351.117L376.584 351.145L383.893 351.157L384.052 343.048L383.944 335.969C383.987 333.209 383.873 330.618 383.521 327.877Q383.634 324.45 383.857 321.029L391.615 320.642C392.155 317.858 391.988 314.832 392.048 311.999C393.936 312.087 397.153 312.584 398.86 311.704C400.128 311.049 400.095 310.365 400.372 309.105C400.153 307.412 400.093 305.703 399.995 304C407.42 304.057 414.875 304.247 422.294 303.965L432.019 304.071C431.832 299.767 430.862 293.881 432.653 289.933C437.49 287.921 457.552 288.991 464.16 288.963L464.471 288.578L464.482 279.999C494.315 280.075 524.291 280.753 554.108 279.883Z"/>
	<path fill="#03030A" transform="scale(0.407715 0.407715)" d="M624.53 455.551L630.514 455.442C630.569 458.287 630.504 461.186 630.833 464.013L624.571 463.68C624.478 460.981 624.54 458.253 624.53 455.551Z"/>
	<path fill="#A285DD" transform="scale(0.407715 0.407715)" d="M657.036 352.928C659.357 352.953 661.686 353.021 664.006 352.988C664.014 355.044 664.365 357.788 663.617 359.702L656.031 359.482C655.989 357.443 655.899 355.404 655.828 353.365L657.036 352.928Z"/>
	<path fill="#7158B7" transform="scale(0.407715 0.407715)" d="M664.006 352.988C666.279 352.892 669.173 352.297 671.107 353.631C671.648 354.664 671.73 355.639 671.894 356.778L671.939 359.787C669.129 359.978 666.423 359.865 663.617 359.702C664.365 357.788 664.014 355.044 664.006 352.988Z"/>
	<path fill="#EBE6ED" transform="scale(0.407715 0.407715)" d="M656.041 503.609L664.005 503.554L663.998 510.532L655.976 510.616L656.041 503.609Z"/>
	<path fill="#242445" transform="scale(0.407715 0.407715)" d="M631.998 471.887C634.287 471.735 637.189 471.131 639.272 472.206C640.257 473.55 640.019 474.533 640.071 476.172C639.977 477.767 640.19 478.483 639.13 479.719C636.852 480.534 634.435 479.912 632.063 479.976L631.973 479.633L631.998 471.887Z"/>
	<path fill="#03030A" transform="scale(0.407715 0.407715)" d="M320.512 567.496L327.959 567.514L328.037 576.02L319.999 575.91C320.031 573.11 320.317 570.29 320.512 567.496Z"/>
	<path fill="#3A2A71" transform="scale(0.407715 0.407715)" d="M664.438 343.792L670.921 344.282C671.684 344.384 672.714 344.384 673.39 344.738L672.254 344.937C670.535 347.411 672.038 353.722 671.894 356.778C671.73 355.639 671.648 354.664 671.107 353.631C669.173 352.297 666.279 352.892 664.006 352.988C661.686 353.021 659.357 352.953 657.036 352.928L656.975 352.623L664.145 352.528L664.438 343.792Z"/>
	<path fill="#3A2A71" transform="scale(0.407715 0.407715)" d="M624.479 447.979C629.095 448.246 633.613 448.548 638.233 448.173C638.505 448.151 638.777 448.136 639.048 448.115L639.537 448.074L639.048 455.008L630.514 455.442L624.53 455.551L624.479 447.979Z"/>
	<path fill="#03030A" transform="scale(0.407715 0.407715)" d="M671.894 356.778C672.038 353.722 670.535 347.411 672.254 344.937L673.39 344.738C675.205 344.817 677.22 344.661 678.748 345.75C679.955 347.472 679.84 350.368 680.028 352.434L680.025 358.842L679.966 359.759C677.4 360.183 674.541 359.86 671.939 359.787L671.894 356.778Z"/>
	<path fill="#03030A" transform="scale(0.407715 0.407715)" d="M360.01 632.274C365.361 632.512 370.68 632.604 376.002 631.897L376.082 640.501L360.018 640.504L360.01 632.274Z"/>
	<path fill="#03030A" transform="scale(0.407715 0.407715)" d="M687.93 368.003L695.643 367.969C695.066 373.229 695.402 378.693 695.506 383.98L688.013 383.916L688.059 376.034L680.625 375.931C680.608 373.291 680.47 370.684 680.295 368.051L687.93 368.003Z"/>
	<path fill="#03030A" transform="scale(0.407715 0.407715)" d="M328.046 599.463C330.416 599.164 333.859 601.435 336.004 602.554L336.039 608.386L343.951 609.128L343.996 616.42C349.342 616.209 354.681 615.984 360.033 615.982L360.144 620.711C360.179 621.949 359.975 622.614 359.393 623.701C358.539 624.002 357.832 624.124 356.929 624.191C352.514 623.812 347.94 624.027 343.504 624.006L343.549 616.649C338.366 616.484 333.169 616.612 327.985 616.661L328.046 599.463Z"/>
	<path fill="#03030A" transform="scale(0.407715 0.407715)" d="M303.565 524.676C303.814 522.814 303.699 521.796 304.914 520.329C307.131 519.436 309.62 519.988 311.961 519.974C311.936 532.446 310.847 548.009 312.564 560.062C309.374 560.266 306.436 560.233 303.259 559.876C304.219 548.231 303.533 536.357 303.565 524.676Z"/>
	<path fill="#3A3C6D" transform="scale(0.407715 0.407715)" d="M327.985 616.661C333.169 616.612 338.366 616.484 343.549 616.649L343.504 624.006C347.94 624.027 352.514 623.812 356.929 624.191C357.816 624.384 359.069 624.374 359.571 625.176C360.71 626.996 360.006 630.162 360.01 632.274L360.018 640.504C357.226 640.536 354.433 640.442 351.641 640.376C351.578 638.037 351.875 635.17 350.254 633.285C347.926 630.577 338.825 631.983 335.464 631.97L336.072 624.698C333.306 624.567 330.525 624.543 327.756 624.475L327.985 616.661Z"/>
	<path fill="#03030A" transform="scale(0.407715 0.407715)" d="M695.998 384.025C699.138 383.861 702.419 383.509 705.554 383.851C707.629 384.757 709.678 385.442 711.212 387.174C711.479 388.042 711.727 388.877 711.918 389.766C712.42 398.4 712.303 406.865 711.935 415.5C714.179 415.521 716.447 415.473 718.688 415.58L719.547 416.004C720.544 420.741 720.011 426.378 719.923 431.237C718.937 436.573 719.437 442.62 719.491 448.048L703.524 447.935C703.248 437.263 703.218 426.719 703.551 416.04L696.033 415.921L695.998 384.025Z"/>
	<path fill="#242445" transform="scale(0.407715 0.407715)" d="M705.554 383.851C707.629 384.757 709.678 385.442 711.212 387.174C711.479 388.042 711.727 388.877 711.918 389.766C712.42 398.4 712.303 406.865 711.935 415.5C714.179 415.521 716.447 415.473 718.688 415.58C713.851 416.254 708.813 415.89 703.939 415.792C703.828 405.592 703.276 395.674 704.164 385.483L705.554 383.851Z"/>
	<path fill="#3A2A71" transform="scale(0.407715 0.407715)" d="M705.554 383.851C707.629 384.757 709.678 385.442 711.212 387.174C711.479 388.042 711.727 388.877 711.918 389.766C709.799 389.842 707.542 390.172 705.542 389.364C704.235 387.975 704.395 387.335 704.164 385.483L705.554 383.851Z"/>
	<path fill="#03030A" transform="scale(0.407715 0.407715)" d="M695.996 559.867C698.352 559.579 701.373 558.778 703.606 559.701C704.84 561.062 704.651 561.765 704.826 563.557C705.1 570.376 705.011 577.209 705.002 584.033L696.519 584.01L696.548 616.484L680.922 616.486Q680.417 624.287 680.498 632.103C675.14 631.479 669.372 631.855 663.963 631.845C663.527 626.404 663.848 620.95 664.045 615.504C669.494 615.865 674.946 615.907 680.405 615.982C679.041 605.701 680.001 594.381 680.091 583.994L688.017 583.983L688.058 575.988L695.988 575.982L695.996 559.867Z"/>
	<path fill="#03030A" transform="scale(0.407715 0.407715)" d="M599.89 455.409L600.261 455.535C605.584 455.501 610.92 455.383 616.241 455.504L616.372 464.067L624.048 463.983C624.04 466.545 623.704 469.591 624.318 472.072L631.998 471.887L631.973 479.633L632.063 479.976C634.435 479.912 636.852 480.534 639.13 479.719C640.19 478.483 639.977 477.767 640.071 476.172C640.289 474.78 640.152 473.118 641.269 472.224C642.823 472.53 644.351 472.489 645.419 473.805C646.321 474.917 646.512 475.95 646.583 477.35C645.817 479.214 644.943 479.764 643.17 480.525C642.258 480.915 641.323 481.26 640.395 481.609C639.151 485.552 639.931 491.304 640.026 495.489L632.015 495.447L632.009 504.008L624.127 503.89C624.094 509.258 623.972 514.642 624.105 520.008L600.11 519.989C600.139 518.068 600.616 514.474 599.071 513.061C597.372 511.508 594.225 511.89 592.056 511.892L592.024 503.942L584.929 503.998C584.104 501.274 584.372 498.354 584.566 495.552L577.032 495.531C576.991 493.021 576.842 490.539 576.658 488.038C576.479 485.208 576.542 482.314 576.499 479.476L576.934 479.595C580.523 480.06 584.095 479.374 587.658 480.045L591.948 480.159L592.003 471.977L592.003 464.015L591.96 455.949C594.614 455.898 597.248 455.641 599.89 455.409Z"/>
	<path fill="#3A2A71" transform="scale(0.407715 0.407715)" d="M576.934 479.595C580.523 480.06 584.095 479.374 587.658 480.045L591.948 480.159C591.973 482.306 591.698 485.034 593.332 486.686C594.918 488.289 597.797 488.391 599.902 488.655L599.944 495.939C605.431 495.919 610.944 496.008 616.427 495.822C616.61 493.278 616.831 490.784 616.655 488.233C619.227 487.787 621.844 487.411 624.395 486.866C627.122 487.481 629.249 487.633 632.013 487.301L631.989 494.995L623.987 494.986L624.073 503.509L592.022 503.5L591.989 495.49L584.566 495.552L577.032 495.531C576.991 493.021 576.842 490.539 576.658 488.038C576.479 485.208 576.542 482.314 576.499 479.476L576.934 479.595Z"/>
	<path fill="#F8E763" transform="scale(0.407715 0.407715)" d="M599.89 455.409L600.261 455.535C605.584 455.501 610.92 455.383 616.241 455.504L616.372 464.067L624.048 463.983C624.04 466.545 623.704 469.591 624.318 472.072L631.998 471.887L631.973 479.633L632.063 479.976L632.013 487.301C629.249 487.633 627.122 487.481 624.395 486.866C621.844 487.411 619.227 487.787 616.655 488.233C616.831 490.784 616.61 493.278 616.427 495.822C610.944 496.008 605.431 495.919 599.944 495.939L599.902 488.655C597.797 488.391 594.918 488.289 593.332 486.686C591.698 485.034 591.973 482.306 591.948 480.159L592.003 471.977L592.003 464.015L591.96 455.949C594.614 455.898 597.248 455.641 599.89 455.409Z"/>
	<path fill="#3A3C6D" transform="scale(0.407715 0.407715)" d="M631.973 479.633L632.063 479.976L632.013 487.301C629.249 487.633 627.122 487.481 624.395 486.866L624.548 480.037C627.072 480.039 629.464 479.907 631.973 479.633Z"/>
	<path fill="#3A3C6D" transform="scale(0.407715 0.407715)" d="M599.89 455.409L600.261 455.535C599.951 458.351 600.046 461.151 600.102 463.977L592.003 464.015L591.96 455.949C594.614 455.898 597.248 455.641 599.89 455.409Z"/>
	<path fill="#242445" transform="scale(0.407715 0.407715)" d="M335.314 367.984C335.643 366.529 335.52 365.086 335.561 363.601C335.617 361.549 335.963 360.876 337.465 359.459L339.338 360.021C339.503 362.046 339.374 364.449 340.663 366.107C341.811 366.588 342.748 366.688 343.973 366.812C348.923 368.8 354.771 368.172 359.993 367.984L360.018 383.993L351.389 383.98L351.484 392.048L359.997 391.989L359.985 400.085L367.983 400.007C367.956 407.84 367.351 416.296 368.507 424.027L383.988 423.981L383.985 440.041L407.997 439.984L407.983 456.068L431.582 455.996L431.983 464.096C434.497 464.093 437.6 463.732 440.027 464.325C442.492 464.269 445.006 463.874 447.461 463.616C447.771 461.03 447.717 458.439 447.719 455.838L455.987 455.954L455.849 447.892C458.648 447.793 461.307 447.739 464.097 448.073L464.433 447.956Q476.084 448.048 487.735 447.919C488.208 450.629 488.536 453.19 488.616 455.948L496.011 455.921L496.063 463.668C498.663 464.248 501.349 464.019 503.997 463.954C505.874 464.164 509.93 463.962 511.419 465.021C511.396 465.319 511.369 465.616 511.349 465.914C511.29 466.797 511.336 467.642 511.91 468.37L512.199 464.261C517.079 463.238 523.898 463.992 528.983 463.984L528.985 479.546L551.013 479.508L551.014 463.919C558.636 464.03 566.821 464.669 574.365 463.731C575.276 462.588 575.24 460.359 575.43 458.874C575.473 457.682 575.326 457.457 576.02 456.432C578.726 455.369 581.634 455.509 584.507 455.424C586.901 455.491 589.332 455.471 591.718 455.662L591.96 455.949L592.003 464.015L592.003 471.977L591.948 480.159L587.658 480.045C584.095 479.374 580.523 480.06 576.934 479.595L576.499 479.476C576.542 482.314 576.479 485.208 576.658 488.038C576.842 490.539 576.991 493.021 577.032 495.531L584.566 495.552C584.372 498.354 584.104 501.274 584.929 503.998C585.565 509.189 584.817 514.793 584.429 519.999L567.989 519.992L567.987 527.943L551.575 527.968L551.602 535.947Q539.802 536.006 528.003 535.825L527.987 543.947L432.004 544.019L432.031 535.414L400.001 535.514L400.007 527.933L392.006 528.041L392.023 519.958L367.48 520.019L367.526 511.996L359.992 512.024L360.112 503.996L343.902 504.019Q343.661 495.76 343.687 487.497L335.556 487.694C335.447 485.174 335.172 482.649 334.961 480.135L327.989 480.303L327.837 471.993L320.415 472.001L320.465 447.868C321.466 434.567 320.633 421.236 320.146 407.926L320.05 407.709C319.941 403.05 318.728 387.376 320.401 383.602C322.919 383.456 325.469 383.5 327.992 383.467C330.309 383.101 332.707 383.08 335.049 382.959C334.866 378.025 334.565 372.879 335.314 367.984Z"/>
	<path fill="#826375" transform="scale(0.407715 0.407715)" d="M592.003 471.977L591.948 480.159L587.658 480.045C584.095 479.374 580.523 480.06 576.934 479.595L576.949 472.241C579.948 471.95 582.993 472.019 586.005 471.986L592.003 471.977Z"/>
	<path fill="#C99878" transform="scale(0.407715 0.407715)" d="M592.003 471.977L591.948 480.159L587.658 480.045L586.506 479.181C585.774 476.938 586.018 474.33 586.005 471.986L592.003 471.977Z"/>
	<path fill="#03030A" transform="scale(0.407715 0.407715)" d="M512.016 471.98L519.993 472.052L520.031 487.01C517.986 487.036 513.742 487.614 512.057 486.471L512.016 471.98Z"/>
	<path fill="#03030A" transform="scale(0.407715 0.407715)" d="M584.507 455.424C586.901 455.491 589.332 455.471 591.718 455.662L591.96 455.949L592.003 464.015C589.48 464.031 587.011 463.882 584.5 463.684C581.992 463.459 578.605 464.583 576.391 463.544C575.285 461.929 575.511 460.803 575.43 458.874C575.473 457.682 575.326 457.457 576.02 456.432C578.726 455.369 581.634 455.509 584.507 455.424Z"/>
	<path fill="#03030A" transform="scale(0.407715 0.407715)" d="M584.507 455.424C586.901 455.491 589.332 455.471 591.718 455.662L591.96 455.949L592.003 464.015C589.48 464.031 587.011 463.882 584.5 463.684L584.507 455.424Z"/>
	<path fill="#03030A" transform="scale(0.407715 0.407715)" d="M567.455 471.971C570.453 471.913 573.459 472.018 576.457 472.071L576.499 479.476C576.542 482.314 576.479 485.208 576.658 488.038L567.35 487.998L567.455 471.971Z"/>
	<path fill="#03030A" transform="scale(0.407715 0.407715)" d="M320.05 407.709C319.941 403.05 318.728 387.376 320.401 383.602C322.967 383.875 325.428 383.96 328.003 383.932L328.028 408.024L320.146 407.926L320.05 407.709Z"/>
	<path fill="#03030A" transform="scale(0.407715 0.407715)" d="M455.849 447.892C458.648 447.793 461.307 447.739 464.097 448.073L464.433 447.956Q476.084 448.048 487.735 447.919C488.208 450.629 488.536 453.19 488.616 455.948L496.011 455.921L496.063 463.668C498.663 464.248 501.349 464.019 503.997 463.954C505.874 464.164 509.93 463.962 511.419 465.021C511.396 465.319 511.369 465.616 511.349 465.914C511.29 466.797 511.336 467.642 511.91 468.37L512.016 471.98L512.057 486.471L511.917 487.163C512.85 490.034 512.537 493.374 512.545 496.365L503.993 496.38L504.023 504.005L496.767 503.997L497.004 512.005L487.973 511.992L488.007 520.014L464.03 519.996L464.006 503.989L447.516 503.994L447.488 495.993L439.538 495.998C439.569 485.574 438.058 474.607 440.027 464.325C442.492 464.269 445.006 463.874 447.461 463.616C447.771 461.03 447.717 458.439 447.719 455.838L455.987 455.954L455.849 447.892Z"/>
	<path fill="#242445" transform="scale(0.407715 0.407715)" d="M447.94 488.043L456.186 487.992L454.817 494.9C452.442 495.35 450.228 496.076 448.09 494.73C447.203 492.757 447.759 490.158 447.94 488.043Z"/>
	<path fill="#3A2A71" transform="scale(0.407715 0.407715)" d="M463.922 495.124C465.245 495.112 466.735 495.185 468.039 494.986C469.557 494.753 470.098 493.923 470.948 492.784C471.891 494.377 472.481 495.22 474.322 495.727C478.254 496.809 482.846 495.854 486.894 496.001C489.962 496.061 492.936 495.789 495.984 495.484L496.013 503.458C485.278 503.043 474.756 502.733 464.033 503.537C463.878 500.738 463.926 497.927 463.922 495.124Z"/>
	<path fill="#3A2A71" transform="scale(0.407715 0.407715)" d="M447.948 463.511L463.917 463.592L464.026 463.849L463.91 471.983L456.026 472.072L456.022 480.402L463.508 480.514L463.565 487.629L463.457 487.993L456.186 487.992L447.94 488.043Q447.846 475.777 447.948 463.511Z"/>
	<path fill="#F8E763" transform="scale(0.407715 0.407715)" d="M464.433 447.956Q476.084 448.048 487.735 447.919C488.208 450.629 488.536 453.19 488.616 455.948L496.011 455.921L496.063 463.668C498.663 464.248 501.349 464.019 503.997 463.954C505.874 464.164 509.93 463.962 511.419 465.021C511.396 465.319 511.369 465.616 511.349 465.914C511.29 466.797 511.336 467.642 511.91 468.37L512.016 471.98L512.057 486.471L511.917 487.163C506.707 487.928 501.272 487.647 496.009 488.005L495.984 495.484C492.936 495.789 489.962 496.061 486.894 496.001C482.846 495.854 478.254 496.809 474.322 495.727C472.481 495.22 471.891 494.377 470.948 492.784C470.098 493.923 469.557 494.753 468.039 494.986C466.735 495.185 465.245 495.112 463.922 495.124C463.903 492.733 463.676 490.372 463.457 487.993L463.565 487.629L463.508 480.514L456.022 480.402L456.026 472.072L463.91 471.983L464.026 463.849L463.917 463.592C464.132 458.442 463.983 453.232 464.097 448.073L464.433 447.956Z"/>
	<path fill="#3A3C6D" transform="scale(0.407715 0.407715)" d="M463.565 487.629C465.609 488.065 468.493 487.973 470.034 489.415C470.536 490.575 470.776 491.532 470.948 492.784C470.098 493.923 469.557 494.753 468.039 494.986C466.735 495.185 465.245 495.112 463.922 495.124C463.903 492.733 463.676 490.372 463.457 487.993L463.565 487.629Z"/>
	<path fill="#826375" transform="scale(0.407715 0.407715)" d="M488.616 455.948L496.011 455.921L496.063 463.668L495.966 463.944L488.966 463.761C488.964 461.152 488.773 458.551 488.616 455.948Z"/>
	<path fill="#3A3C6D" transform="scale(0.407715 0.407715)" d="M488.5 488.525L496.009 488.005L495.984 495.484C492.936 495.789 489.962 496.061 486.894 496.001L488.12 495.432C488.931 493.308 488.568 490.77 488.5 488.525Z"/>
	<path fill="#3A3C6D" transform="scale(0.407715 0.407715)" d="M464.433 447.956Q476.084 448.048 487.735 447.919C488.208 450.629 488.536 453.19 488.616 455.948Q480.233 455.871 471.849 455.9L471.859 463.573C469.361 463.55 466.445 463.226 464.026 463.849L463.917 463.592C464.132 458.442 463.983 453.232 464.097 448.073L464.433 447.956Z"/>
	<path fill="#3A2A71" transform="scale(0.407715 0.407715)" d="M503.997 463.954C505.874 464.164 509.93 463.962 511.419 465.021C511.396 465.319 511.369 465.616 511.349 465.914C511.29 466.797 511.336 467.642 511.91 468.37L512.016 471.98L512.057 486.471L511.917 487.163C506.707 487.928 501.272 487.647 496.009 488.005L496.015 480.012L503.426 480.089L503.518 471.999L496.127 471.929L495.966 463.944L496.063 463.668C498.663 464.248 501.349 464.019 503.997 463.954Z"/>
	<path fill="#3A3C6D" transform="scale(0.407715 0.407715)" d="M554.108 279.883C555.938 279.912 556.975 279.723 558.581 280.645C559.913 282.924 559.148 286.283 559.198 288.888C562.782 288.881 566.515 288.668 570.072 289.071C577.301 288.992 584.565 288.769 591.791 288.943C592.374 293.72 591.928 298.647 592.027 303.455C595.363 304.671 596.638 305.172 599.966 303.727C600.029 303.699 600.09 303.668 600.152 303.639L600.336 303.971Q607.862 304.129 615.388 304.014L615.671 302.154L615.965 302.208L616.389 303.61C618.643 304.461 621.608 304.006 624.003 303.984C623.945 306.603 624.087 309.405 623.673 311.989C623.388 314.843 623.467 317.633 623.557 320.495C626.146 320.182 628.883 320.333 631.493 320.313L631.604 327.683L631.939 327.95C633.992 327.841 635.929 327.565 637.88 328.34C638.772 329.294 639.238 329.872 639.268 331.238C639.288 332.167 639.108 333.154 638.983 334.075C639.664 335.252 639.839 336.009 641.241 336.398C643.141 336.926 645.204 336.142 647.208 336.906C649.039 337.079 650.479 336.941 652.281 336.598L656.456 336.491C658.44 336.45 662.994 335.827 664.48 337.151C664.398 339.376 664.333 341.565 664.438 343.792L664.145 352.528L656.975 352.623L657.036 352.928L655.828 353.365C655.899 355.404 655.989 357.443 656.031 359.482L656.057 375.992L664.075 376.011L664.033 416.004L656.008 416.006L655.956 440L648.518 439.97L647.979 448.007L639.537 448.074L639.048 448.115C638.777 448.136 638.505 448.151 638.233 448.173C633.613 448.548 629.095 448.246 624.479 447.979L624.53 455.551C624.54 458.253 624.478 460.981 624.571 463.68C624.582 466.466 624.737 469.312 624.318 472.072C623.704 469.591 624.04 466.545 624.048 463.983L616.372 464.067L616.241 455.504C610.92 455.383 605.584 455.501 600.261 455.535L599.89 455.409C597.248 455.641 594.614 455.898 591.96 455.949L591.718 455.662C589.332 455.471 586.901 455.491 584.507 455.424C581.634 455.509 578.726 455.369 576.02 456.432C575.326 457.457 575.473 457.682 575.43 458.874C575.24 460.359 575.276 462.588 574.365 463.731C566.821 464.669 558.636 464.03 551.014 463.919L551.013 479.508L528.985 479.546L528.983 463.984C523.898 463.992 517.079 463.238 512.199 464.261L511.91 468.37C511.336 467.642 511.29 466.797 511.349 465.914C511.369 465.616 511.396 465.319 511.419 465.021C509.93 463.962 505.874 464.164 503.997 463.954C501.349 464.019 498.663 464.248 496.063 463.668L496.011 455.921L488.616 455.948C488.536 453.19 488.208 450.629 487.735 447.919Q476.084 448.048 464.433 447.956L464.097 448.073C461.307 447.739 458.648 447.793 455.849 447.892L455.987 455.954L447.719 455.838C447.717 458.439 447.771 461.03 447.461 463.616C445.006 463.874 442.492 464.269 440.027 464.325C437.6 463.732 434.497 464.093 431.983 464.096L431.582 455.996L407.983 456.068L407.997 439.984L383.985 440.041L383.988 423.981L368.507 424.027C367.351 416.296 367.956 407.84 367.983 400.007L359.985 400.085L359.997 391.989L351.484 392.048L351.389 383.98L360.018 383.993L359.993 367.984C354.771 368.172 348.923 368.8 343.973 366.812C342.748 366.688 341.811 366.588 340.663 366.107C339.374 364.449 339.503 362.046 339.338 360.021L337.465 359.459L344.01 359.627C346.486 359.688 349.061 359.602 351.517 359.885C354.31 359.997 357.216 359.713 360.014 359.585L360.018 352.007L367.999 351.957L368.066 343.866C370.65 343.63 372.916 343.644 375.489 343.894C374.837 346.1 374.533 348.4 375.291 350.623L375.76 351.117L376.584 351.145L383.893 351.157L384.052 343.048L383.944 335.969C383.987 333.209 383.873 330.618 383.521 327.877Q383.634 324.45 383.857 321.029L391.615 320.642C392.155 317.858 391.988 314.832 392.048 311.999C393.936 312.087 397.153 312.584 398.86 311.704C400.128 311.049 400.095 310.365 400.372 309.105C400.153 307.412 400.093 305.703 399.995 304C407.42 304.057 414.875 304.247 422.294 303.965L432.019 304.071C431.832 299.767 430.862 293.881 432.653 289.933C437.49 287.921 457.552 288.991 464.16 288.963L464.471 288.578L464.482 279.999C494.315 280.075 524.291 280.753 554.108 279.883Z"/>
	<path fill="#101333" transform="scale(0.407715 0.407715)" d="M339.338 360.021C341.067 360.033 342.196 359.786 343.689 360.7C344.445 362.5 344.053 364.887 343.973 366.812C342.748 366.688 341.811 366.588 340.663 366.107C339.374 364.449 339.503 362.046 339.338 360.021Z"/>
	<path fill="#242445" transform="scale(0.407715 0.407715)" d="M591.989 438.977L599.531 438.977L599.48 444.483L591.965 444.672L591.989 438.977Z"/>
	<path fill="#7158B7" transform="scale(0.407715 0.407715)" d="M624.91 392.897Q628.444 392.828 631.973 392.62C631.119 395 631.504 397.997 631.531 400.509L624.395 400.447L624.548 393.066L624.91 392.897Z"/>
	<path fill="#3A2A71" transform="scale(0.407715 0.407715)" d="M383.857 321.029L391.615 320.642L391.484 327.772L383.521 327.877Q383.634 324.45 383.857 321.029Z"/>
	<path fill="#9BB7E9" transform="scale(0.407715 0.407715)" d="M631.939 327.95C633.992 327.841 635.929 327.565 637.88 328.34C638.772 329.294 639.238 329.872 639.268 331.238C639.288 332.167 639.108 333.154 638.983 334.075C638.46 335.092 638.106 335.572 637.008 335.912C635.273 336.449 633.7 336.692 632.04 335.823C631.149 333.917 631.84 330.094 631.939 327.95Z"/>
	<path fill="#A285DD" transform="scale(0.407715 0.407715)" d="M623.557 320.495C626.146 320.182 628.883 320.333 631.493 320.313L631.604 327.683C629.157 328.083 626.498 327.954 624.015 328.016L623.557 320.495Z"/>
	<path fill="#826375" transform="scale(0.407715 0.407715)" d="M375.981 376.486C378.516 376.511 381.087 376.631 383.616 376.481C384.21 378.814 384.086 381.222 384.098 383.615L384.011 383.906L375.996 384.025L375.981 376.486Z"/>
	<path fill="#7158B7" transform="scale(0.407715 0.407715)" d="M639.881 376.067L647.453 376.018L647.403 383.989L639.953 384.027C639.824 381.391 639.896 378.708 639.881 376.067Z"/>
	<path fill="#826375" transform="scale(0.407715 0.407715)" d="M367.928 368.502L375.43 368.499C375.563 371.164 375.644 373.837 375.981 376.486L367.961 376.502L367.928 368.502Z"/>
	<path fill="#826375" transform="scale(0.407715 0.407715)" d="M384.098 383.615C386.561 383.94 388.952 383.75 391.418 383.595L391.528 383.907L391.51 391.989L383.967 392.022L384.011 383.906L384.098 383.615Z"/>
	<path fill="#03030A" transform="scale(0.407715 0.407715)" d="M496.011 455.921L504.01 455.885L503.997 463.954C501.349 464.019 498.663 464.248 496.063 463.668L496.011 455.921Z"/>
	<path fill="#A06C9F" transform="scale(0.407715 0.407715)" d="M399.982 359.934C402.649 359.917 405.344 359.971 408.006 359.852L408.005 367.987L399.969 368L399.982 359.934Z"/>
	<path fill="#A06C9F" transform="scale(0.407715 0.407715)" d="M375.76 351.117L376.584 351.145C379.023 351.366 381.386 351.501 383.839 351.47Q383.498 355.479 383.451 359.502L375.88 359.542L375.557 359.427C375.498 356.639 375.373 353.888 375.76 351.117Z"/>
	<defs>
		<linearGradient id="gradient_0" gradientUnits="userSpaceOnUse" x1="595.40985" y1="454.63864" x2="595.87506" y2="444.87491">
			<stop offset="0" stop-color="#1A171F"/>
			<stop offset="1" stop-color="#13142F"/>
		</linearGradient>
	</defs>
	<path fill="url(#gradient_0)" transform="scale(0.407715 0.407715)" d="M599.48 444.483L600.14 448.494C599.87 450.853 599.685 453.026 599.89 455.409C597.248 455.641 594.614 455.898 591.96 455.949L591.718 455.662C592.293 452.103 592.005 448.28 591.965 444.672L599.48 444.483Z"/>
	<path fill="#9BB7E9" transform="scale(0.407715 0.407715)" d="M600.336 303.971Q607.862 304.129 615.388 304.014C615.478 306.655 615.433 309.374 615.773 311.992L600.577 312.018C600.329 309.317 599.99 306.677 600.336 303.971Z"/>
	<path fill="#9BB7E9" transform="scale(0.407715 0.407715)" d="M560.523 352.013L576.369 351.989L576.244 359.871L560.573 359.515L560.523 352.013Z"/>
	<path fill="#A06C9F" transform="scale(0.407715 0.407715)" d="M632.016 376.037L639.881 376.067C639.896 378.708 639.824 381.391 639.953 384.027L640.066 391.904L631.973 392.62C632.825 390.232 632.529 387.503 632.505 384.993C632.525 381.965 632.339 379.048 632.016 376.037Z"/>
	<path fill="#C08F97" transform="scale(0.407715 0.407715)" d="M375.557 359.427L375.88 359.542C375.374 362.529 375.523 365.44 375.63 368.452L382.339 368.433C382.455 371.168 382.36 373.977 383.616 376.481C381.087 376.631 378.516 376.511 375.981 376.486C375.644 373.837 375.563 371.164 375.43 368.499L367.928 368.502C367.721 365.54 367.692 362.57 367.629 359.602C370.271 359.574 372.915 359.487 375.557 359.427Z"/>
	<path fill="#3A2A71" transform="scale(0.407715 0.407715)" d="M615.671 302.154L615.965 302.208L616.389 303.61C618.643 304.461 621.608 304.006 624.003 303.984C623.945 306.603 624.087 309.405 623.673 311.989C623.388 314.843 623.467 317.633 623.557 320.495C621.605 320.646 619.808 320.961 618.026 320.027C616.17 318.156 616.137 314.527 615.773 311.992C615.433 309.374 615.478 306.655 615.388 304.014L615.671 302.154Z"/>
	<path fill="#826375" transform="scale(0.407715 0.407715)" d="M399.969 368L408.005 367.987L408.019 375.946L400.002 376.031L400.011 383.559L391.528 383.907L391.418 383.595L391.787 376.015L399.966 375.998L399.969 368Z"/>
	<path fill="#826375" transform="scale(0.407715 0.407715)" d="M384.052 343.048C386.692 342.942 389.377 342.931 392.001 342.625L392.015 351.065L400.011 351.004L399.988 359.552C402.63 359.558 405.403 359.376 408.006 359.852C405.344 359.971 402.649 359.917 399.982 359.934L391.995 359.939L391.965 351.347C389.192 351.118 386.603 351.249 383.839 351.47C381.386 351.501 379.023 351.366 376.584 351.145L383.893 351.157L384.052 343.048Z"/>
	<path fill="#A285DD" transform="scale(0.407715 0.407715)" d="M400.372 309.105C401.18 311.815 401.622 317.783 400.784 320.442C400.035 322.827 400.297 325.523 400.307 328.005C397.503 327.993 394.231 328.261 391.484 327.772L391.615 320.642C392.155 317.858 391.988 314.832 392.048 311.999C393.936 312.087 397.153 312.584 398.86 311.704C400.128 311.049 400.095 310.365 400.372 309.105Z"/>
	<path fill="#03030A" transform="scale(0.407715 0.407715)" d="M463.972 439.492L487.498 439.444C487.533 442.209 487.369 445.188 487.735 447.919Q476.084 448.048 464.433 447.956C463.631 445.309 463.913 442.244 463.972 439.492Z"/>
	<path fill="#9BB7E9" transform="scale(0.407715 0.407715)" d="M399.995 304C407.42 304.057 414.875 304.247 422.294 303.965C423.083 304.354 423.579 304.32 423.851 305.226C424.45 307.227 424.051 309.944 424.024 312.04L407.852 312.001L407.955 320.399L400.784 320.442C401.622 317.783 401.18 311.815 400.372 309.105C400.153 307.412 400.093 305.703 399.995 304Z"/>
	<path fill="#9BB7E9" transform="scale(0.407715 0.407715)" d="M570.072 289.071C577.301 288.992 584.565 288.769 591.791 288.943C592.374 293.72 591.928 298.647 592.027 303.455L583.51 303.416L583.563 295.94L559.991 296.032L559.908 289.347C563.311 289.357 566.68 289.368 570.072 289.071Z"/>
	<path fill="#242445" transform="scale(0.407715 0.407715)" d="M656.456 336.491C658.44 336.45 662.994 335.827 664.48 337.151C664.398 339.376 664.333 341.565 664.438 343.792L664.145 352.528L656.975 352.623L657.036 352.928L655.828 353.365C655.533 355.19 655.833 356.845 654.826 358.504C653.132 359.51 650.437 359.04 648.505 358.966C648.631 353.774 648.739 349.059 647.378 344.017C647.052 341.617 647.123 339.314 647.208 336.906C649.039 337.079 650.479 336.941 652.281 336.598L656.456 336.491Z"/>
	<path fill="#7158B7" transform="scale(0.407715 0.407715)" d="M656.456 336.491L656.443 339.437C656.187 341.281 656.332 342.412 655.066 343.817C652.773 344.776 649.832 344.059 647.378 344.017C647.052 341.617 647.123 339.314 647.208 336.906C649.039 337.079 650.479 336.941 652.281 336.598L656.456 336.491Z"/>
	<path fill="#03030A" transform="scale(0.407715 0.407715)" d="M656.456 336.491C658.44 336.45 662.994 335.827 664.48 337.151C664.398 339.376 664.333 341.565 664.438 343.792L664.145 352.528L656.975 352.623C654.891 348.706 656.788 343.724 656.443 339.437L656.456 336.491Z"/>
	<path fill="#A06C9F" transform="scale(0.407715 0.407715)" d="M623.989 368.01L631.988 367.995L632.016 376.037C632.339 379.048 632.525 381.965 632.505 384.993C632.529 387.503 632.825 390.232 631.973 392.62Q628.444 392.828 624.91 392.897L624.548 393.066C621.544 392.934 618.497 393.019 615.488 393.002Q615.397 384.526 615.205 376.051L624.419 375.938L623.989 368.01Z"/>
	<path fill="#EBE6ED" transform="scale(0.407715 0.407715)" d="M624.512 375.94L632.016 376.037C632.339 379.048 632.525 381.965 632.505 384.993C632.529 387.503 632.825 390.232 631.973 392.62Q628.444 392.828 624.91 392.897C624.117 390.778 624.473 387.912 624.486 385.655L624.512 375.94Z"/>
	<path fill="#FEDAD5" transform="scale(0.407715 0.407715)" d="M624.486 385.655C627.179 385.555 629.828 385.286 632.505 384.993C632.529 387.503 632.825 390.232 631.973 392.62Q628.444 392.828 624.91 392.897C624.117 390.778 624.473 387.912 624.486 385.655Z"/>
	<path fill="#9BB7E9" transform="scale(0.407715 0.407715)" d="M432.019 304.071C431.832 299.767 430.862 293.881 432.653 289.933C437.49 287.921 457.552 288.991 464.16 288.963L464.005 296.094L448.212 296.008L448.155 304.007L432.019 304.071Z"/>
	<path fill="#C08F97" transform="scale(0.407715 0.407715)" d="M383.839 351.47C386.603 351.249 389.192 351.118 391.965 351.347L391.995 359.939L399.982 359.934L399.969 368L399.966 375.998L391.787 376.015L391.418 383.595C388.952 383.75 386.561 383.94 384.098 383.615C384.086 381.222 384.21 378.814 383.616 376.481C382.36 373.977 382.455 371.168 382.339 368.433L375.63 368.452C375.523 365.44 375.374 362.529 375.88 359.542L383.451 359.502Q383.498 355.479 383.839 351.47Z"/>
	<path fill="#FEFACB" transform="scale(0.407715 0.407715)" d="M383.451 359.502C386.271 359.566 389.117 359.561 391.931 359.732C392.001 365.168 392.062 370.583 391.855 376.018C389.134 376.153 386.32 376.169 383.616 376.481C382.36 373.977 382.455 371.168 382.339 368.433L375.63 368.452C375.523 365.44 375.374 362.529 375.88 359.542L383.451 359.502Z"/>
	<path fill="#242445" transform="scale(0.407715 0.407715)" d="M607.163 432.493C612.802 432.435 618.408 432.335 624.038 431.983L624.479 447.979L624.53 455.551C624.54 458.253 624.478 460.981 624.571 463.68C624.582 466.466 624.737 469.312 624.318 472.072C623.704 469.591 624.04 466.545 624.048 463.983L616.372 464.067L616.241 455.504C610.92 455.383 605.584 455.501 600.261 455.535L599.89 455.409C599.685 453.026 599.87 450.853 600.14 448.494L599.48 444.483L599.531 438.977L606.37 439.13C606.645 436.922 606.972 434.709 607.163 432.493Z"/>
	<path fill="#826375" transform="scale(0.407715 0.407715)" d="M616.241 455.504L624.036 455.509L624.048 463.983L616.372 464.067L616.241 455.504Z"/>
	<path fill="#03030A" transform="scale(0.407715 0.407715)" d="M599.531 438.977L606.37 439.13C609.297 439.308 612.113 439.362 615.042 439.199L615.005 448.526L600.14 448.494L599.48 444.483L599.531 438.977Z"/>
	<path fill="#A285DD" transform="scale(0.407715 0.407715)" d="M464.482 279.999C494.315 280.075 524.291 280.753 554.108 279.883L554.013 288.627C542.43 288.099 530.858 288.53 519.269 288.579L464.471 288.578L464.482 279.999Z"/>
	<path fill="#70718F" transform="scale(0.407715 0.407715)" d="M464.029 304.086C485.297 303.839 506.74 303.298 527.983 304.491L527.859 311.56L536.036 311.462L536.015 319.509L543.996 319.503L544.015 335.998L527.987 336.003L527.993 343.957L519.75 343.998L511.473 344.008L511.503 351.997L471.966 352.018L471.875 343.993L456.522 344.004C456.167 341.191 456.099 338.352 455.982 335.521L448.001 335.086L448 312.567L464.012 312.604L464.029 304.086Z"/>
</svg>
