<svg width="511" height="521" viewBox="0 0 511 521" fill="none" xmlns="http://www.w3.org/2000/svg">
<path d="M124.266 363.4C126.866 365.841 136.738 374.728 137.815 377.212C134.708 380.996 130.6 384.485 127.132 387.977C113.03 402.172 106.983 408.151 86.8276 415.395C89.9786 399.712 99.7078 387.946 110.682 377.001L124.266 363.4Z" fill="#FE9F02"/>
<path d="M386.801 363.4C395.301 371.025 413.288 386.957 417.717 396.328C420.517 402.251 421.711 408.79 424.472 414.683C406.937 409.673 400.626 404.201 388.564 392.382C383.456 387.377 377.957 382.496 373.148 377.212C374.272 375.667 375.997 374.238 377.353 372.869L386.801 363.4Z" fill="#FE9F02"/>
<path d="M424.472 127.287C420.654 147.4 409.718 156.735 396.311 170.036C393.084 173.237 389.32 176.401 386.801 180.202C383.003 174.903 376.642 170.711 373.148 165.427C375.202 162.479 379.821 158.543 382.533 155.828C397.221 141.121 403.686 135.077 424.472 127.287Z" fill="#FE9F02"/>
<path d="M86.1174 127.287C92.3233 128.426 105.939 136.325 110.755 139.958C115.59 143.606 119.673 148.269 123.92 152.565L137.815 166.374C133.215 170.749 128.157 175.195 124.267 180.202C120.464 177.113 116.682 172.626 113.059 169.146C97.1161 153.831 91.8073 149.004 86.1174 127.287Z" fill="#FE9F02"/>
<path d="M357.759 335.715C359.852 337.096 372.17 349.687 374.479 352.378C378.321 348.94 383.84 341.079 389.299 341.416C393.855 341.698 397.518 346.175 397.019 350.692C396.491 355.482 389.756 359.762 386.801 363.401L377.353 372.87C375.997 374.239 374.272 375.668 373.148 377.213C369.24 380.98 365.149 386.741 359.211 386.833C352.801 386.93 348.857 379.732 352.372 374.285C354.089 371.623 359.525 367.166 362.009 364.757C358.132 361.471 349.897 353.667 347.077 349.677C347.158 348.029 355.344 337.823 357.759 335.715Z" fill="#0B0603"/>
<path d="M362.009 178.971C358.825 175.92 352.034 170.47 351.185 166.131C350.293 161.577 353.726 157.004 358.25 156.324C364.777 155.345 368.268 161.824 372.834 165.199L373.148 165.428C376.642 170.712 383.003 174.904 386.801 180.203C409.016 196.378 390.921 206.057 383.384 199.797C380.233 197.179 377.374 193.904 374.479 190.992C368.908 196.6 363.45 202.422 357.759 207.895C355.594 205.941 349.449 196.865 347.077 193.944C349.622 190.396 358.451 182.79 362.009 178.971Z" fill="#0B0603"/>
<path d="M154.111 335.715C156.82 341.198 160.867 345.183 164.788 349.677C159.981 353.257 153.646 359.814 150.242 364.757C169.808 375.494 156.771 392.212 146.538 384.976C143.342 382.716 141.141 379.394 137.815 377.213C136.738 374.728 126.866 365.842 124.266 363.401C120.628 359.67 114.553 356.046 114.229 350.366C113.85 343.704 121.065 339.544 126.928 342.478C130.088 344.059 135.126 349.748 137.815 352.378C141.706 347.49 149.503 339.826 154.111 335.715Z" fill="#0B0603"/>
<path d="M137.815 166.374C141.091 163.077 146.124 156.466 151.067 156.548C155.84 156.628 160.025 160.976 159.687 165.794C159.295 171.376 152.478 174.178 150.242 178.97C155.125 183.887 160.254 188.707 164.788 193.943C161.282 198.005 157.179 204.703 154.111 207.894C149.172 202.305 142.554 196.253 137.12 190.991C133.65 193.702 131.063 197.365 127.72 200.178C119.742 206.892 103.47 194.952 124.266 180.202C128.157 175.195 133.215 170.749 137.815 166.374Z" fill="#0B0603"/>
<path d="M164.788 193.944C204.943 144.317 281.274 138.197 330.569 178.275C336.385 183.004 342.322 188.12 347.077 193.944C349.449 196.865 355.594 205.94 357.759 207.894C358.857 210.828 360.765 213.331 362.207 216.09C380.097 250.337 381.471 294.051 361.911 327.965C360.445 330.508 358.815 332.965 357.759 335.714C355.344 337.822 347.158 348.028 347.077 349.677C344.388 351.045 337.98 358.63 334.972 361.302C289.66 401.557 218.91 399.934 174.212 359.935C170.896 356.967 167.034 353.531 164.788 349.677C160.867 345.182 156.82 341.197 154.111 335.714C129.729 299.653 129.029 243.836 154.111 207.894C157.179 204.703 161.282 198.005 164.788 193.944ZM252.942 168.378C246.662 168.801 240.364 169.339 234.194 170.642C184.39 181.165 148.959 227.827 152.46 278.679C156.272 334.017 203.527 377.455 259.266 374.681C292.165 372.161 321.399 358.045 340.788 330.458C390.197 260.161 336.425 167.297 252.942 168.378Z" fill="#CD5602"/>
<path d="M249.161 182.613C254.374 182.572 259.649 182.434 264.848 182.908C304.587 186.535 338.323 219.267 344.267 258.555C351.471 306.179 319.893 348.958 273.381 358.933C269.726 359.717 265.942 360.087 262.244 360.643C257.846 360.727 253.433 360.864 249.043 360.493C206.955 356.921 171.12 323.134 167.019 280.661C162.123 229.954 198.908 187.413 249.161 182.613Z" fill="#FE9F02"/>
<path d="M211.34 296.847C220.064 296.193 222.253 307.665 212.852 311.228C203.05 310.443 202.006 298.864 211.34 296.847Z" fill="#CD5602"/>
<path d="M252.089 267.277C263.42 266.255 266.267 282.376 255.192 284.725C242.522 285.924 240.395 270.209 252.089 267.277Z" fill="#CD5602"/>
<path d="M306.542 246.089C320.582 245.333 322.879 263.605 309.965 266.586C296.111 268.913 292.567 248.849 306.542 246.089Z" fill="#CD5602"/>
<path d="M295.031 283.841C312.327 282.811 314.516 308.519 296.574 310.151C280.17 311.342 276.473 285.661 295.031 283.841Z" fill="#CD5602"/>
<path d="M203.046 248.551C221.71 247.23 224.347 274.096 206.466 276.131C203.272 276.758 199.093 275.221 196.514 273.391C185.982 265.918 190.967 250.483 203.046 248.551Z" fill="#CD5602"/>
<path d="M255.849 311.229C258.847 312.033 260.237 317.365 261.681 319.81C275.974 316.513 272.557 319.649 266.865 328.724C272.461 337.553 275.795 340.074 261.681 337.905C259.82 340.28 258.704 345.716 255.849 346.777C253.205 345.476 251.695 340.524 250.477 337.905C238.531 338.42 236.775 340.106 244.844 328.724C239.937 320.447 234.514 315.422 250.477 319.81C251.797 316.639 252.915 313.265 255.849 311.229Z" fill="#0B0603"/>
<path d="M255.192 202.234C259.901 202.564 260.959 211.298 262.976 215.604C265.49 215.043 275.226 212.377 277.031 213.639C281.926 217.06 271.954 225.33 269.891 227.989C272.507 231.802 277.112 234.82 278.909 239.058C276.804 245.87 268.893 241.877 262.976 240.515C261.408 244.423 260.652 251.519 256.743 253.768C251.486 254.36 250.058 244.165 248.634 240.515C244.774 240.842 233.575 245.171 233.198 239.277C233.061 237.124 240.012 230.073 241.625 227.989C240.093 225.715 229.41 216.27 234.348 213.547C236.73 212.233 245.762 214.872 248.634 215.604C249.753 212.063 250.974 203.419 255.192 202.234Z" fill="#0B0603"/>
<path d="M46.455 71.28C46.7963 72.6453 46.967 74.352 46.967 76.4C46.967 78.3627 46.7963 80.0693 46.455 81.52C46.7963 82.8853 46.967 84.592 46.967 86.64C46.967 88.6027 46.7963 90.3093 46.455 91.76H41.335C41.6763 93.1253 41.847 94.832 41.847 96.88C41.847 98.8427 41.6763 100.549 41.335 102H10.615C10.2737 100.549 10.103 98.8427 10.103 96.88C10.103 94.832 10.2737 93.1253 10.615 91.76H5.495C5.15367 90.3093 4.983 88.6027 4.983 86.64C4.983 84.592 5.15367 82.8853 5.495 81.52H15.735C16.0763 82.8853 16.247 84.592 16.247 86.64C16.247 88.6027 16.0763 90.3093 15.735 91.76H36.215C35.8737 90.3093 35.703 88.6027 35.703 86.64C35.703 84.592 35.8737 82.8853 36.215 81.52C35.8737 80.0693 35.703 78.3627 35.703 76.4C35.703 74.352 35.8737 72.6453 36.215 71.28H10.615C10.2737 69.8293 10.103 68.1227 10.103 66.16C10.103 64.112 10.2737 62.4053 10.615 61.04H5.495C5.15367 59.5893 4.983 57.8827 4.983 55.92C4.983 53.872 5.15367 52.1653 5.495 50.8C5.15367 49.3493 4.983 47.6427 4.983 45.68C4.983 43.632 5.15367 41.9253 5.495 40.56H10.615C10.2737 39.1093 10.103 37.4027 10.103 35.44C10.103 33.392 10.2737 31.6853 10.615 30.32H41.335C41.6763 31.6853 41.847 33.392 41.847 35.44C41.847 37.4027 41.6763 39.1093 41.335 40.56H46.455C46.7963 41.9253 46.967 43.632 46.967 45.68C46.967 47.6427 46.7963 49.3493 46.455 50.8H36.215C35.8737 49.3493 35.703 47.6427 35.703 45.68C35.703 43.632 35.8737 41.9253 36.215 40.56H15.735C16.0763 41.9253 16.247 43.632 16.247 45.68C16.247 47.6427 16.0763 49.3493 15.735 50.8C16.0763 52.1653 16.247 53.872 16.247 55.92C16.247 57.8827 16.0763 59.5893 15.735 61.04H41.335C41.6763 62.4053 41.847 64.112 41.847 66.16C41.847 68.1227 41.6763 69.8293 41.335 71.28H46.455ZM67.247 55.92C67.247 57.8827 67.0763 59.5893 66.735 61.04H70.575C70.9163 62.4053 71.087 64.112 71.087 66.16C71.087 68.1227 70.9163 69.8293 70.575 71.28H66.735C67.0763 72.6453 67.247 74.352 67.247 76.4C67.247 78.3627 67.0763 80.0693 66.735 81.52C67.0763 82.8853 67.247 84.592 67.247 86.64C67.247 88.6027 67.0763 90.3093 66.735 91.76C67.0763 93.1253 67.247 94.832 67.247 96.88C67.247 98.8427 67.0763 100.549 66.735 102H56.495C56.1537 100.549 55.983 98.8427 55.983 96.88C55.983 94.832 56.1537 93.1253 56.495 91.76C56.1537 90.3093 55.983 88.6027 55.983 86.64C55.983 84.592 56.1537 82.8853 56.495 81.52C56.1537 80.0693 55.983 78.3627 55.983 76.4C55.983 74.352 56.1537 72.6453 56.495 71.28C56.1537 69.8293 55.983 68.1227 55.983 66.16C55.983 64.112 56.1537 62.4053 56.495 61.04C56.1537 59.5893 55.983 57.8827 55.983 55.92C55.983 53.872 56.1537 52.1653 56.495 50.8C56.1537 49.3493 55.983 47.6427 55.983 45.68C55.983 43.632 56.1537 41.9253 56.495 40.56C56.1537 39.1093 55.983 37.4027 55.983 35.44C55.983 33.392 56.1537 31.6853 56.495 30.32H66.735C67.0763 31.6853 67.247 33.392 67.247 35.44C67.247 37.4027 67.0763 39.1093 66.735 40.56C67.0763 41.9253 67.247 43.632 67.247 45.68C67.247 47.6427 67.0763 49.3493 66.735 50.8C67.0763 52.1653 67.247 53.872 67.247 55.92ZM97.455 71.28C97.7963 72.6453 97.967 74.352 97.967 76.4C97.967 78.3627 97.7963 80.0693 97.455 81.52C97.7963 82.8853 97.967 84.592 97.967 86.64C97.967 88.6027 97.7963 90.3093 97.455 91.76C97.7963 93.1253 97.967 94.832 97.967 96.88C97.967 98.8427 97.7963 100.549 97.455 102H87.215C86.8737 100.549 86.703 98.8427 86.703 96.88C86.703 94.832 86.8737 93.1253 87.215 91.76C86.8737 90.3093 86.703 88.6027 86.703 86.64C86.703 84.592 86.8737 82.8853 87.215 81.52C86.8737 80.0693 86.703 78.3627 86.703 76.4C86.703 74.352 86.8737 72.6453 87.215 71.28C86.8737 69.8293 86.703 68.1227 86.703 66.16C86.703 64.112 86.8737 62.4053 87.215 61.04H70.575C70.2337 59.5893 70.063 57.8827 70.063 55.92C70.063 53.872 70.2337 52.1653 70.575 50.8H91.055C91.3963 52.1653 91.567 53.872 91.567 55.92C91.567 57.8827 91.3963 59.5893 91.055 61.04H97.455C97.7963 62.4053 97.967 64.112 97.967 66.16C97.967 68.1227 97.7963 69.8293 97.455 71.28ZM148.455 91.76C148.796 93.1253 148.967 94.832 148.967 96.88C148.967 98.8427 148.796 100.549 148.455 102H138.215C137.874 100.549 137.703 98.8427 137.703 96.88C137.703 94.832 137.874 93.1253 138.215 91.76H133.095C132.754 90.3093 132.583 88.6027 132.583 86.64C132.583 84.592 132.754 82.8853 133.095 81.52H117.735C118.076 82.8853 118.247 84.592 118.247 86.64C118.247 88.6027 118.076 90.3093 117.735 91.76H133.095C133.436 93.1253 133.607 94.832 133.607 96.88C133.607 98.8427 133.436 100.549 133.095 102H112.615C112.274 100.549 112.103 98.8427 112.103 96.88C112.103 94.832 112.274 93.1253 112.615 91.76H107.495C107.154 90.3093 106.983 88.6027 106.983 86.64C106.983 84.592 107.154 82.8853 107.495 81.52H112.615C112.274 80.0693 112.103 78.3627 112.103 76.4C112.103 74.352 112.274 72.6453 112.615 71.28H133.095C132.754 69.8293 132.583 68.1227 132.583 66.16C132.583 64.112 132.754 62.4053 133.095 61.04H115.175C114.834 59.5893 114.663 57.8827 114.663 55.92C114.663 53.872 114.834 52.1653 115.175 50.8H138.215C138.556 52.1653 138.727 53.872 138.727 55.92C138.727 57.8827 138.556 59.5893 138.215 61.04H143.335C143.676 62.4053 143.847 64.112 143.847 66.16C143.847 68.1227 143.676 69.8293 143.335 71.28C143.676 72.6453 143.847 74.352 143.847 76.4C143.847 78.3627 143.676 80.0693 143.335 81.52C143.676 82.8853 143.847 84.592 143.847 86.64C143.847 88.6027 143.676 90.3093 143.335 91.76H148.455ZM199.967 76.4C199.967 78.3627 199.796 80.0693 199.455 81.52H194.335C194.676 82.8853 194.847 84.592 194.847 86.64C194.847 88.6027 194.676 90.3093 194.335 91.76H189.215C189.556 93.1253 189.727 94.832 189.727 96.88C189.727 98.8427 189.556 100.549 189.215 102H168.735C169.076 103.365 169.247 105.072 169.247 107.12C169.247 109.083 169.076 110.789 168.735 112.24C169.076 113.605 169.247 115.312 169.247 117.36C169.247 119.323 169.076 121.029 168.735 122.48H158.495C158.154 121.029 157.983 119.323 157.983 117.36C157.983 115.312 158.154 113.605 158.495 112.24C158.154 110.789 157.983 109.083 157.983 107.12C157.983 105.072 158.154 103.365 158.495 102C158.154 100.549 157.983 98.8427 157.983 96.88C157.983 94.832 158.154 93.1253 158.495 91.76C158.154 90.3093 157.983 88.6027 157.983 86.64C157.983 84.592 158.154 82.8853 158.495 81.52C158.154 80.0693 157.983 78.3627 157.983 76.4C157.983 74.352 158.154 72.6453 158.495 71.28C158.154 69.8293 157.983 68.1227 157.983 66.16C157.983 64.112 158.154 62.4053 158.495 61.04C158.154 59.5893 157.983 57.8827 157.983 55.92C157.983 53.872 158.154 52.1653 158.495 50.8H168.735C169.076 52.1653 169.247 53.872 169.247 55.92C169.247 57.8827 169.076 59.5893 168.735 61.04H173.855C174.196 62.4053 174.367 64.112 174.367 66.16C174.367 68.1227 174.196 69.8293 173.855 71.28H168.735C169.076 72.6453 169.247 74.352 169.247 76.4C169.247 78.3627 169.076 80.0693 168.735 81.52C169.076 82.8853 169.247 84.592 169.247 86.64C169.247 88.6027 169.076 90.3093 168.735 91.76H184.095C183.754 90.3093 183.583 88.6027 183.583 86.64C183.583 84.592 183.754 82.8853 184.095 81.52H189.215C188.874 80.0693 188.703 78.3627 188.703 76.4C188.703 74.352 188.874 72.6453 189.215 71.28H184.095C183.754 69.8293 183.583 68.1227 183.583 66.16C183.583 64.112 183.754 62.4053 184.095 61.04H173.855C173.514 59.5893 173.343 57.8827 173.343 55.92C173.343 53.872 173.514 52.1653 173.855 50.8H189.215C189.556 52.1653 189.727 53.872 189.727 55.92C189.727 57.8827 189.556 59.5893 189.215 61.04H194.335C194.676 62.4053 194.847 64.112 194.847 66.16C194.847 68.1227 194.676 69.8293 194.335 71.28H199.455C199.796 72.6453 199.967 74.352 199.967 76.4ZM250.967 66.16C250.967 68.1227 250.796 69.8293 250.455 71.28C250.796 72.6453 250.967 74.352 250.967 76.4C250.967 78.3627 250.796 80.0693 250.455 81.52H223.575C223.916 82.8853 224.087 84.592 224.087 86.64C224.087 88.6027 223.916 90.3093 223.575 91.76H245.335C245.676 93.1253 245.847 94.832 245.847 96.88C245.847 98.8427 245.676 100.549 245.335 102H219.735C219.394 100.549 219.223 98.8427 219.223 96.88C219.223 94.832 219.394 93.1253 219.735 91.76H213.335C212.994 90.3093 212.823 88.6027 212.823 86.64C212.823 84.592 212.994 82.8853 213.335 81.52H209.495C209.154 80.0693 208.983 78.3627 208.983 76.4C208.983 74.352 209.154 72.6453 209.495 71.28H213.335C212.994 69.8293 212.823 68.1227 212.823 66.16C212.823 64.112 212.994 62.4053 213.335 61.04H219.735C219.394 59.5893 219.223 57.8827 219.223 55.92C219.223 53.872 219.394 52.1653 219.735 50.8H245.335C245.676 52.1653 245.847 53.872 245.847 55.92C245.847 57.8827 245.676 59.5893 245.335 61.04H250.455C250.796 62.4053 250.967 64.112 250.967 66.16ZM240.215 71.28C239.874 69.8293 239.703 68.1227 239.703 66.16C239.703 64.112 239.874 62.4053 240.215 61.04H223.575C223.916 62.4053 224.087 64.112 224.087 66.16C224.087 68.1227 223.916 69.8293 223.575 71.28H240.215ZM301.455 81.52C301.796 82.8853 301.967 84.592 301.967 86.64C301.967 88.6027 301.796 90.3093 301.455 91.76H296.335C296.676 93.1253 296.847 94.832 296.847 96.88C296.847 98.8427 296.676 100.549 296.335 102H270.735C270.394 100.549 270.223 98.8427 270.223 96.88C270.223 94.832 270.394 93.1253 270.735 91.76H265.615C265.274 90.3093 265.103 88.6027 265.103 86.64C265.103 84.592 265.274 82.8853 265.615 81.52H260.495C260.154 80.0693 259.983 78.3627 259.983 76.4C259.983 74.352 260.154 72.6453 260.495 71.28H265.615C265.274 69.8293 265.103 68.1227 265.103 66.16C265.103 64.112 265.274 62.4053 265.615 61.04H270.735C270.394 59.5893 270.223 57.8827 270.223 55.92C270.223 53.872 270.394 52.1653 270.735 50.8H296.335C296.676 52.1653 296.847 53.872 296.847 55.92C296.847 57.8827 296.676 59.5893 296.335 61.04H301.455C301.796 62.4053 301.967 64.112 301.967 66.16C301.967 68.1227 301.796 69.8293 301.455 71.28H291.215C290.874 69.8293 290.703 68.1227 290.703 66.16C290.703 64.112 290.874 62.4053 291.215 61.04H275.855C276.196 62.4053 276.367 64.112 276.367 66.16C276.367 68.1227 276.196 69.8293 275.855 71.28H270.735C271.076 72.6453 271.247 74.352 271.247 76.4C271.247 78.3627 271.076 80.0693 270.735 81.52H275.855C276.196 82.8853 276.367 84.592 276.367 86.64C276.367 88.6027 276.196 90.3093 275.855 91.76H291.215C290.874 90.3093 290.703 88.6027 290.703 86.64C290.703 84.592 290.874 82.8853 291.215 81.52H301.455ZM352.455 61.04C352.796 62.4053 352.967 64.112 352.967 66.16C352.967 68.1227 352.796 69.8293 352.455 71.28H342.215C341.874 69.8293 341.703 68.1227 341.703 66.16C341.703 64.112 341.874 62.4053 342.215 61.04H333.255C333.596 62.4053 333.767 64.112 333.767 66.16C333.767 68.1227 333.596 69.8293 333.255 71.28H329.415C329.756 72.6453 329.927 74.352 329.927 76.4C329.927 78.3627 329.756 80.0693 329.415 81.52C329.756 82.8853 329.927 84.592 329.927 86.64C329.927 88.6027 329.756 90.3093 329.415 91.76H337.095C337.436 93.1253 337.607 94.832 337.607 96.88C337.607 98.8427 337.436 100.549 337.095 102H311.495C311.154 100.549 310.983 98.8427 310.983 96.88C310.983 94.832 311.154 93.1253 311.495 91.76H319.175C318.834 90.3093 318.663 88.6027 318.663 86.64C318.663 84.592 318.834 82.8853 319.175 81.52C318.834 80.0693 318.663 78.3627 318.663 76.4C318.663 74.352 318.834 72.6453 319.175 71.28C318.834 69.8293 318.663 68.1227 318.663 66.16C318.663 64.112 318.834 62.4053 319.175 61.04H311.495C311.154 59.5893 310.983 57.8827 310.983 55.92C310.983 53.872 311.154 52.1653 311.495 50.8H324.295C324.636 52.1653 324.807 53.872 324.807 55.92C324.807 57.8827 324.636 59.5893 324.295 61.04H329.415C329.074 59.5893 328.903 57.8827 328.903 55.92C328.903 53.872 329.074 52.1653 329.415 50.8H348.615C348.956 52.1653 349.127 53.872 349.127 55.92C349.127 57.8827 348.956 59.5893 348.615 61.04H352.455ZM403.455 91.76C403.796 93.1253 403.967 94.832 403.967 96.88C403.967 98.8427 403.796 100.549 403.455 102H393.215C392.874 100.549 392.703 98.8427 392.703 96.88C392.703 94.832 392.874 93.1253 393.215 91.76H388.095C387.754 90.3093 387.583 88.6027 387.583 86.64C387.583 84.592 387.754 82.8853 388.095 81.52H372.735C373.076 82.8853 373.247 84.592 373.247 86.64C373.247 88.6027 373.076 90.3093 372.735 91.76H388.095C388.436 93.1253 388.607 94.832 388.607 96.88C388.607 98.8427 388.436 100.549 388.095 102H367.615C367.274 100.549 367.103 98.8427 367.103 96.88C367.103 94.832 367.274 93.1253 367.615 91.76H362.495C362.154 90.3093 361.983 88.6027 361.983 86.64C361.983 84.592 362.154 82.8853 362.495 81.52H367.615C367.274 80.0693 367.103 78.3627 367.103 76.4C367.103 74.352 367.274 72.6453 367.615 71.28H388.095C387.754 69.8293 387.583 68.1227 387.583 66.16C387.583 64.112 387.754 62.4053 388.095 61.04H370.175C369.834 59.5893 369.663 57.8827 369.663 55.92C369.663 53.872 369.834 52.1653 370.175 50.8H393.215C393.556 52.1653 393.727 53.872 393.727 55.92C393.727 57.8827 393.556 59.5893 393.215 61.04H398.335C398.676 62.4053 398.847 64.112 398.847 66.16C398.847 68.1227 398.676 69.8293 398.335 71.28C398.676 72.6453 398.847 74.352 398.847 76.4C398.847 78.3627 398.676 80.0693 398.335 81.52C398.676 82.8853 398.847 84.592 398.847 86.64C398.847 88.6027 398.676 90.3093 398.335 91.76H403.455ZM449.335 50.8C449.676 52.1653 449.847 53.872 449.847 55.92C449.847 57.8827 449.676 59.5893 449.335 61.04H433.975C434.316 62.4053 434.487 64.112 434.487 66.16C434.487 68.1227 434.316 69.8293 433.975 71.28C434.316 72.6453 434.487 74.352 434.487 76.4C434.487 78.3627 434.316 80.0693 433.975 81.52C434.316 82.8853 434.487 84.592 434.487 86.64C434.487 88.6027 434.316 90.3093 433.975 91.76H444.215C444.556 93.1253 444.727 94.832 444.727 96.88C444.727 98.8427 444.556 100.549 444.215 102H418.615C418.274 100.549 418.103 98.8427 418.103 96.88C418.103 94.832 418.274 93.1253 418.615 91.76H423.735C423.394 90.3093 423.223 88.6027 423.223 86.64C423.223 84.592 423.394 82.8853 423.735 81.52C423.394 80.0693 423.223 78.3627 423.223 76.4C423.223 74.352 423.394 72.6453 423.735 71.28C423.394 69.8293 423.223 68.1227 423.223 66.16C423.223 64.112 423.394 62.4053 423.735 61.04H418.615C418.274 59.5893 418.103 57.8827 418.103 55.92C418.103 53.872 418.274 52.1653 418.615 50.8H423.735C423.394 49.3493 423.223 47.6427 423.223 45.68C423.223 43.632 423.394 41.9253 423.735 40.56H428.855C428.514 39.1093 428.343 37.4027 428.343 35.44C428.343 33.392 428.514 31.6853 428.855 30.32H449.335C449.676 31.6853 449.847 33.392 449.847 35.44C449.847 37.4027 449.676 39.1093 449.335 40.56H433.975C434.316 41.9253 434.487 43.632 434.487 45.68C434.487 47.6427 434.316 49.3493 433.975 50.8H449.335ZM500.335 91.76C500.676 93.1253 500.847 94.832 500.847 96.88C500.847 98.8427 500.676 100.549 500.335 102H479.855C479.514 100.549 479.343 98.8427 479.343 96.88C479.343 94.832 479.514 93.1253 479.855 91.76H474.735C474.394 90.3093 474.223 88.6027 474.223 86.64C474.223 84.592 474.394 82.8853 474.735 81.52C474.394 80.0693 474.223 78.3627 474.223 76.4C474.223 74.352 474.394 72.6453 474.735 71.28C474.394 69.8293 474.223 68.1227 474.223 66.16C474.223 64.112 474.394 62.4053 474.735 61.04H464.495C464.154 59.5893 463.983 57.8827 463.983 55.92C463.983 53.872 464.154 52.1653 464.495 50.8H474.735C474.394 49.3493 474.223 47.6427 474.223 45.68C474.223 43.632 474.394 41.9253 474.735 40.56C474.394 39.1093 474.223 37.4027 474.223 35.44C474.223 33.392 474.394 31.6853 474.735 30.32H484.975C485.316 31.6853 485.487 33.392 485.487 35.44C485.487 37.4027 485.316 39.1093 484.975 40.56C485.316 41.9253 485.487 43.632 485.487 45.68C485.487 47.6427 485.316 49.3493 484.975 50.8H500.335C500.676 52.1653 500.847 53.872 500.847 55.92C500.847 57.8827 500.676 59.5893 500.335 61.04H484.975C485.316 62.4053 485.487 64.112 485.487 66.16C485.487 68.1227 485.316 69.8293 484.975 71.28C485.316 72.6453 485.487 74.352 485.487 76.4C485.487 78.3627 485.316 80.0693 484.975 81.52C485.316 82.8853 485.487 84.592 485.487 86.64C485.487 88.6027 485.316 90.3093 484.975 91.76H500.335Z" fill="white"/>
<path d="M72.455 464.28C72.7963 465.645 72.967 467.352 72.967 469.4C72.967 471.363 72.7963 473.069 72.455 474.52C72.7963 475.885 72.967 477.592 72.967 479.64C72.967 481.603 72.7963 483.309 72.455 484.76H67.335C67.6763 486.125 67.847 487.832 67.847 489.88C67.847 491.843 67.6763 493.549 67.335 495H36.615C36.2737 493.549 36.103 491.843 36.103 489.88C36.103 487.832 36.2737 486.125 36.615 484.76H31.495C31.1537 483.309 30.983 481.603 30.983 479.64C30.983 477.592 31.1537 475.885 31.495 474.52H41.735C42.0763 475.885 42.247 477.592 42.247 479.64C42.247 481.603 42.0763 483.309 41.735 484.76H62.215C61.8737 483.309 61.703 481.603 61.703 479.64C61.703 477.592 61.8737 475.885 62.215 474.52C61.8737 473.069 61.703 471.363 61.703 469.4C61.703 467.352 61.8737 465.645 62.215 464.28H36.615C36.2737 462.829 36.103 461.123 36.103 459.16C36.103 457.112 36.2737 455.405 36.615 454.04H31.495C31.1537 452.589 30.983 450.883 30.983 448.92C30.983 446.872 31.1537 445.165 31.495 443.8C31.1537 442.349 30.983 440.643 30.983 438.68C30.983 436.632 31.1537 434.925 31.495 433.56H36.615C36.2737 432.109 36.103 430.403 36.103 428.44C36.103 426.392 36.2737 424.685 36.615 423.32H67.335C67.6763 424.685 67.847 426.392 67.847 428.44C67.847 430.403 67.6763 432.109 67.335 433.56H72.455C72.7963 434.925 72.967 436.632 72.967 438.68C72.967 440.643 72.7963 442.349 72.455 443.8H62.215C61.8737 442.349 61.703 440.643 61.703 438.68C61.703 436.632 61.8737 434.925 62.215 433.56H41.735C42.0763 434.925 42.247 436.632 42.247 438.68C42.247 440.643 42.0763 442.349 41.735 443.8C42.0763 445.165 42.247 446.872 42.247 448.92C42.247 450.883 42.0763 452.589 41.735 454.04H67.335C67.6763 455.405 67.847 457.112 67.847 459.16C67.847 461.123 67.6763 462.829 67.335 464.28H72.455ZM97.087 479.64C97.087 481.603 96.9163 483.309 96.575 484.76H109.375C109.716 486.125 109.887 487.832 109.887 489.88C109.887 491.843 109.716 493.549 109.375 495H88.895C88.5537 493.549 88.383 491.843 88.383 489.88C88.383 487.832 88.5537 486.125 88.895 484.76H82.495C82.1537 483.309 81.983 481.603 81.983 479.64C81.983 477.592 82.1537 475.885 82.495 474.52C82.1537 473.069 81.983 471.363 81.983 469.4C81.983 467.352 82.1537 465.645 82.495 464.28C82.1537 462.829 81.983 461.123 81.983 459.16C81.983 457.112 82.1537 455.405 82.495 454.04C82.1537 452.589 81.983 450.883 81.983 448.92C81.983 446.872 82.1537 445.165 82.495 443.8H92.735C93.0763 445.165 93.247 446.872 93.247 448.92C93.247 450.883 93.0763 452.589 92.735 454.04C93.0763 455.405 93.247 457.112 93.247 459.16C93.247 461.123 93.0763 462.829 92.735 464.28C93.0763 465.645 93.247 467.352 93.247 469.4C93.247 471.363 93.0763 473.069 92.735 474.52H96.575C96.9163 475.885 97.087 477.592 97.087 479.64ZM123.455 454.04C123.796 455.405 123.967 457.112 123.967 459.16C123.967 461.123 123.796 462.829 123.455 464.28C123.796 465.645 123.967 467.352 123.967 469.4C123.967 471.363 123.796 473.069 123.455 474.52C123.796 475.885 123.967 477.592 123.967 479.64C123.967 481.603 123.796 483.309 123.455 484.76C123.796 486.125 123.967 487.832 123.967 489.88C123.967 491.843 123.796 493.549 123.455 495H113.215C112.874 493.549 112.703 491.843 112.703 489.88C112.703 487.832 112.874 486.125 113.215 484.76H109.375C109.034 483.309 108.863 481.603 108.863 479.64C108.863 477.592 109.034 475.885 109.375 474.52H113.215C112.874 473.069 112.703 471.363 112.703 469.4C112.703 467.352 112.874 465.645 113.215 464.28C112.874 462.829 112.703 461.123 112.703 459.16C112.703 457.112 112.874 455.405 113.215 454.04C112.874 452.589 112.703 450.883 112.703 448.92C112.703 446.872 112.874 445.165 113.215 443.8H123.455C123.796 445.165 123.967 446.872 123.967 448.92C123.967 450.883 123.796 452.589 123.455 454.04ZM174.455 454.04C174.796 455.405 174.967 457.112 174.967 459.16C174.967 461.123 174.796 462.829 174.455 464.28H164.215C163.874 462.829 163.703 461.123 163.703 459.16C163.703 457.112 163.874 455.405 164.215 454.04H155.255C155.596 455.405 155.767 457.112 155.767 459.16C155.767 461.123 155.596 462.829 155.255 464.28H151.415C151.756 465.645 151.927 467.352 151.927 469.4C151.927 471.363 151.756 473.069 151.415 474.52C151.756 475.885 151.927 477.592 151.927 479.64C151.927 481.603 151.756 483.309 151.415 484.76H159.095C159.436 486.125 159.607 487.832 159.607 489.88C159.607 491.843 159.436 493.549 159.095 495H133.495C133.154 493.549 132.983 491.843 132.983 489.88C132.983 487.832 133.154 486.125 133.495 484.76H141.175C140.834 483.309 140.663 481.603 140.663 479.64C140.663 477.592 140.834 475.885 141.175 474.52C140.834 473.069 140.663 471.363 140.663 469.4C140.663 467.352 140.834 465.645 141.175 464.28C140.834 462.829 140.663 461.123 140.663 459.16C140.663 457.112 140.834 455.405 141.175 454.04H133.495C133.154 452.589 132.983 450.883 132.983 448.92C132.983 446.872 133.154 445.165 133.495 443.8H146.295C146.636 445.165 146.807 446.872 146.807 448.92C146.807 450.883 146.636 452.589 146.295 454.04H151.415C151.074 452.589 150.903 450.883 150.903 448.92C150.903 446.872 151.074 445.165 151.415 443.8H170.615C170.956 445.165 171.127 446.872 171.127 448.92C171.127 450.883 170.956 452.589 170.615 454.04H174.455ZM225.967 448.92C225.967 450.883 225.796 452.589 225.455 454.04H221.615C221.956 455.405 222.127 457.112 222.127 459.16C222.127 461.123 221.956 462.829 221.615 464.28H217.775C218.116 465.645 218.287 467.352 218.287 469.4C218.287 471.363 218.116 473.069 217.775 474.52H215.215C215.556 475.885 215.727 477.592 215.727 479.64C215.727 481.603 215.556 483.309 215.215 484.76H210.095C210.436 486.125 210.607 487.832 210.607 489.88C210.607 491.843 210.436 493.549 210.095 495H199.855C199.514 493.549 199.343 491.843 199.343 489.88C199.343 487.832 199.514 486.125 199.855 484.76H194.735C194.394 483.309 194.223 481.603 194.223 479.64C194.223 477.592 194.394 475.885 194.735 474.52H192.175C191.834 473.069 191.663 471.363 191.663 469.4C191.663 467.352 191.834 465.645 192.175 464.28H188.335C187.994 462.829 187.823 461.123 187.823 459.16C187.823 457.112 187.994 455.405 188.335 454.04H184.495C184.154 452.589 183.983 450.883 183.983 448.92C183.983 446.872 184.154 445.165 184.495 443.8H194.735C195.076 445.165 195.247 446.872 195.247 448.92C195.247 450.883 195.076 452.589 194.735 454.04H198.575C198.916 455.405 199.087 457.112 199.087 459.16C199.087 461.123 198.916 462.829 198.575 464.28H202.415C202.756 465.645 202.927 467.352 202.927 469.4C202.927 471.363 202.756 473.069 202.415 474.52H207.535C207.194 473.069 207.023 471.363 207.023 469.4C207.023 467.352 207.194 465.645 207.535 464.28H211.375C211.034 462.829 210.863 461.123 210.863 459.16C210.863 457.112 211.034 455.405 211.375 454.04H215.215C214.874 452.589 214.703 450.883 214.703 448.92C214.703 446.872 214.874 445.165 215.215 443.8H225.455C225.796 445.165 225.967 446.872 225.967 448.92ZM250.855 433.56C250.514 432.109 250.343 430.403 250.343 428.44C250.343 426.392 250.514 424.685 250.855 423.32H261.095C261.436 424.685 261.607 426.392 261.607 428.44C261.607 430.403 261.436 432.109 261.095 433.56H250.855ZM271.335 484.76C271.676 486.125 271.847 487.832 271.847 489.88C271.847 491.843 271.676 493.549 271.335 495H240.615C240.274 493.549 240.103 491.843 240.103 489.88C240.103 487.832 240.274 486.125 240.615 484.76H250.855C250.514 483.309 250.343 481.603 250.343 479.64C250.343 477.592 250.514 475.885 250.855 474.52C250.514 473.069 250.343 471.363 250.343 469.4C250.343 467.352 250.514 465.645 250.855 464.28C250.514 462.829 250.343 461.123 250.343 459.16C250.343 457.112 250.514 455.405 250.855 454.04H243.175C242.834 452.589 242.663 450.883 242.663 448.92C242.663 446.872 242.834 445.165 243.175 443.8H261.095C261.436 445.165 261.607 446.872 261.607 448.92C261.607 450.883 261.436 452.589 261.095 454.04C261.436 455.405 261.607 457.112 261.607 459.16C261.607 461.123 261.436 462.829 261.095 464.28C261.436 465.645 261.607 467.352 261.607 469.4C261.607 471.363 261.436 473.069 261.095 474.52C261.436 475.885 261.607 477.592 261.607 479.64C261.607 481.603 261.436 483.309 261.095 484.76H271.335ZM327.967 448.92C327.967 450.883 327.796 452.589 327.455 454.04H323.615C323.956 455.405 324.127 457.112 324.127 459.16C324.127 461.123 323.956 462.829 323.615 464.28H319.775C320.116 465.645 320.287 467.352 320.287 469.4C320.287 471.363 320.116 473.069 319.775 474.52H317.215C317.556 475.885 317.727 477.592 317.727 479.64C317.727 481.603 317.556 483.309 317.215 484.76H312.095C312.436 486.125 312.607 487.832 312.607 489.88C312.607 491.843 312.436 493.549 312.095 495H301.855C301.514 493.549 301.343 491.843 301.343 489.88C301.343 487.832 301.514 486.125 301.855 484.76H296.735C296.394 483.309 296.223 481.603 296.223 479.64C296.223 477.592 296.394 475.885 296.735 474.52H294.175C293.834 473.069 293.663 471.363 293.663 469.4C293.663 467.352 293.834 465.645 294.175 464.28H290.335C289.994 462.829 289.823 461.123 289.823 459.16C289.823 457.112 289.994 455.405 290.335 454.04H286.495C286.154 452.589 285.983 450.883 285.983 448.92C285.983 446.872 286.154 445.165 286.495 443.8H296.735C297.076 445.165 297.247 446.872 297.247 448.92C297.247 450.883 297.076 452.589 296.735 454.04H300.575C300.916 455.405 301.087 457.112 301.087 459.16C301.087 461.123 300.916 462.829 300.575 464.28H304.415C304.756 465.645 304.927 467.352 304.927 469.4C304.927 471.363 304.756 473.069 304.415 474.52H309.535C309.194 473.069 309.023 471.363 309.023 469.4C309.023 467.352 309.194 465.645 309.535 464.28H313.375C313.034 462.829 312.863 461.123 312.863 459.16C312.863 457.112 313.034 455.405 313.375 454.04H317.215C316.874 452.589 316.703 450.883 316.703 448.92C316.703 446.872 316.874 445.165 317.215 443.8H327.455C327.796 445.165 327.967 446.872 327.967 448.92ZM378.967 469.4C378.967 471.363 378.796 473.069 378.455 474.52H374.615C374.956 475.885 375.127 477.592 375.127 479.64C375.127 481.603 374.956 483.309 374.615 484.76H368.215C368.556 486.125 368.727 487.832 368.727 489.88C368.727 491.843 368.556 493.549 368.215 495H347.735C347.394 493.549 347.223 491.843 347.223 489.88C347.223 487.832 347.394 486.125 347.735 484.76H341.335C340.994 483.309 340.823 481.603 340.823 479.64C340.823 477.592 340.994 475.885 341.335 474.52H337.495C337.154 473.069 336.983 471.363 336.983 469.4C336.983 467.352 337.154 465.645 337.495 464.28H341.335C340.994 462.829 340.823 461.123 340.823 459.16C340.823 457.112 340.994 455.405 341.335 454.04H347.735C347.394 452.589 347.223 450.883 347.223 448.92C347.223 446.872 347.394 445.165 347.735 443.8H368.215C368.556 445.165 368.727 446.872 368.727 448.92C368.727 450.883 368.556 452.589 368.215 454.04H374.615C374.956 455.405 375.127 457.112 375.127 459.16C375.127 461.123 374.956 462.829 374.615 464.28H378.455C378.796 465.645 378.967 467.352 378.967 469.4ZM368.215 474.52C367.874 473.069 367.703 471.363 367.703 469.4C367.703 467.352 367.874 465.645 368.215 464.28H364.375C364.034 462.829 363.863 461.123 363.863 459.16C363.863 457.112 364.034 455.405 364.375 454.04H351.575C351.916 455.405 352.087 457.112 352.087 459.16C352.087 461.123 351.916 462.829 351.575 464.28H347.735C348.076 465.645 348.247 467.352 348.247 469.4C348.247 471.363 348.076 473.069 347.735 474.52H351.575C351.916 475.885 352.087 477.592 352.087 479.64C352.087 481.603 351.916 483.309 351.575 484.76H364.375C364.034 483.309 363.863 481.603 363.863 479.64C363.863 477.592 364.034 475.885 364.375 474.52H368.215ZM429.455 454.04C429.796 455.405 429.967 457.112 429.967 459.16C429.967 461.123 429.796 462.829 429.455 464.28H419.215C418.874 462.829 418.703 461.123 418.703 459.16C418.703 457.112 418.874 455.405 419.215 454.04H410.255C410.596 455.405 410.767 457.112 410.767 459.16C410.767 461.123 410.596 462.829 410.255 464.28H406.415C406.756 465.645 406.927 467.352 406.927 469.4C406.927 471.363 406.756 473.069 406.415 474.52C406.756 475.885 406.927 477.592 406.927 479.64C406.927 481.603 406.756 483.309 406.415 484.76H414.095C414.436 486.125 414.607 487.832 414.607 489.88C414.607 491.843 414.436 493.549 414.095 495H388.495C388.154 493.549 387.983 491.843 387.983 489.88C387.983 487.832 388.154 486.125 388.495 484.76H396.175C395.834 483.309 395.663 481.603 395.663 479.64C395.663 477.592 395.834 475.885 396.175 474.52C395.834 473.069 395.663 471.363 395.663 469.4C395.663 467.352 395.834 465.645 396.175 464.28C395.834 462.829 395.663 461.123 395.663 459.16C395.663 457.112 395.834 455.405 396.175 454.04H388.495C388.154 452.589 387.983 450.883 387.983 448.92C387.983 446.872 388.154 445.165 388.495 443.8H401.295C401.636 445.165 401.807 446.872 401.807 448.92C401.807 450.883 401.636 452.589 401.295 454.04H406.415C406.074 452.589 405.903 450.883 405.903 448.92C405.903 446.872 406.074 445.165 406.415 443.8H425.615C425.956 445.165 426.127 446.872 426.127 448.92C426.127 450.883 425.956 452.589 425.615 454.04H429.455ZM478.407 479.64C478.407 481.603 478.236 483.309 477.895 484.76H472.775C473.116 486.125 473.287 487.832 473.287 489.88C473.287 491.843 473.116 493.549 472.775 495H444.615C444.274 493.549 444.103 491.843 444.103 489.88C444.103 487.832 444.274 486.125 444.615 484.76H467.655C467.314 483.309 467.143 481.603 467.143 479.64C467.143 477.592 467.314 475.885 467.655 474.52H447.175C446.834 473.069 446.663 471.363 446.663 469.4C446.663 467.352 446.834 465.645 447.175 464.28H442.055C441.714 462.829 441.543 461.123 441.543 459.16C441.543 457.112 441.714 455.405 442.055 454.04H447.175C446.834 452.589 446.663 450.883 446.663 448.92C446.663 446.872 446.834 445.165 447.175 443.8H475.335C475.676 445.165 475.847 446.872 475.847 448.92C475.847 450.883 475.676 452.589 475.335 454.04H452.295C452.636 455.405 452.807 457.112 452.807 459.16C452.807 461.123 452.636 462.829 452.295 464.28H472.775C473.116 465.645 473.287 467.352 473.287 469.4C473.287 471.363 473.116 473.069 472.775 474.52H477.895C478.236 475.885 478.407 477.592 478.407 479.64Z" fill="white"/>
</svg>
