<?xml version="1.0" encoding="utf-8" ?>
<svg xmlns="http://www.w3.org/2000/svg" xmlns:xlink="http://www.w3.org/1999/xlink" width="417" height="417">
	<path fill="#FE9F02" transform="scale(0.81543 0.81543)" d="M94.7555 367.169C97.943 370.162 110.05 381.06 111.371 384.107C107.56 388.747 102.523 393.026 98.2696 397.308C80.9753 414.717 73.5595 422.049 48.8426 430.932C52.7068 411.7 64.6382 397.271 78.0963 383.848L94.7555 367.169Z"/>
	<path fill="#FE9F02" transform="scale(0.81543 0.81543)" d="M416.714 367.169C427.138 376.52 449.196 396.058 454.628 407.55C458.062 414.813 459.526 422.832 462.912 430.059C441.408 423.915 433.668 417.205 418.876 402.711C412.612 396.573 405.868 390.587 399.971 384.107C401.349 382.212 403.465 380.46 405.127 378.781L416.714 367.169Z"/>
	<path fill="#FE9F02" transform="scale(0.81543 0.81543)" d="M462.912 77.6125C458.229 102.278 444.818 113.726 428.377 130.037C424.419 133.963 419.803 137.843 416.714 142.504C412.056 136.006 404.255 130.865 399.971 124.385C402.49 120.77 408.154 115.943 411.48 112.613C429.493 94.5781 437.421 87.1661 462.912 77.6125Z"/>
	<path fill="#FE9F02" transform="scale(0.81543 0.81543)" d="M47.9715 77.6125C55.582 79.0089 72.2801 88.6963 78.1858 93.152C84.1147 97.6253 89.1217 103.343 94.3307 108.612L111.371 125.546C105.73 130.912 99.5268 136.364 94.7555 142.504C90.0923 138.716 85.4546 133.214 81.0116 128.946C61.4597 110.164 54.9492 104.245 47.9715 77.6125Z"/>
	<path fill="#0B0603" transform="scale(0.81543 0.81543)" d="M381.098 333.216C383.665 334.91 398.771 350.351 401.603 353.651C406.315 349.435 413.083 339.794 419.777 340.208C425.365 340.554 429.857 346.044 429.245 351.583C428.597 357.457 420.338 362.706 416.714 367.169L405.127 378.781C403.465 380.46 401.349 382.212 399.971 384.107C395.178 388.727 390.161 395.792 382.879 395.904C375.018 396.024 370.181 387.196 374.492 380.516C376.598 377.252 383.264 371.786 386.31 368.832C381.556 364.802 371.457 355.231 367.999 350.339C368.098 348.317 378.137 335.801 381.098 333.216Z"/>
	<path fill="#0B0603" transform="scale(0.81543 0.81543)" d="M386.31 140.994C382.406 137.252 374.078 130.569 373.036 125.247C371.943 119.663 376.153 114.054 381.7 113.221C389.705 112.02 393.986 119.965 399.585 124.104L399.971 124.385C404.255 130.865 412.056 136.006 416.714 142.504C443.957 162.341 421.766 174.211 412.524 166.534C408.659 163.323 405.153 159.307 401.603 155.736C394.771 162.613 388.077 169.753 381.098 176.464C378.443 174.068 370.907 162.938 367.999 159.356C371.119 155.005 381.947 145.677 386.31 140.994Z"/>
	<path fill="#0B0603" transform="scale(0.81543 0.81543)" d="M131.355 333.216C134.678 339.94 139.641 344.827 144.449 350.339C138.554 354.729 130.785 362.77 126.611 368.832C150.605 381.999 134.617 402.501 122.068 393.627C118.149 390.856 115.45 386.782 111.371 384.107C110.05 381.06 97.943 370.162 94.7555 367.169C90.2933 362.593 82.8433 358.149 82.4466 351.184C81.9813 343.014 90.8294 337.912 98.0197 341.51C101.895 343.449 108.073 350.425 111.371 353.651C116.142 347.656 125.704 338.258 131.355 333.216Z"/>
	<path fill="#0B0603" transform="scale(0.81543 0.81543)" d="M111.371 125.546C115.388 121.503 121.561 113.396 127.622 113.496C133.476 113.594 138.608 118.927 138.193 124.835C137.713 131.681 129.353 135.117 126.611 140.994C132.599 147.023 138.889 152.935 144.449 159.356C140.149 164.337 135.118 172.551 131.355 176.464C125.299 169.611 117.182 162.188 110.519 155.736C106.263 159.06 103.091 163.552 98.9907 167.002C89.2076 175.236 69.2517 160.593 94.7555 142.504C99.5268 136.364 105.73 130.912 111.371 125.546Z"/>
	<path fill="#CD5602" transform="scale(0.81543 0.81543)" d="M144.449 159.356C193.693 98.4968 287.301 90.9907 347.754 140.141C354.886 145.94 362.167 152.214 367.999 159.356C370.907 162.938 378.443 174.068 381.098 176.464C382.445 180.062 384.785 183.131 386.553 186.515C408.493 228.514 410.177 282.122 386.19 323.713C384.392 326.831 382.393 329.844 381.098 333.216C378.137 335.801 368.098 348.317 367.999 350.339C364.701 352.016 356.842 361.319 353.154 364.595C297.585 413.962 210.822 411.971 156.006 362.919C151.939 359.279 147.204 355.065 144.449 350.339C139.641 344.827 134.678 339.94 131.355 333.216C101.454 288.992 100.596 220.541 131.355 176.464C135.118 172.551 140.149 164.337 144.449 159.356ZM252.557 128.003C244.855 128.522 237.132 129.182 229.565 130.78C168.488 143.685 125.037 200.908 129.331 263.271C134.005 331.134 191.956 384.404 260.312 381.003C300.658 377.912 336.508 360.601 360.286 326.77C420.879 240.561 354.935 126.678 252.557 128.003Z"/>
	<path fill="#FE9F02" transform="scale(0.81543 0.81543)" d="M247.919 145.461C254.313 145.411 260.781 145.241 267.157 145.823C315.891 150.271 357.263 190.411 364.552 238.592C373.387 296.996 334.661 349.458 277.622 361.691C273.14 362.652 268.499 363.106 263.964 363.788C258.571 363.89 253.158 364.059 247.775 363.603C196.16 359.223 152.214 317.789 147.185 265.702C141.181 203.517 186.292 151.347 247.919 145.461Z"/>
	<path fill="#CD5602" transform="scale(0.81543 0.81543)" d="M201.538 285.552C212.237 284.75 214.921 298.818 203.392 303.188C191.372 302.225 190.091 288.025 201.538 285.552Z"/>
	<path fill="#CD5602" transform="scale(0.81543 0.81543)" d="M251.51 249.287C265.406 248.033 268.897 267.804 255.316 270.684C239.778 272.155 237.169 252.882 251.51 249.287Z"/>
	<path fill="#CD5602" transform="scale(0.81543 0.81543)" d="M318.288 223.305C335.506 222.377 338.323 244.785 322.486 248.441C305.496 251.295 301.15 226.69 318.288 223.305Z"/>
	<path fill="#CD5602" transform="scale(0.81543 0.81543)" d="M304.172 269.6C325.383 268.337 328.068 299.864 306.064 301.865C285.947 303.326 281.414 271.832 304.172 269.6Z"/>
	<path fill="#CD5602" transform="scale(0.81543 0.81543)" d="M191.366 226.323C214.255 224.703 217.489 257.65 195.561 260.146C191.644 260.914 186.519 259.03 183.356 256.785C170.44 247.621 176.554 228.692 191.366 226.323Z"/>
	<path fill="#0B0603" transform="scale(0.81543 0.81543)" d="M256.121 303.188C259.798 304.175 261.502 310.714 263.274 313.712C280.802 309.668 276.611 313.515 269.631 324.644C276.493 335.471 280.582 338.563 263.274 335.903C260.991 338.815 259.622 345.482 256.121 346.783C252.879 345.187 251.027 339.115 249.533 335.903C234.884 336.534 232.73 338.602 242.625 324.644C236.608 314.493 229.957 308.331 249.533 313.712C251.152 309.823 252.523 305.686 256.121 303.188Z"/>
	<path fill="#0B0603" transform="scale(0.81543 0.81543)" d="M255.316 169.523C261.091 169.927 262.388 180.638 264.861 185.919C267.945 185.231 279.884 181.961 282.098 183.509C288.101 187.704 275.871 197.846 273.341 201.107C276.55 205.783 282.197 209.484 284.401 214.682C281.819 223.036 272.118 218.139 264.861 216.468C262.938 221.261 262.012 229.963 257.218 232.721C250.771 233.447 249.02 220.945 247.273 216.468C242.54 216.869 228.805 222.178 228.343 214.95C228.175 212.31 236.699 203.663 238.678 201.107C236.799 198.318 223.698 186.735 229.754 183.396C232.675 181.785 243.751 185.021 247.273 185.919C248.646 181.576 250.143 170.976 255.316 169.523Z"/>
</svg>
