<?xml version="1.0" encoding="utf-8" ?>
<svg xmlns="http://www.w3.org/2000/svg" xmlns:xlink="http://www.w3.org/1999/xlink" width="233" height="233">
	<path fill="#1F033D" transform="matrix(0.227116 0.000457572 -0.000457572 0.227116 0.468567 0)" d="M557.786 887.977C564.363 887.988 571.47 887.455 577.979 888.15C577.687 895.404 577.887 902.727 577.892 909.99L558.097 909.981C558.162 902.76 558.609 895.143 557.786 887.977Z"/>
	<path fill="#1F033D" transform="matrix(0.227116 0.000457572 -0.000457572 0.227116 0.468567 0)" d="M444.224 888.196C451.097 887.668 458.119 887.908 465.015 887.921C464.268 895.07 464.76 902.467 464.911 909.641Q454.624 909.505 444.34 909.764C444.473 902.746 445.076 895.155 444.224 888.196Z"/>
	<path fill="#1F033D" transform="matrix(0.227116 0.000457572 -0.000457572 0.227116 0.468567 0)" d="M258.561 379.168L279.492 379.428L279.514 401.076C272.652 400.866 265.757 401.025 258.892 401.062C259.012 394.054 259.741 386.069 258.561 379.168Z"/>
	<path fill="#1F033D" transform="matrix(0.227116 0.000457572 -0.000457572 0.227116 0.468567 0)" d="M196.891 641.028C203.903 640.908 210.974 640.616 217.977 641.009C217.407 648.236 217.851 655.708 217.935 662.962Q207.514 662.815 197.092 662.956C197.1 655.65 197.194 648.33 196.891 641.028Z"/>
	<path fill="#1F033D" transform="matrix(0.227116 0.000457572 -0.000457572 0.227116 0.468567 0)" d="M697.974 662.788C697.622 670.222 697.643 677.65 697.644 685.091C690.754 685.538 683.664 685.64 676.765 685.427C677.683 678.106 677.169 670.476 676.996 663.118C683.529 663.716 691.448 663.536 697.974 662.788Z"/>
	<path fill="#1F033D" transform="matrix(0.227116 0.000457572 -0.000457572 0.227116 0.468567 0)" d="M397.786 210.028C405.184 210.049 412.599 209.965 419.994 210.135C420.169 217.861 420.439 225.601 420.383 233.329C413.81 231.926 404.859 232.968 398.034 233.029C398.071 225.472 398.554 217.537 397.786 210.028Z"/>
	<path fill="#1F033D" transform="matrix(0.227116 0.000457572 -0.000457572 0.227116 0.468567 0)" d="M154.896 601.922Q166.826 602.065 178.757 602.002L178.564 625.978L196.818 626.005C196.612 630.846 196.028 636.261 196.891 641.028L177.102 641.025L177.433 625.23C170.005 624.824 162.533 624.974 155.095 624.989C155.11 617.319 155.335 609.578 154.896 601.922Z"/>
	<path fill="#1F033D" transform="matrix(0.227116 0.000457572 -0.000457572 0.227116 0.468567 0)" d="M786.063 336.001C793.293 335.922 800.55 335.763 807.776 336.025C806.851 342.832 807.524 350.442 807.447 357.356C800.287 356.412 793.446 356.735 786.27 357.108Q786.485 367.241 786.33 377.375C779.619 376.881 772.881 377.033 766.156 377.066L765.546 376.971C765.252 369.943 765.358 362.884 765.356 355.85Q775.741 355.883 786.117 356.294L786.063 336.001Z"/>
	<path fill="#1F033D" transform="matrix(0.227116 0.000457572 -0.000457572 0.227116 0.468567 0)" d="M393.031 850.068L422.768 849.905L426.543 850L426.449 870.017C432.179 869.845 438.554 869.109 444.093 870.785C444.017 876.52 443.616 882.491 444.224 888.196C436.172 888.947 427.509 888.34 419.392 888.353L419.442 869.641Q406.291 869.613 393.143 869.91C393.246 863.307 393.072 856.674 393.031 850.068Z"/>
	<path fill="#1F033D" transform="matrix(0.227116 0.000457572 -0.000457572 0.227116 0.468567 0)" d="M656.479 685.492C663.239 685.477 670.006 685.52 676.765 685.427C676.052 704.565 676.602 723.886 676.54 743.046L655.949 743.067C656.388 723.88 655.735 704.683 656.479 685.492Z"/>
	<path fill="#1F033D" transform="matrix(0.227116 0.000457572 -0.000457572 0.227116 0.468567 0)" d="M195.196 316.078Q205.566 315.952 215.935 316.128Q215.902 326.355 215.982 336.582Q226.691 336.784 237.4 336.579Q237.458 347.298 237.345 358.017Q247.641 358.455 257.946 358.426C257.873 365.291 257.86 372.125 258.122 378.986L237.078 379.098L237.099 357.844C230.356 357.27 223.13 357.588 216.364 357.928C215.032 353.141 215.983 342.144 215.997 336.73Q205.805 336.919 195.612 336.924C195.858 330.41 196.933 322.388 195.196 316.078Z"/>
	<path fill="#1F033D" transform="matrix(0.227116 0.000457572 -0.000457572 0.227116 0.468567 0)" d="M744.012 662.852L745.834 663.101C751.872 663.7 757.977 663.24 764.035 663.41L763.96 685.126L785.057 685.132C785.533 678.241 786.354 670.253 784.727 663.468C791.156 663.554 798.648 664.284 804.953 663.149C805.017 670.723 804.73 678.325 804.584 685.899C798.063 685.633 791.554 685.694 785.03 685.745C784.758 692.202 784.895 698.71 784.896 705.174C777.82 705.537 770.653 705.377 763.564 705.431L763.532 685.491L744.037 685.472Q743.924 674.162 744.012 662.852Z"/>
	<path fill="#1F033D" transform="matrix(0.227116 0.000457572 -0.000457572 0.227116 0.468567 0)" d="M873.897 602.717L873.97 624.418L844.894 624.621L845.064 640.951C838.866 640.955 832.65 640.866 826.455 641.007L826.356 662.979Q815.871 662.932 805.387 663.026C805.592 655.695 805.475 648.331 805.49 640.995Q815.893 641.11 826.295 640.973Q826.726 632.721 826.074 624.483L843.98 624.489C843.481 617.326 843.508 610.117 843.418 602.938C853.34 603.077 864.085 603.954 873.897 602.717Z"/>
	<path fill="#1F033D" transform="matrix(0.227116 0.000457572 -0.000457572 0.227116 0.468567 0)" d="M653.934 790.03L671.053 790.044C671.032 803.819 670.821 817.622 671.018 831.394L650.807 831.48C646.271 837.243 641.736 842.982 637.529 848.993C631.381 849.071 625.118 848.966 618.992 849.46C619.026 843.13 618.825 836.789 618.719 830.46C625.512 829.881 632.303 830.046 639.114 830.105L639.037 810.133C644.039 810.446 649.102 810.291 654.113 810.287Q654.122 800.158 653.934 790.03Z"/>
	<path fill="#1F033D" transform="matrix(0.227116 0.000457572 -0.000457572 0.227116 0.468567 0)" d="M369.056 734.504L387.508 734.503C387.473 742.33 386.444 763.827 387.814 770C394.232 769.993 400.673 769.87 407.088 769.996C407.84 776.943 407.465 784.138 407.5 791.126Q398.231 790.463 388.938 790.501Q379.645 790.539 370.381 791.277Q370.635 800.888 370.484 810.501C370.404 816.955 370.013 823.657 370.663 830.082L355.059 830.087L355.042 791.045L370.023 791C369.85 772.191 369.953 753.289 369.056 734.504Z"/>
	<path fill="#1F033D" transform="matrix(0.227116 0.000457572 -0.000457572 0.227116 0.468567 0)" d="M306.125 118.26Q317.241 118.066 328.357 118.227C328.312 125.526 327.862 133.286 328.881 140.514C321.373 140.526 313.843 140.419 306.339 140.604Q306.299 159.054 306.461 177.502C306.494 187.699 306.194 198.052 306.603 208.232C306.494 219.002 305.267 270.325 307.446 275.931C300.421 275.754 293.346 275.943 286.316 275.957L286.395 140.6L306.103 140.482L306.125 118.26Z"/>
	<path fill="#D53201" transform="matrix(0.227116 0.000457572 -0.000457572 0.227116 0.468567 0)" d="M370.381 791.277Q379.645 790.539 388.938 790.501Q398.231 790.463 407.5 791.126C413.618 792.111 420.287 791.619 426.497 791.534C426.493 797.659 426.82 803.99 426.405 810.089L426.941 810.026L426.973 829.864C426.957 834.467 427.123 839.145 426.903 843.739C426.689 845.843 426.515 847.881 426.543 850L422.768 849.905L393.031 850.068L391 849.948C384.396 850.137 377.769 850.024 371.162 850.004C371.138 843.566 371.664 836.412 370.663 830.082C370.013 823.657 370.404 816.955 370.484 810.501Q370.635 800.888 370.381 791.277Z"/>
	<path fill="#1F033D" transform="matrix(0.227116 0.000457572 -0.000457572 0.227116 0.468567 0)" d="M407.5 791.126C413.618 792.111 420.287 791.619 426.497 791.534C426.493 797.659 426.82 803.99 426.405 810.089C420.116 809.869 413.793 810.031 407.499 810.071L407.5 791.126Z"/>
	<path fill="#74241C" transform="matrix(0.227116 0.000457572 -0.000457572 0.227116 0.468567 0)" d="M370.484 810.501C377.207 811.674 384.229 810.677 391.005 810.48L391.014 829.902Q398.961 830.2 406.911 830.006L426.973 829.864C426.957 834.467 427.123 839.145 426.903 843.739C426.689 845.843 426.515 847.881 426.543 850L422.768 849.905L393.031 850.068L391 849.948C384.396 850.137 377.769 850.024 371.162 850.004C371.138 843.566 371.664 836.412 370.663 830.082C370.013 823.657 370.404 816.955 370.484 810.501Z"/>
	<path fill="#98130E" transform="matrix(0.227116 0.000457572 -0.000457572 0.227116 0.468567 0)" d="M406.911 830.006L426.973 829.864C426.957 834.467 427.123 839.145 426.903 843.739C426.689 845.843 426.515 847.881 426.543 850L422.768 849.905C417.746 848.808 411.779 849.473 406.642 849.623C406.834 843.078 406.997 836.554 406.911 830.006Z"/>
	<path fill="#1F033D" transform="matrix(0.227116 0.000457572 -0.000457572 0.227116 0.468567 0)" d="M370.663 830.082Q380.825 829.941 390.988 830L391 849.948C384.396 850.137 377.769 850.024 371.162 850.004C371.138 843.566 371.664 836.412 370.663 830.082Z"/>
	<path fill="#1F033D" transform="matrix(0.227116 0.000457572 -0.000457572 0.227116 0.468567 0)" d="M281.014 641.007L325.993 640.999L326.038 662.687C333.083 662.98 340.109 662.968 347.158 662.928C346.882 670.623 346.451 678.252 347.106 685.939C354.026 685.974 361.086 686.265 367.979 685.579C367.903 698.762 365.955 721.67 368.332 733.829C361.297 734.109 354.175 733.911 347.13 733.939L347.017 685.928C340.047 685.846 333.066 685.947 326.095 685.968C326.174 678.296 326.058 670.611 326.038 662.938C311.236 662.389 296.295 662.864 281.479 662.948L281.448 686.052L260.477 686.15L260.459 707.776C253.399 707.504 246.318 707.702 239.255 707.797Q239.151 696.857 239.183 685.917C232.145 685.77 225.077 685.931 218.036 685.962Q218.074 674.462 217.935 662.962L239.071 662.996Q239.052 674.491 239.212 685.985L260.285 685.99C260.784 678.241 260.623 670.377 260.42 662.617Q270.741 662.651 281.061 662.485L281.014 641.007Z"/>
	<path fill="#9F292A" transform="matrix(0.227116 0.000457572 -0.000457572 0.227116 0.468567 0)" d="M367.979 685.579Q377.059 685.472 386.14 685.546C386.603 691.673 386.475 697.809 386.43 703.948L407.465 703.957L407.428 725.012L426.634 724.947Q427.187 747.481 426.507 770.011L443.966 770.038C443.693 774.401 441.856 787.03 444.82 790.221C445.361 790.804 446.934 790.612 447.72 790.645L445.505 791.203C444.756 792.493 444.95 793.558 444.924 795.033L444.334 791.259C439.16 790.192 432.311 791.031 426.97 791.177L426.941 810.026L426.405 810.089C426.82 803.99 426.493 797.659 426.497 791.534C420.287 791.619 413.618 792.111 407.5 791.126C407.465 784.138 407.84 776.943 407.088 769.996C400.673 769.87 394.232 769.993 387.814 770C386.444 763.827 387.473 742.33 387.508 734.503L369.056 734.504L368.332 733.829C365.955 721.67 367.903 698.762 367.979 685.579Z"/>
	<path fill="#FA6200" transform="matrix(0.227116 0.000457572 -0.000457572 0.227116 0.468567 0)" d="M387.998 734.131Q397.928 733.929 407.86 734.038C407.726 739.509 408.439 767.16 407.088 769.996C400.673 769.87 394.232 769.993 387.814 770L387.998 734.131Z"/>
	<path fill="#1F033D" transform="matrix(0.227116 0.000457572 -0.000457572 0.227116 0.468567 0)" d="M555.976 831.038C562.777 830.993 569.605 831.07 576.402 830.863C576.082 837.477 576.361 844.355 576.572 850.979C570.229 851.09 563.833 851.665 557.532 850.74C557.385 859.744 556.003 879.985 557.786 887.977L536.024 888.044L536.056 867.161C519.946 867.572 502.996 867.888 486.917 867.145Q486.817 877.573 486.881 888L465.015 887.921C465.388 876.04 466.46 861.69 465.169 850.011L487.137 850.011C488.063 844.151 487.482 837.194 487.551 831.212C503.471 830.069 520.035 830.952 536.009 830.985L555.976 831.038Z"/>
	<path fill="#D53201" transform="matrix(0.227116 0.000457572 -0.000457572 0.227116 0.468567 0)" d="M555.976 831.038C562.777 830.993 569.605 831.07 576.402 830.863C576.082 837.477 576.361 844.355 576.572 850.979C570.229 851.09 563.833 851.665 557.532 850.74C550.617 848.998 543.041 849.815 535.979 850.037L536.009 830.985L555.976 831.038Z"/>
	<path fill="#D53201" transform="matrix(0.227116 0.000457572 -0.000457572 0.227116 0.468567 0)" d="M447.72 790.645Q456.576 790.388 465.436 790.495Q465.591 800.729 465.482 810.963C472.485 810.57 479.465 810.513 486.477 810.494C486.438 817.281 486.178 824.18 486.962 830.934C487.178 837.276 486.538 843.695 487.137 850.011L465.169 850.011C466.46 861.69 465.388 876.04 465.015 887.921C458.119 887.908 451.097 887.668 444.224 888.196C443.616 882.491 444.017 876.52 444.093 870.785C438.554 869.109 432.179 869.845 426.449 870.017L426.543 850C426.515 847.881 426.689 845.843 426.903 843.739C427.123 839.145 426.957 834.467 426.973 829.864L426.941 810.026L426.97 791.177C432.311 791.031 439.16 790.192 444.334 791.259L444.924 795.033C444.95 793.558 444.756 792.493 445.505 791.203L447.72 790.645Z"/>
	<path fill="#9F292A" transform="matrix(0.227116 0.000457572 -0.000457572 0.227116 0.468567 0)" d="M464.959 871.524C464.876 864.494 464.351 856.985 465.169 850.011C466.46 861.69 465.388 876.04 465.015 887.921C458.119 887.908 451.097 887.668 444.224 888.196C443.616 882.491 444.017 876.52 444.093 870.785L444.566 870.886C450.896 872.275 458.455 871.565 464.959 871.524Z"/>
	<path fill="#74241C" transform="matrix(0.227116 0.000457572 -0.000457572 0.227116 0.468567 0)" d="M447.72 790.645Q456.576 790.388 465.436 790.495Q465.591 800.729 465.482 810.963C472.485 810.57 479.465 810.513 486.477 810.494C486.438 817.281 486.178 824.18 486.962 830.934C479.626 830.842 472.277 830.968 464.941 831.004C464.666 824.528 465.011 818.012 465.188 811.535C458.441 811.007 451.749 811.269 444.993 811.398L444.924 795.033C444.95 793.558 444.756 792.493 445.505 791.203L447.72 790.645Z"/>
	<path fill="#FE972A" transform="matrix(0.227116 0.000457572 -0.000457572 0.227116 0.468567 0)" d="M426.97 791.177C432.311 791.031 439.16 790.192 444.334 791.259L444.924 795.033L444.993 811.398L444.942 849.569C440.727 849.863 430.878 851.404 427.213 849.232C426.926 847.374 426.891 845.617 426.903 843.739C427.123 839.145 426.957 834.467 426.973 829.864L426.941 810.026L426.97 791.177Z"/>
	<path fill="#F32D08" transform="matrix(0.227116 0.000457572 -0.000457572 0.227116 0.468567 0)" d="M443.966 770.038L466.017 770.008C466.015 776.745 466.14 783.513 465.755 790.24C495.799 791.812 525.973 789.959 556.024 790.017L575.991 790.018C575.883 796.546 575.333 803.541 576.296 810.008C576.956 816.552 577.956 824.45 576.402 830.863C569.605 831.07 562.777 830.993 555.976 831.038L536.009 830.985C520.035 830.952 503.471 830.069 487.551 831.212C487.482 837.194 488.063 844.151 487.137 850.011C486.538 843.695 487.178 837.276 486.962 830.934C486.178 824.18 486.438 817.281 486.477 810.494C479.465 810.513 472.485 810.57 465.482 810.963Q465.591 800.729 465.436 790.495Q456.576 790.388 447.72 790.645C446.934 790.612 445.361 790.804 444.82 790.221C441.856 787.03 443.693 774.401 443.966 770.038Z"/>
	<path fill="#98130E" transform="matrix(0.227116 0.000457572 -0.000457572 0.227116 0.468567 0)" d="M556.024 790.017L575.991 790.018C575.883 796.546 575.333 803.541 576.296 810.008C569.53 809.668 562.8 809.877 556.033 810.066C556.215 803.389 556.075 796.695 556.024 790.017Z"/>
	<path fill="#98130E" transform="matrix(0.227116 0.000457572 -0.000457572 0.227116 0.468567 0)" d="M536.315 810.487C542.852 810.485 549.408 810.583 555.941 810.317C556.435 817.285 556.316 824.06 555.976 831.038L536.009 830.985C536.362 824.141 536.377 817.339 536.315 810.487Z"/>
	<path fill="#9F292A" transform="matrix(0.227116 0.000457572 -0.000457572 0.227116 0.468567 0)" d="M486.477 810.494L536.315 810.487C536.377 817.339 536.362 824.141 536.009 830.985C520.035 830.952 503.471 830.069 487.551 831.212C487.482 837.194 488.063 844.151 487.137 850.011C486.538 843.695 487.178 837.276 486.962 830.934C486.178 824.18 486.438 817.281 486.477 810.494Z"/>
	<path fill="#1F033D" transform="matrix(0.227116 0.000457572 -0.000457572 0.227116 0.468567 0)" d="M695.926 117.413L717.913 117.449L717.782 139.996L738.542 140.023L738.502 277.984C731.699 278.007 724.864 277.898 718.066 278.122L717.928 337.027C710.805 337.017 703.605 336.808 696.496 337.232C697.142 325.106 696.686 313.113 696.623 300.999C696.584 293.344 696.916 285.666 696.982 278.005L717.98 277.999C718.018 262.248 718.577 246.255 717.705 230.531C716.697 211.568 717.495 192.201 717.532 173.198L717.516 139.77C710.123 139.402 702.577 139.852 695.166 139.906C696.343 132.578 695.266 124.822 695.926 117.413Z"/>
	<path fill="#1F033D" transform="matrix(0.227116 0.000457572 -0.000457572 0.227116 0.468567 0)" d="M154.416 273.921L176.338 273.884C176.582 280.9 176.333 287.962 176.448 294.989C182.615 295.319 188.755 295.214 194.927 295.119C194.844 302.082 194.715 309.129 195.196 316.078C196.933 322.388 195.858 330.41 195.612 336.924L195.035 337.455C175.532 337.728 155.995 337.49 136.489 337.492L135.949 337.106Q125.45 336.927 114.949 337.006Q114.182 347.487 114.61 357.987L94.8265 358.021C94.8726 371.511 95.0446 385.013 94.9484 398.502L73.9752 398.509C74.6525 385.132 74.1348 371.496 74.1327 358.09L94.5471 358L94.5361 336.526L114.96 336.465L115.019 315.569Q125.534 315.669 136.049 315.531C136.241 308.593 136.104 301.618 136.114 294.676C142.166 294.741 148.237 294.588 154.29 294.537C154.697 287.712 154.438 280.761 154.416 273.921Z"/>
	<path fill="#FE972A" transform="matrix(0.227116 0.000457572 -0.000457572 0.227116 0.468567 0)" d="M154.08 295.008C161.334 294.933 168.597 294.767 175.846 295.102C176.325 301.965 176.119 308.807 175.971 315.678C182.368 315.597 188.834 315.292 195.196 316.078C196.933 322.388 195.858 330.41 195.612 336.924L195.035 337.455C175.532 337.728 155.995 337.49 136.489 337.492L135.949 337.106L135.989 315.913L154.021 315.992L154.08 295.008Z"/>
	<path fill="#1F033D" transform="matrix(0.227116 0.000457572 -0.000457572 0.227116 0.468567 0)" d="M32.1323 450.018L52.4598 449.982L52.3857 624.6C60.0499 624.762 67.7105 624.279 75.3554 624.951C75.3953 620.058 75.5003 615.156 75.4213 610.263C75.6112 607.523 75.4184 604.737 75.3391 601.992Q86.6786 602.163 98.0178 601.973C97.6319 609.45 97.834 616.964 97.9051 624.448Q86.8479 624.482 75.795 624.795L75.926 657.013C67.9705 656.901 60.0019 656.999 52.045 657.003L52.0242 640.054L32.018 640.069L32.1323 450.018Z"/>
	<path fill="#FA6200" transform="matrix(0.227116 0.000457572 -0.000457572 0.227116 0.468567 0)" d="M114.949 337.006Q125.45 336.927 135.949 337.106L136.489 337.492C136.488 342.728 137.637 373.337 135.373 375.654C129.324 376.354 123.05 376.047 116.962 376.022L117.009 417.773C110.007 417.745 102.983 417.838 95.9834 417.679Q95.5229 444.093 95.9953 470.506Q85.2359 470.48 74.4783 470.677L74.5345 564.755Q74.4102 581.099 74.7447 597.439C74.8586 601.574 74.6677 606.21 75.4213 610.263C75.5003 615.156 75.3953 620.058 75.3554 624.951C67.7105 624.279 60.0499 624.762 52.3857 624.6L52.4598 449.982C53.4568 443.708 52.9929 436.836 53.0013 430.474L53.0157 398.596C59.9571 398.967 67.0346 398.88 73.9752 398.509L94.9484 398.502C95.0446 385.013 94.8726 371.511 94.8265 358.021L114.61 357.987Q114.182 347.487 114.949 337.006Z"/>
	<path fill="#1F033D" transform="matrix(0.227116 0.000457572 -0.000457572 0.227116 0.468567 0)" d="M73.9752 398.509Q73.6146 413.41 73.7841 428.314C73.8543 435.467 74.385 442.876 73.4818 449.986L52.4598 449.982C53.4568 443.708 52.9929 436.836 53.0013 430.474L53.0157 398.596C59.9571 398.967 67.0346 398.88 73.9752 398.509Z"/>
	<path fill="#9F292A" transform="matrix(0.227116 0.000457572 -0.000457572 0.227116 0.468567 0)" d="M638.002 685.495L656.479 685.492C655.735 704.683 656.388 723.88 655.949 743.067C655.03 750.734 654.97 758.648 654.613 766.369C654.252 774.189 653.547 782.21 653.934 790.03Q654.122 800.158 654.113 810.287C649.102 810.291 644.039 810.446 639.037 810.133L639.114 830.105C632.303 830.046 625.512 829.881 618.719 830.46C618.825 836.789 619.026 843.13 618.992 849.46Q618.893 859.215 618.945 868.97C611.945 869.031 604.939 869.033 597.941 869.176C597.38 875.456 597.587 881.837 597.626 888.139C591.594 888.227 583.802 889.234 577.979 888.15C571.47 887.455 564.363 887.988 557.786 887.977C556.003 879.985 557.385 859.744 557.532 850.74C563.833 851.665 570.229 851.09 576.572 850.979C576.361 844.355 576.082 837.477 576.402 830.863C577.956 824.45 576.956 816.552 576.296 810.008C575.333 803.541 575.883 796.546 575.991 790.018C582.962 790.02 590.078 789.719 597.032 790.08L597.052 767.973L596.997 743.121C603.986 743.337 610.989 743.385 617.981 743.515Q617.643 724.273 617.508 705.029L637.667 704.899Q637.719 695.195 638.002 685.495Z"/>
	<path fill="#1F033D" transform="matrix(0.227116 0.000457572 -0.000457572 0.227116 0.468567 0)" d="M578.029 869.005Q587.986 868.954 597.941 869.176C597.38 875.456 597.587 881.837 597.626 888.139C591.594 888.227 583.802 889.234 577.979 888.15C578.109 881.776 578.016 875.381 578.029 869.005Z"/>
	<path fill="#74241C" transform="matrix(0.227116 0.000457572 -0.000457572 0.227116 0.468567 0)" d="M597.412 790.342C604.303 790.444 611.494 790.914 618.343 790.05C617.998 796.67 617.722 803.388 618.411 809.994L597.498 810.003Q597.62 800.172 597.412 790.342Z"/>
	<path fill="#1F033D" transform="matrix(0.227116 0.000457572 -0.000457572 0.227116 0.468567 0)" d="M598.02 849.486L618.992 849.46Q618.893 859.215 618.945 868.97C611.945 869.031 604.939 869.033 597.941 869.176C598.119 862.626 598.001 856.04 598.02 849.486Z"/>
	<path fill="#1F033D" transform="matrix(0.227116 0.000457572 -0.000457572 0.227116 0.468567 0)" d="M637.911 743.062Q646.93 742.978 655.949 743.067C655.03 750.734 654.97 758.648 654.613 766.369C654.252 774.189 653.547 782.21 653.934 790.03C642.195 789.824 630.418 790.013 618.675 790.014C619.08 782.388 618.941 774.715 618.946 767.079C625.268 767.342 631.632 767.215 637.96 767.214Q637.714 755.138 637.911 743.062Z"/>
	<path fill="#D53201" transform="matrix(0.227116 0.000457572 -0.000457572 0.227116 0.468567 0)" d="M575.991 790.018C582.962 790.02 590.078 789.719 597.032 790.08L597.412 790.342Q597.62 800.172 597.498 810.003L618.411 809.994L618.536 830.337C612.773 830.777 607.036 831.121 601.252 830.973C593.106 830.765 584.504 829.764 576.402 830.863C577.956 824.45 576.956 816.552 576.296 810.008C575.333 803.541 575.883 796.546 575.991 790.018Z"/>
	<path fill="#1F033D" transform="matrix(0.227116 0.000457572 -0.000457572 0.227116 0.468567 0)" d="M848.071 274.075L870.16 274.036L870.341 295.153L889.142 295.136Q889.275 305.498 889.287 315.861C895.859 315.81 902.454 315.87 909.022 315.658L909.061 336.724C915.52 336.955 921.963 336.931 928.425 336.891C928.451 343.903 928.296 350.983 928.786 357.978Q939.145 357.953 949.499 358.252L949.506 398.738Q959.711 399.031 969.918 398.885Q969.82 424.218 970.162 449.547L991.91 449.391L991.615 640.011L971.977 640.045L971.893 656.974L948.142 657.007Q948.013 640.98 948.214 624.954L925.143 624.893C925.138 617.488 925.817 609.278 924.792 601.977Q936.73 602.159 948.669 602.017C950.602 587.799 948.998 573.102 948.972 558.783L949.002 470.504L927.358 470.465L927.51 417.53L907.475 417.713L907.502 376.007L888.993 376.014C889.035 367.589 887.857 343.584 889.427 336.91L889.249 336.727Q879.446 337.12 869.636 337.006C869.649 329.982 869.708 322.985 870.033 315.968Q870.212 305.939 870.144 295.909L848.483 296.017C848.465 302.671 848.336 309.352 848.583 316L828.81 316.012C828.993 322.564 829.638 329.666 828.421 336.133Q818.1 335.807 807.776 336.025C808.596 329.198 808.125 321.927 808.077 315.042L828.278 315.07Q828.035 305.363 828.066 295.653C834.771 295.739 841.494 295.937 848.196 295.651L848.071 274.075Z"/>
	<path fill="#F32D08" transform="matrix(0.227116 0.000457572 -0.000457572 0.227116 0.468567 0)" d="M870.033 315.968Q879.585 316.106 889.138 316.003C889.113 322.803 888.635 329.961 889.249 336.727Q879.446 337.12 869.636 337.006C869.649 329.982 869.708 322.985 870.033 315.968Z"/>
	<path fill="#FA6200" transform="matrix(0.227116 0.000457572 -0.000457572 0.227116 0.468567 0)" d="M889.427 336.91Q899.247 336.831 909.063 336.567C909.023 343.697 908.777 350.903 909.377 358.011C915.879 357.975 922.395 357.845 928.894 358.073L928.653 398.549C935.583 398.512 942.558 398.328 949.48 398.672L949.445 450.012C956.423 450.008 963.42 450.109 970.395 449.947C971.687 475.641 971.324 501.532 971.261 527.258L970.642 624.843C963.252 624.796 955.834 624.879 948.45 624.627C948.454 617.102 948.298 609.533 948.669 602.017C950.602 587.799 948.998 573.102 948.972 558.783L949.002 470.504L927.358 470.465L927.51 417.53L907.475 417.713L907.502 376.007L888.993 376.014C889.035 367.589 887.857 343.584 889.427 336.91Z"/>
	<path fill="#FA6200" transform="matrix(0.227116 0.000457572 -0.000457572 0.227116 0.468567 0)" d="M559.917 516.002C571.919 514.98 583.992 515.549 596.01 516.03L595.994 536.501L616.947 536.453C617.145 530.034 617.019 523.665 616.816 517.248Q627.441 516.967 638.069 517.026C638.025 522.958 637.641 529.14 638.553 535.014L638.245 535.402Q637.961 554.702 638.033 574.003L638.007 663.101L638.002 685.495Q637.719 695.195 637.667 704.899L617.508 705.029Q617.643 724.273 617.981 743.515C610.989 743.385 603.986 743.337 596.997 743.121L597.052 767.973L597.032 790.08C590.078 789.719 582.962 790.02 575.991 790.018L556.024 790.017C525.973 789.959 495.799 791.812 465.755 790.24C466.14 783.513 466.015 776.745 466.017 770.008L443.966 770.038L426.507 770.011Q427.187 747.481 426.634 724.947L407.428 725.012L407.465 703.957L386.43 703.948C386.475 697.809 386.603 691.673 386.14 685.546C385.823 678.05 385.974 670.515 385.992 663.012L385.942 574.223Q385.609 555.118 385.481 536.01C392.016 535.932 398.555 535.767 405.084 536.119L405.355 536.079L425.638 536.038L425.683 552.671C426.108 547.333 425.919 541.823 425.978 536.462L442.96 536.487C450.046 536.26 457.06 536.111 464.145 536.497L464.368 536.915Q475.223 537.191 486.078 536.956L486.399 536.708C496.152 537.493 506.301 536.611 516.1 536.581C522.941 536.56 530.274 537.331 537.055 536.833L537.579 537.01Q548.542 537.089 559.504 536.977Q559.619 527.809 559.553 518.64L559.917 516.002Z"/>
	<path fill="#98130E" transform="matrix(0.227116 0.000457572 -0.000457572 0.227116 0.468567 0)" d="M576.013 767.398C583.031 768.059 590.013 768.008 597.052 767.973L597.032 790.08C590.078 789.719 582.962 790.02 575.991 790.018C575.859 782.485 575.991 774.933 576.013 767.398Z"/>
	<path fill="#98130E" transform="matrix(0.227116 0.000457572 -0.000457572 0.227116 0.468567 0)" d="M559.917 516.002C571.919 514.98 583.992 515.549 596.01 516.03L595.994 536.501L616.947 536.453C617.145 530.034 617.019 523.665 616.816 517.248Q627.441 516.967 638.069 517.026C638.025 522.958 637.641 529.14 638.553 535.014L638.245 535.402Q637.961 554.702 638.033 574.003C620.011 574.216 602.019 574.571 583.993 574.368Q557.246 574.571 530.5 574.25L425.005 574.186L385.942 574.223Q385.609 555.118 385.481 536.01C392.016 535.932 398.555 535.767 405.084 536.119L405.355 536.079L425.638 536.038L425.683 552.671C426.108 547.333 425.919 541.823 425.978 536.462L442.96 536.487C450.046 536.26 457.06 536.111 464.145 536.497L464.368 536.915Q475.223 537.191 486.078 536.956L486.399 536.708C496.152 537.493 506.301 536.611 516.1 536.581C522.941 536.56 530.274 537.331 537.055 536.833L537.579 537.01Q548.542 537.089 559.504 536.977Q559.619 527.809 559.553 518.64L559.917 516.002Z"/>
	<path fill="#FA6200" transform="matrix(0.227116 0.000457572 -0.000457572 0.227116 0.468567 0)" d="M442.96 536.487C450.046 536.26 457.06 536.111 464.145 536.497L464.368 536.915C464.357 543.589 464.521 550.364 464.12 557.025C458.522 557.412 429.224 559.167 426.01 556.738C425.624 555.293 425.6 554.16 425.683 552.671C426.108 547.333 425.919 541.823 425.978 536.462L442.96 536.487Z"/>
	<path fill="#F32D08" transform="matrix(0.227116 0.000457572 -0.000457572 0.227116 0.468567 0)" d="M385.481 536.01C392.016 535.932 398.555 535.767 405.084 536.119Q404.94 546.817 404.985 557.516L425.529 557.584Q424.938 565.875 425.005 574.186L385.942 574.223Q385.609 555.118 385.481 536.01Z"/>
	<path fill="#FA6200" transform="matrix(0.227116 0.000457572 -0.000457572 0.227116 0.468567 0)" d="M486.399 536.708C496.152 537.493 506.301 536.611 516.1 536.581C522.941 536.56 530.274 537.331 537.055 536.833L537.579 537.01Q537.856 547.547 537.979 558.086L485.979 558.403L486.078 536.956L486.399 536.708Z"/>
	<path fill="#F32D08" transform="matrix(0.227116 0.000457572 -0.000457572 0.227116 0.468567 0)" d="M616.995 536.413C624.019 535.36 631.155 535.588 638.245 535.402Q637.961 554.702 638.033 574.003C620.011 574.216 602.019 574.571 583.993 574.368C587.964 573.992 592.018 574.138 596.006 574.138L596.007 557.921L617.02 557.801L616.995 536.413Z"/>
	<path fill="#FA6200" transform="matrix(0.227116 0.000457572 -0.000457572 0.227116 0.468567 0)" d="M559.917 516.002C571.919 514.98 583.992 515.549 596.01 516.03L595.994 536.501C596.174 543.521 596.368 550.473 595.811 557.483Q577.521 557.875 559.229 557.59L559.504 536.977Q559.619 527.809 559.553 518.64L559.917 516.002Z"/>
	<path fill="#9F292A" transform="matrix(0.227116 0.000457572 -0.000457572 0.227116 0.468567 0)" d="M559.917 516.002C571.919 514.98 583.992 515.549 596.01 516.03L595.994 536.501C583.818 536.492 571.672 536.475 559.504 536.977Q559.619 527.809 559.553 518.64L559.917 516.002Z"/>
	<path fill="#FE972A" transform="matrix(0.227116 0.000457572 -0.000457572 0.227116 0.468567 0)" d="M426.034 592.021L595.994 592.029L595.994 623.513Q606.732 623.098 617.477 623.106L617.475 642.054L595.658 642.017C595.395 656.499 595.562 671.015 595.524 685.501Q584.259 685.466 572.996 685.229L573.04 699.789C573.052 701.612 573.17 703.208 571.875 704.599C564.392 706.291 554.703 705.011 546.955 704.82L546.969 724.507L472.411 724.019C471.986 717.349 472.217 710.692 472.4 704.018L449.5 704.015L449.529 685.075L426.909 685.267L427.011 641.998L408.009 642.034L408.007 623.41C414.148 623.107 420.3 623.092 426.447 623.022L426.034 592.021Z"/>
	<path fill="#9F292A" transform="matrix(0.227116 0.000457572 -0.000457572 0.227116 0.468567 0)" d="M195.612 336.924Q205.805 336.919 215.997 336.73C215.983 342.144 215.032 353.141 216.364 357.928C223.13 357.588 230.356 357.27 237.099 357.844L237.078 379.098L258.122 378.986L258.561 379.168C259.741 386.069 259.012 394.054 258.892 401.062C265.757 401.025 272.652 400.866 279.514 401.076L279.804 401.441C296.92 400.979 314.112 401.818 331.247 401.543C330.745 392.812 331.031 383.933 330.978 375.184L330.471 336.473C336.395 336.45 343.401 335.705 349.186 336.946C348.318 345.918 348.512 354.913 348.507 363.917L348.503 399.891L348.49 413.285Q337.495 413.346 326.505 413.035L326.502 432.494L348.607 432.509L348.476 466.469L367.504 466.507L367.475 492.336C370.261 492.783 372.908 492.474 375.695 492.566C378.583 492.489 382.614 491.843 384.888 493.975L385.303 495.417C389.201 497.381 418.801 495.934 425.597 496.008C425.487 509.246 424.772 522.842 425.638 536.038L405.355 536.079L405.084 536.119C398.555 535.767 392.016 535.932 385.481 536.01Q385.609 555.118 385.942 574.223L385.992 663.012C385.974 670.515 385.823 678.05 386.14 685.546Q377.059 685.472 367.979 685.579C361.086 686.265 354.026 685.974 347.106 685.939C346.451 678.252 346.882 670.623 347.158 662.928C340.109 662.968 333.083 662.98 326.038 662.687L325.993 640.999L281.014 641.007L281.061 662.485Q270.741 662.651 260.42 662.617C260.623 670.377 260.784 678.241 260.285 685.99L239.212 685.985Q239.052 674.491 239.071 662.996L217.935 662.962C217.851 655.708 217.407 648.236 217.977 641.009C210.974 640.616 203.903 640.908 196.891 641.028C196.028 636.261 196.612 630.846 196.818 626.005L178.564 625.978L178.757 602.002Q166.826 602.065 154.896 601.922C141.8 601.435 128.597 601.781 115.489 601.809C109.792 601.821 103.717 602.244 98.0688 601.652L98.0178 601.973Q86.6786 602.163 75.3391 601.992C75.4184 604.737 75.6112 607.523 75.4213 610.263C74.6677 606.21 74.8586 601.574 74.7447 597.439Q74.4102 581.098 74.5345 564.755L74.4783 470.677Q85.236 470.479 95.9953 470.506Q95.5229 444.092 95.9834 417.679C102.983 417.838 110.007 417.745 117.009 417.773L116.962 376.022C123.05 376.047 129.324 376.354 135.373 375.654C137.637 373.337 136.488 342.728 136.489 337.492C155.995 337.49 175.532 337.728 195.035 337.455L195.612 336.924Z"/>
	<path fill="#1F033D" transform="matrix(0.227116 0.000457572 -0.000457572 0.227116 0.468567 0)" d="M367.904 663.098L385.992 663.012C385.974 670.515 385.823 678.05 386.14 685.546Q377.059 685.472 367.979 685.579Q368.087 677.674 367.913 669.77L367.904 663.098Z"/>
	<path fill="#FA6200" transform="matrix(0.227116 0.000457572 -0.000457572 0.227116 0.468567 0)" d="M195.612 336.924Q205.805 336.919 215.997 336.73C215.983 342.144 215.032 353.141 216.364 357.928L216.042 358.009C209.004 357.51 202.017 357.71 194.981 358.041L195.035 337.455L195.612 336.924Z"/>
	<path fill="#1F033D" transform="matrix(0.227116 0.000457572 -0.000457572 0.227116 0.468567 0)" d="M375.695 492.566C378.583 492.489 382.614 491.843 384.888 493.975L385.303 495.417C384.278 502.431 384.957 510.285 385.026 517.391L384.931 533.435C379.083 533.696 373.233 533.574 367.381 533.506C367.099 519.974 366.757 506.571 367.574 493.052C370.347 493.061 372.946 492.996 375.695 492.566Z"/>
	<path fill="#FA6200" transform="matrix(0.227116 0.000457572 -0.000457572 0.227116 0.468567 0)" d="M385.303 495.417C389.201 497.381 418.801 495.934 425.597 496.008C425.487 509.246 424.772 522.842 425.638 536.038L405.355 536.079Q405.386 527.051 405.162 518.026C398.739 518.377 391.266 519.255 385.026 517.391C384.957 510.285 384.278 502.431 385.303 495.417Z"/>
	<path fill="#FE972A" transform="matrix(0.227116 0.000457572 -0.000457572 0.227116 0.468567 0)" d="M216.364 357.928C223.13 357.588 230.356 357.27 237.099 357.844L237.078 379.098L258.122 378.986L258.561 379.168C259.741 386.069 259.012 394.054 258.892 401.062C265.757 401.025 272.652 400.866 279.514 401.076L279.804 401.441C280.215 408.784 280.052 416.157 279.999 423.51C287.175 423.452 294.37 423.493 301.539 423.188L301.549 441.402C309.413 440.921 317.157 440.626 324.989 441.742L325.086 456.841C324.837 459.859 324.971 462.99 324.962 466.024C317.012 466.663 308.964 466.426 300.992 466.391L300.996 447.006L279.991 447.011Q280.112 435.41 279.885 423.81C272.739 424.337 265.48 424.079 258.322 423.986L258.495 401.376C251.325 401.497 244.144 401.461 236.972 401.496C237.092 394.171 237.357 386.782 236.504 379.494C229.775 380.632 222.771 380.161 215.979 379.994Q215.923 369.001 216.042 358.009L216.364 357.928Z"/>
	<path fill="#1F033D" transform="matrix(0.227116 0.000457572 -0.000457572 0.227116 0.468567 0)" d="M330.471 336.473C336.395 336.45 343.401 335.705 349.186 336.946C348.318 345.918 348.512 354.913 348.507 363.917L348.503 399.891L348.49 413.285Q337.495 413.346 326.505 413.035L326.502 432.494L348.607 432.509L348.476 466.469L367.504 466.507L367.475 492.336C361.236 490.99 353.508 491.875 347.14 492.014Q347.204 479.017 347.63 466.026C340.216 465.922 332.787 466.028 325.372 466.04C325.36 462.965 325.251 459.912 325.086 456.841L324.989 441.742C317.157 440.626 309.413 440.921 301.549 441.402L301.539 423.188C294.37 423.493 287.175 423.452 279.999 423.51C280.052 416.157 280.215 408.784 279.804 401.441C296.92 400.979 314.112 401.818 331.247 401.543C330.745 392.812 331.031 383.933 330.978 375.184L330.471 336.473Z"/>
	<path fill="#FA6200" transform="matrix(0.227116 0.000457572 -0.000457572 0.227116 0.468567 0)" d="M154.604 355.002L176.013 354.992L176.007 375.023C182.995 374.806 190.006 374.468 196.996 374.455L197.479 463.205C204.303 463.248 211.191 463.109 218.004 463.451L218.016 523.265Q228.521 523.22 239.024 523.057L239.381 606.245C239.477 625.14 239.932 644.115 239.071 662.996L217.935 662.962C217.851 655.708 217.407 648.236 217.977 641.009L218.507 545.116Q207.751 545.124 196.996 545.245L197.012 483.768L176.235 483.959L176.016 392.948L154.924 393.024C154.808 380.359 154.509 367.666 154.604 355.002Z"/>
	<path fill="#C2504C" transform="matrix(0.227116 0.000457572 -0.000457572 0.227116 0.468567 0)" d="M118.011 472.132C124.822 472.118 131.66 471.974 138.467 472.127L138.504 493.979C144.301 494.06 150.188 493.942 155.969 494.297L155.998 516.004L177.463 516.04L177.475 557.375C183.96 557.293 190.485 557.048 196.963 557.438L197.003 602.882C197.01 610.457 197.615 618.491 196.818 626.005L178.564 625.978L178.757 602.002Q166.826 602.065 154.896 601.922C141.8 601.435 128.597 601.781 115.489 601.809C109.792 601.821 103.717 602.244 98.0688 601.652C97.8799 595.282 98.0596 588.855 98.0647 582.479L98.0395 521.117L118.065 520.999L118.011 472.132Z"/>
	<path fill="#1F033D" transform="matrix(0.227116 0.000457572 -0.000457572 0.227116 0.468567 0)" d="M98.0647 582.479C116.984 583.039 135.756 582.934 154.679 582.499C154.564 588.739 153.865 595.767 154.896 601.922C141.8 601.435 128.597 601.781 115.489 601.809C109.792 601.821 103.717 602.244 98.0688 601.652C97.8799 595.282 98.0596 588.855 98.0647 582.479Z"/>
	<path fill="#C2504C" transform="matrix(0.227116 0.000457572 -0.000457572 0.227116 0.468567 0)" d="M302.572 533.028C310.011 532.885 317.478 532.594 324.916 532.643Q324.807 544.941 324.964 557.238C331.957 557.19 338.981 556.996 345.97 557.128L345.996 600.09L366.993 600.018Q367.585 622.118 367.459 644.225C367.453 652.272 366.478 661.922 367.913 669.77Q368.087 677.674 367.979 685.579C361.086 686.265 354.026 685.974 347.106 685.939C346.451 678.252 346.882 670.623 347.158 662.928C340.109 662.968 333.083 662.98 326.038 662.687L325.993 640.999L281.014 641.007L281.061 662.485Q270.741 662.651 260.42 662.617C259.157 658.708 259.936 589.756 260.006 579.514L280.993 579.443L280.997 557.288Q291.798 557.128 302.593 557.494C302.58 549.344 302.454 541.177 302.572 533.028Z"/>
	<path fill="#9F292A" transform="matrix(0.227116 0.000457572 -0.000457572 0.227116 0.468567 0)" d="M848.483 296.017L870.144 295.909Q870.212 305.939 870.033 315.968C869.708 322.985 869.649 329.982 869.636 337.006Q879.446 337.12 889.249 336.727L889.427 336.91C887.857 343.584 889.035 367.589 888.993 376.014L907.502 376.007L907.475 417.713L927.51 417.53L927.358 470.465L949.002 470.504L948.972 558.783C948.998 573.102 950.602 587.799 948.669 602.017Q936.73 602.159 924.792 601.977Q899.46 601.818 874.128 602.011L873.897 602.717C864.085 603.954 853.34 603.077 843.418 602.938C843.508 610.117 843.481 617.326 843.98 624.489L826.074 624.483Q826.726 632.721 826.295 640.973Q815.893 641.11 805.49 640.995C805.475 648.331 805.592 655.695 805.387 663.026L804.953 663.149C798.648 664.284 791.156 663.554 784.727 663.468C786.354 670.253 785.533 678.241 785.057 685.132L763.96 685.126L764.035 663.41C757.977 663.24 751.872 663.7 745.834 663.101L744.012 662.852C736.949 661.515 706.245 661.909 697.974 662.788C691.448 663.536 683.529 663.716 676.996 663.118C677.169 670.476 677.683 678.106 676.765 685.427C670.006 685.52 663.239 685.477 656.479 685.492L638.002 685.495L638.007 663.101L638.033 574.003Q637.961 554.701 638.245 535.402L638.553 535.014C637.641 529.14 638.025 522.958 638.069 517.026Q627.441 516.967 616.816 517.248C617.019 523.665 617.145 530.034 616.947 536.453L595.994 536.501L596.01 516.03C595.989 509.375 596.065 502.765 596.406 496.119L596.989 480.37Q579.889 480.144 562.867 478.499L563.084 478.698L562.374 477.869C562.446 477.84 562.527 477.825 562.591 477.781C562.865 477.595 563.119 477.383 563.383 477.185L561.94 476.88C559.797 474.038 561.004 465.029 561.088 461.202L561.017 460.47C560.999 456.453 560.966 452.339 561.769 448.39C575.115 449.633 588.617 448.518 601.997 448.509C602.262 443.409 602.127 438.312 602.04 433.209L622.531 432.98L622.901 432.693C627.783 433.415 633.027 433.024 637.966 432.976Q637.971 423.456 637.781 413.937C650.505 414.081 663.136 414.435 675.841 413.495L676.008 366.745C676.035 357.03 676.429 347.142 675.619 337.462C682.524 336.969 689.573 337.194 696.496 337.232C695.222 344.292 695.763 352.225 695.715 359.411L695.59 399.397C711.372 399.512 727.249 399.831 743.019 399.135C742.831 391.935 742.662 384.769 742.923 377.569C748.72 377.593 760.537 378.533 765.546 376.971L766.156 377.066C772.881 377.033 779.619 376.881 786.33 377.375Q786.485 367.241 786.27 357.108C793.446 356.735 800.287 356.412 807.447 357.356C807.524 350.442 806.851 342.832 807.776 336.025Q818.1 335.807 828.421 336.133C829.638 329.666 828.993 322.564 828.81 316.012L848.583 316C848.336 309.352 848.465 302.671 848.483 296.017Z"/>
	<path fill="#1F033D" transform="matrix(0.227116 0.000457572 -0.000457572 0.227116 0.468567 0)" d="M638.007 663.101Q647.287 663.482 656.568 663.121C656.547 669.865 656.175 676.807 656.577 683.528L656.479 685.492L638.002 685.495L638.007 663.101Z"/>
	<path fill="#D53201" transform="matrix(0.227116 0.000457572 -0.000457572 0.227116 0.468567 0)" d="M656.996 663.004C663.651 662.988 670.347 662.838 676.996 663.118C677.169 670.476 677.683 678.106 676.765 685.427C670.006 685.52 663.239 685.477 656.479 685.492L656.577 683.528C657.593 676.917 657.057 669.688 656.996 663.004Z"/>
	<path fill="#D53201" transform="matrix(0.227116 0.000457572 -0.000457572 0.227116 0.468567 0)" d="M676.438 467.895C683.412 467.34 690.604 467.531 697.609 467.384C698.754 475.012 697.945 483.286 698.024 490.998C690.942 490.954 683.466 490.453 676.472 491.746L676.438 467.895Z"/>
	<path fill="#FE972A" transform="matrix(0.227116 0.000457572 -0.000457572 0.227116 0.468567 0)" d="M720.766 421.003L743.084 421.001Q743.221 432.503 743.052 444.004L720.929 443.99C720.969 436.437 721.478 428.506 720.766 421.003Z"/>
	<path fill="#FE972A" transform="matrix(0.227116 0.000457572 -0.000457572 0.227116 0.468567 0)" d="M697.844 443.932C705.412 443.957 713 443.809 720.563 444.046L720.458 466.6C715.819 466.62 701.804 467.666 698.256 466.627L697.829 465.633C698.158 458.429 697.903 451.145 697.844 443.932Z"/>
	<path fill="#1F033D" transform="matrix(0.227116 0.000457572 -0.000457572 0.227116 0.468567 0)" d="M676.438 467.895L676.472 491.746C669.692 492.273 662.82 492.04 656.025 491.919L656.018 534.958Q647.285 534.936 638.553 535.014C637.641 529.14 638.025 522.958 638.069 517.026L638.046 491.455L656.017 491.477L656.016 468.009Q666.228 468.085 676.438 467.895Z"/>
	<path fill="#FE972A" transform="matrix(0.227116 0.000457572 -0.000457572 0.227116 0.468567 0)" d="M848.483 296.017L870.144 295.909Q870.212 305.939 870.033 315.968C869.708 322.985 869.649 329.982 869.636 337.006C856.001 336.999 842.315 337.225 828.687 336.848C828.454 343.903 828.49 350.944 828.545 358.002L807.959 357.988L808.003 378.417C800.938 378.053 793.896 377.993 786.823 377.978C786.878 384.984 786.99 391.996 786.947 399.002L765.821 399.041C765.846 393.238 764.998 382.284 766.156 377.066C772.881 377.033 779.619 376.881 786.33 377.375Q786.485 367.241 786.27 357.108C793.446 356.735 800.287 356.412 807.447 357.356C807.524 350.442 806.851 342.832 807.776 336.025Q818.1 335.807 828.421 336.133C829.638 329.666 828.993 322.564 828.81 316.012L848.583 316C848.336 309.352 848.465 302.671 848.483 296.017Z"/>
	<path fill="#1F033D" transform="matrix(0.227116 0.000457572 -0.000457572 0.227116 0.468567 0)" d="M696.496 337.232C695.222 344.292 695.763 352.225 695.715 359.411L695.59 399.397C711.372 399.512 727.249 399.831 743.019 399.135C742.831 391.935 742.662 384.769 742.923 377.569C748.72 377.593 760.537 378.533 765.546 376.971Q765.36 388.244 765.452 399.519Q765.451 410.264 765.056 421.002C757.742 421.025 750.394 421.198 743.084 421.001L720.766 421.003C719.93 428.34 720.463 436.173 720.469 443.574C713.274 443.452 704.925 442.568 697.844 443.932C697.903 451.145 698.158 458.429 697.829 465.633L697.609 467.384C690.604 467.531 683.412 467.34 676.438 467.895C676.573 461.528 675.458 434.914 676.847 431.33C683.501 431.813 690.361 431.508 697.039 431.512Q697.165 422.508 697.051 413.503Q686.446 413.356 675.841 413.495L676.008 366.745C676.035 357.03 676.429 347.142 675.619 337.462C682.524 336.969 689.573 337.194 696.496 337.232Z"/>
	<path fill="#FE972A" transform="matrix(0.227116 0.000457572 -0.000457572 0.227116 0.468567 0)" d="M765.452 399.519Q765.451 410.264 765.056 421.002C757.742 421.025 750.394 421.198 743.084 421.001Q742.878 410.261 743.083 399.521L765.452 399.519Z"/>
	<path fill="#FA6200" transform="matrix(0.227116 0.000457572 -0.000457572 0.227116 0.468567 0)" d="M675.841 413.495Q686.446 413.356 697.051 413.503Q697.165 422.508 697.039 431.512C690.361 431.508 683.501 431.813 676.847 431.33C675.458 434.914 676.573 461.528 676.438 467.895Q666.228 468.085 656.016 468.009L656.017 491.477L638.046 491.455L638.069 517.026Q627.441 516.967 616.816 517.248C617.019 523.665 617.145 530.034 616.947 536.453L595.994 536.501L596.01 516.03C595.989 509.375 596.065 502.765 596.406 496.119L596.989 480.37Q579.889 480.144 562.867 478.499L563.084 478.698L562.374 477.869C562.446 477.84 562.527 477.825 562.591 477.781C562.865 477.595 563.119 477.383 563.383 477.185L561.94 476.88C559.797 474.038 561.004 465.029 561.088 461.202L561.017 460.47C560.999 456.453 560.966 452.339 561.769 448.39C575.115 449.633 588.617 448.518 601.997 448.509C602.262 443.409 602.127 438.312 602.04 433.209L622.531 432.98L622.901 432.693C627.783 433.415 633.027 433.024 637.966 432.976Q637.971 423.456 637.781 413.937C650.505 414.081 663.136 414.435 675.841 413.495Z"/>
	<path fill="#D53201" transform="matrix(0.227116 0.000457572 -0.000457572 0.227116 0.468567 0)" d="M655.936 431.03C662.83 430.961 669.993 430.6 676.847 431.33C675.458 434.914 676.573 461.528 676.438 467.895Q666.228 468.085 656.016 468.009L655.936 431.03Z"/>
	<path fill="#F32D08" transform="matrix(0.227116 0.000457572 -0.000457572 0.227116 0.468567 0)" d="M637.966 432.976L638.01 462.029Q627.631 461.693 617.252 462.008C617.251 465.043 617.425 468.214 617.161 471.233L617.06 461.634L616.391 461.577C611.536 461.128 606.796 461.29 601.935 461.471L601.997 448.509C602.262 443.409 602.127 438.312 602.04 433.209L622.531 432.98L622.901 432.693C627.783 433.415 633.027 433.024 637.966 432.976Z"/>
	<path fill="#1F033D" transform="matrix(0.227116 0.000457572 -0.000457572 0.227116 0.468567 0)" d="M602.04 433.209L622.531 432.98L622.321 448.586L601.997 448.509C602.262 443.409 602.127 438.312 602.04 433.209Z"/>
	<path fill="#9F292A" transform="matrix(0.227116 0.000457572 -0.000457572 0.227116 0.468567 0)" d="M561.769 448.39C575.115 449.633 588.617 448.518 601.997 448.509L601.935 461.471C606.796 461.29 611.536 461.128 616.391 461.577L617.06 461.634L617.161 471.233L617.066 476.986L580.942 476.94C576.256 476.926 567.616 475.997 563.383 477.185L561.94 476.88C559.797 474.038 561.004 465.029 561.088 461.202L561.017 460.47C560.999 456.453 560.966 452.339 561.769 448.39Z"/>
	<path fill="#1F033D" transform="matrix(0.227116 0.000457572 -0.000457572 0.227116 0.468567 0)" d="M561.769 448.39C575.115 449.633 588.617 448.518 601.997 448.509L601.935 461.471C595.514 461.605 565.167 462.736 561.088 461.202L561.017 460.47C560.999 456.453 560.966 452.339 561.769 448.39Z"/>
	<path fill="#FE972A" transform="matrix(0.227116 0.000457572 -0.000457572 0.227116 0.468567 0)" d="M848.484 353.27Q859.245 353.053 870.009 353.086L870.012 395.419Q859.508 395.629 849.006 395.31L849.005 479.004L825.992 479.009Q825.938 508.76 826.422 538.505L804.983 538.484L804.953 663.149C798.648 664.284 791.156 663.554 784.727 663.468C783.779 658.404 784.083 652.385 784.043 647.189L783.964 619.337L783.993 519.19C791.385 518.927 798.823 519.036 806.221 518.989C805.582 498.355 805.933 477.644 805.98 457.001L827.99 456.994L827.97 375.003L848.433 374.976L848.484 353.27Z"/>
	<path fill="#C2504C" transform="matrix(0.227116 0.000457572 -0.000457572 0.227116 0.468567 0)" d="M872.092 471.446Q889.54 471.129 906.987 471.465L907.012 520.008L925.154 520.016Q924.856 540.301 925.117 560.587C925.167 567.956 925.635 575.688 924.747 583.006C924.364 588.891 923.605 596.219 924.792 601.977Q899.46 601.818 874.128 602.011L873.897 602.717C864.085 603.954 853.34 603.077 843.418 602.938C843.508 610.117 843.481 617.326 843.98 624.489L826.074 624.483C825.657 616.255 825.953 607.97 825.961 599.732L825.984 556.26C831.996 556.13 838.016 556.126 844.029 556.066L844.019 514.129L856.132 514.06L856.023 494.128L872.469 494.037Q872.571 482.737 872.092 471.446Z"/>
	<path fill="#1F033D" transform="matrix(0.227116 0.000457572 -0.000457572 0.227116 0.468567 0)" d="M874.515 583.144C891.126 582.221 908.096 582.92 924.747 583.006C924.364 588.891 923.605 596.219 924.792 601.977Q899.46 601.818 874.128 602.011C874.667 595.809 874.443 589.379 874.515 583.144Z"/>
	<path fill="#C2504C" transform="matrix(0.227116 0.000457572 -0.000457572 0.227116 0.468567 0)" d="M698.003 533.965L720.844 534.029Q720.541 544.508 720.646 554.991L743.461 555.041L743.452 581.987L765.006 582.097Q765.091 622.533 764.405 662.964C758.226 662.937 752.004 662.753 745.834 663.101L744.012 662.852C736.949 661.515 706.245 661.909 697.974 662.788C691.448 663.536 683.529 663.716 676.996 663.118C670.347 662.838 663.651 662.988 656.996 663.004L656.988 599.092Q666.546 598.997 676.105 599.027L676.081 555.131L698.009 555.062L698.003 533.965Z"/>
	<path fill="#1F033D" transform="matrix(0.227116 0.000457572 -0.000457572 0.227116 0.468567 0)" d="M698.022 641.006L743.976 640.999L744.012 662.852C736.949 661.515 706.245 661.909 697.974 662.788L698.022 641.006Z"/>
	<path fill="#FA6200" transform="matrix(0.227116 0.000457572 -0.000457572 0.227116 0.468567 0)" d="M695.166 139.906C702.577 139.852 710.123 139.402 717.516 139.77L717.532 173.198C717.495 192.201 716.697 211.568 717.705 230.531C718.577 246.255 718.018 262.248 717.98 277.999L696.982 278.005C696.916 285.666 696.584 293.344 696.623 300.999C696.686 313.113 697.142 325.106 696.496 337.232C689.573 337.194 682.524 336.969 675.619 337.462C676.429 347.142 676.035 357.03 676.008 366.745L675.841 413.495C663.136 414.435 650.505 414.081 637.781 413.937Q637.971 423.456 637.966 432.976C633.027 433.024 627.783 433.415 622.901 432.693L622.531 432.98L602.04 433.209C602.127 438.312 602.262 443.409 601.997 448.509C588.617 448.518 575.115 449.633 561.769 448.39C560.966 452.339 560.999 456.453 561.017 460.47L561.088 461.202C561.004 465.029 559.797 474.038 561.94 476.88L563.383 477.185C563.119 477.383 562.865 477.595 562.591 477.781C562.527 477.825 562.446 477.84 562.374 477.869L563.084 478.698L562.867 478.499Q579.889 480.144 596.989 480.37L596.406 496.119C596.065 502.765 595.989 509.375 596.01 516.03C583.992 515.549 571.919 514.98 559.917 516.002L559.553 518.64Q559.619 527.809 559.504 536.977Q548.542 537.089 537.579 537.01L537.055 536.833C530.274 537.331 522.941 536.56 516.1 536.581C506.301 536.611 496.152 537.493 486.399 536.708L486.078 536.956Q475.223 537.191 464.368 536.915L464.145 536.497C457.06 536.111 450.046 536.26 442.96 536.487L425.978 536.462C425.919 541.823 426.108 547.333 425.683 552.671L425.638 536.038C424.772 522.842 425.487 509.246 425.597 496.008C418.801 495.934 389.201 497.381 385.303 495.417L384.888 493.975C382.614 491.843 378.583 492.489 375.695 492.566C372.908 492.474 370.261 492.783 367.475 492.336L367.504 466.507L348.476 466.469L348.607 432.509L326.502 432.494L326.505 413.035Q337.495 413.346 348.49 413.285L348.503 399.891L348.507 363.917C348.512 354.913 348.318 345.918 349.186 336.946C343.401 335.705 336.395 336.45 330.471 336.473L330.106 336.033C323.023 335.938 315.93 336.018 308.847 336.02C308.878 323.892 310.508 285.094 307.446 275.931C305.267 270.325 306.494 219.002 306.603 208.232C306.194 198.052 306.494 187.699 306.461 177.502Q306.299 159.053 306.339 140.604C313.843 140.419 321.373 140.526 328.881 140.514Q340.413 140.839 351.946 140.553C351.973 148.047 351.896 155.556 352.05 163.048L373.861 163.033Q373.733 174.542 373.99 186.049C378.659 186.017 393.219 184.689 396.636 187.348C398.916 191.084 397.205 204.79 397.786 210.028C398.554 217.537 398.071 225.472 398.034 233.029C404.859 232.968 413.81 231.926 420.383 233.329C427.999 234.287 436.027 233.936 443.706 233.972C444.009 241.471 443.759 249.072 443.76 256.582C449.737 257.187 455.788 257.939 461.797 257.956C471.643 257.985 481.502 256.949 491.392 256.93L577.416 257.024C577.909 249.173 578.138 241.401 577.919 233.537C586.637 233.175 595.384 233.711 604.096 233.135L604.05 209.63Q615.754 209.303 627.461 209.438C627.777 201.569 627.601 193.638 627.613 185.76C635.355 185.269 643.254 185.542 651.016 185.515C651.455 177.923 651.157 170.17 651.165 162.559L673.012 162.471L673.038 139.951Q684.102 139.839 695.166 139.906Z"/>
	<path fill="#1F033D" transform="matrix(0.227116 0.000457572 -0.000457572 0.227116 0.468567 0)" d="M541.606 403.075C548.217 402.995 554.918 402.764 561.513 403.277L561.397 431.743C561.37 437.132 561.017 442.681 561.613 448.04C554.907 447.947 548.193 448.007 541.487 448.002L541.606 403.075Z"/>
	<path fill="#1F033D" transform="matrix(0.227116 0.000457572 -0.000457572 0.227116 0.468567 0)" d="M585.995 362.498Q611.724 362.344 637.453 362.509C637.461 379.599 636.992 396.867 637.781 413.937Q637.971 423.456 637.966 432.976C633.027 433.024 627.783 433.415 622.901 432.693C623.805 426.225 623.498 419.509 623.5 412.991L623.489 384.864L585.989 384.994Q585.953 390.5 585.98 396.006C586.034 398.359 585.997 400.751 586.176 403.096C580.564 403.416 574.966 403.396 569.347 403.389C567.234 402.832 564.189 403.128 561.957 403.055L562.02 384.49L585.921 384.61C586.575 377.206 586.273 369.911 585.995 362.498Z"/>
	<path fill="#FEC300" transform="matrix(0.227116 0.000457572 -0.000457572 0.227116 0.468567 0)" d="M585.989 384.994L623.489 384.864L623.5 412.991C623.498 419.509 623.805 426.225 622.901 432.693L622.531 432.98L602.04 433.209C602.127 438.312 602.262 443.409 601.997 448.509C588.617 448.518 575.115 449.633 561.769 448.39L561.613 448.04C561.017 442.681 561.37 437.132 561.397 431.743L561.513 403.277C564.145 403.454 566.714 403.68 569.347 403.389C574.966 403.396 580.564 403.416 586.176 403.096C585.997 400.751 586.034 398.359 585.98 396.006Q585.953 390.5 585.989 384.994Z"/>
	<path fill="#F2ECE9" transform="matrix(0.227116 0.000457572 -0.000457572 0.227116 0.468567 0)" d="M585.98 396.006L607.813 396.02C607.738 402.042 607.599 408.068 607.786 414.089L586.481 414.092C586.48 410.465 586.683 406.686 586.176 403.096C585.997 400.751 586.034 398.359 585.98 396.006Z"/>
	<path fill="#D53201" transform="matrix(0.227116 0.000457572 -0.000457572 0.227116 0.468567 0)" d="M306.603 208.232C307.643 215.251 307.086 222.997 307.051 230.1Q320.282 229.979 333.514 230.081L333.487 256.973L350.06 256.943Q350.505 282.794 350.479 308.648C350.451 317.523 351.018 328.272 349.186 336.946C343.401 335.705 336.395 336.45 330.471 336.473L330.106 336.033C323.023 335.938 315.93 336.018 308.847 336.02C308.878 323.892 310.508 285.094 307.446 275.931C305.267 270.325 306.494 219.002 306.603 208.232Z"/>
	<path fill="#1F033D" transform="matrix(0.227116 0.000457572 -0.000457572 0.227116 0.468567 0)" d="M307.446 275.931L330.151 275.938C330.012 295.928 329.466 316.059 330.106 336.033C323.023 335.938 315.93 336.018 308.847 336.02C308.878 323.892 310.508 285.094 307.446 275.931Z"/>
	<path fill="#D53201" transform="matrix(0.227116 0.000457572 -0.000457572 0.227116 0.468567 0)" d="M696.539 230.567C703.59 230.649 710.652 230.55 717.705 230.531C718.577 246.255 718.018 262.248 717.98 277.999L696.982 278.005C696.916 285.666 696.584 293.344 696.623 300.999C696.686 313.113 697.142 325.106 696.496 337.232C689.573 337.194 682.524 336.969 675.619 337.462C676.429 347.142 676.035 357.03 676.008 366.745L675.841 413.495C663.136 414.435 650.505 414.081 637.781 413.937C636.992 396.867 637.461 379.599 637.453 362.509L655.932 362.428Q655.442 349.705 655.58 336.973L675.531 337.092C676.348 310.431 675.83 283.689 675.667 257.02L696.521 256.963L696.539 230.567Z"/>
	<path fill="#1F033D" transform="matrix(0.227116 0.000457572 -0.000457572 0.227116 0.468567 0)" d="M385.028 363.02Q413.831 363.49 442.63 362.859C442.435 370.144 442.2 377.388 442.587 384.67Q453.799 384.493 465.013 384.508C464.502 390.694 463.849 397.108 465.244 403.227C471.329 403.214 477.475 402.928 483.55 403.233L483.417 448.006C477.035 447.633 470.646 448.288 464.358 447.963L464.225 448.338C449.656 450.221 434.028 448.507 419.347 448.143C417.689 444.516 419.094 437.584 418.796 433.417C418.451 438.261 418.552 443.117 418.583 447.969L384.879 447.995C386.124 419.796 385.205 391.254 385.028 363.02Z"/>
	<path fill="#FEC300" transform="matrix(0.227116 0.000457572 -0.000457572 0.227116 0.468567 0)" d="M400.901 385.771L442.505 385.49L442.5 398.535L442.521 403.501C450.006 403.46 457.505 403.335 464.988 403.504C464.932 412.094 464.555 420.674 464.505 429.262C464.47 435.395 464.917 441.873 464.358 447.963L464.225 448.338C449.656 450.221 434.028 448.507 419.347 448.143C417.689 444.516 419.094 437.584 418.796 433.417L400.946 433.373L400.901 385.771Z"/>
	<path fill="#F2ECE9" transform="matrix(0.227116 0.000457572 -0.000457572 0.227116 0.468567 0)" d="M419.994 398.353C427.465 397.8 435.026 398.252 442.5 398.535L442.521 403.501L442.642 415.807Q431.535 415.579 420.428 415.824L419.994 398.353Z"/>
	<path fill="#FE972A" transform="matrix(0.227116 0.000457572 -0.000457572 0.227116 0.468567 0)" d="M368.136 363.02L385.028 363.02C385.205 391.254 386.124 419.796 384.879 447.995L418.583 447.969C418.552 443.117 418.451 438.261 418.796 433.417C419.094 437.584 417.689 444.516 419.347 448.143C434.028 448.507 449.656 450.221 464.225 448.338C465.054 452.266 464.611 456.731 464.486 460.745C477.232 459.53 491.084 460.144 503.922 460.432L503.933 477.054L522.23 476.997C522.295 471.507 522.399 466.014 522.397 460.524C535.216 460.38 548.218 459.824 561.017 460.47L561.088 461.202C561.004 465.029 559.797 474.038 561.94 476.88L563.383 477.185C563.119 477.383 562.865 477.595 562.591 477.781C562.527 477.825 562.446 477.84 562.374 477.869L563.084 478.698L562.867 478.499Q579.889 480.144 596.989 480.37L596.406 496.119C596.065 502.765 595.989 509.375 596.01 516.03C583.992 515.549 571.919 514.98 559.917 516.002L559.553 518.64Q559.619 527.809 559.504 536.977Q548.542 537.089 537.579 537.01L537.055 536.833C530.274 537.331 522.941 536.56 516.1 536.581C506.301 536.611 496.152 537.493 486.399 536.708L486.078 536.956Q475.223 537.191 464.368 536.915L464.145 536.497C457.06 536.111 450.046 536.26 442.96 536.487L425.978 536.462C425.919 541.823 426.108 547.333 425.683 552.671L425.638 536.038C424.772 522.842 425.487 509.246 425.597 496.008C418.801 495.934 389.201 497.381 385.303 495.417L384.888 493.975C382.614 491.843 378.583 492.489 375.695 492.566C372.908 492.474 370.261 492.783 367.475 492.336L367.504 466.507L348.476 466.469L348.607 432.509L326.502 432.494L326.505 413.035Q337.495 413.346 348.49 413.285L348.503 399.891C355.1 400.151 361.764 399.988 368.369 400.004L368.136 363.02Z"/>
	<path fill="#FA6200" transform="matrix(0.227116 0.000457572 -0.000457572 0.227116 0.468567 0)" d="M418.796 433.417C419.094 437.584 417.689 444.516 419.347 448.143Q419.566 454.827 419.468 461.513C419.328 466.6 419.094 471.702 419.088 476.791C414.106 476.457 409.146 476.653 404.168 476.938L403.996 461.124Q394.269 461.324 384.544 461.073Q384.485 454.528 384.879 447.995L418.583 447.969C418.552 443.117 418.451 438.261 418.796 433.417Z"/>
	<path fill="#98130E" transform="matrix(0.227116 0.000457572 -0.000457572 0.227116 0.468567 0)" d="M560.043 496.014L596.406 496.119C596.065 502.765 595.989 509.375 596.01 516.03C583.992 515.549 571.919 514.98 559.917 516.002C560.101 509.351 560.01 502.669 560.043 496.014Z"/>
	<path fill="#FCD192" transform="matrix(0.227116 0.000457572 -0.000457572 0.227116 0.468567 0)" d="M537.032 496.309C544.244 495.003 552.782 494.865 560.043 496.014C560.01 502.669 560.101 509.351 559.917 516.002L559.553 518.64Q559.619 527.809 559.504 536.977Q548.542 537.089 537.579 537.01L537.055 536.833C536.719 529.94 537.023 522.897 537.033 515.988L537.037 508.111C536.929 504.188 537.03 500.235 537.032 496.309Z"/>
	<path fill="#EF9C68" transform="matrix(0.227116 0.000457572 -0.000457572 0.227116 0.468567 0)" d="M537.032 496.309C544.244 495.003 552.782 494.865 560.043 496.014C560.01 502.669 560.101 509.351 559.917 516.002L559.553 518.64C559.141 514.033 559.523 509.169 559.584 504.535C552.372 504.466 545.122 504.251 537.915 504.539C537.144 505.59 537.209 506.833 537.037 508.111C536.929 504.188 537.03 500.235 537.032 496.309Z"/>
	<path fill="#98130E" transform="matrix(0.227116 0.000457572 -0.000457572 0.227116 0.468567 0)" d="M487.007 496.362C503.461 496.944 520.644 497.915 537.032 496.309C537.03 500.235 536.929 504.188 537.037 508.111L537.033 515.988C530.821 515.854 524.634 515.435 518.413 515.492C507.92 515.588 497.517 516.142 487.012 515.838L487.007 496.362Z"/>
	<path fill="#9F292A" transform="matrix(0.227116 0.000457572 -0.000457572 0.227116 0.468567 0)" d="M487.012 515.838C497.517 516.142 507.92 515.588 518.413 515.492C524.634 515.435 530.821 515.854 537.033 515.988C537.023 522.897 536.719 529.94 537.055 536.833C530.274 537.331 522.941 536.56 516.1 536.581C506.301 536.611 496.152 537.493 486.399 536.708L486.564 532.645C487.604 527.393 487.024 521.198 487.012 515.838Z"/>
	<path fill="#9F292A" transform="matrix(0.227116 0.000457572 -0.000457572 0.227116 0.468567 0)" d="M419.347 448.143C434.028 448.507 449.656 450.221 464.225 448.338C465.054 452.266 464.611 456.731 464.486 460.745L464.287 476.742L436.286 477.033C430.627 477.085 424.706 477.445 419.088 476.791C419.094 471.702 419.328 466.6 419.468 461.513Q419.566 454.827 419.347 448.143Z"/>
	<path fill="#1F033D" transform="matrix(0.227116 0.000457572 -0.000457572 0.227116 0.468567 0)" d="M419.347 448.143C434.028 448.507 449.656 450.221 464.225 448.338C465.054 452.266 464.611 456.731 464.486 460.745C449.933 462.813 434.201 461.423 419.468 461.513Q419.566 454.827 419.347 448.143Z"/>
	<path fill="#9F292A" transform="matrix(0.227116 0.000457572 -0.000457572 0.227116 0.468567 0)" d="M464.017 496.072C471.187 495.829 480.089 494.601 487.007 496.362L487.012 515.838C487.024 521.198 487.604 527.393 486.564 532.645L486.399 536.708L486.078 536.956Q475.223 537.191 464.368 536.915L464.145 536.497C457.06 536.111 450.046 536.26 442.96 536.487L425.978 536.462C425.919 541.823 426.108 547.333 425.683 552.671L425.638 536.038C424.772 522.842 425.487 509.246 425.597 496.008C431.582 496.022 437.597 495.906 443.578 496.056L464.017 496.072Z"/>
	<path fill="#98130E" transform="matrix(0.227116 0.000457572 -0.000457572 0.227116 0.468567 0)" d="M443.578 496.056L464.017 496.072L463.999 504.612L463.993 515.868Q453.733 516.135 443.471 515.973C443.733 509.366 443.546 502.672 443.578 496.056Z"/>
	<defs>
		<linearGradient id="gradient_0" gradientUnits="userSpaceOnUse" x1="434.45114" y1="496.93344" x2="434.13171" y2="535.55072">
			<stop offset="0" stop-color="#F51906"/>
			<stop offset="1" stop-color="#C8282A"/>
		</linearGradient>
	</defs>
	<path fill="url(#gradient_0)" transform="matrix(0.227116 0.000457572 -0.000457572 0.227116 0.468567 0)" d="M425.597 496.008C431.582 496.022 437.597 495.906 443.578 496.056C443.546 502.672 443.733 509.366 443.471 515.973C443.388 522.444 443.766 528.994 443.052 535.426C443.013 535.779 442.99 536.133 442.96 536.487L425.978 536.462C425.919 541.823 426.108 547.333 425.683 552.671L425.638 536.038C424.772 522.842 425.487 509.246 425.597 496.008Z"/>
	<path fill="#FCD192" transform="matrix(0.227116 0.000457572 -0.000457572 0.227116 0.468567 0)" d="M464.017 496.072C471.187 495.829 480.089 494.601 487.007 496.362L487.012 515.838C487.024 521.198 487.604 527.393 486.564 532.645L486.399 536.708L486.078 536.956Q475.223 537.191 464.368 536.915L464.145 536.497C463.731 529.679 463.999 522.705 463.993 515.868L463.999 504.612L464.017 496.072Z"/>
	<path fill="#EF9C68" transform="matrix(0.227116 0.000457572 -0.000457572 0.227116 0.468567 0)" d="M464.017 496.072C471.187 495.829 480.089 494.601 487.007 496.362L487.012 515.838C487.024 521.198 487.604 527.393 486.564 532.645C485.763 523.393 486.549 513.397 486.576 504.059Q475.277 503.921 463.999 504.612L464.017 496.072Z"/>
	<path fill="#FE972A" transform="matrix(0.227116 0.000457572 -0.000457572 0.227116 0.468567 0)" d="M695.166 139.906C702.577 139.852 710.123 139.402 717.516 139.77L717.532 173.198Q707.097 173.375 696.66 173.432L696.648 199.572C688.778 199.605 680.9 199.561 673.032 199.705L672.98 237.005L648.227 237.028L648.02 245.421L655.828 245.512Q656.001 255.294 655.974 265.078L645.529 265.084L645.515 252.008L633.057 252.024Q633.599 265.505 633.479 278.997C622.825 279.099 612.139 279.382 601.488 279.111L601.497 302.993C606.979 302.978 612.498 302.842 617.977 302.977L618.428 321.998L633.987 321.986L633.995 341.085L559.064 341.033C559.329 348.194 559.418 355.261 559.03 362.424L540.994 362.437L540.97 384.62C535.138 384.698 529.32 384.771 523.489 384.601L523.434 405.567C516.303 405.541 509.159 405.433 502.029 405.575L502.044 384.404C496.688 384.973 491.389 385.018 486.011 385.045L486.034 362.553C479.724 363.129 473.377 363.017 467.046 363.028C467.067 356.025 467.001 349.01 467.122 342.009L384.241 342.088L384.058 321.524L400.513 321.487L400.511 303.029L421.865 303.028L421.816 279.081L400.513 279.077L400.531 265.587C396.372 265.592 392.2 265.661 388.044 265.511L387.974 279.797L380.009 280.033L380.016 256.995L367.479 257.01L367.51 239.96L353.002 240.033L353.011 202.567C345.329 202.741 337.635 203.01 329.951 203.027C329.965 194.542 329.886 186.045 330.015 177.562L306.461 177.502Q306.299 159.053 306.339 140.604C313.843 140.419 321.373 140.526 328.881 140.514Q340.413 140.839 351.946 140.553C351.973 148.047 351.896 155.556 352.05 163.048L373.861 163.033Q373.733 174.542 373.99 186.049C378.659 186.017 393.219 184.689 396.636 187.348C398.916 191.084 397.205 204.79 397.786 210.028C398.554 217.537 398.071 225.472 398.034 233.029C404.859 232.968 413.81 231.926 420.383 233.329C427.999 234.287 436.027 233.936 443.706 233.972C444.009 241.471 443.759 249.072 443.76 256.582C449.737 257.187 455.788 257.939 461.797 257.956C471.643 257.985 481.502 256.949 491.392 256.93L577.416 257.024C577.909 249.173 578.138 241.401 577.919 233.537C586.637 233.175 595.384 233.711 604.096 233.135L604.05 209.63Q615.754 209.303 627.461 209.438C627.777 201.569 627.601 193.638 627.613 185.76C635.355 185.269 643.254 185.542 651.016 185.515C651.455 177.923 651.157 170.17 651.165 162.559L673.012 162.471L673.038 139.951Q684.102 139.839 695.166 139.906Z"/>
	<path fill="#1F033D" transform="matrix(0.227116 0.000457572 -0.000457572 0.227116 0.468567 0)" d="M328.881 140.514Q340.413 140.839 351.946 140.553C351.973 148.047 351.896 155.556 352.05 163.048L373.861 163.033Q373.733 174.542 373.99 186.049C378.659 186.017 393.219 184.689 396.636 187.348C398.916 191.084 397.205 204.79 397.786 210.028C390.064 209.576 382.242 209.909 374.508 210.01C373.465 202.397 374.04 194.196 374.087 186.501L352.016 186.516L351.987 163.501L329.521 163.515C328.581 155.892 329.348 148.175 328.881 140.514Z"/>
	<path fill="#1F033D" transform="matrix(0.227116 0.000457572 -0.000457572 0.227116 0.468567 0)" d="M673.038 139.951Q684.102 139.839 695.166 139.906C694.737 147.56 694.991 155.319 695.143 162.983L672.943 163.009Q672.761 174.267 672.971 185.524C665.763 185.628 657.638 184.73 650.59 186.117L650.491 209.976C642.622 209.715 634.898 209.495 627.036 210.089L626.901 232.997C619.398 233.835 611.622 233.462 604.074 233.463L604.064 256.986Q590.61 257.041 577.157 256.961C576.294 263.997 576.563 270.929 576.845 277.987L443.51 278.006C443.575 270.845 443.747 263.666 443.658 256.506C435.923 256.286 428.207 256.388 420.471 256.511C420.483 248.796 420.658 241.038 420.383 233.329C427.999 234.287 436.027 233.936 443.706 233.972C444.009 241.471 443.759 249.072 443.76 256.582C449.737 257.187 455.788 257.939 461.797 257.956C471.643 257.985 481.502 256.949 491.392 256.93L577.416 257.024C577.909 249.173 578.138 241.401 577.919 233.537C586.637 233.175 595.384 233.711 604.096 233.135L604.05 209.63Q615.754 209.303 627.461 209.438C627.777 201.569 627.601 193.638 627.613 185.76C635.355 185.269 643.254 185.542 651.016 185.515C651.455 177.923 651.157 170.17 651.165 162.559L673.012 162.471L673.038 139.951Z"/>
</svg>
