<?xml version="1.0" encoding="utf-8" ?>
<svg xmlns="http://www.w3.org/2000/svg" xmlns:xlink="http://www.w3.org/1999/xlink" width="185" height="185">
	<path fill="#070606" transform="scale(0.180883 0.180883)" d="M360.718 207.681Q368.345 207.525 375.974 207.609C375.984 212.841 375.441 218.944 376.669 224.031C371.613 223.75 366.636 223.691 361.576 223.775L361.095 223.387C360.735 218.207 361.548 212.78 360.718 207.681Z"/>
	<path fill="#070606" transform="scale(0.180883 0.180883)" d="M376.669 224.031Q384.559 223.857 392.451 223.953C392.45 229.088 391.886 234.989 392.804 240.03L390.262 239.924C386.043 239.134 381.27 239.582 377.007 239.797C377.019 234.619 377.396 229.154 376.669 224.031Z"/>
	<path fill="#070606" transform="scale(0.180883 0.180883)" d="M304.488 623.331Q312.257 623.488 320.027 623.489Q319.954 631.553 319.994 639.617C314.849 639.38 309.627 639.566 304.473 639.572C304.424 634.16 304.474 628.744 304.488 623.331Z"/>
	<path fill="#070606" transform="scale(0.180883 0.180883)" d="M319.821 424.069L335.788 424.03C335.803 429.342 335.682 434.693 336.048 439.993Q328.012 439.975 319.977 439.86C320.016 434.6 320.157 429.32 319.821 424.069Z"/>
	<path fill="#070606" transform="scale(0.180883 0.180883)" d="M736.087 328.098L752.539 327.984L752.664 344.012C747.531 343.975 741.04 343.215 736.068 344.328L736.087 328.098Z"/>
	<path fill="#070606" transform="scale(0.180883 0.180883)" d="M972.123 532.46C978.448 532.677 984.676 532.609 991 532.489C990.747 537.879 990.954 543.283 991.072 548.675Q981.568 548.533 972.065 548.676Q971.875 540.567 972.123 532.46Z"/>
	<path fill="#070606" transform="scale(0.180883 0.180883)" d="M33.3497 532.58C39.3566 532.105 45.5258 532.14 51.5586 531.878L51.5258 548.937Q42.3292 548.805 33.133 548.967Q33.3967 540.776 33.3497 532.58Z"/>
	<path fill="#070606" transform="scale(0.180883 0.180883)" d="M672.19 432.055L687.854 431.955C687.927 437.271 688.145 442.707 687.825 448.012L672.838 448.004Q672.044 451.933 671.151 455.84L661.959 455.839C662.177 453.175 662.247 450.576 662.216 447.905L672.364 447.848Q672.46 439.949 672.19 432.055Z"/>
	<path fill="#070606" transform="scale(0.180883 0.180883)" d="M471.15 768.151C476.605 767.912 482.066 768.015 487.524 768.062L487.489 791.111C482.367 790.79 477.223 790.99 472.096 791.087C472.056 784.372 473.162 774.281 471.15 768.151Z"/>
	<path fill="#070606" transform="scale(0.180883 0.180883)" d="M847.978 567.972L863.96 567.928Q863.729 579.949 863.946 591.969L847.942 591.907C848.14 583.938 847.998 575.944 847.978 567.972Z"/>
	<path fill="#070606" transform="scale(0.180883 0.180883)" d="M212.983 651.627C219.163 652.122 225.241 651.819 231.419 651.436Q231.347 662.188 231.389 672.939C225.295 672.766 219.256 672.654 213.162 672.899L212.983 651.627Z"/>
	<path fill="#070606" transform="scale(0.180883 0.180883)" d="M176.975 591.964L192.536 591.977C192.498 595.846 192.22 599.905 192.933 603.716L193.24 607.425Q193.697 613.743 193.95 620.072C188.364 619.885 182.774 619.949 177.186 619.971Q177.38 605.965 176.975 591.964Z"/>
	<path fill="#2AE2ED" transform="scale(0.180883 0.180883)" d="M348.496 222.985C352.566 222.972 357.117 222.551 361.095 223.387L361.576 223.775C366.636 223.691 371.613 223.75 376.669 224.031C377.396 229.154 377.019 234.619 377.007 239.797C373.617 240.597 363.453 241.795 360.534 239.846C359.865 239.4 359.936 238.454 359.793 237.719C359.589 237.804 359.389 237.9 359.181 237.974C355.28 239.345 351.928 237.265 348.507 235.591L348.496 222.985Z"/>
	<path fill="#22C8E0" transform="scale(0.180883 0.180883)" d="M348.496 222.985C352.566 222.972 357.117 222.551 361.095 223.387L361.576 223.775C359.149 226.613 359.982 233.972 359.793 237.719C359.589 237.804 359.389 237.9 359.181 237.974C355.28 239.345 351.928 237.265 348.507 235.591L348.496 222.985Z"/>
	<path fill="#070606" transform="scale(0.180883 0.180883)" d="M793.498 653.981C799.666 653.983 805.865 653.853 812.03 653.993C811.287 662.222 811.755 670.672 811.937 678.92C805.814 678.705 799.676 678.898 793.551 678.995Q793.589 666.488 793.498 653.981Z"/>
	<path fill="#070606" transform="scale(0.180883 0.180883)" d="M990.985 504.024L1006.91 504.016L1007.06 532.612C1001.71 532.564 996.35 532.454 991 532.489C991.224 523.017 991.009 513.501 990.985 504.024Z"/>
	<path fill="#070606" transform="scale(0.180883 0.180883)" d="M33.0764 503.995C32.9334 513.498 32.8128 523.059 33.0879 532.561C27.6512 531.817 21.9027 532.298 16.4293 532.453C16.2524 522.997 16.4038 513.512 16.4009 504.054L33.0764 503.995Z"/>
	<path fill="#070606" transform="scale(0.180883 0.180883)" d="M640.727 335.863C645.884 336.022 650.966 335.96 656.109 335.519C655.417 346.264 655.839 357.197 655.934 367.966C651.019 367.989 645.217 368.566 640.414 367.629C640.938 357.022 640.713 346.476 640.727 335.863Z"/>
	<path fill="#070606" transform="scale(0.180883 0.180883)" d="M656.063 303.576C661.359 303.716 666.786 304.14 672.033 303.274Q671.942 319.612 672.043 335.95C666.723 335.949 661.41 336.028 656.109 335.519C657.507 327.718 656.22 312.232 656.063 303.576Z"/>
	<path fill="#070606" transform="scale(0.180883 0.180883)" d="M831.498 592.027C836.716 591.813 842.438 591.118 847.606 591.917Q847.403 607.847 847.44 623.779C842.431 623.65 835.925 624.543 831.123 623.619C831.926 618.588 831.512 613.056 831.497 607.963L831.498 592.027Z"/>
	<path fill="#070606" transform="scale(0.180883 0.180883)" d="M881.189 531.066C891.49 530.795 901.678 530.775 911.983 530.881C911.697 536.577 911.801 542.26 911.877 547.96C905.132 547.91 887.272 548.608 881.409 547.596C881.496 542.07 881.39 536.587 881.189 531.066Z"/>
	<path fill="#070606" transform="scale(0.180883 0.180883)" d="M799.929 293.746C799.938 298.952 799.362 305.025 800.25 310.096C795.007 309.902 789.447 309.483 784.29 310.57C779.29 311.547 773.603 311.085 768.497 311.137C768.803 305.479 768.572 299.75 768.524 294.084Q781.655 293.78 794.786 294.071C796.526 294.068 798.2 293.934 799.929 293.746Z"/>
	<path fill="#224EBA" transform="scale(0.180883 0.180883)" d="M799.929 293.746C799.938 298.952 799.362 305.025 800.25 310.096C795.007 309.902 789.447 309.483 784.29 310.57C784.792 309.493 785.285 308.288 786.228 307.517C788.399 305.743 792.394 306.247 795.04 306.246Q794.976 300.157 794.786 294.071C796.526 294.068 798.2 293.934 799.929 293.746Z"/>
	<path fill="#070606" transform="scale(0.180883 0.180883)" d="M194.176 621.458C200.011 621.629 205.823 621.353 211.649 621.447C213.01 623.489 212.481 626.849 212.404 629.271C211.863 636.163 211.398 644.134 212.39 650.958L194.547 650.898Q194.471 636.177 194.176 621.458Z"/>
	<path fill="#070606" transform="scale(0.180883 0.180883)" d="M812.91 623.617C818.968 623.466 825.068 623.336 831.123 623.619C830.437 633.691 830.729 643.893 830.918 653.981C824.735 654.003 818.533 654.13 812.354 653.884C813.162 643.784 813.007 633.736 812.91 623.617Z"/>
	<path fill="#070606" transform="scale(0.180883 0.180883)" d="M409.545 256.077C416.229 256.04 422.941 255.879 429.622 256.023L429.58 272.152L446.821 272.031C446.863 277.678 446.759 283.379 446.993 289.019L428.873 289.005C429.403 283.83 429.034 278.15 429.059 272.929L410.345 272.91L410.156 272.724C409.565 267.205 410.218 261.623 409.545 256.077Z"/>
	<path fill="#070606" transform="scale(0.180883 0.180883)" d="M974.472 463.88Q982.579 464.026 990.687 463.955C990.907 477.303 990.554 490.686 990.985 504.024L974.475 503.996L974.553 480.015L974.472 463.88Z"/>
	<path fill="#070606" transform="scale(0.180883 0.180883)" d="M144.235 260.087L191.136 260.12C191.058 265.306 190.413 271.323 191.264 276.421C182.394 276.161 173.501 276.312 164.627 276.313C157.962 276.314 151.251 276.045 144.606 276.633C144.25 271.134 145.009 265.584 144.235 260.087Z"/>
	<path fill="#070606" transform="scale(0.180883 0.180883)" d="M720.568 623.682Q720.319 631.836 720.445 639.992L703.852 639.982C703.356 650.562 703.701 661.385 703.93 671.978L687.973 671.954L687.978 639.979C693.194 639.975 698.418 640.035 703.628 639.757L703.655 623.74Q712.111 623.641 720.568 623.682Z"/>
	<path fill="#070606" transform="scale(0.180883 0.180883)" d="M704.048 376.423Q712.042 376.188 720.037 376.416L720.015 416.924C714.609 416.847 709.147 416.62 703.745 416.755C703.794 421.836 704.061 427.02 703.682 432.087C698.407 432.051 693.128 432.056 687.854 431.955C688.311 427.061 688.086 422.006 688.103 417.088L703.877 416.877L704.048 376.423Z"/>
	<path fill="#143556" transform="scale(0.180883 0.180883)" d="M831.497 607.963C831.512 613.056 831.926 618.588 831.123 623.619C825.068 623.336 818.968 623.466 812.91 623.617C813.007 633.736 813.162 643.784 812.354 653.884L812.03 653.993C805.865 653.853 799.666 653.983 793.498 653.981C793.221 644.151 792.215 633.197 794.022 623.504L794.897 620.942C800.299 621.084 805.65 621.148 811.053 620.952L811.001 607.982C817.828 608 824.672 608.11 831.497 607.963Z"/>
	<path fill="#4963C4" transform="scale(0.180883 0.180883)" d="M664.044 289.092C666.869 288.711 669.201 288.475 672.029 289.125L672.033 303.274C666.786 304.14 661.359 303.716 656.063 303.576C656.22 312.232 657.507 327.718 656.109 335.519C650.966 335.96 645.884 336.022 640.727 335.863C640.713 346.476 640.938 357.022 640.414 367.629C637.838 367.365 635.142 367.571 632.552 367.618L632.747 360.91C633.835 356.145 633.357 348.795 632.763 343.908C632.276 338.647 632.46 333.301 632.466 328.022L647.988 327.991C647.783 317.031 647.421 306.091 647.956 295.136Q647.987 292.91 648.127 290.688C648.914 289.463 648.94 289.598 650.379 289.261C654.911 289.344 659.536 289.622 664.044 289.092Z"/>
	<path fill="#070606" transform="scale(0.180883 0.180883)" d="M288.023 344.019L303.781 344C303.689 354.633 303.217 365.428 303.842 376.043L319.475 376.007L319.442 407.342C319.435 412.612 318.749 418.974 319.821 424.069C314.496 423.793 309.272 423.777 303.948 423.968C304.16 408.035 303.905 392.066 303.875 376.129C298.653 376.035 293.418 376.083 288.195 376.064C287.854 365.394 288.016 354.694 288.023 344.019Z"/>
	<path fill="#070606" transform="scale(0.180883 0.180883)" d="M248.497 607.432L304.355 607.484C304.31 612.651 304.2 617.825 304.375 622.99C296.388 622.285 288.22 622.621 280.204 622.63C269.569 622.642 258.91 622.519 248.279 622.719C247.954 632.126 248.045 641.554 248.029 650.967C242.534 650.912 237.03 650.786 231.537 650.997C231.887 641.053 231.544 630.975 231.525 621.016C237.191 621.18 242.837 621.092 248.502 620.989L248.497 607.432Z"/>
	<path fill="#070606" transform="scale(0.180883 0.180883)" d="M879.549 244.103L972.404 244.134C972.453 249.401 972.315 254.755 972.615 260.011C960.219 259.693 947.883 259.975 935.487 259.991L879.561 260.074Q879.61 252.088 879.549 244.103Z"/>
	<path fill="#070606" transform="scale(0.180883 0.180883)" d="M50.5452 244.013Q97.0912 244.636 143.637 244.022C143.807 249.324 143.394 254.85 144.235 260.087C132.597 259.665 120.879 259.956 109.232 259.977L50.3158 260.148C50.8107 254.804 50.5884 249.376 50.5452 244.013Z"/>
	<path fill="#070606" transform="scale(0.180883 0.180883)" d="M49.215 424.085C54.3253 423.994 59.4473 424.071 64.5589 424.077Q64.4544 435.79 64.4777 447.503C69.8473 447.477 75.2319 447.531 80.5993 447.414Q80.6047 455.67 80.4232 463.924L49.5094 464.007L49.5133 480.063L49.5172 503.999L33.0764 503.995C33.507 499.341 33.1877 494.467 33.169 489.787L33.1074 463.986L49.4279 463.928C49.2603 450.647 49.4461 437.363 49.215 424.085Z"/>
	<path fill="#070606" transform="scale(0.180883 0.180883)" d="M335.555 192.067C343.712 191.96 351.878 192.035 360.036 192.034C360.141 197.241 360.087 202.506 360.718 207.681C361.548 212.78 360.735 218.207 361.095 223.387C357.117 222.551 352.566 222.972 348.496 222.985L348.507 235.591C348.253 254.469 346.625 277.104 348.843 295.529C344.561 296.107 340.15 295.904 335.836 295.89Q336.057 243.978 335.555 192.067Z"/>
	<path fill="#2AE2ED" transform="scale(0.180883 0.180883)" d="M360.718 207.681C361.548 212.78 360.735 218.207 361.095 223.387C357.117 222.551 352.566 222.972 348.496 222.985L348.473 207.845C352.567 207.894 356.627 207.873 360.718 207.681Z"/>
	<path fill="#070606" transform="scale(0.180883 0.180883)" d="M795.057 607.464C794.992 603.585 794.725 599.564 795.395 595.73C795.464 604.105 795.766 612.599 794.897 620.942L794.022 623.504C792.215 633.197 793.221 644.151 793.498 653.981C787.717 653.612 781.928 653.828 776.142 653.952Q776.05 638.784 776.114 623.617C762.877 623.449 749.625 623.831 736.385 623.833C731.155 623.833 725.78 624.066 720.568 623.682C720.928 618.51 720.651 613.187 720.63 607.997L776.039 607.866C782.403 607.915 788.705 607.916 795.057 607.464Z"/>
	<path fill="#224EBA" transform="scale(0.180883 0.180883)" d="M795.057 607.464C794.992 603.585 794.725 599.564 795.395 595.73C795.464 604.105 795.766 612.599 794.897 620.942L794.022 623.504L776.468 623.499C776.471 618.268 776.475 613.084 776.039 607.866C782.403 607.915 788.705 607.916 795.057 607.464Z"/>
	<path fill="#070606" transform="scale(0.180883 0.180883)" d="M600.19 367.514L600.85 367.34C605.909 367.441 611.05 367.358 616.086 367.858L624.537 368.022C627.244 368.018 629.859 367.906 632.552 367.618C635.142 367.571 637.838 367.365 640.414 367.629C639.444 376.234 640.206 385.555 640.214 394.255C640.227 406.755 639.74 419.444 640.249 431.922L624.09 431.65L623.973 431.948C618.854 432.057 613.661 431.649 608.532 431.598C608.42 426.076 612.235 422.321 612.675 417.079C612.427 413.906 612.493 410.655 612.43 407.47L612.426 401.106C612.49 396.257 612.962 391.404 612.941 386.558C612.929 384.062 612.476 381.402 610.565 379.63C607.763 377.029 603.936 377.526 600.406 377.555L600.19 367.514Z"/>
	<path fill="#4963C4" transform="scale(0.180883 0.180883)" d="M612.43 407.47C616.487 407.511 620.469 407.664 624.509 408.048C624.48 415.915 624.533 423.793 624.09 431.65L623.973 431.948C618.854 432.057 613.661 431.649 608.532 431.598C608.42 426.076 612.235 422.321 612.675 417.079C612.427 413.906 612.493 410.655 612.43 407.47Z"/>
	<path fill="#4963C4" transform="scale(0.180883 0.180883)" d="M600.19 367.514L600.85 367.34C605.909 367.441 611.05 367.358 616.086 367.858L624.537 368.022L624.538 401.012L624.509 408.048C620.469 407.664 616.487 407.511 612.43 407.47L612.426 401.106C612.49 396.257 612.962 391.404 612.941 386.558C612.929 384.062 612.476 381.402 610.565 379.63C607.763 377.029 603.936 377.526 600.406 377.555L600.19 367.514Z"/>
	<path fill="#143556" transform="scale(0.180883 0.180883)" d="M612.426 401.106L624.538 401.012L624.509 408.048C620.469 407.664 616.487 407.511 612.43 407.47L612.426 401.106Z"/>
	<path fill="#070606" transform="scale(0.180883 0.180883)" d="M833.369 260.095Q856.371 260.753 879.381 260.443L879.209 277.044L879.424 277.355L879.486 293.982C865.155 293.97 847.63 293.07 833.581 294.138L833.182 293.597C823.768 292.726 809.461 293.118 799.929 293.746C798.876 288.331 799.494 282.036 799.994 276.575L833.433 276.536C833.607 271.069 833.421 265.565 833.369 260.095Z"/>
	<path fill="#5288E1" transform="scale(0.180883 0.180883)" d="M833.734 276.581C848.86 277.201 864.143 275.536 879.209 277.044L879.424 277.355L879.486 293.982C865.155 293.97 847.63 293.07 833.581 294.138L833.182 293.597C833.886 287.967 832.756 282.386 833.734 276.581Z"/>
	<path fill="#070606" transform="scale(0.180883 0.180883)" d="M663.581 191.101L687.972 191.068C687.935 228.377 687.547 265.736 687.959 303.04L672.033 303.274L672.029 289.125C672.816 289.029 673.814 289.14 674.399 288.551C677.262 285.669 675.67 275.08 675.502 271.229C675.647 257.461 676.373 243.86 675.21 230.096C674.764 222.604 675.015 215.035 675.035 207.53C671.157 207.593 667.209 207.514 663.352 207.897L663.346 223.425C658.128 223.434 652.864 223.311 647.651 223.481L647.808 240.4C642.163 240.076 636.671 240.341 631.036 240.569L631.066 256.184C625.638 256.044 620.24 255.923 614.811 256.111C615.298 250.764 615.115 245.339 615.101 239.974L631.448 240.069Q631.799 232.012 631.865 223.947C637.162 223.883 642.463 223.884 647.747 223.477Q647.919 215.757 647.871 208.036C653.064 207.967 658.286 207.998 663.475 207.804Q663.742 199.454 663.581 191.101Z"/>
	<path fill="#5288E1" transform="scale(0.180883 0.180883)" d="M800.25 310.096L800.359 310.437C799.661 313.768 799.962 317.488 799.983 320.893Q792.255 320.557 784.519 320.602L784.526 336.031L767.999 336.029L768.011 352.35L753.01 352.506L753.006 375.946L752.924 386.552C752.203 396.467 752.428 406.49 752.569 416.426C747.119 416.608 741.526 417.06 736.096 416.474L735.824 417.412C730.975 417.705 725.693 417.228 720.93 417.883L720.485 417.866L720.015 416.924L720.037 376.416C720.834 366.041 720.238 355.305 720.196 344.89C725.467 344.621 730.837 345.087 736.068 344.328C741.04 343.215 747.531 343.975 752.664 344.012L752.539 327.984L752.483 311.502C757.822 311.454 763.168 311.476 768.497 311.137C773.603 311.085 779.29 311.547 784.29 310.57C789.447 309.483 795.007 309.902 800.25 310.096Z"/>
	<path fill="#070606" transform="scale(0.180883 0.180883)" d="M768.497 311.137L768.466 328.013L752.539 327.984L752.483 311.502C757.822 311.454 763.168 311.476 768.497 311.137Z"/>
	<path fill="#070606" transform="scale(0.180883 0.180883)" d="M736.026 386.579Q744.475 386.518 752.924 386.552C752.203 396.467 752.428 406.49 752.569 416.426C747.119 416.608 741.526 417.06 736.096 416.474C735.817 406.527 736.021 396.532 736.026 386.579Z"/>
	<path fill="#070606" transform="scale(0.180883 0.180883)" d="M736.068 344.328L736.156 376.503C730.803 376.485 725.381 376.632 720.037 376.416C720.834 366.041 720.238 355.305 720.196 344.89C725.467 344.621 730.837 345.087 736.068 344.328Z"/>
	<path fill="#070606" transform="scale(0.180883 0.180883)" d="M879.561 260.074L935.487 259.991C947.883 259.975 960.219 259.693 972.615 260.011L973.076 260.152C978.212 260.174 983.469 259.964 988.584 260.41L988.615 290.452C979.203 290.446 969.778 290.336 960.367 290.473L960.411 326.431L943.427 326.445L943.619 325.96C945.074 321.604 944.01 299.486 944.001 294.018Q911.744 293.725 879.486 293.982L879.424 277.355L879.209 277.044L879.381 260.443L879.561 260.074Z"/>
	<path fill="#4963C4" transform="scale(0.180883 0.180883)" d="M879.561 260.074L935.487 259.991C947.883 259.975 960.219 259.693 972.615 260.011L973.076 260.152C973.954 265.703 973.527 271.856 973.489 277.494C942.157 277.518 910.746 277.994 879.424 277.355L879.209 277.044L879.381 260.443L879.561 260.074Z"/>
	<path fill="#070606" transform="scale(0.180883 0.180883)" d="M50.3158 260.148L109.232 259.977C120.879 259.956 132.597 259.665 144.235 260.087C145.009 265.584 144.25 271.134 144.606 276.633L144.009 277.306Q144.209 285.651 144.172 293.999C159.933 294.021 176.231 294.875 191.909 293.412Q192.035 301.915 192.026 310.419C176.268 309.36 159.88 310.523 144.055 310.605L144.13 294.041C122.747 293.242 101.354 293.467 79.96 293.499L80.1461 326.567C74.9808 326.553 69.8505 326.588 64.6898 326.857C64.9226 314.715 64.4853 302.566 64.8443 290.428C54.7516 290.345 44.5225 290.094 34.4581 290.884C34.2588 280.719 34.6869 270.502 34.1112 260.351C39.4661 259.918 44.9427 260.103 50.3158 260.148Z"/>
	<path fill="#4963C4" transform="scale(0.180883 0.180883)" d="M50.3158 260.148L109.232 259.977C120.879 259.956 132.597 259.665 144.235 260.087C145.009 265.584 144.25 271.134 144.606 276.633L144.009 277.306C133.078 278.396 121.289 277.714 110.296 277.681L50.021 277.567C49.9988 271.797 49.7899 265.894 50.3158 260.148Z"/>
	<path fill="#513C71" transform="scale(0.180883 0.180883)" d="M799.929 293.746C809.461 293.118 823.768 292.726 833.182 293.597L833.581 294.138C847.63 293.07 865.155 293.97 879.486 293.982Q911.744 293.725 944.001 294.018C944.01 299.486 945.074 321.604 943.619 325.96Q943.52 318.23 943.682 310.502L926.999 310.482L927.048 319.999L911.939 319.993L912.01 351.093L848.726 351.006C837.961 351.057 827.185 351.672 816.424 351.364C816.494 354.518 817.006 358.52 816.022 361.538Q808.938 361.421 801.858 361.702L801.045 361.423C799.253 359.329 800.006 354.137 800.085 351.506L800.044 344.724C794.692 344.628 789.35 344.512 783.998 344.685L784.07 360.026L767.997 360L768.048 376.057L753.006 375.946L753.01 352.506L768.011 352.35L767.999 336.029L784.526 336.031L784.519 320.602Q792.255 320.557 799.983 320.893C799.962 317.488 799.661 313.768 800.359 310.437L800.25 310.096C799.362 305.025 799.938 298.952 799.929 293.746Z"/>
	<path fill="#070606" transform="scale(0.180883 0.180883)" d="M800.085 351.506C805.391 351.26 811.162 350.563 816.424 351.364C816.494 354.518 817.006 358.52 816.022 361.538Q808.938 361.421 801.858 361.702L801.045 361.423C799.253 359.329 800.006 354.137 800.085 351.506Z"/>
	<path fill="#070606" transform="scale(0.180883 0.180883)" d="M799.929 293.746C809.461 293.118 823.768 292.726 833.182 293.597L833.581 294.138C847.63 293.07 865.155 293.97 879.486 293.982L879.522 310.15Q856.793 310.713 834.058 310.5Q834.121 318.285 834.407 326.064C823.025 323.951 811.319 323.95 800.044 321.207Q799.932 332.966 800.044 344.724C794.692 344.628 789.35 344.512 783.998 344.685L784.07 360.026L767.997 360L768.048 376.057L753.006 375.946L753.01 352.506L768.011 352.35L767.999 336.029L784.526 336.031L784.519 320.602Q792.255 320.557 799.983 320.893C799.962 317.488 799.661 313.768 800.359 310.437L800.25 310.096C799.362 305.025 799.938 298.952 799.929 293.746Z"/>
	<path fill="#5288E1" transform="scale(0.180883 0.180883)" d="M799.929 293.746C809.461 293.118 823.768 292.726 833.182 293.597L833.581 294.138C833.697 299.5 833.886 304.873 833.9 310.236C822.655 310.984 811.607 310.771 800.359 310.437L800.25 310.096C799.362 305.025 799.938 298.952 799.929 293.746Z"/>
	<path fill="#5288E1" transform="scale(0.180883 0.180883)" d="M144.606 276.633C151.251 276.045 157.962 276.314 164.627 276.313C173.501 276.312 182.394 276.161 191.264 276.421L191.969 276.585C202.787 276.584 213.776 276.189 224.571 276.754C224.573 282.186 224.559 287.572 225.046 292.989L225.591 293.136L255.723 293.065C255.947 298.431 255.922 303.767 255.856 309.134C261.109 309.058 266.384 308.883 271.636 309.056C271.621 315.243 271.446 321.475 271.845 327.65C277.136 328.101 282.427 327.695 287.72 327.926C288.023 333.283 287.992 338.654 288.023 344.019C288.016 354.694 287.854 365.394 288.195 376.064C293.418 376.083 298.653 376.035 303.875 376.129C303.905 392.066 304.16 408.035 303.948 423.968L288.348 424.009C287.473 418.913 287.966 413.21 288.001 408.041L272.021 408.003L272.013 392.015C266.702 392.151 261.381 392.047 256.069 392.009L256.002 375.976L240.083 376.018Q232.171 376.144 224.26 375.986L224.022 375.702C221.281 376.467 211.108 376.777 208.634 375.538L208.079 371.285L208.11 364.193C208.015 362.612 208.275 360.938 207.138 359.798L207.493 359.605C208.564 357.909 208.093 353.083 208.097 351.008C208.219 343.17 208.374 335.339 208.097 327.502L192.027 327.584L192.026 310.419Q192.035 301.915 191.909 293.412C176.231 294.875 159.933 294.021 144.172 293.999Q144.209 285.651 144.009 277.306L144.606 276.633Z"/>
	<path fill="#070606" transform="scale(0.180883 0.180883)" d="M255.998 360.1Q263.762 359.932 271.527 359.974L271.565 376.188C266.395 375.942 261.179 376.027 256.002 375.976L255.998 360.1Z"/>
	<path fill="#071780" transform="scale(0.180883 0.180883)" d="M256.002 375.976C261.179 376.027 266.395 375.942 271.565 376.188C271.525 381.49 271.492 386.729 272.013 392.015C266.702 392.151 261.381 392.047 256.069 392.009L256.002 375.976Z"/>
	<path fill="#070606" transform="scale(0.180883 0.180883)" d="M271.845 327.65C277.136 328.101 282.427 327.695 287.72 327.926C288.023 333.283 287.992 338.654 288.023 344.019L272.101 343.928C272.093 338.504 272.171 333.066 271.845 327.65Z"/>
	<path fill="#070606" transform="scale(0.180883 0.180883)" d="M272.013 392.015L287.99 391.878L288.001 408.041L272.021 408.003L272.013 392.015Z"/>
	<path fill="#070606" transform="scale(0.180883 0.180883)" d="M223.985 327.339Q231.991 327.611 240.001 327.488L239.994 344.013L224.005 343.969L223.985 327.339Z"/>
	<path fill="#070606" transform="scale(0.180883 0.180883)" d="M192.026 310.419Q204.016 310.548 216.005 310.418L216.005 327.498L208.097 327.502L192.027 327.584L192.026 310.419Z"/>
	<path fill="#070606" transform="scale(0.180883 0.180883)" d="M191.969 276.585C202.787 276.584 213.776 276.189 224.571 276.754C224.573 282.186 224.559 287.572 225.046 292.989C214.027 292.658 203.034 292.44 192.02 293.025L191.969 276.585Z"/>
	<path fill="#070606" transform="scale(0.180883 0.180883)" d="M225.591 293.136L255.723 293.065C255.947 298.431 255.922 303.767 255.856 309.134C261.109 309.058 266.384 308.883 271.636 309.056C271.621 315.243 271.446 321.475 271.845 327.65C266.603 327.36 261.253 327.63 256 327.68L255.967 309.551Q240.942 308.981 225.943 310.027C226.018 304.395 225.774 298.764 225.591 293.136Z"/>
	<path fill="#070606" transform="scale(0.180883 0.180883)" d="M216.005 327.498C218.646 327.405 221.348 327.185 223.985 327.339L224.005 343.969L239.994 344.013L255.847 343.967L255.998 360.1L256.002 375.976L240.083 376.018Q232.171 376.144 224.26 375.986L224.022 375.702C221.281 376.467 211.108 376.777 208.634 375.538L208.079 371.285L208.11 364.193C208.015 362.612 208.275 360.938 207.138 359.798L207.493 359.605C208.564 357.909 208.093 353.083 208.097 351.008C208.219 343.17 208.374 335.339 208.097 327.502L216.005 327.498Z"/>
	<path fill="#4963C4" transform="scale(0.180883 0.180883)" d="M208.525 359.984C213.676 360.032 218.903 359.897 224.038 360.274L224.022 375.702C221.281 376.467 211.108 376.777 208.634 375.538L208.079 371.285L208.11 364.193L208.525 359.984Z"/>
	<path fill="#143556" transform="scale(0.180883 0.180883)" d="M255.998 360.1L256.002 375.976L240.083 376.018L240.012 360.027C245.319 360.181 250.695 360.417 255.998 360.1Z"/>
	<path fill="#143556" transform="scale(0.180883 0.180883)" d="M239.994 344.013L240.012 360.027C234.693 359.893 229.335 360.03 224.013 360.052L224.005 343.969L239.994 344.013Z"/>
	<path fill="#070606" transform="scale(0.180883 0.180883)" d="M239.994 344.013L255.847 343.967L255.998 360.1C250.695 360.417 245.319 360.181 240.012 360.027L239.994 344.013Z"/>
	<path fill="#143556" transform="scale(0.180883 0.180883)" d="M216.005 327.498C218.646 327.405 221.348 327.185 223.985 327.339L224.005 343.969C218.818 343.867 213.657 343.806 208.469 343.96L208.525 359.984L208.11 364.193C208.015 362.612 208.275 360.938 207.138 359.798L207.493 359.605C208.564 357.909 208.093 353.083 208.097 351.008C208.219 343.17 208.374 335.339 208.097 327.502L216.005 327.498Z"/>
	<path fill="#4963C4" transform="scale(0.180883 0.180883)" d="M926.999 310.482L943.682 310.502Q943.52 318.23 943.619 325.96L943.427 326.445C942.985 339.547 943.192 352.699 943.186 365.808C943.183 374.445 942.684 383.453 943.527 392.045L958.386 392.034C958.43 402.679 958.229 413.393 958.549 424.028L973.67 424.019C973.837 437.156 973.433 450.347 974.003 463.47L974.472 463.88L974.553 480.015L943.541 480.037L943.577 463.674C934.463 464.623 924.846 464.273 915.679 464.171Q898.297 463.889 880.912 463.996Q880.946 452.492 880.64 440.992L871.877 441.04L871.961 426.499L855.044 426.508L855.007 416.568L832.482 416.874C832.454 412.159 833.606 395.713 832.048 392.337L832.924 391.617C833.194 386.566 833.06 381.475 833.046 376.416L825.193 376.425C822.178 376.023 819.073 376.083 816.034 376.006L815.957 366.122L816.022 361.538C817.006 358.52 816.494 354.518 816.424 351.364C827.185 351.672 837.961 351.057 848.726 351.006L912.01 351.093L911.939 319.993L927.048 319.999L926.999 310.482Z"/>
	<path fill="#070606" transform="scale(0.180883 0.180883)" d="M943.527 392.045L958.386 392.034C958.43 402.679 958.229 413.393 958.549 424.028Q951.035 424.042 943.522 423.903L943.527 392.045Z"/>
	<path fill="#070606" transform="scale(0.180883 0.180883)" d="M879.994 392.357C885.222 392.352 890.454 392.225 895.682 392.149C896.581 397.5 896.204 402.66 895.917 408.036L912.547 407.976C912.508 413.254 912.957 418.849 912.192 424.065L912.016 424.435L895.539 424.767L895.614 408.904L880.043 409.003L879.994 392.357Z"/>
	<path fill="#070606" transform="scale(0.180883 0.180883)" d="M912.016 424.435L912.192 424.065C922.633 424.026 933.083 424.073 943.522 423.903L943.495 447.012Q927.837 446.913 912.178 446.992C912.12 439.525 912.429 431.882 912.016 424.435Z"/>
	<path fill="#070606" transform="scale(0.180883 0.180883)" d="M958.549 424.028L973.67 424.019C973.837 437.156 973.433 450.347 974.003 463.47C964.116 462.463 953.922 463.152 943.993 463.425Q943.874 455.413 944.031 447.402C948.795 447.514 953.571 447.473 958.336 447.499C958.655 439.694 958.524 431.841 958.549 424.028Z"/>
	<path fill="#070606" transform="scale(0.180883 0.180883)" d="M815.957 366.122C821.591 366.645 827.297 366.53 832.946 366.278L832.932 376.152L879.866 375.984C879.383 381.324 879.492 386.664 879.531 392.019C872.383 392.05 836.943 393.059 832.924 391.617C833.194 386.566 833.06 381.475 833.046 376.416L825.193 376.425C822.178 376.023 819.073 376.083 816.034 376.006L815.957 366.122Z"/>
	<path fill="#070606" transform="scale(0.180883 0.180883)" d="M928.011 326.489C933.147 326.56 938.291 326.47 943.427 326.445C942.985 339.547 943.192 352.699 943.186 365.808C943.183 374.445 942.684 383.453 943.527 392.045L927.95 392.001L928.011 326.489Z"/>
	<path fill="#4963C4" transform="scale(0.180883 0.180883)" d="M79.96 293.499C101.354 293.467 122.747 293.242 144.13 294.041L144.055 310.605C159.88 310.523 176.268 309.36 192.026 310.419L192.027 327.584L208.097 327.502C208.374 335.339 208.219 343.17 208.097 351.008C208.093 353.083 208.564 357.909 207.493 359.605L207.138 359.798C208.275 360.938 208.015 362.612 208.11 364.193L208.079 371.285L208.634 375.538C211.108 376.777 221.281 376.467 224.022 375.702L224.26 375.986C224.158 381.312 223.898 386.682 224.373 391.995C224.395 397.265 224.532 402.571 224.41 407.838L223.908 408.026C218.616 407.828 213.318 407.96 208.024 408.037L207.657 407.894Q199.913 408.131 192.166 408.015L192.065 416.016L159.967 416.007L160.012 440.02L143.996 440.006L144.014 464.02C122.93 463.761 101.908 463.515 80.8215 463.957C80.9987 458.773 81.7914 452.453 80.5993 447.414C75.2319 447.531 69.8473 447.477 64.4777 447.503Q64.4544 435.79 64.5589 424.077L64.9992 424.024C65.5142 413.457 65.0899 402.648 65.0743 392.058C69.9231 392.051 75.8361 392.689 80.5194 391.496C80.8451 384.621 80.4985 377.59 80.5133 370.694L80.5459 326.964L80.4774 326.577L80.1461 326.567L79.96 293.499Z"/>
	<path fill="#070606" transform="scale(0.180883 0.180883)" d="M192.49 359.998Q199.817 360.102 207.138 359.798C208.275 360.938 208.015 362.612 208.11 364.193L208.079 371.285L208.06 376.014C202.777 376.137 197.587 376.26 192.315 375.764C192.592 370.523 192.485 365.246 192.49 359.998Z"/>
	<path fill="#070606" transform="scale(0.180883 0.180883)" d="M128.004 391.993L143.999 391.988L144.011 408.438C138.697 408.436 133.306 408.626 128.017 408.077L128.004 391.993Z"/>
	<path fill="#070606" transform="scale(0.180883 0.180883)" d="M104.118 412.207C104.065 410.569 103.869 409.777 104.648 408.309C110.957 406.211 121.352 407.526 128.017 408.077L128.023 425.037C120.229 424.924 112.419 424.901 104.632 424.521C104.683 420.523 105.071 416.09 104.118 412.207Z"/>
	<path fill="#070606" transform="scale(0.180883 0.180883)" d="M80.5194 391.496C80.1723 402.413 79.8472 413.199 80.5429 424.114Q72.772 423.904 64.9992 424.024C65.5142 413.457 65.0899 402.648 65.0743 392.058C69.9231 392.051 75.8361 392.689 80.5194 391.496Z"/>
	<path fill="#071780" transform="scale(0.180883 0.180883)" d="M208.079 371.285L208.634 375.538C211.108 376.777 221.281 376.467 224.022 375.702L224.26 375.986C224.158 381.312 223.898 386.682 224.373 391.995C224.395 397.265 224.532 402.571 224.41 407.838L223.908 408.026C218.616 407.828 213.318 407.96 208.024 408.037L207.657 407.894C209.053 403.003 208.058 382.037 208.06 376.014L208.079 371.285Z"/>
	<path fill="#070606" transform="scale(0.180883 0.180883)" d="M104.118 412.207C105.071 416.09 104.683 420.523 104.632 424.521C103.111 431.844 103.828 439.583 104.056 447.007L80.9659 446.971Q81.0395 435.604 80.8513 424.239C88.5877 423.243 96.3184 423.471 104.077 424.043L104.118 412.207Z"/>
	<path fill="#070606" transform="scale(0.180883 0.180883)" d="M144.001 375.69L191.992 375.91L192.014 392.112Q168.006 392.201 143.999 391.988L144.001 375.69Z"/>
	<path fill="#070606" transform="scale(0.180883 0.180883)" d="M80.5459 326.964L96.0694 326.979Q95.5622 359.002 96.3284 391.019C91.3583 390.983 85.3426 390.348 80.5194 391.496C80.8451 384.621 80.4985 377.59 80.5133 370.694L80.5459 326.964Z"/>
	<path fill="#513C71" transform="scale(0.180883 0.180883)" d="M79.96 293.499C101.354 293.467 122.747 293.242 144.13 294.041L144.055 310.605C159.88 310.523 176.268 309.36 192.026 310.419L192.027 327.584L208.097 327.502C208.374 335.339 208.219 343.17 208.097 351.008C176.24 350.615 144.332 350.984 112.469 350.978L112.507 327.007L96.4174 326.931C97.3088 321.395 96.9946 315.72 96.905 310.134C91.4337 309.846 85.872 309.986 80.3892 309.952Q80.635 318.263 80.4774 326.577L80.1461 326.567L79.96 293.499Z"/>
	<path fill="#1E72A6" transform="scale(0.180883 0.180883)" d="M663.352 207.897C667.209 207.514 671.157 207.593 675.035 207.53C675.015 215.035 674.764 222.604 675.21 230.096C676.373 243.86 675.647 257.461 675.502 271.229C675.67 275.08 677.262 285.669 674.399 288.551C673.814 289.14 672.816 289.029 672.029 289.125C669.201 288.475 666.869 288.711 664.044 289.092C659.536 289.622 654.911 289.344 650.379 289.261C648.94 289.598 648.914 289.463 648.127 290.688Q647.987 292.91 647.956 295.136C647.421 306.091 647.783 317.031 647.988 327.991L632.466 328.022C632.46 333.301 632.276 338.647 632.763 343.908C633.357 348.795 633.835 356.145 632.747 360.91L632.552 367.618C629.859 367.906 627.244 368.018 624.537 368.022L616.086 367.858C611.05 367.358 605.909 367.441 600.85 367.34L600.19 367.514L591.055 367.501L559.519 367.488C559.426 370.467 559.487 373.542 559.212 376.504L559.807 378.844C558.417 380.057 557.504 380.215 555.669 380.075C554.894 380.017 554.119 379.919 553.348 379.824C550.561 379.079 546.837 379.472 543.914 379.483L472.103 379.371C471.756 378.55 471.395 378.016 470.877 377.302C469.191 376.266 467.39 376.479 465.483 376.494L465.412 368.205L464.865 368.089C459.338 367.292 453.723 367.546 448.151 367.575C442.812 368.114 437.407 367.994 432.045 368.023L408.977 367.974L409.017 375.48L408.675 375.531C405.932 376.417 402.831 376.169 399.98 375.997L399.985 359.936L383.975 359.617Q384.031 347.429 383.564 335.249L368 335.223C368.018 332.767 367.988 330.392 367.708 327.946C362.412 327.802 357.105 327.911 351.807 327.954C352.171 319.788 352.396 311.583 351.062 303.494C349.818 300.839 349.316 298.391 348.843 295.529C346.625 277.104 348.253 254.469 348.507 235.591C351.928 237.265 355.28 239.345 359.181 237.974C359.389 237.9 359.589 237.804 359.793 237.719C359.936 238.454 359.865 239.4 360.534 239.846C363.453 241.795 373.617 240.597 377.007 239.797C381.27 239.582 386.043 239.134 390.262 239.924L392.804 240.03L408.48 240.007C408.474 245.236 408.099 250.82 408.897 255.99L409.545 256.077C410.218 261.623 409.565 267.205 410.156 272.724L410.345 272.91L429.059 272.929C429.034 278.15 429.403 283.83 428.873 289.005L446.993 289.019L464.596 288.963L464.538 280.066L560.971 280.148L561.021 288.02L579.391 287.986C579.139 282.713 579.142 277.417 579.055 272.139C584.93 272.046 590.821 272.141 596.697 272.151C596.918 266.839 596.623 261.415 596.541 256.094L614.811 256.111C620.24 255.923 625.638 256.044 631.066 256.184L631.036 240.569C636.671 240.341 642.163 240.076 647.808 240.4L647.651 223.481C652.864 223.311 658.128 223.434 663.346 223.425L663.352 207.897Z"/>
	<path fill="#071780" transform="scale(0.180883 0.180883)" d="M616.008 359.478Q616.885 359.485 617.762 359.506C620.746 359.58 631.006 359.083 632.747 360.91L632.552 367.618C629.859 367.906 627.244 368.018 624.537 368.022L616.086 367.858L616.008 359.478Z"/>
	<path fill="#143556" transform="scale(0.180883 0.180883)" d="M399.985 359.936L408.479 360.002C408.51 365.157 408.354 370.388 408.675 375.531C405.932 376.417 402.831 376.169 399.98 375.997L399.985 359.936Z"/>
	<path fill="#11B9E7" transform="scale(0.180883 0.180883)" d="M590.855 351.589C596.933 352.417 602.87 352.397 608.982 352.257C608.812 357.161 608.58 362.071 608.648 366.979C606.067 367.036 603.404 366.953 600.85 367.34L600.19 367.514L591.055 367.501C591.879 362.256 591.326 356.84 590.855 351.589Z"/>
	<path fill="#071780" transform="scale(0.180883 0.180883)" d="M361.015 271.682L375.996 271.544C376.157 277.108 376.805 283.453 375.464 288.868C370.518 289.024 365.53 288.84 360.581 288.789C360.514 283.083 360.398 277.363 361.015 271.682Z"/>
	<path fill="#071780" transform="scale(0.180883 0.180883)" d="M648.152 271.967C653.418 272.002 658.75 272.213 664.001 271.782C664.002 277.547 663.923 283.329 664.044 289.092C659.536 289.622 654.911 289.344 650.379 289.261C649.782 289.206 649.315 289.015 648.753 288.814C647.18 284.51 648.123 276.719 648.152 271.967Z"/>
	<path fill="#2AE2ED" transform="scale(0.180883 0.180883)" d="M580.439 288.662C585.938 289.041 591.485 288.969 596.996 289.025L597.009 306.52L580.47 306.053L580.439 288.662Z"/>
	<path fill="#2AE2ED" transform="scale(0.180883 0.180883)" d="M410.345 272.91L429.059 272.929C429.034 278.15 429.403 283.83 428.873 289.005L427 289.139C421.344 289.559 415.675 289.212 410.014 289.007C409.909 283.848 409.34 277.975 410.345 272.91Z"/>
	<path fill="#2AE2ED" transform="scale(0.180883 0.180883)" d="M428.873 289.005L446.993 289.019C446.999 294.665 446.936 300.32 447.013 305.965C440.635 306.508 434.396 306.404 428.018 306.041C427.825 300.238 427.501 294.707 428.873 289.005Z"/>
	<path fill="#070606" transform="scale(0.180883 0.180883)" d="M351.062 303.494L367.512 303.48C367.482 311.441 366.798 320.063 367.708 327.946C362.412 327.802 357.105 327.911 351.807 327.954C352.171 319.788 352.396 311.583 351.062 303.494Z"/>
	<path fill="#22C8E0" transform="scale(0.180883 0.180883)" d="M431.997 351.905C443 351.784 453.986 351.647 464.987 352.01C465.101 357.033 465.891 363.188 464.865 368.089C459.338 367.292 453.723 367.546 448.151 367.575C442.782 367.282 437.387 367.456 432.013 367.524L431.997 351.905Z"/>
	<path fill="#2AE2ED" transform="scale(0.180883 0.180883)" d="M390.262 239.924L392.804 240.03L408.48 240.007C408.474 245.236 408.099 250.82 408.897 255.99L409.545 256.077C410.218 261.623 409.565 267.205 410.156 272.724C404.706 273.744 398.54 273.198 393.004 273.006L393.057 256.419Q385.031 256.699 377.002 256.825C376.892 251.255 376.994 245.674 377.023 240.102Q383.644 240.12 390.262 239.924Z"/>
	<path fill="#070606" transform="scale(0.180883 0.180883)" d="M392.804 240.03L408.48 240.007C408.474 245.236 408.099 250.82 408.897 255.99C403.616 255.733 398.414 255.909 393.138 256.133C393.124 250.769 393.225 245.38 392.804 240.03Z"/>
	<path fill="#071780" transform="scale(0.180883 0.180883)" d="M632.081 295.071C637.459 294.595 642.589 294.442 647.956 295.136C647.421 306.091 647.783 317.031 647.988 327.991L632.466 328.022C632.46 333.301 632.276 338.647 632.763 343.908C627.189 344.009 621.606 343.977 616.031 344.007L615.979 311.009L632.034 311.059L632.081 295.071Z"/>
	<path fill="#11B9E7" transform="scale(0.180883 0.180883)" d="M465.412 368.205C478.1 367.066 490.706 368.013 503.412 367.94C521.941 367.833 540.495 367.056 559.024 367.435C558.943 370.299 558.486 373.746 559.212 376.504L559.807 378.844C558.417 380.057 557.504 380.215 555.669 380.075C554.894 380.017 554.119 379.919 553.348 379.824C550.561 379.079 546.837 379.472 543.914 379.483L472.103 379.371C471.756 378.55 471.395 378.016 470.877 377.302C469.191 376.266 467.39 376.479 465.483 376.494L465.412 368.205Z"/>
	<path fill="#071780" transform="scale(0.180883 0.180883)" d="M376.508 295.177L392.012 295.064L391.999 311.505L407.539 311.489Q407.606 331.772 407.889 352.054L392.512 352.047L392.538 328.022L376.481 327.997Q376.407 311.587 376.508 295.177Z"/>
	<path fill="#2AE2ED" transform="scale(0.180883 0.180883)" d="M663.352 207.897C667.209 207.514 671.157 207.593 675.035 207.53C675.015 215.035 674.764 222.604 675.21 230.096C675.084 230.811 675.099 232.137 674.453 232.519C671.934 234.011 666.976 232.966 664.04 233.044L664.215 241.027L648.032 240.949L648.008 256.528Q639.832 256.587 631.657 256.475C632.023 261.984 631.986 267.458 631.942 272.975L614.959 273.001L614.989 288.96L596.996 289.025L596.917 272.489L614.496 272.507C614.495 267.05 614.351 261.552 614.811 256.111C620.24 255.923 625.638 256.044 631.066 256.184L631.036 240.569C636.671 240.341 642.163 240.076 647.808 240.4L647.651 223.481C652.864 223.311 658.128 223.434 663.346 223.425L663.352 207.897Z"/>
	<path fill="#2AE2ED" transform="scale(0.180883 0.180883)" d="M464.53 295.994Q512.275 295.6 560.019 295.999L560.036 306.449C564.628 306.202 569.182 305.966 573.784 306.075C575.973 306.473 578.287 306.448 580.509 306.548L580.51 322.715C573.667 322.524 566.841 322.619 559.997 322.724L559.969 307.443C541.37 308.154 522.801 307.912 504.194 307.854C491.238 307.813 477.882 308.374 464.998 306.943L465.01 322.446L446.979 322.433L447.013 305.965Q455.836 306.096 464.649 306.525L464.53 295.994Z"/>
	<path fill="#22C8E0" transform="scale(0.180883 0.180883)" d="M456.974 333.046L567.995 332.99L568.024 351.504Q579.44 351.358 590.855 351.589C591.326 356.84 591.879 362.256 591.055 367.501L559.519 367.488C559.249 360.194 559.487 352.805 559.483 345.501L456.978 345.448L456.974 333.046Z"/>
	<path fill="#070606" transform="scale(0.180883 0.180883)" d="M596.541 256.094L614.811 256.111C614.351 261.552 614.495 267.05 614.496 272.507L596.917 272.489L596.996 289.025C591.485 288.969 585.938 289.041 580.439 288.662L580.47 306.053Q577.127 306.026 573.784 306.075C569.182 305.966 564.628 306.202 560.036 306.449L560.019 295.999Q512.275 295.6 464.53 295.994L464.649 306.525Q455.836 306.096 447.013 305.965C446.936 300.32 446.999 294.665 446.993 289.019L464.596 288.963L464.538 280.066L560.971 280.148L561.021 288.02L579.391 287.986C579.139 282.713 579.142 277.417 579.055 272.139C584.93 272.046 590.821 272.141 596.697 272.151C596.918 266.839 596.623 261.415 596.541 256.094Z"/>
	<path fill="#143556" transform="scale(0.180883 0.180883)" d="M800.044 344.724L800.085 351.506C800.006 354.137 799.253 359.329 801.045 361.423L801.858 361.702Q808.938 361.421 816.022 361.538L815.957 366.122L816.034 376.006C819.073 376.083 822.178 376.023 825.193 376.425L833.046 376.416C833.06 381.475 833.194 386.566 832.924 391.617L832.048 392.337C833.606 395.713 832.454 412.159 832.482 416.874L855.007 416.568L855.044 426.508L871.961 426.499L871.877 441.04L880.64 440.992Q880.946 452.492 880.912 463.996Q898.297 463.889 915.679 464.171C924.846 464.273 934.463 464.623 943.577 463.674L943.541 480.037L974.553 480.015L974.475 503.996L990.985 504.024C991.009 513.501 991.224 523.017 991 532.489C984.676 532.609 978.448 532.677 972.123 532.46L971.937 530.997C952.075 530.336 932.161 531.243 912.274 530.653L911.983 530.881C901.678 530.775 891.49 530.795 881.189 531.066C881.39 536.587 881.496 542.07 881.409 547.596L881.029 547.588C880.741 554.399 880.782 561.168 880.894 567.983C875.256 567.956 869.596 567.827 863.96 567.928L847.978 567.972C847.998 575.944 848.14 583.938 847.942 591.907L847.606 591.917C842.438 591.118 836.716 591.813 831.498 592.027L831.497 607.963C824.672 608.11 817.828 608 811.001 607.982L811.053 620.952C805.65 621.148 800.299 621.084 794.897 620.942C795.766 612.599 795.464 604.105 795.395 595.73C794.725 599.564 794.992 603.585 795.057 607.464C788.705 607.916 782.403 607.915 776.039 607.866C775.55 589.212 775.762 570.613 775.924 551.959L752.949 552.064C752.213 540.77 752.489 529.365 752.476 518.049L736.547 518.058Q736.444 503.278 735.999 488.505Q727.983 488.555 719.974 488.91L719.924 456.576L720.091 456.032C719.8 450.909 720.058 445.691 720.118 440.559C721.615 436.649 720.543 422.61 720.485 417.866L720.93 417.883C725.693 417.228 730.975 417.705 735.824 417.412L736.096 416.474C741.526 417.06 747.119 416.608 752.569 416.426C752.428 406.49 752.203 396.467 752.924 386.552L753.006 375.946L768.048 376.057L767.997 360L784.07 360.026L783.998 344.685C789.35 344.512 794.692 344.628 800.044 344.724Z"/>
	<path fill="#071780" transform="scale(0.180883 0.180883)" d="M849.906 448.044L855.574 447.903C855.827 453.289 855.982 458.617 855.81 464.011L850.043 464.067L849.906 448.044Z"/>
	<path fill="#071780" transform="scale(0.180883 0.180883)" d="M817.627 408.542C819.095 408.534 819.941 408.32 821.205 409.105C822.704 416.203 821.926 424.692 821.951 431.948L817.396 432.011L817.627 408.542Z"/>
	<path fill="#5288E1" transform="scale(0.180883 0.180883)" d="M801.858 361.702Q808.938 361.421 816.022 361.538L815.957 366.122L816.034 376.006C810.888 376.389 805.656 376.319 800.495 376.426C800.412 372.046 799.705 366.435 800.806 362.216L801.858 361.702Z"/>
	<path fill="#070606" transform="scale(0.180883 0.180883)" d="M768.516 376.493L783.993 376.482C783.978 381.585 783.998 386.654 784.286 391.752C779.559 392.735 773.516 392.025 768.65 392.001C768.671 386.835 768.564 381.66 768.516 376.493Z"/>
	<path fill="#070606" transform="scale(0.180883 0.180883)" d="M821.951 431.948C825.549 431.878 829.45 431.157 832.411 433.559C834.334 436.94 832.88 444.062 832.837 448.027L817.077 448.002C817.073 442.675 817.274 437.337 817.396 432.011L821.951 431.948Z"/>
	<path fill="#070606" transform="scale(0.180883 0.180883)" d="M784.958 392.221C790.316 392.458 795.608 392.49 800.97 392.359C800.847 397.734 800.684 403.085 801.007 408.457Q793.031 408.445 785.056 408.329L784.958 392.221Z"/>
	<path fill="#070606" transform="scale(0.180883 0.180883)" d="M832.837 448.027C838.541 448.164 844.202 448.231 849.906 448.044L850.043 464.067L832.971 464.003L832.837 448.027Z"/>
	<path fill="#5288E1" transform="scale(0.180883 0.180883)" d="M825.193 376.425L833.046 376.416C833.06 381.475 833.194 386.566 832.924 391.617L832.048 392.337C826.761 392.716 821.351 392.452 816.049 392.422L816.026 376.511Q820.61 376.56 825.193 376.425Z"/>
	<path fill="#070606" transform="scale(0.180883 0.180883)" d="M864.007 547.479Q872.518 547.486 881.029 547.588C880.741 554.399 880.782 561.168 880.894 567.983C875.256 567.956 869.596 567.827 863.96 567.928L864.007 547.479Z"/>
	<path fill="#070606" transform="scale(0.180883 0.180883)" d="M801.007 408.457L817.627 408.542L817.396 432.011L801.052 432.006L801.007 408.457Z"/>
	<path fill="#070606" transform="scale(0.180883 0.180883)" d="M912.155 511.996L972.001 511.971C971.998 518.283 972.238 524.699 971.937 530.997C952.075 530.336 932.161 531.243 912.274 530.653C912.455 524.464 912.772 518.165 912.155 511.996Z"/>
	<path fill="#070606" transform="scale(0.180883 0.180883)" d="M855.81 464.011L866.502 464.014C866.753 487.892 865.266 512.218 866.97 536.016L850.007 536.006C849.965 512.013 850.501 488.062 850.043 464.067L855.81 464.011Z"/>
	<path fill="#4963C4" transform="scale(0.180883 0.180883)" d="M767.52 431.965L784.044 432.009L784.024 447.982L800.066 448.003L800.037 463.982L816.02 464.007L816.016 526.5C821.218 526.524 826.44 526.449 831.638 526.611Q831.403 559.318 831.498 592.027L831.497 607.963C824.672 608.11 817.828 608 811.001 607.982L811.053 620.952C805.65 621.148 800.299 621.084 794.897 620.942C795.766 612.599 795.464 604.105 795.395 595.73Q796.087 573.837 795.785 551.936C795.344 538.946 795.934 525.706 795.952 512.691L782.748 512.678C783.172 498.988 782.954 485.252 782.924 471.555L767.845 471.593C767.96 458.393 767.646 445.167 767.52 431.965Z"/>
	<path fill="#070606" transform="scale(0.180883 0.180883)" d="M795.785 551.936C800.853 551.474 805.897 551.563 810.978 551.616L811.001 607.982L811.053 620.952C805.65 621.148 800.299 621.084 794.897 620.942C795.766 612.599 795.464 604.105 795.395 595.73Q796.087 573.837 795.785 551.936Z"/>
	<path fill="#4963C4" transform="scale(0.180883 0.180883)" d="M735.824 417.412C736.24 422.261 735.739 427.202 736.506 432.008L767.52 431.965C767.646 445.167 767.96 458.393 767.845 471.593L782.924 471.555C782.954 485.252 783.172 498.988 782.748 512.678L795.952 512.691C795.934 525.706 795.344 538.946 795.785 551.936Q796.087 573.837 795.395 595.73C794.725 599.564 794.992 603.585 795.057 607.464C788.705 607.916 782.403 607.915 776.039 607.866C775.55 589.212 775.762 570.613 775.924 551.959L752.949 552.064C752.213 540.77 752.489 529.365 752.476 518.049L736.547 518.058Q736.444 503.278 735.999 488.505Q727.983 488.555 719.974 488.91L719.924 456.576L720.091 456.032C719.8 450.909 720.058 445.691 720.118 440.559C721.615 436.649 720.543 422.61 720.485 417.866L720.93 417.883C725.693 417.228 730.975 417.705 735.824 417.412Z"/>
	<path fill="#143556" transform="scale(0.180883 0.180883)" d="M735.824 417.412C736.24 422.261 735.739 427.202 736.506 432.008L736.525 439.963C741.117 439.946 746.234 439.485 750.741 440.332Q743.367 440.557 735.99 440.47C735.817 445.653 735.668 450.809 735.787 455.997L720.091 456.032C719.8 450.909 720.058 445.691 720.118 440.559C721.615 436.649 720.543 422.61 720.485 417.866L720.93 417.883C725.693 417.228 730.975 417.705 735.824 417.412Z"/>
	<path fill="#070606" transform="scale(0.180883 0.180883)" d="M735.824 417.412C736.24 422.261 735.739 427.202 736.506 432.008L720.952 432.001Q720.982 424.942 720.93 417.883C725.693 417.228 730.975 417.705 735.824 417.412Z"/>
	<path fill="#070606" transform="scale(0.180883 0.180883)" d="M736.506 432.008L767.52 431.965C767.646 445.167 767.96 458.393 767.845 471.593L782.924 471.555C782.954 485.252 783.172 498.988 782.748 512.678L795.952 512.691C795.934 525.706 795.344 538.946 795.785 551.936C790.909 552.139 785.969 551.987 781.086 551.997C781.092 538.891 781.353 525.775 781.509 512.67C776.991 512.548 772.473 512.686 767.956 512.785L767.808 472.004L751.991 471.998C752.056 466.594 752.326 461.192 752.383 455.786C752.423 451.971 753.271 442.916 750.741 440.332C746.234 439.485 741.117 439.946 736.525 439.963L736.506 432.008Z"/>
	<path fill="#143556" transform="scale(0.180883 0.180883)" d="M224.26 375.986Q232.171 376.144 240.083 376.018L256.002 375.976L256.069 392.009C261.381 392.047 266.702 392.151 272.013 392.015L272.021 408.003L288.001 408.041C287.966 413.21 287.473 418.913 288.348 424.009L303.948 423.968C303.968 429.324 303.936 434.688 304.023 440.043L304.033 455.998L304.017 472.122C298.681 472.534 293.345 472.782 288.021 472.091L287.991 512.029L271.882 512.01L272.018 560.034L255.975 560.011L255.987 568.03L247.996 568.016C247.973 580.949 247.074 594.582 248.497 607.432L248.502 620.989C242.837 621.092 237.191 621.18 231.525 621.016C231.544 630.975 231.887 641.053 231.537 650.997L231.419 651.436C225.241 651.819 219.163 652.122 212.983 651.627L212.39 650.958C211.398 644.134 211.863 636.163 212.404 629.271C212.481 626.849 213.01 623.489 211.649 621.447C205.823 621.353 200.011 621.629 194.176 621.458L193.95 620.072Q193.697 613.743 193.24 607.425L192.933 603.716C192.22 599.905 192.498 595.846 192.536 591.977L176.975 591.964L176.564 591.535L160.16 591.563Q160.196 579.928 160.112 568.293C154.849 568.062 149.56 568.149 144.292 568.139C144.149 562 144.187 555.844 144.143 549.702C139.019 549.516 133.737 550.433 128.666 549.746C127.734 548.424 128.141 546.817 127.754 545.227C123.198 544.143 117.283 544.871 112.556 544.947L112.567 530.994C92.3316 530.546 72.0244 531.337 51.7836 531.502L51.5586 531.878C45.5258 532.14 39.3566 532.105 33.3497 532.58L33.0879 532.561C32.8128 523.059 32.9334 513.498 33.0764 503.995L49.5172 503.999L49.5133 480.063L49.5094 464.007L80.4232 463.924Q80.6047 455.67 80.5993 447.414C81.7914 452.453 80.9987 458.773 80.8215 463.957C101.908 463.515 122.93 463.761 144.014 464.02L143.996 440.006L160.012 440.02L159.967 416.007L192.065 416.016L192.166 408.015Q199.913 408.131 207.657 407.894L208.024 408.037C213.318 407.96 218.616 407.828 223.908 408.026L224.41 407.838C224.532 402.571 224.395 397.265 224.373 391.995C223.898 386.682 224.158 381.312 224.26 375.986Z"/>
	<path fill="#070606" transform="scale(0.180883 0.180883)" d="M288.348 424.009L303.948 423.968C303.968 429.324 303.936 434.688 304.023 440.043C298.843 440.021 293.599 439.83 288.432 440.228C288.501 434.819 288.625 429.414 288.348 424.009Z"/>
	<path fill="#070606" transform="scale(0.180883 0.180883)" d="M208.024 408.037C213.318 407.96 218.616 407.828 223.908 408.026C224.327 413.371 223.98 418.736 224.301 424.083L208.05 423.98L208.024 408.037Z"/>
	<path fill="#4963C4" transform="scale(0.180883 0.180883)" d="M49.5094 464.007L80.4232 463.924Q80.5957 471.964 80.4733 480.004L49.5133 480.063L49.5094 464.007Z"/>
	<path fill="#070606" transform="scale(0.180883 0.180883)" d="M191.991 423.904L208.05 423.98L208.115 448.029L192.009 447.887L192.028 464.107L175.997 463.982L175.998 447.414L191.999 447.504L191.991 423.904Z"/>
	<path fill="#070606" transform="scale(0.180883 0.180883)" d="M224.26 375.986Q232.171 376.144 240.083 376.018L256.002 375.976L256.069 392.009Q248.179 392.091 240.29 391.999L240.442 408.018C235.188 407.982 229.629 408.277 224.41 407.838C224.532 402.571 224.395 397.265 224.373 391.995C223.898 386.682 224.158 381.312 224.26 375.986Z"/>
	<path fill="#143556" transform="scale(0.180883 0.180883)" d="M224.26 375.986Q232.171 376.144 240.083 376.018L240.079 391.964L224.373 391.995C223.898 386.682 224.158 381.312 224.26 375.986Z"/>
	<path fill="#070606" transform="scale(0.180883 0.180883)" d="M159.983 463.981L175.997 463.982L176.018 535.118C170.676 534.88 165.385 535.155 160.061 535.539L159.983 463.981Z"/>
	<path fill="#070606" transform="scale(0.180883 0.180883)" d="M51.9399 511.981L112.517 511.969C112.538 517.663 112.441 523.389 112.613 529.08L143.99 528.88C144.013 534.914 143.953 540.962 144.071 546.994L160.109 546.962Q160.22 557.485 160.158 568.008L176.052 567.973C176.022 575.637 175.397 583.978 176.564 591.535L160.16 591.563Q160.196 579.928 160.112 568.293C154.849 568.062 149.56 568.149 144.292 568.139C144.149 562 144.187 555.844 144.143 549.702C139.019 549.516 133.737 550.433 128.666 549.746C127.734 548.424 128.141 546.817 127.754 545.227C123.198 544.143 117.283 544.871 112.556 544.947L112.567 530.994C92.3316 530.546 72.0244 531.337 51.7836 531.502C52.2149 525.036 51.9756 518.463 51.9399 511.981Z"/>
	<path fill="#4963C4" transform="scale(0.180883 0.180883)" d="M256.044 424.03L271.993 423.974L271.933 440.387C277.23 440.377 282.563 440.495 287.854 440.238L288.432 440.228C293.599 439.83 298.843 440.021 304.023 440.043L304.033 455.998L304.017 472.122C298.681 472.534 293.345 472.782 288.021 472.091L287.991 512.029L271.882 512.01L272.018 560.034L255.975 560.011L255.987 568.03L247.996 568.016C247.973 580.949 247.074 594.582 248.497 607.432L248.502 620.989C242.837 621.092 237.191 621.18 231.525 621.016C231.544 630.975 231.887 641.053 231.537 650.997L231.419 651.436C225.241 651.819 219.163 652.122 212.983 651.627L212.39 650.958C211.398 644.134 211.863 636.163 212.404 629.271C212.481 626.849 213.01 623.489 211.649 621.447C205.823 621.353 200.011 621.629 194.176 621.458L193.95 620.072Q193.697 613.743 193.24 607.425L192.933 603.716C193.259 593.902 192.715 584.07 192.598 574.256L191.972 511.996L208.514 511.996L208.485 480.009L223.996 480.004L223.964 455.997L239.997 456.004L239.953 424L256.044 424.03Z"/>
	<path fill="#071780" transform="scale(0.180883 0.180883)" d="M193.24 607.425L208.012 607.246C207.927 610.833 206.786 617.83 209.076 620.773C209.935 621.04 210.765 621.279 211.649 621.447C205.823 621.353 200.011 621.629 194.176 621.458L193.95 620.072Q193.697 613.743 193.24 607.425Z"/>
	<path fill="#071780" transform="scale(0.180883 0.180883)" d="M288.432 440.228C293.599 439.83 298.843 440.021 304.023 440.043L304.033 455.998L288.386 456C288.548 451.435 289.553 444.391 287.854 440.238L288.432 440.228Z"/>
	<path fill="#071780" transform="scale(0.180883 0.180883)" d="M226.464 616.499C226.448 618.197 226.197 619.216 227.083 620.691C228.608 621.13 229.963 621.066 231.525 621.016C231.544 630.975 231.887 641.053 231.537 650.997L231.419 651.436C225.241 651.819 219.163 652.122 212.983 651.627L212.39 650.958C211.398 644.134 211.863 636.163 212.404 629.271C212.383 631.11 212.017 633.606 213.438 635.012C215.76 637.307 221.412 636.118 224.479 635.967C224.579 629.49 225.229 623.031 225.289 616.544L226.464 616.499Z"/>
	<path fill="#070606" transform="scale(0.180883 0.180883)" d="M240.913 480.499Q248.396 480.516 255.872 480.171C256.608 490.849 256.179 501.344 256.282 512.025L240.531 511.983C241.004 501.493 240.925 490.997 240.913 480.499Z"/>
	<path fill="#070606" transform="scale(0.180883 0.180883)" d="M256.044 424.03L271.993 423.974L271.933 440.387L272 480.062C266.595 480.164 261.193 480.018 255.788 479.906C256.671 461.276 256.275 442.67 256.044 424.03Z"/>
	<path fill="#070606" transform="scale(0.180883 0.180883)" d="M226.029 512.235L240.531 511.983Q240.085 531.864 240.479 551.745C235.743 551.653 230.995 551.481 226.261 551.685Q226.633 584.091 226.464 616.499L225.289 616.544L212.935 616.546L212.684 551.923Q219.315 551.693 225.948 551.542C224.949 538.513 225.542 525.28 226.029 512.235Z"/>
	<path fill="#070606" transform="scale(0.180883 0.180883)" d="M368 335.223L383.564 335.249Q384.031 347.429 383.975 359.617L399.985 359.936L399.98 375.997C402.831 376.169 405.932 376.417 408.675 375.531L409.017 375.48L408.977 367.974L432.045 368.023C437.407 367.994 442.812 368.114 448.151 367.575C453.723 367.546 459.338 367.292 464.865 368.089L465.412 368.205L465.483 376.494C467.39 376.479 469.191 376.266 470.877 377.302C471.395 378.016 471.756 378.55 472.103 379.371L543.914 379.483C546.837 379.472 550.561 379.079 553.348 379.824C554.119 379.919 554.894 380.017 555.669 380.075C557.504 380.215 558.417 380.057 559.807 378.844L559.212 376.504C559.487 373.542 559.426 370.467 559.519 367.488L591.055 367.501L600.19 367.514L600.406 377.555C603.936 377.526 607.763 377.029 610.565 379.63C612.476 381.402 612.929 384.062 612.941 386.558C612.962 391.404 612.49 396.257 612.426 401.106L612.43 407.47C612.493 410.655 612.427 413.906 612.675 417.079C612.235 422.321 608.42 426.076 608.532 431.598C613.661 431.649 618.854 432.057 623.973 431.948Q623.58 443.996 623.86 456.047L661.549 455.963L661.959 455.839L671.151 455.84Q672.044 451.933 672.838 448.004L687.825 448.012C688.145 442.707 687.927 437.271 687.854 431.955C693.128 432.056 698.407 432.051 703.682 432.087C704.061 427.02 703.794 421.836 703.745 416.755C709.147 416.62 714.609 416.847 720.015 416.924L720.485 417.866C720.543 422.61 721.615 436.649 720.118 440.559C720.058 445.691 719.8 450.909 720.091 456.032L719.924 456.576L719.974 488.91Q727.983 488.555 735.999 488.505Q736.444 503.278 736.547 518.058L752.476 518.049C752.489 529.365 752.213 540.77 752.949 552.064L775.924 551.959C775.762 570.613 775.55 589.212 776.039 607.866L720.63 607.997C720.651 613.187 720.928 618.51 720.568 623.682Q712.111 623.641 703.655 623.74L703.628 639.757C698.418 640.035 693.194 639.975 687.978 639.979L687.973 671.954L687.938 688.121L687.997 704.357Q679.962 704.199 671.928 704.426L663.892 704.45C663.656 709.783 663.77 715.06 663.932 720.391C656.026 720.28 647.855 720.715 639.992 720.177L640.053 750.937C632.063 750.867 623.916 751.163 615.947 750.739L615.992 767.944Q604.064 767.751 592.135 767.937L592.128 751.742Q583.926 751.832 575.724 751.807Q575.68 761.02 575.934 770.229C568.259 770.116 560.62 770.172 552.946 770.301C553.153 777.168 553.453 784.051 553.402 790.922L536.864 790.991L536.991 807.978C531.684 807.947 526.368 807.855 521.061 807.911Q521.501 818.911 521.435 829.919L504.043 829.98L504.021 808.557C498.495 808.602 492.929 808.512 487.414 808.869Q487.259 799.989 487.489 791.111L487.524 768.062C482.066 768.015 476.605 767.912 471.15 768.151L470.55 768.072C463.736 768.008 456.912 768.12 450.097 768.157Q450.098 760.077 450.299 751.999C441.998 751.889 433.686 751.965 425.384 751.954C425.287 757.481 425.418 763.034 425.442 768.562L408.531 768.909C408.93 763.28 408.846 757.597 408.903 751.955Q396.943 751.771 384.983 751.946C385.067 741.812 384.854 731.652 384.75 721.517C384.692 715.866 384.396 710.114 384.902 704.487L368.006 704.434L368.037 712.452L352.223 712.463L352.219 703.927L336.193 703.951Q336.117 687.968 336.319 671.986C330.965 671.845 325.589 671.972 320.233 672.002C320.386 661.313 320.048 650.576 320.143 639.873L319.994 639.617Q319.954 631.553 320.027 623.489Q312.257 623.488 304.488 623.331L304.375 622.99C304.2 617.825 304.31 612.651 304.355 607.484L248.497 607.432C247.074 594.582 247.973 580.949 247.996 568.016L255.987 568.03L255.975 560.011L272.018 560.034L271.882 512.01L287.991 512.029L288.021 472.091C293.345 472.782 298.681 472.534 304.017 472.122L304.033 455.998L304.023 440.043C303.936 434.688 303.968 429.324 303.948 423.968C309.272 423.777 314.496 423.793 319.821 424.069C320.157 429.32 320.016 434.6 319.977 439.86Q328.012 439.975 336.048 439.993L351.649 439.911C351.636 444.983 351.682 450.018 351.942 455.085C357.331 454.814 362.586 455.931 367.969 456.064C378.639 456.327 389.366 456.151 400.04 456.148C399.644 448.035 399.575 440.058 399.926 431.945C394.63 431.619 389.375 431.742 384.075 431.859L384.345 367.913C378.973 367.765 373.581 367.901 368.207 367.942L368 335.223ZM400.63 535.726C400.572 549.032 399.989 562.66 400.786 575.935C395.178 575.873 389.531 575.665 383.927 575.863C383.337 591.886 383.745 608.052 383.943 624.088L367.899 624.03Q367.774 648.15 367.996 672.27Q360.099 672.07 352.2 672.184Q352.215 680.569 352.455 688.951L384.37 688.817Q384.024 680.395 384.086 671.967C389.389 672.312 394.677 672.665 399.992 672.311L400.088 665.076C402.353 663.201 404.859 663.773 407.08 662.194C408.116 660.202 407.968 657.666 408.094 655.456C408.257 634.268 407.692 613.078 408.055 591.891C410.848 591.954 413.568 591.834 416.352 591.644Q416.04 563.519 416.335 535.394L400.63 535.726ZM619.499 575.76L616.024 575.89L615.944 591.807C615.854 613.339 615.348 635.025 615.948 656.545L631.386 656.593L631.488 671.544L641.853 671.414C645.574 671.385 649.339 671.241 653.053 671.467C653.718 655.719 653.15 639.711 653.176 623.934C648.592 623.888 644.003 623.937 639.418 623.943Q638.986 599.976 639.495 576.01C632.94 575.356 626.096 575.72 619.499 575.76Z"/>
	<path fill="#143556" transform="scale(0.180883 0.180883)" d="M424.003 504.126L432.453 504.424L432.478 511.991L432.464 519.801C429.701 519.393 426.772 519.363 423.977 519.183L424.003 504.126Z"/>
	<path fill="#071780" transform="scale(0.180883 0.180883)" d="M432.478 511.991L464.033 512.022L464.024 519.587C454.058 519.405 442.779 518.34 432.926 519.924L432.464 519.801L432.478 511.991Z"/>
	<path fill="#513C71" transform="scale(0.180883 0.180883)" d="M623.947 520.434C629.12 520.599 634.245 520.677 639.422 520.527C639.423 525.606 639.11 530.945 639.736 535.986L623.584 535.98C623.823 530.805 623.85 525.613 623.947 520.434Z"/>
	<path fill="#1F0F30" transform="scale(0.180883 0.180883)" d="M615.53 535.912L622.955 536.02C621.999 544.318 623.303 570.708 619.499 575.76L616.024 575.89L615.517 575.114C615.239 562.06 615.479 548.969 615.53 535.912Z"/>
	<path fill="#071780" transform="scale(0.180883 0.180883)" d="M439.372 672.326C440.558 674.037 440.045 677.429 439.999 679.49C439.882 683.48 439.622 687.528 440.252 691.487C434.838 691.41 429.411 691.486 423.996 691.491C424.081 688.263 424.411 684.706 423.935 681.515C423.515 678.696 422.755 677.35 420.518 675.622C421.914 674.508 423.483 673.531 424.95 672.506Q432.162 672.526 439.372 672.326Z"/>
	<path fill="#22C8E0" transform="scale(0.180883 0.180883)" d="M336.428 456.008Q348.533 455.831 360.639 455.892L360.419 471.677C352.362 471.292 344.203 471.557 336.134 471.576C336.309 466.392 336.337 461.195 336.428 456.008Z"/>
	<path fill="#2AE2ED" transform="scale(0.180883 0.180883)" d="M413.505 692.001C413.401 688.036 412.651 683.188 413.234 679.295C413.524 677.358 414.127 676.247 415.774 675.1C417.536 674.563 418.804 675.098 420.518 675.622C422.755 677.35 423.515 678.696 423.935 681.515C424.411 684.706 424.081 688.263 423.996 691.491Q423.836 698.725 424.025 705.958L409.367 705.974L409.014 711.999C406.232 712.01 402.669 712.401 399.991 711.824Q399.938 701.906 400.266 691.994L413.505 692.001Z"/>
	<path fill="#5288E1" transform="scale(0.180883 0.180883)" d="M360.458 471.897L400.19 472.019C400.165 477.188 400.273 482.398 399.921 487.556C386.603 487.785 373.395 487.883 360.081 487.479C359.961 482.291 360.269 477.082 360.458 471.897Z"/>
	<path fill="#224EBA" transform="scale(0.180883 0.180883)" d="M408.675 375.531L409.017 375.48C409.061 377.774 409.138 379.974 409.513 382.247L409.557 391.997L409.412 415.587L415.834 415.467C416.34 420.899 416.017 426.573 415.88 432.027L415.611 432.147C410.351 431.63 405.092 431.706 399.818 431.847C400.227 413.252 399.992 394.599 399.98 375.997C402.831 376.169 405.932 376.417 408.675 375.531Z"/>
	<path fill="#143556" transform="scale(0.180883 0.180883)" d="M664.976 640.004L687.978 639.979L687.973 671.954C681.234 672.039 674.47 672.23 667.733 672.069C667.132 672.041 666.532 671.865 665.945 671.74C663.049 667.186 664.803 646.209 664.976 640.004Z"/>
	<path fill="#22C8E0" transform="scale(0.180883 0.180883)" d="M423.996 691.491C429.411 691.486 434.838 691.41 440.252 691.487C440.778 696.197 440.809 700.988 440.98 705.723L441.086 716.632L440.975 719.753C438.396 720.024 435.483 719.684 432.851 719.753C421.852 720.043 410.976 720.049 399.981 719.602L399.991 711.824C402.669 712.401 406.232 712.01 409.014 711.999L409.367 705.974L424.025 705.958Q423.836 698.725 423.996 691.491Z"/>
	<path fill="#224EBA" transform="scale(0.180883 0.180883)" d="M586.832 448.073L608.001 448.021L608.023 454.973L608.012 472.024L599.991 472.054L600.005 487.505L584.155 487.511C585.671 481.846 584.229 463.135 584.286 456.023L585.755 455.781C586.193 453.214 586.534 450.659 586.832 448.073Z"/>
	<path fill="#143556" transform="scale(0.180883 0.180883)" d="M586.832 448.073L608.001 448.021L608.023 454.973C600.581 454.975 593.162 454.935 585.755 455.781C586.193 453.214 586.534 450.659 586.832 448.073Z"/>
	<path fill="#1F0F30" transform="scale(0.180883 0.180883)" d="M599.61 536.08C601.916 536.049 604.224 535.989 606.529 535.993L615.53 535.912C615.479 548.969 615.239 562.06 615.517 575.114L616.024 575.89L615.944 591.807C614.053 591.457 612.064 591.584 610.145 591.593C606.75 591.979 603.373 591.953 599.962 591.957L599.486 536.33L599.61 536.08Z"/>
	<path fill="#071780" transform="scale(0.180883 0.180883)" d="M615.517 575.114L616.024 575.89L615.944 591.807C614.053 591.457 612.064 591.584 610.145 591.593L606.252 591.384C604.936 587.347 606.212 579.845 606.462 575.41L615.517 575.114Z"/>
	<path fill="#143556" transform="scale(0.180883 0.180883)" d="M606.529 535.993L615.53 535.912C615.479 548.969 615.239 562.06 615.517 575.114L606.462 575.41C606.833 562.244 606.775 549.161 606.529 535.993Z"/>
	<path fill="#1E72A6" transform="scale(0.180883 0.180883)" d="M399.981 719.602C410.976 720.049 421.852 720.043 432.851 719.753C435.483 719.684 438.396 720.024 440.975 719.753C441.012 723.099 442.047 733.137 440.288 735.542L439.611 735.737C434.802 735.337 429.831 735.583 425.001 735.58L425.093 751.71L409.515 751.743Q409.503 743.632 409.749 735.525L400.072 736.111L399.981 719.602Z"/>
	<path fill="#224EBA" transform="scale(0.180883 0.180883)" d="M415.495 448.013Q423.749 447.982 432 447.758L432.004 455.999L448.046 456.007C447.631 464.057 447.004 472.207 448.229 480.217C447.685 482.825 447.796 485.269 447.563 487.883C442.367 488.196 437.109 488.074 431.903 488.108L431.716 471.979L415.904 472.019C415.856 464.019 415.636 456.013 415.495 448.013Z"/>
	<path fill="#22C8E0" transform="scale(0.180883 0.180883)" d="M303.948 423.968C309.272 423.777 314.496 423.793 319.821 424.069C320.157 429.32 320.016 434.6 319.977 439.86Q328.012 439.975 336.048 439.993C336.342 445.298 336.401 450.527 336.313 455.837C330.867 455.883 325.383 456.066 319.94 455.96L320.047 471.993C314.737 471.999 309.306 472.564 304.017 472.122L304.033 455.998L304.023 440.043C303.936 434.688 303.968 429.324 303.948 423.968Z"/>
	<path fill="#070606" transform="scale(0.180883 0.180883)" d="M304.023 440.043L319.544 439.976C319.523 445.1 319.382 450.255 319.58 455.375C314.381 455.906 309.252 455.978 304.033 455.998L304.023 440.043Z"/>
	<path fill="#1F0F30" transform="scale(0.180883 0.180883)" d="M319.58 455.375L319.94 455.96L320.047 471.993C314.737 471.999 309.306 472.564 304.017 472.122L304.033 455.998C309.252 455.978 314.381 455.906 319.58 455.375Z"/>
	<path fill="#071780" transform="scale(0.180883 0.180883)" d="M441.086 716.632C441.372 715.734 441.618 714.171 442.309 713.531C444.951 711.086 452.124 712.6 455.426 712.898L471.565 713.037L471.467 720.051L471.457 728.047C471.502 736.052 471.526 743.986 470.94 751.975C476.464 752.014 482.025 751.916 487.542 752.201L487.524 768.062C482.066 768.015 476.605 767.912 471.15 768.151L470.55 768.072C470.426 762.709 470.525 757.337 470.559 751.973L451.922 751.992L451.996 736.017C448.313 736.064 443.084 736.767 439.611 735.737L440.288 735.542C442.047 733.137 441.012 723.099 440.975 719.753L441.086 716.632Z"/>
	<path fill="#1F0F30" transform="scale(0.180883 0.180883)" d="M455.426 712.898L471.565 713.037L471.467 720.051C466.052 719.793 460.552 719.913 455.128 719.87C455.37 717.546 455.389 715.232 455.426 712.898Z"/>
	<path fill="#160B0C" transform="scale(0.180883 0.180883)" d="M440.975 719.753C444.648 719.493 448.299 719.485 451.979 719.489L451.996 736.017C448.313 736.064 443.084 736.767 439.611 735.737L440.288 735.542C442.047 733.137 441.012 723.099 440.975 719.753Z"/>
	<path fill="#143556" transform="scale(0.180883 0.180883)" d="M560.17 512.003L599.516 512.02C599.487 520.012 599.203 528.101 599.61 536.08L599.486 536.33C595.097 535.445 589.919 535.899 585.433 535.91L559.969 535.995L559.993 544.004C554.837 544.01 549.631 543.879 544.48 544.04L544.16 543.973C545.369 539.162 544.956 525.426 544.154 520.38L544.226 520.057L560.129 519.974L560.17 512.003Z"/>
	<path fill="#224EBA" transform="scale(0.180883 0.180883)" d="M575.962 519.99Q587.497 520.001 599.032 519.886L599 529.183C591.718 530.382 583.388 529.539 575.992 529.409L575.962 519.99Z"/>
	<path fill="#FEF361" transform="scale(0.180883 0.180883)" d="M479.95 510.989L544.468 511.006C544.457 513.935 544.676 517.171 544.226 520.057L544.154 520.38C544.956 525.426 545.369 539.162 544.16 543.973L528.552 543.985C517.712 544.131 506.851 544.009 496.008 544.005L480.379 543.948C478.802 538.29 479.966 526.46 479.994 519.999L479.95 510.989Z"/>
	<path fill="#070606" transform="scale(0.180883 0.180883)" d="M528.529 520.73L544.154 520.38C544.956 525.426 545.369 539.162 544.16 543.973L528.552 543.985L528.529 520.73Z"/>
	<path fill="#070606" transform="scale(0.180883 0.180883)" d="M479.994 519.999C485.329 520.172 490.673 520.409 496.01 520.503C495.986 528.332 495.852 536.179 496.008 544.005L480.379 543.948C478.802 538.29 479.966 526.46 479.994 519.999Z"/>
	<path fill="#4E2945" transform="scale(0.180883 0.180883)" d="M671.36 480.551C676.796 479.757 682.487 479.891 687.982 479.541L688.025 489.033L680 488.897L680.031 512.029L663.996 512.008L664.017 528.022L655.497 528.018Q656.192 552 655.996 575.992L639.98 576.049C639.265 562.816 640.885 548.703 639.736 535.986C639.11 530.945 639.423 525.606 639.422 520.527C634.245 520.677 629.12 520.599 623.947 520.434L623.932 504.007L663.965 503.997C663.505 498.389 663.431 493.02 664.1 487.424L671.356 487.424L671.36 480.551Z"/>
	<path fill="#5288E1" transform="scale(0.180883 0.180883)" d="M703.745 416.755C709.147 416.62 714.609 416.847 720.015 416.924L720.485 417.866C720.543 422.61 721.615 436.649 720.118 440.559C720.058 445.691 719.8 450.909 720.091 456.032L704.027 456.005L688.191 456.003C687.707 461.263 687.963 466.663 687.985 471.945Q675.524 471.785 663.064 472.045C662.965 477.125 663.107 482.097 663.648 487.151C650.813 488.782 636.847 487.592 623.919 487.498L623.618 472.007C636.284 471.672 648.793 471.464 661.459 472.06L661.549 455.963L661.959 455.839L671.151 455.84Q672.044 451.933 672.838 448.004L687.825 448.012C688.145 442.707 687.927 437.271 687.854 431.955C693.128 432.056 698.407 432.051 703.682 432.087C704.061 427.02 703.794 421.836 703.745 416.755Z"/>
	<path fill="#070606" transform="scale(0.180883 0.180883)" d="M704.005 440.704C709.369 440.473 714.749 440.554 720.118 440.559C720.058 445.691 719.8 450.909 720.091 456.032L704.027 456.005L704.005 440.704Z"/>
	<path fill="#4E2945" transform="scale(0.180883 0.180883)" d="M304.017 472.122C309.306 472.564 314.737 471.999 320.047 471.993L336.051 472.016L336.012 487.994C344.04 488.157 351.973 488.184 359.995 487.906L360.009 503.999L401.004 504.01Q401.037 519.845 400.781 535.678Q392.39 535.927 383.995 535.905L383.987 575.5L368.01 575.49L367.983 623.513L351.986 623.492L351.995 559.988L367.96 559.987Q367.756 547.804 367.95 535.621C373.278 535.771 378.633 535.651 383.964 535.642L383.982 520.338C373.334 519.802 362.592 520.033 351.929 519.993L351.983 504.012L327.997 503.99L328.014 488.012L303.988 487.994L304.017 472.122Z"/>
	<path fill="#1F0F30" transform="scale(0.180883 0.180883)" d="M400.074 655.525L408.094 655.456C407.968 657.666 408.116 660.202 407.08 662.194C404.859 663.773 402.353 663.201 400.088 665.076L400.074 655.525Z"/>
	<path fill="#513C71" transform="scale(0.180883 0.180883)" d="M288.021 472.091C293.345 472.782 298.681 472.534 304.017 472.122L303.988 487.994L328.014 488.012L327.997 503.99L351.983 504.012L351.929 519.993C362.592 520.033 373.334 519.802 383.982 520.338L383.964 535.642C378.633 535.651 373.278 535.771 367.95 535.621Q367.756 547.804 367.96 559.987L351.995 559.988L351.986 623.492L352 672.077Q344.258 672.333 336.52 671.975L336.516 639.972C331.073 639.967 325.578 640.12 320.143 639.873L319.994 639.617Q319.954 631.553 320.027 623.489Q312.257 623.488 304.488 623.331L304.375 622.99C304.2 617.825 304.31 612.651 304.355 607.484L248.497 607.432C247.074 594.582 247.973 580.949 247.996 568.016L255.987 568.03L255.975 560.011L272.018 560.034L271.882 512.01L287.991 512.029L288.021 472.091Z"/>
	<path fill="#513C71" transform="scale(0.180883 0.180883)" d="M688.191 456.003L704.027 456.005L720.091 456.032L719.924 456.576L719.974 488.91Q727.983 488.555 735.999 488.505Q736.444 503.278 736.547 518.058L752.476 518.049C752.489 529.365 752.213 540.77 752.949 552.064L775.924 551.959C775.762 570.613 775.55 589.212 776.039 607.866L720.63 607.997C720.651 613.187 720.928 618.51 720.568 623.682Q712.111 623.641 703.655 623.74L703.628 639.757C698.418 640.035 693.194 639.975 687.978 639.979L664.976 640.004L664.829 623.964L655.961 623.99L655.996 575.992Q656.192 552 655.497 528.018L664.017 528.022L663.996 512.008L680.031 512.029L680 488.897L688.025 489.033L687.982 479.541L687.985 471.945C687.963 466.663 687.707 461.263 688.191 456.003Z"/>
	<path fill="#4E2945" transform="scale(0.180883 0.180883)" d="M688.191 456.003L704.027 456.005L720.091 456.032L719.924 456.576C718.621 460.9 719.371 466.86 719.485 471.363L703.928 471.543C703.574 474.168 703.255 476.805 702.856 479.424C697.902 479.436 692.933 479.367 687.982 479.541L687.985 471.945C687.963 466.663 687.707 461.263 688.191 456.003Z"/>
	<path fill="#070606" transform="scale(0.180883 0.180883)" d="M688.191 456.003L704.027 456.005L704.028 464.307L696.822 464.287L695.854 470.925L688.401 471.451C688.376 466.312 688.531 461.132 688.191 456.003Z"/>
	<path fill="#4963C4" transform="scale(0.180883 0.180883)" d="M423.977 519.183C426.772 519.363 429.701 519.393 432.464 519.801L432.926 519.924C442.779 518.34 454.058 519.405 464.024 519.587Q472.014 519.59 479.994 519.999C479.966 526.46 478.802 538.29 480.379 543.948L496.008 544.005C506.851 544.009 517.712 544.131 528.552 543.985L544.16 543.973L544.48 544.04C549.631 543.879 554.837 544.01 559.993 544.004L559.969 535.995L585.433 535.91C589.919 535.899 595.097 535.445 599.486 536.33L599.962 591.957L599.985 600.046C594.499 600.116 589.001 600.115 583.519 600.358Q584.106 620.183 584.019 640.017L568.031 639.985L462.487 639.989L447.591 640.04L447.5 591.999C439.665 592.037 431.816 592.164 423.985 591.873C421.428 591.356 418.93 591.489 416.352 591.644Q416.04 563.519 416.335 535.394C418.777 534.899 421.49 534.949 423.983 534.795L423.977 519.183Z"/>
	<path fill="#071780" transform="scale(0.180883 0.180883)" d="M423.983 534.795C423.771 553.834 423.217 572.839 423.985 591.873C421.428 591.356 418.93 591.489 416.352 591.644Q416.04 563.519 416.335 535.394C418.777 534.899 421.49 534.949 423.983 534.795Z"/>
	<path fill="#143556" transform="scale(0.180883 0.180883)" d="M464.024 519.587Q472.014 519.59 479.994 519.999C479.966 526.46 478.802 538.29 480.379 543.948L480.012 544.044L471.265 543.986C458.511 544.7 445.753 544.368 432.995 544L433.021 535.957Q433.054 527.94 432.926 519.924C442.779 518.34 454.058 519.405 464.024 519.587Z"/>
	<path fill="#224EBA" transform="scale(0.180883 0.180883)" d="M433.021 535.957C445.813 536.182 458.607 535.933 471.4 536.007C471.337 538.655 471.175 541.34 471.265 543.986C458.511 544.7 445.753 544.368 432.995 544L433.021 535.957Z"/>
	<path fill="#224EBA" transform="scale(0.180883 0.180883)" d="M496.008 544.005C506.851 544.009 517.712 544.131 528.552 543.985L544.16 543.973L544.48 544.04C543.951 552.044 544.042 560.036 544.105 568.052L527.995 568.066L528.026 559.016L496.031 558.989L496.111 568.005L480.01 568.016L480.012 544.044L480.379 543.948L496.008 544.005Z"/>
	<path fill="#070606" transform="scale(0.180883 0.180883)" d="M496.008 544.005C506.851 544.009 517.712 544.131 528.552 543.985L528.472 555.484L496.024 555.589L496.008 544.005Z"/>
	<path fill="#160B0C" transform="scale(0.180883 0.180883)" d="M591.055 367.501L600.19 367.514L600.406 377.555C603.936 377.526 607.763 377.029 610.565 379.63C612.476 381.402 612.929 384.062 612.941 386.558C612.962 391.404 612.49 396.257 612.426 401.106L612.43 407.47C612.493 410.655 612.427 413.906 612.675 417.079C612.235 422.321 608.42 426.076 608.532 431.598L608.067 432.107Q607.907 440.064 608.001 448.021L586.832 448.073C586.534 450.659 586.193 453.214 585.755 455.781L584.286 456.023C584.229 463.135 585.671 481.846 584.155 487.511L584.028 495.678C567.368 498.059 553.432 497.59 536.813 497.492Q512.4 497.716 487.986 497.561L448.005 497.573C448.038 494.312 448.143 491.106 447.563 487.883C447.796 485.269 447.685 482.825 448.229 480.217C447.004 472.207 447.631 464.057 448.046 456.007L432.004 455.999L432 447.758Q423.749 447.982 415.495 448.013C415.424 442.714 415.365 437.444 415.611 432.147L415.88 432.027C416.017 426.573 416.34 420.899 415.834 415.467L409.412 415.587L409.557 391.997L409.513 382.247C409.138 379.974 409.061 377.774 409.017 375.48L408.977 367.974L432.045 368.023C437.407 367.994 442.812 368.114 448.151 367.575C453.723 367.546 459.338 367.292 464.865 368.089L465.412 368.205L465.483 376.494C467.39 376.479 469.191 376.266 470.877 377.302C471.395 378.016 471.756 378.55 472.103 379.371L543.914 379.483C546.837 379.472 550.561 379.079 553.348 379.824C554.119 379.919 554.894 380.017 555.669 380.075C557.504 380.215 558.417 380.057 559.807 378.844L559.212 376.504C559.487 373.542 559.426 370.467 559.519 367.488L591.055 367.501Z"/>
	<path fill="#224EBA" transform="scale(0.180883 0.180883)" d="M600.836 416.649L612.675 417.079C612.235 422.321 608.42 426.076 608.532 431.598L608.067 432.107C605.119 432.533 601.006 432.831 598.1 432.202C598.615 432.092 599.2 432.156 599.645 431.874C601.387 430.77 598.622 419.341 600.836 416.649Z"/>
	<path fill="#4E2945" transform="scale(0.180883 0.180883)" d="M424.977 424.007C432.657 423.968 440.35 423.833 448.028 423.977L448.117 431.547C442.687 431.24 437.432 430.851 432.021 431.721C429.695 431.965 427.322 431.936 424.983 431.996L424.977 424.007Z"/>
	<path fill="#5288E1" transform="scale(0.180883 0.180883)" d="M424.983 431.996C427.322 431.936 429.695 431.965 432.021 431.721L432 447.758Q423.749 447.982 415.495 448.013C415.424 442.714 415.365 437.444 415.611 432.147L415.88 432.027L424.983 431.996Z"/>
	<path fill="#4963C4" transform="scale(0.180883 0.180883)" d="M587.065 431.999Q592.586 431.935 598.1 432.202C601.006 432.831 605.119 432.533 608.067 432.107Q607.907 440.064 608.001 448.021L586.832 448.073C587.194 442.739 587.056 437.345 587.065 431.999Z"/>
	<path fill="#F5E2DE" transform="scale(0.180883 0.180883)" d="M543.376 456.58L560.002 456.578L559.946 479.447C554.46 479.246 548.953 479.284 543.463 479.231L543.376 456.58Z"/>
	<path fill="#F5E2DE" transform="scale(0.180883 0.180883)" d="M464.06 456.167C469.495 455.848 474.995 456.01 480.438 456.006L480.143 479.595L463.997 479.659Q463.895 467.913 464.06 456.167Z"/>
	<path fill="#22C8E0" transform="scale(0.180883 0.180883)" d="M480.607 431.992C501.735 432.052 523.031 432.82 544.139 432.404L576.014 432.429L575.929 446.958L448.488 447.266L448.442 431.989L480.607 431.992Z"/>
	<path fill="#B93534" transform="scale(0.180883 0.180883)" d="M591.055 367.501L600.19 367.514L600.406 377.555C603.936 377.526 607.763 377.029 610.565 379.63C612.476 381.402 612.929 384.062 612.941 386.558C612.962 391.404 612.49 396.257 612.426 401.106L612.43 407.47C612.493 410.655 612.427 413.906 612.675 417.079L600.836 416.649C599.048 412.29 601.924 395.522 600.071 388.707Q599.97 402.361 600.012 416.016L551.999 416.009L551.925 392.014L551.638 380.413L553.348 379.824C554.119 379.919 554.894 380.017 555.669 380.075C557.504 380.215 558.417 380.057 559.807 378.844L559.212 376.504C559.487 373.542 559.426 370.467 559.519 367.488L591.055 367.501Z"/>
	<path fill="#FEA1A3" transform="scale(0.180883 0.180883)" d="M567.627 393.031L575.035 393.007L574.97 401.806C573.4 401.443 571.416 400.769 570.121 399.788C567.899 398.103 567.867 395.55 567.627 393.031Z"/>
	<path fill="#3A0502" transform="scale(0.180883 0.180883)" d="M577.392 402.296L585.957 402.406C586.032 404.46 586.307 406.25 585.115 407.998C584.097 408.523 583.451 408.693 582.33 408.652C580.273 408.578 578.234 408.643 576.177 408.696C575.981 406.714 575.671 404.822 576.198 402.867L577.392 402.296Z"/>
	<path fill="#FEA1A3" transform="scale(0.180883 0.180883)" d="M551.638 380.413C554.261 380.743 556.828 381.035 559.475 381.102L559.366 391.517L551.925 392.014L551.638 380.413Z"/>
	<path fill="#F5E2DE" transform="scale(0.180883 0.180883)" d="M575.536 377.001L586.008 376.973L586.009 383.993C586.003 390.099 586.242 396.313 585.957 402.406L577.392 402.296L574.97 401.806L575.035 393.007C575.004 387.644 575.217 382.352 575.536 377.001Z"/>
	<path fill="#070606" transform="scale(0.180883 0.180883)" d="M591.055 367.501L600.19 367.514L600.406 377.555C603.936 377.526 607.763 377.029 610.565 379.63C612.476 381.402 612.929 384.062 612.941 386.558C612.962 391.404 612.49 396.257 612.426 401.106L612.43 407.47C612.493 410.655 612.427 413.906 612.675 417.079L600.836 416.649C599.048 412.29 601.924 395.522 600.071 388.707L599.933 383.988L586.009 383.993L586.008 376.973L575.536 377.001C575.217 382.352 575.004 387.644 575.035 393.007L567.627 393.031C567.341 388.015 567.549 382.98 567.88 377.972C565.102 377.996 562.488 378.03 559.807 378.844L559.212 376.504C559.487 373.542 559.426 370.467 559.519 367.488L591.055 367.501Z"/>
	<path fill="#B93534" transform="scale(0.180883 0.180883)" d="M448.151 367.575C453.723 367.546 459.338 367.292 464.865 368.089L465.412 368.205L465.483 376.494C467.39 376.479 469.191 376.266 470.877 377.302C471.395 378.016 471.756 378.55 472.103 379.371L472.088 379.907L471.964 383.08L472.021 415.798C461.159 415.981 424.998 417.705 416.183 415.241L415.834 415.467L409.412 415.587L409.557 391.997L409.513 382.247C409.138 379.974 409.061 377.774 409.017 375.48L408.977 367.974L432.045 368.023C437.407 367.994 442.812 368.114 448.151 367.575Z"/>
	<path fill="#E25E62" transform="scale(0.180883 0.180883)" d="M457.018 383.387Q460.824 383.42 464.63 383.387L464.875 383.537C464.68 385.664 464.496 387.758 464.481 389.897C462.007 390.018 459.421 389.992 456.98 390.401L457.018 383.387Z"/>
	<path fill="#8C3038" transform="scale(0.180883 0.180883)" d="M432.345 400.495L439.268 400.494C440.008 402.936 440.179 405.019 440.144 407.552L433.098 407.517L432.345 400.495Z"/>
	<path fill="#070606" transform="scale(0.180883 0.180883)" d="M439.268 400.494L448.021 400.508L448.035 407.565L440.144 407.552C440.179 405.019 440.008 402.936 439.268 400.494Z"/>
	<path fill="#F5E2DE" transform="scale(0.180883 0.180883)" d="M432.499 384.004C437.708 384.009 442.941 383.906 448.147 384.07Q447.96 392.288 448.021 400.508L439.268 400.494L432.345 400.495C431.852 397.526 432.082 394.453 432.486 391.492L432.499 384.004Z"/>
	<path fill="#070606" transform="scale(0.180883 0.180883)" d="M448.151 367.575C453.723 367.546 459.338 367.292 464.865 368.089L465.412 368.205L465.483 376.494C467.39 376.479 469.191 376.266 470.877 377.302C471.395 378.016 471.756 378.55 472.103 379.371L472.088 379.907L471.964 383.08L464.875 383.537L464.63 383.387Q460.824 383.42 457.018 383.387L456.98 390.401C454.126 390.858 451.302 390.965 448.42 391.073C448.443 388.717 448.32 386.417 448.147 384.07C442.941 383.906 437.708 384.009 432.499 384.004L432.486 391.492C431.498 392.632 431.028 392.649 429.535 392.729C425.346 392.953 420.99 392.639 416.791 392.551C417.028 400.007 417.835 407.905 416.183 415.241L415.834 415.467L409.412 415.587L409.557 391.997L409.513 382.247C409.138 379.974 409.061 377.774 409.017 375.48L408.977 367.974L432.045 368.023C437.407 367.994 442.812 368.114 448.151 367.575Z"/>
	<path fill="#F6A6D1" transform="scale(0.180883 0.180883)" d="M409.513 382.247C411.638 382.07 413.786 382.036 415.918 381.947C416.769 385.094 416.514 388.513 416.495 391.751L409.557 391.997L409.513 382.247Z"/>
	<path fill="#FEA1A3" transform="scale(0.180883 0.180883)" d="M465.483 376.494C467.39 376.479 469.191 376.266 470.877 377.302C471.395 378.016 471.756 378.55 472.103 379.371L472.088 379.907L471.964 383.08L464.875 383.537L464.63 383.387Q460.824 383.42 457.018 383.387L457.025 376.805C459.709 376.27 462.743 376.513 465.483 376.494Z"/>
	<path fill="#D06993" transform="scale(0.180883 0.180883)" d="M465.483 376.494C467.39 376.479 469.191 376.266 470.877 377.302C471.395 378.016 471.756 378.55 472.103 379.371L472.088 379.907L471.964 383.08L464.875 383.537L464.63 383.387C465.191 381.366 465.039 379.07 465.099 376.972C462.386 377.038 459.733 376.968 457.025 376.805C459.709 376.27 462.743 376.513 465.483 376.494Z"/>
	<path fill="#8C3038" transform="scale(0.180883 0.180883)" d="M432.489 376.821Q440.246 376.513 448.009 376.488L448.147 384.07C442.941 383.906 437.708 384.009 432.499 384.004L432.489 376.821Z"/>
	<path fill="#5288E1" transform="scale(0.180883 0.180883)" d="M408.977 367.974L432.045 368.023L432.211 376.969C427.473 376.88 420.531 375.816 416.421 378.281C415.589 379.569 415.599 379.85 415.801 381.434C415.823 381.608 415.879 381.776 415.918 381.947C413.786 382.036 411.638 382.07 409.513 382.247C409.138 379.974 409.061 377.774 409.017 375.48L408.977 367.974Z"/>
	<path fill="#1E72A6" transform="scale(0.180883 0.180883)" d="M575.991 456.112Q580.138 456.042 584.286 456.023C584.229 463.135 585.671 481.846 584.155 487.511L584.028 495.678C567.368 498.059 553.432 497.59 536.813 497.492Q512.4 497.716 487.986 497.561L448.005 497.573C448.038 494.312 448.143 491.106 447.563 487.883C447.796 485.269 447.685 482.825 448.229 480.217Q456.12 479.919 464.017 479.968L464.011 488.707C471.66 488.536 479.351 488.329 486.998 488.713C488.566 485.468 487.55 461.327 487.512 456.066Q511.766 455.917 536.019 456.107C535.653 466.926 535.076 477.728 536.178 488.525C544.137 488.154 552.024 487.876 559.99 488.202L560.002 479.957L576.023 480.02L575.991 456.112Z"/>
	<path fill="#1E72A6" transform="scale(0.180883 0.180883)" d="M472.103 379.371L543.914 379.483L544 415.963C544.007 421.323 543.626 427.091 544.139 432.404C523.031 432.82 501.735 432.052 480.607 431.992Q480.552 423.967 480.809 415.945L480.917 400.519L480.824 392.01C480.706 387.941 480.825 383.847 480.854 379.775L472.088 379.907L472.103 379.371Z"/>
	<path fill="#22C8E0" transform="scale(0.180883 0.180883)" d="M528.512 393.042C533.484 392.828 538.507 392.98 543.486 392.987C543.485 395.059 544.099 399.459 542.89 401.04L528.003 401.053C527.704 398.203 527.571 395.786 528.512 393.042Z"/>
	<path fill="#22C8E0" transform="scale(0.180883 0.180883)" d="M480.824 392.01L496.56 392.058L496.481 400.516L480.917 400.519L480.824 392.01Z"/>
	<path fill="#070606" transform="scale(0.180883 0.180883)" d="M610.145 591.593C612.064 591.584 614.053 591.457 615.944 591.807C615.854 613.339 615.348 635.025 615.948 656.545L631.386 656.593L631.488 671.544L641.853 671.414C645.574 671.385 649.339 671.241 653.053 671.467C654.242 672.119 655.293 672.548 655.736 673.947C656.347 675.874 656.075 678.364 656.027 680.376C660.408 680.398 664.865 680.597 669.237 680.35C669.524 680.332 670.521 680.288 670.764 680.202C671.793 679.838 672.192 678.852 672.402 677.848C672.67 676.565 672.304 674.926 671.565 673.824C670.513 672.255 669.457 672.411 667.733 672.069C674.47 672.23 681.234 672.039 687.973 671.954L687.938 688.121L687.997 704.357Q679.962 704.199 671.928 704.426L663.892 704.45C663.656 709.783 663.77 715.06 663.932 720.391C656.026 720.28 647.855 720.715 639.992 720.177L640.053 750.937C632.063 750.867 623.916 751.163 615.947 750.739L615.992 767.944Q604.064 767.751 592.135 767.937L592.128 751.742Q583.926 751.832 575.724 751.807Q575.68 761.02 575.934 770.229C568.259 770.116 560.62 770.172 552.946 770.301C553.153 777.168 553.453 784.051 553.402 790.922L536.864 790.991L536.991 807.978C531.684 807.947 526.368 807.855 521.061 807.911Q521.501 818.911 521.435 829.919L504.043 829.98L504.021 808.557C498.495 808.602 492.929 808.512 487.414 808.869Q487.259 799.989 487.489 791.111L487.524 768.062L487.542 752.201C482.025 751.916 476.464 752.014 470.94 751.975C471.526 743.986 471.502 736.052 471.457 728.047L471.467 720.051L471.565 713.037L455.426 712.898C452.124 712.6 444.951 711.086 442.309 713.531C441.618 714.171 441.372 715.734 441.086 716.632L440.98 705.723C440.809 700.988 440.778 696.197 440.252 691.487C439.622 687.528 439.882 683.48 439.999 679.49C440.045 677.429 440.558 674.037 439.372 672.326L439.689 671.919C440.642 666.794 440.029 660.819 439.961 655.596C434.761 655.556 429.532 655.873 424.334 656.058L423.985 591.873C431.816 592.164 439.665 592.037 447.5 591.999L447.591 640.04L462.487 639.989L568.031 639.985L584.019 640.017Q584.106 620.183 583.519 600.358C589.001 600.115 594.499 600.116 599.985 600.046L599.962 591.957C603.373 591.953 606.75 591.979 610.145 591.593Z"/>
	<path fill="#1F0F30" transform="scale(0.180883 0.180883)" d="M456.504 688.078L472.004 687.986L471.98 695.205C466.887 694.644 461.585 695.175 456.487 695.545L456.504 688.078Z"/>
	<path fill="#160B0C" transform="scale(0.180883 0.180883)" d="M440.98 705.723C445.84 703.408 450.447 703.876 455.613 704.46L455.426 712.898C452.124 712.6 444.951 711.086 442.309 713.531C441.618 714.171 441.372 715.734 441.086 716.632L440.98 705.723Z"/>
	<path fill="#1F0F30" transform="scale(0.180883 0.180883)" d="M568.021 672.351C573.349 672.162 578.693 672.22 584.023 672.199L583.98 679.989C578.656 679.993 573.324 679.939 568.001 680.003L568.021 672.351Z"/>
	<path fill="#071780" transform="scale(0.180883 0.180883)" d="M503.985 791.961C509.319 791.978 514.712 791.849 520.038 792.056C519.956 797.344 519.915 802.632 520.523 807.893L504.036 808.021L503.985 791.961Z"/>
	<path fill="#143556" transform="scale(0.180883 0.180883)" d="M552.503 735.013Q561.09 734.961 569.678 735.002C570.301 740.582 570.031 746.374 569.997 751.986L552.44 751.988L552.503 735.013Z"/>
	<path fill="#2AE2ED" transform="scale(0.180883 0.180883)" d="M598.44 672.898L609.538 673.009L609.618 690.998L624.135 690.988C623.814 696.316 623.939 701.663 623.98 706.998C613.636 706.796 603.309 706.439 592.96 706.41C592.99 708.966 592.981 711.515 593.222 714.062C593.402 715.96 593.197 717.53 592.085 719.122C590.849 719.628 589.735 719.592 588.427 719.602L582.983 719.998L582.973 690.876L598.499 691.009L598.44 672.898Z"/>
	<path fill="#1E72A6" transform="scale(0.180883 0.180883)" d="M624.135 690.988C624.736 696.164 624.457 701.591 624.479 706.802L624.477 736.007L608.934 735.993L608.62 751.095L596.498 751.101L596.502 735.688L583.005 736.023L582.983 719.998L588.427 719.602C589.735 719.592 590.849 719.628 592.085 719.122C593.197 717.53 593.402 715.96 593.222 714.062C592.981 711.515 592.99 708.966 592.96 706.41C603.309 706.439 613.636 706.796 623.98 706.998C623.939 701.663 623.814 696.316 624.135 690.988Z"/>
	<path fill="#11B9E7" transform="scale(0.180883 0.180883)" d="M592.96 706.41C603.309 706.439 613.636 706.796 623.98 706.998L624.058 720.053C612.201 720.123 600.248 720.733 588.427 719.602C589.735 719.592 590.849 719.628 592.085 719.122C593.197 717.53 593.402 715.96 593.222 714.062C592.981 711.515 592.99 708.966 592.96 706.41Z"/>
	<path fill="#1F0F30" transform="scale(0.180883 0.180883)" d="M641.853 671.414C645.574 671.385 649.339 671.241 653.053 671.467C654.242 672.119 655.293 672.548 655.736 673.947C656.347 675.874 656.075 678.364 656.027 680.376C660.408 680.398 664.865 680.597 669.237 680.35C669.524 680.332 670.521 680.288 670.764 680.202C671.793 679.838 672.192 678.852 672.402 677.848C672.67 676.565 672.304 674.926 671.565 673.824C670.513 672.255 669.457 672.411 667.733 672.069C674.47 672.23 681.234 672.039 687.973 671.954L687.938 688.121L687.997 704.357Q679.962 704.199 671.928 704.426L663.892 704.45Q652.094 704.907 640.288 704.999C640.113 699.314 639.623 693.288 640.327 687.654C640.483 682.182 640.721 676.784 641.853 671.414Z"/>
	<path fill="#070606" transform="scale(0.180883 0.180883)" d="M671.998 688.003C677.294 687.789 682.655 687.626 687.938 688.121L687.997 704.357Q679.962 704.199 671.928 704.426L671.998 688.003Z"/>
	<path fill="#071780" transform="scale(0.180883 0.180883)" d="M641.853 671.414C645.574 671.385 649.339 671.241 653.053 671.467C654.242 672.119 655.293 672.548 655.736 673.947C656.347 675.874 656.075 678.364 656.027 680.376C660.408 680.398 664.865 680.597 669.237 680.35L671.255 680.677C672.78 682.858 671.981 685.439 671.941 687.959C666.601 688.017 643.847 689.174 640.327 687.654C640.483 682.182 640.721 676.784 641.853 671.414Z"/>
	<path fill="#1F0F30" transform="scale(0.180883 0.180883)" d="M543.961 720.024C552.33 720.008 560.625 720.117 568.983 720.508C568.997 725.392 569.247 730.14 569.678 735.002Q561.09 734.961 552.503 735.013L552.44 751.988C552.355 754.064 552.346 756.173 552.11 758.237Q552.008 764.831 552.153 771.425L536.04 771.484L535.973 774.464C536.025 780.111 536.024 785.763 536.137 791.408C531.248 791.449 526.234 791.258 521.368 791.707L520.038 792.056C514.712 791.849 509.319 791.978 503.985 791.961L503.639 791.452C498.269 791.468 492.836 791.664 487.489 791.111L487.524 768.062L487.542 752.201C482.025 751.916 476.464 752.014 470.94 751.975C471.526 743.986 471.502 736.052 471.457 728.047C482.185 728.031 492.947 727.836 503.672 728.088L503.518 736.107Q516.057 736.224 528.595 736.025L528.527 728.027L544.029 728.026L543.961 720.024Z"/>
	<path fill="#071780" transform="scale(0.180883 0.180883)" d="M520 774.394Q527.987 774.365 535.973 774.464C536.025 780.111 536.024 785.763 536.137 791.408C531.248 791.449 526.234 791.258 521.368 791.707L520.547 791.426C518.552 788.22 519.887 778.334 520 774.394Z"/>
	<path fill="#071780" transform="scale(0.180883 0.180883)" d="M536.016 751.999C540.523 752.036 547.646 750.459 551.378 752.969C552.459 754.512 552.158 756.436 552.11 758.237Q552.008 764.831 552.153 771.425L536.04 771.484Q536.095 761.741 536.016 751.999Z"/>
	<path fill="#071780" transform="scale(0.180883 0.180883)" d="M487.524 768.062C492.857 768.232 498.204 768.495 503.539 768.495C503.55 776.124 503.325 783.833 503.639 791.452C498.269 791.468 492.836 791.664 487.489 791.111L487.524 768.062Z"/>
	<path fill="#143556" transform="scale(0.180883 0.180883)" d="M423.985 591.873C431.816 592.164 439.665 592.037 447.5 591.999L447.591 640.04L462.487 639.989L568.031 639.985L584.019 640.017Q584.106 620.183 583.519 600.358C589.001 600.115 594.499 600.116 599.985 600.046L599.936 655.986L599.934 662.992C595.126 663.184 590.192 663.617 585.391 663.264L584.29 663.718C583.615 666.429 583.953 669.421 584.023 672.199C578.693 672.22 573.349 672.162 568.021 672.351L568.001 680.003C568.025 683.398 567.933 686.839 568.102 690.227C567.998 691.024 568.072 692.327 567.442 692.859C563.66 696.055 555.14 691.296 552.354 693.84C552.448 696.355 553.271 701.424 551.66 703.508C550.232 705.356 547.032 705.066 544.963 705.031Q544.235 705.017 543.507 704.995L543.444 711.926L486.987 712.017L487.001 703.48L471.983 703.576L471.98 695.205L472.004 687.986L456.504 688.078L456.493 679.442L439.999 679.49C440.045 677.429 440.558 674.037 439.372 672.326L439.689 671.919C440.642 666.794 440.029 660.819 439.961 655.596C434.761 655.556 429.532 655.873 424.334 656.058L423.985 591.873Z"/>
	<path fill="#1F0F30" transform="scale(0.180883 0.180883)" d="M552.354 693.84C552.137 692.633 551.937 691.95 552.415 690.775C555.777 688.839 564.018 690.129 568.102 690.227C567.998 691.024 568.072 692.327 567.442 692.859C563.66 696.055 555.14 691.296 552.354 693.84Z"/>
	<path fill="#071780" transform="scale(0.180883 0.180883)" d="M584.003 655.985L599.936 655.986L599.934 662.992C595.126 663.184 590.192 663.617 585.391 663.264L584.377 662.857C583.601 660.775 583.948 658.188 584.003 655.985Z"/>
	<path fill="#1F0F30" transform="scale(0.180883 0.180883)" d="M439.689 671.919Q448.091 672.108 456.493 671.927L456.493 679.442L439.999 679.49C440.045 677.429 440.558 674.037 439.372 672.326L439.689 671.919Z"/>
	<path fill="#224EBA" transform="scale(0.180883 0.180883)" d="M462.487 639.989L568.031 639.985L568.008 656.03L546.005 656.006L546.007 672.029L477.97 672.049L478.015 656.012L462.496 656.044L462.487 639.989Z"/>
</svg>
