<?xml version="1.0" encoding="utf-8" ?>
<svg xmlns="http://www.w3.org/2000/svg" xmlns:xlink="http://www.w3.org/1999/xlink" width="225" height="225">
	<path transform="scale(0.219727 0.219727)" d="M371.949 500.441C373.446 502.418 373.922 503.45 376.491 503.859C379.937 504.408 386.65 502.619 389.218 504.788C389.42 505.861 389.453 506.769 389.402 507.859C383.557 507.969 377.701 507.929 371.855 507.956L371.949 500.441Z"/>
	<path fill="#050513" transform="scale(0.219727 0.219727)" d="M606.293 76.0839L624.961 76.0247C624.874 82.6507 624.921 89.326 624.46 95.9361C618.316 95.4051 612.242 95.4849 606.096 95.9455C606.988 89.5179 606.418 82.5641 606.293 76.0839Z"/>
	<path transform="scale(0.219727 0.219727)" d="M382.065 55.5769L399.806 55.5804C399.785 62.4178 399.65 69.3031 399.984 76.1323C394.001 75.7668 388.049 75.9095 382.061 76.0227C382.107 69.2127 382.247 62.3846 382.065 55.5769Z"/>
	<path fill="#050513" transform="scale(0.219727 0.219727)" d="M625.117 56.0829L643.692 56.0601C643.682 62.6537 643.38 69.4208 643.883 75.9893L624.961 76.0247Q625.224 66.0552 625.117 56.0829Z"/>
	<path fill="#0B0E2C" transform="scale(0.219727 0.219727)" d="M400.447 76.3491Q410.185 76.143 419.919 76.4625C419.834 82.8531 419.237 89.7012 419.771 96.0431C419.662 96.8066 419.638 97.7632 419.4 98.4852L418.937 96.559C417.362 95.6875 415.858 96.0122 414.094 96.067L400.508 95.9681L400.447 76.3491Z"/>
	<path fill="#050513" transform="scale(0.219727 0.219727)" d="M680.898 568.068C688.07 568.098 695.32 567.91 702.481 568.254C702.283 574.288 701.446 581.257 702.811 587.176C698.874 588.3 685.44 587.804 681.383 587C680.57 585.803 680.811 583.65 680.788 582.208C681.096 577.522 680.917 572.764 680.898 568.068Z"/>
	<path fill="#2AC0B0" transform="scale(0.219727 0.219727)" d="M382.061 76.0227C388.049 75.9095 394.001 75.7668 399.984 76.1323L400.447 76.3491L400.508 95.9681L414.094 96.067C409.715 96.8416 405.023 96.6444 400.582 96.5593L400.511 115.976L381.488 116.027L381.583 76.0748L382.061 76.0227Z"/>
	<path fill="#39FADA" transform="scale(0.219727 0.219727)" d="M382.061 76.0227C388.049 75.9095 394.001 75.7668 399.984 76.1323L400.447 76.3491L400.508 95.9681L382.099 96.035L382.061 76.0227Z"/>
	<path fill="#0B0E2C" transform="scale(0.219727 0.219727)" d="M703.066 587.572C709.097 588.476 715.665 587.946 721.784 587.87C721.694 594.87 720.402 634.889 722.884 637.579L722.974 637.994L703.099 638.028C702.603 628.015 702.828 618.065 703.001 608.045L703.066 587.572Z"/>
	<path fill="#050513" transform="scale(0.219727 0.219727)" d="M643.883 75.9893L661.848 76.0084C661.409 109.246 661.297 142.724 661.974 175.956C655.617 175.92 649.231 176 642.878 175.78C643.396 169.081 643.135 162.187 643.203 155.46L643.502 115.947C643.418 108.039 643.737 100.12 643.891 92.2132C644.115 86.8168 643.942 81.3893 643.883 75.9893Z"/>
	<path fill="#050513" transform="scale(0.219727 0.219727)" d="M362.061 76.0244Q371.823 75.7921 381.583 76.0748L381.488 116.027C381.477 135.624 380.977 155.353 381.62 174.933C375.087 174.977 368.593 175.077 362.072 175.49C362.555 142.368 362.171 109.152 362.061 76.0244Z"/>
	<path fill="#39FADA" transform="scale(0.219727 0.219727)" d="M414.094 96.067C415.858 96.0122 417.362 95.6875 418.937 96.559L419.4 98.4852C418.382 107.484 418.971 117.123 418.974 126.191L419.033 175.539L399.98 175.556C394.153 175.747 388.321 175.631 382.492 175.573L381.62 174.933C380.977 155.353 381.477 135.624 381.488 116.027L400.511 115.976L400.582 96.5593C405.023 96.6444 409.715 96.8416 414.094 96.067Z"/>
	<path fill="#0AA295" transform="scale(0.219727 0.219727)" d="M381.488 116.027L400.511 115.976Q400.027 145.764 399.98 175.556C394.153 175.747 388.321 175.631 382.492 175.573L381.62 174.933C380.977 155.353 381.477 135.624 381.488 116.027Z"/>
	<path fill="#39FADA" transform="scale(0.219727 0.219727)" d="M624.961 76.0247L643.883 75.9893C643.942 81.3893 644.115 86.8168 643.891 92.2132C643.737 100.12 643.418 108.039 643.502 115.947L643.203 155.46C643.135 162.187 643.396 169.081 642.878 175.78L642.038 176.062C636.056 175.472 629.998 175.812 624.002 175.998L605.954 176.02L605.875 96.2877L606.096 95.9455C612.242 95.4849 618.316 95.4051 624.46 95.9361C624.921 89.326 624.874 82.6507 624.961 76.0247Z"/>
	<path fill="#2AC0B0" transform="scale(0.219727 0.219727)" d="M624.327 96.2167C630.488 96.7116 637.07 96.7046 643.238 96.3058C643.417 94.9355 643.659 93.5754 643.891 92.2132C643.737 100.12 643.418 108.039 643.502 115.947C637.086 115.576 630.443 115.123 624.025 115.529C624.013 109.087 623.952 102.651 624.327 96.2167Z"/>
	<path fill="#078B86" transform="scale(0.219727 0.219727)" d="M624.025 115.529C630.443 115.123 637.086 115.576 643.502 115.947L643.203 155.46C643.135 162.187 643.396 169.081 642.878 175.78L642.038 176.062C636.056 175.472 629.998 175.812 624.002 175.998C624.645 155.946 624.026 135.605 624.025 115.529Z"/>
	<defs>
		<linearGradient id="gradient_0" gradientUnits="userSpaceOnUse" x1="761.06689" y1="808.52728" x2="692.29779" y2="766.11389">
			<stop offset="0" stop-color="black"/>
			<stop offset="1" stop-color="#02041D"/>
		</linearGradient>
	</defs>
	<path fill="url(#gradient_0)" transform="scale(0.219727 0.219727)" d="M722.249 743.988C728.821 743.941 735.428 743.765 741.994 744.031L758.93 744.049L759.033 815.017C753.362 815.345 747.539 815.86 741.896 815.017L741.065 815.078Q740.862 824.27 740.992 833.464Q720.334 833.89 699.671 833.924L683.208 833.939C683.126 827.846 683.643 821.019 682.64 815.043C682.274 810.811 682.332 806.62 682.394 802.379C682.276 801.219 682.153 800.288 681.755 799.181C676.036 798.596 669.709 799.225 663.931 799.348C663.928 793.332 663.479 786.807 664.435 780.891C670.216 780.934 676.004 780.922 681.784 781.037Q695.047 780.953 708.299 780.427C712.58 779.433 717.644 780.013 722.034 780.154Q721.81 762.069 722.249 743.988Z"/>
	<path fill="#39FADA" transform="scale(0.219727 0.219727)" d="M725.954 796.983L741.992 797C741.976 802.995 742.094 809.027 741.896 815.017L741.065 815.078Q733.539 814.999 726.013 815.137L725.954 796.983Z"/>
	<path fill="#39FADA" transform="scale(0.219727 0.219727)" d="M682.358 798.52C688.293 798.149 694.076 798.139 700.006 798.555L699.965 815.022C694.729 816.222 687.962 815.721 682.64 815.043C682.274 810.811 682.332 806.62 682.394 802.379C682.769 801.088 682.511 799.83 682.358 798.52Z"/>
	<path fill="#2AC0B0" transform="scale(0.219727 0.219727)" d="M682.64 815.043C687.962 815.721 694.729 816.222 699.965 815.022L699.671 833.924L683.208 833.939C683.126 827.846 683.643 821.019 682.64 815.043Z"/>
	<path fill="#2AC0B0" transform="scale(0.219727 0.219727)" d="M664.435 780.891C670.216 780.934 676.004 780.922 681.784 781.037C681.577 786.545 680.666 793.231 682.358 798.52C682.511 799.83 682.769 801.088 682.394 802.379C682.276 801.219 682.153 800.288 681.755 799.181C676.036 798.596 669.709 799.225 663.931 799.348C663.928 793.332 663.479 786.807 664.435 780.891Z"/>
	<path fill="#540504" transform="scale(0.219727 0.219727)" d="M722.249 743.988C728.821 743.941 735.428 743.765 741.994 744.031C742.585 756.025 742.517 768.014 742.5 780.018C731.08 780.513 719.725 780.548 708.299 780.427C712.58 779.433 717.644 780.013 722.034 780.154Q721.81 762.069 722.249 743.988Z"/>
	<path fill="#050513" transform="scale(0.219727 0.219727)" d="M303.503 587.056L321.103 587.014Q320.901 597.545 320.984 608.078Q320.914 619.55 321.005 631.022C327.606 631.001 334.447 630.618 341.017 631.116L341.016 637.633L340.788 638.419C341.466 645.156 340.988 652.236 341.035 659.018C346.605 658.972 352.356 658.623 357.899 659.173C357.87 688.101 356.733 717.32 360.218 746.089L375.05 746.075L375.422 817.825C364.74 817.916 353.657 818.573 343.02 817.646Q332.787 817.509 322.557 817.799C322.389 822.991 322.491 828.234 322.465 833.431C308.367 833.151 294.141 832.943 280.058 833.783Q280.19 825.667 280.419 817.553Q272.232 817.889 264.039 817.896C264.268 793.997 265.131 769.949 263.627 746.083C269.213 746.004 274.81 746.065 280.397 746.067C280.36 738.128 283.185 734.621 283.336 727.457C283.563 716.69 283.156 705.85 283.111 695.076L283.113 632.727C290.033 633.048 296.986 632.99 303.913 633.039C304.007 617.702 303.638 602.39 303.503 587.056Z"/>
	<path fill="#7FDCDD" transform="scale(0.219727 0.219727)" d="M300.68 638.874L319.976 638.996C319.974 645.652 320.134 652.348 319.963 658.998L300.614 659.011Q300.252 648.941 300.68 638.874Z"/>
	<path fill="#2AC0B0" transform="scale(0.219727 0.219727)" d="M280.815 795.422L299.54 795.389L299.537 817.018L280.833 817.02L280.815 795.422Z"/>
	<path fill="#0AA295" transform="scale(0.219727 0.219727)" d="M340.788 638.419C341.466 645.156 340.988 652.236 341.035 659.018L319.963 658.998C320.134 652.348 319.974 645.652 319.976 638.996C326.852 638.964 333.96 639.28 340.788 638.419Z"/>
	<path fill="#540504" transform="scale(0.219727 0.219727)" d="M280.555 746.574C289.163 745.91 298.105 746.448 306.747 746.473Q333.38 746.696 360.014 746.483C359.725 754.246 359.152 762.24 359.895 769.99L342.509 769.991C342.437 762.379 342.174 754.619 342.901 747.038Q331.459 747.042 320.017 746.931C306.985 746.991 293.539 747.684 280.555 746.574Z"/>
	<path fill="#2AC0B0" transform="scale(0.219727 0.219727)" d="M322.679 795.992L342.508 796.009C342.58 797.351 342.554 798.738 342.877 800.044Q343.124 808.844 343.02 817.646Q332.787 817.509 322.557 817.799C322.857 810.558 322.556 803.249 322.679 795.992Z"/>
	<path fill="#078B86" transform="scale(0.219727 0.219727)" d="M342.485 773.997L360.246 774.001L360.358 800.008L342.877 800.044C342.554 798.738 342.58 797.351 342.508 796.009L342.485 773.997Z"/>
	<path fill="#871216" transform="scale(0.219727 0.219727)" d="M320.017 746.931Q331.459 747.042 342.901 747.038C342.174 754.619 342.437 762.379 342.509 769.991C325.674 770.01 308.788 770.308 291.96 769.928C300.772 768.498 311.058 769.462 320.024 769.491L320.017 746.931Z"/>
	<path fill="#D51D2C" transform="scale(0.219727 0.219727)" d="M280.555 746.574C293.539 747.684 306.985 746.991 320.017 746.931L320.024 769.491C311.058 769.462 300.772 768.498 291.96 769.928C288.152 769.978 284.438 769.849 280.643 769.52C280.405 761.887 280.557 754.213 280.555 746.574Z"/>
	<path fill="#2F608A" transform="scale(0.219727 0.219727)" d="M300.174 675.003L319.941 675.005C319.964 683.659 321.082 727.394 319.119 731.745L317.618 732.496C311.933 732.297 306.176 732.487 300.483 732.505L300.174 675.003Z"/>
	<path fill="#0A354F" transform="scale(0.219727 0.219727)" d="M319.941 675.005L342.173 675.016L342.02 732.005C333.901 732.188 325.736 732.572 317.618 732.496L319.119 731.745C321.082 727.394 319.964 683.659 319.941 675.005Z"/>
	<path fill="#050513" transform="scale(0.219727 0.219727)" d="M419.771 96.0431C425.494 96.1603 431.188 96.2685 436.91 96.0403C436.862 116.389 436.689 136.781 437.005 157.127C487.817 157.744 538.701 156.426 589.499 157.398L589.093 96.2398C594.386 96.1957 600.695 95.5291 605.875 96.2877L605.954 176.02L624.002 175.998C629.998 175.812 636.056 175.472 642.038 176.062C641.602 191.683 641.751 207.404 641.891 223.033L657.517 222.982Q657.878 257.606 657.675 292.232C657.623 308.647 657.256 325.164 657.965 341.564L670.875 341.577C670.994 390.666 670.504 439.816 671.061 488.896C665.698 488.87 660.272 488.669 654.917 488.949L654.562 488.913C649.039 488.773 643.521 488.985 637.999 488.959Q638.306 498.525 637.901 508.087C632.388 507.938 626.895 507.755 621.382 507.999C621.292 515.349 621.097 522.717 621.454 530.06C615.472 530.072 608.32 529.41 602.497 530.868C601.632 525.238 602.195 519.25 602.386 513.575L602.325 507.225C596.725 507.119 591.16 507.519 585.558 507.152C571.14 506.896 424.204 506.295 422.222 507.589C421.88 508.843 421.887 509.966 421.898 511.25C421.555 513.543 420.7 514.688 418.868 516.11C415.107 519.029 409.527 518.958 404.989 519.122L404.94 507.998L389.868 507.902C390.057 501.528 389.969 495.127 389.988 488.749Q380.765 488.921 371.54 488.956C365.385 488.807 359.194 488.957 353.035 488.975C353.921 441.915 353.091 394.681 353.065 347.604L368.151 347.856L367.056 220.055L382.994 220.072C382.974 205.251 383.123 190.383 382.492 175.573C388.321 175.631 394.153 175.747 399.98 175.556L419.033 175.539L418.974 126.191C418.971 117.123 418.382 107.484 419.4 98.4852C419.638 97.7632 419.662 96.8066 419.771 96.0431Z"/>
	<path fill="#871216" transform="scale(0.219727 0.219727)" d="M623.029 294.58L640 294.534L640.012 303.518L623.043 303.494L623.029 294.58Z"/>
	<path fill="#D51D2C" transform="scale(0.219727 0.219727)" d="M384.001 294.014L402.036 294.055L401.941 303.834L384.079 303.972L384.001 294.014Z"/>
	<path fill="#0B0E2C" transform="scale(0.219727 0.219727)" d="M394.984 309.445C403.966 308.3 413.225 307.727 422.236 308.639L422.358 308.905C421.484 313.944 421.892 319.886 422.247 324.999L401.062 325.002L401.052 309.527L394.984 309.445Z"/>
	<path fill="#FBE866" transform="scale(0.219727 0.219727)" d="M407.406 431.999L421.86 432.005C422.415 437.25 422.913 442.46 422.864 447.744C422.84 450.322 422.449 452.934 422.495 455.496C419.285 455.51 416.072 455.596 412.862 455.651L407.381 455.556L407.406 431.999Z"/>
	<path fill="#FBE866" transform="scale(0.219727 0.219727)" d="M462.5 432.003L473.889 432.001Q474.038 451.998 473.925 471.995L462.533 471.999L462.5 432.003Z"/>
	<path fill="#FBE866" transform="scale(0.219727 0.219727)" d="M572.847 432L584.36 432.009L584.379 472.036L573.053 472.156C571.642 459.011 572.605 445.215 572.847 432Z"/>
	<path fill="#AE7D5B" transform="scale(0.219727 0.219727)" d="M437.992 432.004L451.676 432.013Q451.839 452.006 451.569 471.998L438.023 471.994L437.992 432.004Z"/>
	<path fill="#F2C36E" transform="scale(0.219727 0.219727)" d="M421.86 432.005L437.992 432.004L438.023 471.994L422.489 472.003Q422.569 463.75 422.495 455.496C422.449 452.934 422.84 450.322 422.864 447.744C422.913 442.46 422.415 437.25 421.86 432.005Z"/>
	<path fill="#F2C36E" transform="scale(0.219727 0.219727)" d="M473.889 432.001L489.95 432.004C490.784 440.916 491.367 463.583 489.885 471.999L473.925 471.995Q474.038 451.998 473.889 432.001Z"/>
	<path fill="#AE7D5B" transform="scale(0.219727 0.219727)" d="M489.95 432.004L507.336 432.017Q506.871 452.005 507.026 471.998L489.885 471.999C491.367 463.583 490.784 440.916 489.95 432.004Z"/>
	<path fill="#AE7D5B" transform="scale(0.219727 0.219727)" d="M544.008 431.916L560.802 432.016L560.919 472.248C555.157 472.355 549.38 472.559 543.617 472.494L544.181 471.988C545.133 467.078 544.256 460.689 544.157 455.611Q543.991 443.764 544.008 431.916Z"/>
	<path fill="#C89566" transform="scale(0.219727 0.219727)" d="M584.36 432.009L601.917 432.01L601.891 471.93C596.559 472.602 590.527 472.078 585.12 472.166L584.379 472.036L584.36 432.009Z"/>
	<path fill="#078B86" transform="scale(0.219727 0.219727)" d="M639.43 372.003Q647.707 372.339 655.991 372.356Q656.129 393.684 655.974 415.012L638.946 415.002L639.015 393.219L639.43 372.003Z"/>
	<path fill="#AE7D5B" transform="scale(0.219727 0.219727)" d="M601.917 432.01L620.206 432.011L620.075 454.986C618.151 455.068 616.142 455.039 614.244 455.363C616.047 455.352 618.047 455.13 619.699 455.925C620.753 460.888 620.086 466.908 620.013 472C614.295 472.037 608.064 472.553 602.407 471.957L601.891 471.93L601.917 432.01Z"/>
	<path fill="#050513" transform="scale(0.219727 0.219727)" d="M614.244 455.363C616.047 455.352 618.047 455.13 619.699 455.925C620.753 460.888 620.086 466.908 620.013 472C614.295 472.037 608.064 472.553 602.407 471.957C602.506 466.478 602.4 460.978 602.384 455.497Q608.316 455.586 614.244 455.363Z"/>
	<path fill="#0AA295" transform="scale(0.219727 0.219727)" d="M601.438 393.12C614.056 392.914 626.389 394.773 639.015 393.219L638.946 415.002L601.902 415.265C601.472 407.887 601.454 400.508 601.438 393.12Z"/>
	<path fill="#FBE866" transform="scale(0.219727 0.219727)" d="M519.404 431.904C527.593 431.616 535.815 431.834 544.008 431.916Q543.991 443.764 544.157 455.611C544.256 460.689 545.133 467.078 544.181 471.988L543.617 472.494C535.48 472.455 527.343 472.462 519.214 472.077C518.599 458.754 519.186 445.239 519.404 431.904Z"/>
	<path fill="#0AA295" transform="scale(0.219727 0.219727)" d="M371.985 394.035L422.017 393.993L422.028 415.253C415.418 415.22 408.721 414.957 402.122 415.202Q387.056 415.018 371.994 415.428L371.985 394.035Z"/>
	<path fill="#2F608A" transform="scale(0.219727 0.219727)" d="M394.984 309.445L401.052 309.527L401.062 325.002L422.247 324.999L437.49 325.016C437.467 328.531 437.273 332.153 437.772 335.637C434.853 337.684 424.698 336.541 420.919 336.501L421.551 342.978C409.626 344.534 396.021 343.417 383.997 343.027L383.99 309.493Q389.487 309.53 394.984 309.445Z"/>
	<path fill="#2AC0B0" transform="scale(0.219727 0.219727)" d="M371.992 371.014Q385.6 371.004 399.207 371.178C406.763 371.344 414.456 371.921 421.998 371.229L422.017 393.993L371.985 394.035L371.992 371.014Z"/>
	<path fill="#39FADA" transform="scale(0.219727 0.219727)" d="M383.997 343.027C396.021 343.417 409.626 344.534 421.551 342.978C422.331 347.066 422.184 351.33 422.054 355.475Q421.98 363.352 421.998 371.229C414.456 371.921 406.763 371.344 399.207 371.178Q385.6 371.004 371.992 371.014L371.977 355.491L379.887 355.476C380.861 355.307 381.767 355.079 382.712 354.79C383.936 353.325 384.165 351.737 384.058 349.878C383.927 347.593 383.974 345.315 383.997 343.027Z"/>
	<path fill="#0A2341" transform="scale(0.219727 0.219727)" d="M383.997 343.027C396.021 343.417 409.626 344.534 421.551 342.978C422.331 347.066 422.184 351.33 422.054 355.475C408.005 354.454 393.946 355.321 379.887 355.476C380.861 355.307 381.767 355.079 382.712 354.79C383.936 353.325 384.165 351.737 384.058 349.878C383.927 347.593 383.974 345.315 383.997 343.027Z"/>
	<path fill="#0B0E2C" transform="scale(0.219727 0.219727)" d="M437.772 335.637L438.189 336.408C437.063 345.279 437.776 354.227 437.882 363.14C438.007 373.579 437.795 384.013 438.057 394.452C438.369 401.315 438.43 408.155 438.431 415.024C432.569 414.962 405.413 417.058 402.122 415.202C408.721 414.957 415.418 415.22 422.028 415.253L422.017 393.993L421.998 371.229Q421.98 363.352 422.054 355.475C422.184 351.33 422.331 347.066 421.551 342.978L420.919 336.501C424.698 336.541 434.853 337.684 437.772 335.637Z"/>
	<path fill="#09556B" transform="scale(0.219727 0.219727)" d="M623.49 309.999L640.007 310.003L640.005 342.026L640 355.065Q633.614 354.99 627.228 355.085C620.442 354.987 608.408 353.719 602.084 355.915L601.543 356.107C601.835 351.435 601.937 346.782 601.998 342.102L602.011 326.065L623.497 326L623.49 309.999Z"/>
	<path fill="#0A2341" transform="scale(0.219727 0.219727)" d="M601.998 342.102L640.005 342.026L640 355.065Q633.614 354.99 627.228 355.085C620.442 354.987 608.408 353.719 602.084 355.915L601.543 356.107C601.835 351.435 601.937 346.782 601.998 342.102Z"/>
	<path fill="#2AC0B0" transform="scale(0.219727 0.219727)" d="M640 355.065Q648.006 354.985 656.012 354.995C656 360.776 655.89 366.577 655.991 372.356Q647.707 372.339 639.43 372.003L639.015 393.219C626.389 394.773 614.056 392.914 601.438 393.12L601.543 356.107L602.084 355.915C608.408 353.719 620.442 354.987 627.228 355.085Q633.614 354.99 640 355.065Z"/>
	<path fill="#39FADA" transform="scale(0.219727 0.219727)" d="M602.084 355.915C608.408 353.719 620.442 354.987 627.228 355.085C631.19 355.817 635.427 355.586 639.449 355.621C639.466 361.081 639.553 366.55 639.451 372.008L601.8 372.026Q602.058 363.973 602.084 355.915Z"/>
	<path fill="#D51D2C" transform="scale(0.219727 0.219727)" d="M421.936 262.994Q446.205 263.448 470.477 263.305C470.615 278.495 471.273 293.919 470.288 309.075C454.428 309.004 438.164 309.704 422.358 308.905L422.236 308.639C421.483 302.885 421.877 296.945 421.911 291.151Q422.049 277.073 421.936 262.994Z"/>
	<path fill="#F9F9F9" transform="scale(0.219727 0.219727)" d="M435.948 271.98Q445.937 271.689 455.919 272.17C456.126 280.115 456.016 288.083 456.019 296.03L436.007 296.043L435.948 271.98Z"/>
	<path fill="#D51D2C" transform="scale(0.219727 0.219727)" d="M555.513 263.014C571.828 263.326 588.216 262.629 604.511 263.32C604.502 278.35 605.063 293.394 604.914 308.416Q580.438 308.28 555.965 308.729C554.896 293.622 555.502 278.166 555.513 263.014Z"/>
	<path fill="#F9F9F9" transform="scale(0.219727 0.219727)" d="M569.979 272C576.813 271.918 583.654 271.982 590.489 271.988L590.503 296.036L569.994 296.047L569.979 272Z"/>
	<path fill="#7B9FBE" transform="scale(0.219727 0.219727)" d="M436.992 174.89Q513.25 174.166 589.507 175.021L589.5 192.818C579.105 192.266 568.457 192.624 558.039 192.514C534.793 192.243 511.519 192.486 488.271 192.506C471.214 192.52 454.05 192.135 437.009 192.79L436.992 174.89Z"/>
	<path fill="#540504" transform="scale(0.219727 0.219727)" d="M637.975 432.01L655.039 431.996C655.119 450.99 655.499 469.959 654.917 488.949L654.562 488.913C649.039 488.773 643.521 488.985 637.999 488.959Q638.306 498.525 637.901 508.087C632.388 507.938 626.895 507.755 621.382 507.999C621.292 515.349 621.097 522.717 621.454 530.06C615.472 530.072 608.32 529.41 602.497 530.868C601.632 525.238 602.195 519.25 602.386 513.575L602.325 507.225C596.725 507.119 591.16 507.519 585.558 507.152C585.485 500.811 585.234 494.297 585.986 487.992C591.326 487.946 596.694 487.775 602.021 488.192L602.079 478.263C602.113 476.591 602.423 474.811 601.408 473.384C597.481 470.784 590.827 473.018 586.106 472.328C585.776 472.28 585.449 472.22 585.12 472.166C590.527 472.078 596.559 472.602 601.891 471.93L602.407 471.957C608.064 472.553 614.295 472.037 620.013 472C620.086 466.908 620.753 460.888 619.699 455.925C618.047 455.13 616.047 455.352 614.244 455.363C616.142 455.039 618.151 455.068 620.075 454.986L625.452 454.923C629.62 454.448 633.827 454.557 638.016 454.566L637.975 432.01Z"/>
	<path fill="#871216" transform="scale(0.219727 0.219727)" d="M602.569 472.588C608.38 472.555 614.202 472.452 620.012 472.515L620.013 488.481C614.217 488.606 607.73 489.215 602.021 488.192L602.079 478.263C602.277 476.372 602.487 474.488 602.569 472.588Z"/>
	<path fill="#871216" transform="scale(0.219727 0.219727)" d="M620.075 454.986L625.452 454.923Q631.717 455.149 637.986 455.041L638.023 471.994C632.047 472.035 625.978 472.278 620.013 472C620.086 466.908 620.753 460.888 619.699 455.925C618.047 455.13 616.047 455.352 614.244 455.363C616.142 455.039 618.151 455.068 620.075 454.986Z"/>
	<path fill="#0A354F" transform="scale(0.219727 0.219727)" d="M589.5 192.818C600.948 193.339 612.518 192.992 623.982 192.936L624.008 223.963Q632.199 223.67 640.393 223.496Q639.727 255.882 640.027 288.272C634.341 288.409 628.665 288.547 622.989 288.06L622.96 246.976L603.985 247.097L603.969 223.975L573.532 224.059C568.589 224.071 562.713 224.692 557.875 223.757C559.105 215.488 557.89 201.62 558.039 192.514C568.457 192.624 579.105 192.266 589.5 192.818Z"/>
	<path fill="#2F608A" transform="scale(0.219727 0.219727)" d="M584.078 349.843C584.858 359.465 584.503 369.263 584.454 378.911C584.394 390.931 584.465 402.972 584.237 414.989L483.068 415.059L454.425 415.143C449.162 415.187 443.658 415.667 438.431 415.024C438.43 408.155 438.369 401.315 438.057 394.452C454.249 394.916 470.519 394.542 486.723 394.564L561.03 395.027Q561.13 386.011 561.011 376.995Q560.809 368.019 560.94 359.042L583.991 359.026C583.924 355.959 583.99 352.909 584.078 349.843Z"/>
	<path fill="#871216" transform="scale(0.219727 0.219727)" d="M371.028 432.015L398.387 432.007C397.903 439.892 398.297 447.861 398.478 455.756C401.487 455.758 404.46 455.875 407.463 456.068C409.131 456.171 411.438 456.632 412.862 455.651C416.072 455.596 419.285 455.51 422.495 455.496Q422.569 463.75 422.489 472.003L422.545 488.012L585.986 487.992C585.234 494.297 585.485 500.811 585.558 507.152C571.14 506.896 424.204 506.295 422.222 507.589C421.88 508.843 421.887 509.966 421.898 511.25C421.555 513.543 420.7 514.688 418.868 516.11C415.107 519.029 409.527 518.958 404.989 519.122L404.94 507.998L389.868 507.902C390.057 501.528 389.969 495.127 389.988 488.749Q380.765 488.921 371.54 488.956C370.901 470.003 371.656 450.994 371.028 432.015Z"/>
	<path transform="scale(0.219727 0.219727)" d="M422.495 455.496Q422.569 463.75 422.489 472.003L407.427 472.024L407.463 456.068C409.131 456.171 411.438 456.632 412.862 455.651C416.072 455.596 419.285 455.51 422.495 455.496Z"/>
	<path fill="#7FDCDD" transform="scale(0.219727 0.219727)" d="M487.573 298.301C488.021 302.669 487.909 307.127 487.775 311.512Q512.402 311.654 537.024 311.142C537.021 308.553 536.904 305.91 537.078 303.328L537.483 309.343C543.67 309.451 549.755 309.379 555.936 308.993Q555.914 317.01 556.521 325.005C556.707 328.703 556.761 332.301 556.548 335.998C565.618 335.936 574.993 335.428 583.997 336.58L584.078 349.843C583.99 352.909 583.924 355.959 583.991 359.026L560.94 359.042Q560.809 368.019 561.011 376.995Q561.13 386.011 561.03 395.027L486.723 394.564C470.519 394.542 454.249 394.916 438.057 394.452C437.795 384.013 438.007 373.579 437.882 363.14C437.776 354.227 437.063 345.279 438.189 336.408C446.784 336.843 455.421 336.601 464.024 336.507C464.091 332.9 462.998 329.023 464.568 325.682C466.066 324.694 467.165 324.987 468.933 324.995L469.955 324.459C471.151 321.568 470.418 312.999 470.421 309.487L487.405 309.472C487.379 305.739 487.407 302.03 487.573 298.301Z"/>
	<path fill="#050513" transform="scale(0.219727 0.219727)" d="M537.616 351.016L560.997 350.87L560.94 359.042Q560.809 368.019 561.011 376.995L537.544 376.994L537.616 351.016Z"/>
	<path fill="#050513" transform="scale(0.219727 0.219727)" d="M456.029 351.008L487.273 350.996C487.456 359.664 487.777 368.365 486.952 377.008Q471.493 376.932 456.042 377.426L456.029 351.008Z"/>
	<path fill="#0A2341" transform="scale(0.219727 0.219727)" d="M487.573 298.301C488.021 302.669 487.909 307.127 487.775 311.512Q512.402 311.654 537.024 311.142C537.021 308.553 536.904 305.91 537.078 303.328L537.483 309.343C543.67 309.451 549.755 309.379 555.936 308.993Q555.914 317.01 556.521 325.005C527.337 324.642 498.12 324.953 468.933 324.995L469.955 324.459C471.151 321.568 470.418 312.999 470.421 309.487L487.405 309.472C487.379 305.739 487.407 302.03 487.573 298.301Z"/>
	<path fill="#2F608A" transform="scale(0.219727 0.219727)" d="M437.009 192.79C454.05 192.135 471.214 192.52 488.271 192.506C511.519 192.486 534.793 192.243 558.039 192.514C557.89 201.62 559.105 215.488 557.875 223.757C556.385 223.953 555.751 223.822 554.637 224.874C553.636 231.742 554.437 239.601 554.504 246.576L537.017 246.678L537.078 303.328C536.904 305.91 537.021 308.553 537.024 311.142Q512.402 311.654 487.775 311.512C487.909 307.127 488.021 302.669 487.573 298.301Q487.59 272.431 487.252 246.563L470.996 246.769L470.99 223.983L421.522 223.998L421.517 246.5C415.018 246.552 408.511 246.771 402.013 246.914L402.037 289.003L383.99 289.019L383.938 223.043L400.552 223.001L400.552 193.005C412.689 192.935 424.884 193.26 437.009 192.79Z"/>
	<path fill="#050513" transform="scale(0.219727 0.219727)" d="M637.999 488.959C643.521 488.985 649.039 488.773 654.562 488.913L654.583 508.9C649.207 508.881 643.817 508.942 638.443 508.787C637.183 519.583 637.282 539.212 638.469 550.045L680.472 550.086C680.492 556.024 680.291 562.063 680.583 567.988L680.898 568.068C680.917 572.764 681.096 577.522 680.788 582.208C680.811 583.65 680.57 585.803 681.383 587C685.44 587.804 698.874 588.3 702.811 587.176L703.066 587.572L703.001 608.045C702.828 618.065 702.603 628.015 703.099 638.028L722.974 637.994L722.884 637.579C729.272 637.282 735.689 636.818 742.08 637.24C741.598 656.492 741.824 675.729 741.858 694.984C741.886 711.337 741.667 727.68 741.994 744.031C735.428 743.765 728.821 743.941 722.249 743.988Q721.81 762.069 722.034 780.154C717.644 780.013 712.58 779.433 708.299 780.427Q695.047 780.953 681.784 781.037C676.004 780.922 670.216 780.934 664.435 780.891C663.479 786.807 663.928 793.332 663.931 799.348C662.733 803.667 663.799 810.383 663.975 814.924L648.048 814.967C648.488 791.399 648.082 767.746 648.083 744.169L664.252 744.134Q663.613 703.004 664.202 661.872L639.334 661.99C638.744 670.669 639.313 679.729 639.356 688.442L639.688 740.241Q639.92 764.117 639.851 787.994C639.843 796.168 639.489 804.508 639.9 812.664C640.032 815.282 641.868 816.709 641.983 819.444C642.193 824.422 641.096 829.197 642.203 834.158C642.321 834.268 642.44 834.377 642.556 834.489C643.173 835.086 643.976 835.786 644.21 836.643C645.167 840.146 644.503 853.873 644.512 858.37C644.551 878.583 644.275 898.838 644.746 919.044L663.387 918.997L663.454 972.957L536.1 972.967L536.047 919.088L554.145 919.043L554.054 849.917L470.257 849.957Q470.045 884.505 470.493 919.05L487.907 919.052L487.978 972.726C472.644 973.409 457.181 972.969 441.832 972.956L359.1 972.973C359.377 954.857 358.631 936.668 359.2 918.566L378.982 918.573Q378.394 884.07 378.964 849.568L385.034 848.944L386.497 659.43C377.075 659.345 367.27 660.049 357.899 659.173C352.356 658.623 346.605 658.972 341.035 659.018C340.988 652.236 341.466 645.156 340.788 638.419L341.016 637.633L341.017 631.116C334.447 630.618 327.606 631.001 321.005 631.022Q320.914 619.55 320.984 608.078Q320.901 597.545 321.103 587.014C321.888 581.081 321.401 574.762 321.316 568.783C327.859 569.138 334.425 569.003 340.971 568.824L341.145 568.5C341.283 562.847 341.103 557.142 341.078 551.484L389.541 551.277L389.579 523.739C389.598 518.48 389.884 513.097 389.402 507.859C389.453 506.769 389.42 505.861 389.218 504.788C386.65 502.619 379.937 504.408 376.491 503.859C373.922 503.45 373.446 502.418 371.949 500.441C371.516 496.669 371.618 492.755 371.54 488.956Q380.765 488.921 389.988 488.749C389.969 495.127 390.057 501.528 389.868 507.902L404.94 507.998L404.989 519.122C409.527 518.958 415.107 519.029 418.868 516.11C420.7 514.688 421.555 513.543 421.898 511.25C421.887 509.966 421.88 508.843 422.222 507.589C424.204 506.295 571.14 506.896 585.558 507.152C591.16 507.519 596.725 507.119 602.325 507.225L602.386 513.575C602.195 519.25 601.632 525.238 602.497 530.868C608.32 529.41 615.472 530.072 621.454 530.06C621.097 522.717 621.292 515.349 621.382 507.999C626.895 507.755 632.388 507.938 637.901 508.087Q638.306 498.525 637.999 488.959Z"/>
	<path fill="#0B0E2C" transform="scale(0.219727 0.219727)" d="M404.581 729.435C404.727 732.023 404.872 734.604 404.898 737.198C404.891 744.621 403.92 753.467 405.252 760.67C406.712 761.469 408.605 761.165 410.222 761.103C409.222 761.879 409.185 761.89 409.052 763.21C408.483 768.834 409.162 774.475 408.417 780.151C408.384 780.4 408.358 780.651 408.327 780.901L408.269 781.35L418.728 781.584C413.461 782.471 407.746 781.908 402.405 781.927C402.249 777.24 401.662 771.594 402.416 766.989C402.856 764.298 404.453 762.062 404.525 759.262C404.779 749.354 403.713 739.325 404.581 729.435Z"/>
	<path fill="#540504" transform="scale(0.219727 0.219727)" d="M404.989 519.122C409.527 518.958 415.107 519.029 418.868 516.11C420.7 514.688 421.555 513.543 421.898 511.25L422.016 513.902L422.012 532.028L404.945 532.016L404.989 519.122Z"/>
	<path fill="#050513" transform="scale(0.219727 0.219727)" d="M410.222 761.103L421.423 761.001C422.172 767.654 422.012 774.42 422 781.109C420.914 781.289 419.827 781.51 418.728 781.584L408.269 781.35L408.327 780.901C408.358 780.651 408.384 780.4 408.417 780.151C409.162 774.475 408.483 768.834 409.052 763.21C409.185 761.89 409.222 761.879 410.222 761.103Z"/>
	<path fill="#0AA295" transform="scale(0.219727 0.219727)" d="M638.915 567.993L656.951 568C656.953 573.995 658.133 580.045 657.642 586C657.585 586.689 657.538 587.375 657.472 588.065C651.331 587.871 645.132 588.044 638.985 588.048L638.915 567.993Z"/>
	<path fill="#0A2341" transform="scale(0.219727 0.219727)" d="M383.954 853.526C390.121 853.501 396.304 853.577 402.462 853.226Q402.342 863.601 402.482 873.976C397.671 873.916 392.852 873.998 388.04 874.018C386.517 871.704 385.079 869.328 383.61 866.978C383.554 862.464 383.522 858.029 383.954 853.526Z"/>
	<path fill="#078B86" transform="scale(0.219727 0.219727)" d="M579.247 933.411C584.479 932.84 590.045 933.065 595.323 933.036L623.987 933.003L623.987 955.008L598.333 954.931C601.409 954.32 604.54 954.456 607.665 954.454C607.384 947.488 607.499 940.472 607.462 933.499C598.107 933.529 588.575 934.015 579.247 933.411Z"/>
	<path fill="#087782" transform="scale(0.219727 0.219727)" d="M703.099 638.028L722.974 637.994C723.315 644.993 723.213 652.005 723.187 659.01L702.934 659.005C703.436 652.33 703.013 645.33 703.001 638.62C699.153 638.642 694.975 638.998 691.217 638.114C695.142 638.118 699.187 638.304 703.099 638.028Z"/>
	<path fill="#09556B" transform="scale(0.219727 0.219727)" d="M623.987 933.003L644.043 933.007L644.014 954.561C637.34 954.78 630.665 955.061 623.987 955.008L623.987 933.003Z"/>
	<path fill="#0A354F" transform="scale(0.219727 0.219727)" d="M657.995 637.119L662.057 637.017C661.826 643.664 661.993 650.338 662.049 656.988L639.001 657.025L638.99 637.511C645.168 637.51 651.898 638.031 657.995 637.119Z"/>
	<path fill="#078B86" transform="scale(0.219727 0.219727)" d="M681.039 637.908L691.217 638.114C694.975 638.998 699.153 638.642 703.001 638.62C703.013 645.33 703.436 652.33 702.934 659.005L680.849 659.02C681.207 652.063 680.933 644.895 681.039 637.908Z"/>
	<path fill="#078B86" transform="scale(0.219727 0.219727)" d="M680.583 567.988L680.898 568.068C680.917 572.764 681.096 577.522 680.788 582.208C680.548 583.545 680.357 584.797 680.339 586.163C679.023 587.647 677.319 587.656 675.373 587.78C669.608 588.149 663.804 587.722 658.048 588.064L657.472 588.065C657.538 587.375 657.585 586.689 657.642 586C658.133 580.045 656.953 573.995 656.951 568C664.824 567.979 672.711 567.857 680.583 567.988Z"/>
	<path fill="#09556B" transform="scale(0.219727 0.219727)" d="M448.957 932.995L471.135 933.014L471.035 955.003L448.944 955.005C449.386 947.765 448.97 940.264 448.957 932.995Z"/>
	<path fill="#078B86" transform="scale(0.219727 0.219727)" d="M601.46 737.992C608.625 738.006 615.841 737.839 622.999 738.093C622.917 745.668 622.944 753.262 622.69 760.832C615.639 760.087 608.203 760.696 601.091 760.585C601.48 753.152 601.055 745.504 601.047 738.049L601.46 737.992Z"/>
	<path fill="#087782" transform="scale(0.219727 0.219727)" d="M425.422 933.007L448.957 932.995C448.97 940.264 449.386 947.765 448.944 955.005C441.035 955.033 432.891 955.424 425.016 954.697C426.204 947.763 425.509 940.028 425.422 933.007Z"/>
	<path fill="#09556B" transform="scale(0.219727 0.219727)" d="M680.156 608.02L703.001 608.045C702.828 618.065 702.603 628.015 703.099 638.028C699.187 638.304 695.142 638.118 691.217 638.114L681.039 637.908C680.933 644.895 681.207 652.063 680.849 659.02C679.623 652.676 680.969 645.726 680.489 639.279C680.403 638.127 680.55 637.994 679.631 637.212C679.858 636.979 680.153 636.797 680.311 636.513C681.017 635.243 680.159 611.267 680.156 608.02Z"/>
	<path fill="#09556B" transform="scale(0.219727 0.219727)" d="M638.985 588.048C645.132 588.044 651.331 587.871 657.472 588.065L658.048 588.064Q657.875 612.592 657.995 637.119C651.898 638.031 645.168 637.51 638.99 637.511L638.985 588.048Z"/>
	<path fill="#0A2341" transform="scale(0.219727 0.219727)" d="M608.054 873.997C612.629 874.018 622.387 875.168 626.35 873.584C627.073 873.294 627.093 872.78 627.397 872.121C631.436 881.055 629.27 906.951 629.497 917.989L608.043 918.083L607.908 889.693C607.886 884.504 607.576 879.154 608.054 873.997Z"/>
	<path fill="#0B0E2C" transform="scale(0.219727 0.219727)" d="M568.33 547.022C574.392 547.018 580.461 546.957 586.522 547.028C586.147 553.377 584.913 561.791 586.269 568.008L586.077 568.634Q585.901 576.458 585.884 584.285C585.182 581.693 585.374 578.766 585.313 576.089C579.774 576.823 574.01 576.406 568.456 576.02C562.959 575.905 557.438 575.998 551.939 575.991C552.695 566.698 551.973 556.81 551.943 547.454C557.412 547.143 562.854 547.054 568.33 547.022Z"/>
	<path fill="#0A2341" transform="scale(0.219727 0.219727)" d="M551.943 547.454C557.412 547.143 562.854 547.054 568.33 547.022Q568.539 561.52 568.456 576.02C562.959 575.905 557.438 575.998 551.939 575.991C552.695 566.698 551.973 556.81 551.943 547.454Z"/>
	<path fill="#2AC0B0" transform="scale(0.219727 0.219727)" d="M377.985 933.054C393.786 932.703 409.618 932.948 425.422 933.007C425.509 940.028 426.204 947.763 425.016 954.697C409.412 954.059 393.624 954.547 377.999 954.555L377.985 933.054Z"/>
	<path fill="#0A354F" transform="scale(0.219727 0.219727)" d="M601.375 638.997C602.461 628.322 600.419 617.286 601.792 606.607L602.305 608.064C606.942 609.66 617.365 608.451 622.541 608.032C623.444 624.568 622.481 641.42 622.62 658.002C615.414 657.928 608.245 658.629 601.023 658.41C601.412 651.943 600.8 645.448 601.375 638.997Z"/>
	<path fill="#2AC0B0" transform="scale(0.219727 0.219727)" d="M553.524 933.273C561.848 932.303 570.851 933.158 579.247 933.411C588.575 934.015 598.107 933.529 607.462 933.499C607.499 940.472 607.384 947.488 607.665 954.454C604.54 954.456 601.409 954.32 598.333 954.931C583.535 955.699 568.403 955.072 553.57 955.006L553.524 933.273Z"/>
	<path fill="#09556B" transform="scale(0.219727 0.219727)" d="M389.581 596.33C390.24 604.222 389.793 612.136 389.654 620.043Q389.495 634.021 389.533 648L357.974 647.999L357.899 659.173C352.356 658.623 346.605 658.972 341.035 659.018C340.988 652.236 341.466 645.156 340.788 638.419L341.016 637.633C352.214 636.388 363.222 636.923 374.45 636.987L374.438 607.993C378.107 607.989 384.744 609.222 387.873 607.576C390.282 604.836 389.441 599.829 389.581 596.33Z"/>
	<path fill="#0B0E2C" transform="scale(0.219727 0.219727)" d="M612.317 779.55C616.213 779.465 620.14 779.279 624.034 779.43C624.095 789.653 623.764 827.448 626.423 834.459L607.569 834.516C602.546 834.652 597.503 834.512 592.479 834.465C591.719 826.89 592.172 819.25 591.81 811.648C590.528 810.713 588.986 810.757 587.438 810.554C591.802 810.381 596.256 810.572 600.632 810.554C600.551 805.566 599.811 799.588 600.81 794.735C604.524 794.124 608.445 794.408 612.2 794.475C613.056 789.73 612.482 784.365 612.317 779.55Z"/>
	<path fill="#078B86" transform="scale(0.219727 0.219727)" d="M600.81 794.735Q606.435 794.913 612.063 794.97L612.032 810.505L600.632 810.554C600.551 805.566 599.811 799.588 600.81 794.735Z"/>
	<path fill="#087782" transform="scale(0.219727 0.219727)" d="M374.415 568.487L389.736 568.534C390.808 577.433 390.085 587.366 389.581 596.33C389.441 599.829 390.282 604.836 387.873 607.576C384.744 609.222 378.107 607.989 374.438 607.993L374.45 636.987C363.222 636.923 352.214 636.388 341.016 637.633L341.017 631.116C341.694 631.108 342.24 630.952 342.893 630.789C348.551 630.283 354.334 630.509 360.012 630.509L359.875 588.016Q367.135 587.735 374.398 587.946C374.768 581.506 374.481 574.939 374.415 568.487Z"/>
	<path fill="#2AC0B0" transform="scale(0.219727 0.219727)" d="M374.415 568.487L389.736 568.534C389.22 575.01 389.61 581.545 389.425 588.037C384.438 588.012 379.378 588.147 374.398 587.946C374.768 581.506 374.481 574.939 374.415 568.487Z"/>
	<path fill="#087782" transform="scale(0.219727 0.219727)" d="M658.048 588.064C663.804 587.722 669.608 588.149 675.373 587.78C677.319 587.656 679.023 587.647 680.339 586.163C680.357 584.797 680.548 583.545 680.788 582.208C680.811 583.65 680.57 585.803 681.383 587C685.44 587.804 698.874 588.3 702.811 587.176L703.066 587.572L703.001 608.045L680.156 608.02C680.159 611.267 681.017 635.243 680.311 636.513C680.153 636.797 679.858 636.979 679.631 637.212C673.822 636.857 667.882 637.042 662.057 637.017L657.995 637.119Q657.875 612.591 658.048 588.064Z"/>
	<path fill="#871216" transform="scale(0.219727 0.219727)" d="M664.412 744.126C683.58 742.909 703.034 744.026 722.249 743.988Q721.81 762.069 722.034 780.154C717.644 780.013 712.58 779.433 708.299 780.427Q695.047 780.953 681.784 781.037C676.004 780.922 670.216 780.934 664.435 780.891C664.065 768.605 664.164 756.411 664.412 744.126Z"/>
	<path fill="#0A354F" transform="scale(0.219727 0.219727)" d="M680.98 672.984L723.112 673.005L723.056 728.001C709.029 727.988 695.016 728.409 680.99 728.434L680.98 672.984Z"/>
	<path fill="#0B0E2C" transform="scale(0.219727 0.219727)" d="M454.02 807.493L552.016 807.541C552.046 815.687 551.917 823.872 552.246 832.01L454.063 832.067C453.838 823.894 454.02 815.672 454.02 807.493Z"/>
	<path fill="#2B4378" transform="scale(0.219727 0.219727)" d="M402.411 794.272C408.64 797.56 415.825 796.61 422.645 796.437Q422.53 801.934 422.504 807.432C427.333 807.447 432.196 807.584 437.022 807.407L437.731 807.684C438.023 810.835 438.056 813.946 438.054 817.108L422.215 816.864C422.056 829.006 421.299 841.477 422.611 853.56Q423.251 863.811 422.733 874.068C422.178 883.993 422.51 894.044 422.526 903.984C422.533 908.354 422.906 913.079 422.162 917.379C420.821 918.29 418.887 918.271 417.297 918.44L402.491 918.509L402.482 873.976Q402.342 863.601 402.462 853.226C402.631 833.567 401.975 813.934 402.411 794.272Z"/>
	<path fill="#2AC0B0" transform="scale(0.219727 0.219727)" d="M402.785 853.183C409.382 852.831 416.022 853.218 422.611 853.56Q423.251 863.811 422.733 874.068Q412.803 874.107 402.873 874.022L402.785 853.183Z"/>
	<path fill="#7FDCDD" transform="scale(0.219727 0.219727)" d="M341.145 568.5C352.228 568.149 363.329 568.378 374.415 568.487C374.481 574.939 374.768 581.506 374.398 587.946Q367.135 587.735 359.875 588.016L360.012 630.509C354.334 630.509 348.551 630.283 342.893 630.789C342.24 630.952 341.694 631.108 341.017 631.116C334.447 630.618 327.606 631.001 321.005 631.022Q320.914 619.55 320.984 608.078Q320.901 597.545 321.103 587.014C321.888 581.081 321.401 574.762 321.316 568.783C327.859 569.138 334.425 569.003 340.971 568.824L341.145 568.5Z"/>
	<path fill="#0B0E2C" transform="scale(0.219727 0.219727)" d="M321.316 568.783C327.859 569.138 334.425 569.003 340.971 568.824L341.006 586.999L321.103 587.014C321.888 581.081 321.401 574.762 321.316 568.783Z"/>
	<path fill="#078B86" transform="scale(0.219727 0.219727)" d="M320.984 608.078L341.011 607.988C340.973 612.468 339.867 627.33 341.574 630.494L342.893 630.789C342.24 630.952 341.694 631.108 341.017 631.116C334.447 630.618 327.606 631.001 321.005 631.022Q320.914 619.55 320.984 608.078Z"/>
	<path fill="#0A2341" transform="scale(0.219727 0.219727)" d="M422.215 816.864L438.054 817.108Q438.144 824.854 438.57 832.589L454.005 832.483Q454.052 855.862 454.338 879.238C454.498 892.319 454.946 905.52 453.987 918.578C441.879 918.542 429.357 919.172 417.297 918.44C418.887 918.271 420.821 918.29 422.162 917.379C422.906 913.079 422.533 908.354 422.526 903.984C422.51 894.044 422.178 883.993 422.733 874.068Q423.251 863.811 422.611 853.56C421.299 841.477 422.056 829.006 422.215 816.864Z"/>
	<path fill="#0A2341" transform="scale(0.219727 0.219727)" d="M601.091 760.585C608.203 760.696 615.639 760.087 622.69 760.832C615.688 761.699 608.08 761.139 601.009 761.087L600.494 780.141C604.392 779.779 607.987 779.323 611.861 780.09C611.905 784.616 611.346 790.076 612.2 794.475C608.445 794.408 604.524 794.124 600.81 794.735C599.811 799.588 600.551 805.566 600.632 810.554C596.256 810.572 591.802 810.381 587.438 810.554L586.131 810.725C584.326 813.824 585.394 822.152 585.483 825.906C580.741 826.471 575.796 826.022 571.019 826.065C571.064 830.567 571.368 835.235 570.915 839.712C570.567 837.207 570.709 834.523 570.668 831.99L552.246 832.01C551.917 823.872 552.046 815.687 552.016 807.541C551.608 798.464 550.894 789.015 552.327 780.015C553.746 774.067 552.905 767.149 552.877 761.054C560.08 760.83 568.677 762.186 575.628 760.411L576.558 760.607Q588.824 760.451 601.091 760.585Z"/>
	<path fill="#09556B" transform="scale(0.219727 0.219727)" d="M575.628 760.411L576.558 760.607C575.057 762.111 575.407 763.926 575.412 765.995L575.509 780.003L552.327 780.015C553.746 774.067 552.905 767.149 552.877 761.054C560.08 760.83 568.677 762.186 575.628 760.411Z"/>
	<path transform="scale(0.219727 0.219727)" d="M600.494 780.141C604.392 779.779 607.987 779.323 611.861 780.09C611.905 784.616 611.346 790.076 612.2 794.475C608.445 794.408 604.524 794.124 600.81 794.735C599.811 799.588 600.551 805.566 600.632 810.554C596.256 810.572 591.802 810.381 587.438 810.554L586.131 810.725C584.326 813.824 585.394 822.152 585.483 825.906C580.885 825.065 575.698 825.504 571.022 825.536L571 808.483Q578.204 808.476 585.407 808.629C585.622 803.925 585.564 799.195 585.598 794.487C590.508 794.355 595.38 794.247 600.291 794.45C600.293 789.683 600.423 784.909 600.494 780.141Z"/>
	<path fill="#0A354F" transform="scale(0.219727 0.219727)" d="M422.451 547.134C430.466 549.834 454.719 548.009 464.546 548.004C493.71 547.99 522.785 548.211 551.943 547.454C551.973 556.81 552.695 566.698 551.939 575.991L476.915 575.967C463.651 575.96 450.258 575.49 437.013 576.055L437.001 562.002L422.327 561.997C422.215 557.045 422.363 552.086 422.451 547.134Z"/>
	<path fill="#0A354F" transform="scale(0.219727 0.219727)" d="M422 781.109C430.323 779.223 458.339 780.557 468.977 780.569L552.327 780.015C550.894 789.015 551.608 798.464 552.016 807.541L454.02 807.493C448.942 807.493 442.675 806.863 437.731 807.684L437.022 807.407C432.196 807.584 427.333 807.447 422.504 807.432Q422.53 801.934 422.645 796.437C415.825 796.61 408.64 797.56 402.411 794.272L402.405 781.927C407.746 781.908 413.461 782.471 418.728 781.584C419.827 781.51 420.914 781.289 422 781.109Z"/>
	<path fill="#050513" transform="scale(0.219727 0.219727)" d="M423.024 786.235C427.611 788.966 432.169 791.897 436.959 794.256L437.022 807.407C432.196 807.584 427.333 807.447 422.504 807.432Q422.53 801.934 422.645 796.437Q422.912 791.339 423.024 786.235Z"/>
	<path fill="#0A354F" transform="scale(0.219727 0.219727)" d="M585.483 825.906C585.394 822.152 584.326 813.824 586.131 810.725L587.438 810.554C588.986 810.757 590.528 810.713 591.81 811.648C592.172 819.25 591.719 826.89 592.479 834.465C597.503 834.512 602.546 834.652 607.569 834.516L626.423 834.459C628.144 839.689 628.114 864.991 627.442 871.379L627.397 872.121C627.093 872.78 627.073 873.294 626.35 873.584C622.387 875.168 612.629 874.018 608.054 873.997C607.576 879.154 607.886 884.504 607.908 889.693L608.043 918.083Q589.516 918.108 570.992 918.436Q570.713 879.073 570.915 839.712C571.368 835.235 571.064 830.567 571.019 826.065C575.796 826.022 580.741 826.471 585.483 825.906Z"/>
	<path fill="#0AA295" transform="scale(0.219727 0.219727)" d="M597.987 853.989L607.259 854.025Q607.917 858.945 607.976 863.908Q608.035 868.872 607.495 873.806C604.407 874.16 601.142 874.012 598.026 874.039L597.987 853.989Z"/>
	<path fill="#0A2341" transform="scale(0.219727 0.219727)" d="M607.569 834.516L626.423 834.459C628.144 839.689 628.114 864.991 627.442 871.379L627.397 872.121C627.093 872.78 627.073 873.294 626.35 873.584C622.387 875.168 612.629 874.018 608.054 873.997L607.495 873.806Q608.035 868.872 607.976 863.908Q607.917 858.945 607.259 854.025L607.739 853.919C608.365 847.928 608.664 840.394 607.569 834.516Z"/>
	<path fill="#078B86" transform="scale(0.219727 0.219727)" d="M607.739 853.919Q617.39 854.048 627.041 853.995C627.024 859.678 626.596 865.756 627.442 871.379L627.397 872.121C627.093 872.78 627.073 873.294 626.35 873.584C622.387 875.168 612.629 874.018 608.054 873.997L607.495 873.806Q608.035 868.872 607.976 863.908Q607.917 858.945 607.259 854.025L607.739 853.919Z"/>
	<path fill="#2F608A" transform="scale(0.219727 0.219727)" d="M585.558 507.152C591.16 507.519 596.725 507.119 602.325 507.225L602.386 513.575C602.195 519.25 601.632 525.238 602.497 530.868C599.035 533.51 589.455 532.581 585.408 532.216C585.322 532.208 585.237 532.187 585.152 532.173C566.72 531.688 548.07 532.416 529.617 532.418L422.012 532.028L422.016 513.902L421.898 511.25C421.887 509.966 421.88 508.843 422.222 507.589C424.204 506.295 571.14 506.896 585.558 507.152Z"/>
	<path fill="#09556B" transform="scale(0.219727 0.219727)" d="M569.903 513.912C580.313 513.11 591.98 512.778 602.386 513.575C602.195 519.25 601.632 525.238 602.497 530.868C599.035 533.51 589.455 532.581 585.408 532.216C585.322 532.208 585.237 532.187 585.152 532.173C587.01 527.486 585.757 518.937 585.267 513.986C580.145 514.063 575.02 514.209 569.903 513.912Z"/>
	<path fill="#050513" transform="scale(0.219727 0.219727)" d="M585.558 507.152C591.16 507.519 596.725 507.119 602.325 507.225L602.386 513.575C591.98 512.778 580.313 513.11 569.903 513.912C520.61 513.831 471.305 514.433 422.016 513.902L421.898 511.25C421.887 509.966 421.88 508.843 422.222 507.589C424.204 506.295 571.14 506.896 585.558 507.152Z"/>
	<path fill="#09556B" transform="scale(0.219727 0.219727)" d="M552.147 638.226C553.399 638.336 554.665 638.494 555.92 638.548C567.283 638.402 578.624 639.172 589.957 638.993L601.375 638.997C600.8 645.448 601.412 651.943 601.023 658.41C608.245 658.629 615.414 657.928 622.62 658.002L622.581 669.745C623.295 679.51 623.016 689.516 622.982 699.312L622.999 738.093C615.841 737.839 608.625 738.006 601.46 737.992L601.047 738.049C601.055 745.504 601.48 753.152 601.091 760.585Q588.824 760.451 576.558 760.607L575.628 760.411C575.139 753.084 576.538 745.253 575.126 738.053C567.838 737.573 560.393 737.849 553.091 737.904C552.386 730.936 552.921 723.361 552.918 716.331L553.96 716.539L553.147 715.915C552.306 713.023 552.522 709.613 552.443 706.599L552.419 706.128C551.087 699.062 552.052 685.608 552.204 677.966Q552.773 658.095 552.147 638.226Z"/>
	<path fill="#0A354F" transform="scale(0.219727 0.219727)" d="M555.92 638.548C567.283 638.402 578.624 639.172 589.957 638.993L590.023 658.005L575.012 657.988L575.023 638.969C568.818 638.7 561.984 639.901 555.92 638.548Z"/>
	<path fill="#0A354F" transform="scale(0.219727 0.219727)" d="M622.581 669.745C623.295 679.51 623.016 689.516 622.982 699.312L622.999 738.093C615.841 737.839 608.625 738.006 601.46 737.992C601.325 730.863 601.199 723.737 601.858 716.628C608.837 717.349 615.543 717.37 622.523 716.908C622.075 702.019 621.722 684.47 622.581 669.745Z"/>
	<path fill="#0AA295" transform="scale(0.219727 0.219727)" d="M575.417 737.961Q588.232 737.935 601.047 738.049C601.055 745.504 601.48 753.152 601.091 760.585Q588.824 760.451 576.558 760.607L575.628 760.411C575.139 753.084 576.538 745.253 575.126 738.053L575.417 737.961Z"/>
	<path fill="#050513" transform="scale(0.219727 0.219727)" d="M552.573 680.496L601.459 680.514C601.482 692.433 601.13 704.464 601.907 716.355Q590.641 716.628 579.374 716.363C577.96 716.475 576.437 716.367 575.013 716.362Q568.574 716.4 562.135 716.355L553.96 716.539L553.147 715.915C552.306 713.023 552.522 709.613 552.443 706.599L552.419 706.128C553.29 697.862 552.59 688.836 552.573 680.496Z"/>
	<path fill="#0B0E2C" transform="scale(0.219727 0.219727)" d="M569.893 715.811C569.871 713.636 569.399 710.438 570.617 708.589C571.807 707.791 571.882 707.691 573.299 707.737C574.299 708.493 575.087 709.008 575.298 710.336C575.58 712.108 575.088 714.153 576.129 715.696C577.161 715.823 578.532 715.761 579.374 716.363C577.96 716.475 576.437 716.367 575.013 716.362Q568.574 716.4 562.135 716.355C563.849 715.224 567.817 715.789 569.893 715.811Z"/>
	<path fill="#FBE866" transform="scale(0.219727 0.219727)" d="M569.657 688.994L587.02 688.985L586.983 707.444L569.782 707.41C569.454 701.291 569.634 695.12 569.657 688.994Z"/>
	<defs>
		<linearGradient id="gradient_1" gradientUnits="userSpaceOnUse" x1="453.07019" y1="723.18738" x2="386.67407" y2="554.40582">
			<stop offset="0" stop-color="#196A94"/>
			<stop offset="1" stop-color="#4C9DB4"/>
		</linearGradient>
	</defs>
	<path fill="url(#gradient_1)" transform="scale(0.219727 0.219727)" d="M404.587 546.077C409.38 545.93 418.464 544.64 422.451 547.134C422.363 552.086 422.215 557.045 422.327 561.997L437.001 562.002L437.013 576.055L437.069 587.004L453.909 587.012L454.023 600.624C458.924 600.649 464.122 600.27 468.977 600.847C468.793 613.177 469.324 625.62 468.995 637.913L469.083 638.312C469.102 642.841 469.324 647.464 469.082 651.982C469.633 659.836 469.377 667.846 469.401 675.721C469.432 685.531 469.629 695.373 469.382 705.18L469.061 705.167L468.647 706.072C463.666 706.165 458.732 705.856 453.775 706.512L452.939 706.799C447.444 707.236 441.813 707.018 436.299 707.036L436.01 707.122C431.09 706.747 425.967 707.01 421.02 706.886L421.06 715.865C421.724 722.812 421.53 729.904 421.567 736.882C424.444 736.889 427.395 736.749 430.254 737.087C421.83 737.69 413.336 736.993 404.898 737.198C404.872 734.604 404.727 732.023 404.581 729.435C405.207 722.122 404.856 714.453 404.842 707.108L404.754 668.635L404.587 546.077Z"/>
	<path fill="#0B0E2C" transform="scale(0.219727 0.219727)" d="M454.023 600.624C458.924 600.649 464.122 600.27 468.977 600.847C468.793 613.177 469.324 625.62 468.995 637.913Q461.166 637.914 453.339 638.06L421.496 637.997L421.487 600.56L454.023 600.624Z"/>
	<path fill="#FBE866" transform="scale(0.219727 0.219727)" d="M436.35 609.614L453.989 609.519L453.99 626.54L436.163 626.555L436.35 609.614Z"/>
	<path fill="#09556B" transform="scale(0.219727 0.219727)" d="M468.995 637.913L469.083 638.312C469.102 642.841 469.324 647.464 469.082 651.982C469.633 659.836 469.377 667.846 469.401 675.721C469.432 685.531 469.629 695.373 469.382 705.18L469.061 705.167L468.647 706.072C463.666 706.165 458.732 705.856 453.775 706.512L452.939 706.799C447.444 707.236 441.813 707.018 436.299 707.036L436.01 707.122C431.09 706.747 425.967 707.01 421.02 706.886L421.004 681.403C421.881 673.613 421.464 665.535 421.402 657.699Q437.465 657.849 453.529 657.814C453.51 651.761 453.377 645.685 453.658 639.638L453.339 638.06Q461.166 637.914 468.995 637.913Z"/>
	<path fill="#0A354F" transform="scale(0.219727 0.219727)" d="M468.995 637.913L469.083 638.312C469.102 642.841 469.324 647.464 469.082 651.982C468.872 654.085 468.898 656.222 468.85 658.335C463.908 658.135 458.946 658.225 454.001 658.231C454.049 652.355 454.736 645.372 453.658 639.638L453.339 638.06Q461.166 637.914 468.995 637.913Z"/>
	<path fill="#050513" transform="scale(0.219727 0.219727)" d="M421.004 681.403C436.699 679.453 453.188 680.653 468.983 681.013C468.996 689.033 468.723 697.161 469.061 705.167L468.647 706.072C463.666 706.165 458.732 705.856 453.775 706.512L452.939 706.799C447.444 707.236 441.813 707.018 436.299 707.036L436.01 707.122C431.09 706.747 425.967 707.01 421.02 706.886L421.004 681.403Z"/>
	<path fill="#FBE866" transform="scale(0.219727 0.219727)" d="M436.008 688.871L454.004 688.901Q454.142 697.71 453.775 706.512L452.939 706.799C447.444 707.236 441.813 707.018 436.299 707.036C435.057 701.037 435.674 694.936 436.008 688.871Z"/>
	<path fill="#09556B" transform="scale(0.219727 0.219727)" d="M601.496 546.999L622.06 547.003C622.283 567.352 622.078 587.692 622.541 608.032C617.365 608.451 606.942 609.66 602.305 608.064L601.792 606.607C600.419 617.286 602.461 628.322 601.375 638.997L589.957 638.993C578.624 639.172 567.283 638.402 555.92 638.548C554.665 638.494 553.399 638.336 552.147 638.226C545.955 637.404 471.606 637.604 469.083 638.312L468.995 637.913C469.324 625.62 468.793 613.177 468.977 600.847C464.122 600.27 458.924 600.649 454.023 600.624L453.909 587.012L437.069 587.004L437.013 576.055C450.258 575.49 463.651 575.96 476.915 575.967L551.939 575.991C557.438 575.998 562.959 575.905 568.456 576.02C574.01 576.406 579.774 576.823 585.313 576.089C585.374 578.766 585.182 581.693 585.884 584.285Q585.901 576.458 586.077 568.634L586.269 568.008L601.913 567.998C601.37 561.014 601.489 553.999 601.496 546.999Z"/>
	<path fill="#050513" transform="scale(0.219727 0.219727)" d="M437.013 576.055C450.258 575.49 463.651 575.96 476.915 575.967L551.939 575.991C557.438 575.998 562.959 575.905 568.456 576.02C574.01 576.406 579.774 576.823 585.313 576.089C585.374 578.766 585.182 581.693 585.884 584.285L585.959 587.03L453.909 587.012L437.069 587.004L437.013 576.055Z"/>
	<path fill="#0B0E2C" transform="scale(0.219727 0.219727)" d="M552.026 600.765C563.108 601.504 574.417 601.043 585.529 600.974L601.949 601.01L601.792 606.607C600.419 617.286 602.461 628.322 601.375 638.997L589.957 638.993C578.624 639.172 567.283 638.402 555.92 638.548C554.665 638.494 553.399 638.336 552.147 638.226C551.855 625.75 552.018 613.244 552.026 600.765Z"/>
	<path fill="#FBE866" transform="scale(0.219727 0.219727)" d="M570.756 609.219C576.191 609.081 581.548 609.226 586.976 609.478C587.198 614.243 587.959 619.822 587.006 624.506C586.745 625.788 586.479 626.148 585.385 626.812Q577.007 627.041 568.63 626.805C568.493 622.454 567.271 614.31 568.968 610.293C569.318 609.462 569.97 609.502 570.756 609.219Z"/>
	<path fill="#2F608A" transform="scale(0.219727 0.219727)" d="M468.977 600.847Q497.147 601.417 525.318 600.885C533.886 600.776 543.599 599.315 552.026 600.765C552.018 613.244 551.855 625.75 552.147 638.226C545.955 637.404 471.606 637.604 469.083 638.312L468.995 637.913C469.324 625.62 468.793 613.177 468.977 600.847Z"/>
	<path fill="#7FDCDD" transform="scale(0.219727 0.219727)" d="M469.083 638.312C471.606 637.604 545.955 637.404 552.147 638.226Q552.773 658.095 552.204 677.966C552.052 685.608 551.087 699.062 552.419 706.128L552.443 706.599C552.522 709.613 552.306 713.023 553.147 715.915L553.96 716.539L552.918 716.331C552.921 723.361 552.386 730.936 553.091 737.904C560.393 737.849 567.838 737.573 575.126 738.053C576.538 745.253 575.139 753.084 575.628 760.411C568.677 762.186 560.08 760.83 552.877 761.054C552.905 767.149 553.746 774.067 552.327 780.015L468.977 780.569C458.339 780.557 430.323 779.223 422 781.109C422.012 774.42 422.172 767.654 421.423 761.001L410.222 761.103C408.605 761.165 406.712 761.469 405.252 760.67C403.92 753.467 404.891 744.621 404.898 737.198C413.336 736.993 421.83 737.69 430.254 737.087C427.395 736.749 424.444 736.889 421.567 736.882C421.53 729.904 421.724 722.812 421.06 715.865L421.02 706.886C425.967 707.01 431.09 706.747 436.01 707.122L436.299 707.036C441.813 707.018 447.444 707.236 452.939 706.799L453.775 706.512C458.732 705.856 463.666 706.165 468.647 706.072L469.061 705.167L469.382 705.18C469.629 695.373 469.432 685.531 469.401 675.721C469.377 667.846 469.633 659.836 469.082 651.982C469.324 647.464 469.102 642.841 469.083 638.312Z"/>
	<path fill="#2AC0B0" transform="scale(0.219727 0.219727)" d="M553.091 737.904C560.393 737.849 567.838 737.573 575.126 738.053C576.538 745.253 575.139 753.084 575.628 760.411C568.677 762.186 560.08 760.83 552.877 761.054L552.512 760.959C552.828 753.439 553.491 745.522 552.762 738.019L553.091 737.904Z"/>
	<path fill="#2F608A" transform="scale(0.219727 0.219727)" d="M552.512 760.959L552.877 761.054C552.905 767.149 553.746 774.067 552.327 780.015L468.977 780.569C458.339 780.557 430.323 779.223 422 781.109C422.012 774.42 422.172 767.654 421.423 761.001C465.078 761.019 508.872 761.796 552.512 760.959Z"/>
	<path fill="#0A354F" transform="scale(0.219727 0.219727)" d="M469.061 705.167L469.382 705.18L469.68 706.578C472.016 707.383 549.883 707.508 552.443 706.599C552.522 709.613 552.306 713.023 553.147 715.915L553.96 716.539L552.918 716.331C552.921 723.361 552.386 730.936 553.091 737.904L552.762 738.019Q527.75 737.659 502.738 738.004C491.756 738.053 480.385 738.418 469.473 737.213C464.411 736.773 459.216 736.992 454.134 736.984Q442.195 737.157 430.254 737.087C427.395 736.749 424.444 736.889 421.567 736.882C421.53 729.904 421.724 722.812 421.06 715.865L421.02 706.886C425.967 707.01 431.09 706.747 436.01 707.122L436.299 707.036C441.813 707.018 447.444 707.236 452.939 706.799L453.775 706.512C458.732 705.856 463.666 706.165 468.647 706.072L469.061 705.167Z"/>
	<path transform="scale(0.219727 0.219727)" d="M436.299 707.036C441.813 707.018 447.444 707.236 452.939 706.799C454.05 707.727 453.883 707.95 454.003 709.402C454.211 711.922 454.08 714.527 454.062 717.055C448.679 717.013 443.255 716.829 437.88 717.162L436.031 716.759L436.01 707.122L436.299 707.036Z"/>
	<path fill="#09556B" transform="scale(0.219727 0.219727)" d="M421.02 706.886C425.967 707.01 431.09 706.747 436.01 707.122L436.031 716.759L437.88 717.162C443.192 717.908 448.669 717.401 454.022 717.576C454.014 724.015 453.779 730.558 454.134 736.984Q442.195 737.157 430.254 737.087C427.395 736.749 424.444 736.889 421.567 736.882C421.53 729.904 421.724 722.812 421.06 715.865L421.02 706.886Z"/>
	<path fill="#0A354F" transform="scale(0.219727 0.219727)" d="M421.02 706.886C425.967 707.01 431.09 706.747 436.01 707.122L436.031 716.759C431.578 715.031 425.739 715.626 421.06 715.865L421.02 706.886Z"/>
	<path fill="#2F608A" transform="scale(0.219727 0.219727)" d="M469.502 716.401C486.055 715.085 504.658 716.008 521.475 715.989C529.961 715.98 545.055 715.02 552.918 716.331C552.921 723.361 552.386 730.936 553.091 737.904L552.762 738.019Q527.75 737.659 502.738 738.004C491.756 738.053 480.385 738.418 469.473 737.213L469.502 716.401Z"/>
	<path fill="#7FDCDD" transform="scale(0.219727 0.219727)" d="M469.083 638.312C471.606 637.604 545.955 637.404 552.147 638.226Q552.773 658.095 552.204 677.966C552.052 685.608 551.087 699.062 552.419 706.128L552.443 706.599C549.883 707.508 472.016 707.383 469.68 706.578L469.382 705.18C469.629 695.373 469.432 685.531 469.401 675.721C469.377 667.846 469.633 659.836 469.082 651.982C469.324 647.464 469.102 642.841 469.083 638.312Z"/>
</svg>
