<?xml version="1.0" encoding="utf-8" ?>
<svg xmlns="http://www.w3.org/2000/svg" xmlns:xlink="http://www.w3.org/1999/xlink" width="433" height="433">
	<path fill="#4A2242" transform="scale(0.423136 0.423136)" d="M376.015 464.308C378.558 464.365 381.111 464.382 383.653 464.485L383.611 472.434C381.291 472.547 378.104 472.996 376.041 471.869L376.015 464.308Z"/>
	<path fill="#4A2242" transform="scale(0.423136 0.423136)" d="M358.962 447.964L367.831 448.037C367.776 453.44 367.69 458.831 367.952 464.23C370.576 464.235 373.416 464.042 376.015 464.308C372.095 464.7 368.068 464.472 364.13 464.416Q361.545 464.195 358.953 464.068C358.081 459.045 358.84 453.088 358.962 447.964Z"/>
	<path fill="#441C2C" transform="scale(0.423136 0.423136)" d="M408.06 448.282C413.269 448.011 418.507 448.101 423.722 448.09C424.042 450.899 423.943 453.697 423.899 456.518L415.476 456.53C415.491 458.91 415.266 461.553 415.691 463.885L408.079 463.908L408.06 448.282Z"/>
	<path fill="#4A2242" transform="scale(0.423136 0.423136)" d="M192.945 536.999C197.845 536.952 202.754 536.832 207.649 537.113C207.95 541.981 207.857 546.892 207.884 551.769Q200.239 551.634 192.593 551.64C192.402 546.81 192.801 541.838 192.945 536.999Z"/>
	<path fill="#4A2242" transform="scale(0.423136 0.423136)" d="M335.546 423.115L344.479 423.196L344.447 440.406C349.198 440.005 354.144 440.291 358.909 440.493L358.962 447.964L351.969 448.012C349.255 448.023 346.629 447.962 343.925 447.691C344.225 445.231 344.264 443.035 344.104 440.568C341.496 439.333 338.837 439.553 336.041 439.609C336.075 434.733 336.907 427.695 335.546 423.115Z"/>
	<path fill="#4A2242" transform="scale(0.423136 0.423136)" d="M144.043 311.379Q158.53 311.464 173.017 311.363L172.923 314.888C172.771 316.914 172.636 318.929 172.58 320.961C163.684 321.06 154.64 320.721 145.772 321.05L143.862 320.938L144.043 311.379Z"/>
	<path fill="#4A2242" transform="scale(0.423136 0.423136)" d="M855.01 310.507Q867.465 310.603 879.921 310.572L879.978 322.178C871.633 321.746 863.248 321.928 854.893 321.972C855.086 318.165 854.999 314.32 855.01 310.507Z"/>
	<path fill="#4A2242" transform="scale(0.423136 0.423136)" d="M311.482 375.196C314.468 375.2 317.458 375.173 320.443 375.218C320.353 386.176 319.803 397.366 320.475 408.3C317.999 407.894 315.337 407.935 312.826 407.801L312.103 407.193C311.135 402.625 311.869 397.087 311.585 392.363L311.482 375.196Z"/>
	<path fill="#4A2242" transform="scale(0.423136 0.423136)" d="M87.4509 368.041C90.6226 367.912 93.7964 368.023 96.9686 368.091L96.9419 370.406C96.405 374.231 96.5011 378.131 96.477 381.987L87.5097 381.983L87.5054 391.778Q80.4882 392.221 73.4715 391.77C73.6277 387.451 73.5753 383.11 73.6077 378.788L87.5535 379.07L87.4509 368.041Z"/>
	<path fill="#B76BDC" transform="scale(0.423136 0.423136)" d="M854.893 321.972C863.248 321.928 871.633 321.746 879.978 322.178C880.017 326.425 879.772 330.884 880.207 335.1C877.455 335.41 874.815 335.527 872.048 335.501C869.528 335.499 867.014 335.599 864.496 335.69L863.464 335.486L855.37 335.925C854.989 334.384 855.061 332.703 855.013 331.114L854.969 329.468L854.893 321.972Z"/>
	<path fill="#9658B2" transform="scale(0.423136 0.423136)" d="M854.969 329.468C857.587 329.236 860.767 328.545 863.172 329.757C864.697 331.579 864.571 333.429 864.496 335.69L863.464 335.486L855.37 335.925C854.989 334.384 855.061 332.703 855.013 331.114L854.969 329.468Z"/>
	<path fill="#9B3EAC" transform="scale(0.423136 0.423136)" d="M855.013 331.114C857.933 332.182 861.104 333.407 863.464 335.486L855.37 335.925C854.989 334.384 855.061 332.703 855.013 331.114Z"/>
	<path fill="#4A2242" transform="scale(0.423136 0.423136)" d="M63.632 391.811L73.0591 391.91Q72.9087 403.967 73.0141 416.025C72.8036 418.535 72.639 421.059 72.3241 423.558L64.4602 423.542L64.4163 427.319C63.6504 433.928 63.8783 440.791 64.0277 447.436L57.0164 447.476L52.2704 447.506C51.7976 439.665 52.3229 431.543 52.1885 423.651Q58.131 423.62 64.0706 423.429C63.5733 412.891 63.6241 402.357 63.632 391.811Z"/>
	<path fill="#4A2242" transform="scale(0.423136 0.423136)" d="M713.848 328.892Q721.176 328.827 728.503 328.923Q728.157 340.674 728.076 352.431C727.6 358.612 727.924 364.833 728.375 371.003C723.646 371.117 718.241 371.647 713.679 370.158C714.963 356.714 713.704 342.439 713.848 328.892Z"/>
	<path fill="#4A2242" transform="scale(0.423136 0.423136)" d="M975.424 448.044L986.855 448.066C986.869 466.32 986.644 484.608 986.948 502.859C982.665 502.778 976.32 501.923 972.293 503.13C973.212 502.851 974.061 502.495 974.939 502.108C975.776 489.838 975.578 477.291 975.518 464.995L975.424 448.044Z"/>
	<path fill="#4A2242" transform="scale(0.423136 0.423136)" d="M296.26 328.083C301.207 328.06 306.172 327.944 311.116 328.083C310.793 343.716 310.588 359.446 311.046 375.076C309.18 375.25 307.29 375.497 305.416 375.518L296.496 375.59L296.519 367.593C296.455 355.647 297.604 339.508 296.26 328.083Z"/>
	<path fill="#4A2242" transform="scale(0.423136 0.423136)" d="M38.1426 448.047Q43.9965 447.914 49.8517 447.97Q49.7416 456.004 49.9931 464.034L49.968 480.077C51.5835 480.035 53.8287 480.172 55.3071 479.411C56.5099 478.791 56.7948 477.605 56.9694 476.359C57.1533 475.047 57.1788 474.454 58.148 473.432C60.1717 472.363 62.4299 472.558 64.6673 472.509L64.527 463.735C67.0304 463.514 69.5752 463.548 72.0879 463.5C74.8691 463.457 77.699 463.513 80.4728 463.345L80.5016 472.975C75.4675 472.82 70.4571 472.875 65.4231 472.964L65.4415 487.973L49.8904 487.983L49.9419 502.775C46.2353 502.638 42.4737 502.847 38.7634 502.927C37.836 484.736 38.3987 466.274 38.1426 448.047Z"/>
	<path fill="#4A2242" transform="scale(0.423136 0.423136)" d="M208.071 286.406Q236.06 286.301 264.041 286.936C264.019 290.332 263.956 293.734 263.998 297.129C258.921 299.4 215.404 298.037 207.587 297.735C207.583 300.681 208.329 309.485 207.194 311.701C196.063 310.741 184.244 311.458 173.017 311.363L173.054 296.211Q190.527 296.657 208.005 296.522L208.071 286.406Z"/>
	<path fill="#4A2242" transform="scale(0.423136 0.423136)" d="M712.749 370.057L713.679 370.158C718.241 371.647 723.646 371.117 728.375 371.003C728.481 380.547 729.143 390.538 728.084 400.018L727.972 406.866C722.719 407.887 717.756 406.912 712.492 407.031C712.549 409.474 713.204 413.416 711.464 415.307C710.789 416.042 710.177 416.157 709.195 416.14C708.609 416.13 708.023 416.09 707.438 416.054C704.626 415.883 701.816 415.652 699.006 415.446C699.626 400.359 699.166 385.107 699.073 370.009L712.749 370.057Z"/>
	<path fill="#774797" transform="scale(0.423136 0.423136)" d="M712.749 370.057L713.679 370.158C718.241 371.647 723.646 371.117 728.375 371.003C728.481 380.547 729.143 390.538 728.084 400.018L727.972 406.866C722.719 407.887 717.756 406.912 712.492 407.031C712.489 394.786 711.986 382.269 712.749 370.057Z"/>
	<path fill="#583975" transform="scale(0.423136 0.423136)" d="M759.531 319.908C760.702 322.3 760.379 325.002 760.072 327.569C759.303 340.88 759.486 354.222 759.539 367.55C756.686 367.684 753.813 367.884 750.958 367.922L744.022 367.974C744.091 370.794 744.197 373.606 743.976 376.422L736.045 377.138L736.398 384.075C736.507 389.531 736.646 394.982 736.171 400.428C733.415 400.086 730.869 399.894 728.084 400.018C729.143 390.538 728.481 380.547 728.375 371.003C727.924 364.833 727.6 358.612 728.076 352.431Q728.157 340.674 728.503 328.923C732.055 328.946 735.648 329.081 739.194 328.914L739.278 328.574C743.77 328.809 748.276 328.774 752.774 328.798L752.565 320.005L759.531 319.908Z"/>
	<path fill="#774797" transform="scale(0.423136 0.423136)" d="M728.407 360.054C730.915 360.048 733.567 359.854 736.048 360.184L736.008 367.969C733.679 368.057 731.238 368.001 728.95 368.455C727.818 366.484 728.377 362.317 728.407 360.054Z"/>
	<path fill="#B76BDC" transform="scale(0.423136 0.423136)" d="M739.194 328.914C741.107 334.03 740.619 353.293 739.699 359.134C738.646 360.183 737.491 360.049 736.048 360.184C733.567 359.854 730.915 360.048 728.407 360.054C728.389 357.5 728.25 354.976 728.076 352.431Q728.157 340.674 728.503 328.923C732.055 328.946 735.648 329.081 739.194 328.914Z"/>
	<path fill="#4A2242" transform="scale(0.423136 0.423136)" d="M264.087 272.58L311.972 272.868C311.947 277.178 311.134 283.321 312.346 287.419C316.838 287.418 321.342 287.349 325.833 287.448C325.842 290.453 325.78 293.476 325.872 296.478L312.054 296.472C311.21 301.22 311.548 306.313 311.527 311.134Q303.703 311.044 295.879 311.106C295.854 316.641 295.411 322.613 296.26 328.083C293.21 328.53 290.462 328.369 287.421 328.061C288.187 317.499 287.865 307.037 287.599 296.466C280.236 295.457 271.265 295.474 263.998 297.129C263.956 293.734 264.019 290.332 264.041 286.936Q264.245 279.759 264.087 272.58Z"/>
	<path fill="#B76BDC" transform="scale(0.423136 0.423136)" d="M264.041 286.936Q278.928 287.181 293.816 287.076C299.789 287.073 306.131 286.756 312.057 287.477L312.053 296.212Q299.832 296.898 287.599 296.466C280.236 295.457 271.265 295.474 263.998 297.129C263.956 293.734 264.019 290.332 264.041 286.936Z"/>
	<path fill="#9658B2" transform="scale(0.423136 0.423136)" d="M263.998 297.129C271.265 295.474 280.236 295.457 287.599 296.466C287.865 307.037 288.187 317.499 287.421 328.061C290.462 328.369 293.21 328.53 296.26 328.083C297.604 339.508 296.455 355.647 296.519 367.593C293.705 367.834 290.833 367.825 288.007 367.91L288.006 335.993L272.822 336.007L272.982 311.78C251.307 312.131 229.608 311.593 207.939 312.102L207.194 311.701C208.329 309.485 207.583 300.681 207.587 297.735C215.404 298.037 258.921 299.4 263.998 297.129Z"/>
	<path fill="#4A2242" transform="scale(0.423136 0.423136)" d="M879.978 322.178Q884.991 322.45 890.011 322.488C890.009 326.707 890.28 331.13 889.681 335.308C893.94 336.29 898.591 335.938 902.942 335.884L902.998 344.108L912.44 344.204L912.5 354.454C916.797 354.409 921.114 354.27 925.409 354.347C925.276 358.74 925.283 363.024 925.622 367.407C928.774 367.865 931.849 367.976 935.03 368.029C934.997 372.518 934.864 377.032 935.104 381.515C940.023 381.341 944.968 381.056 949.89 381.133Q949.905 386.101 949.834 391.069C953.254 392.12 958.003 391.421 961.625 391.502C961.617 399.306 962.347 408.089 961.279 415.768C965.483 416.162 969.739 416.005 973.957 415.968C973.832 426.529 973.491 437.2 974.21 447.742C972.019 447.525 969.778 447.562 967.577 447.509C965.06 447.739 962.572 447.899 960.045 447.983C959.871 437.285 959.542 426.671 960.611 416.004L955.051 416.03C953.538 416.06 952.049 416.017 950.538 415.943C950.457 412.316 951.284 394.792 950.273 392.805C950.071 392.41 949.693 392.134 949.402 391.798C945.087 392.351 940.128 391.696 935.758 391.564L935.395 382.052C932.711 382.391 930.01 382.438 927.309 382.534C927.552 377.697 927.385 372.804 927.36 367.96L912.089 367.996C909.49 368.071 905.354 368.63 903.172 367.272C903.085 363.668 903.307 360.036 903.433 356.431L902.177 355.439L902.485 354.044C896.109 353.758 885.806 353.274 880.516 349.516C879.648 347.948 879.972 345.562 879.98 343.8C880.015 340.991 880.091 338.226 880.337 335.425L880.207 335.1C879.772 330.884 880.017 326.425 879.978 322.178Z"/>
	<path fill="#B76BDC" transform="scale(0.423136 0.423136)" d="M903.433 356.431L912.097 356.51L912.089 367.996C909.49 368.071 905.354 368.63 903.172 367.272C903.085 363.668 903.307 360.036 903.433 356.431Z"/>
	<path fill="#9658B2" transform="scale(0.423136 0.423136)" d="M880.337 335.425L889.332 335.483C889.283 338.494 889.042 341.493 888.977 344.5L903.008 344.504C903.031 347.399 903.536 351.362 902.485 354.044C896.109 353.758 885.806 353.274 880.516 349.516C879.648 347.948 879.972 345.562 879.98 343.8C880.015 340.991 880.091 338.226 880.337 335.425Z"/>
	<defs>
		<linearGradient id="gradient_0" gradientUnits="userSpaceOnUse" x1="631.92883" y1="486.41629" x2="588.33942" y2="400.88483">
			<stop offset="0" stop-color="#4C1E40"/>
			<stop offset="1" stop-color="#483460"/>
		</linearGradient>
	</defs>
	<path fill="url(#gradient_0)" transform="scale(0.423136 0.423136)" d="M602.605 397.36C603.359 399.219 603.498 400.274 605.473 401.136L605.77 448.045L615.939 448.057L615.929 463.617C612.929 463.71 609.948 463.794 606.962 464.121L607.625 472.021C618.248 472.378 630.595 471.31 640.85 472.321C640.795 467.21 640.696 462.094 640.696 456.983C643.262 456.875 645.852 456.688 648.419 456.734L648.35 447.973L656.779 447.899C656.217 453.23 656.446 458.722 656.429 464.081C653.592 463.946 650.816 463.707 648.022 464.352L647.299 465.151C646.571 470.12 646.967 475.482 647.026 480.512L607.001 480.461L607.079 487.489C602.078 487.487 597.091 487.405 592.115 487.989L592.045 487.164C589.334 486.993 586.597 486.955 583.881 486.855C584.298 484.574 584.424 482.282 584.587 479.973L584.201 480.009C584.938 474.637 584.59 468.909 584.625 463.484L592.802 463.625C592.593 445.217 592.807 426.908 593.057 408.502C593.239 404.815 593.156 401.172 593.032 397.485L602.605 397.36Z"/>
	<path fill="#441C2C" transform="scale(0.423136 0.423136)" d="M584.587 479.973C586.828 478.82 590.628 479.455 593.129 479.582C592.629 482.114 592.305 484.6 592.045 487.164C589.334 486.993 586.597 486.955 583.881 486.855C584.298 484.574 584.424 482.282 584.587 479.973Z"/>
	<path fill="#4A2242" transform="scale(0.423136 0.423136)" d="M400.153 251.516L411.485 251.512L411.562 264.114Q417.7 264.167 423.835 264.367C423.894 267.253 424.294 270.07 424.682 272.926L431.534 272.978L431.686 288.067L439.828 288.113C439.657 293.428 439.739 298.747 439.778 304.063C434.743 303.268 429.081 303.9 423.975 303.98L424.009 287.544L412.468 287.502L412.441 350.397C412.439 356.683 411.588 369.972 412.666 375.313C413.717 375.676 414.539 375.771 415.648 375.799C410.479 376.214 405.291 375.922 400.101 376.449C400.759 334.842 400.316 293.131 400.153 251.516Z"/>
	<path fill="#F3A0A0" transform="scale(0.423136 0.423136)" d="M412.468 287.502L424.009 287.544L423.975 303.98L423.55 310.933L431.953 311.604L431.987 319.144C434.507 319.055 437.315 318.674 439.584 320.009L439.499 337.771C441.916 337.794 445.215 337.374 447.46 337.959C447.506 345.599 446.407 375.036 447.808 379.856L447.912 383.854C442.619 384.087 437.385 384.583 432.118 385.125L431.935 391.938L431.62 392.054L423.454 391.996L423.526 376.009L415.938 376.062L415.648 375.799C414.539 375.771 413.717 375.676 412.666 375.313C411.588 369.972 412.439 356.683 412.441 350.397L412.468 287.502Z"/>
	<path fill="#E17686" transform="scale(0.423136 0.423136)" d="M431.987 319.144C434.507 319.055 437.315 318.674 439.584 320.009L439.499 337.771C441.916 337.794 445.215 337.374 447.46 337.959C447.506 345.599 446.407 375.036 447.808 379.856L447.912 383.854C442.619 384.087 437.385 384.583 432.118 385.125C432.358 377.526 432.047 369.835 432.016 362.228L431.987 319.144Z"/>
	<path fill="#583975" transform="scale(0.423136 0.423136)" d="M727.972 406.866C727.806 412.071 728.348 418.752 727.228 423.749C725.752 423.954 724.549 423.965 723.062 423.842C722.345 423.962 721.379 423.844 720.99 424.531C719.414 427.314 720.259 436.065 721.099 439.334L720.167 439.867C717.304 440.302 714.434 440.813 711.552 441.092L711.703 448.204C710.307 448.312 708.918 448.432 707.517 448.466L696.059 448.516C696.033 452.477 695.911 456.465 696.093 460.421L696.015 463.931L686.924 463.952L686.991 471.888L681.326 472.013C678.202 472.034 675.069 472.146 671.967 471.712L672.181 475.12L672.014 480.439C666.956 480.213 661.995 479.912 656.965 480.736L656.847 480.391C653.831 480.77 650.559 480.531 647.509 480.507L647.495 471.823C647.549 469.569 647.511 467.396 647.299 465.151L648.022 464.352C650.816 463.707 653.592 463.946 656.429 464.081C656.446 458.722 656.217 453.23 656.779 447.899C657.155 445.387 657 442.55 657.059 439.997Q664.361 439.724 671.666 439.867C672.639 436.849 672.077 432.216 672.048 429.002L687.607 429.022L687.942 428.883L688.017 425.942L687.887 425.401C688.111 422.265 687.993 419.049 688.01 415.902Q692.269 415.774 696.527 415.599L697.186 415.67L699.006 415.446C701.816 415.652 704.626 415.883 707.438 416.054C708.023 416.09 708.609 416.13 709.195 416.14C710.177 416.157 710.789 416.042 711.464 415.307C713.204 413.416 712.549 409.474 712.492 407.031C717.756 406.912 722.719 407.887 727.972 406.866Z"/>
	<path fill="#9658B2" transform="scale(0.423136 0.423136)" d="M648.022 464.352C650.813 464.366 653.607 464.324 656.389 464.575C656.693 466.727 657.007 468.819 657.005 470.999C653.793 471.07 650.679 471.412 647.495 471.823C647.549 469.569 647.511 467.396 647.299 465.151L648.022 464.352Z"/>
	<path fill="#4A2242" transform="scale(0.423136 0.423136)" d="M688.01 415.902Q692.269 415.774 696.527 415.599C696.463 418.902 696.348 422.213 696.441 425.516L687.887 425.401C688.111 422.265 687.993 419.049 688.01 415.902Z"/>
	<path fill="#9B3EAC" transform="scale(0.423136 0.423136)" d="M657.005 470.999L656.847 480.391C653.831 480.77 650.559 480.531 647.509 480.507L647.495 471.823C650.679 471.412 653.793 471.07 657.005 470.999Z"/>
	<path fill="#B76BDC" transform="scale(0.423136 0.423136)" d="M688.017 425.942C690.48 425.931 693.855 425.331 695.978 426.568C696.585 427.706 696.468 428.562 696.434 429.815C696.075 433.249 696.085 436.641 696.104 440.09L688.074 440.037C688.133 436.305 688.15 432.61 687.942 428.883L688.017 425.942Z"/>
	<path fill="#9658B2" transform="scale(0.423136 0.423136)" d="M699.006 415.446C701.816 415.652 704.626 415.883 707.438 416.054C709.161 416.404 710.007 416.366 711.307 417.588C712.058 419.54 711.643 421.998 711.532 424.063C706.631 424.261 701.721 424.396 696.839 424.888C696.829 421.816 696.697 418.712 697.186 415.67L699.006 415.446Z"/>
	<path fill="#9658B2" transform="scale(0.423136 0.423136)" d="M687.607 429.022L687.942 428.883C688.15 432.61 688.133 436.305 688.074 440.037L687.997 448.588C682.867 448.57 677.701 448.681 672.579 448.408L672.196 448.052C671.823 445.447 671.993 442.648 671.969 440.013C677.181 439.685 682.456 439.828 687.678 439.816L687.607 429.022Z"/>
	<path fill="#774797" transform="scale(0.423136 0.423136)" d="M672.196 448.052L672.579 448.408Q672.506 456.198 672.529 463.989C667.66 464.1 661.092 464.982 656.429 464.081C656.446 458.722 656.217 453.23 656.779 447.899C661.894 448.106 667.088 448.488 672.196 448.052Z"/>
	<path fill="#4A2242" transform="scale(0.423136 0.423136)" d="M672.048 429.002L687.607 429.022L687.678 439.816C682.456 439.828 677.181 439.685 671.969 440.013C671.993 442.648 671.823 445.447 672.196 448.052C667.088 448.488 661.894 448.106 656.779 447.899C657.155 445.387 657 442.55 657.059 439.997Q664.361 439.724 671.666 439.867C672.639 436.849 672.077 432.216 672.048 429.002Z"/>
	<path fill="#583975" transform="scale(0.423136 0.423136)" d="M880.207 335.1L880.337 335.425C880.091 338.226 880.015 340.991 879.98 343.8C879.972 345.562 879.648 347.948 880.516 349.516C885.806 353.274 896.109 353.758 902.485 354.044L902.177 355.439L903.433 356.431C903.307 360.036 903.085 363.668 903.172 367.272C905.354 368.63 909.49 368.071 912.089 367.996L927.36 367.96C927.385 372.804 927.552 377.697 927.309 382.534C930.01 382.438 932.711 382.391 935.395 382.052L935.758 391.564C940.128 391.696 945.087 392.351 949.402 391.798C949.693 392.134 950.071 392.41 950.273 392.805C951.284 394.792 950.457 412.316 950.538 415.943C952.049 416.017 953.538 416.06 955.051 416.03L960.611 416.004C959.542 426.671 959.871 437.285 960.045 447.983C962.572 447.899 965.06 447.739 967.577 447.509C969.778 447.562 972.019 447.525 974.21 447.742L975.424 448.044L975.518 464.995C975.578 477.291 975.776 489.838 974.939 502.108C974.061 502.495 973.212 502.851 972.293 503.13L970.671 502.303C968.544 498.49 969.906 492.748 969.374 488.463C969.354 488.298 969.329 488.132 969.306 487.967C965.232 487.786 961.119 487.921 957.041 487.944L957.066 472.724Q949.461 472.741 941.857 472.838L942.043 462.023C927.063 462.457 912.083 461.994 897.106 462.477C896.89 457.832 897.01 453.137 896.995 448.486L928.411 448.462Q928.598 436.227 928.02 424.005C927.479 418.833 927.564 413.679 927.635 408.49L919.504 408.515C919.687 403.002 919.59 397.501 919.506 391.987L903.476 392.168C903.466 389.241 903.452 386.394 903.871 383.488C904.013 381.447 904.533 378.802 903.75 376.89C902.176 375.752 901.003 375.945 899.092 375.808C895.434 375.314 891.152 375.882 887.669 374.587L887.841 367.487L880.001 367.556L879.986 359.489L872.943 359.551C869.809 359.933 866.651 359.946 863.499 360.028Q863.516 351.726 863.783 343.428L855.532 343.508C855.526 340.996 855.309 338.539 855.068 336.043L855.37 335.925L863.464 335.486L864.496 335.69C867.014 335.599 869.528 335.499 872.048 335.501C874.815 335.527 877.455 335.41 880.207 335.1Z"/>
	<path fill="#774797" transform="scale(0.423136 0.423136)" d="M880.207 335.1L880.337 335.425C880.091 338.226 880.015 340.991 879.98 343.8C877.297 342.736 874.946 342.931 872.121 342.999L872.048 335.501C874.815 335.527 877.455 335.41 880.207 335.1Z"/>
	<path fill="#734067" transform="scale(0.423136 0.423136)" d="M902.177 355.439L903.433 356.431C903.307 360.036 903.085 363.668 903.172 367.272C900.839 365.713 897.846 365.902 895.151 365.796C895.139 365.043 895.099 364.298 895.056 363.547C894.916 361.081 894.246 358.167 896.015 356.184C897.885 355.158 900.097 355.436 902.177 355.439Z"/>
	<path fill="#9658B2" transform="scale(0.423136 0.423136)" d="M974.21 447.742L975.424 448.044L975.518 464.995L967.549 465.03Q967.363 456.269 967.577 447.509C969.778 447.562 972.019 447.525 974.21 447.742Z"/>
	<path fill="#9658B2" transform="scale(0.423136 0.423136)" d="M955.051 416.03L960.611 416.004C959.542 426.671 959.871 437.285 960.045 447.983C957.37 448.539 954.704 448.469 951.984 448.481C951.753 438.334 950.704 427.424 951.57 417.336C952.333 416.337 953.84 416.317 955.051 416.03Z"/>
	<path fill="#9658B2" transform="scale(0.423136 0.423136)" d="M912.089 367.996L927.36 367.96C927.385 372.804 927.552 377.697 927.309 382.534C930.01 382.438 932.711 382.391 935.395 382.052L935.758 391.564C940.128 391.696 945.087 392.351 949.402 391.798C949.693 392.134 950.071 392.41 950.273 392.805C951.284 394.792 950.457 412.316 950.538 415.943C945.902 415.174 940.713 415.801 936.021 416L936.09 398.989L927.698 399.038L927.242 392.538L919.912 391.954C919.942 389.484 919.835 387.011 919.766 384.543C916.867 384.46 913.926 384.592 911.023 384.621C910.857 378.869 910.954 373.643 912.089 367.996Z"/>
	<path fill="#4A2242" transform="scale(0.423136 0.423136)" d="M928.02 424.005L936.451 423.92L936.498 432.033C938.991 431.932 941.501 431.893 943.987 431.687L943.834 464.046C949.206 464.097 954.617 464.285 959.985 464.048L959.988 472.424L967.985 472.41C968.064 477.607 968.324 482.852 969.306 487.967C965.232 487.786 961.119 487.921 957.041 487.944L957.066 472.724Q949.461 472.741 941.857 472.838L942.043 462.023C927.063 462.457 912.083 461.994 897.106 462.477C896.89 457.832 897.01 453.137 896.995 448.486L928.411 448.462Q928.598 436.227 928.02 424.005Z"/>
	<path fill="#4A2242" transform="scale(0.423136 0.423136)" d="M712.266 272.062C727.982 271.774 743.744 272.015 759.465 272.008L759.515 287.054L815.874 287.058C815.809 290.39 815.943 293.744 815.996 297.076L854.09 297.081C854.098 301.38 854.182 305.65 854.413 309.942L854.567 310.395L855.01 310.507C854.999 314.32 855.086 318.165 854.893 321.972L854.969 329.468L855.013 331.114C855.061 332.703 854.989 334.384 855.37 335.925L855.068 336.043Q847.551 336.072 840.037 335.882L839.578 335.48C839.32 334.4 839.049 333.114 838.447 332.17C837.894 331.304 837.012 331.001 836.093 330.706C834.823 330.297 833.653 329.81 832.44 329.257C832.413 329.209 832.378 329.165 832.361 329.113C832.316 328.974 832.29 328.829 832.254 328.688C830.934 327.349 767.799 327.721 760.072 327.569C760.379 325.002 760.702 322.3 759.531 319.908L752.565 320.005L752.774 328.798C748.276 328.774 743.77 328.809 739.278 328.574L739.194 328.914C735.648 329.081 732.055 328.946 728.503 328.923C728.737 323.136 728.559 317.273 728.551 311.478L712.11 311.442Q712.147 304.167 712.051 296.892C707.566 296.777 703.049 296.917 698.56 296.944L698.54 287.158L712.202 287.077C712.415 282.037 712.426 277.1 712.266 272.062Z"/>
	<path fill="#B76BDC" transform="scale(0.423136 0.423136)" d="M711.985 287.477L759.52 287.317Q759.499 291.94 759.392 296.561C752.886 295.835 745.476 295.399 738.995 296.401C729.91 296.866 720.762 296.664 711.666 296.66C711.514 293.596 711.788 290.534 711.985 287.477Z"/>
	<path fill="#B76BDC" transform="scale(0.423136 0.423136)" d="M760.478 297.99C778.976 298.064 797.565 298.521 816.04 297.585C816.124 301.263 816.116 304.861 815.834 308.531L799.513 308.497L766.738 308.433C764.68 308.148 762.567 308.111 760.493 307.991L760.478 297.99Z"/>
	<path fill="#774797" transform="scale(0.423136 0.423136)" d="M738.995 296.401C745.476 295.399 752.886 295.835 759.392 296.561L760.478 297.99L760.493 307.991C762.567 308.111 764.68 308.148 766.738 308.433C764.47 308.542 762.262 308.618 759.991 308.464C759.504 312.047 758.489 316.358 759.531 319.908L752.565 320.005L752.774 328.798C748.276 328.774 743.77 328.809 739.278 328.574C738.582 317.918 738.98 307.081 738.995 296.401Z"/>
	<path fill="#734067" transform="scale(0.423136 0.423136)" d="M815.834 308.531L816.046 309.334C828.658 310.1 841.982 308.045 854.413 309.942L854.567 310.395L855.01 310.507C854.999 314.32 855.086 318.165 854.893 321.972L854.969 329.468L855.013 331.114C855.061 332.703 854.989 334.384 855.37 335.925L855.068 336.043Q847.551 336.072 840.037 335.882L839.578 335.48C839.32 334.4 839.049 333.114 838.447 332.17C837.894 331.304 837.012 331.001 836.093 330.706C834.823 330.297 833.653 329.81 832.44 329.257C832.413 329.209 832.378 329.165 832.361 329.113C832.316 328.974 832.29 328.829 832.254 328.688C830.934 327.349 767.799 327.721 760.072 327.569C760.379 325.002 760.702 322.3 759.531 319.908C758.489 316.358 759.504 312.047 759.991 308.464C762.262 308.618 764.47 308.542 766.738 308.433L799.513 308.497L815.834 308.531Z"/>
	<path fill="#774797" transform="scale(0.423136 0.423136)" d="M815.834 308.531L816.046 309.334C815.006 312.525 815.451 316.678 815.506 320.025C810.17 319.927 804.813 320.024 799.475 320.026L799.513 308.497L815.834 308.531Z"/>
	<path fill="#B76BDC" transform="scale(0.423136 0.423136)" d="M816.046 309.334C828.658 310.1 841.982 308.045 854.413 309.942L854.567 310.395L854.547 320.012L815.506 320.025C815.451 316.678 815.006 312.525 816.046 309.334Z"/>
	<path fill="#4A2242" transform="scale(0.423136 0.423136)" d="M610.121 251.747C614.699 251.792 619.298 251.925 623.872 251.687L624.018 376.375L614.621 376.294C614.622 384.517 614.41 392.811 614.905 401.019C611.824 401.002 608.521 400.768 605.473 401.136C603.498 400.274 603.359 399.219 602.605 397.36L593.032 397.485Q592.933 394.743 592.765 392.004L585.059 391.996L584.696 384.012L575.871 384.119L575.559 384.476L569.24 384.51L567.661 376.508C567.035 374 567.047 371.553 566.994 368.986C562.048 368.914 557.093 368.659 552.149 368.486C552.386 370.925 552.551 373.304 552.541 375.76Q512.283 376.125 472.024 376.034L472.054 383.894C469.581 384.11 467.067 384.422 464.59 384.534C462.006 384.545 459.432 384.406 456.851 384.281C455.961 383.526 455.698 382.171 455.28 381.083C452.592 380.999 450.38 380.57 447.808 379.856C446.407 375.036 447.506 345.599 447.46 337.959C445.215 337.374 441.916 337.794 439.499 337.771L439.584 320.009C437.315 318.674 434.507 319.055 431.987 319.144L431.953 311.604L423.55 310.933L423.975 303.98C429.081 303.9 434.743 303.268 439.778 304.063L440.026 304.43L454.912 304.503Q454.889 312.505 455.157 320.502L463.89 320.532C463.83 325.87 463.77 331.187 463.996 336.522L478.888 336.542Q478.793 344.731 478.931 352.919L544.757 352.995C544.507 347.452 544.7 341.9 544.811 336.355C549.963 336.139 555.067 336.108 560.222 336.181C560.432 330.975 560.448 325.813 560.369 320.606L569.427 320.506Q569.552 312.286 569.476 304.065L584.246 304.017L584.382 288.111L592.292 288.063L592.172 279.25C594.954 279.203 597.752 279.093 600.534 279.167L600.535 263.667C603.7 263.733 606.883 263.889 610.042 263.633L610.121 251.747Z"/>
	<path fill="#E17686" transform="scale(0.423136 0.423136)" d="M584.059 319.425C585.957 322.552 584.54 329.319 584.58 333.025L583.961 334.649L584.179 336.282C582.012 337.465 578.456 337.022 575.998 336.995L576.004 331.729L575.977 320.013C578.742 320.019 581.339 320.031 584.059 319.425Z"/>
	<path fill="#B45174" transform="scale(0.423136 0.423136)" d="M576.004 331.729C576.573 333.279 576.588 333.696 577.957 334.704C580.015 334.996 581.979 334.254 583.961 334.649L584.179 336.282C582.012 337.465 578.456 337.022 575.998 336.995L576.004 331.729Z"/>
	<path fill="#D76B88" transform="scale(0.423136 0.423136)" d="M423.975 303.98C429.081 303.9 434.743 303.268 439.778 304.063L440.026 304.43L439.968 319.945C443.101 319.953 446.166 319.868 449.287 319.594L448.945 330.249C448.308 332.757 447.42 335.358 447.46 337.959C445.215 337.374 441.916 337.794 439.499 337.771L439.584 320.009C437.315 318.674 434.507 319.055 431.987 319.144L431.953 311.604L423.55 310.933L423.975 303.98Z"/>
	<path fill="#D76B88" transform="scale(0.423136 0.423136)" d="M600.092 290.892C600.766 297.843 600.528 304.999 600.499 311.98L593.928 312.109C593.693 318.986 593.06 326.189 593.672 333.05C593.451 334.688 593.585 335.041 592.373 336.24C589.786 337.139 587.173 336.524 584.498 336.504L584.179 336.282L583.961 334.649L584.58 333.025C584.54 329.319 585.957 322.552 584.059 319.425C583.495 314.555 583.764 309.123 584.089 304.251C589.392 304.587 594.746 304.484 600.059 304.515Q599.916 297.703 600.092 290.892Z"/>
	<path fill="#B45174" transform="scale(0.423136 0.423136)" d="M560.023 336.579C565.352 336.965 570.659 336.978 575.998 336.995C576 352.696 576.186 368.422 575.871 384.119L575.559 384.476L569.24 384.51L567.661 376.508C567.035 374 567.047 371.553 566.994 368.986C562.048 368.914 557.093 368.659 552.149 368.486C551.923 366.544 551.959 364.51 551.881 362.552C552.073 359.062 551.907 355.488 551.89 351.988L559.99 351.97L560.023 336.579Z"/>
	<path fill="#B45174" transform="scale(0.423136 0.423136)" d="M448.945 330.249L449.493 337.044C454.349 336.767 459.142 336.498 464.008 336.721L464.022 352.772L472.137 352.812L472.029 362.414L471.941 368.679L472.024 376.034L472.054 383.894C469.581 384.11 467.067 384.422 464.59 384.534C462.006 384.545 459.432 384.406 456.851 384.281C455.961 383.526 455.698 382.171 455.28 381.083C452.592 380.999 450.38 380.57 447.808 379.856C446.407 375.036 447.506 345.599 447.46 337.959C447.42 335.358 448.308 332.757 448.945 330.249Z"/>
	<path fill="#B76BDC" transform="scale(0.423136 0.423136)" d="M455.28 381.083C455.355 379.712 455.417 377.976 456.498 376.995C458.584 375.101 462.827 375.931 465.453 376.047C465.255 378.885 465.118 381.734 464.59 384.534C462.006 384.545 459.432 384.406 456.851 384.281C455.961 383.526 455.698 382.171 455.28 381.083Z"/>
	<path fill="#9658B2" transform="scale(0.423136 0.423136)" d="M466.223 369.595C468.139 369.392 470.043 369.006 471.941 368.679L472.024 376.034L472.054 383.894C469.581 384.11 467.067 384.422 464.59 384.534C465.118 381.734 465.255 378.885 465.453 376.047L466.223 369.595Z"/>
	<path fill="#B76BDC" transform="scale(0.423136 0.423136)" d="M472.029 362.414Q498.006 361.987 523.986 362.109C530.517 362.179 537.507 361.839 543.989 362.458C545.163 362.57 545.751 362.958 546.647 363.683C546.781 363.602 546.913 363.517 547.049 363.439C548.768 362.453 549.94 362.428 551.881 362.552C551.959 364.51 551.923 366.544 552.149 368.486C552.386 370.925 552.551 373.304 552.541 375.76Q512.283 376.125 472.024 376.034L471.941 368.679L472.029 362.414Z"/>
	<path fill="#F3A0A0" transform="scale(0.423136 0.423136)" d="M600.092 290.892C600.088 289.375 599.844 288.969 600.876 287.8C603.871 286.862 607.48 287.517 610.61 287.511Q611.18 331.754 611.009 376.001L602.864 376.015C602.609 383.112 602.302 390.259 602.605 397.36L593.032 397.485Q592.933 394.743 592.765 392.004L585.059 391.996L584.696 384.012L575.871 384.119C576.186 368.422 576 352.696 575.998 336.995C578.456 337.022 582.012 337.465 584.179 336.282L584.498 336.504C587.173 336.524 589.786 337.139 592.373 336.24C593.585 335.041 593.451 334.688 593.672 333.05C593.06 326.189 593.693 318.986 593.928 312.109L600.499 311.98C600.528 304.999 600.766 297.843 600.092 290.892Z"/>
	<path fill="#E17686" transform="scale(0.423136 0.423136)" d="M584.179 336.282L584.498 336.504C584.593 352.27 584.031 368.282 584.696 384.012L575.871 384.119C576.186 368.422 576 352.696 575.998 336.995C578.456 337.022 582.012 337.465 584.179 336.282Z"/>
	<path fill="#583975" transform="scale(0.423136 0.423136)" d="M173.017 311.363C184.244 311.458 196.063 310.741 207.194 311.701L207.939 312.102C229.608 311.593 251.307 312.131 272.982 311.78L272.822 336.007L288.006 335.993L288.007 367.91C290.833 367.825 293.705 367.834 296.519 367.593L296.496 375.59L305.416 375.518C307.29 375.497 309.18 375.25 311.046 375.076L311.482 375.196L311.585 392.363C311.869 397.087 311.135 402.625 312.103 407.193L312.826 407.801C315.337 407.935 317.999 407.894 320.475 408.3L320.579 408.812C325.376 409.014 330.126 408.942 334.922 408.819C334.952 413.555 334.858 418.328 335.127 423.055L335.546 423.115C336.907 427.695 336.075 434.733 336.041 439.609C338.837 439.553 341.496 439.333 344.104 440.568C344.264 443.035 344.225 445.231 343.925 447.691C346.629 447.962 349.255 448.023 351.969 448.012L358.962 447.964C358.84 453.088 358.081 459.045 358.953 464.068Q361.545 464.195 364.13 464.416C368.068 464.472 372.095 464.7 376.015 464.308L376.041 471.869C378.104 472.996 381.291 472.547 383.611 472.434L384.04 472.551C383.993 475.014 384.035 477.513 383.848 479.968C383.581 482.605 383.431 485.205 383.36 487.853C383.024 489.628 383.075 490.276 381.819 491.626C379.747 492.342 377.628 491.975 375.475 492.043L375.528 496.093C370.488 495.647 365.541 494.652 360.469 494.46L359.734 493.678C359.307 489.759 360.348 484.499 358.811 480.937C355.677 478.58 348.009 479.894 344.082 480.052Q343.819 476.008 343.409 471.977L335.533 472.02L335.643 463.491L327.998 463.516L327.992 447.988L312.028 448.013L304.047 447.876L304.005 432.159L303.631 431.958C303.465 429.295 303.151 426.634 302.891 423.979L295.484 424.021L295.381 415.99L287.97 416.009C287.911 407.841 288.323 399.653 288.49 391.485L280.052 391.516C279.932 383.367 280.372 375.17 280.482 367.016Q276.237 367.123 271.995 367.295Q271.936 355.508 272.511 343.735L272.556 335.961L263.957 336.077L263.769 328.797L264.109 327.408L257.92 327.56L192.488 328.005L192.438 335.495L184.423 335.49L184.37 343.525C182.133 344.49 178.418 343.954 176.055 343.614C173.311 343.476 170.518 343.547 167.768 343.527L160.022 343.563C159.926 346.427 159.839 349.178 159.236 351.99L152.01 351.983L151.931 359.334L151.809 359.846C149.21 359.924 146.604 360.045 144.004 360.036L143.884 367.463L127.94 367.463C127.277 372.773 127.486 378.232 127.536 383.576L120.018 383.481L112.014 383.52L111.782 389.6C111.62 392.934 111.956 396.21 111.877 399.521L111.836 399.887C106.36 399.71 101.021 399.587 95.5521 400.088C95.8943 405.265 96.4853 410.842 95.8341 415.991L88.0366 415.998C88.0112 421.093 87.7047 426.358 88.2047 431.428L79.9894 432.003C79.8516 441.525 78.2539 453.298 80.4892 462.49L80.4728 463.345C77.699 463.513 74.8691 463.457 72.0879 463.5C69.5752 463.548 67.0304 463.514 64.527 463.735L64.6673 472.509C62.4299 472.558 60.1717 472.363 58.148 473.432C57.1788 474.454 57.1533 475.047 56.9694 476.359C56.7948 477.605 56.5099 478.791 55.3071 479.411C53.8287 480.172 51.5835 480.035 49.968 480.077L49.9931 464.034Q49.7416 456.004 49.8517 447.97L52.2704 447.506L57.0164 447.476L64.0277 447.436C63.8783 440.791 63.6504 433.928 64.4163 427.319L64.4602 423.542L72.3241 423.558C72.639 421.059 72.8036 418.535 73.0141 416.025Q72.9087 403.967 73.0591 391.91L73.4715 391.77Q80.4882 392.221 87.5054 391.778L87.5097 381.983L96.477 381.987C96.5011 378.131 96.405 374.231 96.9419 370.406L96.9686 368.091L97.672 367.943Q97.7336 361.278 98.0756 354.622C102.639 354.477 107.221 354.542 111.787 354.523C111.617 351.071 111.88 347.683 112.127 344.242L119.486 344.311C120.531 341.714 120.03 337.783 120.026 335.002C123.268 334.973 126.478 335.029 129.717 335.191C131.416 332.824 130.55 324.169 130.531 321.026L143.445 321.043L143.862 320.938L145.772 321.05C154.64 320.721 163.684 321.06 172.58 320.961C172.636 318.929 172.771 316.914 172.923 314.888L173.017 311.363Z"/>
	<path fill="#774797" transform="scale(0.423136 0.423136)" d="M120.841 358.926Q124.43 359.25 128.025 359.509L128.012 367.111C125.52 367.064 122.881 367.194 120.415 366.857L120.841 358.926Z"/>
	<path fill="#9658B2" transform="scale(0.423136 0.423136)" d="M64.4602 423.542L72.3241 423.558C72.1376 426.389 72.0024 429.191 71.9982 432.029C69.636 432.118 66.9217 432.653 64.8928 431.371C64.2703 430.04 64.3947 428.75 64.4163 427.319L64.4602 423.542Z"/>
	<path fill="#9658B2" transform="scale(0.423136 0.423136)" d="M52.2704 447.506L57.0164 447.476L57.003 463.995L49.9931 464.034Q49.7416 456.004 49.8517 447.97L52.2704 447.506Z"/>
	<path fill="#4A2242" transform="scale(0.423136 0.423136)" d="M304.005 432.159L312.013 432.03L312.028 448.013L304.047 447.876L304.005 432.159Z"/>
	<path fill="#774797" transform="scale(0.423136 0.423136)" d="M343.925 447.691C346.629 447.962 349.255 448.023 351.969 448.012C352.023 453.118 352.696 459.302 351.352 464.235C348.892 463.752 346.025 464.025 343.511 464.018Q343.498 455.947 343.585 447.877L343.925 447.691Z"/>
	<path fill="#9658B2" transform="scale(0.423136 0.423136)" d="M364.13 464.416C368.068 464.472 372.095 464.7 376.015 464.308L376.041 471.869C373.029 471.243 369.999 471.262 366.946 471.451C361.852 472.079 356.745 471.976 351.622 471.982C351.562 469.518 351.537 467.387 352.224 464.982C356.158 464.972 360.189 464.57 364.13 464.416Z"/>
	<path fill="#774797" transform="scale(0.423136 0.423136)" d="M366.946 471.451C369.999 471.262 373.029 471.243 376.041 471.869C378.104 472.996 381.291 472.547 383.611 472.434L384.04 472.551C383.993 475.014 384.035 477.513 383.848 479.968C383.581 482.605 383.431 485.205 383.36 487.853C383.024 489.628 383.075 490.276 381.819 491.626C379.747 492.342 377.628 491.975 375.475 492.043L375.475 480.086C373.107 480.035 369.998 480.308 368.149 478.604C366.445 477.032 366.915 473.568 366.946 471.451Z"/>
	<path fill="#734067" transform="scale(0.423136 0.423136)" d="M143.513 335.611C146.445 335.98 149.305 336.008 152.254 336.002C153.16 341.293 152.634 346.231 151.847 351.509C148.358 351.608 129.92 350.914 128.428 352.66C128.282 352.83 128.198 353.044 128.083 353.236C128.157 350.327 128.42 347.397 128.593 344.49L129.957 344.327C134.444 344.019 138.967 344.057 143.463 343.996L143.513 335.611Z"/>
	<path fill="#B76BDC" transform="scale(0.423136 0.423136)" d="M173.017 311.363C184.244 311.458 196.063 310.741 207.194 311.701L207.939 312.102Q208.014 316.071 208.022 320.04C200.17 319.919 192.273 319.646 184.423 319.816C182.22 319.863 174.637 320.998 173.179 320.041Q172.98 317.468 172.923 314.888L173.017 311.363Z"/>
	<path fill="#9658B2" transform="scale(0.423136 0.423136)" d="M143.862 320.938L145.772 321.05C153.66 322.522 162.992 321.571 170.998 321.458L170.988 335.956L152.254 336.002C149.305 336.008 146.445 335.98 143.513 335.611L143.445 321.043L143.862 320.938Z"/>
	<path fill="#774797" transform="scale(0.423136 0.423136)" d="M111.527 367.185L119.037 367.047C118.818 370.207 118.493 373.409 118.462 376.573C116.287 376.448 114.048 376.425 111.897 376.081L111.955 383.023L103.951 383.02L103.95 391.225Q99.7472 391.449 95.541 391.6L95.4794 399.999L87.8148 399.993C87.5279 397.474 87.7553 395.24 88.0729 392.751C90.5156 392.327 92.9537 392.079 95.4189 391.842C95.5061 389.011 95.5458 385.587 96.6775 382.962C97.4703 379.007 97.1346 374.428 96.9419 370.406L96.9686 368.091L97.672 367.943C102.267 368.093 106.841 368.041 111.436 367.961L111.527 367.185Z"/>
	<path fill="#B76BDC" transform="scale(0.423136 0.423136)" d="M97.672 367.943C102.267 368.093 106.841 368.041 111.436 367.961C111.563 370.64 111.706 373.317 111.737 375.999L103.493 376.044L103.939 382.99L96.6775 382.962C97.4703 379.007 97.1346 374.428 96.9419 370.406L96.9686 368.091L97.672 367.943Z"/>
	<path fill="#9658B2" transform="scale(0.423136 0.423136)" d="M96.9419 370.406C97.1346 374.428 97.4703 379.007 96.6775 382.962C95.5458 385.587 95.5061 389.011 95.4189 391.842C92.9537 392.079 90.5156 392.327 88.0729 392.751C87.7553 395.24 87.5279 397.474 87.8148 399.993Q88.1064 407.956 88.0018 415.923Q80.5086 416.064 73.0141 416.025Q72.9087 403.967 73.0591 391.91L73.4715 391.77Q80.4882 392.221 87.5054 391.778L87.5097 381.983L96.477 381.987C96.5011 378.131 96.405 374.231 96.9419 370.406Z"/>
	<path fill="#9658B2" transform="scale(0.423136 0.423136)" d="M311.046 375.076L311.482 375.196L311.585 392.363C311.296 396.534 312.757 403.777 310.629 407.248C309.645 407.479 308.837 407.546 307.827 407.521L296.054 407.506C295.926 398.084 294.446 384.537 296.496 375.59L305.416 375.518C307.29 375.497 309.18 375.25 311.046 375.076Z"/>
	<path fill="#774797" transform="scale(0.423136 0.423136)" d="M311.046 375.076L311.482 375.196L311.585 392.363C311.296 396.534 312.757 403.777 310.629 407.248C309.645 407.479 308.837 407.546 307.827 407.521C307.537 404.166 306.297 402.338 304.497 399.626C304.358 391.576 305.597 383.565 305.416 375.518C307.29 375.497 309.18 375.25 311.046 375.076Z"/>
	<path fill="#9658B2" transform="scale(0.423136 0.423136)" d="M312.826 407.801C315.337 407.935 317.999 407.894 320.475 408.3L320.579 408.812C325.376 409.014 330.126 408.942 334.922 408.819C334.952 413.555 334.858 418.328 335.127 423.055L335.546 423.115C336.907 427.695 336.075 434.733 336.041 439.609C338.837 439.553 341.496 439.333 344.104 440.568C344.264 443.035 344.225 445.231 343.925 447.691L343.585 447.877L335.995 448.043L336.02 439.856C330.611 440.01 325.18 439.977 319.768 440.026C319.964 434.522 320.031 429.177 319.303 423.704C316.9 423.766 314.491 423.956 312.091 424.094C311.288 419.766 310.843 413.625 311.653 409.309C311.87 408.157 311.93 408.39 312.826 407.801Z"/>
	<path fill="#4A2242" transform="scale(0.423136 0.423136)" d="M320.579 408.812C325.376 409.014 330.126 408.942 334.922 408.819C334.952 413.555 334.858 418.328 335.127 423.055C330.795 424.286 324.98 423.522 320.46 423.386Q320.45 416.098 320.579 408.812Z"/>
	<path fill="#4A2242" transform="scale(0.423136 0.423136)" d="M130.531 321.026L143.445 321.043L143.513 335.611L143.463 343.996C138.967 344.057 134.444 344.019 129.957 344.327L128.593 344.49C128.42 347.397 128.157 350.327 128.083 353.236L128.025 359.509Q124.43 359.25 120.841 358.926L120.415 366.857L119.037 367.047L111.527 367.185L111.436 367.961C106.841 368.041 102.267 368.093 97.672 367.943Q97.7336 361.278 98.0756 354.622C102.639 354.477 107.221 354.542 111.787 354.523C111.617 351.071 111.88 347.683 112.127 344.242L119.486 344.311C120.531 341.714 120.03 337.783 120.026 335.002C123.268 334.973 126.478 335.029 129.717 335.191C131.416 332.824 130.55 324.169 130.531 321.026Z"/>
	<path fill="#B76BDC" transform="scale(0.423136 0.423136)" d="M129.983 335.462C134.528 335.326 138.972 335.306 143.513 335.611L143.463 343.996C138.967 344.057 134.444 344.019 129.957 344.327L129.983 335.462Z"/>
	<path fill="#B76BDC" transform="scale(0.423136 0.423136)" d="M120.315 344.52L128.593 344.49C128.42 347.397 128.157 350.327 128.083 353.236L128.025 359.509Q124.43 359.25 120.841 358.926L120.415 366.857L119.037 367.047L111.527 367.185L111.502 357.517C114.455 357.499 117.413 357.554 120.366 357.574C120.571 353.209 120.452 348.884 120.315 344.52Z"/>
	<path fill="#774797" transform="scale(0.423136 0.423136)" d="M552.149 368.486C557.093 368.659 562.048 368.914 566.994 368.986C567.047 371.553 567.035 374 567.661 376.508L569.24 384.51L575.559 384.476L575.871 384.119L584.696 384.012L585.059 391.996L592.765 392.004Q592.933 394.743 593.032 397.485C593.156 401.172 593.239 404.815 593.057 408.502C592.807 426.908 592.593 445.217 592.802 463.625L584.625 463.484C584.59 468.909 584.938 474.637 584.201 480.009L576.001 480L576.017 496.086C574.005 496.816 571.542 496.529 569.418 496.504L557.483 496.498L552.023 496.488L551.981 504.309Q512.117 504.568 472.252 504.42L472.478 496.454Q460.245 496.989 448.001 497.029L447.992 479.935C445.771 480.137 442.155 480.918 440.358 479.277C438.225 477.329 439.448 467.32 439.447 464.046C436.784 464.233 434.147 464.125 431.482 464.039C431.454 456.403 431.35 448.756 431.612 441.124C429.149 440.776 426.492 441.01 424 441.04C424.075 437.471 422.556 428.698 424.94 426.13C426.588 424.356 429.8 424.898 431.988 424.967C431.842 414.535 433.922 402.215 431.62 392.054L431.935 391.938L432.118 385.125C437.385 384.583 442.619 384.087 447.912 383.854L447.808 379.856C450.38 380.57 452.592 380.999 455.28 381.083C455.698 382.171 455.961 383.526 456.851 384.281C459.432 384.406 462.006 384.545 464.59 384.534C467.067 384.422 469.581 384.11 472.054 383.894L472.024 376.034Q512.283 376.125 552.541 375.76C552.551 373.304 552.386 370.925 552.149 368.486Z"/>
	<path fill="#583975" transform="scale(0.423136 0.423136)" d="M551.599 416.075C551.683 418.662 551.851 421.273 551.794 423.86L551.346 423.996L543.925 424L544.164 417.645C546.75 417.347 549.183 417.102 551.599 416.075Z"/>
	<path fill="#F65D1F" transform="scale(0.423136 0.423136)" d="M496.353 455.994L503.767 455.868C503.9 457.849 504.011 462.241 502.92 463.917C502.828 464.059 502.697 464.171 502.585 464.298L496.474 464.698L496.353 455.994Z"/>
	<path fill="#734067" transform="scale(0.423136 0.423136)" d="M536.072 424.03L543.925 424C543.781 426.54 543.599 429.068 543.693 431.613L543.5 431.93L535.493 431.996L536.072 424.03Z"/>
	<path fill="#583975" transform="scale(0.423136 0.423136)" d="M480.715 426.409L481.224 424.925C483.734 423.978 486.909 424.454 489.581 424.493C489.355 427.09 489.324 429.894 488.739 432.429C486.01 432.046 483.254 432.117 480.505 432.12C480.52 430.216 480.634 428.31 480.715 426.409Z"/>
	<path fill="#F65D1F" transform="scale(0.423136 0.423136)" d="M551.599 416.075C553.746 415.001 557.142 415.475 559.501 415.525L559.513 424.092Q555.652 424.017 551.794 423.86C551.851 421.273 551.683 418.662 551.599 416.075Z"/>
	<path fill="#F65D1F" transform="scale(0.423136 0.423136)" d="M520.218 455.986L528.372 456.049L528.302 464.07L520.181 464.002C519.866 461.342 520.008 458.646 520.218 455.986Z"/>
	<path fill="#B76BDC" transform="scale(0.423136 0.423136)" d="M559.688 376.502L567.661 376.508L569.24 384.51C566.131 384.529 563.048 384.337 559.946 384.146C559.719 381.605 559.727 379.052 559.688 376.502Z"/>
	<path fill="#734067" transform="scale(0.423136 0.423136)" d="M503.555 471.675C503.809 474.468 503.997 477.222 504.041 480.027L503.886 481.227C503.666 483.125 503.736 485.085 502.447 486.545C501.015 486.784 499.873 486.45 498.495 486.112C499.606 481.953 499.014 476.33 499.064 471.994L503.555 471.675Z"/>
	<path fill="#B76BDC" transform="scale(0.423136 0.423136)" d="M575.871 384.119L584.696 384.012L585.059 391.996C581.903 392.516 578.675 392.487 575.485 392.576L575.559 384.476L575.871 384.119Z"/>
	<path fill="#9B3EAC" transform="scale(0.423136 0.423136)" d="M447.808 379.856C450.38 380.57 452.592 380.999 455.28 381.083C455.698 382.171 455.961 383.526 456.851 384.281C455.475 386.499 455.912 389.446 455.979 392.009L447.803 392.02L447.912 383.854L447.808 379.856Z"/>
	<path fill="#441C2C" transform="scale(0.423136 0.423136)" d="M496.474 464.698L502.585 464.298C503.992 466.113 503.548 469.393 503.555 471.675L499.064 471.994L489 471.985L488.995 465.015C491.517 465.019 493.96 464.917 496.474 464.698Z"/>
	<path fill="#ED82D0" transform="scale(0.423136 0.423136)" d="M432.118 385.125C437.385 384.583 442.619 384.087 447.912 383.854L447.803 392.02L431.935 391.938L432.118 385.125Z"/>
	<path fill="#4A2242" transform="scale(0.423136 0.423136)" d="M504.405 448.015L519.94 448.006C519.872 450.598 519.72 453.215 519.777 455.806Q511.915 455.981 504.059 455.612L504.405 448.015Z"/>
	<path fill="#441C2C" transform="scale(0.423136 0.423136)" d="M528.302 464.07L535.988 464.184L536.017 472.005L527.992 472.005L520.222 471.942C520.486 469.327 520.26 466.628 520.181 464.002L528.302 464.07Z"/>
	<path fill="#B76BDC" transform="scale(0.423136 0.423136)" d="M585.059 391.996L592.765 392.004Q592.933 394.743 593.032 397.485C593.156 401.172 593.239 404.815 593.057 408.502L585.571 408.435C585.543 402.959 585.659 397.446 585.059 391.996Z"/>
	<path fill="#EF4E26" transform="scale(0.423136 0.423136)" d="M551.346 423.996L551.794 423.86Q555.652 424.017 559.513 424.092L559.451 432.619L552.371 432.553L551.733 432.093C549.081 431.447 546.4 431.579 543.693 431.613C543.599 429.068 543.781 426.54 543.925 424L551.346 423.996Z"/>
	<path fill="#F65D1F" transform="scale(0.423136 0.423136)" d="M543.925 424L551.346 423.996C551.664 426.693 551.609 429.385 551.733 432.093C549.081 431.447 546.4 431.579 543.693 431.613C543.599 429.068 543.781 426.54 543.925 424Z"/>
	<path fill="#F65D1F" transform="scale(0.423136 0.423136)" d="M535.493 431.996L543.5 431.93L543.484 448.484L535.496 448.452L535.493 431.996Z"/>
	<path fill="#EDEA9F" transform="scale(0.423136 0.423136)" d="M543.693 431.613C546.4 431.579 549.081 431.447 551.733 432.093L552.371 432.553C552.445 437.893 552.48 443.188 552.192 448.524L543.484 448.484L543.5 431.93L543.693 431.613Z"/>
	<path fill="#26140A" transform="scale(0.423136 0.423136)" d="M552.371 432.553L559.451 432.619L559.473 448.889L559.501 455.603L551.958 455.812L552.192 448.524C552.48 443.188 552.445 437.893 552.371 432.553Z"/>
	<path fill="#EF4E26" transform="scale(0.423136 0.423136)" d="M439.004 423.976L447.554 423.996C447.544 432.009 447.245 440.134 447.589 448.134L447.457 448.494L439.002 448.526L439.023 440.029L439.004 423.976Z"/>
	<path fill="#EF4E26" transform="scale(0.423136 0.423136)" d="M504.059 455.612Q511.915 455.981 519.777 455.806L520.218 455.986C520.008 458.646 519.866 461.342 520.181 464.002C520.26 466.628 520.486 469.327 520.222 471.942C520.144 474.631 520 477.335 520.033 480.025L504.041 480.027C503.997 477.222 503.809 474.468 503.555 471.675C503.548 469.393 503.992 466.113 502.585 464.298C502.697 464.171 502.828 464.059 502.92 463.917C504.011 462.241 503.9 457.849 503.767 455.868L504.059 455.612Z"/>
	<path fill="#EDEA9F" transform="scale(0.423136 0.423136)" d="M559.501 415.525Q567.527 416.062 575.571 416.003L575.555 423.055C575.556 431.525 575.421 440.02 575.601 448.487L559.473 448.889L559.451 432.619L559.513 424.092L559.501 415.525Z"/>
	<path fill="#EF4E26" transform="scale(0.423136 0.423136)" d="M575.555 423.055C578.059 423.091 580.514 423.091 582.996 423.479L583.043 449.082C580.739 449.006 578.401 449.014 576.109 448.779L576.132 449.729Q576.004 456.636 576.023 463.545L567.952 463.496C559.788 463.337 551.581 463.1 543.446 463.959L543.484 448.484L552.192 448.524L551.958 455.812L559.501 455.603L559.473 448.889L575.601 448.487C575.421 440.02 575.556 431.525 575.555 423.055Z"/>
	<path fill="#F65D1F" transform="scale(0.423136 0.423136)" d="M471.879 424.492C474.585 424.422 477.481 424.085 480.1 424.85C480.717 425.933 480.549 425.4 480.715 426.409C480.634 428.31 480.52 430.216 480.505 432.12C483.254 432.117 486.01 432.046 488.739 432.429Q487.979 440.413 488.236 448.429C485.677 448.355 483.101 448.342 480.547 448.17C480.283 453.322 480.266 458.326 480.447 463.485L456.069 463.298L447.497 463.5L447.457 448.494L447.589 448.134C452.8 449.144 458.589 448.628 463.891 448.415L463.844 455.876L471.094 455.875L470.992 448.41L470.888 433.002C470.974 430.174 471.507 427.298 471.879 424.492Z"/>
	<path fill="#EDEA9F" transform="scale(0.423136 0.423136)" d="M471.879 424.492C474.585 424.422 477.481 424.085 480.1 424.85C480.717 425.933 480.549 425.4 480.715 426.409C480.634 428.31 480.52 430.216 480.505 432.12C480.491 437.494 480.403 442.879 480.517 448.251C477.326 448.414 474.185 448.504 470.992 448.41L470.888 433.002C470.974 430.174 471.507 427.298 471.879 424.492Z"/>
	<path fill="#EDEA9F" transform="scale(0.423136 0.423136)" d="M463.975 415.459C466.35 415.365 468.804 415.038 471.07 415.86C471.97 416.718 472.498 417.22 472.571 418.529C472.679 420.439 472.207 422.608 471.879 424.492C471.507 427.298 470.974 430.174 470.888 433.002L470.992 448.41L471.094 455.875L463.844 455.876L463.891 448.415C458.589 448.628 452.8 449.144 447.589 448.134C447.245 440.134 447.544 432.009 447.554 423.996L447.6 415.496C453.046 415.307 458.524 415.442 463.975 415.459Z"/>
	<path fill="#EF4E26" transform="scale(0.423136 0.423136)" d="M463.975 415.459C466.35 415.365 468.804 415.038 471.07 415.86C471.97 416.718 472.498 417.22 472.571 418.529C472.679 420.439 472.207 422.608 471.879 424.492C471.507 427.298 470.974 430.174 470.888 433.002C468.603 432.855 466.28 432.899 463.99 432.861L463.975 415.459Z"/>
	<path fill="#26140A" transform="scale(0.423136 0.423136)" d="M463.99 432.861C466.28 432.899 468.603 432.855 470.888 433.002L470.992 448.41L471.094 455.875L463.844 455.876L463.891 448.415L463.99 432.861Z"/>
	<path fill="#583975" transform="scale(0.423136 0.423136)" d="M431.988 424.967C431.972 429.003 432.222 433.236 431.818 437.245L432.204 439.461C434.33 440.779 436.615 440.218 439.023 440.029L439.002 448.526L447.457 448.494L447.497 463.5L456.069 463.298L455.985 472.031L471.987 471.954L472.589 480.003L480.44 479.962L480.587 485.956C486.512 485.374 492.588 485.233 498.495 486.112C499.873 486.45 501.015 486.784 502.447 486.545C503.736 485.085 503.666 483.125 503.886 481.227L504.041 480.027L520.033 480.025C520 477.335 520.144 474.631 520.222 471.942L527.992 472.005C528.035 477.029 527.324 481.079 525.921 485.905C531.519 486.142 537.961 486.718 543.499 485.806C544.579 484.625 544.527 482.577 544.694 481.026L552.536 480.953L552.507 472.071L568.045 472.04L567.952 463.496L576.023 463.545Q576.004 456.636 576.132 449.729C576.778 454.199 576.573 458.811 576.611 463.32L584.625 463.484C584.59 468.909 584.938 474.637 584.201 480.009L576.001 480L576.017 496.086C574.005 496.816 571.542 496.529 569.418 496.504L557.483 496.498L552.023 496.488L551.981 504.309Q512.117 504.568 472.252 504.42L472.478 496.454Q460.245 496.989 448.001 497.029L447.992 479.935C445.771 480.137 442.155 480.918 440.358 479.277C438.225 477.329 439.448 467.32 439.447 464.046C436.784 464.233 434.147 464.125 431.482 464.039C431.454 456.403 431.35 448.756 431.612 441.124C429.149 440.776 426.492 441.01 424 441.04C424.075 437.471 422.556 428.698 424.94 426.13C426.588 424.356 429.8 424.898 431.988 424.967Z"/>
	<path fill="#441C2C" transform="scale(0.423136 0.423136)" d="M504.041 480.027L520.033 480.025L520.014 488.443L503.987 488.497L503.886 481.227L504.041 480.027Z"/>
	<path fill="#4A2242" transform="scale(0.423136 0.423136)" d="M760.072 327.569C767.799 327.721 830.934 327.349 832.254 328.688C832.29 328.829 832.316 328.974 832.361 329.113C832.378 329.165 832.413 329.209 832.44 329.257C833.653 329.81 834.823 330.297 836.093 330.706C837.012 331.001 837.894 331.304 838.447 332.17C839.049 333.114 839.32 334.4 839.578 335.48L840.037 335.882Q847.551 336.072 855.068 336.043C855.309 338.539 855.526 340.996 855.532 343.508L863.783 343.428Q863.516 351.726 863.499 360.028C866.651 359.946 869.809 359.933 872.943 359.551L879.986 359.489L880.001 367.556L887.841 367.487L887.669 374.587C891.152 375.882 895.434 375.314 899.092 375.808C901.003 375.945 902.176 375.752 903.75 376.89C904.533 378.802 904.013 381.447 903.871 383.488C903.452 386.394 903.466 389.241 903.476 392.168L919.506 391.987C919.59 397.501 919.687 403.002 919.504 408.515L927.635 408.49C927.564 413.679 927.479 418.833 928.02 424.005Q928.598 436.227 928.411 448.462L896.995 448.486C897.01 453.137 896.89 457.832 897.106 462.477L897.036 462.888C897.129 465.885 897.079 468.967 897.354 471.948L885.584 471.914L882.489 472.215L882.477 485.402C878.556 485.086 874.683 484.957 870.75 484.941C870.002 495.827 870.222 506.55 870.48 517.453L856.093 517.568L856.081 576.998L845.104 576.984L845.126 562.461L832.014 562.478C832.01 558.859 831.67 554.844 832.182 551.28L831.5 550.152C826.695 549.888 821.945 549.917 817.139 550.008C817.198 545.752 817.541 541.052 816.653 536.889C803.275 536.903 789.859 536.7 776.486 536.968L776.477 550.843C772.857 550.548 769.269 550.65 765.642 550.737L765.489 551.263C762.382 552.783 756.565 552.053 753.048 552.032L752.947 560.994L744.5 561.034L744.528 567.991L736.954 568.011L736.88 576.002L727.981 576.043L727.98 560.526L719.483 560.563L719.498 528.006L703.989 528.024L703.981 504.006L695.955 504.015C695.75 493.193 695.959 482.344 696.008 471.52L696.015 463.931L696.093 460.421C695.911 456.465 696.033 452.477 696.059 448.516L707.517 448.466C708.918 448.432 710.307 448.312 711.703 448.204L711.552 441.092C714.434 440.813 717.304 440.302 720.167 439.867L721.099 439.334C720.259 436.065 719.414 427.314 720.99 424.531C721.379 423.844 722.345 423.962 723.062 423.842C724.549 423.965 725.752 423.954 727.228 423.749C728.348 418.752 727.806 412.071 727.972 406.866L728.084 400.018C730.869 399.894 733.415 400.086 736.171 400.428C736.646 394.982 736.507 389.531 736.398 384.075L736.045 377.138L743.976 376.422C744.197 373.606 744.091 370.794 744.022 367.974L750.958 367.922C753.813 367.884 756.686 367.684 759.539 367.55C759.486 354.222 759.303 340.88 760.072 327.569Z"/>
	<path fill="#583975" transform="scale(0.423136 0.423136)" d="M832.44 329.257C833.653 329.81 834.823 330.297 836.093 330.706C837.012 331.001 837.894 331.304 838.447 332.17C839.049 333.114 839.32 334.4 839.578 335.48C836.939 334.576 835.341 334.669 832.603 335.035L832.44 329.257Z"/>
	<path fill="#734067" transform="scale(0.423136 0.423136)" d="M783.973 344.087C791.708 342.983 799.822 343.407 807.616 343.454L807.53 351.941L824.001 351.967L824.008 362.558C832.013 362.466 840.021 362.217 848.024 362.011L848.019 374.007L864.036 373.961L864.021 385.5L888 385.508L888.018 400.505L904.015 400.508L903.477 415.996L919.951 416.095L920.05 424.002L928.02 424.005Q928.598 436.227 928.411 448.462L896.995 448.486C897.01 453.137 896.89 457.832 897.106 462.477L897.036 462.888C897.129 465.885 897.079 468.967 897.354 471.948L885.584 471.914L882.489 472.215C879.065 472.954 874.968 472.367 871.518 471.994Q871.491 478.032 871.314 484.067C866.666 483.821 862.054 483.924 857.405 484.035C857.618 491.001 858.957 505.33 856.987 511.636C856.219 509.047 856.314 506.588 856.338 503.919L849.199 504.024Q849.542 488.232 849.527 472.436L839.983 472.339Q839.856 460.188 839.963 448.038L832.019 448.254L831.998 423.923L823.977 424.035L823.963 407.761C819.15 407.999 814.295 407.944 809.475 408.012L809.476 383.549L799.941 384.022C799.068 376.133 799.704 367.92 799.935 359.992L783.993 360.025L783.973 344.087Z"/>
	<path fill="#4A2242" transform="scale(0.423136 0.423136)" d="M884.828 463.091Q890.933 463.057 897.036 462.888C897.129 465.885 897.079 468.967 897.354 471.948L885.584 471.914C885.533 468.975 885.119 466.015 884.828 463.091Z"/>
	<path fill="#734067" transform="scale(0.423136 0.423136)" d="M759.539 367.55L763.476 367.562C765.317 367.816 766.258 367.723 767.721 368.913C768.587 371.131 768.001 373.666 768.011 376.007L784.038 376.002C784.035 380.24 783.898 384.526 784.11 388.758C786.954 389.03 789.817 389.245 792.649 389.622L792.496 407.997L804.325 408.01Q804.554 424.002 804.491 439.995L816.063 440.006L816.009 473.56C819.819 473.378 824.168 472.603 827.618 474.55C832.241 481.098 829.945 509.42 829.986 518.237L841.907 518.532Q841.598 535.02 841.491 551.511C838.489 551.495 835.129 551.747 832.182 551.28L831.5 550.152C826.695 549.888 821.945 549.917 817.139 550.008C817.198 545.752 817.541 541.052 816.653 536.889C803.275 536.903 789.859 536.7 776.486 536.968L776.477 550.843C772.857 550.548 769.269 550.65 765.642 550.737L765.489 551.263C762.382 552.783 756.565 552.053 753.048 552.032L752.947 560.994L744.5 561.034L744.528 567.991L736.954 568.011L736.88 576.002L727.981 576.043L727.98 560.526L719.483 560.563L719.498 528.006L703.989 528.024L703.981 504.006L695.955 504.015C695.75 493.193 695.959 482.344 696.008 471.52L696.015 463.931L696.093 460.421C695.911 456.465 696.033 452.477 696.059 448.516L707.517 448.466C708.918 448.432 710.307 448.312 711.703 448.204L711.552 441.092C714.434 440.813 717.304 440.302 720.167 439.867L721.099 439.334C720.259 436.065 719.414 427.314 720.99 424.531C721.379 423.844 722.345 423.962 723.062 423.842C724.549 423.965 725.752 423.954 727.228 423.749C728.348 418.752 727.806 412.071 727.972 406.866L728.084 400.018C730.869 399.894 733.415 400.086 736.171 400.428C736.646 394.982 736.507 389.531 736.398 384.075L736.045 377.138L743.976 376.422C744.197 373.606 744.091 370.794 744.022 367.974L750.958 367.922C753.813 367.884 756.686 367.684 759.539 367.55Z"/>
	<path fill="#4A2242" transform="scale(0.423136 0.423136)" d="M711.552 441.092C714.434 440.813 717.304 440.302 720.167 439.867C720.092 442.573 719.992 445.28 720.016 447.988C717.252 448.052 714.461 448.042 711.703 448.204L711.552 441.092Z"/>
	<path fill="#4A2242" transform="scale(0.423136 0.423136)" d="M696.059 448.516L707.517 448.466L707.516 461.006C703.691 460.916 699.905 460.736 696.093 460.421C695.911 456.465 696.033 452.477 696.059 448.516Z"/>
	<path fill="#4A2242" transform="scale(0.423136 0.423136)" d="M775.966 527.463L776.027 524.144C776.752 523.08 776.964 522.751 778.209 522.255C780.957 521.16 784.081 522.038 786.687 523.123C786.237 524.21 785.771 525.285 785.494 526.431L785.331 527.137C795.697 526.783 806.139 526.879 816.51 527.03C816.516 530.166 816.33 533.464 816.64 536.58C821.585 536.394 826.544 536.13 831.49 536.031Q831.539 543.091 831.5 550.152C826.695 549.888 821.945 549.917 817.139 550.008C817.198 545.752 817.541 541.052 816.653 536.889C803.275 536.903 789.859 536.7 776.486 536.968L776.477 550.843C772.857 550.548 769.269 550.65 765.642 550.737C765.376 546.004 765.511 541.215 765.508 536.474L776.079 536.662L775.966 527.463Z"/>
	<path fill="#4A2242" transform="scale(0.423136 0.423136)" d="M744.022 367.974L750.958 367.922L751.009 406.089C748.617 406.223 745.339 406.826 743.077 406.054L742.814 405.436L742.131 403.85C741.361 402.055 740.832 400.883 738.936 400.107C737.593 400.36 737.411 400.686 736.405 401.646C734.934 407.914 735.974 431.229 735.996 438.99L721.099 439.334C720.259 436.065 719.414 427.314 720.99 424.531C721.379 423.844 722.345 423.962 723.062 423.842C724.549 423.965 725.752 423.954 727.228 423.749C728.348 418.752 727.806 412.071 727.972 406.866L728.084 400.018C730.869 399.894 733.415 400.086 736.171 400.428C736.646 394.982 736.507 389.531 736.398 384.075L736.045 377.138L743.976 376.422C744.197 373.606 744.091 370.794 744.022 367.974Z"/>
	<path fill="#734067" transform="scale(0.423136 0.423136)" d="M257.92 327.56L264.109 327.408L263.769 328.797L263.957 336.077L272.556 335.961L272.511 343.735Q271.936 355.508 271.995 367.295Q276.237 367.123 280.482 367.016C280.372 375.17 279.932 383.367 280.052 391.516L288.49 391.485C288.323 399.653 287.911 407.841 287.97 416.009L295.381 415.99L295.484 424.021L302.891 423.979C303.151 426.634 303.465 429.295 303.631 431.958L304.005 432.159L304.047 447.876L312.028 448.013L311.852 455.985C314.473 455.973 317.669 455.603 320.188 456.306C319.328 474.612 320.662 493.38 320.032 511.985L312.223 512.007C312.339 522.652 312.558 533.343 312.107 543.981L303.97 544.009C304.095 551.996 304.342 560.007 303.992 567.99L287.902 568.008L279.98 568.041C274.937 567.207 269.674 567.634 264.603 567.948L264.514 552.002C259.569 551.877 254.598 551.941 249.65 551.917Q249.7 544.501 249.477 537.089C235.7 536.409 221.688 536.867 207.888 536.987L207.649 537.113C202.754 536.832 197.845 536.952 192.945 536.999C192.801 541.838 192.402 546.81 192.593 551.64L192.494 551.966C192.487 555.646 192.384 559.286 192.14 562.958C187.062 563.082 181.983 563.257 176.904 563.09L176.984 578.004L166.157 577.949C165.868 558.105 165.541 538.293 166.009 518.448L152.082 518.461C151.82 508.068 151.924 497.724 152.098 487.332L151.541 487.008L142.965 487.051C143.056 482.366 143.384 477.549 142.964 472.88C138.014 472.744 133.143 472.73 128.192 472.961Q128.141 468.102 128.191 463.244L127.669 462.254C112.17 461.758 95.9561 461.46 80.4892 462.49C78.2539 453.298 79.8516 441.525 79.9894 432.003L88.2047 431.428C87.7047 426.358 88.0112 421.093 88.0366 415.998L95.8341 415.991C96.4853 410.842 95.8943 405.265 95.5521 400.088C101.021 399.587 106.36 399.71 111.836 399.887L111.877 399.521C111.956 396.21 111.62 392.934 111.782 389.6L112.014 383.52L120.018 383.481L127.536 383.576C127.486 378.232 127.277 372.773 127.94 367.463L143.884 367.463L144.004 360.036C146.604 360.045 149.21 359.924 151.809 359.846L151.931 359.334L152.01 351.983L159.236 351.99C159.839 349.178 159.926 346.427 160.022 343.563L167.768 343.527C170.518 343.547 173.311 343.476 176.055 343.614C178.418 343.954 182.133 344.49 184.37 343.525L184.423 335.49L192.438 335.495L192.488 328.005L257.92 327.56Z"/>
	<path fill="#4A2242" transform="scale(0.423136 0.423136)" d="M249.477 537.089C254.485 536.492 259.447 536.523 264.479 536.534C264.461 541.681 264.328 546.858 264.514 552.002C259.569 551.877 254.598 551.941 249.65 551.917Q249.7 544.501 249.477 537.089Z"/>
	<path fill="#4A2242" transform="scale(0.423136 0.423136)" d="M264.514 552.002L280.006 551.991C279.979 557.337 279.865 562.697 279.98 568.041C274.937 567.207 269.674 567.634 264.603 567.948L264.514 552.002Z"/>
	<path fill="#4A2242" transform="scale(0.423136 0.423136)" d="M208.006 524.165C221.649 524.715 235.342 524.477 248.995 524.426C248.95 528.424 248.453 533.236 249.477 537.089C235.7 536.409 221.688 536.867 207.888 536.987Q208.001 530.576 208.006 524.165Z"/>
	<path fill="#4A2242" transform="scale(0.423136 0.423136)" d="M257.92 327.56L264.109 327.408L263.769 328.797L263.957 336.077L272.556 335.961L272.511 343.735Q271.936 355.508 271.995 367.295Q276.237 367.123 280.482 367.016C280.372 375.17 279.932 383.367 280.052 391.516L288.49 391.485C288.323 399.653 287.911 407.841 287.97 416.009L295.381 415.99L295.484 424.021L302.891 423.979C303.151 426.634 303.465 429.295 303.631 431.958L287.516 431.995L287.466 423.996L279.503 423.971Q279.517 419.991 279.411 416.012L271.479 415.996C271.497 410.835 271.765 405.672 271.971 400.516C272.19 389.551 272.643 378.907 271.964 367.941L255.488 368.028L255.538 375.982L247.973 376.029L248.011 392.432L239.986 392.14L240.017 407.999L223.962 408.028L224.018 439.998L207.991 440.092L208.011 479.144C202.666 479.464 197.358 479.51 192.007 479.501L192.045 528.499L176.894 528.504C176.242 536.256 176.113 544.66 176.905 552.401Q184.705 552.389 192.494 551.966C192.487 555.646 192.384 559.286 192.14 562.958C187.062 563.082 181.983 563.257 176.904 563.09L176.984 578.004L166.157 577.949C165.868 558.105 165.541 538.293 166.009 518.448L152.082 518.461C151.82 508.068 151.924 497.724 152.098 487.332C157.053 487.794 162.054 487.506 167.051 488.021L167.016 496.029L176.023 495.994L176.004 455.941C181.326 455.898 186.658 455.693 191.978 455.561Q191.924 447.484 191.963 439.407L200.012 439.508L200.011 407.777L208.486 407.909Q207.992 395.963 208.183 384.008C213.462 384.082 218.749 384.042 224.029 384.053C224.985 373.184 224.525 362.022 224.519 351.113C216.342 351.497 208.168 351.49 199.984 351.505L199.994 360.002L168.024 360.015L168.008 367.944L159.984 367.952L160 375.959Q151.778 375.574 143.548 375.509C143.503 380.998 143.627 386.502 143.674 391.992L127.603 392.025L127.525 399.022L111.877 399.521C111.956 396.21 111.62 392.934 111.782 389.6L112.014 383.52L120.018 383.481L127.536 383.576C127.486 378.232 127.277 372.773 127.94 367.463L143.884 367.463L144.004 360.036C146.604 360.045 149.21 359.924 151.809 359.846L151.931 359.334L152.01 351.983L159.236 351.99C159.839 349.178 159.926 346.427 160.022 343.563L167.768 343.527C170.518 343.547 173.311 343.476 176.055 343.614C178.418 343.954 182.133 344.49 184.37 343.525L184.423 335.49L192.438 335.495L192.488 328.005L257.92 327.56Z"/>
	<path fill="#734067" transform="scale(0.423136 0.423136)" d="M199.984 351.505C208.168 351.49 216.342 351.497 224.519 351.113C224.525 362.022 224.985 373.184 224.029 384.053C218.749 384.042 213.462 384.082 208.183 384.008Q207.992 395.963 208.486 407.909L200.011 407.777L200.012 439.508L191.963 439.407Q191.924 447.484 191.978 455.561C186.658 455.693 181.326 455.898 176.004 455.941L176.023 495.994L167.016 496.029L167.051 488.021C162.054 487.506 157.053 487.794 152.098 487.332L151.541 487.008L142.965 487.051C143.056 482.366 143.384 477.549 142.964 472.88C138.014 472.744 133.143 472.73 128.192 472.961Q128.141 468.102 128.191 463.244L127.669 462.254C112.17 461.758 95.9561 461.46 80.4892 462.49C78.2539 453.298 79.8516 441.525 79.9894 432.003L88.2047 431.428C87.7047 426.358 88.0112 421.093 88.0366 415.998L95.8341 415.991C96.4853 410.842 95.8943 405.265 95.5521 400.088C101.021 399.587 106.36 399.71 111.836 399.887L111.877 399.521L127.525 399.022L127.603 392.025L143.674 391.992C143.627 386.502 143.503 380.998 143.548 375.509Q151.778 375.574 160 375.959L159.984 367.952L168.008 367.944L168.024 360.015L199.994 360.002L199.984 351.505Z"/>
	<path fill="#4A2242" transform="scale(0.423136 0.423136)" d="M128.191 463.244C133.314 463.976 138.845 463.53 144.023 463.477C143.717 466.538 143.536 469.369 144.005 472.439C146.49 472.022 148.974 471.543 151.486 471.332L151.541 487.008L142.965 487.051C143.056 482.366 143.384 477.549 142.964 472.88C138.014 472.744 133.143 472.73 128.192 472.961Q128.141 468.102 128.191 463.244Z"/>
	<path fill="#4A2242" transform="scale(0.423136 0.423136)" d="M95.5521 400.088C101.021 399.587 106.36 399.71 111.836 399.887L111.957 416.425L96.0203 416.477L95.9188 424.733L95.9982 431.996L88.2816 431.911C87.7224 437.315 87.9911 442.965 88.0673 448.4L128.004 448.418C128.039 453.051 128.068 457.632 127.669 462.254C112.17 461.758 95.9561 461.46 80.4892 462.49C78.2539 453.298 79.8516 441.525 79.9894 432.003L88.2047 431.428C87.7047 426.358 88.0112 421.093 88.0366 415.998L95.8341 415.991C96.4853 410.842 95.8943 405.265 95.5521 400.088Z"/>
	<path fill="#4A2242" transform="scale(0.423136 0.423136)" d="M415.938 376.062L423.526 376.009L423.454 391.996L431.62 392.054C433.922 402.215 431.842 414.535 431.988 424.967C429.8 424.898 426.588 424.356 424.94 426.13C422.556 428.698 424.075 437.471 424 441.04C426.492 441.01 429.149 440.776 431.612 441.124C431.35 448.756 431.454 456.403 431.482 464.039C434.147 464.125 436.784 464.233 439.447 464.046C439.448 467.32 438.225 477.329 440.358 479.277C442.155 480.918 445.771 480.137 447.992 479.935L448.001 497.029Q460.245 496.989 472.478 496.454L472.252 504.42Q512.117 504.568 551.981 504.309L552.023 496.488L557.483 496.498L569.418 496.504C571.542 496.529 574.005 496.816 576.017 496.086L576.001 480L584.201 480.009L584.587 479.973C584.424 482.282 584.298 484.574 583.881 486.855C586.597 486.955 589.334 486.993 592.045 487.164L592.115 487.989C597.091 487.405 602.078 487.487 607.079 487.489L607.001 480.461L647.026 480.512C646.967 475.482 646.571 470.12 647.299 465.151C647.511 467.396 647.549 469.569 647.495 471.823L647.509 480.507C650.559 480.531 653.831 480.77 656.847 480.391L656.965 480.736C661.995 479.912 666.956 480.213 672.014 480.439L672.181 475.12L671.967 471.712C675.069 472.146 678.202 472.034 681.326 472.013L686.991 471.888L686.924 463.952L696.015 463.931L696.008 471.52C695.959 482.344 695.75 493.193 695.955 504.015L703.981 504.006L703.989 528.024L719.498 528.006L719.483 560.563L727.98 560.526L727.981 576.043L736.88 576.002L736.954 568.011L744.528 567.991L744.5 561.034L752.947 560.994L753.048 552.032C756.565 552.053 762.382 552.783 765.489 551.263L765.459 563.459L752.655 563.451C752.666 568.24 752.492 573.101 752.704 577.88Q746.904 577.841 741.106 577.667C741.239 585.276 741.473 592.899 741.464 600.508L727.99 600.516L728.011 616.349L728.06 625.454L717.544 625.44L717.413 614.974C712.859 614.654 708.216 614.877 703.65 614.923C704.046 609.662 703.951 604.327 704.023 599.052C698.981 598.86 693.921 598.943 688.876 598.943C688.743 594.426 688.821 589.946 688.948 585.432C675.282 585.204 661.587 585.41 647.918 585.448L648 600L639.899 600.043C638.027 600.083 636.149 600.005 634.278 599.962C633.836 604.989 634.115 610.124 634.19 615.167L621.499 615.478L621.622 631.425Q614.251 631.398 606.881 631.45L606.96 640.849Q599.351 640.544 591.736 640.529L591.952 655.492C586.949 655.467 581.893 655.599 576.899 655.368C575.908 658.06 576.6 662.558 576.651 665.491L588.854 665.518C588.66 670.697 588.449 675.87 588.478 681.055L588.443 688.427C581.596 688.272 574.828 688.34 567.985 688.517L567.933 696.259C564.896 696.228 561.629 696.428 558.648 695.878C558.451 703.876 558.406 712.012 558.912 719.997L549.742 719.987C549.561 725.304 549.827 730.639 549.987 735.955C546.154 735.893 542.311 735.885 538.487 735.606C538.507 741.07 538.476 746.533 538.786 751.99L527.659 751.827Q527.623 759.91 527.901 767.989L515.894 767.986L516.003 782.969C512.037 782.762 508.052 782.716 504.081 782.607L504.351 767.937L489.486 767.947Q489.481 759.453 489.261 750.962L481.583 751.02C481.647 742.993 481.537 734.955 481.512 726.927L471.577 726.945L471.588 703.983L464.435 703.943C464.433 701.288 464.708 698.383 463.88 695.84C461.327 695.903 458.68 695.665 456.124 695.561C456.322 690.371 456.321 685.153 456.417 679.959C451.466 679.871 446.501 679.927 441.548 679.915L432.965 679.933L433.053 663.441C438.166 663.106 443.363 663.268 448.489 663.249L448.494 656C443.662 655.925 438.824 655.96 433.992 655.944L434.103 647.899L424.12 647.757C424.37 642.484 424.251 637.163 424.272 631.883L408.106 631.924Q408.124 623.721 408.013 615.519C402.698 615.486 397.376 615.572 392.061 615.606L391.956 599.991L391.577 599.903C388.665 599.699 385.706 599.715 382.787 599.649L375.188 599.539L375.221 584.979C361.709 584.689 348.145 584.901 334.629 585.014Q334.655 592.492 334.776 599.968Q327.085 599.922 319.393 599.985C319.182 603.463 319.21 606.982 319.144 610.468L303.954 610.473L304 624.568L295.649 624.447C295.49 616.132 295.971 607.84 295.549 599.521L289.578 599.468L279.773 599.472C280.118 589.009 279.966 578.51 279.98 568.041L287.902 568.008L303.992 567.99C304.342 560.007 304.095 551.996 303.97 544.009L312.107 543.981C312.558 533.343 312.339 522.652 312.223 512.007L320.032 511.985C320.662 493.38 319.328 474.612 320.188 456.306C317.669 455.603 314.473 455.973 311.852 455.985L312.028 448.013L327.992 447.988L327.998 463.516L335.643 463.491L335.533 472.02L343.409 471.977Q343.819 476.008 344.082 480.052C348.009 479.894 355.677 478.58 358.811 480.937C360.348 484.499 359.307 489.759 359.734 493.678L360.469 494.46C365.541 494.652 370.488 495.647 375.528 496.093L375.475 492.043C377.628 491.975 379.747 492.342 381.819 491.626C383.075 490.276 383.024 489.628 383.36 487.853C383.431 485.205 383.581 482.605 383.848 479.968C384.035 477.513 383.993 475.014 384.04 472.551C394.725 472.438 405.614 471.923 416.278 472.564C416.385 469.652 416.519 466.702 415.691 463.885C415.266 461.553 415.491 458.91 415.476 456.53L423.899 456.518C423.943 453.697 424.042 450.899 423.722 448.09C423.109 434.801 423.599 421.238 423.712 407.921L415.944 407.943Q416.079 392.002 415.938 376.062Z"/>
	<path fill="#B45174" transform="scale(0.423136 0.423136)" d="M296.003 592.496L303.487 592.584L303.179 599.51L296.097 599.399C295.927 597.128 296.026 594.778 296.003 592.496Z"/>
	<path fill="#734067" transform="scale(0.423136 0.423136)" d="M463.98 648.502L471.048 648.499L470.952 655.967L463.979 655.982L463.98 648.502Z"/>
	<path fill="#774797" transform="scale(0.423136 0.423136)" d="M471.048 648.499L480.106 648.5C480.064 650.962 479.996 653.426 480.042 655.889L470.952 655.967L471.048 648.499Z"/>
	<path fill="#583975" transform="scale(0.423136 0.423136)" d="M588.478 681.055L588.443 688.427C581.596 688.272 574.828 688.34 567.985 688.517L567.986 681.051L588.478 681.055Z"/>
	<path fill="#583975" transform="scale(0.423136 0.423136)" d="M471.298 663.954L487.989 664.015L488.003 672.032C482.662 672.014 477.291 671.876 471.956 672.118L471.881 679.829C469.258 680.029 466.614 680.322 463.982 680.248L464.014 672.014L471.479 671.993C471.461 669.315 471.362 666.632 471.298 663.954Z"/>
	<path fill="#583975" transform="scale(0.423136 0.423136)" d="M560.034 648.003C562.637 648.028 565.327 647.93 567.918 648.134L568.004 657.02C560.028 656.673 551.998 656.887 544.015 656.929L544.057 648.494C549.391 648.177 554.693 648.052 560.034 648.003Z"/>
	<path fill="#583975" transform="scale(0.423136 0.423136)" d="M432.65 555.117C433.366 556.527 433.139 558.48 433.138 560.049L448.026 559.964L448.03 576.055L432.511 576.199Q432.509 565.657 432.65 555.117Z"/>
	<path fill="#583975" transform="scale(0.423136 0.423136)" d="M559.96 663.992L567.998 664.073L567.999 672.546C565.936 672.323 563.897 671.92 561.868 672.484C560.67 673.601 560.311 674.239 560.258 675.904C560.217 677.194 560.251 678.491 560.274 679.78C558.128 680.122 555.934 680.728 553.814 680.074C551.83 678.04 552.103 675.308 551.921 672.604C546.929 671.43 541.052 671.994 535.933 672.029C535.864 669.389 535.918 666.74 535.928 664.099L552.008 663.987L551.983 672.056C554.707 672.464 557.249 672.419 559.99 672.316L559.96 663.992Z"/>
	<path fill="#9B3EAC" transform="scale(0.423136 0.423136)" d="M535.881 648.573L544.057 648.494L544.015 656.929C551.998 656.887 560.028 656.673 568.004 657.02L567.998 664.073L559.96 663.992L559.99 672.316C557.249 672.419 554.707 672.464 551.983 672.056L552.008 663.987L535.928 664.099L535.881 648.573Z"/>
	<path fill="#583975" transform="scale(0.423136 0.423136)" d="M383.848 479.968L432.054 480.01C432.785 482.541 432.576 485.952 432.19 488.553C416.047 487.388 399.567 488.296 383.36 487.853C383.431 485.205 383.581 482.605 383.848 479.968Z"/>
	<path fill="#9B3EAC" transform="scale(0.423136 0.423136)" d="M480.106 648.5L488.014 648.506L487.989 664.015L471.298 663.954C471.362 666.632 471.461 669.315 471.479 671.993L464.014 672.014L455.989 672.034L455.996 664.063L455.982 655.993L463.979 655.982L470.952 655.967L480.042 655.889C479.996 653.426 480.064 650.962 480.106 648.5Z"/>
	<path fill="#583975" transform="scale(0.423136 0.423136)" d="M455.996 664.063L464.059 663.947L464.014 672.014L455.989 672.034L455.996 664.063Z"/>
	<path fill="#734067" transform="scale(0.423136 0.423136)" d="M383.36 487.853C399.567 488.296 416.047 487.388 432.19 488.553C432.012 493.247 431.166 499.62 432.44 504.071C413.6 503.312 394.481 504.067 375.604 503.959L375.559 503.346C375.456 500.938 375.528 498.504 375.528 496.093L375.475 492.043C377.628 491.975 379.747 492.342 381.819 491.626C383.075 490.276 383.024 489.628 383.36 487.853Z"/>
	<path fill="#734067" transform="scale(0.423136 0.423136)" d="M647.026 480.512C646.967 475.482 646.571 470.12 647.299 465.151C647.511 467.396 647.549 469.569 647.495 471.823L647.509 480.507C650.559 480.531 653.831 480.77 656.847 480.391L656.965 480.736L657.057 482.7C657.074 486.924 657.198 491.178 656.857 495.39L656.135 495.759C653.598 495.873 651.062 496.009 648.521 496.019C648.48 498.6 648.688 501.459 648.242 503.994C631.157 504.065 613.852 503.331 596.793 504.141C595.299 504.11 593.487 504.336 592.195 503.499C591.12 498.663 591.865 492.935 592.115 487.989C597.091 487.405 602.078 487.487 607.079 487.489L607.001 480.461L647.026 480.512Z"/>
	<path fill="#734067" transform="scale(0.423136 0.423136)" d="M656.135 495.759L656.857 495.39C661.759 495.703 666.695 495.55 671.604 495.508L671.532 512.269C674.98 512.486 678.475 512.601 681.903 513.017Q681.449 520.514 681.48 528.025L690.023 528.006C690.025 535.998 689.902 544.016 690.226 552.001L704.031 552.006L703.999 584.688L695.95 584.526C695.77 579.004 695.646 573.521 695.782 567.995L663.505 568.004C663.525 570.481 663.718 572.979 662.994 575.372C660.628 577.572 645.107 576.048 640.94 576.06L640.909 582.104C639.576 583.56 637.903 585.007 637.37 586.954C637.529 588.319 637.745 589.009 638.509 590.154L637.797 590.869C635.908 592.732 633.643 592.98 633.522 596.02C633.486 596.901 633.619 597.746 633.735 598.617L633.357 599.651C630.252 600.979 626.528 600.415 623.243 600.191C622.503 591.023 623.002 581.557 623.002 572.351L622.996 521.051L647.53 521.013C647.502 517.988 647.653 515.006 647.838 511.989L656.491 511.994C656.519 508.438 657.364 498.783 656.135 495.759Z"/>
	<path fill="#734067" transform="scale(0.423136 0.423136)" d="M361.106 503.994C363.384 503.959 365.712 504.025 367.981 503.853L368.013 520.509C378.87 520.322 389.721 519.956 400.581 520.01C400.887 545.877 402.288 574.261 400.389 599.954L391.956 599.991L391.577 599.903L391.499 592.037L383.497 592.023L383.491 584.496L375.87 584.523L376.053 576.489L328.02 575.986L327.941 592.993L319.764 593.028C320.843 582.16 320.026 570.5 319.998 559.537C322.68 559.506 325.347 559.199 328.015 558.947L328.033 520.172C333.999 521.438 338.606 523.608 344.875 523.52L344.999 504.587C350.283 503.744 355.768 503.997 361.106 503.994Z"/>
	<path fill="#583975" transform="scale(0.423136 0.423136)" d="M463.969 616.457C469.298 616.549 474.662 616.774 479.989 616.582L480.016 632.464L544.793 631.992L544.665 617.982C549.931 618.18 555.26 618.521 560.527 618.452L560.507 624.37L552.863 624.195C553.153 626.774 553.497 629.35 553.558 631.946L560.004 632.061L559.941 639.183L559.736 639.412C549.03 640.38 538.221 640.044 527.484 639.994L527.502 679.982C533.001 679.977 538.501 680.048 543.987 679.624C544.019 682.466 543.909 685.388 544.102 688.218L544.003 703.977L536.058 703.441L535.821 727.973L528.021 727.996L528.018 736.02L520.021 736.008L520.022 751.974L504.412 752.015C504.122 749.365 504.134 746.655 504.047 743.99L496.989 744.037C496.942 740.015 498.08 722.966 495.624 720.455C493.178 719.687 490.546 719.977 488.009 720.042Q487.694 699.75 488.552 679.473L496.006 679.494L496 640.331Q483.742 640.516 471.482 640.522L471.55 631.966C468.981 632.04 466.406 632.206 463.838 632.332L463.969 616.457Z"/>
	<path fill="#4A2242" transform="scale(0.423136 0.423136)" d="M504.008 648.49L520.452 648.488C520.421 650.955 520.571 653.574 520.237 656.015L504.012 655.998L504.008 648.49Z"/>
	<path fill="#734067" transform="scale(0.423136 0.423136)" d="M432.496 504.952C436.883 503.637 443.417 504.46 447.986 504.817L448.041 512.568Q456.057 512.604 464.072 512.47L575.684 512.16C576.251 509.888 575.995 507.191 576.017 504.84C581.117 504.443 586.298 504.596 591.413 504.579L591.407 541.341C591.338 550.25 590.938 559.096 591.544 567.996L583.511 568.02L583.53 575.92C581.033 576.138 578.521 576.414 576.02 576.566L576.015 593.01C576.011 597.919 576.188 602.901 575.896 607.799L575.398 607.97L560.507 608.048L560.527 618.452C555.26 618.521 549.931 618.18 544.665 617.982L544.793 631.992L480.016 632.464L479.989 616.582C474.662 616.774 469.298 616.549 463.969 616.457L464.005 608.025L447.54 608.02C447.512 602.821 447.501 597.666 447.848 592.475C448.019 587.012 447.972 581.521 448.03 576.055L448.026 559.964L433.138 560.049C433.139 558.48 433.366 556.527 432.65 555.117C432.154 538.314 432.013 521.758 432.496 504.952Z"/>
	<path fill="#583975" transform="scale(0.423136 0.423136)" d="M576.015 593.01C576.011 597.919 576.188 602.901 575.896 607.799L575.398 607.97L560.507 608.048L560.569 592.965L576.015 593.01Z"/>
	<path fill="#583975" transform="scale(0.423136 0.423136)" d="M447.848 592.475Q455.942 592.12 464.042 591.966L464.005 608.025L447.54 608.02C447.512 602.821 447.501 597.666 447.848 592.475Z"/>
	<path fill="#583975" transform="scale(0.423136 0.423136)" d="M464.072 512.47L575.684 512.16C570.409 512.888 564.883 512.579 559.561 512.512L559.503 519.994L463.991 520.048L464.072 512.47Z"/>
	<path fill="#9658B2" transform="scale(0.423136 0.423136)" d="M454.281 529.205C459.855 528.49 465.965 528.982 471.593 529.022L471.495 536.109C482.52 536.566 493.579 536.501 504.612 536.674C517.909 536.883 531.832 537.383 545.066 536.115L545.022 529.119C555.37 528.907 565.679 529.243 576.023 529.402L576.009 535.995L567.975 536.011C567.89 544.002 567.994 552.003 568.016 559.996L551.496 560.018C551.522 564.118 552.443 572.431 551.31 575.996L546.75 576.025L535.81 576.077C535.642 581.37 535.857 586.701 535.935 591.996L519.847 592.017L519.489 608.029L504.443 608.013C504.166 602.977 504.221 597.903 504.163 592.86L488.052 592.93L488.082 576.049Q480.026 576.194 471.969 576.098L472.004 560.487L455.993 560.513L455.992 535.493C454.5 535.526 452.582 535.739 451.124 535.443C449.411 535.095 448.515 534.299 447.565 532.891C447.682 532.186 447.629 531.738 448.121 531.179C449.867 529.195 451.84 529.326 454.281 529.205Z"/>
</svg>
