<?xml version="1.0" encoding="utf-8" ?>
<svg xmlns="http://www.w3.org/2000/svg" xmlns:xlink="http://www.w3.org/1999/xlink" width="205" height="205">
	<path transform="matrix(0.200276 0.000403497 -0.000403497 0.200276 0.413147 0)" d="M720.071 422.158L735.484 422.026C735.495 427.8 735.255 433.708 735.58 439.465L720.036 439.471C720.796 434.058 720.132 427.664 720.071 422.158Z"/>
	<path transform="matrix(0.200276 0.000403497 -0.000403497 0.200276 0.413147 0)" d="M289.062 423.03L305.706 423.035C305.678 428.513 305.844 434.076 305.582 439.543C300.158 439.448 294.713 439.546 289.286 439.55C288.98 434.073 289.087 428.519 289.062 423.03Z"/>
	<path transform="matrix(0.200276 0.000403497 -0.000403497 0.200276 0.413147 0)" d="M650.442 271.622C650.523 276.937 650.795 282.377 650.309 287.674L650.036 287.975C644.231 288.095 638.399 287.98 632.591 287.975C633.531 282.878 633.063 277.216 633.028 272.036C638.679 272.104 644.91 272.633 650.442 271.622Z"/>
	<path transform="matrix(0.200276 0.000403497 -0.000403497 0.200276 0.413147 0)" d="M579.2 327.667L596.372 327.511L596.366 328.083C595.206 333.14 595.898 339.303 596.012 344.494Q587.462 344.9 578.902 344.966C579.752 339.283 579.42 333.392 579.2 327.667Z"/>
	<path transform="matrix(0.200276 0.000403497 -0.000403497 0.200276 0.413147 0)" d="M615.379 288L632.591 287.975L632.428 291.459C631.836 295.841 631.877 300.584 632.017 305.006L614.86 305.033C615.55 299.363 615.399 293.7 615.379 288Z"/>
	<path transform="matrix(0.200276 0.000403497 -0.000403497 0.200276 0.413147 0)" d="M374.546 271.419C380.347 271.524 386.156 271.694 391.958 271.718C391.961 276.974 391.436 282.871 392.279 288.049L374.477 287.992L374.546 271.419Z"/>
	<path transform="matrix(0.200276 0.000403497 -0.000403497 0.200276 0.413147 0)" d="M392.279 288.049C398.166 288.063 404.134 287.898 410.011 288.182Q410.189 296.848 410.037 305.515C405.03 304.083 398.204 304.87 392.966 304.97L392.634 304.441C392.166 299.026 392.668 293.5 392.279 288.049Z"/>
	<path transform="matrix(0.200276 0.000403497 -0.000403497 0.200276 0.413147 0)" d="M560.994 345.035L578.534 344.998L578.425 355.368C578.169 357.942 577.965 360.46 577.949 363.05C572.179 362.956 566.393 363.054 560.621 363.072C561.479 357.218 561.023 350.946 560.994 345.035Z"/>
	<path transform="matrix(0.200276 0.000403497 -0.000403497 0.200276 0.413147 0)" d="M427.966 327.056Q436.889 327.177 445.812 327.101C445.872 333.073 445.85 339.059 446.017 345.028Q437.228 345.01 428.44 344.826L428.279 344.447C427.546 338.787 427.958 332.764 427.966 327.056Z"/>
	<path transform="matrix(0.200276 0.000403497 -0.000403497 0.200276 0.413147 0)" d="M849.659 538.082C855.449 537.916 861.192 537.786 866.983 538.016C866.767 544.135 866.81 550.218 866.928 556.339C860.933 556.369 854.93 556.457 848.935 556.402C849.13 550.215 848.565 544.243 849.659 538.082Z"/>
	<path transform="matrix(0.200276 0.000403497 -0.000403497 0.200276 0.413147 0)" d="M361.555 699.979C367.076 700.003 373.457 700.657 378.885 699.808C379.826 706.537 378.49 713.301 379.432 719.963C373.521 719.774 367.556 719.94 361.639 719.953C362.06 713.563 362.389 706.321 361.555 699.979Z"/>
	<path transform="matrix(0.200276 0.000403497 -0.000403497 0.200276 0.413147 0)" d="M698.024 439.456L720.036 439.471Q719.979 447.458 720.042 455.445C712.573 455.255 705.056 455.132 697.597 455.603C698.268 450.31 698.001 444.789 698.024 439.456Z"/>
	<path transform="matrix(0.200276 0.000403497 -0.000403497 0.200276 0.413147 0)" d="M379.432 719.963L398.066 720.006C397.992 725.999 397.059 733.583 398.294 739.417C392.048 739.06 385.773 739.356 379.524 739.536Q379.703 729.748 379.432 719.963Z"/>
	<path transform="matrix(0.200276 0.000403497 -0.000403497 0.200276 0.413147 0)" d="M721.436 738.98C727.792 738.986 734.199 738.818 740.549 739.016L740.37 758.008L721.193 757.987Q721.521 748.486 721.436 738.98Z"/>
	<path transform="matrix(0.200276 0.000403497 -0.000403497 0.200276 0.413147 0)" d="M609.216 738.876C615.004 739.165 620.726 739.094 626.515 738.953L626.433 758.937C620.296 758.965 614.091 758.825 607.966 759.151C608.04 753.681 608.48 747.747 607.706 742.336C608.039 740.881 608.296 740.103 609.216 738.876Z"/>
	<path transform="matrix(0.200276 0.000403497 -0.000403497 0.200276 0.413147 0)" d="M410.037 305.515C415.85 306.431 421.867 305.448 427.727 305.905C427.802 312.948 427.718 320.019 427.966 327.056L422.233 326.926C418.359 326.141 413.932 326.407 409.995 326.363Q409.897 315.939 410.037 305.515Z"/>
	<path transform="matrix(0.200276 0.000403497 -0.000403497 0.200276 0.413147 0)" d="M239.577 328.047C245.031 328.033 250.498 327.948 255.951 328.033C255.932 339.362 255.734 350.731 255.967 362.055L239.836 362.006C240.026 360.42 239.95 358.837 239.93 357.243C240.054 347.531 240.286 337.739 239.577 328.047Z"/>
	<path transform="matrix(0.200276 0.000403497 -0.000403497 0.200276 0.413147 0)" d="M266.435 700.461L281.996 700.466Q281.866 718.499 282.029 736.531C276.719 736.496 271.389 736.712 266.079 736.824Q266.003 718.64 266.435 700.461Z"/>
	<path transform="matrix(0.200276 0.000403497 -0.000403497 0.200276 0.413147 0)" d="M102.405 338.143C107.726 338.013 113.063 338.043 118.386 338C118.322 351.072 119.179 364.499 118.059 377.517C112.816 377.409 107.598 377.319 102.354 377.494C103.07 364.482 102.481 351.179 102.405 338.143Z"/>
	<path transform="matrix(0.200276 0.000403497 -0.000403497 0.200276 0.413147 0)" d="M607.966 759.151C607.596 772.744 607.889 786.393 607.956 799.992L591.51 800.004C592.964 786.939 591.996 772.742 591.997 759.548Q599.98 759.274 607.966 759.151Z"/>
	<path transform="matrix(0.200276 0.000403497 -0.000403497 0.200276 0.413147 0)" d="M416.929 759.517C422.258 759.502 427.65 759.314 432.97 759.614L433.318 759.954Q433.646 779.961 433.519 799.971C428.043 799.764 422.518 799.941 417.036 799.969Q417.364 779.742 416.929 759.517Z"/>
	<path transform="matrix(0.200276 0.000403497 -0.000403497 0.200276 0.413147 0)" d="M937.018 423.926C941.998 424.112 946.973 424.091 951.956 424.079C951.92 438.492 950.915 456.534 952.259 470.539Q944.702 470.682 937.145 470.498C937.011 454.963 937.438 439.467 937.018 423.926Z"/>
	<path transform="matrix(0.200276 0.000403497 -0.000403497 0.200276 0.413147 0)" d="M829.792 559.599C829.979 558.446 829.99 558.238 830.742 557.364C835.89 555.412 842.99 556.469 848.449 556.657Q848.518 566.244 848.321 575.83L830.853 575.929C830.671 582.281 830.8 588.639 830.867 594.992L813.041 594.969C812.853 588.593 812.983 582.184 812.991 575.804L830.024 575.593C830.022 570.26 830.064 564.927 829.792 559.599Z"/>
	<path transform="matrix(0.200276 0.000403497 -0.000403497 0.200276 0.413147 0)" d="M645.925 700.001L662.958 699.919L662.928 720.168L646.41 720.343L646.436 738.953C640.106 738.995 633.201 739.554 626.929 738.721Q626.952 734.749 626.911 730.778C627.067 727.35 626.92 723.861 626.901 720.426C631.17 720.607 641.331 722.043 644.362 718.873C647.84 715.235 646.15 704.828 645.925 700.001Z"/>
	<path transform="matrix(0.200276 0.000403497 -0.000403497 0.200276 0.413147 0)" d="M231.084 633.936C236.863 633.704 242.814 633.192 248.56 634.021C248.626 638.305 248.434 642.771 248.915 647.024L248.992 661.497L266.601 661.489L266.503 699.698L266.235 700.041C260.532 699.785 254.781 699.952 249.072 699.971C249.208 687.302 249.08 674.622 249.048 661.953C243.082 661.723 237.036 661.94 231.062 661.98C231.177 652.657 231.555 643.248 231.084 633.936Z"/>
	<path transform="matrix(0.200276 0.000403497 -0.000403497 0.200276 0.413147 0)" d="M874.616 255.54C879.378 255.441 884.126 255.371 888.88 255.759C888.625 264.443 887.179 296.488 889.368 302.477C892.88 305.109 901.194 304.438 905.493 304.616C905.486 315.383 904.587 327.034 906.058 337.688C900.945 337.178 895.593 337.497 890.449 337.504L890.458 304.011L874.466 304.009Q874.722 285.611 874.591 267.211L874.616 255.54Z"/>
	<path transform="matrix(0.200276 0.000403497 -0.000403497 0.200276 0.413147 0)" d="M337.946 345.068Q348.785 344.845 359.627 344.887Q359.993 361.937 359.883 378.99C359.851 386.634 359.508 394.387 360.012 402.011C352.71 401.88 345.391 401.985 338.088 401.989Q338.586 373.527 337.946 345.068Z"/>
	<path transform="matrix(0.200276 0.000403497 -0.000403497 0.200276 0.413147 0)" d="M663.018 680.625L701.81 680.626L701.813 698.994L710.502 698.978L710.49 720.165C714.029 720.582 717.589 720.469 721.146 720.441C721.272 726.606 721.165 732.826 721.436 738.98C715.646 738.855 709.839 738.981 704.047 739.017L704.08 720.452Q696.027 720.209 687.97 720.213C688.237 717.506 688.349 714.779 688.509 712.063L695.999 712.022L696.042 699.609C685.041 699.74 674.016 699.572 663.011 699.606C662.897 693.285 663.001 686.947 663.018 680.625Z"/>
	<path transform="matrix(0.200276 0.000403497 -0.000403497 0.200276 0.413147 0)" d="M175.495 553.398C181.82 554.321 188.609 553.875 195.006 553.764C194.979 560.671 194.852 567.598 195.137 574.5L213.953 574.491C213.85 582.638 213.565 590.826 213.667 598.971L231.026 598.998Q230.699 616.468 231.084 633.936C225.276 633.734 219.398 633.929 213.582 633.952C213.707 622.297 213.97 610.614 213.769 598.96C207.805 598.77 201.788 598.942 195.819 598.964C195.97 590.983 196.022 582.894 195.629 574.923Q185.583 575.035 175.537 574.945L175.495 553.398Z"/>
	<path transform="matrix(0.200276 0.000403497 -0.000403497 0.200276 0.413147 0)" d="M101.286 520.997L157.007 520.981L157.019 537.364C161.285 537.396 165.618 537.596 169.877 537.425C170.835 537.281 170.457 537.306 171.327 537.285C172.754 537.25 173.897 537.191 175.267 536.78L175.801 535.625L176.204 537.076C181.139 539.213 189.597 538.057 195.041 537.986L195.006 553.764C188.609 553.875 181.82 554.321 175.495 553.398C169.953 552.421 163.107 553.176 157.446 553.275L157.358 537.651Q139.555 538.052 121.747 538.005C114.927 538.023 107.678 538.469 100.909 537.649C100.832 532.165 100.48 526.431 101.286 520.997Z"/>
	<path fill="#16803A" transform="matrix(0.200276 0.000403497 -0.000403497 0.200276 0.413147 0)" d="M169.877 537.425C170.835 537.281 170.457 537.306 171.327 537.285C172.754 537.25 173.897 537.191 175.267 536.78L175.801 535.625L176.204 537.076C181.139 539.213 189.597 538.057 195.041 537.986L195.006 553.764C188.609 553.875 181.82 554.321 175.495 553.398C175.306 548.244 175.515 543.09 175.284 537.933C173.757 537.247 171.554 537.474 169.877 537.425Z"/>
	<path transform="matrix(0.200276 0.000403497 -0.000403497 0.200276 0.413147 0)" d="M359.453 680.223C360.655 681.1 361.131 681.464 361.408 682.973C362.405 688.422 361.201 694.426 361.555 699.979L335.959 699.856Q335.931 709.894 336.006 719.932L320.046 719.886L320.025 736.972C314.337 736.916 308.538 737.085 302.865 736.761Q302.931 744.304 302.889 751.847L282.011 751.935C282.033 746.82 282.22 741.638 282.029 736.531C288.804 736.383 295.599 736.475 302.376 736.465C302.2 730.848 302.265 725.214 302.246 719.595L319.955 719.697C319.917 707.502 318.936 693.46 320.19 681.495C321.227 680.367 321.578 680.546 323.057 680.384C333.13 680.594 349.966 681.719 359.453 680.223Z"/>
	<path transform="matrix(0.200276 0.000403497 -0.000403497 0.200276 0.413147 0)" d="M446.017 345.028L463.281 345.081Q463.533 354.153 463.444 363.228C468.022 363.096 475.714 361.921 479.845 363.88C481.123 365.789 479.346 367.952 482.051 368.606C487.254 369.863 494.603 369.077 500.047 369.097L543.335 369.015L543.783 363.597C549.393 363.046 554.991 363.084 560.621 363.072Q560.465 373.484 560.519 383.896C549.037 384.354 537.409 384.011 525.911 384.012L463.506 383.955L463.426 383.403C463.51 379.045 464.622 367.228 462.944 363.663L461.702 363.398C456.928 362.564 451.052 364.186 446.588 362.538L446.169 361.134C445.826 355.823 446.037 350.356 446.017 345.028Z"/>
	<path transform="matrix(0.200276 0.000403497 -0.000403497 0.200276 0.413147 0)" d="M319.205 255.964C337.505 256.241 355.83 256.08 374.132 256.114L374.404 270.856C367.982 270.164 361.31 270.522 354.858 270.539L337.12 270.531Q337.255 293.169 336.767 315.802C336.628 325.105 335.897 335.848 337.321 345.044C331.307 344.814 325.231 344.985 319.211 344.997C319.671 335.167 319.113 325.055 319.093 315.2L319.205 255.964Z"/>
	<path transform="matrix(0.200276 0.000403497 -0.000403497 0.200276 0.413147 0)" d="M650.436 256.115Q677.524 256.281 704.611 255.933C705.146 266.706 704.635 277.626 704.577 288.417L704.607 344.074Q694.9 344.416 685.188 344.444C686.412 337.705 685.993 330.014 686.089 323.134Q686.324 297.088 685.94 271.043C682.219 270.996 672.344 269.788 669.438 272.091C669.247 271.893 668.973 271.598 668.764 271.454C665.189 268.995 654.607 270.185 650.566 271.149Q650.429 263.633 650.436 256.115Z"/>
	<path transform="matrix(0.200276 0.000403497 -0.000403497 0.200276 0.413147 0)" d="M801.741 256.038Q809.844 256.078 817.945 255.87C817.492 266.654 816.984 277.794 817.651 288.567L816.982 289.274C812.601 289.63 805.508 288.166 801.761 290.19C801.369 291.144 801.4 291.865 801.43 292.885C800.176 304.129 800.972 316.162 800.969 327.503C801.035 339.566 801.493 351.861 800.872 363.901C795.56 364.233 790.21 364.07 784.89 364.03Q776.934 363.979 768.979 364.064L769.039 328.058L785.206 327.957L785.378 289.465Q793.448 289.288 801.52 289.273Q801.797 272.657 801.741 256.038Z"/>
	<path fill="#6CEC64" transform="matrix(0.200276 0.000403497 -0.000403497 0.200276 0.413147 0)" d="M800.969 327.503C801.035 339.566 801.493 351.861 800.872 363.901C795.56 364.233 790.21 364.07 784.89 364.03C784.62 351.919 784.307 339.923 785.126 327.823C790.349 327.378 795.724 327.563 800.969 327.503Z"/>
	<path transform="matrix(0.200276 0.000403497 -0.000403497 0.200276 0.413147 0)" d="M795.98 594.999L813.041 594.969Q813.27 616.999 813.032 639.028L795.716 639.055Q795.569 650.99 795.664 662.926L776.536 662.877L776.587 700.431L759.029 700.415C758.412 713.145 758.395 726.188 758.784 738.927C752.758 738.977 746.558 739.322 740.549 739.016C741.009 726.04 740.631 712.946 740.567 699.958L759.362 700C759.719 687.528 759.479 674.981 759.505 662.5L775.499 662.445C775.543 654.748 775.748 647.044 775.306 639.355C779.045 637.986 791.323 638.919 795.839 638.979C796.258 624.344 795.985 609.642 795.98 594.999Z"/>
	<path transform="matrix(0.200276 0.000403497 -0.000403497 0.200276 0.413147 0)" d="M70.6212 424.122L86.5058 424.01C86.5046 438.759 86.8909 453.625 86.3413 468.359L85.9284 470.489C85.1113 471.027 85.0046 471.092 84.1085 471.21L85.322 471.869C86.9365 477.412 86.4304 527.534 85.8014 536.183L85.2349 536.911L83.1746 537.112L82.9919 537.423C88.8824 537.421 95.0494 537.076 100.909 537.649C100.508 542.988 100.632 548.394 100.602 553.746C94.2686 553.781 87.9264 553.651 81.593 553.594Q81.5431 565.029 81.7723 576.461Q68.146 576.534 54.522 576.795L54.4961 471.117Q62.7045 471.206 70.9125 471.086C71.0537 455.456 70.757 439.757 70.6212 424.122Z"/>
	<path fill="#16803A" transform="matrix(0.200276 0.000403497 -0.000403497 0.200276 0.413147 0)" d="M70.9574 537.016C75.0253 537.046 79.1092 536.997 83.1746 537.112L82.9919 537.423L81.6773 537.902C79.9069 541.905 81.1591 549.101 81.4137 553.483L71.0106 553.496L70.9574 537.016Z"/>
	<path fill="#6CEC64" transform="matrix(0.200276 0.000403497 -0.000403497 0.200276 0.413147 0)" d="M70.9798 471.111C75.37 471.026 79.7198 470.983 84.1085 471.21L85.322 471.869C86.9365 477.412 86.4304 527.534 85.8014 536.183L85.2349 536.911L83.1746 537.112C79.1092 536.997 75.0253 537.046 70.9574 537.016L70.9798 471.111Z"/>
	<path fill="#6CEC64" transform="matrix(0.200276 0.000403497 -0.000403497 0.200276 0.413147 0)" d="M239.836 362.006L255.967 362.055L271.865 362.041C271.809 373.016 270.723 390.678 272.247 401.055L288.592 401.044C288.571 408.364 288.353 415.74 289.062 423.03C289.087 428.519 288.98 434.073 289.286 439.55C294.713 439.546 300.158 439.448 305.582 439.543Q315.261 439.676 324.94 439.639C324.976 444.928 324.911 450.245 325.074 455.531L325.486 455.86L325.515 471.485C313.682 471.617 301.752 472.058 289.932 471.337L288.61 470.995C288.217 465.679 288.37 460.433 288.526 455.112Q280.542 455.194 272.561 454.952L272.222 453.096C271.848 448.08 272.081 442.968 272.122 437.939L255.518 438.001L255.5 421.637C250.182 421.412 244.798 421.527 239.473 421.497L239.512 400.979L239.407 400.486C239.384 388.917 237.978 373.108 239.836 362.006Z"/>
	<path transform="matrix(0.200276 0.000403497 -0.000403497 0.200276 0.413147 0)" d="M305.582 439.543Q315.261 439.676 324.94 439.639C324.976 444.928 324.911 450.245 325.074 455.531L305.45 455.547Q305.356 447.544 305.582 439.543Z"/>
	<path fill="#0A5B33" transform="matrix(0.200276 0.000403497 -0.000403497 0.200276 0.413147 0)" d="M239.512 400.979C244.867 400.963 250.232 401.013 255.585 400.894L255.5 421.637C250.182 421.412 244.798 421.527 239.473 421.497L239.512 400.979Z"/>
	<path transform="matrix(0.200276 0.000403497 -0.000403497 0.200276 0.413147 0)" d="M272.247 401.055L288.592 401.044C288.571 408.364 288.353 415.74 289.062 423.03L272.417 423.001C272.455 415.806 273.002 408.195 272.247 401.055Z"/>
	<path transform="matrix(0.200276 0.000403497 -0.000403497 0.200276 0.413147 0)" d="M255.967 362.055L271.865 362.041C271.809 373.016 270.723 390.678 272.247 401.055Q264.048 400.75 255.848 401.013C256.152 388.042 255.969 375.031 255.967 362.055Z"/>
	<path transform="matrix(0.200276 0.000403497 -0.000403497 0.200276 0.413147 0)" d="M866.585 158.496Q881.589 158.611 896.593 158.574L896.61 210.863L881.029 210.77C879.565 223.274 880.523 236.943 880.519 249.577C875.819 249.692 871.153 249.843 866.46 249.466C865.519 246.549 865.882 243.125 865.941 240.094L865.985 230.949C855.41 231.022 844.303 230.227 833.815 231.453Q833.57 239.857 833.568 248.264C833.508 250.843 833.407 253.421 833.533 255.999L817.945 255.87C819.52 241.737 818.269 224.77 818.08 210.405C823.395 210.218 828.744 210.335 834.064 210.334C834.14 204.607 834.059 198.867 834.052 193.139L850.222 193.116C850.024 187.731 850.1 182.321 850.073 176.932Q858.501 177.052 866.929 176.953C866.6 170.799 866.596 164.656 866.585 158.496Z"/>
	<path fill="#2FA85A" transform="matrix(0.200276 0.000403497 -0.000403497 0.200276 0.413147 0)" d="M867.467 194.44C872.013 194.458 876.913 194.137 881.412 194.693C880.885 199.774 881.212 204.911 881.014 210.009L866.027 209.883Q865.971 202.156 866.074 194.429L867.467 194.44Z"/>
	<path fill="#6CEC64" transform="matrix(0.200276 0.000403497 -0.000403497 0.200276 0.413147 0)" d="M867.482 177.021L883.709 177.01C883.984 181.001 885.542 190.76 882.855 193.824C882.469 194.264 881.94 194.486 881.412 194.693C876.913 194.137 872.013 194.458 867.467 194.44L867.482 177.021Z"/>
	<path fill="#6CEC64" transform="matrix(0.200276 0.000403497 -0.000403497 0.200276 0.413147 0)" d="M850.707 194.268L866.074 194.429Q865.971 202.156 866.027 209.883L865.985 230.949C855.41 231.022 844.303 230.227 833.815 231.453C834.063 224.995 833.885 218.481 833.856 212.017C839.508 212.003 845.174 212.171 850.827 212.257L850.707 194.268Z"/>
	<path transform="matrix(0.200276 0.000403497 -0.000403497 0.200276 0.413147 0)" d="M937.145 470.498Q944.702 470.682 952.259 470.539L952.901 470.803L967.815 470.874L967.976 576.944Q955.521 576.884 943.066 576.987C943.411 569.714 943.441 562.442 943.49 555.162C936.56 555.705 929.433 555.431 922.476 555.452L922.33 537.445L887.372 537.576C880.769 537.627 874.031 538.105 867.453 537.504L867.717 521.969C885.788 521.792 903.872 521.963 921.944 521.998L921.556 484.934C920.989 480.137 920.987 475.46 920.998 470.64C926.366 470.852 931.775 470.606 937.145 470.498Z"/>
	<path fill="#2FA85A" transform="matrix(0.200276 0.000403497 -0.000403497 0.200276 0.413147 0)" d="M952.866 536.91C952.851 531.736 951.962 493.525 953.306 491.128L953.41 553.489L945.686 553.496Q945.618 545.298 945.655 537.1L952.866 536.91Z"/>
	<path fill="#2FA85A" transform="matrix(0.200276 0.000403497 -0.000403497 0.200276 0.413147 0)" d="M937.145 470.498Q944.702 470.682 952.259 470.539L952.901 470.803C953.313 477.537 953.421 484.383 953.306 491.128C951.962 493.525 952.851 531.736 952.866 536.91L945.655 537.1L936.459 537.103C931.616 536.977 926.861 537.018 922.021 537.226L921.944 521.998L921.556 484.934C920.989 480.137 920.987 475.46 920.998 470.64C926.366 470.852 931.775 470.606 937.145 470.498Z"/>
	<path fill="#0A5B33" transform="matrix(0.200276 0.000403497 -0.000403497 0.200276 0.413147 0)" d="M921.556 484.934L936.135 484.704L936.459 537.103C931.616 536.977 926.861 537.018 922.021 537.226L921.944 521.998L921.556 484.934Z"/>
	<path transform="matrix(0.200276 0.000403497 -0.000403497 0.200276 0.413147 0)" d="M127.557 159.086L158.257 159.293C158.626 165.248 158.365 171.36 158.455 177.336C163.779 177.761 169.079 177.581 174.408 177.699L174.411 194.107C179.491 194.128 184.595 194.045 189.672 194.224C189.659 199.812 189.431 205.494 189.865 211.065C195.042 211.082 200.23 211.036 205.405 211.126C205.438 226.075 205.119 241.1 205.601 256.036L222.596 256.036C222.543 266.574 222.317 277.146 222.636 287.68C217.449 286.769 211.223 287.58 205.942 287.79Q206.089 271.933 205.928 256.076L190.844 255.993L191.004 263.495L175.472 263.506C175.535 261.21 175.482 258.928 175.417 256.633L151.731 256.592L148.173 256.533C146.42 272.241 148.89 288.651 147.917 304.485C144.74 304.479 141.444 304.308 138.282 304.576C136.557 304.594 134.753 304.504 133.039 304.69C133.728 288.602 132.922 272.198 132.934 256.069L145.482 256.003C144.58 240.76 145.01 225.43 145.043 210.165C139.106 210.037 133.116 210.322 127.177 210.454Q127.065 184.767 127.557 159.086Z"/>
	<path fill="#16803A" transform="matrix(0.200276 0.000403497 -0.000403497 0.200276 0.413147 0)" d="M189.582 242.406C189.932 246.744 189.983 251.084 190.061 255.433Q182.554 255.287 175.046 255.272L174.998 249.006L189.464 249.011C189.436 246.811 189.529 244.605 189.582 242.406Z"/>
	<path fill="#6CEC64" transform="matrix(0.200276 0.000403497 -0.000403497 0.200276 0.413147 0)" d="M140.505 176.891C146.405 176.898 152.602 176.602 158.455 177.336Q158.19 185.668 158.184 194.005L174.209 194.036Q174.021 202.725 174.048 211.417C179.218 211.29 184.336 211.19 189.505 211.461L189.582 242.406C189.529 244.605 189.436 246.811 189.464 249.011L174.998 249.006L159.982 248.995L160 232.068L159.999 209.491L144.414 209.49Q144.449 204.715 144.371 199.941L140.639 197.245C140.241 190.465 140.412 183.678 140.505 176.891Z"/>
	<path fill="#16803A" transform="matrix(0.200276 0.000403497 -0.000403497 0.200276 0.413147 0)" d="M160 232.068L175.027 231.99L174.998 249.006L159.982 248.995L160 232.068Z"/>
	<path fill="#0A5B33" transform="matrix(0.200276 0.000403497 -0.000403497 0.200276 0.413147 0)" d="M337.12 270.531L354.858 270.539C361.31 270.522 367.982 270.164 374.404 270.856L374.546 271.419L374.477 287.992L392.279 288.049C392.668 293.5 392.166 299.026 392.634 304.441L392.966 304.97C398.204 304.87 405.03 304.083 410.037 305.515Q409.897 315.939 409.995 326.363C413.932 326.407 418.359 326.141 422.233 326.926L427.966 327.056C427.958 332.764 427.546 338.787 428.279 344.447L428.44 344.826Q437.228 345.01 446.017 345.028C446.037 350.356 445.826 355.823 446.169 361.134L446.588 362.538C451.052 364.186 456.928 362.564 461.702 363.398L462.944 363.663C464.622 367.228 463.51 379.045 463.426 383.403L463.506 383.955Q454.992 383.852 446.479 383.983C446.368 386.045 446.338 388.144 446.071 390.191C446.057 393.765 445.905 397.398 446.058 400.966C440.023 400.826 434.033 400.668 428.003 401.057L428.001 419.582L410.005 419.584L409.979 401.419C393.767 403.629 376.364 401.978 360.012 402.011C359.508 394.387 359.851 386.634 359.883 378.99Q359.993 361.937 359.627 344.887Q348.785 344.845 337.946 345.068L337.321 345.044C335.897 335.848 336.628 325.105 336.767 315.802Q337.255 293.169 337.12 270.531Z"/>
	<path fill="#6CEC64" transform="matrix(0.200276 0.000403497 -0.000403497 0.200276 0.413147 0)" d="M374.477 287.992L392.279 288.049C392.668 293.5 392.166 299.026 392.634 304.441C386.588 304.692 380.496 304.571 374.443 304.582C374.294 299.052 374.404 293.523 374.477 287.992Z"/>
	<path fill="#6CEC64" transform="matrix(0.200276 0.000403497 -0.000403497 0.200276 0.413147 0)" d="M392.963 345.014L410.002 344.966L409.994 363.057L392.993 363.019L392.963 345.014Z"/>
	<path fill="#6CEC64" transform="matrix(0.200276 0.000403497 -0.000403497 0.200276 0.413147 0)" d="M410.331 326.892Q416.282 326.987 422.233 326.926L427.966 327.056C427.958 332.764 427.546 338.787 428.279 344.447C422.162 344.23 416.15 344.238 410.038 344.461C409.609 338.424 409.334 332.9 410.331 326.892Z"/>
	<path fill="#6CEC64" transform="matrix(0.200276 0.000403497 -0.000403497 0.200276 0.413147 0)" d="M428.44 344.826Q437.228 345.01 446.017 345.028C446.037 350.356 445.826 355.823 446.169 361.134L445.805 362.454C442.196 364.286 432.71 363.063 428.472 362.804C427.427 360.946 427.898 347.475 428.44 344.826Z"/>
	<path fill="#6CEC64" transform="matrix(0.200276 0.000403497 -0.000403497 0.200276 0.413147 0)" d="M373.596 327.007L392.528 326.971Q392.625 335.764 392.412 344.555C386.258 344.79 380.087 344.746 373.929 344.784C373.507 338.871 373.6 332.933 373.596 327.007Z"/>
	<path fill="#6CEC64" transform="matrix(0.200276 0.000403497 -0.000403497 0.200276 0.413147 0)" d="M410.01 363.998C415.43 364.097 421.606 364.677 426.861 363.371L427.423 373.422C426.982 376.862 427.097 380.452 427.037 383.923C421.485 382.98 415.598 383.529 409.999 383.837L410.01 363.998Z"/>
	<path fill="#6CEC64" transform="matrix(0.200276 0.000403497 -0.000403497 0.200276 0.413147 0)" d="M461.702 363.398L462.944 363.663C464.622 367.228 463.51 379.045 463.426 383.403C457.823 383.747 452.037 383.486 446.414 383.498Q446.362 373.487 446.523 363.477Q454.113 363.574 461.702 363.398Z"/>
	<path fill="#6CEC64" transform="matrix(0.200276 0.000403497 -0.000403497 0.200276 0.413147 0)" d="M354.858 270.539C361.31 270.522 367.982 270.164 374.404 270.856L374.546 271.419L374.477 287.992L354.931 288.008Q354.833 279.274 354.858 270.539Z"/>
	<path fill="#6CEC64" transform="matrix(0.200276 0.000403497 -0.000403497 0.200276 0.413147 0)" d="M392.966 304.97C398.204 304.87 405.03 304.083 410.037 305.515Q409.897 315.939 409.995 326.363C404.676 325.262 398.277 326.004 392.841 326.15L392.966 304.97Z"/>
	<path fill="#16803A" transform="matrix(0.200276 0.000403497 -0.000403497 0.200276 0.413147 0)" d="M427.509 384.031C433.748 383.536 439.658 383.675 445.888 384.048C445.933 386.089 445.906 388.157 446.071 390.191C446.057 393.765 445.905 397.398 446.058 400.966C440.023 400.826 434.033 400.668 428.003 401.057L428.001 419.582L410.005 419.584L409.979 401.419C415.24 400.098 422.422 400.997 427.943 401.046Q427.951 392.533 427.509 384.031Z"/>
	<path fill="#31053D" transform="matrix(0.200276 0.000403497 -0.000403497 0.200276 0.413147 0)" d="M469.939 850.68C475.474 850.608 481.018 850.465 486.553 850.53C486.565 857.445 486.949 864.695 486.262 871.571C492.054 871.526 497.863 871.401 503.654 871.483C503.554 877.972 503.253 884.564 504.033 891.02L520.436 891.049L520.477 871.768L537.429 872.043L537.422 851.009C542.761 851.072 548.735 851.624 553.996 850.768C560.928 850.241 568.137 850.605 575.091 850.589L615.984 850.503L616.039 872.671L640.12 872.589C640.222 880.059 640.137 887.542 640.144 895.014Q618.838 894.935 597.533 895.099L597.574 912.524L424.425 912.31L424.347 894.966L378.073 894.978L378.072 872.985L401.461 872.901L401.36 851.026C424.132 850.676 447.222 851.918 469.939 850.68Z"/>
	<path fill="#0A5B33" transform="matrix(0.200276 0.000403497 -0.000403497 0.200276 0.413147 0)" d="M650.566 271.149C654.607 270.185 665.189 268.995 668.764 271.454C668.973 271.598 669.247 271.893 669.438 272.091C672.344 269.788 682.219 270.996 685.94 271.043Q686.324 297.088 686.089 323.134C685.993 330.014 686.412 337.705 685.188 344.444C683.91 351.324 684.44 358.911 684.437 365.906L684.448 400.959L664.138 401.029Q647.359 400.912 630.58 400.996L630.501 419.944Q622.255 420.045 614.01 419.889C607.386 420.104 600.735 419.998 594.107 419.991L593.943 419.431C583.072 421.089 571.114 419.903 560.121 419.549C560.038 413.343 560.174 407.189 560.451 400.989C560.72 395.271 560.655 389.615 560.519 383.896Q560.465 373.483 560.621 363.072C566.393 363.054 572.179 362.956 577.949 363.05C577.965 360.46 578.169 357.942 578.425 355.368L578.534 344.998L578.902 344.966Q587.462 344.9 596.012 344.494C595.898 339.303 595.206 333.14 596.366 328.083L596.372 327.511L596.598 326.826C598.407 320.382 597.417 312.641 597.093 305.996C602.769 305.629 608.449 305.601 614.135 305.535L614.549 305.378L614.86 305.033L632.017 305.006C631.877 300.584 631.836 295.841 632.428 291.459L632.591 287.975C638.399 287.98 644.231 288.095 650.036 287.975L650.309 287.674C650.795 282.377 650.523 276.937 650.442 271.622L650.566 271.149Z"/>
	<path fill="#6CEC64" transform="matrix(0.200276 0.000403497 -0.000403497 0.200276 0.413147 0)" d="M632.591 287.975C638.399 287.98 644.231 288.095 650.036 287.975L650.01 305L632.447 304.991C632.47 300.504 632.677 295.935 632.428 291.459L632.591 287.975Z"/>
	<path fill="#6CEC64" transform="matrix(0.200276 0.000403497 -0.000403497 0.200276 0.413147 0)" d="M596.598 326.826C602.302 326.245 608.215 326.513 613.95 326.48C614.069 332.293 614.273 338.131 613.763 343.931C607.98 343.949 602.174 343.787 596.397 344.039L596.366 328.083L596.372 327.511L596.598 326.826Z"/>
	<path fill="#6CEC64" transform="matrix(0.200276 0.000403497 -0.000403497 0.200276 0.413147 0)" d="M614.929 345.122C620.617 344.836 626.367 344.995 632.063 344.988L632.024 362.998L614.869 363.027Q614.949 354.075 614.929 345.122Z"/>
	<path fill="#6CEC64" transform="matrix(0.200276 0.000403497 -0.000403497 0.200276 0.413147 0)" d="M596.012 344.494Q596.173 353.728 596.065 362.962L578.421 362.935C578.443 360.417 578.532 357.883 578.425 355.368L578.534 344.998L578.902 344.966Q587.462 344.9 596.012 344.494Z"/>
	<path fill="#6CEC64" transform="matrix(0.200276 0.000403497 -0.000403497 0.200276 0.413147 0)" d="M632.482 326.155L649.873 326.091C649.917 332.202 650.031 338.319 649.789 344.427L632.396 344.533C632.161 338.386 632.284 332.301 632.482 326.155Z"/>
	<path fill="#6CEC64" transform="matrix(0.200276 0.000403497 -0.000403497 0.200276 0.413147 0)" d="M650.566 271.149C654.607 270.185 665.189 268.995 668.764 271.454C668.973 271.598 669.247 271.893 669.438 272.091C668.55 277.291 668.934 282.941 668.972 288.213C663.2 288.439 655.824 289.518 650.309 287.674C650.795 282.377 650.523 276.937 650.442 271.622L650.566 271.149Z"/>
	<path fill="#6CEC64" transform="matrix(0.200276 0.000403497 -0.000403497 0.200276 0.413147 0)" d="M596.392 363.985L614.438 364.035L614.1 383.333C608.346 383.668 602.193 383.104 596.405 382.996L596.392 363.985Z"/>
	<path transform="matrix(0.200276 0.000403497 -0.000403497 0.200276 0.413147 0)" d="M597.093 305.996C602.769 305.629 608.449 305.601 614.135 305.535L613.95 326.48C608.215 326.513 602.302 326.245 596.598 326.826C598.407 320.382 597.417 312.641 597.093 305.996Z"/>
	<path fill="#6CEC64" transform="matrix(0.200276 0.000403497 -0.000403497 0.200276 0.413147 0)" d="M560.621 363.072C566.393 363.054 572.179 362.956 577.949 363.05L578.049 383.915Q569.284 383.705 560.519 383.896Q560.465 373.483 560.621 363.072Z"/>
	<path fill="#6CEC64" transform="matrix(0.200276 0.000403497 -0.000403497 0.200276 0.413147 0)" d="M632.017 305.006C632.271 312 632.284 318.952 632.166 325.949C626.248 325.714 620.351 325.875 614.432 326.012L614.549 305.378L614.86 305.033L632.017 305.006Z"/>
	<path fill="#6CEC64" transform="matrix(0.200276 0.000403497 -0.000403497 0.200276 0.413147 0)" d="M560.519 383.896Q569.284 383.705 578.049 383.915C579.007 389.349 578.11 395.409 578.573 400.986L593.992 400.999L593.943 419.431C583.072 421.089 571.114 419.903 560.121 419.549C560.038 413.343 560.174 407.189 560.451 400.989C560.72 395.271 560.655 389.615 560.519 383.896Z"/>
	<path transform="matrix(0.200276 0.000403497 -0.000403497 0.200276 0.413147 0)" d="M560.519 383.896Q569.284 383.705 578.049 383.915C579.007 389.349 578.11 395.409 578.573 400.986L560.451 400.989C560.72 395.271 560.655 389.615 560.519 383.896Z"/>
	<path transform="matrix(0.200276 0.000403497 -0.000403497 0.200276 0.413147 0)" d="M664.208 344.543L685.188 344.444C683.91 351.324 684.44 358.911 684.437 365.906L684.448 400.959L664.138 401.029C665.272 394.877 664.462 387.3 664.395 381.041Q664.116 362.793 664.208 344.543Z"/>
	<path fill="#2FA85A" transform="matrix(0.200276 0.000403497 -0.000403497 0.200276 0.413147 0)" d="M446.479 383.983Q454.992 383.852 463.506 383.955L525.911 384.012C537.409 384.011 549.037 384.354 560.519 383.896C560.655 389.615 560.72 395.271 560.451 400.989C560.174 407.189 560.038 413.343 560.121 419.549C571.114 419.903 583.072 421.089 593.943 419.431L594.107 419.991C600.735 419.998 607.386 420.104 614.01 419.889C614.003 426.379 613.789 432.949 614.077 439.428L614.193 439.868C613.515 442.487 613.515 445.01 613.482 447.691C613.8 461.191 613.992 475.01 613.189 488.485Q612.914 497.252 612.986 506.022C612.951 510.943 612.054 517.37 612.915 522.113C606.315 521.592 599.573 522.542 593 521.643C588.316 521.229 583.677 521.316 578.984 521.491C569.777 521.963 560.726 522.456 551.516 521.597C546.347 521.448 541.19 521.538 536.02 521.624L536.053 506.482C517.409 506.22 498.647 505.929 480.013 506.532C477.701 507.353 475.527 507.987 473.054 507.995C473.301 501.306 473.049 494.533 473.003 487.835L464.019 488L464.014 466.634L447.754 466.892L447.8 450.878C435.291 451.189 422.751 450.961 410.23 451.224C410.804 447.59 410.513 443.653 410.172 440.004C409.814 433.231 410.008 426.369 410.005 419.584L428.001 419.582L428.003 401.057C434.033 400.668 440.023 400.826 446.058 400.966C445.905 397.398 446.057 393.765 446.071 390.191C446.338 388.144 446.368 386.045 446.479 383.983Z"/>
	<path fill="#6CEC64" transform="matrix(0.200276 0.000403497 -0.000403497 0.200276 0.413147 0)" d="M446.479 383.983Q454.992 383.852 463.506 383.955L525.911 384.012C537.409 384.011 549.037 384.354 560.519 383.896C560.655 389.615 560.72 395.271 560.451 400.989Q512.143 400.554 463.836 401.049Q464.074 410.52 463.893 419.993C451.955 420.019 439.981 420.219 428.047 419.976L428.001 419.582L428.003 401.057C434.033 400.668 440.023 400.826 446.058 400.966C445.905 397.398 446.057 393.765 446.071 390.191C446.338 388.144 446.368 386.045 446.479 383.983Z"/>
	<path transform="matrix(0.200276 0.000403497 -0.000403497 0.200276 0.413147 0)" d="M446.479 383.983Q454.992 383.852 463.506 383.955L463.504 401.032Q454.782 400.846 446.058 400.966C445.905 397.398 446.057 393.765 446.071 390.191C446.338 388.144 446.368 386.045 446.479 383.983Z"/>
	<path fill="#555F2A" transform="matrix(0.200276 0.000403497 -0.000403497 0.200276 0.413147 0)" d="M410.005 419.584L428.001 419.582L428.047 419.976Q427.77 429.919 427.983 439.864C440.34 439.443 452.682 439.711 465.042 439.915L464.999 455.112L480.515 455.096L480.515 472.239L489.012 472.238L488.995 488.109C504.522 488.17 520.132 488.582 535.65 488.211L535.528 471.809L541.002 471.494L540.994 456.493C546.478 456.43 552.016 456.201 557.496 456.416C557.454 452.796 556.637 441.982 557.992 439.294L559.133 439.271L594.175 439.524L594.207 430.094C594.127 426.729 594.138 423.357 594.107 419.991C600.735 419.998 607.386 420.104 614.01 419.889C614.003 426.379 613.789 432.949 614.077 439.428L614.193 439.868C613.515 442.487 613.515 445.01 613.482 447.691C613.8 461.191 613.992 475.01 613.189 488.485Q612.914 497.252 612.986 506.022C612.951 510.943 612.054 517.37 612.915 522.113C606.315 521.592 599.573 522.542 593 521.643C588.316 521.229 583.677 521.316 578.984 521.491C569.777 521.963 560.726 522.456 551.516 521.597C546.347 521.448 541.19 521.538 536.02 521.624L536.053 506.482C517.409 506.22 498.647 505.929 480.013 506.532C477.701 507.353 475.527 507.987 473.054 507.995C473.301 501.306 473.049 494.533 473.003 487.835L464.019 488L464.014 466.634L447.754 466.892L447.8 450.878C435.291 451.189 422.751 450.961 410.23 451.224C410.804 447.59 410.513 443.653 410.172 440.004C409.814 433.231 410.008 426.369 410.005 419.584Z"/>
	<path fill="#16803A" transform="matrix(0.200276 0.000403497 -0.000403497 0.200276 0.413147 0)" d="M557.496 456.416C557.454 452.796 556.637 441.982 557.992 439.294L559.133 439.271C559.567 443.476 561.558 452.123 559.67 455.851L557.496 456.416Z"/>
	<path fill="#6E6E2B" transform="matrix(0.200276 0.000403497 -0.000403497 0.200276 0.413147 0)" d="M594.107 419.991C600.735 419.998 607.386 420.104 614.01 419.889C614.003 426.379 613.789 432.949 614.077 439.428C607.547 439.773 600.985 439.588 594.448 439.536C594.472 436.474 594.749 433.103 594.207 430.094C594.127 426.729 594.138 423.357 594.107 419.991Z"/>
	<path transform="matrix(0.200276 0.000403497 -0.000403497 0.200276 0.413147 0)" d="M576.943 447.488C589.122 447.497 601.308 447.285 613.482 447.691C613.8 461.191 613.992 475.01 613.189 488.485Q612.914 497.252 612.986 506.022C612.951 510.943 612.054 517.37 612.915 522.113C606.315 521.592 599.573 522.542 593 521.643C588.316 521.229 583.677 521.316 578.984 521.491C569.777 521.963 560.726 522.456 551.516 521.597Q551.413 496.805 551.689 472.017L560.996 471.619L561.002 455.932C566.3 456.462 571.49 456.272 576.793 456.025C576.734 453.183 576.868 450.33 576.943 447.488Z"/>
	<path fill="#E5F196" transform="matrix(0.200276 0.000403497 -0.000403497 0.200276 0.413147 0)" d="M561.004 471.722L567.979 471.577L567.957 482.947L574.017 483.167C575.424 484.642 575.512 486.032 575.945 487.994L561.028 487.987L561.004 471.722Z"/>
	<path fill="#681A25" transform="matrix(0.200276 0.000403497 -0.000403497 0.200276 0.413147 0)" d="M561.028 487.987L575.945 487.994L576.995 488.077L577.046 506.483Q569.032 506.567 561.02 506.743L561.028 487.987Z"/>
	<path fill="#2FA85A" transform="matrix(0.200276 0.000403497 -0.000403497 0.200276 0.413147 0)" d="M603.515 505.976L612.986 506.022C612.951 510.943 612.054 517.37 612.915 522.113C606.315 521.592 599.573 522.542 593 521.643L592.98 506.419C596.449 505.987 600.02 506.045 603.515 505.976Z"/>
	<path fill="#EA9A13" transform="matrix(0.200276 0.000403497 -0.000403497 0.200276 0.413147 0)" d="M603.552 488.269L603.515 505.976C600.02 506.045 596.449 505.987 592.98 506.419C587.679 506.609 582.351 506.492 577.046 506.483L576.995 488.077Q590.275 488.023 603.552 488.269Z"/>
	<path fill="#F0F164" transform="matrix(0.200276 0.000403497 -0.000403497 0.200276 0.413147 0)" d="M576.998 456.884L603.556 456.938L603.552 488.269Q590.275 488.023 576.995 488.077L575.945 487.994C575.512 486.032 575.424 484.642 574.017 483.167C574.837 483 575.822 483.094 576.289 482.324C578.67 478.4 577.13 462.082 576.998 456.884Z"/>
	<path fill="#949349" transform="matrix(0.200276 0.000403497 -0.000403497 0.200276 0.413147 0)" d="M480.013 506.532C498.647 505.929 517.409 506.22 536.053 506.482L536.02 521.624C541.19 521.538 546.347 521.448 551.516 521.597C560.726 522.456 569.777 521.963 578.984 521.491C583.677 521.316 588.316 521.229 593 521.643C599.573 522.542 606.315 521.592 612.915 522.113C617.907 523.588 621.286 525.728 623.792 530.405C625.005 532.67 625.752 535.045 626.49 537.494C626.445 542.414 626.074 547.624 626.771 552.5L626.835 552.876C624.287 557.525 626.55 569.324 626.029 575.024L625.992 607.927Q625.949 642.839 626.295 677.749C626.424 691.763 627.074 706.047 626.436 720.031C626.415 723.595 626.178 727.271 626.911 730.778Q626.952 734.749 626.929 738.721L626.515 738.953C620.726 739.094 615.004 739.165 609.216 738.876C608.296 740.103 608.039 740.881 607.706 742.336C608.48 747.747 608.04 753.681 607.966 759.151Q599.98 759.274 591.997 759.548C591.996 772.742 592.964 786.939 591.51 800.004Q591.336 808.432 591.381 816.862C585.61 816.861 579.793 816.715 574.028 816.902L574.075 832.956C567.413 832.923 560.694 832.704 554.039 832.894L553.996 850.768C548.735 851.624 542.761 851.072 537.422 851.009L537.429 872.043L520.477 871.768L520.436 891.049L504.033 891.02C503.253 884.564 503.554 877.972 503.654 871.483C497.863 871.401 492.054 871.526 486.262 871.571C486.949 864.695 486.565 857.445 486.553 850.53C481.018 850.465 475.474 850.608 469.939 850.68L469.949 832.153C463.317 831.86 456.637 832.014 449.997 832.036L450.168 816.097C444.662 815.864 439.089 816.002 433.574 815.989L433.519 799.971Q433.646 779.961 433.318 759.954L432.97 759.614L432.952 739.486Q424.483 739.555 416.016 739.402L416.09 719.997L398.4 720.006C398.569 712.995 398.483 705.963 398.5 698.949L398.657 631.186C398.866 612.84 399.667 594.332 398.546 576.009L398.528 568.527L412.617 568.484C427.075 568.49 441.524 568.861 455.983 568.628L456.021 544.017C461.166 543.958 466.324 544.114 471.468 544.189C471.348 541.499 471.165 540.084 473.03 537.999C475.314 536.94 478.088 537.13 480.572 537.031Q480.536 521.777 480.013 506.532Z"/>
	<path fill="#6CEC64" transform="matrix(0.200276 0.000403497 -0.000403497 0.200276 0.413147 0)" d="M432.917 622.985L455.047 623.005L455.028 640.931C460.692 640.993 466.349 640.751 472.009 640.552L472.026 650.994L551.97 650.997L551.955 640.017C557.633 640.002 563.316 640.252 568.991 640.428L568.824 623.995C576.448 623.864 584.127 623.548 591.737 624.081C590.44 648.362 591.903 674.035 591.465 698.586C585.436 698.903 579.411 698.926 573.375 698.962C572.366 698.912 571.828 698.95 570.907 699.375C569.823 705.165 570.937 714.182 570.577 720.591C564.383 720.931 558.192 720.932 551.991 720.963L552 742.953L471.994 743.104L472.005 720.94L453.987 721.037L453.994 698.49Q443.331 699.03 432.654 698.976C432.04 673.688 432.953 648.289 432.917 622.985Z"/>
	<path fill="#6E6E2B" transform="matrix(0.200276 0.000403497 -0.000403497 0.200276 0.413147 0)" d="M455.029 661.569L471.736 661.576Q471.503 671.278 471.529 680.983L455.037 680.993L455.029 661.569Z"/>
	<path fill="#6E6E2B" transform="matrix(0.200276 0.000403497 -0.000403497 0.200276 0.413147 0)" d="M552.023 662.033L569.373 661.946C569.321 668.29 569.429 674.643 569.466 680.988L552.065 680.992L552.023 662.033Z"/>
	<path transform="matrix(0.200276 0.000403497 -0.000403497 0.200276 0.413147 0)" d="M480.013 506.532C498.647 505.929 517.409 506.22 536.053 506.482L536.02 521.624C541.19 521.538 546.347 521.448 551.516 521.597C560.726 522.456 569.777 521.963 578.984 521.491C583.677 521.316 588.316 521.229 593 521.643C599.573 522.542 606.315 521.592 612.915 522.113C617.907 523.588 621.286 525.728 623.792 530.405C625.005 532.67 625.752 535.045 626.49 537.494C626.445 542.414 626.074 547.624 626.771 552.5L626.835 552.876C624.287 557.525 626.55 569.324 626.029 575.024L611.516 574.992C605.331 574.985 598.171 574.335 592.111 575.3L592.157 591.012L576.037 591.024C576.048 596.721 576.187 602.449 575.984 608.142C573.515 607.968 570.99 608.035 568.514 607.997C568.555 597.285 569.119 586.169 568.168 575.522C567.381 586.087 568.167 596.904 568.073 607.508L558.503 607.448C559.288 612.889 559.152 618.424 559.028 623.908C556.388 623.937 553.668 624.093 551.035 623.971C545.985 624.005 540.504 623.634 535.507 624.255C540.254 625.268 546.322 624.497 551.203 624.378L551.379 634.005L472.487 634.017L472.494 623.516L464.999 623.296L465.034 614.604L457.05 614.786L456.587 607.902L455.979 607.42C453.353 607.445 450.719 607.512 448.093 607.464L448.182 591.019L432.994 591.018L432.983 576.015L398.546 576.009L398.528 568.527L412.617 568.484C427.075 568.49 441.524 568.861 455.983 568.628L456.021 544.017C461.166 543.958 466.324 544.114 471.468 544.189C471.348 541.499 471.165 540.084 473.03 537.999C475.314 536.94 478.088 537.13 480.572 537.031Q480.536 521.777 480.013 506.532Z"/>
	<path fill="#F0F164" transform="matrix(0.200276 0.000403497 -0.000403497 0.200276 0.413147 0)" d="M535.324 610.131L535.628 609.176C538.311 607.413 547.308 608.462 550.734 608.517C551.181 613.641 551.035 618.83 551.035 623.971C545.985 624.005 540.504 623.634 535.507 624.255C535.56 619.535 535.607 614.847 535.324 610.131Z"/>
	<path fill="#F0F164" transform="matrix(0.200276 0.000403497 -0.000403497 0.200276 0.413147 0)" d="M473.683 609.013L488.568 608.998L488.493 624.488C483.227 624.788 478.206 624.773 472.949 624.227C472.714 619.051 472.154 614.065 473.683 609.013Z"/>
	<path fill="#6603CD" transform="matrix(0.200276 0.000403497 -0.000403497 0.200276 0.413147 0)" d="M504.07 554.517L519.388 554.508C519.408 560.437 519.865 566.816 519.131 572.677C517.334 573.234 515.408 573.114 513.542 573.124C510.73 572.935 506.584 573.834 504.252 572.163C503.791 566.306 503.983 560.388 504.07 554.517Z"/>
	<path fill="#F1F1D6" transform="matrix(0.200276 0.000403497 -0.000403497 0.200276 0.413147 0)" d="M535.39 555.937L535.649 554.551C538.945 552.875 546.645 553.999 550.499 554.018C550.526 557.263 551.386 570.792 549.879 572.921L549.018 573.324C544.59 572.722 539.981 573.018 535.518 573.076Q535.585 564.506 535.39 555.937Z"/>
	<path fill="#F1F1D6" transform="matrix(0.200276 0.000403497 -0.000403497 0.200276 0.413147 0)" d="M472.175 554.307C477.907 554.056 483.615 554.278 489.345 554.459C488.559 560.124 489.009 566.32 489.031 572.044C483.647 572.071 478.194 572.275 472.823 571.867C472.793 571.838 472.759 571.812 472.733 571.779C471.259 569.923 472.118 557.305 472.175 554.307Z"/>
	<path fill="#F1F1D6" transform="matrix(0.200276 0.000403497 -0.000403497 0.200276 0.413147 0)" d="M558.072 575.506L568.168 575.522C567.381 586.087 568.167 596.904 568.073 607.508L558.503 607.448C556.616 597.154 557.734 585.919 558.072 575.506Z"/>
	<path fill="#F1F1D6" transform="matrix(0.200276 0.000403497 -0.000403497 0.200276 0.413147 0)" d="M455.933 576.311C459.646 576.187 463.355 576.032 467.071 576.125L467.001 607.994C463.538 607.967 460.046 608.034 456.587 607.902L455.979 607.42Q455.231 591.866 455.933 576.311Z"/>
	<defs>
		<linearGradient id="gradient_0" gradientUnits="userSpaceOnUse" x1="581.44794" y1="563.19971" x2="598.87848" y2="517.36865">
			<stop offset="0" stop-color="#6A642A"/>
			<stop offset="1" stop-color="#4E5E2B"/>
		</linearGradient>
	</defs>
	<path fill="url(#gradient_0)" transform="matrix(0.200276 0.000403497 -0.000403497 0.200276 0.413147 0)" d="M578.984 521.491C583.677 521.316 588.316 521.229 593 521.643C599.573 522.542 606.315 521.592 612.915 522.113C617.907 523.588 621.286 525.728 623.792 530.405C625.005 532.67 625.752 535.045 626.49 537.494C626.445 542.414 626.074 547.624 626.771 552.5L626.835 552.876C624.287 557.525 626.55 569.324 626.029 575.024L611.516 574.992C611.452 571.156 612.101 566.611 611.055 562.952Q590.773 563.291 570.49 563.038L570.508 552.948C564.172 552.297 557.017 552.966 550.592 553.007L550.994 544.497L551.038 536.283C560.378 536.188 569.667 536.061 579.001 536.517L578.984 521.491Z"/>
	<path fill="#042D24" transform="matrix(0.200276 0.000403497 -0.000403497 0.200276 0.413147 0)" d="M611.241 552.07C616.424 551.935 621.612 551.954 626.771 552.5L626.835 552.876C624.287 557.525 626.55 569.324 626.029 575.024L611.516 574.992C611.452 571.156 612.101 566.611 611.055 562.952L611 562.63C611.916 559.489 611.351 555.349 611.241 552.07Z"/>
	<path fill="#6E6E2B" transform="matrix(0.200276 0.000403497 -0.000403497 0.200276 0.413147 0)" d="M570.508 552.948C583.287 553.329 598.236 553.934 610.849 552.416L611 562.63L611.055 562.952Q590.773 563.291 570.49 563.038L570.508 552.948Z"/>
	<path fill="#6CEC64" transform="matrix(0.200276 0.000403497 -0.000403497 0.200276 0.413147 0)" d="M578.984 521.491C583.677 521.316 588.316 521.229 593 521.643C599.573 522.542 606.315 521.592 612.915 522.113Q613.07 529.31 613.016 536.509L579.001 536.517L578.984 521.491Z"/>
	<path fill="#2FA85A" transform="matrix(0.200276 0.000403497 -0.000403497 0.200276 0.413147 0)" d="M480.013 506.532C498.647 505.929 517.409 506.22 536.053 506.482L536.02 521.624C541.19 521.538 546.347 521.448 551.516 521.597C560.726 522.456 569.777 521.963 578.984 521.491L579.001 536.517C569.667 536.061 560.378 536.188 551.038 536.283L550.994 544.497C524.548 544.496 497.888 545.178 471.468 544.189C471.348 541.499 471.165 540.084 473.03 537.999C475.314 536.94 478.088 537.13 480.572 537.031Q480.536 521.777 480.013 506.532Z"/>
	<path fill="#681A25" transform="matrix(0.200276 0.000403497 -0.000403497 0.200276 0.413147 0)" d="M489.345 554.459C489.895 560.313 489.492 566.548 489.454 572.443C494.115 573.035 498.801 573.401 503.491 572.952L504.252 572.163C506.584 573.834 510.73 572.935 513.542 573.124C517.153 575.402 530.944 574.107 535.235 573.315C534.975 567.583 534.922 561.659 535.39 555.937Q535.585 564.506 535.518 573.076C539.981 573.018 544.59 572.722 549.018 573.324C549.299 573.729 549.67 574.086 549.859 574.541C550.277 575.547 550.021 578.261 549.993 579.4C549.751 589.131 549.144 598.86 550.734 608.517C547.308 608.462 538.311 607.413 535.628 609.176L535.324 610.131L534.705 610.511C534.132 614.887 534.391 619.661 534.479 624.08C519.11 623.998 503.85 624.02 488.493 624.488L488.568 608.998L473.683 609.013C474.325 606.607 474.475 604.36 474.552 601.879C474.696 597.237 475.598 576.079 473.898 573.011C473.645 572.554 473.181 572.249 472.823 571.867C478.194 572.275 483.647 572.071 489.031 572.044C489.009 566.32 488.559 560.124 489.345 554.459Z"/>
	<path fill="#6E6E2B" transform="matrix(0.200276 0.000403497 -0.000403497 0.200276 0.413147 0)" d="M611.516 574.992L626.029 575.024L625.992 607.927Q625.949 642.839 626.295 677.749C626.424 691.763 627.074 706.047 626.436 720.031C626.415 723.595 626.178 727.271 626.911 730.778Q626.952 734.749 626.929 738.721L626.515 738.953C620.726 739.094 615.004 739.165 609.216 738.876C608.296 740.103 608.039 740.881 607.706 742.336C608.48 747.747 608.04 753.681 607.966 759.151Q599.98 759.274 591.997 759.548C591.996 772.742 592.964 786.939 591.51 800.004Q591.336 808.432 591.381 816.862C585.61 816.861 579.793 816.715 574.028 816.902L574.075 832.956C567.413 832.923 560.694 832.704 554.039 832.894L553.996 850.768C548.735 851.624 542.761 851.072 537.422 851.009L537.429 872.043L520.477 871.768L520.436 891.049L504.033 891.02C503.253 884.564 503.554 877.972 503.654 871.483C497.863 871.401 492.054 871.526 486.262 871.571C486.949 864.695 486.565 857.445 486.553 850.53C481.018 850.465 475.474 850.608 469.939 850.68L469.949 832.153C463.317 831.86 456.637 832.014 449.997 832.036L450.168 816.097C444.662 815.864 439.089 816.002 433.574 815.989L433.519 799.971Q433.646 779.961 433.318 759.954L432.97 759.614L432.952 739.486Q424.483 739.555 416.016 739.402L416.09 719.997L398.4 720.006C398.569 712.995 398.483 705.963 398.5 698.949L398.657 631.186C398.866 612.84 399.667 594.332 398.546 576.009L432.983 576.015L432.994 591.018L448.182 591.019L448.093 607.464C437.394 607.587 426.695 608.051 415.998 608.01L416.037 719.995L433.222 719.935C433.055 726.064 432.664 732.356 433.262 738.467L453.064 738.468L452.994 754.016L471.918 753.991L471.864 760.02L551.897 759.998L551.986 754.018L571.063 753.994Q571.377 745.985 571.382 737.969L591.021 737.911L590.986 719.842C597.152 719.817 603.33 719.553 609.492 719.614L610.008 608.219C598.81 606.88 587.279 609.778 575.984 608.142C576.187 602.449 576.048 596.721 576.037 591.024L592.157 591.012L592.111 575.3C598.171 574.335 605.331 574.985 611.516 574.992Z"/>
	<path fill="#16803A" transform="matrix(0.200276 0.000403497 -0.000403497 0.200276 0.413147 0)" d="M609.498 720.008L626.436 720.031C626.415 723.595 626.178 727.271 626.911 730.778Q626.952 734.749 626.929 738.721L626.515 738.953C620.726 739.094 615.004 739.165 609.216 738.876C610.702 733.082 609.731 725.95 609.498 720.008Z"/>
	<path fill="#555F2A" transform="matrix(0.200276 0.000403497 -0.000403497 0.200276 0.413147 0)" d="M611.516 574.992L626.029 575.024L625.992 607.927C620.697 608.09 615.433 608.449 610.155 607.82C609.845 603.878 610.315 599.614 610.38 595.636Q610.481 585.556 610.378 575.476C604.358 575.625 598.102 575.869 592.111 575.3C598.171 574.335 605.331 574.985 611.516 574.992Z"/>
	<path fill="#0A5B33" transform="matrix(0.200276 0.000403497 -0.000403497 0.200276 0.413147 0)" d="M433.318 759.954L452.17 759.999L452.062 778.076L471.001 778.068L470.995 801.037C476.291 801.03 481.594 801.077 486.888 801.004C486.829 806.36 486.702 811.723 486.947 817.076C492.597 817.206 498.257 817.416 503.908 817.401C503.72 822.417 503.47 827.438 503.543 832.458C498.017 831.883 492.451 832.002 486.902 831.998L470.064 831.999L470.411 815.983L450.627 815.981Q450.859 807.978 450.786 799.972L433.519 799.971Q433.646 779.961 433.318 759.954Z"/>
	<path fill="#0A5B33" transform="matrix(0.200276 0.000403497 -0.000403497 0.200276 0.413147 0)" d="M607.706 742.336C608.48 747.747 608.04 753.681 607.966 759.151Q599.98 759.274 591.997 759.548C591.996 772.742 592.964 786.939 591.51 800.004L573.237 800.004L573.484 816.48L553.971 816.468L553.925 832.004C548.302 832.002 542.622 831.836 537.006 832.029C531.698 832.005 525.193 831.755 520.01 832.862L520.009 850.056C514.38 849.626 508.874 849.791 503.248 850.076Q502.685 841.255 503.543 832.458C509.028 833.349 514.35 833.024 519.855 832.555C520.306 827.455 519.989 822.138 519.973 817.012C525.801 817.123 531.651 817.006 537.48 816.985L537.446 801.019L553.476 800.994L553.403 778.415L573.529 778.341L573.464 760.018C579.646 760.132 585.849 760.249 592.009 759.642L591.972 742.491C597.206 742.511 602.482 742.667 607.706 742.336Z"/>
	<path transform="matrix(0.200276 0.000403497 -0.000403497 0.200276 0.413147 0)" d="M433.519 799.971L450.786 799.972Q450.859 807.978 450.627 815.981L470.411 815.983L470.064 831.999L486.902 831.998C492.451 832.002 498.017 831.883 503.543 832.458Q502.685 841.255 503.248 850.076C508.874 849.791 514.38 849.626 520.009 850.056L520.01 832.862C525.193 831.755 531.698 832.005 537.006 832.029C542.622 831.836 548.302 832.002 553.925 832.004L553.971 816.468L573.484 816.48L573.237 800.004L591.51 800.004Q591.336 808.432 591.381 816.862C585.61 816.861 579.793 816.715 574.028 816.902L574.075 832.956C567.413 832.923 560.694 832.704 554.039 832.894L553.996 850.768C548.735 851.624 542.761 851.072 537.422 851.009L537.429 872.043L520.477 871.768L520.436 891.049L504.033 891.02C503.253 884.564 503.554 877.972 503.654 871.483C497.863 871.401 492.054 871.526 486.262 871.571C486.949 864.695 486.565 857.445 486.553 850.53C481.018 850.465 475.474 850.608 469.939 850.68L469.949 832.153C463.317 831.86 456.637 832.014 449.997 832.036L450.168 816.097C444.662 815.864 439.089 816.002 433.574 815.989L433.519 799.971Z"/>
	<path fill="#16803A" transform="matrix(0.200276 0.000403497 -0.000403497 0.200276 0.413147 0)" d="M486.902 831.998C492.451 832.002 498.017 831.883 503.543 832.458Q502.685 841.255 503.248 850.076C508.874 849.791 514.38 849.626 520.009 850.056L520.01 832.862C525.193 831.755 531.698 832.005 537.006 832.029L536.994 850.692L520.23 850.481C519.85 857.386 520.018 864.345 520.044 871.259L503.507 871.193C503.598 866.829 505.314 855.233 502.828 851.897C499.164 849.61 491.276 850.921 486.963 850.969L486.902 831.998Z"/>
	<path fill="#0A5B33" transform="matrix(0.200276 0.000403497 -0.000403497 0.200276 0.413147 0)" d="M865.985 230.949L865.941 240.094C865.882 243.125 865.519 246.549 866.46 249.466C866.459 251.059 866.243 252.53 867.278 253.854C869.516 254.882 871.802 254.357 874.09 255.489L874.616 255.54L874.591 267.211Q874.722 285.611 874.466 304.009L890.458 304.011L890.449 337.504C895.593 337.497 900.945 337.178 906.058 337.688C910.922 338.423 916.147 338.007 921.078 338.019Q920.965 357.604 921.51 377.182L921.862 377.475L936.732 377.561C936.612 391.431 935.472 410.537 937.018 423.926C937.438 439.467 937.011 454.963 937.145 470.498C931.775 470.606 926.366 470.852 920.998 470.64C920.987 475.46 920.989 480.137 921.556 484.934L921.944 521.998C903.872 521.963 885.788 521.792 867.717 521.969L867.453 537.504L867.092 537.571L866.983 538.016C861.192 537.786 855.449 537.916 849.659 538.082C848.565 544.243 849.13 550.215 848.935 556.402L848.449 556.657C842.99 556.469 835.89 555.412 830.742 557.364C829.99 558.238 829.979 558.446 829.792 559.599C830.064 564.927 830.022 570.26 830.024 575.593L812.991 575.804C812.983 582.184 812.853 588.593 813.041 594.969L795.98 594.999C795.985 609.642 796.258 624.344 795.839 638.979C791.323 638.919 779.045 637.986 775.306 639.355C775.748 647.044 775.543 654.748 775.499 662.445L759.505 662.5C759.479 674.981 759.719 687.528 759.362 700L740.567 699.958C740.631 712.946 741.009 726.04 740.549 739.016C734.199 738.818 727.792 738.986 721.436 738.98C721.165 732.826 721.272 726.606 721.146 720.441C717.589 720.469 714.029 720.582 710.49 720.165L710.502 698.978L701.813 698.994L701.81 680.626L663.018 680.625C663.001 686.947 662.897 693.285 663.011 699.606L662.958 699.919L645.925 700.001C646.15 704.828 647.84 715.235 644.362 718.873C641.331 722.043 631.17 720.607 626.901 720.426C626.92 723.861 627.067 727.35 626.911 730.778C626.178 727.271 626.415 723.595 626.436 720.031C627.074 706.047 626.424 691.763 626.295 677.749Q625.949 642.838 625.992 607.927L626.029 575.024C626.55 569.324 624.287 557.525 626.835 552.876L626.771 552.5C626.074 547.624 626.445 542.414 626.49 537.494C625.752 535.045 625.005 532.67 623.792 530.405C621.286 525.728 617.907 523.588 612.915 522.113C612.054 517.37 612.951 510.943 612.986 506.022Q612.914 497.251 613.189 488.485C613.992 475.01 613.8 461.191 613.482 447.691C613.515 445.01 613.515 442.487 614.193 439.868L614.077 439.428C613.789 432.949 614.003 426.379 614.01 419.889Q622.255 420.045 630.501 419.944L630.58 400.996Q647.359 400.912 664.138 401.029C663.496 411.598 663.887 422.35 663.892 432.94C663.898 446.113 663.642 459.349 663.976 472.515C669.584 472.577 675.479 472.983 681.048 472.301L681.077 456.015C686.457 456.012 692.299 456.516 697.597 455.603C705.056 455.132 712.573 455.255 720.042 455.445Q719.979 447.458 720.036 439.471L735.58 439.465C735.255 433.708 735.495 427.8 735.484 422.026C735.708 415.19 735.575 408.31 735.589 401.468Q743.774 401.188 751.962 401.029Q752.097 383.042 751.868 365.056C757.294 365.069 763.59 365.631 768.87 364.594L768.979 364.064Q776.934 363.979 784.89 364.03C790.21 364.07 795.56 364.233 800.872 363.901C801.493 351.861 801.035 339.566 800.969 327.503C800.972 316.162 800.176 304.129 801.43 292.885C801.4 291.865 801.369 291.144 801.761 290.19C805.508 288.166 812.601 289.63 816.982 289.274L817.651 288.567C816.984 277.794 817.492 266.654 817.945 255.87L833.533 255.999C833.407 253.421 833.508 250.843 833.568 248.264Q833.57 239.857 833.815 231.453C844.303 230.227 855.41 231.022 865.985 230.949Z"/>
	<path transform="matrix(0.200276 0.000403497 -0.000403497 0.200276 0.413147 0)" d="M751.915 430.996L768.002 431.01L768.049 439.982C763.11 440.064 756.164 440.967 751.527 439.313C751.878 436.565 751.847 433.763 751.915 430.996Z"/>
	<path fill="#16803A" transform="matrix(0.200276 0.000403497 -0.000403497 0.200276 0.413147 0)" d="M767.977 421.716L768.002 431.01L751.915 430.996C751.804 428.006 751.853 425.011 751.87 422.019C757.257 421.757 762.582 421.62 767.977 421.716Z"/>
	<path fill="#2FA85A" transform="matrix(0.200276 0.000403497 -0.000403497 0.200276 0.413147 0)" d="M874.09 255.489L874.616 255.54L874.591 267.211L858.006 267.432L858.187 256.085C863.505 256.042 868.795 256.053 874.09 255.489Z"/>
	<path transform="matrix(0.200276 0.000403497 -0.000403497 0.200276 0.413147 0)" d="M626.49 537.494L640.956 537.506C640.656 542.673 640.628 547.731 640.762 552.901C636.108 553.214 631.489 553.271 626.835 552.876L626.771 552.5C626.074 547.624 626.445 542.414 626.49 537.494Z"/>
	<path fill="#6CEC64" transform="matrix(0.200276 0.000403497 -0.000403497 0.200276 0.413147 0)" d="M720.036 439.471L735.58 439.465C736.072 444.764 736.033 450.188 735.869 455.506C730.59 455.688 725.321 455.553 720.042 455.445Q719.979 447.458 720.036 439.471Z"/>
	<path fill="#16803A" transform="matrix(0.200276 0.000403497 -0.000403497 0.200276 0.413147 0)" d="M735.869 455.506Q736.111 463.771 735.976 472.039L720.086 472.04L720.042 455.445C725.321 455.553 730.59 455.688 735.869 455.506Z"/>
	<path transform="matrix(0.200276 0.000403497 -0.000403497 0.200276 0.413147 0)" d="M681.019 489.46L697.675 489.455Q697.455 497.928 697.485 506.404C692.398 506.566 685.894 507.457 680.968 506.182L681.019 489.46Z"/>
	<path fill="#6CEC64" transform="matrix(0.200276 0.000403497 -0.000403497 0.200276 0.413147 0)" d="M751.87 422.019C751.853 425.011 751.804 428.006 751.915 430.996C751.847 433.763 751.878 436.565 751.527 439.313C746.109 439.968 741.003 439.652 735.58 439.465C735.255 433.708 735.495 427.8 735.484 422.026L751.87 422.019Z"/>
	<path transform="matrix(0.200276 0.000403497 -0.000403497 0.200276 0.413147 0)" d="M800.996 364.236C806.575 363.396 811.944 363.713 817.54 363.986L817.462 382.225C813.71 382.298 804.246 383.224 801.128 382.075L800.823 381.651C801.24 375.877 801.025 370.023 800.996 364.236Z"/>
	<path fill="#6CEC64" transform="matrix(0.200276 0.000403497 -0.000403497 0.200276 0.413147 0)" d="M751.962 401.029L768.395 401.02C767.554 407.743 768.021 414.927 767.977 421.716C762.582 421.62 757.257 421.757 751.87 422.019C752.162 415.034 752.007 408.019 751.962 401.029Z"/>
	<path transform="matrix(0.200276 0.000403497 -0.000403497 0.200276 0.413147 0)" d="M735.589 401.468Q743.774 401.188 751.962 401.029C752.007 408.019 752.162 415.034 751.87 422.019L735.484 422.026C735.708 415.19 735.575 408.31 735.589 401.468Z"/>
	<path transform="matrix(0.200276 0.000403497 -0.000403497 0.200276 0.413147 0)" d="M697.835 472.247C705.248 472.971 713.037 472.451 720.501 472.464L720.484 489.008L698.438 489.023C698.536 484.351 699.314 478.198 698.113 473.712L697.835 472.247Z"/>
	<path transform="matrix(0.200276 0.000403497 -0.000403497 0.200276 0.413147 0)" d="M641.138 505.993Q652.789 506.135 664.44 505.999L664.49 524.013C656.698 524.051 648.825 524.316 641.043 523.952C640.929 517.953 640.787 511.987 641.138 505.993Z"/>
	<path fill="#2FA85A" transform="matrix(0.200276 0.000403497 -0.000403497 0.200276 0.413147 0)" d="M865.985 230.949L865.941 240.094L849.615 240.078C849.66 245.233 849.814 250.411 849.712 255.564L833.931 255.608C833.853 253.163 833.851 250.694 833.568 248.264Q833.57 239.857 833.815 231.453C844.303 230.227 855.41 231.022 865.985 230.949Z"/>
	<path fill="#2FA85A" transform="matrix(0.200276 0.000403497 -0.000403497 0.200276 0.413147 0)" d="M801.43 292.885C801.4 291.865 801.369 291.144 801.761 290.19C805.508 288.166 812.601 289.63 816.982 289.274C818.2 290.381 818.057 291.632 818.139 293.242C818.333 297.06 818.16 300.934 818.026 304.753Q817.946 316.381 818.063 328.008C812.489 327.993 806.947 327.941 801.38 327.623C801.667 316.094 801.772 304.413 801.43 292.885Z"/>
	<path fill="#6CEC64" transform="matrix(0.200276 0.000403497 -0.000403497 0.200276 0.413147 0)" d="M817.945 255.87L833.533 255.999C835.217 266.637 833.996 278.188 833.982 288.964C834.063 294.166 834.533 299.88 833.598 304.999C828.396 305.026 823.223 305.043 818.026 304.753C818.16 300.934 818.333 297.06 818.139 293.242C818.057 291.632 818.2 290.381 816.982 289.274L817.651 288.567C816.984 277.794 817.492 266.654 817.945 255.87Z"/>
	<path fill="#16803A" transform="matrix(0.200276 0.000403497 -0.000403497 0.200276 0.413147 0)" d="M817.651 288.567C821.399 290.592 829.795 289.288 833.982 288.964C834.063 294.166 834.533 299.88 833.598 304.999C828.396 305.026 823.223 305.043 818.026 304.753C818.16 300.934 818.333 297.06 818.139 293.242C818.057 291.632 818.2 290.381 816.982 289.274L817.651 288.567Z"/>
	<path fill="#6CEC64" transform="matrix(0.200276 0.000403497 -0.000403497 0.200276 0.413147 0)" d="M647.05 488.976C658.311 488.876 669.616 488.613 680.872 489.02L681.019 489.46L680.968 506.182C675.55 505.613 669.887 505.943 664.44 505.999Q652.789 506.135 641.138 505.993C637.112 505.633 633.057 505.868 629.022 505.999L629.045 489.156L641.983 489.016L647.05 488.976Z"/>
	<path transform="matrix(0.200276 0.000403497 -0.000403497 0.200276 0.413147 0)" d="M818.026 304.753C823.223 305.043 828.396 305.026 833.598 304.999Q833.361 334.499 833.502 364C828.476 364.05 822.891 364.536 817.939 363.701C818.53 351.846 818.222 339.873 818.063 328.008Q817.946 316.381 818.026 304.753Z"/>
	<path fill="#6CEC64" transform="matrix(0.200276 0.000403497 -0.000403497 0.200276 0.413147 0)" d="M697.597 455.603C705.056 455.132 712.573 455.255 720.042 455.445L720.086 472.04C713.061 471.977 704.681 471.09 697.835 472.247L698.113 473.712L697.991 489L680.872 489.02C680.814 483.455 680.977 477.868 681.048 472.301L681.077 456.015C686.457 456.012 692.299 456.516 697.597 455.603Z"/>
	<path transform="matrix(0.200276 0.000403497 -0.000403497 0.200276 0.413147 0)" d="M681.077 456.015C686.457 456.012 692.299 456.516 697.597 455.603Q697.451 463.869 697.516 472.136C692.253 472.053 686.221 471.426 681.048 472.301L681.077 456.015Z"/>
	<path transform="matrix(0.200276 0.000403497 -0.000403497 0.200276 0.413147 0)" d="M800.872 363.901L800.996 364.236C801.025 370.023 801.24 375.877 800.823 381.651C799.39 382.854 796.791 382.683 794.914 382.934C796.54 382.976 799.355 382.64 800.711 383.436C801.378 389.179 801.084 395.24 801.007 401.023L784.983 401.013L785.019 422.024L768.459 422.021C768.527 415.361 769.418 407.525 768.395 401.02L751.962 401.029Q752.097 383.042 751.868 365.056C757.294 365.069 763.59 365.631 768.87 364.594L768.979 364.064Q776.934 363.979 784.89 364.03C790.21 364.07 795.56 364.233 800.872 363.901Z"/>
	<path fill="#6CEC64" transform="matrix(0.200276 0.000403497 -0.000403497 0.200276 0.413147 0)" d="M800.872 363.901L800.996 364.236C801.025 370.023 801.24 375.877 800.823 381.651C799.39 382.854 796.791 382.683 794.914 382.934C791.545 382.972 787.992 382.778 784.649 383.095C784.378 389.025 784.533 395.029 784.528 400.968L768.681 401.001Q768.904 382.798 768.87 364.594L768.979 364.064Q776.934 363.979 784.89 364.03C790.21 364.07 795.56 364.233 800.872 363.901Z"/>
	<path fill="#16803A" transform="matrix(0.200276 0.000403497 -0.000403497 0.200276 0.413147 0)" d="M800.872 363.901L800.996 364.236C801.025 370.023 801.24 375.877 800.823 381.651C799.39 382.854 796.791 382.683 794.914 382.934C791.545 382.972 787.992 382.778 784.649 383.095C785.768 377.211 785.015 370.034 784.89 364.03C790.21 364.07 795.56 364.233 800.872 363.901Z"/>
	<path fill="#16803A" transform="matrix(0.200276 0.000403497 -0.000403497 0.200276 0.413147 0)" d="M630.03 439.79C633.597 439.434 637.434 439.28 640.986 439.826C640.975 444.882 640.91 449.943 640.966 454.999C641.161 466.298 640.987 477.757 641.983 489.016L629.045 489.156L629.022 505.999C633.057 505.868 637.112 505.633 641.138 505.993C640.787 511.987 640.929 517.953 641.043 523.952C641.073 528.463 641.206 533.001 640.956 537.506L626.49 537.494C625.752 535.045 625.005 532.67 623.792 530.405C621.286 525.728 617.907 523.588 612.915 522.113C612.054 517.37 612.951 510.943 612.986 506.022Q612.914 497.251 613.189 488.485C613.992 475.01 613.8 461.191 613.482 447.691C613.515 445.01 613.515 442.487 614.193 439.868C619.462 440.056 624.768 440.204 630.03 439.79Z"/>
	<path fill="#6E6E2B" transform="matrix(0.200276 0.000403497 -0.000403497 0.200276 0.413147 0)" d="M630.03 439.79C633.597 439.434 637.434 439.28 640.986 439.826C640.975 444.882 640.91 449.943 640.966 454.999L629.479 455.002Q629.085 471.709 628.998 488.42C623.707 488.651 618.479 488.614 613.189 488.485C613.992 475.01 613.8 461.191 613.482 447.691C613.515 445.01 613.515 442.487 614.193 439.868C619.462 440.056 624.768 440.204 630.03 439.79Z"/>
	<path fill="#042D24" transform="matrix(0.200276 0.000403497 -0.000403497 0.200276 0.413147 0)" d="M630.03 439.79C633.597 439.434 637.434 439.28 640.986 439.826C640.975 444.882 640.91 449.943 640.966 454.999L629.479 455.002C629.449 449.934 629.793 444.851 630.03 439.79Z"/>
	<path transform="matrix(0.200276 0.000403497 -0.000403497 0.200276 0.413147 0)" d="M630.58 400.996Q647.359 400.912 664.138 401.029C663.496 411.598 663.887 422.35 663.892 432.94C663.898 446.113 663.642 459.349 663.976 472.515C669.584 472.577 675.479 472.983 681.048 472.301C680.977 477.868 680.814 483.455 680.872 489.02C669.616 488.613 658.311 488.876 647.05 488.976L641.983 489.016C640.987 477.757 641.161 466.298 640.966 454.999C640.91 449.943 640.975 444.882 640.986 439.826C637.434 439.28 633.597 439.434 630.03 439.79C624.768 440.204 619.462 440.056 614.193 439.868L614.077 439.428C613.789 432.949 614.003 426.379 614.01 419.889Q622.255 420.045 630.501 419.944L630.58 400.996Z"/>
	<path fill="#0A5B33" transform="matrix(0.200276 0.000403497 -0.000403497 0.200276 0.413147 0)" d="M644.389 419.816C645.067 420.089 646.417 420.366 646.67 421.063C649.067 427.662 646.788 477.748 647.05 488.976L641.983 489.016C640.987 477.757 641.161 466.298 640.966 454.999C640.91 449.943 640.975 444.882 640.986 439.826C640.934 434.862 640.541 429.545 641.502 424.663C641.962 422.322 642.367 421.166 644.389 419.816Z"/>
	<path fill="#06442D" transform="matrix(0.200276 0.000403497 -0.000403497 0.200276 0.413147 0)" d="M630.501 419.944C634.627 419.981 640.485 420.81 644.389 419.816C642.367 421.166 641.962 422.322 641.502 424.663C640.541 429.545 640.934 434.862 640.986 439.826C637.434 439.28 633.597 439.434 630.03 439.79C624.768 440.204 619.462 440.056 614.193 439.868L614.077 439.428C613.789 432.949 614.003 426.379 614.01 419.889Q622.255 420.045 630.501 419.944Z"/>
	<path fill="#6CEC64" transform="matrix(0.200276 0.000403497 -0.000403497 0.200276 0.413147 0)" d="M858.006 267.432L874.591 267.211Q874.722 285.611 874.466 304.009L890.458 304.011L890.449 337.504C895.593 337.497 900.945 337.178 906.058 337.688C910.922 338.423 916.147 338.007 921.078 338.019Q920.965 357.604 921.51 377.182L921.862 377.475L936.732 377.561C936.612 391.431 935.472 410.537 937.018 423.926C937.438 439.467 937.011 454.963 937.145 470.498C931.775 470.606 926.366 470.852 920.998 470.64C920.973 461.019 920.696 451.297 921.208 441.69L920.807 439.814C918.221 437.899 909.229 438.992 905.934 439.032Q905.858 431.558 905.896 424.084C905.39 413.361 905.648 402.642 905.844 391.916L890.7 392.006L890.841 360.913L873.985 361.015Q873.668 332.56 874.083 304.106C868.737 304.713 863.361 304.534 857.99 304.486L858.006 267.432Z"/>
	<path fill="#2FA85A" transform="matrix(0.200276 0.000403497 -0.000403497 0.200276 0.413147 0)" d="M905.896 424.084L921.582 424.002C921.567 429.639 922.183 436.157 921.208 441.69L920.807 439.814C918.221 437.899 909.229 438.992 905.934 439.032Q905.858 431.558 905.896 424.084Z"/>
	<path transform="matrix(0.200276 0.000403497 -0.000403497 0.200276 0.413147 0)" d="M906.058 337.688C910.922 338.423 916.147 338.007 921.078 338.019Q920.965 357.604 921.51 377.182C916.468 376.53 911.525 376.798 906.468 377.002C905.318 364.063 906.005 350.687 906.058 337.688Z"/>
	<path transform="matrix(0.200276 0.000403497 -0.000403497 0.200276 0.413147 0)" d="M921.862 377.475L936.732 377.561C936.612 391.431 935.472 410.537 937.018 423.926C932.035 423.572 927.003 423.808 922.012 423.903C921.463 408.401 922.149 392.966 921.862 377.475Z"/>
	<defs>
		<linearGradient id="gradient_1" gradientUnits="userSpaceOnUse" x1="926.55341" y1="486.86948" x2="821.08087" y2="467.88461">
			<stop offset="0" stop-color="#3FAD6A"/>
			<stop offset="1" stop-color="#48907A"/>
		</linearGradient>
	</defs>
	<path fill="url(#gradient_1)" transform="matrix(0.200276 0.000403497 -0.000403497 0.200276 0.413147 0)" d="M830.597 409.022L849.605 409.019Q849.75 420.476 849.479 431.93L872.984 431.965L873.004 448.005L898.478 448.017L898.495 484.987Q910.026 485.303 921.556 484.934L921.944 521.998C903.872 521.963 885.788 521.792 867.717 521.969L867.453 537.504L867.092 537.571C861.345 537.411 855.647 537.501 849.903 537.677C850.473 527.401 850.275 517.181 850.307 506.895L850.512 459.93L830.518 460.02Q830.692 434.521 830.597 409.022Z"/>
	<path fill="#409571" transform="matrix(0.200276 0.000403497 -0.000403497 0.200276 0.413147 0)" d="M767.985 472.008L797.985 472.016L797.603 487.995L813.485 488.018L813.467 503.998L829.593 504.016L829.423 536.138C829.33 543.842 828.745 551.966 829.792 559.599C830.064 564.927 830.022 570.26 830.024 575.593L812.991 575.804C812.983 582.184 812.853 588.593 813.041 594.969L795.98 594.999L785.511 595.07Q785.597 575.026 785.106 554.988L769.508 555.072L769.519 506.918L751.514 507.012L751.524 487.81C757.013 487.644 762.523 487.678 768.015 487.628L767.985 472.008Z"/>
	<path fill="#16803A" transform="matrix(0.200276 0.000403497 -0.000403497 0.200276 0.413147 0)" d="M641.56 592.151C654.966 591.452 668.12 592.004 681.514 592.038L681.497 606.031L701.97 606.059L702.09 617.004L719.971 616.938C720.085 651.269 721.009 685.579 721.004 719.913C717.552 719.919 713.904 719.696 710.49 720.165L710.502 698.978L701.813 698.994L701.81 680.626L663.018 680.625Q662.854 672.259 663.015 663.894Q652.25 664.047 641.484 664.014C641.542 649.509 641.866 634.988 641.803 620.486C641.762 611.094 641.03 601.519 641.56 592.151Z"/>
	<path fill="#2FA85A" transform="matrix(0.200276 0.000403497 -0.000403497 0.200276 0.413147 0)" d="M702.989 522.177C708.632 521.95 714.371 521.919 719.993 522.467L720.018 536.993L751.462 537.014L751.492 575.029C759.272 575 767.238 574.658 774.974 575.534L774.922 613.485C774.834 622.05 774.058 630.86 775.306 639.355C775.748 647.044 775.543 654.748 775.499 662.445L759.505 662.5C759.479 674.981 759.719 687.528 759.362 700L740.567 699.958C739.503 689.975 740.143 679.75 740.142 669.717L740.07 617.001C733.371 617.074 726.707 617.088 720.012 616.818L720.01 575.413L702.985 575.22L702.989 522.177Z"/>
	<path fill="#0A5B33" transform="matrix(0.200276 0.000403497 -0.000403497 0.200276 0.413147 0)" d="M190.844 255.993L205.928 256.076Q206.089 271.933 205.942 287.79C211.223 287.58 217.449 286.769 222.636 287.68C227.625 288.786 233.814 288.09 238.954 288.071C239.007 300.484 238.081 316.017 239.577 328.047C240.286 337.739 240.054 347.531 239.93 357.243C239.95 358.837 240.026 360.42 239.836 362.006C237.978 373.108 239.384 388.917 239.407 400.486L239.512 400.979L239.473 421.497C244.798 421.527 250.182 421.412 255.5 421.637L255.518 438.001L272.122 437.939C272.081 442.968 271.848 448.08 272.222 453.096L272.561 454.952Q280.542 455.194 288.526 455.112C288.37 460.433 288.217 465.679 288.61 470.995L289.932 471.337C301.752 472.058 313.682 471.617 325.515 471.485L325.486 455.86C331.312 456.082 337.196 455.946 343.028 455.951L343.118 471.503L360.299 471.529C359.289 448.414 360.644 425.154 360.012 402.011C376.364 401.978 393.767 403.629 409.979 401.419L410.005 419.584C410.008 426.369 409.814 433.231 410.172 440.004C410.513 443.653 410.804 447.59 410.23 451.224C422.751 450.961 435.291 451.189 447.8 450.878L447.754 466.892L464.014 466.634L464.019 488L473.003 487.835C473.049 494.533 473.301 501.306 473.054 507.995C475.527 507.987 477.701 507.353 480.013 506.532Q480.536 521.777 480.572 537.031C478.088 537.13 475.314 536.94 473.03 537.999C471.165 540.084 471.348 541.499 471.468 544.189C466.324 544.114 461.166 543.958 456.021 544.017L455.983 568.628C441.524 568.861 427.075 568.49 412.617 568.484L398.528 568.527L398.546 576.009C399.667 594.332 398.866 612.84 398.657 631.186L398.5 698.949C398.483 705.963 398.569 712.995 398.4 720.006L416.09 719.997L416.016 739.402Q424.483 739.555 432.952 739.486L432.97 759.614C427.65 759.314 422.258 759.502 416.929 759.517L416.12 758.984C410.301 758.83 404.454 758.946 398.632 758.96C399.01 752.753 399.381 745.513 398.294 739.417C397.059 733.583 397.992 725.999 398.066 720.006L379.432 719.963C378.49 713.301 379.826 706.537 378.885 699.808C373.457 700.657 367.076 700.003 361.555 699.979C361.201 694.426 362.405 688.422 361.408 682.973C361.131 681.464 360.655 681.1 359.453 680.223C349.966 681.719 333.13 680.594 323.057 680.384C321.578 680.546 321.227 680.367 320.19 681.495C318.936 693.46 319.917 707.502 319.955 719.697L302.246 719.595C302.265 725.214 302.2 730.848 302.376 736.465C295.599 736.475 288.804 736.383 282.029 736.531Q281.866 718.498 281.996 700.466L266.435 700.461L266.235 700.041L266.503 699.698L266.601 661.489L248.992 661.497L248.915 647.024C248.434 642.771 248.626 638.305 248.56 634.021C242.814 633.192 236.863 633.704 231.084 633.936Q230.699 616.467 231.026 598.998L213.667 598.971C213.565 590.826 213.85 582.638 213.953 574.491L195.137 574.5C194.852 567.598 194.979 560.671 195.006 553.764L195.041 537.986C189.597 538.057 181.139 539.213 176.204 537.076L175.801 535.625L175.267 536.78C173.897 537.191 172.754 537.25 171.327 537.285C170.457 537.306 170.835 537.281 169.877 537.425C165.618 537.596 161.285 537.396 157.019 537.364L157.007 520.981L101.286 520.997C100.48 526.431 100.832 532.165 100.909 537.649C95.0494 537.076 88.8824 537.421 82.9919 537.423L83.1746 537.112L85.2349 536.911L85.8014 536.183C86.4304 527.534 86.9365 477.412 85.322 471.869L84.1085 471.21C85.0046 471.092 85.1113 471.027 85.9284 470.489L86.3413 468.359C86.8909 453.625 86.5046 438.759 86.5058 424.01Q86.3913 400.817 86.851 377.628L102.07 377.62L102.354 377.494C107.598 377.319 112.816 377.409 118.059 377.517C119.179 364.499 118.322 351.072 118.386 338C119.187 327.107 118.711 315.964 118.614 305.044C123.414 305.064 128.263 305.236 133.039 304.69C134.753 304.504 136.557 304.594 138.282 304.576C141.444 304.308 144.74 304.479 147.917 304.485C148.89 288.651 146.42 272.241 148.173 256.533L151.731 256.592L175.417 256.633C175.482 258.928 175.535 261.21 175.472 263.506L191.004 263.495L190.844 255.993Z"/>
	<path fill="#06442D" transform="matrix(0.200276 0.000403497 -0.000403497 0.200276 0.413147 0)" d="M398.528 568.527C398.468 565.078 399.463 556.503 397.534 554.041C397.397 553.866 397.239 553.707 397.092 553.541L398.101 553.83L398.226 553.091C402.501 552.02 408.345 552.548 412.841 552.451C412.663 557.802 412.481 563.13 412.617 568.484L398.528 568.527Z"/>
	<path transform="matrix(0.200276 0.000403497 -0.000403497 0.200276 0.413147 0)" d="M272.561 454.952Q280.542 455.194 288.526 455.112C288.37 460.433 288.217 465.679 288.61 470.995C283.212 471.279 277.823 471.113 272.423 470.997C272.403 465.648 272.338 460.297 272.561 454.952Z"/>
	<path transform="matrix(0.200276 0.000403497 -0.000403497 0.200276 0.413147 0)" d="M391.2 537.257C392.656 537.202 394.028 537.244 395.482 537.355C396.783 539.837 396.066 550.048 396.079 553.481C392.093 554.042 388.139 554.016 384.125 554.024C382.284 554.066 380.606 554.045 378.786 553.748C377.818 548.736 378.453 542.568 378.46 537.418L391.2 537.257Z"/>
	<path fill="#2FA85A" transform="matrix(0.200276 0.000403497 -0.000403497 0.200276 0.413147 0)" d="M151.731 256.592L175.417 256.633C174.297 264.455 175.313 272.621 174.898 280.511L162.46 280.544C162.521 287.186 163.501 298.737 162.27 304.732C161.658 299.335 162.012 293.587 162.008 288.145L162.001 257.078C158.571 257.067 155.121 257.181 151.731 256.592Z"/>
	<path transform="matrix(0.200276 0.000403497 -0.000403497 0.200276 0.413147 0)" d="M398.294 739.417C404.305 738.874 410.035 738.905 416.032 739.598C415.914 746.071 415.778 752.514 416.12 758.984C410.301 758.83 404.454 758.946 398.632 758.96C399.01 752.753 399.381 745.513 398.294 739.417Z"/>
	<path transform="matrix(0.200276 0.000403497 -0.000403497 0.200276 0.413147 0)" d="M207.522 361.438C212.583 361.46 218.023 361.064 223.029 361.699C223.104 369.081 222.927 376.502 223.112 383.875C217.976 384.328 212.616 384.017 207.453 384.015L207.522 361.438Z"/>
	<path fill="#16803A" transform="matrix(0.200276 0.000403497 -0.000403497 0.200276 0.413147 0)" d="M254.977 487.504L272.024 487.527Q272.097 504.539 271.993 521.55L254.967 521.554L254.977 487.504Z"/>
	<path fill="#6CEC64" transform="matrix(0.200276 0.000403497 -0.000403497 0.200276 0.413147 0)" d="M148.173 256.533L151.731 256.592C155.121 257.181 158.571 257.067 162.001 257.078L162.008 288.145C162.012 293.587 161.658 299.335 162.27 304.732Q155.337 304.579 148.402 304.515C148.71 295.424 148.452 286.283 148.449 277.185C148.447 270.394 148.869 263.279 148.173 256.533Z"/>
	<path fill="#6E6E2B" transform="matrix(0.200276 0.000403497 -0.000403497 0.200276 0.413147 0)" d="M395.991 439.935L410.172 440.004C410.513 443.653 410.804 447.59 410.23 451.224C409.466 456.71 409.897 462.679 409.898 468.227C409.899 480.173 410.141 492.171 409.831 504.11C405.063 504.154 400.287 504.097 395.518 504.089C396.521 495.93 396.064 487.384 396.054 479.168L395.991 439.935Z"/>
	<path transform="matrix(0.200276 0.000403497 -0.000403497 0.200276 0.413147 0)" d="M195.71 304.433L207.005 304.495C207.234 316.96 207.747 329.549 207.363 342.008C206.968 348.281 206.399 355.212 207.522 361.438Q199.273 361.445 191.024 361.317C191.017 352.736 189.833 308.361 191.506 304.596L195.71 304.433Z"/>
	<path transform="matrix(0.200276 0.000403497 -0.000403497 0.200276 0.413147 0)" d="M223.409 383.995L238.957 384.004C238.868 388.975 237.97 395.837 239.407 400.486L239.512 400.979L239.473 421.497C244.798 421.527 250.182 421.412 255.5 421.637L255.518 438.001L272.122 437.939C272.081 442.968 271.848 448.08 272.222 453.096C272.07 454.006 272.049 454.046 271.402 454.797C266.368 455.633 260.676 455.102 255.55 455.061Q255.659 447.021 255.602 438.981C250.397 438.988 245.197 439.247 239.998 439.465L239.91 422.001L223.151 422.012Q222.687 402.999 223.409 383.995Z"/>
	<path fill="#6CEC64" transform="matrix(0.200276 0.000403497 -0.000403497 0.200276 0.413147 0)" d="M395.39 504.911C403.596 504.487 411.793 505.326 419.997 504.847L424.131 505.643L424.564 506L424.71 520.006C433.131 520.018 441.614 520.237 450.023 519.827C451.767 519.805 453.495 519.788 455.237 519.882C455.911 525.195 455.53 530.843 455.526 536.201Q433.004 536.494 410.48 536.494L410.501 521.208L395.047 521.411Q395.057 513.158 395.39 504.911Z"/>
	<path fill="#6CEC64" transform="matrix(0.200276 0.000403497 -0.000403497 0.200276 0.413147 0)" d="M190.844 255.993L205.928 256.076Q206.089 271.933 205.942 287.79C211.223 287.58 217.449 286.769 222.636 287.68C227.625 288.786 233.814 288.09 238.954 288.071C239.007 300.484 238.081 316.017 239.577 328.047C240.286 337.739 240.054 347.531 239.93 357.243L239.409 361.373C234.271 361.981 228.159 362.322 223.029 361.699C218.023 361.064 212.583 361.46 207.522 361.438C206.399 355.212 206.968 348.281 207.363 342.008C207.747 329.549 207.234 316.96 207.005 304.495L195.71 304.433C194.3 304.265 193.114 304.06 191.766 303.616C189.712 299.875 190.929 269.641 191.004 263.495L190.844 255.993Z"/>
	<path fill="#0A5B33" transform="matrix(0.200276 0.000403497 -0.000403497 0.200276 0.413147 0)" d="M207.363 342.008L223.143 341.925L223.029 361.699C218.023 361.064 212.583 361.46 207.522 361.438C206.399 355.212 206.968 348.281 207.363 342.008Z"/>
	<path transform="matrix(0.200276 0.000403497 -0.000403497 0.200276 0.413147 0)" d="M222.636 287.68C227.625 288.786 233.814 288.09 238.954 288.071C239.007 300.484 238.081 316.017 239.577 328.047L222.94 328.006Q223.165 307.84 222.636 287.68Z"/>
	<path transform="matrix(0.200276 0.000403497 -0.000403497 0.200276 0.413147 0)" d="M410.23 451.224C422.751 450.961 435.291 451.189 447.8 450.878L447.754 466.892L464.014 466.634L464.019 488L473.003 487.835C473.049 494.533 473.301 501.306 473.054 507.995L472.99 519.132C467.502 519.078 454.936 518.085 450.023 519.827C441.614 520.237 433.131 520.018 424.71 520.006L424.564 506L424.131 505.643L419.997 504.847C416.936 504.337 412.556 505.37 409.831 504.11C410.141 492.171 409.899 480.173 409.898 468.227C409.897 462.679 409.466 456.71 410.23 451.224Z"/>
	<path fill="#F1F1D6" transform="matrix(0.200276 0.000403497 -0.000403497 0.200276 0.413147 0)" d="M423.994 459.102C429.325 459.136 434.668 459.335 439.999 459.458Q439.874 467.541 440.189 475.618C436.42 478.666 428.702 477.53 424.022 477.364L423.994 459.102Z"/>
	<path fill="#F0F164" transform="matrix(0.200276 0.000403497 -0.000403497 0.200276 0.413147 0)" d="M440.189 475.618C445.562 475.024 450.878 474.927 456.279 475.052C456.271 479.446 456.326 483.85 456.12 488.239Q440.079 488.662 424.034 488.446L424.022 477.364C428.702 477.53 436.42 478.666 440.189 475.618Z"/>
	<path fill="#DF7316" transform="matrix(0.200276 0.000403497 -0.000403497 0.200276 0.413147 0)" d="M456.12 488.239Q455.941 497.113 455.981 505.988L424.564 506L424.131 505.643L424.034 488.446Q440.079 488.662 456.12 488.239Z"/>
	<path fill="#6CEC64" transform="matrix(0.200276 0.000403497 -0.000403497 0.200276 0.413147 0)" d="M133.039 304.69C134.753 304.504 136.557 304.594 138.282 304.576C141.431 304.882 144.535 304.954 147.696 304.974C146.508 323.835 147.122 343.022 147.076 361.924L131.969 361.951L131.565 399.998L116.396 400.014L116.007 438.936L101.374 438.958Q101.103 454.978 101.135 470.999C98.1199 471.05 88.8637 472.118 86.6365 470.221L86.3413 468.359C86.8909 453.625 86.5046 438.759 86.5058 424.01Q86.3913 400.817 86.851 377.628L102.07 377.62L102.354 377.494C107.598 377.319 112.816 377.409 118.059 377.517C119.179 364.499 118.322 351.072 118.386 338C119.187 327.107 118.711 315.964 118.614 305.044C123.414 305.064 128.263 305.236 133.039 304.69Z"/>
	<path transform="matrix(0.200276 0.000403497 -0.000403497 0.200276 0.413147 0)" d="M118.614 305.044C123.414 305.064 128.263 305.236 133.039 304.69L133.032 338.08L118.386 338C119.187 327.107 118.711 315.964 118.614 305.044Z"/>
	<path transform="matrix(0.200276 0.000403497 -0.000403497 0.200276 0.413147 0)" d="M86.851 377.628L102.07 377.62Q102.285 400.739 102.057 423.858L86.5058 424.01Q86.3913 400.817 86.851 377.628Z"/>
	<path fill="#16803A" transform="matrix(0.200276 0.000403497 -0.000403497 0.200276 0.413147 0)" d="M323.516 575.051C335.665 575.038 347.831 574.893 359.978 575.041L359.991 591.598L379.022 591.479L379.025 636.624C379.037 645.402 379.351 654.173 378.914 662.944Q369.183 663.113 359.45 663.016C359.262 668.583 358.594 674.746 359.453 680.223C349.966 681.719 333.13 680.594 323.057 680.384C322.151 645.343 323.524 610.115 323.516 575.051Z"/>
	<path transform="matrix(0.200276 0.000403497 -0.000403497 0.200276 0.413147 0)" d="M360.012 402.011C376.364 401.978 393.767 403.629 409.979 401.419L410.005 419.584L377.752 419.747L377.734 488.505C377.663 494.824 377.507 501.159 377.587 507.477C372.338 507.515 366.996 507.348 361.775 507.924C367.11 508.362 372.662 508.007 378.021 507.965C377.891 517.882 377.321 527.522 378.108 537.442C372.108 537.77 366.083 537.532 360.078 537.414L359.993 523.507L343.061 523.773C342.996 518.504 343.295 513.238 343.527 507.976C337.504 507.704 331.509 507.86 325.485 508.004C325.463 502.847 325.209 497.536 326.037 492.435L325.978 487.963C313.647 488.349 301.318 488.149 288.984 488.018C288.791 483.144 288.381 477.998 288.929 473.142C289.059 471.983 289.033 472.058 289.932 471.337C301.752 472.058 313.682 471.617 325.515 471.485L325.486 455.86C331.312 456.082 337.196 455.946 343.028 455.951L343.118 471.503L360.299 471.529C359.289 448.414 360.644 425.154 360.012 402.011Z"/>
	<path fill="#6CEC64" transform="matrix(0.200276 0.000403497 -0.000403497 0.200276 0.413147 0)" d="M325.94 471.692Q334.571 471.454 343.206 471.467C343.02 478.492 343.239 485.504 343.116 492.521C337.429 492.57 331.718 492.732 326.037 492.435L325.978 487.963L325.94 471.692Z"/>
	<path fill="#6CEC64" transform="matrix(0.200276 0.000403497 -0.000403497 0.200276 0.413147 0)" d="M343.884 488.523C355.154 488.198 366.46 488.44 377.734 488.505C377.663 494.824 377.507 501.159 377.587 507.477C372.338 507.515 366.996 507.348 361.775 507.924C355.686 507.89 349.695 507.962 343.614 507.477C343.341 501.183 343.735 494.82 343.884 488.523Z"/>
	<path fill="#2FA85A" transform="matrix(0.200276 0.000403497 -0.000403497 0.200276 0.413147 0)" d="M223.598 472.013L254.984 472.013L254.977 487.504L254.967 521.554L254.943 554.497L237.647 554.481Q237.446 576.739 237.5 598.997L231.026 598.998L213.667 598.971C213.565 590.826 213.85 582.638 213.953 574.491L195.137 574.5C194.852 567.598 194.979 560.671 195.006 553.764L195.041 537.986Q194.933 521.493 194.999 505L208.523 504.809L208.495 488.015L223.871 488.001C223.972 482.683 223.72 477.331 223.598 472.013Z"/>
	<path fill="#2FA85A" transform="matrix(0.200276 0.000403497 -0.000403497 0.200276 0.413147 0)" d="M288.009 522.995L305.012 523.01L305.028 538.05C311.005 538.034 317.01 537.907 322.984 538.056L322.973 572.048L304.985 572.075L304.99 619.999L288.468 620.018L288.01 700.005C282.18 700.042 271.793 700.983 266.503 699.698L266.601 661.489L248.992 661.497L248.915 647.024C249.085 642.742 249.075 638.478 249.035 634.195L255.437 634.442L255.41 574.773L272.015 574.606L271.972 538.72L288.088 538.934L288.009 522.995Z"/>
	<path fill="#2FA85A" transform="matrix(0.200276 0.000403497 -0.000403497 0.200276 0.413147 0)" d="M175.25 407.036L192.988 407.009L193.031 470.996L175.932 471.02C175.931 492.428 176.741 514.259 175.801 535.625L175.267 536.78C173.897 537.191 172.754 537.25 171.327 537.285C170.457 537.306 170.835 537.281 169.877 537.425C165.618 537.596 161.285 537.396 157.019 537.364L157.007 520.981L101.286 520.997C102.533 509.96 101.61 498.161 101.437 487.068L117.525 487.035L117.408 456.007L132.458 456.037L132.433 439.945L151.027 439.947L151.012 423.513C159.187 423.232 167.33 423.028 175.51 423.125C175.678 417.786 175.88 412.35 175.25 407.036Z"/>
</svg>
