<?xml version="1.0" encoding="utf-8" ?>
<svg xmlns="http://www.w3.org/2000/svg" xmlns:xlink="http://www.w3.org/1999/xlink" width="200" height="200">
	<path fill="#06155B" transform="scale(0.196144 0.196144)" d="M792.542 834.017L811.323 833.988Q811.501 842.95 811.462 851.914C805.194 851.781 798.971 851.757 792.704 851.967C792.937 846.016 792.991 839.96 792.542 834.017Z"/>
	<path fill="#06155B" transform="scale(0.196144 0.196144)" d="M752.791 834.012L773 833.973C772.595 839.976 772.609 845.961 772.612 851.974Q762.828 851.87 753.043 851.902Q753.056 842.955 752.791 834.012Z"/>
	<path fill="#06155B" transform="scale(0.196144 0.196144)" d="M252.15 833.133C258.376 834.049 265.343 833.47 271.653 833.338L271.6 852.011C265.155 852.013 258.696 852.094 252.252 851.954C251.851 845.884 252.045 839.674 252.014 833.588L252.15 833.133Z"/>
	<path fill="#1583EF" transform="scale(0.196144 0.196144)" d="M231.942 833.611C238.745 833.02 245.204 832.939 252.014 833.588C252.045 839.674 251.851 845.884 252.252 851.954Q242.118 851.81 231.984 851.963L231.942 833.611Z"/>
	<path fill="#06155B" transform="scale(0.196144 0.196144)" d="M233.99 426.635L233.932 427.019C233.63 432.812 233.795 438.643 233.833 444.443L233.505 446.749C231.73 448.036 216.89 447.13 213.522 447.314C213.822 440.518 213.633 433.643 213.639 426.837C220.27 427.011 227.425 427.556 233.99 426.635Z"/>
	<path fill="#06155B" transform="scale(0.196144 0.196144)" d="M346.22 59.5948L369.758 59.5116Q369.78 68.8571 369.964 78.2009C362.355 77.3027 353.991 77.9753 346.304 78.0184C346.522 71.9465 346.613 65.6574 346.22 59.5948Z"/>
	<path fill="#06155B" transform="scale(0.196144 0.196144)" d="M370.454 78.456C377.507 78.188 384.634 78.0823 391.691 78.2405C391.633 84.277 391.161 90.752 392.166 96.7213C391.59 97.6288 391.671 97.9978 390.567 98.2465C387.079 99.0321 383.29 98.0722 379.729 98.9187L370.537 99.0217Q370.393 88.7393 370.454 78.456Z"/>
	<path fill="#06155B" transform="scale(0.196144 0.196144)" d="M233.991 406.07L255.447 406.015Q255.272 416.121 255.502 426.225C248.52 427.324 241.057 426.128 233.99 426.635L233.991 406.07Z"/>
	<path fill="#09134B" transform="scale(0.196144 0.196144)" d="M701.932 606.208C708.25 605.602 714.906 605.894 721.264 605.878C721.198 613.926 721.442 621.933 721.015 629.976C714.477 630.43 708.016 630.194 701.481 629.802Q701.921 618.009 701.932 606.208Z"/>
	<path fill="#BFA64C" transform="scale(0.196144 0.196144)" d="M792.442 799.421L811.213 799.43Q811.445 816.708 811.323 833.988L792.542 834.017L792.372 828.551C792.834 818.913 792.437 809.08 792.442 799.421Z"/>
	<path fill="#BFA64C" transform="scale(0.196144 0.196144)" d="M752.509 799.343C759.339 799.395 766.186 799.548 773.015 799.442C773.09 810.939 773.382 822.482 773 833.973L752.791 834.012C751.4 824.926 752.451 809.034 752.509 799.343Z"/>
	<path fill="#184DAB" transform="scale(0.196144 0.196144)" d="M734.111 799.449C740.23 799.57 746.382 799.299 752.509 799.343C752.451 809.034 751.4 824.926 752.791 834.012Q753.056 842.955 753.043 851.902L734.042 851.908L734.111 799.449Z"/>
	<path fill="#06155B" transform="scale(0.196144 0.196144)" d="M286.193 263.166C292.454 262.89 298.805 263.086 305.076 263.075Q304.928 273.003 305.049 282.931L305 307.618L304.917 330.998L323.025 331.002C323.404 337.527 323.504 344.029 323.549 350.563L323.393 351.105C317.304 349.844 310.317 350.514 304.168 351.025L304.421 330.975C298.35 330.814 292.247 330.972 286.174 331.018C286.575 321.732 286.301 312.313 286.322 303.013C286.351 289.74 286.555 276.435 286.193 263.166Z"/>
	<path fill="#06155B" transform="scale(0.196144 0.196144)" d="M346.304 78.0184C353.991 77.9753 362.355 77.3027 369.964 78.2009L370.454 78.456Q370.393 88.7392 370.537 99.0217L379.729 98.9187L392.003 98.9099L392 120.952C388.782 120.992 385.407 120.848 382.236 121.397C378.088 121.511 373.964 121.413 369.817 121.29Q369.146 133.032 369.821 144.774C361.925 145.746 354.384 145.06 346.497 144.989C346.482 152.177 346.748 159.496 346.314 166.665C345.35 167.655 344.039 167.455 342.691 167.482C337.415 167.588 332.029 167.229 326.773 167.593C333.117 168.198 339.643 167.888 346.01 167.79L346.005 182.511L323.983 182.49Q324.256 206.709 323.997 230.928C333.501 231.16 343.459 231.606 352.947 231.006C352.881 241.55 353.397 252.421 352.764 262.921L352.269 263.058C342.855 262.851 333.397 263.083 323.979 263.126Q314.67 263.11 305.361 262.982C306.068 234.355 305.376 205.608 305.369 176.964C305.362 151.077 306.118 124.943 305.146 99.0829L323.91 99.0272Q324.15 88.5809 323.565 78.1483Q334.805 78.0663 346.043 78.3247L346.304 78.0184Z"/>
	<path fill="#184DAB" transform="scale(0.196144 0.196144)" d="M352.947 231.006C352.881 241.55 353.397 252.421 352.764 262.921L352.269 263.058C342.855 262.851 333.397 263.083 323.979 263.126L323.997 230.928C333.501 231.16 343.459 231.606 352.947 231.006Z"/>
	<path fill="#64CFF7" transform="scale(0.196144 0.196144)" d="M346.304 78.0184C353.991 77.9753 362.355 77.3027 369.964 78.2009L370.454 78.456Q370.393 88.7392 370.537 99.0217L379.729 98.9187L392.003 98.9099L392 120.952C388.782 120.992 385.407 120.848 382.236 121.397C378.088 121.511 373.964 121.413 369.817 121.29Q369.146 133.032 369.821 144.774C361.925 145.746 354.384 145.06 346.497 144.989C346.482 152.177 346.748 159.496 346.314 166.665C345.35 167.655 344.039 167.455 342.691 167.482C337.415 167.588 332.029 167.229 326.773 167.593C325.592 167.588 325.238 167.719 324.173 167.135C323.304 159.074 323.826 150.465 323.844 142.338L323.982 99.0981C331.312 98.6404 338.573 98.8421 345.907 99.042Q345.587 88.6808 346.043 78.3247L346.304 78.0184Z"/>
	<path fill="#F05C83" transform="scale(0.196144 0.196144)" d="M346.042 99.0894C354.054 99.8469 362.071 98.8076 370.094 99.4434Q369.659 110.291 369.672 121.147C361.901 120.881 354.139 120.959 346.365 121.024C346.545 128.799 347.002 136.832 346.403 144.592C345.502 139.658 346.028 134.014 346.022 128.972L346.042 99.0894Z"/>
	<path fill="#E20D1B" transform="scale(0.196144 0.196144)" d="M346.365 121.024C354.139 120.959 361.901 120.881 369.672 121.147L369.817 121.29Q369.146 133.032 369.821 144.774C361.925 145.746 354.384 145.06 346.497 144.989L346.403 144.592C347.002 136.832 346.545 128.799 346.365 121.024Z"/>
	<path fill="#06155B" transform="scale(0.196144 0.196144)" d="M850.148 627.49Q858.878 627.342 867.605 627.611Q866.953 739.806 867.923 852.001L831.527 851.984C831.695 846.186 832.359 839.744 831.008 834.072C830.165 822.687 830.836 810.871 830.739 799.438C824.237 799.297 817.717 799.405 811.213 799.43L792.442 799.421C792.437 809.08 792.834 818.913 792.372 828.551C791.615 818.894 792.4 809.101 792.014 799.416C785.677 799.041 779.355 799.276 773.015 799.442C766.186 799.548 759.339 799.395 752.509 799.343C746.382 799.299 740.23 799.57 734.111 799.449C735.11 782.203 734.29 764.471 734.311 747.163L734.356 646.65C740.187 647.785 746.623 647.348 752.552 647.346C752.211 668.081 753.039 688.866 752.962 709.616C752.875 733.129 751.913 756.821 752.761 780.312L850.523 780.661L850.544 747.917Q851.279 709.224 850.971 670.525C850.942 661.631 850.682 652.754 850.556 643.863C850.479 638.44 850.756 632.879 850.148 627.49Z"/>
	<path fill="#BFA64C" transform="scale(0.196144 0.196144)" d="M830.739 799.438L850.062 799.503L850.045 834.267L831.008 834.072C830.165 822.687 830.836 810.871 830.739 799.438Z"/>
	<path fill="#297B2C" transform="scale(0.196144 0.196144)" d="M734.102 605.753C739.837 605.024 746.787 604.919 752.511 605.835C764.637 606.341 776.871 606.006 789.009 606.006L831.066 605.977C831.089 613.147 831.237 620.339 831.112 627.507L850.148 627.49C850.756 632.879 850.479 638.44 850.556 643.863C850.682 652.754 850.942 661.631 850.971 670.525Q851.278 709.224 850.544 747.917L850.523 780.661L752.761 780.312C751.913 756.821 752.875 733.129 752.962 709.616C753.039 688.866 752.211 668.081 752.552 647.346C746.623 647.348 740.187 647.785 734.356 646.65C734.488 640.209 735.093 609.114 734.102 605.753Z"/>
	<path fill="#09134B" transform="scale(0.196144 0.196144)" d="M734.102 605.753C739.837 605.024 746.787 604.919 752.511 605.835C752.61 619.632 753.079 633.565 752.552 647.346C746.623 647.348 740.187 647.785 734.356 646.65C734.488 640.209 735.093 609.114 734.102 605.753Z"/>
	<path fill="#45DC5A" transform="scale(0.196144 0.196144)" d="M789.009 606.006L831.066 605.977C831.089 613.147 831.237 620.339 831.112 627.507L850.148 627.49C850.756 632.879 850.479 638.44 850.556 643.863C850.682 652.754 850.942 661.631 850.971 670.525Q851.278 709.224 850.544 747.917C841.121 747.039 831.407 747.533 821.94 747.531L773.433 747.412L773.414 726.07L830.961 726.248Q830.901 713.897 830.604 701.55C811.466 702.563 792.156 702.076 772.997 702.028L772.98 678.991L830.837 678.989L830.797 653.939L812.013 654.034C811.921 645.691 811.991 637.342 811.995 628.998L789.185 629.019L789.009 606.006Z"/>
	<path fill="#06155B" transform="scale(0.196144 0.196144)" d="M651.418 58.1387Q664.918 57.9802 678.418 58.0891C678.273 64.7881 678.219 71.4257 678.526 78.1209C685.386 77.7765 692.347 77.3728 699.204 77.9282Q699.046 88.1226 699.032 98.3181C705.461 98.2439 711.974 97.964 718.395 98.2132Q717.845 156.25 718.42 214.288C718.556 230.463 717.978 246.971 718.988 263.092L737.525 263.104C737.603 285.384 737.275 307.733 737.903 330.002C731.602 329.957 725.269 329.794 718.971 329.994C719.169 322.367 719.01 314.695 719.023 307.062L719.027 283.052L719.003 263.382C712.394 262.934 705.769 262.993 699.148 262.971Q698.966 247.04 699.012 231.108L699.022 187.499L678.972 187.536L678.984 168.002C679.06 162.959 679.98 155.367 678.673 150.602L678.519 145.407C669.711 145.553 660.782 145.931 651.999 145.122C651.679 137.516 651.874 129.887 651.962 122.276C644.918 121.91 637.83 122.216 630.77 121.909L630.452 121.342C622.126 120.475 613.505 120.928 605.135 120.988C593.487 122.355 581.252 121.585 569.517 121.548L511.304 121.473L452.897 121.464C441.225 121.502 429.085 122.29 417.488 121.018C408.999 120.748 400.493 120.899 392 120.952L392.003 98.9099L379.729 98.9187C383.29 98.0722 387.079 99.0321 390.567 98.2465C391.671 97.9978 391.59 97.6288 392.166 96.7213C398.738 95.7594 405.987 96.2919 412.642 96.3496C412.565 94.0151 411.937 89.7092 413.54 87.8437C413.996 87.3119 414.713 87.3585 415.366 87.2969C420.652 86.7987 426.497 87.4118 431.833 87.4731Q445.764 87.5317 459.693 87.338L553.225 86.9742C570.622 86.9383 588.083 87.1959 605.468 86.6L605.494 98.0689C613.37 97.9246 622.231 97.0428 630.031 98.1058C629.994 91.4514 630.05 84.7796 629.856 78.1285L651.559 78.046L651.418 58.1387Z"/>
	<path fill="#64CFF7" transform="scale(0.196144 0.196144)" d="M630.411 98.9955L651.906 98.8683C651.934 106.669 652.027 114.476 651.962 122.276C644.918 121.91 637.83 122.216 630.77 121.909L630.452 121.342C630.202 113.919 630.41 106.426 630.411 98.9955Z"/>
	<path fill="#64CFF7" transform="scale(0.196144 0.196144)" d="M651.594 78.4788C660.676 78.3827 669.742 78.2642 678.821 78.6256C679.037 85.2148 679.403 91.9814 678.746 98.5508C685.516 99.416 691.937 99.1478 698.71 98.6931C700.037 121.678 699.107 144.996 698.945 168.016L678.984 168.002C679.06 162.959 679.98 155.367 678.673 150.602L678.519 145.407C669.711 145.553 660.782 145.931 651.999 145.122C651.679 137.516 651.874 129.887 651.962 122.276C652.027 114.476 651.934 106.669 651.906 98.8683L651.72 98.2582C651.45 91.6608 651.524 85.0794 651.594 78.4788Z"/>
	<path fill="#E21A43" transform="scale(0.196144 0.196144)" d="M651.906 98.8683C660.794 99.1622 669.606 98.4534 678.477 98.5027L678.519 145.407C669.711 145.553 660.782 145.931 651.999 145.122C651.679 137.516 651.874 129.887 651.962 122.276C652.027 114.476 651.934 106.669 651.906 98.8683Z"/>
	<path fill="#64CFF7" transform="scale(0.196144 0.196144)" d="M392.166 96.7213C398.738 95.7594 405.987 96.2919 412.642 96.3496L414.263 102.493C437.841 102.807 461.437 102.65 485.018 102.675C495.019 102.686 508.062 101.817 517.694 102.915L605.056 102.986L605.135 120.988C593.487 122.355 581.252 121.585 569.517 121.548L511.304 121.473L452.897 121.464C441.225 121.502 429.085 122.29 417.488 121.018C408.999 120.748 400.493 120.899 392 120.952L392.003 98.9099L379.729 98.9187C383.29 98.0722 387.079 99.0321 390.567 98.2465C391.671 97.9978 391.59 97.6288 392.166 96.7213Z"/>
	<path fill="#184DAB" transform="scale(0.196144 0.196144)" d="M392.166 96.7213C398.738 95.7594 405.987 96.2919 412.642 96.3496L414.263 102.493C437.841 102.807 461.437 102.65 485.018 102.675C495.019 102.686 508.062 101.817 517.694 102.915C484.319 103.745 450.769 103.025 417.376 103.007L417.488 121.018C408.999 120.748 400.493 120.899 392 120.952L392.003 98.9099L379.729 98.9187C383.29 98.0722 387.079 99.0321 390.567 98.2465C391.671 97.9978 391.59 97.6288 392.166 96.7213Z"/>
	<path fill="#1583EF" transform="scale(0.196144 0.196144)" d="M323.549 350.563Q337.771 350.482 351.992 350.593C351.744 399.166 351.417 447.816 351.947 496.384C357.34 496.463 367.895 495.447 372.408 496.349C372.465 502.104 372.689 507.913 372.299 513.657L372.005 514.888C369.05 516.59 352.911 515.179 348.533 515.068L348.522 497.004L333.674 496.981C334.586 481.738 334.106 466.301 334.037 451.033L320.008 451.072C320.287 478.345 321.036 505.654 320.97 532.924C321.142 548.606 321.478 564.297 321.497 579.979C321.478 591.573 320.296 618.995 322.321 628.75C315.343 629.636 307.642 629.026 300.577 628.996C300.58 621.532 300.315 613.943 300.841 606.5L291.232 606.352C292.589 606.165 293.953 606 295.303 605.771C294.812 599.428 295.019 592.874 295.284 586.519C275.856 586.391 256.434 586.978 236.997 586.92C229.206 586.896 221.263 587.163 213.494 586.619L213.522 447.314C216.89 447.13 231.73 448.036 233.505 446.749L233.833 444.443C233.795 438.643 233.63 432.812 233.932 427.019L233.99 426.635C241.057 426.128 248.52 427.324 255.502 426.225Q255.272 416.121 255.447 406.015C255.814 399.554 255.591 392.986 255.573 386.512L303.319 386.442C303.357 380.463 303.387 374.5 303.168 368.523L322.607 368.46C322.656 362.879 322.33 356.57 323.393 351.105L323.549 350.563Z"/>
	<path fill="#64CFF7" transform="scale(0.196144 0.196144)" d="M233.932 427.019Q244.629 426.796 255.329 426.834C255.498 431.079 256.505 444.711 254.505 447.729C252.94 448.002 251.553 448.043 249.967 447.987C245.804 447.969 238.363 449.233 234.674 447.066C233.917 446.621 233.974 445.273 233.833 444.443C233.795 438.643 233.63 432.812 233.932 427.019Z"/>
	<path fill="#38B2F7" transform="scale(0.196144 0.196144)" d="M213.522 447.314C216.89 447.13 231.73 448.036 233.505 446.749L233.833 444.443C233.974 445.273 233.917 446.621 234.674 447.066C238.363 449.233 245.804 447.969 249.967 447.987L249.994 469.988L233.444 469.959C233.226 508.681 232.231 547.758 233.88 586.449C227.095 586.425 220.27 586.262 213.494 586.619L213.522 447.314Z"/>
	<path fill="#184DAB" transform="scale(0.196144 0.196144)" d="M268.803 452.713L301.652 452.646C302.91 477.223 302.01 502.285 302.031 526.916L302.058 565.308C302.061 572.432 302.356 579.702 301.885 586.807L295.284 586.519C275.856 586.391 256.434 586.978 236.997 586.92C229.206 586.896 221.263 587.163 213.494 586.619C220.27 586.262 227.095 586.425 233.88 586.449L269.071 586.468C268.457 541.912 268.943 497.278 268.803 452.713Z"/>
	<path fill="#09134B" transform="scale(0.196144 0.196144)" d="M323.549 350.563Q337.771 350.482 351.992 350.593C351.744 399.166 351.417 447.816 351.947 496.384C357.34 496.463 367.895 495.447 372.408 496.349C372.465 502.104 372.689 507.913 372.299 513.657L372.005 514.888C369.05 516.59 352.911 515.179 348.533 515.068L348.522 497.004L333.674 496.981C334.586 481.738 334.106 466.301 334.037 451.033L320.008 451.072C320.287 478.345 321.036 505.654 320.97 532.924C321.142 548.606 321.478 564.297 321.497 579.979C321.478 591.573 320.296 618.995 322.321 628.75C315.343 629.636 307.642 629.026 300.577 628.996C300.58 621.532 300.315 613.943 300.841 606.5L291.232 606.352C292.589 606.165 293.953 606 295.303 605.771C294.812 599.428 295.019 592.874 295.284 586.519L301.885 586.807C302.356 579.702 302.061 572.432 302.058 565.308L302.031 526.916C302.01 502.285 302.91 477.223 301.652 452.646C301.31 443.796 301.555 434.849 301.532 425.988C292.123 426.241 282.77 426.501 273.354 426.456C267.429 426.427 261.411 426.012 255.502 426.225Q255.272 416.121 255.447 406.015C255.814 399.554 255.591 392.986 255.573 386.512L303.319 386.442C303.357 380.463 303.387 374.5 303.168 368.523L322.607 368.46C322.656 362.879 322.33 356.57 323.393 351.105L323.549 350.563Z"/>
	<path fill="#64CFF7" transform="scale(0.196144 0.196144)" d="M320.004 385.08L334.524 385.092L334.526 406.986C329.671 407.013 324.859 406.994 320.009 406.705L320.004 385.08Z"/>
	<path fill="#1583EF" transform="scale(0.196144 0.196144)" d="M320.009 406.705C324.859 406.994 329.671 407.013 334.526 406.986C334.424 421.665 334.052 436.356 334.037 451.033L320.008 451.072Q319.837 428.888 320.009 406.705Z"/>
	<path fill="#64CFF7" transform="scale(0.196144 0.196144)" d="M255.447 406.015L301.502 405.995L301.532 425.988C292.123 426.241 282.77 426.501 273.354 426.456C267.429 426.427 261.411 426.012 255.502 426.225Q255.272 416.121 255.447 406.015Z"/>
	<path fill="#06155B" transform="scale(0.196144 0.196144)" d="M194.549 447.556C200.87 447.561 207.208 447.668 213.522 447.314L213.494 586.619C221.263 587.163 229.206 586.896 236.997 586.92C256.434 586.978 275.856 586.391 295.284 586.519C295.019 592.874 294.812 599.428 295.303 605.771C293.953 606 292.589 606.165 291.232 606.352L288.528 606.564C287.917 607.496 288.224 783.188 288.464 801.16C282.913 801.496 277.393 801.454 271.836 801.402C271.845 809.902 271.956 818.418 271.682 826.915L271.653 833.338C265.343 833.47 258.376 834.049 252.15 833.133L252.014 833.588C245.204 832.939 238.745 833.02 231.942 833.611L231.984 851.963Q194.099 851.685 156.213 851.947C156.854 823.004 156.332 793.88 156.263 764.925L156.091 628.045L174.061 627.888C174.177 620.617 174.054 613.326 174.047 606.053Q184.036 606.035 194.023 605.87C194.999 587.352 194.399 568.555 194.435 550.001L194.549 447.556Z"/>
	<path fill="#1583EF" transform="scale(0.196144 0.196144)" d="M192.705 833.493C199.393 832.862 206.374 832.566 213.041 833.577C213.158 839.565 213.017 845.548 212.907 851.535Q202.656 851.431 192.406 851.647C192.409 845.625 192.166 839.493 192.705 833.493Z"/>
	<path fill="#BFA64C" transform="scale(0.196144 0.196144)" d="M174.88 801.082L192.985 800.998C193.041 809.117 194.097 826.295 192.705 833.493L174.881 833.49C174.48 822.695 174.725 811.881 174.88 801.082Z"/>
	<path fill="#056EB5" transform="scale(0.196144 0.196144)" d="M192.985 800.998L212.949 800.991C212.621 811.838 212.045 822.752 213.041 833.577C206.374 832.566 199.393 832.862 192.705 833.493C194.097 826.295 193.041 809.117 192.985 800.998Z"/>
	<path fill="#BFA64C" transform="scale(0.196144 0.196144)" d="M212.949 800.991L232.013 800.997C232.269 810.128 233.861 825.056 231.675 833.477Q222.357 833.424 213.041 833.577C212.045 822.752 212.621 811.838 212.949 800.991Z"/>
	<path fill="#056EB5" transform="scale(0.196144 0.196144)" d="M232.013 800.997L251.987 800.987C251.988 811.672 251.667 822.462 252.15 833.133L252.014 833.588C245.204 832.939 238.745 833.02 231.942 833.611L231.675 833.477C233.861 825.056 232.269 810.128 232.013 800.997Z"/>
	<path fill="#BFA64C" transform="scale(0.196144 0.196144)" d="M251.987 800.987C258.603 800.799 265.046 800.72 271.656 801.086C271.643 809.599 271.133 818.431 271.682 826.915L271.653 833.338C265.343 833.47 258.376 834.049 252.15 833.133C251.667 822.462 251.988 811.672 251.987 800.987Z"/>
	<path fill="#45DC5A" transform="scale(0.196144 0.196144)" d="M194.023 605.87L247.508 606.011L270.524 606.003L270.543 653.533L270.488 783.479L174.46 783.476C174.479 771.967 174.21 760.377 174.535 748.877C174.392 742.103 174.83 735.304 174.754 728.521L174.12 628.009L193.665 627.988C193.57 620.592 193.584 613.256 194.023 605.87Z"/>
	<path fill="#318D2E" transform="scale(0.196144 0.196144)" d="M247.508 606.011L270.524 606.003L270.543 653.533C255.035 653.485 239.536 654.278 224.005 654.153C219.488 654.116 214.111 654.567 209.725 653.613C211.097 653.585 212.4 653.459 213.762 653.288C215.336 651.357 214.442 632.81 214.408 629.029L247.499 628.509L247.508 606.011Z"/>
	<path fill="#297B2C" transform="scale(0.196144 0.196144)" d="M270.543 653.533L270.488 783.479L174.46 783.476C174.479 771.967 174.21 760.377 174.535 748.877C181.633 750.171 189.775 749.5 196.991 749.493L247.04 749L247.042 726.011L193.491 725.975L193.565 701.569Q220.524 701.652 247.475 700.986L247.492 678.087C229.471 677.756 211.4 678.009 193.373 677.98L193.379 653.731C198.794 653.348 204.306 653.389 209.725 653.613C214.111 654.567 219.488 654.116 224.005 654.153C239.536 654.278 255.035 653.485 270.543 653.533Z"/>
	<path fill="#06155B" transform="scale(0.196144 0.196144)" d="M699.148 262.971C705.769 262.993 712.394 262.934 719.003 263.382L719.027 283.052L719.023 307.062C719.01 314.695 719.169 322.367 718.971 329.994Q718.72 340.2 718.94 350.407C713.086 350.374 707.133 350.539 701.291 350.208Q701.01 359.619 701.433 369.025L720.118 369.032Q720.054 377.636 720.112 386.241L766.536 386.125C766.065 392.226 765.716 398.202 766.368 404.31C774.038 404.423 781.733 404.261 789.397 404.517L789.434 424.557L789.662 425.007L809.881 425.009Q809.774 435.971 810.023 446.931L810.559 447.069L830.687 447.149L830.94 556.386Q831.015 567.957 830.824 579.526C830.628 588.325 830.025 597.266 831.285 606.007L849.893 606.071C849.869 613.104 849.414 620.51 850.148 627.49L831.112 627.507C831.237 620.339 831.089 613.147 831.066 605.977L789.009 606.006C776.871 606.006 764.637 606.341 752.511 605.835C746.787 604.919 739.837 605.024 734.102 605.753C729.817 605.912 725.551 605.92 721.264 605.878C714.906 605.894 708.25 605.602 701.932 606.208L702.002 581.075L702.086 532.162C703.231 523.695 702.826 514.274 703.034 505.701L704.096 449.043L688.524 449.053L688.625 496.478C683.39 496.654 678.146 496.897 672.91 497L673.046 516.002C666.053 515.913 659.026 515.69 652.037 515.899L652.093 535.086C648.33 535.038 633.385 535.873 630.969 534.455C631.171 528.156 631.009 521.799 631.018 515.494L651.968 515.605C652.489 509.417 652.456 503.229 652.48 497.025L672.091 496.937Q671.822 458.494 671.941 420.05C670.452 412.519 671.546 400.284 671.554 392.19L671.568 330L652.015 329.994L652.022 307.364L651.93 307.097C653.014 299.336 652.217 290.82 651.988 283.005Q652.137 273.503 652.044 264.001C658.668 263.966 665.396 264.271 671.988 263.589Q685.56 262.93 699.148 262.971Z"/>
	<path fill="#64CFF7" transform="scale(0.196144 0.196144)" d="M720.992 404.997Q744.737 405.379 768.48 404.888C769.833 411.387 768.561 417.379 769.209 423.799C761.32 425.731 731.111 424.504 721.011 424.471L720.992 404.997Z"/>
	<path fill="#38B2F7" transform="scale(0.196144 0.196144)" d="M688.072 383.424C693.416 383.305 698.778 383.1 704.123 383.088L704.333 422.984C704.378 431.659 704.664 440.383 704.096 449.043L688.524 449.053Q688.613 416.236 688.072 383.424Z"/>
	<path fill="#184DAB" transform="scale(0.196144 0.196144)" d="M671.985 307.029L719.023 307.062C719.01 314.695 719.169 322.367 718.971 329.994L700.989 329.953C701.001 336.627 700.915 343.318 701.073 349.989L672.053 350.017L672.078 396.502C672.07 404.272 672.47 412.318 671.941 420.05C670.452 412.519 671.546 400.284 671.554 392.19L671.568 330L652.015 329.994L652.022 307.364C656.338 306.029 667.064 306.964 671.985 307.029Z"/>
	<path fill="#38B2F7" transform="scale(0.196144 0.196144)" d="M699.148 262.971C705.769 262.993 712.394 262.934 719.003 263.382L719.027 283.052L719.023 307.062L671.985 307.029C667.064 306.964 656.338 306.029 652.022 307.364L651.93 307.097C653.014 299.336 652.217 290.82 651.988 283.005Q652.137 273.503 652.044 264.001C658.668 263.966 665.396 264.271 671.988 263.589Q685.56 262.93 699.148 262.971Z"/>
	<path fill="#1583EF" transform="scale(0.196144 0.196144)" d="M671.973 283.368C687.482 282.25 703.468 283.043 719.027 283.052L719.023 307.062L671.985 307.029L671.973 283.368Z"/>
	<path fill="#184DAB" transform="scale(0.196144 0.196144)" d="M721.509 446.81C728.618 448.268 747.037 459.304 752.553 464.057L752.951 586.511L721.995 586.612L721.509 446.81Z"/>
	<path fill="#1583EF" transform="scale(0.196144 0.196144)" d="M769.209 423.799L769.858 424.233C776.37 424.413 782.936 424.187 789.434 424.557L789.662 425.007L809.881 425.009Q809.774 435.971 810.023 446.931L810.559 447.069Q810.941 457.163 810.977 467.264L810.996 548.771C811.005 560.144 812.281 574.817 810.87 585.874Q800.519 586.488 790.15 586.512C777.772 586.799 765.334 586.538 752.951 586.511L752.553 464.057C747.037 459.304 728.618 448.268 721.509 446.81C720.961 439.363 721.002 431.933 721.011 424.471C731.111 424.504 761.32 425.731 769.209 423.799Z"/>
	<path fill="#38B2F7" transform="scale(0.196144 0.196144)" d="M769.858 424.233C776.37 424.413 782.936 424.187 789.434 424.557L789.662 425.007L809.881 425.009Q809.774 435.971 810.023 446.931L810.559 447.069Q810.941 457.163 810.977 467.264L810.996 548.771C811.005 560.144 812.281 574.817 810.87 585.874Q800.519 586.488 790.15 586.512C789.109 575.672 790.028 560.147 790.026 548.868L789.906 467.482C783.137 467.415 776.354 467.582 769.584 467.656L769.534 446.992C769.401 442.032 768.231 428.442 769.858 424.233Z"/>
	<path fill="#64CFF7" transform="scale(0.196144 0.196144)" d="M769.858 424.233C776.37 424.413 782.936 424.187 789.434 424.557L789.662 425.007L809.881 425.009Q809.774 435.971 810.023 446.931L810.559 447.069Q810.941 457.163 810.977 467.264C804.001 467.906 796.623 467.479 789.602 467.46C789.398 460.636 789.527 453.796 789.571 446.97L769.534 446.992C769.401 442.032 768.231 428.442 769.858 424.233Z"/>
	<path fill="#06155B" transform="scale(0.196144 0.196144)" d="M789.662 425.007L809.881 425.009Q809.774 435.971 810.023 446.931C803.226 446.637 796.373 446.902 789.571 447.007L789.662 425.007Z"/>
	<path fill="#1583EF" transform="scale(0.196144 0.196144)" d="M605.135 120.988C613.505 120.928 622.126 120.475 630.452 121.342L630.77 121.909C637.83 122.216 644.918 121.91 651.962 122.276C651.874 129.887 651.679 137.516 651.999 145.122C660.782 145.931 669.711 145.553 678.519 145.407L678.673 150.602C679.98 155.367 679.06 162.959 678.984 168.002L678.972 187.536L699.022 187.499L699.012 231.108Q698.966 247.041 699.148 262.971Q685.56 262.93 671.988 263.589C665.396 264.271 658.668 263.966 652.044 264.001Q620.023 264.159 588.003 263.88L587.734 263.478L581.202 263.427C577.045 262.903 572.744 263.039 568.556 262.978C567.952 251.294 568.761 239.632 568.182 228.003C568.064 228.795 568.124 230.144 567.448 230.619C566.584 231.225 565.637 231.323 564.615 231.336C560.184 231.389 555.678 231.041 551.22 231.051C518.787 231.119 486.296 230.599 453.872 231.085C454.236 223.554 454.036 215.924 454.073 208.38C449.646 208.355 445.231 208.333 440.809 208.097L435.488 208.151L435.004 208.033C413.952 207.999 393.035 207.309 371.974 208.086C365.705 208.789 359.316 208.55 353.016 208.488L352.947 231.006C343.459 231.606 333.501 231.16 323.997 230.928Q324.256 206.709 323.983 182.49L346.005 182.511L346.01 167.79C339.643 167.888 333.117 168.198 326.773 167.593C332.029 167.229 337.415 167.588 342.691 167.482C344.039 167.455 345.35 167.655 346.314 166.665C346.748 159.496 346.482 152.177 346.497 144.989C354.384 145.06 361.925 145.746 369.821 144.774Q369.146 133.032 369.817 121.29C373.964 121.413 378.088 121.511 382.236 121.397C385.407 120.848 388.782 120.992 392 120.952C400.493 120.899 408.999 120.748 417.488 121.018C429.085 122.29 441.225 121.502 452.897 121.464L511.304 121.473L569.517 121.548C581.252 121.585 593.487 122.355 605.135 120.988Z"/>
	<path fill="#38B2F7" transform="scale(0.196144 0.196144)" d="M435.437 187.103C438.563 188.472 450.033 187.505 453.982 187.517C454.148 194.302 454.491 201.151 454.192 207.932C449.76 207.908 445.221 207.681 440.809 208.097L435.488 208.151L435.004 208.033L435.004 187.975L423.224 187.902C427.243 186.979 431.501 188.173 435.437 187.103Z"/>
	<path fill="#38B2F7" transform="scale(0.196144 0.196144)" d="M587.533 187.444C592.673 187.42 599.313 186.638 604.276 187.878Q596.018 187.966 587.76 187.907C587.498 194.608 587.51 201.292 587.547 207.997L568.088 208.07L568.082 187.988C574.584 187.958 581.043 187.876 587.533 187.444Z"/>
	<path fill="#06155B" transform="scale(0.196144 0.196144)" d="M369.817 121.29C373.964 121.413 378.088 121.511 382.236 121.397L391.534 121.353L391.493 144.987L369.897 144.985C369.378 152.477 369.659 160.017 369.758 167.521C365.948 167.512 349.199 168.319 346.556 167.02L346.314 166.665C346.748 159.496 346.482 152.177 346.497 144.989C354.384 145.06 361.925 145.746 369.821 144.774Q369.146 133.032 369.817 121.29Z"/>
	<path fill="#06155B" transform="scale(0.196144 0.196144)" d="M630.77 121.909C637.83 122.216 644.918 121.91 651.962 122.276C651.874 129.887 651.679 137.516 651.999 145.122C660.782 145.931 669.711 145.553 678.519 145.407L678.673 150.602C678.244 156.265 678.654 162.28 678.675 167.979L651.989 167.985C651.711 160.382 651.903 152.761 652.001 145.155C644.807 144.203 637.745 144.56 630.536 145.033C630.497 137.339 630.289 129.59 630.77 121.909Z"/>
	<path fill="#64CFF7" transform="scale(0.196144 0.196144)" d="M371.921 168.734C379.707 168.317 387.496 168.688 395.287 168.745L435.553 168.951Q435.557 178.027 435.437 187.103C431.501 188.173 427.243 186.979 423.224 187.902C406.376 188.937 389.114 188.083 372.223 188.002C372.633 181.52 372.469 175.205 371.921 168.734Z"/>
	<path fill="#06155B" transform="scale(0.196144 0.196144)" d="M423.224 187.902L435.004 187.975L435.004 208.033C413.952 207.999 393.035 207.309 371.974 208.086C371.903 201.419 371.702 194.652 372.223 188.002C389.114 188.083 406.376 188.937 423.224 187.902Z"/>
	<path fill="#64CFF7" transform="scale(0.196144 0.196144)" d="M587.5 168.117Q619.59 167.808 651.681 168.069C652.134 174.699 652.079 181.375 651.975 188.017L604.276 187.878C599.313 186.638 592.673 187.42 587.533 187.444Q587.376 177.781 587.5 168.117Z"/>
	<path fill="#06155B" transform="scale(0.196144 0.196144)" d="M604.276 187.878L651.975 188.017C651.968 194.677 651.857 201.357 652.031 208.013C630.554 207.617 609.029 207.95 587.547 207.997C587.51 201.292 587.498 194.608 587.76 187.907Q596.018 187.966 604.276 187.878Z"/>
	<path fill="#06155B" transform="scale(0.196144 0.196144)" d="M652.031 208.013L671.965 208.084L672.071 219.904C672.478 223.672 672.446 227.419 672.438 231.205Q685.725 231.058 699.012 231.108Q698.966 247.041 699.148 262.971Q685.56 262.93 671.988 263.589C665.396 264.271 658.668 263.966 652.044 264.001C652.669 245.456 652.6 226.559 652.031 208.013Z"/>
	<path fill="#184DAB" transform="scale(0.196144 0.196144)" d="M672.071 219.904C672.478 223.672 672.446 227.419 672.438 231.205Q685.725 231.058 699.012 231.108Q698.966 247.041 699.148 262.971Q685.56 262.93 671.988 263.589C672.106 249.037 671.659 234.446 672.071 219.904Z"/>
	<path fill="#EEC90C" transform="scale(0.196144 0.196144)" d="M587.547 207.997C609.029 207.95 630.554 207.617 652.031 208.013C652.6 226.559 652.669 245.456 652.044 264.001Q620.023 264.159 588.003 263.88L587.734 263.478L581.202 263.427C577.045 262.903 572.744 263.039 568.556 262.978C567.952 251.294 568.761 239.632 568.182 228.003C567.875 221.387 568.073 214.695 568.088 208.07L587.547 207.997Z"/>
	<path fill="#E20D1B" transform="scale(0.196144 0.196144)" d="M608.479 225.939L632.009 225.909L631.99 246.019L608.48 245.924L608.479 225.939Z"/>
	<path fill="#06155B" transform="scale(0.196144 0.196144)" d="M568.088 208.07L587.547 207.997L587.486 243.71C587.479 250.2 587.058 257.036 587.734 263.478L581.202 263.427C577.045 262.903 572.744 263.039 568.556 262.978C567.952 251.294 568.761 239.632 568.182 228.003C567.875 221.387 568.073 214.695 568.088 208.07Z"/>
	<defs>
		<linearGradient id="gradient_0" gradientUnits="userSpaceOnUse" x1="490.64044" y1="549.05493" x2="533.52362" y2="275.20425">
			<stop offset="0" stop-color="#5BE1ED"/>
			<stop offset="1" stop-color="#3DCDFB"/>
		</linearGradient>
	</defs>
	<path fill="url(#gradient_0)" transform="scale(0.196144 0.196144)" d="M371.974 208.086C393.035 207.309 413.952 207.999 435.004 208.033L435.488 208.151L440.809 208.097C445.231 208.333 449.646 208.355 454.073 208.38C454.036 215.924 454.236 223.554 453.872 231.085C486.296 230.599 518.787 231.119 551.22 231.051C555.678 231.041 560.184 231.389 564.615 231.336C565.637 231.323 566.584 231.225 567.448 230.619C568.124 230.144 568.064 228.795 568.182 228.003C568.761 239.632 567.952 251.294 568.556 262.978C572.744 263.039 577.045 262.903 581.202 263.427L587.734 263.478L588.003 263.88Q620.023 264.159 652.044 264.001Q652.137 273.503 651.988 283.005C652.217 290.82 653.014 299.336 651.93 307.097L652.022 307.364L652.015 329.994L671.568 330L671.554 392.19C671.546 400.284 670.452 412.519 671.941 420.05Q671.822 458.494 672.091 496.937L652.48 497.025C652.456 503.229 652.489 509.417 651.968 515.605L631.018 515.494C631.009 521.799 631.171 528.156 630.969 534.455L630.831 534.929C622.319 534.384 613.787 534.979 605.265 535.004L555.33 535.03L392.968 534.997C392.882 530.731 394.08 519.096 392.449 515.752C387.376 516.12 382.214 515.925 377.128 515.915C375.553 515.847 374.186 515.873 372.745 515.141L372.299 513.657C372.689 507.913 372.465 502.104 372.408 496.349C367.895 495.447 357.34 496.463 351.947 496.384C351.417 447.816 351.744 399.166 351.992 350.593Q337.771 350.482 323.549 350.563C323.504 344.029 323.404 337.527 323.025 331.002L304.917 330.998L305 307.618L305.049 282.931Q304.928 273.003 305.076 263.075L305.361 262.982Q314.67 263.11 323.979 263.126C333.397 263.083 342.855 262.851 352.269 263.058L352.764 262.921C353.397 252.421 352.881 241.55 352.947 231.006L353.016 208.488C359.316 208.55 365.705 208.789 371.974 208.086Z"/>
	<path fill="#1583EF" transform="scale(0.196144 0.196144)" d="M435.493 263.525C441.566 263.503 447.998 263.868 454.022 263.232L454.1 274.26C454.005 277.155 453.941 280.026 454.014 282.923L435.008 282.992C434.856 276.555 435.345 269.974 435.493 263.525Z"/>
	<path fill="#184DAB" transform="scale(0.196144 0.196144)" d="M537.099 333.037L566.984 333.005L566.981 348.012L537.223 348.01L537.099 333.037Z"/>
	<path fill="#184DAB" transform="scale(0.196144 0.196144)" d="M456.982 332.501L485.988 332.504L485.996 347.995L456.989 347.989L456.982 332.501Z"/>
	<path fill="#06155B" transform="scale(0.196144 0.196144)" d="M536.986 297.009L566.509 296.994L566.529 327.992L537.01 328.014L536.986 297.009Z"/>
	<path fill="#06155B" transform="scale(0.196144 0.196144)" d="M456.532 297.023L486.308 297.016Q486.142 312.448 486.2 327.881C476.35 328.828 466.396 328.19 456.52 327.978L456.532 297.023Z"/>
	<path fill="#CFEBF7" transform="scale(0.196144 0.196144)" d="M454.022 263.232C478.039 262.112 502.437 262.545 526.477 262.674C540.042 262.747 555.055 261.914 568.493 263.496L568.459 282.99C530.494 282.981 492.393 283.754 454.451 282.862Q454.357 278.558 454.1 274.26L454.022 263.232Z"/>
	<path fill="#1583EF" transform="scale(0.196144 0.196144)" d="M587.734 263.478L588.003 263.88Q620.023 264.159 652.044 264.001Q652.137 273.503 651.988 283.005C652.217 290.82 653.014 299.336 651.93 307.097C646.366 306.319 640.248 306.779 634.635 306.832L608.606 307.006L608.907 294.003L588.009 294.072L587.98 282.989C581.477 282.903 574.964 282.981 568.459 282.99L568.493 263.496C572.687 263.519 577.027 263.781 581.202 263.427L587.734 263.478Z"/>
	<path fill="#06155B" transform="scale(0.196144 0.196144)" d="M588.003 263.88Q620.023 264.159 652.044 264.001Q652.137 273.503 651.988 283.005C643.203 282.367 634.537 282.89 625.75 282.958L588.049 282.968L588.003 263.88Z"/>
	<path fill="#184DAB" transform="scale(0.196144 0.196144)" d="M568.182 228.003C568.761 239.632 567.952 251.294 568.556 262.978C572.744 263.039 577.045 262.903 581.202 263.427C577.027 263.781 572.687 263.519 568.493 263.496C555.055 261.914 540.042 262.747 526.477 262.674C502.437 262.545 478.039 262.112 454.022 263.232C453.681 252.521 453.249 241.793 453.872 231.085C486.296 230.599 518.787 231.119 551.22 231.051C555.678 231.041 560.184 231.389 564.615 231.336C565.637 231.323 566.584 231.225 567.448 230.619C568.124 230.144 568.064 228.795 568.182 228.003Z"/>
	<path fill="#1583EF" transform="scale(0.196144 0.196144)" d="M305.361 262.982Q314.67 263.11 323.979 263.126C333.397 263.083 342.855 262.851 352.269 263.058L352.764 262.921C359.001 262.995 365.395 262.68 371.583 263.506L371.763 282.905Q403.384 284.103 435.008 282.992L435.022 294.518C428.517 294.493 421.983 294.306 415.494 294.837L415.512 306.997C403.261 306.939 383.138 305.759 371.976 307.51C371.956 309.859 372.007 312.232 371.9 314.577L371.985 332.514C365.243 332.457 358.474 332.28 351.734 332.427C351.858 338.472 352.106 344.549 351.992 350.593Q337.771 350.482 323.549 350.563C323.504 344.029 323.404 337.527 323.025 331.002L304.917 330.998L305 307.618L305.049 282.931Q304.928 273.003 305.076 263.075L305.361 262.982Z"/>
	<path fill="#38B2F7" transform="scale(0.196144 0.196144)" d="M353.034 283.038L371.52 282.997C371.646 290.983 371.752 298.948 371.516 306.933L353.011 307.118L353.034 283.038Z"/>
	<path fill="#38B2F7" transform="scale(0.196144 0.196144)" d="M305.361 262.982Q314.67 263.11 323.979 263.126C333.397 263.083 342.855 262.851 352.269 263.058Q352.52 273.014 352.623 282.973C336.79 282.996 320.872 283.366 305.049 282.931Q304.928 273.003 305.076 263.075L305.361 262.982Z"/>
	<path fill="#184DAB" transform="scale(0.196144 0.196144)" d="M305 307.618C327.161 307.572 349.442 307.985 371.587 307.225C371.656 309.643 371.565 312.185 371.9 314.577L371.985 332.514C365.243 332.457 358.474 332.28 351.734 332.427C351.858 338.472 352.106 344.549 351.992 350.593Q337.771 350.482 323.549 350.563C323.504 344.029 323.404 337.527 323.025 331.002L304.917 330.998L305 307.618Z"/>
	<path fill="#EEC90C" transform="scale(0.196144 0.196144)" d="M371.974 208.086C393.035 207.309 413.952 207.999 435.004 208.033L435.488 208.151L440.809 208.097C445.231 208.333 449.646 208.355 454.073 208.38C454.036 215.924 454.236 223.554 453.872 231.085C453.249 241.793 453.681 252.521 454.022 263.232C447.998 263.868 441.566 263.503 435.493 263.525C435.345 269.974 434.856 276.555 435.008 282.992Q403.384 284.103 371.763 282.905L371.583 263.506C365.395 262.68 359.001 262.995 352.764 262.921C353.397 252.421 352.881 241.55 352.947 231.006L353.016 208.488C359.316 208.55 365.705 208.789 371.974 208.086Z"/>
	<path fill="#E20D1B" transform="scale(0.196144 0.196144)" d="M392.52 226.076L415.156 226.099C415.018 232.73 415.074 239.375 415.052 246.008L392.484 245.931L392.52 226.076Z"/>
	<path fill="#06155B" transform="scale(0.196144 0.196144)" d="M440.809 208.097C445.231 208.333 449.646 208.355 454.073 208.38C454.036 215.924 454.236 223.554 453.872 231.085C453.249 241.793 453.681 252.521 454.022 263.232C447.998 263.868 441.566 263.503 435.493 263.525Q435.731 235.838 435.488 208.151L440.809 208.097Z"/>
	<path fill="#06155B" transform="scale(0.196144 0.196144)" d="M353.016 208.488C359.316 208.55 365.705 208.789 371.974 208.086C371.901 226.567 371.368 245.193 371.855 263.661C383.419 264.099 395.018 263.928 406.59 263.955C416.183 263.977 425.93 264.342 435.493 263.525C435.345 269.974 434.856 276.555 435.008 282.992Q403.384 284.103 371.763 282.905L371.583 263.506C365.395 262.68 359.001 262.995 352.764 262.921C353.397 252.421 352.881 241.55 352.947 231.006L353.016 208.488Z"/>
	<path fill="#09134B" transform="scale(0.196144 0.196144)" d="M372.008 372.015L392.528 372.004L392.582 393.583L632.518 393.583L632.51 373.025L651.347 373.013L651.152 479.959C645.787 480.122 640.366 480.459 635.007 480.078L632.577 480.301Q632.369 488.145 632.485 495.99L615.939 496.007C615.832 494.249 615.817 492.434 615.6 490.689C615.563 492.492 615.9 494.401 614.796 495.853C613.61 496.063 612.439 496.239 611.241 496.377Q613.515 496.35 615.788 496.374C617.403 501.542 616.44 509.079 616.344 514.512Q550.117 514.215 483.892 514.71L483.998 496.451C476.984 496.614 469.975 496.856 462.964 496.499L462.957 514.515C445.853 514.512 428.433 513.815 411.365 514.688C405.43 515.23 399.402 515.371 393.444 515.411L392.449 515.752C387.376 516.12 382.214 515.925 377.128 515.915C375.553 515.847 374.186 515.873 372.745 515.141L372.299 513.657C372.689 507.913 372.465 502.104 372.408 496.349L372.528 496.045C371.981 490.636 372.32 484.859 372.305 479.406C371.484 465.837 371.989 452.403 372.009 438.828L372.008 372.015Z"/>
	<path fill="#660200" transform="scale(0.196144 0.196144)" d="M423.973 440.509L439.919 440.565C437.639 441.13 435.265 440.923 432.932 440.872C432.916 444.959 431.948 463.124 433.579 465.549L434.407 465.71C431.341 466.519 427.188 466.305 423.969 466.522L423.973 440.509Z"/>
	<path fill="#1583EF" transform="scale(0.196144 0.196144)" d="M393.464 496.409C398.706 496.804 403.868 496.899 409.121 496.879C408.695 502.213 407.524 508.54 409.196 513.689C410.048 514.543 410.158 514.506 411.365 514.688C405.43 515.23 399.402 515.371 393.444 515.411C393.715 509.033 393.807 502.785 393.464 496.409Z"/>
	<path fill="#1583EF" transform="scale(0.196144 0.196144)" d="M372.305 479.406L392.975 479.502C392.966 485.009 392.827 490.551 393.174 496.049L372.528 496.045C371.981 490.636 372.32 484.859 372.305 479.406Z"/>
	<path fill="#E20D1B" transform="scale(0.196144 0.196144)" d="M440.405 412.439L454.052 411.992C453.652 420.733 451.941 432.522 454.512 440.962C449.814 440.794 445.035 441.01 440.361 440.527C441.014 431.16 440.634 421.814 440.405 412.439Z"/>
	<path fill="#64CFF7" transform="scale(0.196144 0.196144)" d="M393.174 496.049L393.464 496.409C393.807 502.785 393.715 509.033 393.444 515.411L392.449 515.752C387.376 516.12 382.214 515.925 377.128 515.915C375.553 515.847 374.186 515.873 372.745 515.141L372.299 513.657C372.689 507.913 372.465 502.104 372.408 496.349L372.528 496.045L393.174 496.049Z"/>
	<path fill="#E20D1B" transform="scale(0.196144 0.196144)" d="M462.481 449.994L480.722 449.978L486.227 449.991C486.584 454.707 487.287 461.072 485.77 465.58Q473.934 465.456 462.098 465.548L462.139 473.416L454.039 473.37C454.425 470.834 454.574 468.228 454.821 465.673C457.16 465.519 459.455 465.171 461.773 464.83C462.794 459.908 462.57 454.983 462.481 449.994Z"/>
	<path fill="#FCF7FB" transform="scale(0.196144 0.196144)" d="M410.517 474.729C417.523 474.607 424.494 474.569 431.498 474.786C431.539 481.887 431.705 489.018 431.365 496.111L410.146 496.102Q410.268 485.414 410.517 474.729Z"/>
	<path fill="#FCF7FB" transform="scale(0.196144 0.196144)" d="M462.539 475.037C469.376 474.983 476.724 474.4 483.493 475.198C484.234 476.472 484.105 477.846 484.186 479.294C483.746 484.967 483.986 490.761 483.998 496.451C476.984 496.614 469.975 496.856 462.964 496.499C463.026 489.334 463.04 482.188 462.539 475.037Z"/>
	<path fill="#FCF7FB" transform="scale(0.196144 0.196144)" d="M410.063 411.185Q420.816 410.928 431.571 411.112L431.532 432.537L409.991 432.516Q409.924 421.85 410.063 411.185Z"/>
	<path fill="#660200" transform="scale(0.196144 0.196144)" d="M391.991 410.981L400.287 411.057C401.162 428.946 400.73 447.095 400.988 465.023L392.027 465.129L391.991 410.981Z"/>
	<path fill="#A80100" transform="scale(0.196144 0.196144)" d="M624.409 411.258L634.461 411.815Q634.331 445.95 635.007 480.078L632.577 480.301C629.72 480.241 626.864 480.417 624.01 480.542C624.002 472.254 623.131 414.685 624.409 411.258Z"/>
	<path fill="#E21A43" transform="scale(0.196144 0.196144)" d="M439.919 440.565L440.361 440.527C445.035 441.01 449.814 440.794 454.512 440.962L462.516 440.929L462.481 449.994C462.57 454.983 462.794 459.908 461.773 464.83C459.455 465.171 457.16 465.519 454.821 465.673C454.574 468.228 454.425 470.834 454.039 473.37Q453.691 484.695 454.027 496.02C449.567 495.886 445.085 495.988 440.623 496.001C440.343 486.086 441.406 475.695 440.273 465.874C438.421 465.307 436.322 465.615 434.407 465.71L433.579 465.549C431.948 463.124 432.916 444.959 432.932 440.872C435.265 440.923 437.639 441.13 439.919 440.565Z"/>
	<path fill="#06155B" transform="scale(0.196144 0.196144)" d="M538.856 415.369C538.919 413.864 538.702 412.444 539.51 411.152C546.077 410.223 553.41 410.874 560.055 410.995L560.115 418.793C560.801 416.523 560.659 414.029 560.714 411.673Q564.558 411.411 568.41 411.325L568.358 428.973L568.407 440.191L560.151 441.113L560.014 449.623L537.274 449.476C537.543 446.492 537.365 443.561 537.21 440.576L530.058 440.598Q529.922 433.865 529.966 427.131L530 411.462C532.546 411.289 535.621 410.735 538.099 411.348C538.369 412.54 538.42 413.609 538.459 414.824L538.856 415.369Z"/>
	<path fill="#FCF7FB" transform="scale(0.196144 0.196144)" d="M538.856 415.369C538.919 413.864 538.702 412.444 539.51 411.152C546.077 410.223 553.41 410.874 560.055 410.995L560.115 418.793C559.789 423.298 560.036 427.986 560.019 432.512L538.983 432.504L538.856 415.369Z"/>
	<path fill="#06155B" transform="scale(0.196144 0.196144)" d="M462.898 417.271C462.906 415.33 462.98 413.426 463.151 411.492C466.251 410.05 479.968 410.744 483.651 411.351L484.296 412.498C486.11 410.786 490.59 411.484 492.975 411.521L492.823 426.964L492.854 439.421C490.734 439.631 487.419 439.508 485.529 440.355C485.73 443.543 485.781 446.832 486.227 449.991L480.722 449.978L462.481 449.994L462.516 440.929L454.512 440.962C451.941 432.522 453.652 420.733 454.052 411.992L462.52 411.325C462.556 413.288 462.455 415.353 462.898 417.271Z"/>
	<path fill="#451C25" transform="scale(0.196144 0.196144)" d="M480.722 449.978C481.29 445.931 482.682 443.276 485.529 440.355C485.73 443.543 485.781 446.832 486.227 449.991L480.722 449.978Z"/>
	<path fill="#FCF7FB" transform="scale(0.196144 0.196144)" d="M462.898 417.271C462.906 415.33 462.98 413.426 463.151 411.492C466.251 410.05 479.968 410.744 483.651 411.351L484.296 412.498C483.786 418.982 483.389 425.997 484.312 432.449L463.01 432.502C462.988 427.499 463.259 422.248 462.898 417.271Z"/>
	<path fill="#E21A43" transform="scale(0.196144 0.196144)" d="M492.975 411.521C505.331 411.076 517.658 411.751 530 411.462L529.966 427.131Q529.922 433.865 530.058 440.598L537.21 440.576C537.365 443.561 537.543 446.492 537.274 449.476C536.516 454.846 537.176 460.541 537.022 465.973L536.978 472.526L530.158 472.504L530.453 496.019L492.513 495.992L492.544 472.019L485.165 471.893C485.484 469.824 485.576 467.668 485.77 465.58C487.287 461.072 486.584 454.707 486.227 449.991C485.781 446.832 485.73 443.543 485.529 440.355C487.419 439.508 490.734 439.631 492.854 439.421L492.823 426.964L492.975 411.521Z"/>
	<path fill="#A80100" transform="scale(0.196144 0.196144)" d="M492.975 411.521C505.331 411.076 517.658 411.751 530 411.462L529.966 427.131C517.8 426.253 505.05 426.98 492.823 426.964L492.975 411.521Z"/>
	<path fill="#06155B" transform="scale(0.196144 0.196144)" d="M614.985 410.903C618.084 410.589 621.352 410.584 624.409 411.258C623.131 414.685 624.002 472.254 624.01 480.542C626.864 480.417 629.72 480.241 632.577 480.301Q632.369 488.145 632.485 495.99L615.939 496.007C615.832 494.249 615.817 492.434 615.6 490.689Q615.583 482.343 615.777 474C613.391 474.034 594.781 473.6 594.001 474.041C593.71 474.205 593.509 474.493 593.263 474.719C592.077 481.369 592.991 489.322 593.217 496.094C590.261 495.919 587.409 495.942 584.453 496.11L584.513 472.988L584.326 472.467C578.881 472.542 574.038 473.024 568.53 472.386C568.628 470.079 568.839 468.692 567.324 466.838C565.207 465.726 562.397 466.014 560.044 465.959C559.735 460.581 559.998 455.017 560.014 449.623L560.151 441.113L568.407 440.191L568.358 428.973L568.41 411.325C573.621 411.659 578.807 411.435 583.997 410.925C586.997 410.837 590.032 410.629 593.024 410.9C592.937 417.153 592.065 424.629 593.239 430.769C593.789 424.269 593.47 417.525 593.474 410.994L614.985 410.903Z"/>
	<path fill="#660200" transform="scale(0.196144 0.196144)" d="M600.021 442.503L607.522 442.505C607.065 450.339 607.019 458.112 607.042 465.957L600.021 466.098L600.021 442.503Z"/>
	<path fill="#A80100" transform="scale(0.196144 0.196144)" d="M568.41 411.325C573.621 411.659 578.807 411.435 583.997 410.925C584.05 416.956 584.04 422.99 584.438 429.01C579.095 428.808 573.706 428.963 568.358 428.973L568.41 411.325Z"/>
	<path fill="#FCF7FB" transform="scale(0.196144 0.196144)" d="M593.474 410.994L614.985 410.903L615.003 432.437C610.672 432.462 596.766 433.474 593.654 431.928L593.239 430.769C593.789 424.269 593.47 417.525 593.474 410.994Z"/>
	<path fill="#E21A43" transform="scale(0.196144 0.196144)" d="M568.358 428.973C573.706 428.963 579.095 428.808 584.438 429.01C584.519 432.675 584.456 436.415 584.797 440.062C587.037 440.229 589.28 440.433 591.524 440.531C591.987 449.018 592.037 457.495 592.002 465.992C592.161 467.981 592.611 470.168 591.743 472.026C589.935 473.517 586.736 473.011 584.513 472.988L584.326 472.467C578.881 472.542 574.038 473.024 568.53 472.386C568.628 470.079 568.839 468.692 567.324 466.838C565.207 465.726 562.397 466.014 560.044 465.959C559.735 460.581 559.998 455.017 560.014 449.623L560.151 441.113L568.407 440.191L568.358 428.973Z"/>
	<path fill="#A80100" transform="scale(0.196144 0.196144)" d="M584.676 465.527L592.002 465.992C592.161 467.981 592.611 470.168 591.743 472.026C589.935 473.517 586.736 473.011 584.513 472.988L584.326 472.467C584.549 470.177 584.564 467.828 584.676 465.527Z"/>
	<defs>
		<linearGradient id="gradient_1" gradientUnits="userSpaceOnUse" x1="541.10394" y1="461.50903" x2="553.75415" y2="525.50732">
			<stop offset="0" stop-color="#050922"/>
			<stop offset="1" stop-color="#121658"/>
		</linearGradient>
	</defs>
	<path fill="url(#gradient_1)" transform="scale(0.196144 0.196144)" d="M537.274 449.476L560.014 449.623C559.998 455.017 559.735 460.581 560.044 465.959C562.397 466.014 565.207 465.726 567.324 466.838C568.839 468.692 568.628 470.079 568.53 472.386C574.038 473.024 578.881 472.542 584.326 472.467L584.513 472.988L584.453 496.11C587.409 495.942 590.261 495.919 593.217 496.094C592.991 489.322 592.077 481.369 593.263 474.719C593.509 474.493 593.71 474.205 594.001 474.041C594.781 473.6 613.391 474.034 615.777 474Q615.583 482.343 615.6 490.689C615.563 492.492 615.9 494.401 614.796 495.853C613.61 496.063 612.439 496.239 611.241 496.377Q613.515 496.35 615.788 496.374C617.403 501.542 616.44 509.079 616.344 514.512Q550.117 514.215 483.892 514.71L483.998 496.451C483.986 490.761 483.746 484.967 484.186 479.294C484.856 476.934 484.541 474.355 485.165 471.893L492.544 472.019L492.513 495.992L530.453 496.019L530.158 472.504L536.978 472.526L537.022 465.973C537.176 460.541 536.516 454.846 537.274 449.476Z"/>
	<path fill="#E20D1B" transform="scale(0.196144 0.196144)" d="M537.274 449.476L560.014 449.623C559.998 455.017 559.735 460.581 560.044 465.959C552.605 465.073 544.478 465.267 537.022 465.973C537.176 460.541 536.516 454.846 537.274 449.476Z"/>
	<path fill="#E20D1B" transform="scale(0.196144 0.196144)" d="M568.53 472.386C574.038 473.024 578.881 472.542 584.326 472.467L584.513 472.988L584.453 496.11L568.555 496.052L568.53 472.386Z"/>
	<path fill="#FCF7FB" transform="scale(0.196144 0.196144)" d="M541.653 474.627C547.895 475.418 554.209 475.181 560.479 474.96C559.902 480.753 561.042 491.596 559.64 496.098L558.605 496.431L539.148 496.5C538.99 491.629 537.693 480.31 539.53 476.133C540.033 474.99 540.547 475.027 541.653 474.627Z"/>
	<path fill="#FCF7FB" transform="scale(0.196144 0.196144)" d="M593.263 474.719C593.509 474.493 593.71 474.205 594.001 474.041C594.781 473.6 613.391 474.034 615.777 474Q615.583 482.343 615.6 490.689C615.563 492.492 615.9 494.401 614.796 495.853C613.61 496.063 612.439 496.239 611.241 496.377C605.353 496.654 599.396 496.494 593.499 496.496C593.51 489.265 593.752 481.931 593.263 474.719Z"/>
	<path fill="#06155B" transform="scale(0.196144 0.196144)" d="M688.524 449.053L704.096 449.043L703.034 505.701C702.826 514.274 703.231 523.695 702.086 532.162L702.002 581.075L701.932 606.208Q701.921 618.009 701.481 629.802L699.137 629.931C698.608 638.314 698.847 646.624 699.031 655.014L677.933 654.965C677.825 663.176 677.338 671.72 678.326 679.888L696.185 679.777C696.601 687.547 696.413 695.391 696.42 703.173C697.125 761.79 696.209 820.446 697.443 879.052L719.863 879.028C720.14 902.158 719.844 925.314 719.955 948.449C697.511 947.607 674.788 948.65 652.321 948.777L558.465 948.49L558.211 878.743C566.099 879.064 574.064 878.919 581.962 878.991C581.085 844.695 581.444 810.181 581.901 775.874C563.539 775.54 545.131 775.838 526.763 775.851L441.571 775.987L441.524 839.956C441.546 852.799 441.172 865.809 441.933 878.621L464.544 878.54C464.551 901.829 464.339 925.168 464.915 948.448C411.396 947.456 357.652 947.985 304.128 948.481C304.197 925.406 304.997 902.09 303.999 879.052L327.47 878.958L327.468 679.08Q336.856 679.115 346.242 678.942C346.358 671.2 346.174 663.458 346.537 655.721C339.074 655.934 331.588 655.896 324.121 655.972Q324.02 642.554 323.425 629.149L322.321 628.75C320.296 618.995 321.478 591.573 321.497 579.979C321.478 564.297 321.142 548.606 320.97 532.924C321.036 505.654 320.287 478.345 320.008 451.072L334.037 451.033C334.106 466.301 334.586 481.738 333.674 496.981L348.522 497.004L348.533 515.068C352.911 515.179 369.05 516.59 372.005 514.888L372.299 513.657L372.745 515.141C374.186 515.873 375.553 515.847 377.128 515.915C382.214 515.925 387.376 516.12 392.449 515.752C394.08 519.096 392.882 530.731 392.968 534.997L555.33 535.03L605.265 535.004C613.787 534.979 622.319 534.384 630.831 534.929L630.969 534.455C633.385 535.873 648.33 535.038 652.093 535.086L652.037 515.899C659.026 515.69 666.053 515.913 673.046 516.002L672.91 497C678.146 496.897 683.39 496.654 688.625 496.478L688.524 449.053Z"/>
	<path fill="#6CFAF4" transform="scale(0.196144 0.196144)" d="M673.479 895.996C682.692 895.879 692.378 895.248 701.496 896.602L701.502 912.469L673.499 912.481L673.479 895.996Z"/>
	<path fill="#6CFAF4" transform="scale(0.196144 0.196144)" d="M369.894 896.087C379.603 895.995 389.314 895.766 399 896.552L398.981 912.44L369.947 912.523L369.894 896.087Z"/>
	<path fill="#6CFAF4" transform="scale(0.196144 0.196144)" d="M321.965 896.262C331.642 896.03 341.344 895.703 351.005 896.474L351.018 912.535L321.972 912.527L321.965 896.262Z"/>
	<path fill="#38B2F7" transform="scale(0.196144 0.196144)" d="M673.499 912.481L701.502 912.469L701.511 930.018L673.596 930.032L673.499 912.481Z"/>
	<path fill="#6CFAF4" transform="scale(0.196144 0.196144)" d="M576.464 896.198C586.44 895.681 596.523 896.01 606.504 896.302C606.483 901.699 606.539 907.09 606.037 912.469Q591.271 912.652 576.504 912.55L576.464 896.198Z"/>
	<path fill="#6CFAF4" transform="scale(0.196144 0.196144)" d="M624.962 896.125Q639.987 895.881 655.012 896.056L655.013 912.46C645.027 912.703 634.972 912.492 624.979 912.494L624.962 896.125Z"/>
	<path fill="#38B2F7" transform="scale(0.196144 0.196144)" d="M398.981 912.44L399.008 930.023L370.038 930.029C369.997 924.195 369.91 918.357 369.947 912.523L398.981 912.44Z"/>
	<path fill="#38B2F7" transform="scale(0.196144 0.196144)" d="M321.972 912.527L351.018 912.535L351.046 930.043L321.989 930.065L321.972 912.527Z"/>
	<path fill="#38B2F7" transform="scale(0.196144 0.196144)" d="M606.037 912.469Q605.88 921.245 605.94 930.021L576.776 930.034C576.694 924.213 576.715 918.367 576.504 912.55Q591.271 912.652 606.037 912.469Z"/>
	<path fill="#38B2F7" transform="scale(0.196144 0.196144)" d="M655.013 912.46L655.033 930.044L624.996 930.057L624.979 912.494C634.972 912.492 645.027 912.703 655.013 912.46Z"/>
	<path fill="#38B2F7" transform="scale(0.196144 0.196144)" d="M417.335 896.232C426.924 895.746 436.583 895.975 446.183 895.988Q446.514 903.95 446.509 911.919C446.649 917.935 446.463 923.999 446.433 930.019L417.282 930.023C417.186 918.962 416.274 907.207 417.335 896.232Z"/>
	<path fill="#6CFAF4" transform="scale(0.196144 0.196144)" d="M417.335 896.232C426.924 895.746 436.583 895.975 446.183 895.988Q446.514 903.95 446.509 911.919C436.89 912.116 427.169 912.815 417.559 912.325C417.582 906.974 417.762 901.57 417.335 896.232Z"/>
	<path fill="#38B2F7" transform="scale(0.196144 0.196144)" d="M655.521 703.931L678.012 703.972L678.11 878.593Q666.811 878.692 655.512 878.607L655.521 703.931Z"/>
	<path fill="#38B2F7" transform="scale(0.196144 0.196144)" d="M345.979 703.87L368.911 704.008L368.974 817.449C368.974 837.779 369.325 858.181 368.961 878.503Q357.477 878.568 345.993 878.507L345.979 703.87Z"/>
	<path fill="#184DAB" transform="scale(0.196144 0.196144)" d="M321.497 579.979C329.96 579.467 338.463 579.557 346.939 579.516L346.953 629.097C360.659 630.566 375.209 629.297 389.003 629.083L389.011 655.053L412.991 655.016L412.995 680.529C420.711 680.235 428.313 680.306 436.031 680.497Q436.57 693.763 436.43 707.039L460.556 707.005Q460.382 682.516 460.492 658.028L486.996 658.016L486.995 707.052L536.001 707.032C535.997 690.875 535.744 674.674 536.136 658.523Q549.526 657.885 562.931 657.996Q562.579 682.009 562.97 706.022L586.973 705.991L586.954 679.491L609.486 679.447C609.481 671.315 609.576 663.17 609.451 655.04L633.013 654.618L632.983 630.022L677.516 630.014L677.493 581.028L702.002 581.075L701.932 606.208Q701.921 618.009 701.481 629.802L699.137 629.931C698.608 638.314 698.847 646.624 699.031 655.014L677.933 654.965C677.825 663.176 677.338 671.72 678.326 679.888L696.185 679.777C696.601 687.547 696.413 695.391 696.42 703.173C688.69 702.697 680.682 703.463 672.912 703.454C666.255 703.446 654.278 702.502 648.399 703.357C647.934 703.425 647.492 703.55 647.134 703.855L655.521 703.931L655.512 878.607L633.895 878.603C622.31 878.066 610.591 878.437 598.994 878.517C598.701 861.754 598.94 845.012 598.923 828.25L598.516 756.008L423.998 756.427Q423.114 817.349 424.009 878.271C406.652 878.611 389.207 878.832 371.851 878.427L368.961 878.503C369.325 858.181 368.974 837.779 368.974 817.449L368.911 704.008C374.791 703.943 383.293 702.824 388.854 704.747C391.439 699.277 389.923 685.1 389.744 678.969L370.063 679.048C369.911 670.862 370.034 662.654 370.032 654.465C362.412 654.491 354.716 654.347 347.125 655.045L346.537 655.721C339.074 655.934 331.588 655.896 324.121 655.972Q324.02 642.554 323.425 629.149L322.321 628.75C320.296 618.995 321.478 591.573 321.497 579.979Z"/>
	<path fill="#09134B" transform="scale(0.196144 0.196144)" d="M586.528 728.012Q598.259 727.905 609.988 728.106L610.025 752.086C602.228 752.068 594.419 752.332 586.623 752.495C586.459 744.341 586.547 736.168 586.528 728.012Z"/>
	<path fill="#09134B" transform="scale(0.196144 0.196144)" d="M323.425 629.149C331.418 628.591 338.966 628.43 346.974 629.106C346.934 637.196 345.984 647.175 347.125 655.045L346.537 655.721C339.074 655.934 331.588 655.896 324.121 655.972Q324.02 642.554 323.425 629.149Z"/>
	<path fill="#09134B" transform="scale(0.196144 0.196144)" d="M388.939 705.138C396.496 704.796 404.083 704.987 411.646 705.068L411.478 729.037L435.928 729.067L435.964 752.506L410.536 752.429C410.505 744.564 410.275 736.643 411.062 728.806L388.505 728.566C388.659 720.838 387.998 712.805 388.939 705.138Z"/>
	<path fill="#09134B" transform="scale(0.196144 0.196144)" d="M677.639 630.018Q688.388 630.093 699.137 629.931C698.608 638.314 698.847 646.624 699.031 655.014L677.933 654.965C677.825 663.176 677.338 671.72 678.326 679.888L696.185 679.777C696.601 687.547 696.413 695.391 696.42 703.173C688.69 702.697 680.682 703.463 672.912 703.454C666.255 703.446 654.278 702.502 648.399 703.357C647.934 703.425 647.492 703.55 647.134 703.855L633.34 703.991L633.489 728.406Q621.736 728.479 609.988 728.106L609.782 704.007Q621.47 704.05 633.158 703.953C632.983 695.968 633.138 687.95 633.142 679.961Q644.093 679.784 655.046 679.798L655.015 654.089C662.498 654.076 669.956 653.93 677.427 654.454C678.232 646.287 677.909 638.202 677.639 630.018Z"/>
	<path fill="#1583EF" transform="scale(0.196144 0.196144)" d="M368.911 704.008C374.791 703.943 383.293 702.824 388.854 704.747L388.939 705.138C387.998 712.805 388.659 720.838 388.505 728.566Q387.367 803.399 388.108 878.236C382.934 878.099 376.926 877.413 371.851 878.427L368.961 878.503C369.325 858.181 368.974 837.779 368.974 817.449L368.911 704.008Z"/>
	<path fill="#1583EF" transform="scale(0.196144 0.196144)" d="M647.134 703.855L655.521 703.931L655.512 878.607L633.895 878.603L633.489 728.406L633.34 703.991L647.134 703.855Z"/>
	<path fill="#1583EF" transform="scale(0.196144 0.196144)" d="M688.524 449.053L704.096 449.043L703.034 505.701C702.826 514.274 703.231 523.695 702.086 532.162L702.002 581.075L677.493 581.028L677.516 630.014L632.983 630.022L633.013 654.618L609.451 655.04C609.576 663.17 609.481 671.315 609.486 679.447L586.954 679.491L586.973 705.991L562.97 706.022Q562.579 682.009 562.931 657.996Q549.526 657.885 536.136 658.523C535.744 674.674 535.997 690.875 536.001 707.032L486.995 707.052L486.996 658.016L460.492 658.028Q460.382 682.517 460.556 707.005L436.43 707.039Q436.57 693.763 436.031 680.497C428.313 680.306 420.711 680.235 412.995 680.529L412.991 655.016L389.011 655.053L389.003 629.083C375.209 629.297 360.659 630.566 346.953 629.097L346.939 579.516C338.463 579.557 329.96 579.467 321.497 579.979C321.478 564.297 321.142 548.606 320.97 532.924C321.036 505.654 320.287 478.345 320.008 451.072L334.037 451.033C334.106 466.301 334.586 481.738 333.674 496.981L348.522 497.004L348.533 515.068C352.911 515.179 369.05 516.59 372.005 514.888L372.299 513.657L372.745 515.141C374.186 515.873 375.553 515.847 377.128 515.915C382.214 515.925 387.376 516.12 392.449 515.752C394.08 519.096 392.882 530.731 392.968 534.997L555.33 535.03L605.265 535.004C613.787 534.979 622.319 534.384 630.831 534.929L630.969 534.455C633.385 535.873 648.33 535.038 652.093 535.086L652.037 515.899C659.026 515.69 666.053 515.913 673.046 516.002L672.91 497C678.146 496.897 683.39 496.654 688.625 496.478L688.524 449.053Z"/>
	<path fill="#184DAB" transform="scale(0.196144 0.196144)" d="M688.524 449.053L704.096 449.043L703.034 505.701C702.826 514.274 703.231 523.695 702.086 532.162L701.857 527.676C693.586 527.359 685.275 527.523 676.999 527.539L676.998 553L652.986 552.979L653 578.609Q633.504 579.15 614.002 578.967C607.273 578.95 600.055 578.398 593.383 579.135C593.052 580.039 592.869 580.778 592.784 581.738C593.606 589.305 593.087 597.374 593.061 605.003L562.28 604.994L562.443 631.039L460.521 630.977L460.532 605L428.377 604.98L428.503 578.964Q418.835 579.313 409.169 578.93C396.658 579.345 384.03 579 371.507 578.992L371.486 553.995L347.022 553.991L346.998 533.016L320.97 532.924C321.036 505.654 320.287 478.345 320.008 451.072L334.037 451.033C334.106 466.301 334.586 481.738 333.674 496.981L348.522 497.004L348.533 515.068C352.911 515.179 369.05 516.59 372.005 514.888L372.299 513.657L372.745 515.141C374.186 515.873 375.553 515.847 377.128 515.915C382.214 515.925 387.376 516.12 392.449 515.752C394.08 519.096 392.882 530.731 392.968 534.997L555.33 535.03L605.265 535.004C613.787 534.979 622.319 534.384 630.831 534.929L630.969 534.455C633.385 535.873 648.33 535.038 652.093 535.086L652.037 515.899C659.026 515.69 666.053 515.913 673.046 516.002L672.91 497C678.146 496.897 683.39 496.654 688.625 496.478L688.524 449.053Z"/>
	<path fill="#09134B" transform="scale(0.196144 0.196144)" d="M392.449 515.752C394.08 519.096 392.882 530.731 392.968 534.997L372.486 535.047C372.462 531.457 371.595 518.652 372.923 516.137L377.128 515.915C382.214 515.925 387.376 516.12 392.449 515.752Z"/>
	<path fill="#1583EF" transform="scale(0.196144 0.196144)" d="M485.984 578.87L536.78 578.923Q536.435 591.416 536.85 603.906C536.786 603.913 536.722 603.919 536.657 603.928C530.226 604.754 523.649 604.162 517.181 604.088Q501.622 603.919 486.063 604.042C485.887 595.659 485.991 587.256 485.984 578.87Z"/>
	<path fill="#09134B" transform="scale(0.196144 0.196144)" d="M392.968 534.997L555.33 535.03L605.265 535.004C613.787 534.979 622.319 534.384 630.831 534.929C632.392 537.676 631.537 549.538 631.493 553.339C625.719 552.746 619.902 552.861 614.108 553.063C605.476 552.726 596.726 553.02 588.081 553.033L540.803 553.044L392.955 552.986L392.968 534.997Z"/>
</svg>
