<?xml version="1.0" encoding="utf-8" ?>
<svg xmlns="http://www.w3.org/2000/svg" xmlns:xlink="http://www.w3.org/1999/xlink" width="417" height="417">
	<path fill="#FEFEFE" transform="scale(0.407715 0.407715)" d="M168.517 455.997L184.087 456.007L184.055 472.545L169.004 472.508L169.03 488.374C164.965 488.155 160.706 488.43 156.695 487.965C158.089 483.18 157.51 477.38 157.459 472.416C161.122 471.985 164.858 472.132 168.541 472.157L168.517 455.997Z"/>
	<path fill="#FEFEFE" transform="scale(0.407715 0.407715)" d="M495.405 56.0108L576.192 55.9706C576.181 61.0048 576.259 66.0578 576.036 71.0874L608.978 71.0306C608.953 76.3404 609.033 81.6731 608.842 86.9789L624.902 87.0165L624.973 103.075L640.778 103.017C640.819 108.438 640.993 113.895 640.692 119.308Q648.855 118.982 657.024 119.008L657.029 135.376C662.337 135.331 667.703 135.115 673.004 135.329C673.009 140.881 673.072 146.441 672.992 151.992L688.978 151.999Q688.941 164.654 689.057 177.308C694.377 177.214 699.713 177.028 705.033 177.074C705.09 192.178 704.259 208.032 705.649 223.066C701.546 224.694 693.998 223.631 689.514 223.537Q689.43 211.278 689.597 199.019C689.688 192.461 690.491 184.933 689.21 178.533C687.862 177.68 686.298 177.997 684.772 178.082L672.51 177.95C668.103 176.566 661.756 177.448 657.202 177.927C656.765 169.304 656.382 160.692 656.745 152.058Q648.388 152.166 640.03 152.07Q639.945 143.979 640.16 135.891L624.45 135.985C624.213 130.404 624.262 125.034 624.673 119.454L608.034 119.505C607.801 114.497 607.125 108.741 608.315 103.859L609.384 103.259L608.137 102.637C607.83 97.4439 607.985 92.2269 608.041 87.0278C597.222 86.9063 586.388 87.012 575.568 87.0056L526.742 87.0285C520.015 87.032 511.578 87.9695 505.023 86.7069C504.224 85.2747 504.45 83.3606 504.45 81.7586C504.129 83.52 504.013 85.2465 502.823 86.6624C496.235 88.5938 486.95 86.6646 479.841 87.4188Q471.938 87.3624 464.036 87.4997C464.02 92.6679 464.292 98.012 463.819 103.153L463.544 103.441C455.854 103.861 448.216 103.973 440.516 103.993Q440.041 111.324 439.79 118.666C438.861 119.868 437.295 119.713 435.825 119.943L423.925 120.012C423.595 123.287 424.596 134.366 422.696 136.308C422.671 136.334 422.635 136.346 422.604 136.364C417.261 136.532 411.06 137.207 405.866 136.051L406.03 120.003L423.618 119.887C423.744 114.283 423.654 108.637 423.893 103.042L440.156 103.02Q439.961 95.0845 440.167 87.1494Q452.107 87.0292 464.047 87.0343L464.07 71.0707L495.4 70.9732Q495.314 63.4919 495.405 56.0108Z"/>
	<path fill="#030303" transform="scale(0.407715 0.407715)" d="M504.398 72.1017C527.917 70.2151 551.925 71.5702 575.511 71.5068C575.508 76.6529 575.324 81.8684 575.568 87.0056L526.742 87.0285C520.015 87.032 511.578 87.9695 505.023 86.7069C504.224 85.2747 504.45 83.3606 504.45 81.7586L504.398 72.1017Z"/>
	<path fill="#030303" transform="scale(0.407715 0.407715)" d="M609.384 103.259C614.473 103.56 619.549 103.531 624.644 103.513C624.554 108.475 624.286 113.487 624.833 118.427L624.902 119.076C624.916 119.206 624.934 119.335 624.95 119.465Q632.724 119.658 640.499 119.57L640.495 135.613L656.968 135.646L656.988 151.62L672.628 152.034Q672.393 164.991 672.51 177.95C668.103 176.566 661.756 177.448 657.202 177.927C656.765 169.304 656.382 160.692 656.745 152.058Q648.388 152.166 640.03 152.07Q639.945 143.979 640.16 135.891L624.45 135.985C624.213 130.404 624.262 125.034 624.673 119.454L608.034 119.505C607.801 114.497 607.125 108.741 608.315 103.859L609.384 103.259Z"/>
	<path fill="#FEFEFE" transform="scale(0.407715 0.407715)" d="M192.035 439.999L208.024 440.004L208.003 448.004L222.523 448.039C221.886 461.366 222.022 474.68 222.2 488.015C227.937 487.968 233.77 487.699 239.494 488.093C244.924 487.583 250.152 487.546 255.584 488.008Q255.911 502.185 255.949 516.366C255.992 522.166 256.688 529.025 255.398 534.7L254.63 535.214L255.923 535.502Q256.067 552.53 256.014 569.559L239.479 569.672C239.413 587.749 239.064 605.937 239.81 624.002L254.505 624.022L254.161 640.337C258.435 640.371 262.732 640.315 267.001 640.517L266.912 663.984L291.492 664.015Q291.408 680.007 290.94 695.993C295.984 695.959 301.522 695.481 306.493 696.347L306.855 696.441C311.564 695.587 316.646 695.905 321.419 696.015L323.724 697.718C323.362 703.979 323.743 710.21 323.723 716.473C323.693 725.417 323.275 734.396 324.069 743.318L325.978 743.948Q325.948 767.978 326.266 792.005L339.784 792.035Q339.565 800.437 339.541 808.841L315.883 809.024L315.921 856.001L337.343 855.999L337.468 832.009C344.826 832.087 352.185 832.217 359.542 831.99L359.469 871.985L376.138 872.014C376.111 877.984 375.858 884.06 376.121 890.018Q320.329 889.886 264.538 890.387L264.482 904.066L247.423 904.072L247.404 887.07L256.08 886.973L256.061 880.042L359.006 880.098L359.025 872.122C340.444 872.102 321.807 871.779 303.232 872.252C302.724 862.715 302.978 853.077 302.987 843.526Q302.946 821.309 303.222 799.095L311.798 799.002C311.216 793.813 311.673 788.186 311.695 782.956L311.875 752.041L289.338 752.088C288.442 733.6 289.407 714.672 289.531 696.141L279.452 696.098Q279.274 684.098 279.399 672.098L265.557 672.101L265.587 664.025L255.198 663.936C255.006 661.333 254.983 658.707 254.899 656.097L247.652 656.078L247.479 648.25L238.991 648.066Q238.932 640.044 238.971 632.022L223.476 632.063C223.007 607.847 223.481 583.56 223.656 559.338L239.071 559.087C238.986 554.053 239.046 549.005 239.036 543.969L223.546 544.009Q223.16 520.044 223.048 496.076L207.191 496.124C207.028 490.913 207.163 485.694 207.234 480.481Q199.634 480.356 192.034 480.392C192.059 466.931 192.184 453.46 192.035 439.999Z"/>
	<path fill="#030303" transform="scale(0.407715 0.407715)" d="M239.494 488.093C244.924 487.583 250.152 487.546 255.584 488.008Q255.911 502.185 255.949 516.366C255.992 522.166 256.688 529.025 255.398 534.7L254.63 535.214C249.678 534.775 244.586 535.002 239.614 534.999L239.494 488.093Z"/>
	<path fill="#030303" transform="scale(0.407715 0.407715)" d="M306.855 696.441C311.564 695.587 316.646 695.905 321.419 696.015L323.724 697.718C323.362 703.979 323.743 710.21 323.723 716.473C323.693 725.417 323.275 734.396 324.069 743.318C318.406 743.661 312.734 743.495 307.065 743.412Q307.177 719.926 306.855 696.441Z"/>
	<path fill="#2E0B54" transform="scale(0.407715 0.407715)" d="M671.941 888.506L748.433 888.533C765.598 888.557 782.818 888.905 799.971 888.141L799.973 904.028L808.093 904.012C826.507 904 846.322 902.95 864.555 904.551L864.488 918.97L832.455 919.088L832.428 928.993L783.629 929.01L783.545 944.846C757.014 944.187 730.462 944.924 703.91 944.014L703.971 955.978C663.59 955.12 623.041 955.728 582.648 955.664L360.069 955.473L360.059 943.944L280.033 944.004L280.055 931.488Q247.089 931.09 214.122 931.464L214.262 918.999L184.311 918.998L184.308 904.11C205.317 903.705 226.409 904.019 247.423 904.072L264.482 904.066L264.538 890.387Q320.329 889.886 376.121 890.018L376.003 919.996L496.005 920.043L495.972 895.988L575.997 896.068L576.012 919.977C588.503 920.135 601.023 919.566 613.524 919.541C633.009 919.503 652.471 919.941 671.951 920.012C670.692 909.961 671.027 898.588 671.941 888.506Z"/>
	<path fill="#FEFEFE" transform="scale(0.407715 0.407715)" d="M304.399 213.005C327.322 212.769 350.441 212.537 373.355 213.03C372.102 222.836 372.953 233.582 373.033 243.501L360.012 243.495L359.997 288.068L353.724 288.078C355.679 288.394 357.568 288.602 359.548 288.673C359.5 312.236 359.037 335.877 360.169 359.416C357.256 359.487 354.31 359.44 351.433 359.932L360.892 360.003Q361.041 372.006 361.006 384.009L376.489 384.013C376.51 389.696 376.597 395.345 376.088 401.01L344.111 401Q344.011 408.516 344.039 416.032C342.145 416.047 340.182 415.951 338.315 416.287C336.98 416.803 336.276 416.865 335.596 418.218C334.557 420.286 335.855 423.678 333.482 425C331.661 426.015 329.316 425.528 327.343 425.302L327.144 425.972C326.661 427.644 326.79 429.516 325.669 430.914C323.99 431.629 322.311 431.444 320.528 431.4L320.343 432.294C319.932 434.706 319.954 437.051 319.967 439.486C317.936 439.502 315.791 439.376 313.793 439.762L311.789 440.763C311.452 443.425 311.259 446.285 311.708 448.949L300.005 449.087L300.043 480.435L320.48 480.512C320.956 488.342 320.279 496.179 320.737 503.949Q320.743 507.503 320.692 511.057L312.042 511.016L312.025 520.009C312.24 524.604 312.492 529.125 311.59 533.663C303.699 535.35 295.519 534.753 287.516 534.498L287.504 496.114C287.331 493.427 287.305 490.709 287.209 488.017L271.633 487.957L271.268 487.708C266.042 488.082 260.82 488.025 255.584 488.008C250.152 487.546 244.924 487.583 239.494 488.093C233.77 487.699 227.937 487.968 222.2 488.015C222.022 474.68 221.886 461.366 222.523 448.039L208.003 448.004L208.024 440.004L192.035 439.999L184.011 440.027L184.087 456.007L168.517 455.997L168.541 472.157C164.858 472.132 161.122 471.985 157.459 472.416C157.51 477.38 158.089 483.18 156.695 487.965L156.134 488.077C155.126 494.643 155.468 501.57 155.42 508.198Q155.348 523.36 155.124 538.521L140.114 538.388C139.538 561.574 140.026 584.884 140.023 608.082L128.686 608.086C129.126 613.449 128.856 618.992 128.863 624.378C123.281 623.982 117.585 624.231 111.989 624.252Q112.134 640.152 112.075 656.052L96.5663 656.006C96.6182 660.779 96.5496 665.562 96.5396 670.336C91.0069 670.174 85.4518 670.326 79.9171 670.375Q79.7965 663.191 79.8589 656.007L67.1119 656.064C66.2915 627.32 66.8754 598.409 66.841 569.648C66.802 537.101 66.2366 504.465 66.8754 471.927L79.9859 471.812C79.6094 455.911 79.8286 439.902 80.0121 423.996L95.245 423.938C94.7792 413.414 95.316 402.589 95.3951 392.039L111.987 391.845Q111.913 379.924 112.021 368.003Q119.98 367.961 127.939 367.833Q127.868 356.05 128.01 344.268C133.331 343.98 138.713 344.091 144.043 344.043C143.934 338.533 144.04 332.999 144.048 327.487C149.499 327.064 155.027 327.076 160.493 326.919C159.956 320.102 160.093 313.262 160.158 306.431L176.018 306.302C175.818 300.597 175.971 294.86 176.002 289.152C181.338 289.044 186.683 289.058 192.02 289.019C191.842 284.4 191.978 279.756 192.02 275.134L208.468 275.07C208.37 269.68 208.423 264.276 208.408 258.884L224.147 258.941C223.97 252.977 224.082 247.007 224.136 241.041L240.847 240.975C240.534 236.834 240.782 232.654 240.911 228.508L304.204 228.486C304.096 223.34 304.318 218.153 304.399 213.005ZM320.492 273.589L320.417 274.771C320.983 281.388 320.592 288.374 320.634 295.034L304.49 295.044L304.5 311.424L288.526 311.446Q288.694 323.294 288.637 335.144Q296.817 335.046 304.998 335.058Q305.033 343.396 304.913 351.734Q312.965 351.866 321.014 351.644L321.039 384.089L305.029 384.087L305.022 392.058L280.933 392.061L280.9 400.01L264.099 400.005L264.21 415.916L272.045 416.006Q272.138 428.02 272.026 440.034L303.757 440.044C303.383 432.066 303.756 423.932 303.914 415.947L328.966 415.761Q328.83 407.877 328.985 399.994L343.377 399.948C342.853 389.343 343.071 378.662 343.072 368.045L328.54 368.075C327.888 341.435 328.489 314.652 328.538 287.996L343.55 287.831L343.477 273.569L320.492 273.589ZM304.619 503.979C304.693 506.326 304.84 508.694 304.777 511.041L312.042 511.016L320.692 511.057Q320.743 507.503 320.737 503.949L304.619 503.979Z"/>
	<path fill="#72588D" transform="scale(0.407715 0.407715)" d="M320.528 431.4C320.389 428.978 320.391 427.486 321.967 425.535C323.758 424.5 325.421 424.894 327.343 425.302L327.144 425.972C326.661 427.644 326.79 429.516 325.669 430.914C323.99 431.629 322.311 431.444 320.528 431.4Z"/>
	<path fill="#2F2850" transform="scale(0.407715 0.407715)" d="M287.209 488.017L299.506 488.028L299.5 495.989L287.504 496.114C287.331 493.427 287.305 490.709 287.209 488.017Z"/>
	<path fill="#030303" transform="scale(0.407715 0.407715)" d="M271.837 328.221C274.373 328.032 276.832 327.974 279.372 328.016C279.286 331.822 279.062 335.688 279.263 339.488L288.086 339.514C288.084 343.494 287.911 347.553 288.154 351.521L280.051 351.424C280.073 348.618 279.69 345.862 279.348 343.084L271.493 342.998Q271.613 335.608 271.837 328.221Z"/>
	<path fill="#030303" transform="scale(0.407715 0.407715)" d="M112.033 431.101L111.936 448.015Q111.812 462.265 111.932 476.516C106.646 476.465 101.386 476.388 96.1082 476.056C95.9442 461.183 95.746 446.302 96.4169 431.438L112.033 431.101Z"/>
	<path fill="#030303" transform="scale(0.407715 0.407715)" d="M191.466 311.586C192.496 314.782 192.387 318.31 192.355 321.641C192.45 323.163 192.44 324.544 192.274 326.061L192.864 327.249L194.403 327.729L193.077 328.058C191.229 332.207 192.544 346.663 192.605 352.004L176.029 351.978C174.33 351.99 172.628 351.936 170.93 351.907C167.788 351.993 163.922 352.665 161.192 350.902C160.178 349.216 160.394 348.242 160.382 346.302C160.747 339.557 160.851 332.777 160.947 326.023C165.971 325.969 170.924 325.992 175.941 326.332Q176.404 319.187 176.556 312.028C181.532 312.062 186.496 311.809 191.466 311.586Z"/>
	<path fill="#FB9032" transform="scale(0.407715 0.407715)" d="M192.355 321.641C192.45 323.163 192.44 324.544 192.274 326.061L192.864 327.249L194.403 327.729L193.077 328.058C191.229 332.207 192.544 346.663 192.605 352.004L176.029 351.978C174.33 351.99 172.628 351.936 170.93 351.907C172.483 351.72 174.564 351.805 175.665 350.687C177.252 343.315 176.181 334.554 176.01 326.998L191.987 327.019C192.005 325.186 192.093 323.456 192.355 321.641Z"/>
	<path fill="#030303" transform="scale(0.407715 0.407715)" d="M344.455 288.164C347.546 287.994 350.63 288.045 353.724 288.078C355.679 288.394 357.568 288.602 359.548 288.673C359.5 312.236 359.037 335.877 360.169 359.416C357.256 359.487 354.31 359.44 351.433 359.932L344.504 360.002L344.455 288.164Z"/>
	<path fill="#030303" transform="scale(0.407715 0.407715)" d="M288.252 351.936C293.494 352.449 298.76 352.229 304.017 352.122L303.877 375.555Q286.481 375.94 269.08 376.004L269.004 390.998L254.057 390.996C253.932 407.316 253.582 423.704 254.178 440.018L271.54 440.028C270.718 449.398 270.896 458.799 270.903 468.196C270.908 474.647 270.654 481.285 271.268 487.708C266.042 488.082 260.82 488.025 255.584 488.008C250.152 487.546 244.924 487.583 239.494 488.093C233.77 487.699 227.937 487.968 222.2 488.015C222.022 474.68 221.886 461.366 222.523 448.039L208.003 448.004L208.024 440.004L192.035 439.999L184.011 440.027L184.019 424.393L195.481 424.377L195.114 416.002L208.011 415.997L208.011 399.998L224.03 400.006L224.007 376.007L255.544 375.875L255.614 368.155C266.361 367.514 277.227 367.882 287.991 367.984C287.996 362.633 287.946 357.28 288.252 351.936Z"/>
	<path fill="#69100F" transform="scale(0.407715 0.407715)" d="M222.973 408.001C228.629 408.18 234.304 408.452 239.963 408.488L239.523 426.176L223.475 426.179Q223.309 417.088 222.973 408.001Z"/>
	<path fill="#DA411C" transform="scale(0.407715 0.407715)" d="M223.475 426.179L239.523 426.176L239.507 448.003L223.133 447.993C223.653 440.744 223.492 433.443 223.475 426.179Z"/>
	<path fill="#DA411C" transform="scale(0.407715 0.407715)" d="M239.507 448.003L255.477 448.127C255.29 461.426 255.052 474.714 255.584 488.008C250.152 487.546 244.924 487.583 239.494 488.093Q239.921 468.048 239.507 448.003Z"/>
	<path fill="#030303" transform="scale(0.407715 0.407715)" d="M304.027 228.867L359.078 228.754L359.189 242.02C354.111 241.836 349.006 241.528 343.927 241.504C343.852 248.329 343.856 255.165 343.693 261.989L320.367 262.018C320.235 265.862 319.967 269.765 320.492 273.589L320.417 274.771C314.836 275.833 309.189 275.195 303.548 275.22L303.516 290.988L287.814 291.01L287.931 308.888L269.992 308.897L270.003 327.544C265.384 327.385 260.573 327.236 255.992 327.946C256.16 320.143 256.026 312.318 256.004 304.513L271.498 304.51C271.526 299.337 271.051 293.587 271.841 288.491L272.007 287.664C271.671 287.969 271.39 288.349 270.999 288.579C268.778 289.89 244.532 288.883 240.102 288.855C239.885 293.906 239.875 298.905 239.96 303.957L239.482 304.106C234.539 303.839 229.416 304.13 224.442 304.026C224.479 301.008 224.506 298.024 224.288 295.011C218.982 294.648 213.869 294.288 208.6 295.166C208.045 300.458 208.023 305.692 208.049 311.005C203.9 311.194 196.37 312.568 192.671 310.616L192.281 309.114C192.744 304.097 192.544 298.948 192.563 293.909L208.884 294.005C209.035 288.511 208.988 282.994 209.028 277.498L225 277.511L225.077 259.992L248.014 260.121L248.012 244.012Q275.971 244.358 303.927 243.873L304.027 228.867Z"/>
	<path fill="#221E1F" transform="scale(0.407715 0.407715)" d="M284.494 262.012C287.738 261.207 301.311 259.853 303.886 260.98C304.122 262.012 304.225 262.862 304.198 263.92C297.644 264.11 290.518 265.04 284.494 262.012Z"/>
	<path fill="#F7BE53" transform="scale(0.407715 0.407715)" d="M303.927 243.873C309.404 243.535 315.066 243.269 320.528 243.92L320.49 260.049C315.181 259.795 309.842 259.406 304.527 259.489C304.258 254.298 303.85 249.072 303.927 243.873Z"/>
	<defs>
		<linearGradient id="gradient_0" gradientUnits="userSpaceOnUse" x1="298.43173" y1="280.71555" x2="274.43307" y2="270.12115">
			<stop offset="0" stop-color="#AE511A"/>
			<stop offset="1" stop-color="#96361E"/>
		</linearGradient>
	</defs>
	<path fill="url(#gradient_0)" transform="scale(0.407715 0.407715)" d="M281.323 261.392C282.38 261.588 283.45 261.757 284.494 262.012C290.518 265.04 297.644 264.11 304.198 263.92Q303.982 268.452 303.944 272.989L287.988 272.998L287.989 288.265C282.61 288.344 277.22 288.498 271.841 288.491L272.007 287.664C271.831 282.962 271.984 278.205 271.988 273.497L281.002 273.397C280.993 269.386 281.136 265.398 281.323 261.392Z"/>
	<path fill="#F6E6A3" transform="scale(0.407715 0.407715)" d="M255.016 260.997Q268.173 260.965 281.323 261.392C281.136 265.398 280.993 269.386 281.002 273.397L271.988 273.497C271.984 278.205 271.831 282.962 272.007 287.664C271.671 287.969 271.39 288.349 270.999 288.579C268.778 289.89 244.532 288.883 240.102 288.855C239.885 293.906 239.875 298.905 239.96 303.957L239.482 304.106C234.539 303.839 229.416 304.13 224.442 304.026C224.479 301.008 224.506 298.024 224.288 295.011L224.158 294.364C223.785 292.576 223.424 290.794 224.677 289.211C227.102 286.147 235.932 287.98 239.582 287.997C240.024 283.03 239.808 277.985 239.762 273.003L255.037 273.007L255.016 260.997Z"/>
	<path fill="#030303" transform="scale(0.407715 0.407715)" d="M96.1082 476.056C101.386 476.388 106.646 476.465 111.932 476.516C112.051 479.216 111.985 482.072 112.41 484.737C112.421 483.014 112.434 481.297 112.519 479.575C117.817 479.38 123.121 479.504 128.421 479.571L135.676 479.967L142.942 480.01C142.86 482.535 142.522 485.286 143.087 487.759L143.963 488.191L142.658 488.345C141.885 503.918 142.886 519.597 142.322 535.184C141.172 535.377 140.536 534.661 139.576 534.034C136.166 531.804 130.998 532.817 127.07 533.048C126.604 555.154 126.905 577.301 126.993 599.411L111.593 599.512Q111.339 611.677 111.511 623.843L95.4825 623.998Q95.4399 637.051 95.1449 650.101L80.3484 650.106L80.5073 479.019L95.9889 479.003L96.1082 476.056Z"/>
	<path fill="#FB9032" transform="scale(0.407715 0.407715)" d="M96.1654 506.227C96.955 510.649 96.5076 515.501 96.5148 519.993L104.46 520.025C104.489 530.687 105.029 541.357 104.99 552.011C102.356 552.106 99.0714 552.622 96.6795 551.42L96.0228 549.502Q95.9702 527.864 96.1654 506.227Z"/>
	<path fill="#F7BE53" transform="scale(0.407715 0.407715)" d="M96.1082 476.056C101.386 476.388 106.646 476.465 111.932 476.516C112.051 479.216 111.985 482.072 112.41 484.737Q112.604 494.118 112.18 503.491C109.619 503.67 107.047 503.807 104.493 504.074L104.46 520.025L96.5148 519.993C96.5076 515.501 96.955 510.649 96.1654 506.227L95.9889 479.003L96.1082 476.056Z"/>
	<path fill="#DA411C" transform="scale(0.407715 0.407715)" d="M112.41 484.737C112.421 483.014 112.434 481.297 112.519 479.575C117.817 479.38 123.121 479.504 128.421 479.571L135.676 479.967L142.942 480.01C142.86 482.535 142.522 485.286 143.087 487.759L143.963 488.191L142.658 488.345C138.072 486.888 132.723 487.47 127.961 487.629L127.514 529.208L111.505 529.068L111.516 591.582L96.0338 591.593L96.0228 549.502L96.6795 551.42C99.0714 552.622 102.356 552.106 104.99 552.011C105.029 541.357 104.489 530.687 104.46 520.025L104.493 504.074C107.047 503.807 109.619 503.67 112.18 503.491Q112.604 494.118 112.41 484.737Z"/>
	<path fill="#994223" transform="scale(0.407715 0.407715)" d="M272.007 287.664L271.841 288.491C271.051 293.587 271.526 299.337 271.498 304.51L256.004 304.513C256.026 312.318 256.16 320.143 255.992 327.946C260.573 327.236 265.384 327.385 270.003 327.544L271.837 328.221Q271.613 335.608 271.493 342.998L279.348 343.084C279.69 345.862 280.073 348.618 280.051 351.424L288.154 351.521L288.252 351.936C287.946 357.28 287.996 362.633 287.991 367.984C277.227 367.882 266.361 367.514 255.614 368.155L255.544 375.875L224.007 376.007L224.03 400.006L208.011 399.998L208.011 415.997L195.114 416.002L195.481 424.377L184.019 424.393L184.011 440.027L184.087 456.007L168.517 455.997L168.541 472.157C164.858 472.132 161.122 471.985 157.459 472.416C157.51 477.38 158.089 483.18 156.695 487.965L156.134 488.077C152.051 487.905 148.044 487.997 143.963 488.191L143.087 487.759C142.522 485.286 142.86 482.535 142.942 480.01L135.676 479.967L128.421 479.571C123.121 479.504 117.817 479.38 112.519 479.575C112.434 481.297 112.421 483.014 112.41 484.737C111.985 482.072 112.051 479.216 111.932 476.516Q111.812 462.265 111.936 448.015L112.033 431.101C112.434 418.074 112.314 405.052 112.38 392.02L128.029 392.01L128.025 368.014C132.565 368.027 137.081 367.991 141.618 367.794C142.45 367.614 143.116 367.381 143.903 367.072C144.16 362.06 144.054 357.03 144.032 352.013L159.959 351.98C159.996 350.068 160.167 348.202 160.382 346.302C160.394 348.242 160.178 349.216 161.192 350.902C163.922 352.665 167.788 351.993 170.93 351.907C172.628 351.936 174.33 351.99 176.029 351.978L192.605 352.004C192.544 346.663 191.229 332.207 193.077 328.058L194.403 327.729L192.864 327.249L192.274 326.061C192.44 324.544 192.45 323.163 192.355 321.641C192.387 318.31 192.496 314.782 191.466 311.586C192.024 310.811 192.075 310.045 192.281 309.114L192.671 310.616C196.37 312.568 203.9 311.194 208.049 311.005C208.023 305.692 208.045 300.458 208.6 295.166C213.869 294.288 218.982 294.648 224.288 295.011C224.506 298.024 224.479 301.008 224.442 304.026C229.416 304.13 234.539 303.839 239.482 304.106L239.96 303.957C239.875 298.905 239.885 293.906 240.102 288.855C244.532 288.883 268.778 289.89 270.999 288.579C271.39 288.349 271.671 287.969 272.007 287.664Z"/>
	<path fill="#F6E6A3" transform="scale(0.407715 0.407715)" d="M258.888 343.232L266.002 343.305C266.086 345.445 266.673 349.655 265.482 351.444C265.084 352.043 264.28 351.918 263.625 352.009L256.168 352.009C255.958 349.489 255.57 346.982 256.179 344.5C257.165 343.316 257.336 343.469 258.888 343.232Z"/>
	<path fill="#F76B19" transform="scale(0.407715 0.407715)" d="M239.96 303.957L240.027 311.02C234.736 310.978 229.371 310.758 224.11 311.4L224.32 304.499C229.098 304.597 234.834 305.236 239.482 304.106L239.96 303.957Z"/>
	<path fill="#030303" transform="scale(0.407715 0.407715)" d="M255.992 327.946L256.018 343.482Q248.032 343.438 240.048 343.233C239.766 338.217 239.869 333.239 239.981 328.222C245.325 328.325 250.652 328.125 255.992 327.946Z"/>
	<path fill="#030303" transform="scale(0.407715 0.407715)" d="M168.033 440.077L184.011 440.027L184.087 456.007L168.517 455.997Q168.172 448.04 168.033 440.077Z"/>
	<path fill="#FB9032" transform="scale(0.407715 0.407715)" d="M111.936 448.015L128.193 448.001Q128.477 463.785 128.421 479.571C123.121 479.504 117.817 479.38 112.519 479.575C112.434 481.297 112.421 483.014 112.41 484.737C111.985 482.072 112.051 479.216 111.932 476.516Q111.812 462.265 111.936 448.015Z"/>
	<path fill="#F7BE53" transform="scale(0.407715 0.407715)" d="M224.288 295.011C224.506 298.024 224.479 301.008 224.442 304.026C229.416 304.13 234.539 303.839 239.482 304.106C234.834 305.236 229.098 304.597 224.32 304.499L224.11 311.4C218.912 311.514 213.733 311.611 208.534 311.483L208.497 327.918C203.826 327.968 199.052 328.221 194.403 327.729L192.864 327.249L192.274 326.061C192.44 324.544 192.45 323.163 192.355 321.641C192.387 318.31 192.496 314.782 191.466 311.586C192.024 310.811 192.075 310.045 192.281 309.114L192.671 310.616C196.37 312.568 203.9 311.194 208.049 311.005C208.023 305.692 208.045 300.458 208.6 295.166C213.869 294.288 218.982 294.648 224.288 295.011Z"/>
	<path fill="#030303" transform="scale(0.407715 0.407715)" d="M152.01 456.07L168.517 455.997L168.541 472.157C164.858 472.132 161.122 471.985 157.459 472.416C157.51 477.38 158.089 483.18 156.695 487.965L156.134 488.077C152.051 487.905 148.044 487.997 143.963 488.191L143.087 487.759C142.522 485.286 142.86 482.535 142.942 480.01L135.676 479.967L135.834 472.064L152.071 472.078L152.01 456.07Z"/>
	<path fill="#F7BE53" transform="scale(0.407715 0.407715)" d="M159.959 351.98C159.996 350.068 160.167 348.202 160.382 346.302C160.394 348.242 160.178 349.216 161.192 350.902C163.922 352.665 167.788 351.993 170.93 351.907C172.628 351.936 174.33 351.99 176.029 351.978Q176.455 359.643 176.331 367.318C181.545 367.239 186.762 367.077 191.968 367.458L192.006 383.437C186.695 383.406 181.314 383.554 176.015 383.215L176.006 367.659Q168.269 368.193 160.521 367.867C160.357 381.187 160.865 394.649 160.187 407.938L144.507 407.96C144.658 415.966 144.939 423.992 144.933 431.998C139.312 432.015 133.655 432.15 128.037 431.998C128.071 437.321 127.973 442.685 128.193 448.001L111.936 448.015L112.033 431.101C112.434 418.074 112.314 405.052 112.38 392.02L128.029 392.01L128.025 368.014C132.565 368.027 137.081 367.991 141.618 367.794C142.45 367.614 143.116 367.381 143.903 367.072C144.16 362.06 144.054 357.03 144.032 352.013L159.959 351.98Z"/>
	<path fill="#030303" transform="scale(0.407715 0.407715)" d="M144.032 352.013L159.959 351.98C159.71 357.072 159.61 362.002 160.113 367.078C155.279 367.639 148.637 368.114 143.903 367.072C144.16 362.06 144.054 357.03 144.032 352.013Z"/>
	<path fill="#030303" transform="scale(0.407715 0.407715)" d="M141.618 367.794L143.083 368.18C145.543 372.72 144.04 393.576 143.999 400.027L127.994 400.033C128.046 410.389 128.351 420.8 127.397 431.124C122.273 431.046 117.156 430.949 112.033 431.101C112.434 418.074 112.314 405.052 112.38 392.02L128.029 392.01L128.025 368.014C132.565 368.027 137.081 367.991 141.618 367.794Z"/>
	<path fill="#030303" transform="scale(0.407715 0.407715)" d="M479.841 87.4188C486.95 86.6646 496.235 88.5938 502.823 86.6624C504.013 85.2465 504.129 83.52 504.45 81.7586C504.45 83.3606 504.224 85.2747 505.023 86.7069C511.578 87.9695 520.015 87.032 526.742 87.0285L575.568 87.0056C586.388 87.012 597.222 86.9063 608.041 87.0278C607.985 92.2269 607.83 97.4439 608.137 102.637L609.384 103.259L608.315 103.859C607.125 108.741 607.801 114.497 608.034 119.505L624.673 119.454C624.262 125.034 624.213 130.404 624.45 135.985L640.16 135.891Q639.945 143.979 640.03 152.07Q648.388 152.166 656.745 152.058C656.382 160.692 656.765 169.304 657.202 177.927C661.756 177.448 668.103 176.566 672.51 177.95L684.772 178.082C686.298 177.997 687.862 177.68 689.21 178.533C690.491 184.933 689.688 192.461 689.597 199.019Q689.43 211.278 689.514 223.537C693.998 223.631 701.546 224.694 705.649 223.066L705.934 223.105L705.993 287.068L720.008 287.071L720.117 334.034C720.192 342.06 721.086 350.499 720.172 358.459C715.25 358.374 710.199 358.053 705.305 358.645L705.068 359.254C700.012 360.572 694.175 360.013 688.999 359.889C688.968 368.013 688.56 376.374 689.263 384.463L673.598 384.538L673.483 399.977C668.172 400.189 662.807 400.535 657.494 400.519C657.47 405.883 657.104 411.178 656.947 416.528L648.386 416.564C648.358 424.367 648.431 432.187 648.165 439.984L632.066 439.962L632.031 447.962L616.437 447.988C616.491 453.49 616.459 458.995 616.986 464.477C608.838 464.525 600.647 465.134 592.513 464.943L592.355 480.53L565.455 480.503L565.478 495.978L488.044 495.994L488.002 480.962C477.369 480.971 466.689 481.183 456.067 480.676L456.015 463.959L440.02 464.04L440.02 447.97L400.011 447.949L392.018 447.994L375.984 448.002L375.997 416.035L368.353 416.014L344.039 416.032Q344.011 408.516 344.111 401L376.088 401.01C376.597 395.345 376.51 389.696 376.489 384.013L361.006 384.009Q361.041 372.006 360.892 360.003L351.433 359.932C354.31 359.44 357.256 359.487 360.169 359.416C359.037 335.877 359.5 312.236 359.548 288.673C357.568 288.602 355.679 288.394 353.724 288.078L359.997 288.068L360.012 243.495L373.033 243.501C372.953 233.582 372.102 222.836 373.355 213.03L374.842 212.676C375.989 202.923 375.044 187.358 375.026 176.906L383.75 176.8L390.105 176.536C390.552 163.044 390.228 149.511 390.18 136.009C394.859 135.928 399.545 135.978 404.225 135.973L405.866 136.051C411.06 137.207 417.261 136.532 422.604 136.364C422.635 136.346 422.671 136.334 422.696 136.308C424.596 134.366 423.595 123.287 423.925 120.012L435.825 119.943C437.295 119.713 438.861 119.868 439.79 118.666Q440.041 111.324 440.516 103.993C448.216 103.973 455.854 103.861 463.544 103.441L463.819 103.153C464.292 98.012 464.02 92.6679 464.036 87.4997Q471.938 87.3624 479.841 87.4188Z"/>
	<path fill="#572093" transform="scale(0.407715 0.407715)" d="M451.257 400.435C454.122 403.548 458.137 409.403 462.685 409.482C463.286 409.492 463.884 409.448 464.482 409.4C464.167 414.233 464.128 419.069 464.062 423.91L456.858 423.851C455.249 415.988 452.521 408.381 451.257 400.435Z"/>
	<path fill="#2F2850" transform="scale(0.407715 0.407715)" d="M376.042 359.976L391.96 360.028C391.549 367.844 391.695 375.643 391.958 383.462C386.769 383.515 381.563 383.479 376.378 383.662Q375.931 371.823 376.042 359.976Z"/>
	<path fill="#2F2850" transform="scale(0.407715 0.407715)" d="M416.148 344.037C416.037 338.146 415.976 332.164 416.417 326.289C416.661 332.186 416.564 338.09 416.525 343.99C416.279 352.03 416.36 360.089 416.341 368.133Q408.224 368.229 400.106 368.206Q400.205 356.112 400.112 344.017L416.148 344.037Z"/>
	<path fill="#572093" transform="scale(0.407715 0.407715)" d="M576.003 384.025L590.517 384.014Q590.101 403.795 590.011 423.58L576.023 423.544L576.008 447.444C572.854 447.388 569.678 447.406 566.528 447.244C566.542 436.504 566.398 425.738 566.659 415.003L559.986 415.444L559.998 399.486L576.015 399.517L576.003 384.025Z"/>
	<path fill="#572093" transform="scale(0.407715 0.407715)" d="M488.007 399.485C506.867 399.37 525.741 398.755 544.593 399.469C544.331 416.281 544.716 433.159 544.523 449.992L531.993 450.014L532.032 439.722L519.999 440.013L520.024 408.057L503.97 408.058Q503.537 427.997 503.799 447.939C499.656 448.067 492.91 449.027 489.624 445.923C486.471 442.946 488.357 428.934 488.461 424.028L479.479 424.211L479.508 407.997L488.028 408.136L488.007 399.485Z"/>
	<path fill="#572093" transform="scale(0.407715 0.407715)" d="M504.017 225.992L559.92 226.036Q559.819 235.427 559.906 244.817L591.991 244.557L591.976 263.93C600.099 263.845 608.232 263.678 616.352 263.944C616.221 267.494 616.048 271.049 616.037 274.602L632.016 274.589L632.003 288.512L644.486 288.514L644.555 367.905L631.764 367.676L631.884 383.924L617.533 383.924L617.575 415.874L607.607 416.016L607.513 384.037C610.843 384.15 614.174 384.034 617.503 383.957Q617.077 371.486 616.992 359.007L616.538 357.817C617.24 353.443 616.884 348.46 616.939 344.002L604.007 344.001C604.022 335.981 605.234 327.427 603.611 319.554Q589.812 319.427 576.013 319.512L576.034 304.494C575.868 299.225 576.009 293.92 576.023 288.646C571.072 290.021 565.706 289.671 560.615 289.584L560.551 295.504L543.588 295.515Q543.676 284.702 543.982 273.894C536.61 271.389 512.381 273.078 503.99 273.841C485.734 274.942 467.305 274.488 449.02 274.495C448.897 279.307 448.711 284.181 447.869 288.93Q439.71 288.934 431.553 289.095C431.595 294.032 431.411 299.08 431.734 304L431.602 328.507C431.467 333.677 431.507 338.799 431.648 343.966L416.525 343.99C416.564 338.09 416.661 332.186 416.417 326.289L416.382 288.934Q423.916 288.831 431.451 288.805C431.774 284.5 431.705 280.321 431.511 276.01L440.434 276.023C440.295 272.016 440.094 268.002 440.022 263.995L464.041 264.045L464.016 244.499L504.027 244.518L504.017 225.992Z"/>
	<path fill="#B156E0" transform="scale(0.407715 0.407715)" d="M606.516 288.934C609.166 287.865 613.614 288.489 616.519 288.517L616.463 303.998L606.644 303.993C606.361 299.005 606.531 293.933 606.516 288.934Z"/>
	<path fill="#B156E0" transform="scale(0.407715 0.407715)" d="M616.939 344.002L631.474 344.033L631.028 359.49C626.362 359.315 621.66 359.004 616.992 359.007L616.538 357.817C617.24 353.443 616.884 348.46 616.939 344.002Z"/>
	<path fill="#9538DD" transform="scale(0.407715 0.407715)" d="M503.995 256.979L544.029 256.995L543.982 273.894C536.61 271.389 512.381 273.078 503.99 273.841L503.995 256.979Z"/>
	<path fill="#9538DD" transform="scale(0.407715 0.407715)" d="M543.982 273.894C549.255 275.65 596.698 274.419 606.64 274.412C606.59 278.891 606.869 283.638 606.39 288.079C596.446 287.997 585.866 287.256 576.023 288.646C571.072 290.021 565.706 289.671 560.615 289.584L560.551 295.504L543.588 295.515Q543.676 284.702 543.982 273.894Z"/>
	<path fill="#030303" transform="scale(0.407715 0.407715)" d="M576.023 288.646C585.866 287.256 596.446 287.997 606.39 288.079L606.516 288.934C606.531 293.933 606.361 299.005 606.644 303.993L616.463 303.998L631.598 304.018L631.474 344.033L616.939 344.002L604.007 344.001C604.022 335.981 605.234 327.427 603.611 319.554Q589.812 319.427 576.013 319.512L576.034 304.494C575.868 299.225 576.009 293.92 576.023 288.646Z"/>
	<path fill="#F76B19" transform="scale(0.407715 0.407715)" d="M603.941 319.448Q610.473 319.557 617.005 319.571C617.035 327.708 617.191 335.869 616.939 344.002L604.007 344.001C604.022 335.981 605.234 327.427 603.611 319.554L603.941 319.448Z"/>
	<path fill="#994223" transform="scale(0.407715 0.407715)" d="M576.034 304.494L603.591 304.441C603.574 309.452 603.498 314.451 603.941 319.448L603.611 319.554Q589.812 319.427 576.013 319.512L576.034 304.494Z"/>
	<path fill="#B156E0" transform="scale(0.407715 0.407715)" d="M503.99 273.841C512.381 273.078 536.61 271.389 543.982 273.894Q543.676 284.702 543.588 295.515L560.551 295.504L560.615 289.584C565.706 289.671 571.072 290.021 576.023 288.646C576.009 293.92 575.868 299.225 576.034 304.494L576.013 319.512Q589.812 319.427 603.611 319.554C605.234 327.427 604.022 335.981 604.007 344.001L616.939 344.002C616.884 348.46 617.24 353.443 616.538 357.817L616.992 359.007Q617.077 371.486 617.503 383.957C614.174 384.034 610.843 384.15 607.513 384.037L607.518 367.922C601.891 367.246 596.161 367.575 590.51 367.72L590.517 384.014L576.003 384.025L576.015 399.517L559.998 399.486L544.593 399.469C525.741 398.755 506.867 399.37 488.007 399.485L488.016 383.718L479.934 383.93L479.961 368.578C474.933 368.629 469.91 368.698 464.884 368.543Q464.461 388.969 464.482 409.4C463.884 409.448 463.286 409.492 462.685 409.482C458.137 409.403 454.122 403.548 451.257 400.435C448.775 392.043 447.603 383.606 446.371 374.967L431.963 375.094Q432.034 359.528 431.648 343.966C431.507 338.799 431.467 333.677 431.602 328.507L431.734 304C431.411 299.08 431.595 294.032 431.553 289.095Q439.71 288.934 447.869 288.93C448.711 284.181 448.897 279.307 449.02 274.495C467.305 274.488 485.734 274.942 503.99 273.841Z"/>
	<path fill="#B156E0" transform="scale(0.407715 0.407715)" d="M511.769 345.097C513.812 345.163 517.055 345.617 518.871 344.735C519.724 344.321 519.693 343.364 519.945 342.514C519.918 344.833 520.268 348.018 518.559 349.836C516.79 351.718 513.497 351.533 511.11 351.751C511.482 349.591 511.556 347.285 511.769 345.097Z"/>
	<path fill="#030303" transform="scale(0.407715 0.407715)" d="M464.993 344.007L488.023 344.005C487.973 348.656 488.013 353.31 488.015 357.962C476.891 357.775 465.738 357.92 454.612 357.914L454.516 344.16L459.355 344.012L464.993 344.007Z"/>
	<path fill="#030303" transform="scale(0.407715 0.407715)" d="M604.007 344.001L616.939 344.002C616.884 348.46 617.24 353.443 616.538 357.817C611.729 357.102 606.532 357.417 601.667 357.416L575.898 357.511L575.954 344.014L604.007 344.001Z"/>
	<path fill="#030303" transform="scale(0.407715 0.407715)" d="M560.02 304.489L576.034 304.494L576.013 319.512L575.954 344.014L560.018 344.114L560.02 304.489Z"/>
	<path fill="#F7BE53" transform="scale(0.407715 0.407715)" d="M576.013 319.512Q589.812 319.427 603.611 319.554C605.234 327.427 604.022 335.981 604.007 344.001L575.954 344.014L576.013 319.512Z"/>
	<path fill="#030303" transform="scale(0.407715 0.407715)" d="M527.998 344.99L536.751 344.98L536.579 366.52C541.524 367.475 546.99 367.041 552.021 367.004L552.012 384.048C538.727 383.959 525.344 384.214 512.073 383.728C511.826 378.721 510.879 372.511 512.418 367.711C513.009 367.119 513.062 366.95 513.897 366.706C518.547 367.25 523.381 367.001 528.061 367.003L527.998 344.99Z"/>
	<path fill="#E889EA" transform="scale(0.407715 0.407715)" d="M520.039 328.123Q531.977 327.952 543.915 328.087C544.017 335.939 544.638 344.275 543.419 352.056L552.272 351.496C552.363 356.593 552.403 361.608 552.016 366.699C546.916 366.679 541.655 366.3 536.579 366.52L536.751 344.98L527.998 344.99L528.061 367.003C523.381 367.001 518.547 367.25 513.897 366.706C512.993 366.382 512.82 366.277 512.163 365.655C510.479 361.179 510.973 356.441 511.11 351.751C513.497 351.533 516.79 351.718 518.559 349.836C520.268 348.018 519.918 344.833 519.945 342.514L520.039 328.123Z"/>
	<path fill="#030303" transform="scale(0.407715 0.407715)" d="M450.588 288.636C462.708 287.103 475.778 287.992 488.014 287.983L487.993 305.003L503.76 304.978L504 344.174L488.023 344.005L464.993 344.007L459.355 344.012L454.516 344.16L453.507 344.039L440.748 344.01C440.794 338.848 440.696 333.674 440.66 328.511L431.602 328.507L431.734 304L450.494 304.002C450.492 298.887 450.387 293.748 450.588 288.636Z"/>
	<path fill="#DA411C" transform="scale(0.407715 0.407715)" d="M463.97 303.993L479.57 304.017L480.141 319.426L463.61 319.479Q463.932 311.739 463.97 303.993Z"/>
	<path fill="#F7BE53" transform="scale(0.407715 0.407715)" d="M480.141 319.426L488.005 319.557C488.231 327.665 488.74 335.919 488.023 344.005L464.993 344.007L459.355 344.012L454.516 344.16L453.507 344.039C453.277 339.312 453.388 334.547 453.382 329.814L453.405 320.019C456.787 319.627 460.209 319.595 463.61 319.479L480.141 319.426Z"/>
	<path fill="#EFDBF2" transform="scale(0.407715 0.407715)" d="M459.355 344.012C460.081 341.445 460.473 339.222 462.923 337.779C463.673 337.901 463.869 337.744 464.335 338.434C465.405 340.02 465.087 342.193 464.993 344.007L459.355 344.012Z"/>
	<path fill="#EFDBF2" transform="scale(0.407715 0.407715)" d="M453.405 320.019C456.787 319.627 460.209 319.595 463.61 319.479L463.504 329.958C460.142 329.916 456.738 329.985 453.382 329.814L453.405 320.019Z"/>
	<path fill="#140E31" transform="scale(0.407715 0.407715)" d="M624.45 135.985L640.16 135.891Q639.945 143.979 640.03 152.07Q648.388 152.166 656.745 152.058C656.382 160.692 656.765 169.304 657.202 177.927C661.756 177.448 668.103 176.566 672.51 177.95L684.772 178.082C686.298 177.997 687.862 177.68 689.21 178.533C690.491 184.933 689.688 192.461 689.597 199.019Q689.43 211.278 689.514 223.537C693.998 223.631 701.546 224.694 705.649 223.066L705.934 223.105L705.993 287.068L720.008 287.071L720.117 334.034C720.192 342.06 721.086 350.499 720.172 358.459C715.25 358.374 710.199 358.053 705.305 358.645L705.068 359.254C700.012 360.572 694.175 360.013 688.999 359.889C688.968 368.013 688.56 376.374 689.263 384.463L673.598 384.538L673.483 399.977C668.172 400.189 662.807 400.535 657.494 400.519C657.47 405.883 657.104 411.178 656.947 416.528L648.386 416.564C648.358 424.367 648.431 432.187 648.165 439.984L632.066 439.962L632.031 447.962L616.437 447.988C616.491 453.49 616.459 458.995 616.986 464.477C608.838 464.525 600.647 465.134 592.513 464.943L592.355 480.53L565.455 480.503L565.478 495.978L488.044 495.994L488.002 480.962C477.369 480.971 466.689 481.183 456.067 480.676L456.015 463.959L440.02 464.04L440.02 447.97L400.011 447.949L392.018 447.994L392.02 432.406C397.373 432.09 402.703 432.049 408.063 432.036L408.006 415.726L392.036 416.015L392.007 383.927L419.16 384.049C418.751 394.642 419.123 405.337 418.891 415.95L440.02 416.03L439.85 431.998L456.017 432.029C455.644 437.368 455.582 442.662 455.579 448.01L471.608 448.053L471.461 456.514L487.985 456.507C487.873 462.5 487.979 468.513 487.995 474.508C512.136 474.024 536.294 474.412 560.44 474.436L560.441 462.597L576.134 462.493C576.045 457.65 576.15 452.794 576.18 447.951L591.527 448.029L591.491 432.504L616.993 432.438C617.519 426.993 617.642 421.476 617.942 416.012L631.554 416.033L631.53 400.023L647.48 400.026C647.388 394.723 647.466 389.402 647.466 384.097L660.087 384.098L660.025 360.019L672.091 360.094L672.032 343.965L660.001 344.021C660.034 320.999 659.061 297.995 658.982 274.971Q649.756 275.166 640.529 275.083L640.514 258.945L617.594 258.965L617.491 243.806C609.044 243.11 600.53 243.661 592.083 244.072C592.138 240.864 592.264 237.62 592.167 234.413C592.102 232.271 592.023 229.409 590.286 227.892C585.623 223.819 566.262 225.541 560.021 225.717Q560.092 217.129 559.893 208.543L567.814 208.527C567.761 200.022 567.9 191.505 567.945 182.999L591.983 183.023L591.977 167.511C597.302 167.646 602.653 167.52 607.981 167.502L607.98 151.927C613.473 152.045 618.983 151.929 624.477 151.904L624.45 135.985Z"/>
	<path fill="#2F2850" transform="scale(0.407715 0.407715)" d="M592.016 183.965L608.002 184.017L607.998 199.878C610.659 200.229 613.333 200.347 616.012 200.497L616.029 210.81L607.503 211.036L607.538 199.948C602.356 199.821 597.179 199.917 591.997 199.995L592.016 183.965Z"/>
	<path fill="#030303" transform="scale(0.407715 0.407715)" d="M672.448 311.972C677.78 311.945 683.126 311.838 688.457 311.939L688.523 344.041L672.032 343.965Q672.372 327.97 672.448 311.972Z"/>
	<path fill="#030303" transform="scale(0.407715 0.407715)" d="M684.772 178.082C686.298 177.997 687.862 177.68 689.21 178.533C690.491 184.933 689.688 192.461 689.597 199.019Q689.43 211.278 689.514 223.537C693.998 223.631 701.546 224.694 705.649 223.066L705.934 223.105L705.993 287.068L720.008 287.071L720.117 334.034C720.192 342.06 721.086 350.499 720.172 358.459C715.25 358.374 710.199 358.053 705.305 358.645C704.252 351.699 704.946 343.727 704.953 336.689Q704.966 312.324 705.524 287.966L689.108 287.993C689.637 266.69 689.47 245.328 689.477 224.018C684.036 223.711 678.45 223.968 672.994 223.998C672.06 208.844 673.046 193.603 672.624 178.416C676.588 178.612 680.865 178.833 684.772 178.082Z"/>
	<path fill="#2F2850" transform="scale(0.407715 0.407715)" d="M479.841 87.4188C486.95 86.6646 496.235 88.5938 502.823 86.6624C504.013 85.2465 504.129 83.52 504.45 81.7586C504.45 83.3606 504.224 85.2747 505.023 86.7069C511.578 87.9695 520.015 87.032 526.742 87.0285L575.568 87.0056C586.388 87.012 597.222 86.9063 608.041 87.0278C607.985 92.2269 607.83 97.4439 608.137 102.637L609.384 103.259L608.315 103.859C607.125 108.741 607.801 114.497 608.034 119.505L624.673 119.454C624.262 125.034 624.213 130.404 624.45 135.985L624.477 151.904C618.983 151.929 613.473 152.045 607.98 151.927L607.981 167.502C602.653 167.52 597.302 167.646 591.977 167.511L591.983 183.023L567.945 182.999C567.9 191.505 567.761 200.022 567.814 208.527L559.893 208.543C541.255 208.56 522.625 208.968 503.987 208.882L503.985 225.512Q481.006 225.557 458.033 225.032Q457.485 234.255 457.483 243.494L439.999 243.414L439.975 258.434L416.006 258.499L416.01 247.028L400.968 247.029C399.296 265.988 400.493 285.049 400.059 304.043C392.055 304.117 384.037 304.292 376.035 304.183L376.042 359.976Q368.467 359.815 360.892 360.003L351.433 359.932C354.31 359.44 357.256 359.487 360.169 359.416C359.037 335.877 359.5 312.236 359.548 288.673C357.568 288.602 355.679 288.394 353.724 288.078L359.997 288.068L360.012 243.495L373.033 243.501C372.953 233.582 372.102 222.836 373.355 213.03L374.842 212.676C375.989 202.923 375.044 187.358 375.026 176.906L383.75 176.8L390.105 176.536C390.552 163.044 390.228 149.511 390.18 136.009C394.859 135.928 399.545 135.978 404.225 135.973L405.866 136.051C411.06 137.207 417.261 136.532 422.604 136.364C422.635 136.346 422.671 136.334 422.696 136.308C424.596 134.366 423.595 123.287 423.925 120.012L435.825 119.943C437.295 119.713 438.861 119.868 439.79 118.666Q440.041 111.324 440.516 103.993C448.216 103.973 455.854 103.861 463.544 103.441L463.819 103.153C464.292 98.012 464.02 92.6679 464.036 87.4997Q471.938 87.3624 479.841 87.4188Z"/>
	<path fill="#030303" transform="scale(0.407715 0.407715)" d="M423.925 120.012L435.825 119.943L439.847 120.24C440.27 125.57 440.05 130.982 440.012 136.326C434.684 136.389 429.333 136.56 424.007 136.439C424.113 131.009 424.455 125.42 423.925 120.012Z"/>
	<path fill="#030303" transform="scale(0.407715 0.407715)" d="M440.516 103.993C448.216 103.973 455.854 103.861 463.544 103.441C464.261 108.754 463.904 114.149 463.557 119.48C459.617 119.547 442.289 120.66 439.979 119.077L439.79 118.666Q440.041 111.324 440.516 103.993Z"/>
	<path fill="#030303" transform="scale(0.407715 0.407715)" d="M575.568 87.0056C586.388 87.012 597.222 86.9063 608.041 87.0278C607.985 92.2269 607.83 97.4439 608.137 102.637C607.256 102.974 607.711 102.895 606.638 102.836C596.296 102.268 585.835 102.527 575.476 102.5L575.568 87.0056Z"/>
	<path fill="#030303" transform="scale(0.407715 0.407715)" d="M479.841 87.4188C487.567 87.9677 496.247 88.1639 503.947 87.3398L504.021 103.027Q483.919 102.757 463.819 103.153C464.292 98.012 464.02 92.6679 464.036 87.4997Q471.938 87.3624 479.841 87.4188Z"/>
	<path fill="#030303" transform="scale(0.407715 0.407715)" d="M404.225 135.973L405.866 136.051C411.06 137.207 417.261 136.532 422.604 136.364C420.759 149.754 421.511 163.546 421.951 177.013L404.988 176.895C404.989 189.029 404.835 201.187 405.03 213.319L389.975 213.147L390.012 243.801L373.987 243.906Q374.443 266.168 374.446 288.435C369.619 288.187 364.833 288.023 359.997 288.068L360.012 243.495L373.033 243.501C372.953 233.582 372.102 222.836 373.355 213.03L374.842 212.676C375.989 202.923 375.044 187.358 375.026 176.906L383.75 176.8L390.105 176.536C390.552 163.044 390.228 149.511 390.18 136.009C394.859 135.928 399.545 135.978 404.225 135.973Z"/>
	<path fill="#FEFEFE" transform="scale(0.407715 0.407715)" d="M383.75 176.8C385.464 176.79 387.321 176.598 388.908 177.318C389.029 189.226 388.182 200.943 389.086 212.868C384.454 213.154 379.429 213.516 374.842 212.676C375.989 202.923 375.044 187.358 375.026 176.906L383.75 176.8Z"/>
	<path fill="#FEFEFE" transform="scale(0.407715 0.407715)" d="M390.18 136.009C394.859 135.928 399.545 135.978 404.225 135.973C403.533 149.289 403.668 163.198 404.393 176.512L390.105 176.536C390.552 163.044 390.228 149.511 390.18 136.009Z"/>
	<path fill="#030303" transform="scale(0.407715 0.407715)" d="M705.934 223.105C710.608 223.035 715.304 222.868 719.978 222.967C720.03 241.962 720.664 261.068 720.331 280.044L735.872 279.976C735.849 306.407 735.251 333.007 735.986 359.417L720.566 359.402C721.336 372.598 720.962 386.023 720.987 399.249C726.141 399.173 731.317 398.993 736.469 399.116L736.524 415.137Q744.722 414.997 752.921 415.021C752.894 420.348 753.048 425.747 752.624 431.058L768.002 430.994C767.986 436.212 768.071 441.451 767.895 446.665L781.976 446.506L782.018 497.064L760.511 497.048Q760.583 508.506 760.513 519.964L777.053 519.944C777.168 525.048 777.396 530.178 777.309 535.282Q785.147 534.871 792.994 534.977L793.081 551.999L808.992 551.956C809.004 562.622 809.244 573.344 808.822 584.001L824.076 584L824.093 600.025L840.001 600.014C840.037 616.009 839.754 632.073 840.167 648.059L849.872 647.983C849.51 671.986 850.01 696.044 850.023 720.054L840.478 720.119L840.456 752.213C835.186 752.496 829.947 752.574 824.671 752.585C824.712 757.626 824.307 763.091 824.819 768.083C818.936 768.084 813.042 768.02 807.16 768.117Q806.93 760.163 807.01 752.206C801.962 752.162 796.904 752.049 791.857 752.187Q791.493 744.115 791.682 736.036L736.456 736.064C736.52 757.371 736.354 778.714 736.72 800.016L752.686 799.956C752.465 821.174 751.886 842.802 752.875 863.982L744.446 864.032L744.47 871.988L800.012 872.014L800.052 887.605L808.044 887.678C808.051 893.114 807.954 898.579 808.093 904.012L799.973 904.028L799.971 888.141C782.818 888.905 765.598 888.557 748.433 888.533L671.941 888.506C671.027 898.588 670.692 909.961 671.951 920.012C652.471 919.941 633.009 919.503 613.524 919.541C601.023 919.566 588.503 920.135 576.012 919.977L575.997 896.068L495.972 895.988L496.005 920.043L376.003 919.996L376.121 890.018C375.858 884.06 376.111 877.984 376.138 872.014L359.469 871.985L359.542 831.99C352.185 832.217 344.826 832.087 337.468 832.009L337.343 855.999L315.921 856.001L315.883 809.024L339.541 808.841Q339.565 800.436 339.784 792.035L326.266 792.005Q325.948 767.977 325.978 743.948L324.069 743.318C323.275 734.396 323.693 725.417 323.723 716.473C323.743 710.21 323.362 703.979 323.724 697.718L321.419 696.015C316.646 695.905 311.564 695.587 306.855 696.441L306.493 696.347C301.522 695.481 295.984 695.959 290.94 695.993Q291.408 680.007 291.492 664.015L266.912 663.984L267.001 640.517C262.732 640.315 258.435 640.371 254.161 640.337L254.505 624.022L239.81 624.002C239.064 605.937 239.413 587.749 239.479 569.672L256.014 569.559Q256.067 552.53 255.923 535.502L254.63 535.214L255.398 534.7C256.688 529.025 255.992 522.166 255.949 516.366Q255.911 502.185 255.584 488.008C260.82 488.025 266.042 488.082 271.268 487.708L271.633 487.957L287.209 488.017C287.305 490.709 287.331 493.427 287.504 496.114L287.516 534.498C295.519 534.753 303.699 535.35 311.59 533.663C312.492 529.125 312.24 524.604 312.025 520.009L312.042 511.016L320.692 511.057Q320.743 507.503 320.737 503.949C320.279 496.179 320.956 488.342 320.48 480.512L300.043 480.435L300.005 449.087L311.708 448.949C311.259 446.285 311.452 443.425 311.789 440.763L313.793 439.762C315.791 439.376 317.936 439.502 319.967 439.486C319.954 437.051 319.932 434.706 320.343 432.294L320.528 431.4C322.311 431.444 323.99 431.629 325.669 430.914C326.79 429.516 326.661 427.644 327.144 425.972L327.343 425.302C329.316 425.528 331.661 426.015 333.482 425C335.855 423.678 334.557 420.286 335.596 418.218C336.276 416.865 336.98 416.803 338.315 416.287C340.182 415.951 342.145 416.047 344.039 416.032L368.353 416.014L375.997 416.035L375.984 448.002L392.018 447.994L400.011 447.949L440.02 447.97L440.02 464.04L456.015 463.959L456.067 480.676C466.689 481.183 477.369 480.971 488.002 480.962L488.044 495.994L565.478 495.978L565.455 480.503L592.355 480.53L592.513 464.943C600.647 465.134 608.838 464.525 616.986 464.477C616.459 458.995 616.491 453.49 616.437 447.988L632.031 447.962L632.066 439.962L648.165 439.984C648.431 432.187 648.358 424.367 648.386 416.564L656.947 416.528C657.104 411.178 657.47 405.883 657.494 400.519C662.807 400.535 668.172 400.189 673.483 399.977L673.598 384.538L689.263 384.463C688.56 376.374 688.968 368.013 688.999 359.889C694.175 360.013 700.012 360.572 705.068 359.254L705.305 358.645C710.199 358.053 715.25 358.374 720.172 358.459C721.086 350.499 720.192 342.06 720.117 334.034L720.008 287.071L705.993 287.068L705.934 223.105Z"/>
	<path fill="#140E31" transform="scale(0.407715 0.407715)" d="M441.957 607.961C443.52 608.167 443.968 608.099 445.204 609.141C446.077 611.314 445.629 613.817 445.483 616.112L442.015 615.973L441.957 607.961Z"/>
	<path fill="#994223" transform="scale(0.407715 0.407715)" d="M392.04 902.922Q396.05 903.013 400.061 903.052C400.078 904.262 400.254 905.93 399.478 906.941C398.726 907.92 397.472 908.653 396.251 908.833C395.112 909.001 393.693 908.4 392.872 907.611C391.637 906.423 392.049 904.483 392.04 902.922Z"/>
	<path fill="#69100F" transform="scale(0.407715 0.407715)" d="M407.513 888.976C409.891 888.802 412.275 888.585 414.656 888.461L414.446 895.415C411.957 895.531 409.099 895.917 406.637 895.704C407.292 893.377 407.521 891.392 407.513 888.976Z"/>
	<path fill="#F76B19" transform="scale(0.407715 0.407715)" d="M392.096 896.005L400.038 896.019L400.061 903.052Q396.05 903.013 392.04 902.922L392.096 896.005Z"/>
	<path fill="#140E31" transform="scale(0.407715 0.407715)" d="M471.992 623.976L480.469 623.984C480.488 626.592 480.463 628.918 481.388 631.406L481.08 631.567L472.011 631.46L471.992 623.976Z"/>
	<path fill="#2E0B54" transform="scale(0.407715 0.407715)" d="M624.008 743.999L631.986 744.016L631.97 752.216L624.021 752.447L624.008 743.999Z"/>
	<path fill="#B156E0" transform="scale(0.407715 0.407715)" d="M759.549 551.003L767.531 551.035L767.89 559.994L759.496 560.004L759.549 551.003Z"/>
	<path fill="#B156E0" transform="scale(0.407715 0.407715)" d="M726.918 583.315L735.411 583.523L735.381 591.91L726.555 591.988C726.601 589.101 726.543 586.181 726.918 583.315Z"/>
	<path fill="#A89BC4" transform="scale(0.407715 0.407715)" d="M312.042 511.016L320.692 511.057Q320.498 515.504 320.509 519.956L312.025 520.009L312.042 511.016Z"/>
	<path fill="#B156E0" transform="scale(0.407715 0.407715)" d="M431.673 608.098L441.957 607.961L442.015 615.973C438.7 616.07 435.348 615.937 432.03 615.907L431.673 608.098Z"/>
	<path fill="#572093" transform="scale(0.407715 0.407715)" d="M351.58 574.391C351.815 577.386 351.911 580.329 351.896 583.334C349.438 583.394 346.975 583.49 344.516 583.496C344.523 586.644 344.736 589.885 344.05 592.971L343.124 593.836L336.01 592.113L336.014 583.041L351.459 582.975C351.415 580.108 351.491 577.256 351.58 574.391Z"/>
	<path fill="#F76B19" transform="scale(0.407715 0.407715)" d="M400.046 880.95L407.493 880.913L407.513 888.976C407.521 891.392 407.292 893.377 406.637 895.704C404.445 895.841 402.235 896.044 400.038 896.019C399.979 890.999 400.041 885.97 400.046 880.95Z"/>
	<path fill="#140E31" transform="scale(0.407715 0.407715)" d="M344.516 583.496C346.975 583.49 349.438 583.394 351.896 583.334C352.892 583.519 353.93 583.788 354.936 583.876C355.03 587.289 355.124 590.689 355.037 594.103C351.088 593.815 347.059 594.288 343.124 593.836L344.05 592.971C344.736 589.885 344.523 586.644 344.516 583.496Z"/>
	<path fill="#DA411C" transform="scale(0.407715 0.407715)" d="M544.021 664.51L553.059 664.507L553.072 678.162L544.007 678.089L544.021 664.51Z"/>
	<path fill="#A89BC4" transform="scale(0.407715 0.407715)" d="M655.241 896.38C656.272 897.372 656.035 898.591 656.072 899.993C656.108 901.353 656.045 902.729 656.011 904.089C650.687 904.176 644.878 904.673 639.632 903.71L639.916 896.532Q647.579 896.537 655.241 896.38Z"/>
	<path fill="#2E0B54" transform="scale(0.407715 0.407715)" d="M664.035 416.559L672.011 416.506L672.019 432.188L663.995 432.233L664.035 416.559Z"/>
	<path fill="#9538DD" transform="scale(0.407715 0.407715)" d="M751.972 447.591L752.053 456.025L735.964 456.025L736.009 447.856C741.35 447.915 746.635 447.857 751.972 447.591Z"/>
	<path fill="#2E0B54" transform="scale(0.407715 0.407715)" d="M767.979 576.001L783.146 576.034C783.086 578.813 782.851 581.707 783.115 584.472C778.151 585.379 772.96 584.643 767.981 584.154L767.979 576.001Z"/>
	<path fill="#2F2850" transform="scale(0.407715 0.407715)" d="M695.52 423.491C695.582 419.781 694.849 415.656 695.478 412.022C695.76 410.393 696.318 409.763 697.61 408.792C699.49 408.495 701.277 408.782 702.878 409.902C704.85 411.282 704.828 414.229 705.128 416.415C705.084 419.212 705.171 422.04 704.621 424.791C703.488 424.587 703.889 424.609 702.852 424.593C700.432 424.557 697.588 424.935 695.52 423.491Z"/>
	<path fill="#2F2850" transform="scale(0.407715 0.407715)" d="M743.996 550.974C748.398 550.994 752.873 550.84 757.264 551.083C752.989 551.696 748.54 551.472 744.227 551.438C744.39 556.685 744.445 561.868 744.254 567.118C742.525 568.456 739.863 568.271 737.689 568.338C734.318 568.872 731.097 569.019 727.685 569.023C727.571 566.041 727.634 563.033 727.618 560.048L727.934 559.944C733.22 560.248 738.687 560.006 743.991 560.01L743.996 550.974Z"/>
	<path fill="#B156E0" transform="scale(0.407715 0.407715)" d="M712.554 572.977C717.399 572.956 722.259 572.856 727.1 573.088C727.069 576.48 727.166 579.935 726.918 583.315L712.505 583.697L712.554 572.977Z"/>
	<path fill="#9538DD" transform="scale(0.407715 0.407715)" d="M693.416 520.471L704.028 520.484L704.003 535.493L693.503 535.495L693.416 520.471Z"/>
	<path fill="#2E0B54" transform="scale(0.407715 0.407715)" d="M712.062 544.937C712.301 546.9 712.074 547.932 713.5 549.356C718.019 550.658 722.727 548.909 727.46 549.821C728.252 550.19 729 550.499 729.839 550.744L728.381 551.147C727.183 553.458 727.818 557.362 727.934 559.944L727.618 560.048C722.581 559.872 717.493 559.989 712.449 559.975C712.219 554.974 711.858 549.943 712.062 544.937Z"/>
	<path fill="#EFDBF2" transform="scale(0.407715 0.407715)" d="M341.575 498.987C345.168 498.902 348.77 498.945 352.364 498.937Q352.275 500.268 352.21 501.601C352.074 504.42 351.454 509.221 353.388 511.351L352.616 512.023C352.614 514.676 352.659 517.365 352.333 520.002C351.813 517.455 352.033 514.597 352.015 511.997L338.345 512.011C338.519 509.23 338.528 506.413 338.612 503.626L341.575 498.987Z"/>
	<path fill="#2F2850" transform="scale(0.407715 0.407715)" d="M442.77 481.014L456.014 481.02Q455.848 488.613 455.959 496.207C452.071 495.986 447.985 496.358 444.065 496.333L442.77 481.014Z"/>
	<path fill="#572093" transform="scale(0.407715 0.407715)" d="M712.292 536.01L727.114 535.995C727.361 540.611 727.445 545.199 727.46 549.821C722.727 548.909 718.019 550.658 713.5 549.356C712.074 547.932 712.301 546.9 712.062 544.937C712.041 541.962 712.188 538.984 712.292 536.01Z"/>
	<path fill="#B156E0" transform="scale(0.407715 0.407715)" d="M335.966 568.144C340.749 567.774 345.722 567.953 350.505 568.175L351.536 568.522L351.58 574.391C351.491 577.256 351.415 580.108 351.459 582.975L336.014 583.041L335.966 568.144Z"/>
	<path fill="#B156E0" transform="scale(0.407715 0.407715)" d="M455.975 616.008C461.285 616.025 466.645 615.897 471.948 616.116L471.992 623.976L472.011 631.46C466.765 630.706 461.272 631.104 455.987 631.252L455.975 616.008Z"/>
	<path fill="#E889EA" transform="scale(0.407715 0.407715)" d="M639.592 879.747L640.237 880.106C640.118 882.749 639.968 885.378 640.149 888.023C629.364 887.671 618.799 887.503 608.021 888.082L607.969 879.91C618.559 879.927 629.006 880.591 639.592 879.747Z"/>
	<path fill="#A89BC4" transform="scale(0.407715 0.407715)" d="M552.533 832.511C557.857 832.463 563.178 832.381 568.5 832.581L568.551 847.996L552.369 847.991Q552.599 840.253 552.533 832.511Z"/>
	<path fill="#B156E0" transform="scale(0.407715 0.407715)" d="M743.994 656.014L759.605 656.011Q759.672 664.007 759.508 672.002L744.016 671.987L743.994 656.014Z"/>
	<path fill="#572093" transform="scale(0.407715 0.407715)" d="M792.528 639.993Q800.277 639.98 808.018 639.608L808.008 656.003L792.417 656.011L792.528 639.993Z"/>
	<path fill="#B156E0" transform="scale(0.407715 0.407715)" d="M823.287 652.999C823.475 654.163 823.644 655.308 823.754 656.482C824.038 661.663 824.049 666.834 824.066 672.021L808.02 671.981L808.008 656.003C811.931 656.283 819.258 657.572 822.572 655.303C823.326 654.786 823.168 653.838 823.287 652.999Z"/>
	<path fill="#572093" transform="scale(0.407715 0.407715)" d="M808.02 671.981L824.066 672.021L824.057 688.04C819.105 687.829 813.206 687.094 808.4 688.344L808.084 688.25L808.02 671.981Z"/>
	<path fill="#140E31" transform="scale(0.407715 0.407715)" d="M691.253 496.089C696.843 496.069 702.446 496.331 708.033 496.5L708.065 510.878C702.272 511.8 696.307 511.876 690.449 512C690.451 506.71 690.943 501.371 691.253 496.089Z"/>
	<path fill="#572093" transform="scale(0.407715 0.407715)" d="M705.128 416.415Q712.522 416.494 719.912 416.261C720.394 421.883 720.252 427.369 719.971 432.994C715.157 434.419 708.951 433.634 703.949 433.48C703.926 430.563 704.298 427.686 704.621 424.791C705.171 422.04 705.084 419.212 705.128 416.415Z"/>
	<path fill="#2F2850" transform="scale(0.407715 0.407715)" d="M677.115 512.317L690.168 512.424C690.398 519.206 692.058 525.566 691.894 532.487C687.208 532.516 682.596 532.504 677.921 532.088C677.015 525.653 677.125 518.814 677.115 512.317Z"/>
	<path fill="#2E0B54" transform="scale(0.407715 0.407715)" d="M664.248 599.015L676.007 598.57C675.988 606.941 675.753 615.381 676.133 623.741C672.099 624.202 668.052 624.07 664.001 624.014L664.173 608.04C664.208 605.036 664.294 602.019 664.248 599.015Z"/>
	<path fill="#2E0B54" transform="scale(0.407715 0.407715)" d="M737.689 568.338C739.863 568.271 742.525 568.456 744.254 567.118C746.296 568.826 756.783 567.636 759.899 567.574C759.589 573.054 759.486 578.51 759.849 583.992L743.452 583.999L743.466 578.474C740.837 575.377 738.612 572.411 737.689 568.338Z"/>
	<path fill="#B156E0" transform="scale(0.407715 0.407715)" d="M323.082 543.976C323.102 548.831 323.06 553.694 323.154 558.548C327.572 557.878 332.01 557.788 336.472 557.987C336.528 561.218 336.839 564.569 335.663 567.644C331.747 567.423 327.726 567.602 323.798 567.594C323.82 565.482 324.328 561.833 322.594 560.3C321.35 559.201 320.191 559.212 318.632 559.304C316.225 559.446 313.828 559.471 311.418 559.5C311.19 554.439 311.183 549.386 311.178 544.321L323.082 543.976Z"/>
	<path fill="#994223" transform="scale(0.407715 0.407715)" d="M523.608 664.354L527.294 664.422L544.021 664.51L544.007 678.089L520.048 677.975C520.045 673.524 520.226 668.981 519.724 664.555L523.608 664.354Z"/>
	<path fill="#F76B19" transform="scale(0.407715 0.407715)" d="M506.962 656.161C510.91 656.31 515.277 656.105 519.126 656.971L528.104 657.079Q527.762 660.757 527.294 664.422L523.608 664.354L519.724 664.555C520.226 668.981 520.045 673.524 520.048 677.975C516.179 678.339 510.522 679.491 507.208 677.126C506.531 675.635 506.651 675.221 506.813 673.639C507.058 667.827 506.946 661.978 506.962 656.161Z"/>
	<path fill="#F6E6A3" transform="scale(0.407715 0.407715)" d="M519.126 656.971L528.104 657.079Q527.762 660.757 527.294 664.422L523.608 664.354C522.272 664.318 521.38 664.322 520.144 663.747C518.924 662.134 519.236 658.952 519.126 656.971Z"/>
	<path fill="#DA411C" transform="scale(0.407715 0.407715)" d="M519.484 672.976C519.51 670.166 519.513 667.359 519.724 664.555C520.226 668.981 520.045 673.524 520.048 677.975C516.179 678.339 510.522 679.491 507.208 677.126C506.531 675.635 506.651 675.221 506.813 673.639L507.063 674.044C508.879 674.967 516.797 672.905 519.484 672.976Z"/>
	<path fill="#FEFEFE" transform="scale(0.407715 0.407715)" d="M432.462 752.059C437.424 751.548 443.632 750.55 448.328 752.51C447.578 760.141 448.029 768.088 448.019 775.766C443.081 775.258 437.429 775.281 432.491 775.796Q432.354 763.928 432.462 752.059Z"/>
	<path fill="#572093" transform="scale(0.407715 0.407715)" d="M255.972 583.967L304.058 584.04L304.009 592.008L255.957 592.034L255.972 583.967Z"/>
	<path fill="#FEFEFE" transform="scale(0.407715 0.407715)" d="M408.011 847.996L432.198 848.001L431.966 863.996L408.027 864.024L408.011 847.996Z"/>
	<path fill="#DA411C" transform="scale(0.407715 0.407715)" d="M278.118 535.278L287.877 534.968L288.001 560.009L280.965 559.961L272.01 559.947L271.997 535.342L278.118 535.278Z"/>
	<path fill="#030303" transform="scale(0.407715 0.407715)" d="M743.903 535.859C744.315 540.827 744.129 545.989 743.996 550.974L743.991 560.01C738.687 560.006 733.22 560.248 727.934 559.944C727.818 557.362 727.183 553.458 728.381 551.147L729.839 550.744C729 550.499 728.252 550.19 727.46 549.821C727.445 545.199 727.361 540.611 727.114 535.995L743.903 535.859Z"/>
	<path fill="#9538DD" transform="scale(0.407715 0.407715)" d="M743.903 535.859C744.315 540.827 744.129 545.989 743.996 550.974L743.991 560.01C738.687 560.006 733.22 560.248 727.934 559.944C727.818 557.362 727.183 553.458 728.381 551.147L729.839 550.744C734.315 551.437 739.088 551.019 743.586 550.796C743.586 545.836 743.405 540.797 743.903 535.859Z"/>
	<path fill="#2F2850" transform="scale(0.407715 0.407715)" d="M783.115 584.472L792.581 584.087Q791.966 596.002 792.004 607.932L784.217 607.965L784.356 600.187C778.91 600.425 773.451 600.395 768 600.429L767.981 584.154C772.96 584.643 778.151 585.379 783.115 584.472Z"/>
	<path fill="#A89BC4" transform="scale(0.407715 0.407715)" d="M432.491 775.796C437.429 775.281 443.081 775.258 448.019 775.766C451.031 776.039 454.031 776.007 457.052 775.998Q456.566 783.742 456.451 791.501L464.005 791.506C464.003 794.265 464.182 797.184 463.952 799.925C455.805 799.752 447.645 799.771 439.497 799.699L439.511 775.995C437.143 776.042 434.855 776.034 432.491 775.796Z"/>
	<path fill="#2F2850" transform="scale(0.407715 0.407715)" d="M323.082 543.976L323.341 543.686C327.425 544.43 331.951 544.058 336.106 544.048L351.592 544.006C351.573 548.401 352.332 564.721 351.244 567.862L350.505 568.175C345.722 567.953 340.749 567.774 335.966 568.144L335.663 567.644C336.839 564.569 336.528 561.218 336.472 557.987C332.01 557.788 327.572 557.878 323.154 558.548C323.06 553.694 323.102 548.831 323.082 543.976Z"/>
	<path fill="#2F2850" transform="scale(0.407715 0.407715)" d="M368.014 511.114C376.012 512.234 384.005 511.612 392.012 512.165L392.01 535.883C387.098 535.716 382.294 535.717 377.382 535.931L367.548 535.992C367.943 530.799 367.97 525.604 368.03 520.399L368.014 511.114Z"/>
	<path fill="#B156E0" transform="scale(0.407715 0.407715)" d="M368.03 520.399C371.27 520.526 374.447 520.72 377.663 521.144L377.382 535.931L367.548 535.992C367.943 530.799 367.97 525.604 368.03 520.399Z"/>
	<path fill="#2E0B54" transform="scale(0.407715 0.407715)" d="M631.99 839.46L631.959 863.932L608.003 864.02C608.225 858.826 608.972 852.677 607.737 847.615C607.471 844.878 607.444 842.247 607.504 839.504Q619.747 839.583 631.99 839.46Z"/>
	<path fill="#DA411C" transform="scale(0.407715 0.407715)" d="M378.708 824.819C383.048 824.136 387.615 824.242 391.999 824.415L392.018 864.009C386.705 863.957 381.374 863.999 376.066 863.78C376.038 853.164 376.289 842.456 375.953 831.851C377.048 831.535 378.215 831.324 378.802 830.266C379.751 828.557 379.107 826.613 378.708 824.819Z"/>
	<path fill="#B156E0" transform="scale(0.407715 0.407715)" d="M767.972 624.002L808.431 624.025C808.409 629.217 808.175 634.418 808.018 639.608Q800.277 639.98 792.528 639.993L767.992 640.012L767.972 624.002Z"/>
	<path fill="#572093" transform="scale(0.407715 0.407715)" d="M759.605 656.011L767.605 656.031L767.439 679.5L759.743 679.418C759.463 687.579 759.278 695.832 759.702 703.989L744.042 703.997L744.016 671.987L759.508 672.002Q759.672 664.007 759.605 656.011Z"/>
	<path fill="#DA411C" transform="scale(0.407715 0.407715)" d="M306.543 648.014L321.424 648.028C320.786 658.36 321.154 668.774 321.348 679.118C320.76 684.731 321.096 690.395 321.419 696.015C316.646 695.905 311.564 695.587 306.855 696.441L306.493 696.347Q307.011 672.181 306.543 648.014Z"/>
	<path fill="#572093" transform="scale(0.407715 0.407715)" d="M255.643 608.577Q279.821 608.887 304 608.791L303.997 623.5L255.532 623.553Q255.516 616.064 255.643 608.577Z"/>
	<path fill="#2F2850" transform="scale(0.407715 0.407715)" d="M448.328 752.51C448.6 754.85 448.631 757.104 448.6 759.452L464.01 759.573L464.008 775.996L480.02 776.02L479.94 799.777L463.952 799.925C464.182 797.184 464.003 794.265 464.005 791.506L456.451 791.501Q456.566 783.742 457.052 775.998C454.031 776.007 451.031 776.039 448.019 775.766C448.029 768.088 447.578 760.141 448.328 752.51Z"/>
	<path fill="#DA411C" transform="scale(0.407715 0.407715)" d="M271.268 487.708L271.633 487.957Q272.221 511.591 271.989 535.232C266.661 535.308 261.238 535.199 255.923 535.502L254.63 535.214L255.398 534.7C256.688 529.025 255.992 522.166 255.949 516.366Q255.911 502.185 255.584 488.008C260.82 488.025 266.042 488.082 271.268 487.708Z"/>
	<path fill="#572093" transform="scale(0.407715 0.407715)" d="M608.021 888.082C618.799 887.503 629.364 887.671 640.149 888.023C640.096 890.739 640.071 893.46 639.989 896.175C645.018 896.077 650.248 895.696 655.241 896.38Q647.579 896.537 639.916 896.532L639.632 903.71C633.102 902.935 626.097 903.561 619.513 903.71Q605.765 903.987 592.014 904.019L591.997 888.22C597.277 888.397 602.774 888.781 608.021 888.082Z"/>
	<path fill="#DA411C" transform="scale(0.407715 0.407715)" d="M337.63 672.851C337.778 675.236 337.922 677.605 337.911 679.996C337.947 692.804 337.841 705.631 338.058 718.437C337.927 726.984 337.62 735.389 338.145 743.932C334.102 744.095 330.025 743.968 325.978 743.948L324.069 743.318C323.275 734.396 323.693 725.417 323.723 716.473C323.743 710.21 323.362 703.979 323.724 697.718L321.419 696.015C321.096 690.395 320.76 684.731 321.348 679.118L324.317 679.93L337.57 679.683L337.63 672.851Z"/>
	<path fill="#69100F" transform="scale(0.407715 0.407715)" d="M321.348 679.118L324.317 679.93C324.209 685.738 324.537 691.973 323.724 697.718L321.419 696.015C321.096 690.395 320.76 684.731 321.348 679.118Z"/>
	<path fill="#DA411C" transform="scale(0.407715 0.407715)" d="M338.058 718.437C339.265 721.245 340.151 723.955 340.899 726.918C343.769 726.948 346.68 726.887 349.542 727.071L351.589 726.945C352.788 725.997 352.578 725.327 352.789 723.851L353.024 726.223L353.97 726.998C357.057 730.998 355.195 760.799 354.803 767.093C354.009 774.32 356.111 785.475 353.456 791.978C349.05 792.146 344.94 792.387 340.553 791.726L340.583 782.03C339.809 771.58 341.039 760.982 340.589 750.512C340.463 747.567 340.43 746.001 338.145 743.932C337.62 735.389 337.927 726.984 338.058 718.437Z"/>
	<path fill="#69100F" transform="scale(0.407715 0.407715)" d="M338.058 718.437C339.265 721.245 340.151 723.955 340.899 726.918C343.769 726.948 346.68 726.887 349.542 727.071C346.656 727.397 343.875 727.395 340.978 727.341C341.911 736.777 341.071 746.252 340.983 755.713C340.903 764.324 341.493 773.487 340.583 782.03C339.809 771.58 341.039 760.982 340.589 750.512C340.463 747.567 340.43 746.001 338.145 743.932C337.62 735.389 337.927 726.984 338.058 718.437Z"/>
	<path fill="#2F2850" transform="scale(0.407715 0.407715)" d="M592.945 816.012L623.504 816.016L632.045 816.008L631.99 839.46Q619.747 839.583 607.504 839.504C607.444 842.247 607.471 844.878 607.737 847.615C602.819 847.486 597.846 847.816 592.928 847.983L592.945 816.012Z"/>
	<path fill="#E889EA" transform="scale(0.407715 0.407715)" d="M623.504 816.016L632.045 816.008L631.99 839.46Q619.747 839.583 607.504 839.504L607.48 824.081L623.51 824.434L623.504 816.016Z"/>
	<path fill="#572093" transform="scale(0.407715 0.407715)" d="M439.85 880.119C448.028 879.15 456.204 879.716 464.407 880.054C464.502 882.718 464.507 885.343 464.429 888.007L480.022 888.033L480.02 904.007C461.366 904.101 442.639 904.535 423.994 904.074L423.669 888.001L439.59 888.019C439.622 885.452 439.422 882.645 439.85 880.119Z"/>
	<path fill="#A89BC4" transform="scale(0.407715 0.407715)" d="M439.85 880.119C448.028 879.15 456.204 879.716 464.407 880.054C464.186 882.707 464.019 885.319 464.004 887.983L439.999 888.002C439.972 885.385 440.044 882.728 439.85 880.119Z"/>
	<path fill="#DA411C" transform="scale(0.407715 0.407715)" d="M353.456 791.978C356.111 785.475 354.009 774.32 354.803 767.093L355.289 768.627C356.809 769.392 358.361 769.118 360.003 769.019C365.157 769.049 370.316 769.031 375.469 769.117C375.285 776.539 373.414 821.197 376.173 824.144C377.014 824.374 377.856 824.637 378.708 824.819C379.107 826.613 379.751 828.557 378.802 830.266C378.215 831.324 377.048 831.535 375.953 831.851C370.686 832.276 365.132 831.975 359.834 831.982C359.609 821.561 359.859 811.123 359.988 800.701C358.33 800.116 356.756 799.437 355.484 798.177C353.73 796.44 353.42 794.34 353.456 791.978Z"/>
	<path fill="#69100F" transform="scale(0.407715 0.407715)" d="M353.456 791.978C356.111 785.475 354.009 774.32 354.803 767.093L355.289 768.627C356.809 769.392 358.361 769.118 360.003 769.019L359.988 800.701C358.33 800.116 356.756 799.437 355.484 798.177C353.73 796.44 353.42 794.34 353.456 791.978Z"/>
	<path fill="#2E0B54" transform="scale(0.407715 0.407715)" d="M695.827 720.265C700.239 720.083 704.64 720.075 709.054 720.078C708.603 735.951 709.452 752.093 709.535 767.993L696.435 768.01C696.413 765.809 696.587 763.055 695.836 760.982C695.546 760.182 695.276 760.308 694.551 760.039C692.01 760.075 690.407 760.293 688.456 758.511C687.653 756.467 687.929 754.078 687.95 751.908L672.02 751.971L672.018 736.496L688.083 736.506L688.01 720.356L695.827 720.265Z"/>
	<path fill="#B156E0" transform="scale(0.407715 0.407715)" d="M708.033 496.5L727.566 496.506C727.804 504.364 728.024 512.09 727.399 519.937C732.988 520.271 738.513 520.29 744.097 519.844L744.569 520.278C749.501 520.621 754.453 520.524 759.394 520.508L759.534 535.946L759.549 551.003L757.264 551.083C752.873 550.84 748.398 550.994 743.996 550.974C744.129 545.989 744.315 540.827 743.903 535.859L727.114 535.995C726.728 530.648 726.831 525.349 726.931 519.995L708.095 520.241L708.065 510.878L708.033 496.5Z"/>
	<path fill="#030303" transform="scale(0.407715 0.407715)" d="M744.569 520.278C749.501 520.621 754.453 520.524 759.394 520.508L759.534 535.946C754.391 535.613 749.131 535.725 743.971 535.645C743.906 530.936 743.207 524.765 744.569 520.278Z"/>
	<path fill="#FB9032" transform="scale(0.407715 0.407715)" d="M506.953 631.008C522.244 630.826 537.822 630.012 553.051 631.51L553.059 664.507L544.021 664.51L527.294 664.422Q527.762 660.757 528.104 657.079L519.126 656.971C515.277 656.105 510.91 656.31 506.962 656.161L506.953 631.008Z"/>
	<path fill="#FEFEFE" transform="scale(0.407715 0.407715)" d="M518.859 639.019C527.191 638.818 535.593 638.427 543.9 639.298L543.83 655.877C538.536 656.963 533.497 657.181 528.104 657.079L519.126 656.971C518.223 651.01 518.371 645.015 518.859 639.019Z"/>
	<path fill="#572093" transform="scale(0.407715 0.407715)" d="M353.388 511.351C358.335 510.808 363.058 510.544 368.014 511.114L368.03 520.399C367.97 525.604 367.943 530.799 367.548 535.992Q366.563 552.162 366.856 568.359C361.87 568.388 356.478 568.046 351.536 568.522L350.505 568.175L351.244 567.862C352.332 564.721 351.573 548.401 351.592 544.006L336.106 544.048C331.951 544.058 327.425 544.43 323.341 543.686C323.498 540.841 323.459 537.956 323.512 535.105C323.336 530.729 323.163 526.453 323.585 522.081C327.791 521.555 332.473 521.979 336.732 521.996C337.212 518.665 337.611 515.295 338.345 512.011L352.015 511.997C352.033 514.597 351.813 517.455 352.333 520.002C352.659 517.365 352.614 514.676 352.616 512.023L353.388 511.351Z"/>
	<path fill="#FEFEFE" transform="scale(0.407715 0.407715)" d="M353.388 511.351C358.335 510.808 363.058 510.544 368.014 511.114L368.03 520.399C362.8 520.391 357.56 520.155 352.333 520.002C352.659 517.365 352.614 514.676 352.616 512.023L353.388 511.351Z"/>
	<path fill="#FEFEFE" transform="scale(0.407715 0.407715)" d="M323.585 522.081C328.044 522.563 332.533 522.458 337.012 522.447L337.003 535.138C341.962 535.639 346.928 535.27 351.894 535.027Q351.78 539.518 351.592 544.006L336.106 544.048C331.951 544.058 327.425 544.43 323.341 543.686C323.498 540.841 323.459 537.956 323.512 535.105C323.336 530.729 323.163 526.453 323.585 522.081Z"/>
	<path fill="#572093" transform="scale(0.407715 0.407715)" d="M323.512 535.105C327.058 535.22 333.142 534.255 335.719 536.806C336.823 539.141 336.351 541.55 336.106 544.048C331.951 544.058 327.425 544.43 323.341 543.686C323.498 540.841 323.459 537.956 323.512 535.105Z"/>
	<path fill="#FEFEFE" transform="scale(0.407715 0.407715)" d="M374.002 549.501L392.881 549.506L392.507 583.291L379.441 583.27C379.786 608.016 380.054 632.676 379.526 657.425L367.777 657.516C365.949 649.697 366.874 640.185 366.891 632.152L366.994 594.364C363.199 593.994 359.321 594.085 355.507 594.042L355.644 583.281C361.644 582.77 367.854 583.175 373.875 583.268L374.002 549.501Z"/>
	<path fill="#2F2850" transform="scale(0.407715 0.407715)" d="M624.021 752.447L631.97 752.216L631.971 767.607L632.004 800.006L607.508 800.019L592.677 800.017C593.13 786.724 592.941 773.363 592.955 760.061L608.152 760.016L608.005 752.495L624.021 752.447Z"/>
	<path fill="#E889EA" transform="scale(0.407715 0.407715)" d="M623.939 767.496L631.971 767.607L632.004 800.006L607.508 800.019L607.497 784.066Q615.741 784.138 623.984 784.311L623.939 767.496Z"/>
	<path fill="#2F2850" transform="scale(0.407715 0.407715)" d="M447.932 815.573C453.107 815.642 458.288 815.552 463.46 815.679C468.985 815.911 474.479 815.868 480.007 815.789L479.989 847.947L463.994 847.987L463.997 863.926C455.801 863.693 447.58 863.537 439.388 864.003L431.966 863.996L432.198 848.001C433.236 843.164 432.542 837.069 432.502 832.1C432.27 826.602 432.428 821.069 432.462 815.567L447.932 815.573Z"/>
	<path fill="#B156E0" transform="scale(0.407715 0.407715)" d="M432.198 848.001L439.802 848C440.014 853.298 440.481 858.777 439.388 864.003L431.966 863.996L432.198 848.001Z"/>
	<path fill="#FEFEFE" transform="scale(0.407715 0.407715)" d="M447.932 815.573C453.107 815.642 458.288 815.552 463.46 815.679C463.292 818.532 463.22 821.234 464.231 823.97C464.6 826.68 464.609 829.277 464.574 832.005C453.917 832.152 443.147 832.627 432.502 832.1C432.27 826.602 432.428 821.069 432.462 815.567L447.932 815.573Z"/>
	<path fill="#572093" transform="scale(0.407715 0.407715)" d="M447.932 815.573C453.107 815.642 458.288 815.552 463.46 815.679C463.292 818.532 463.22 821.234 464.231 823.97L448.043 823.992Q448.067 819.781 447.932 815.573Z"/>
	<path fill="#FEFEFE" transform="scale(0.407715 0.407715)" d="M552.369 847.991L568.551 847.996L568.686 864.002L592.168 864.003L592.037 880.505Q535.954 880.985 479.87 880.488L479.716 864L504.013 864.004L503.995 848.093C511.994 847.868 519.98 848.15 527.968 848.528L528.006 864.281C535.984 863.987 544.005 864.282 551.986 864.419C551.959 858.942 551.81 853.447 552.369 847.991Z"/>
	<path fill="#2F2850" transform="scale(0.407715 0.407715)" d="M607.827 608.076L664.173 608.04L664.001 624.014L648.836 623.989C648.633 629.29 648.264 634.732 648.81 640.016C640.556 640.044 632.273 640.667 624.032 640.471C623.902 645.646 623.464 650.85 623.508 656.02C618.487 655.913 612.336 655.195 607.521 656.664L607.537 663.495L562.498 663.508L562.501 631.576Q569.234 631.547 575.965 631.355C581.183 630.555 586.749 630.983 592.016 631.107L591.987 615.998C596.702 615.991 601.395 615.987 606.104 616.264C606.633 616.178 607.061 615.929 607.544 615.703C608.334 613.451 608.068 611.013 608.019 608.656L607.827 608.076Z"/>
	<path fill="#9538DD" transform="scale(0.407715 0.407715)" d="M608.019 608.656C613.171 608.358 618.361 608.502 623.519 608.526L623.522 616.511C618.356 616.493 613.091 616.259 607.941 616.654L606.104 616.264C606.633 616.178 607.061 615.929 607.544 615.703C608.334 613.451 608.068 611.013 608.019 608.656Z"/>
	<path fill="#140E31" transform="scale(0.407715 0.407715)" d="M616.506 640.493L624.032 640.471C623.902 645.646 623.464 650.85 623.508 656.02C618.487 655.913 612.336 655.195 607.521 656.664C607.866 653.803 607.941 650.932 608.054 648.054L616.493 648.018L616.506 640.493Z"/>
	<path fill="#B156E0" transform="scale(0.407715 0.407715)" d="M591.987 615.998C596.702 615.991 601.395 615.987 606.104 616.264L607.941 616.654C607.973 621.579 608.057 626.51 608.016 631.435Q600.072 631.223 592.125 631.326L592.05 640.014L575.984 639.966L575.965 631.355C581.183 630.555 586.749 630.983 592.016 631.107L591.987 615.998Z"/>
	<path fill="#2F2850" transform="scale(0.407715 0.407715)" d="M392.541 584.006Q400.249 584.022 407.957 584.121Q407.67 596.06 407.925 607.999L431.673 608.098L432.03 615.907C435.348 615.937 438.7 616.07 442.015 615.973L445.483 616.112Q450.729 616.028 455.975 616.008L455.987 631.252C461.272 631.104 466.765 630.706 472.011 631.46L481.08 631.567L481.388 631.406C486.075 630.888 490.796 630.921 495.506 630.987C495.474 641.71 495.565 652.451 495.13 663.167C482.226 663.257 469.303 663.501 456.4 663.408C456.366 658.07 456.364 652.738 456.042 647.407L429.993 647.445Q429.874 639.629 429.956 631.813C426.58 631.965 418.301 633.562 415.833 630.775C414.345 629.094 414.947 625.762 415.042 623.698L408.016 623.662C407.818 631.392 407.395 639.236 407.965 646.953L415.695 647.541C415.652 650.303 415.436 653.184 415.74 655.929L408.982 656.009L409.021 663.607L401.999 663.5L402.02 655.529C398.826 655.029 395.616 655.047 392.391 654.998C392.547 647.928 393.305 639.902 392.067 632.937C391.698 616.683 390.945 600.211 392.541 584.006Z"/>
	<path fill="#B156E0" transform="scale(0.407715 0.407715)" d="M472.011 631.46L481.08 631.567C481.242 634.346 481.03 637.249 480.972 640.039C477.971 640 474.989 639.714 471.999 639.466L472.011 631.46Z"/>
	<path fill="#140E31" transform="scale(0.407715 0.407715)" d="M695.52 423.491C697.588 424.935 700.432 424.557 702.852 424.593C703.889 424.609 703.488 424.587 704.621 424.791C704.298 427.686 703.926 430.563 703.949 433.48C708.951 433.634 715.157 434.419 719.971 432.994Q724.46 432.57 728.925 431.941Q732.494 432.031 736.065 432.012Q735.982 439.934 736.009 447.856L735.964 456.025L752.053 456.025L752.007 463.939L736.474 464.005C737.07 469.333 737.043 474.623 737.067 479.977L711.998 480.088L711.994 463.958L695.745 463.969C695.536 469.555 695.576 475.109 695.662 480.695C680.351 481.206 665.025 480.967 649.708 481.027C639.39 481.067 628.697 481.778 618.453 480.55L618.484 464.134C630.985 463.838 643.537 464.027 656.042 464.099L656.006 448.417L688.053 448.424L687.983 440.017L695.539 440.015C695.43 434.515 695.519 428.993 695.52 423.491Z"/>
	<path fill="#572093" transform="scale(0.407715 0.407715)" d="M728.925 431.941Q732.494 432.031 736.065 432.012Q735.982 439.934 736.009 447.856L727.866 448.035C727.86 443.785 727.618 439.463 727.777 435.225C727.835 433.677 727.801 433.035 728.925 431.941Z"/>
	<path fill="#2F2850" transform="scale(0.407715 0.407715)" d="M704.003 440.981L720.522 440.985L720.516 456.031Q712.261 456.186 704.005 456.1L704.003 440.981Z"/>
	<path fill="#FEFEFE" transform="scale(0.407715 0.407715)" d="M355.644 583.281L355.507 594.042C359.321 594.085 363.199 593.994 366.994 594.364L366.891 632.152C366.874 640.185 365.949 649.697 367.777 657.516C367.88 659.524 368.005 661.53 368.003 663.541Q367.894 695.273 368.187 727.001L353.97 726.998L353.024 726.223L352.789 723.851C352.578 725.327 352.788 725.997 351.589 726.945L349.542 727.071C346.68 726.887 343.769 726.948 340.899 726.918C340.151 723.955 339.265 721.245 338.058 718.437C337.841 705.631 337.947 692.804 337.911 679.996C337.922 677.605 337.778 675.236 337.63 672.851C337.353 662.291 337.48 651.678 337.422 641.113C332.966 640.972 328.508 640.643 324.057 640.382C323.768 629.444 323.334 618.34 324.528 607.444C328.813 607.121 333.118 607.135 337.413 607.084C337.456 604.152 337.788 601.288 338.13 598.38C341.232 597.952 344.309 597.953 347.434 597.93C349.019 597.793 350.964 597.786 352.475 597.284C353.866 596.823 354.44 595.312 355.037 594.103C355.124 590.689 355.03 587.289 354.936 583.876L355.644 583.281Z"/>
	<path fill="#030303" transform="scale(0.407715 0.407715)" d="M337.911 679.996L352.628 679.999C353.452 692.845 353.648 711.011 352.789 723.851C352.578 725.327 352.788 725.997 351.589 726.945L349.542 727.071C346.68 726.887 343.769 726.948 340.899 726.918C340.151 723.955 339.265 721.245 338.058 718.437C337.841 705.631 337.947 692.804 337.911 679.996Z"/>
	<path fill="#A89BC4" transform="scale(0.407715 0.407715)" d="M355.644 583.281L355.507 594.042C359.321 594.085 363.199 593.994 366.994 594.364L366.891 632.152C366.874 640.185 365.949 649.697 367.777 657.516C367.88 659.524 368.005 661.53 368.003 663.541Q360.519 663.139 353.025 663.063L353.012 623.03L336.349 622.981L337.128 616.348C342.175 615.987 347.253 616.044 352.311 616.007C352.457 612.44 353.778 600.821 351.575 598.198L347.434 597.93C349.019 597.793 350.964 597.786 352.475 597.284C353.866 596.823 354.44 595.312 355.037 594.103C355.124 590.689 355.03 587.289 354.936 583.876L355.644 583.281Z"/>
	<path fill="#2F2850" transform="scale(0.407715 0.407715)" d="M344.039 416.032L368.353 416.014L375.997 416.035L375.984 448.002L392.018 447.994L400.011 447.949L399.982 463.999C413.342 464.032 426.692 464.463 440.051 464.426L440.033 480.496C405.411 480.326 370.588 479.051 336 480.775L336.005 463.982C330.701 464.399 325.241 464.829 319.921 464.558L312.404 464.218C311.966 459.493 313.272 453.359 311.708 448.949C311.259 446.285 311.452 443.425 311.789 440.763L313.793 439.762C315.791 439.376 317.936 439.502 319.967 439.486C319.954 437.051 319.932 434.706 320.343 432.294L320.528 431.4C322.311 431.444 323.99 431.629 325.669 430.914C326.79 429.516 326.661 427.644 327.144 425.972L327.343 425.302C329.316 425.528 331.661 426.015 333.482 425C335.855 423.678 334.557 420.286 335.596 418.218C336.276 416.865 336.98 416.803 338.315 416.287C340.182 415.951 342.145 416.047 344.039 416.032Z"/>
	<path fill="#72588D" transform="scale(0.407715 0.407715)" d="M344.039 416.032L368.353 416.014C368.21 421.512 367.971 427.026 368.002 432.525C360.014 432.408 352.025 432.234 344.038 432.46L344.009 448.069L336.019 448.066L336.013 455.459Q328.29 455.687 320.576 456.127C320.4 458.94 320.253 461.757 319.921 464.558L312.404 464.218C311.966 459.493 313.272 453.359 311.708 448.949C311.259 446.285 311.452 443.425 311.789 440.763L313.793 439.762C315.791 439.376 317.936 439.502 319.967 439.486C319.954 437.051 319.932 434.706 320.343 432.294L320.528 431.4C322.311 431.444 323.99 431.629 325.669 430.914C326.79 429.516 326.661 427.644 327.144 425.972L327.343 425.302C329.316 425.528 331.661 426.015 333.482 425C335.855 423.678 334.557 420.286 335.596 418.218C336.276 416.865 336.98 416.803 338.315 416.287C340.182 415.951 342.145 416.047 344.039 416.032Z"/>
	<path fill="#030303" transform="scale(0.407715 0.407715)" d="M313.793 439.762C315.708 439.799 317.913 439.549 319.561 440.641C320.783 442.439 320.247 445.823 320.301 447.982L312 448.304C311.935 445.802 311.954 443.258 311.789 440.763L313.793 439.762Z"/>
	<path fill="#030303" transform="scale(0.407715 0.407715)" d="M338.315 416.287C339.784 416.4 342.805 416.2 343.833 417.152C344.169 422.142 344.035 427.159 344 432.158L335.623 432.001L335.481 440.004L320.463 439.983C320.461 437.457 320.633 434.8 320.343 432.294L320.528 431.4C322.311 431.444 323.99 431.629 325.669 430.914C326.79 429.516 326.661 427.644 327.144 425.972L327.343 425.302C329.316 425.528 331.661 426.015 333.482 425C335.855 423.678 334.557 420.286 335.596 418.218C336.276 416.865 336.98 416.803 338.315 416.287Z"/>
	<path fill="#140E31" transform="scale(0.407715 0.407715)" d="M616.018 512.032C616.466 504.806 616.084 497.468 616.929 490.283C616.981 492.201 616.798 494.425 617.598 496.195C626.64 497.846 639.117 495.697 649.191 496.639C649.634 502.059 650.651 526.992 647.558 530.523C646.654 531.555 644.926 532.151 643.581 532.087C640.739 531.951 637.851 530.081 635.045 531.068C632.933 532.925 632.522 535.606 632.38 538.319C632.273 540.364 632.366 542.44 632.426 544.486C640.444 544.492 648.498 544.349 656.504 544.799C656.485 552.526 656.593 560.283 656.018 567.992L639.996 567.974L640.008 592.006Q632.007 591.87 624.01 591.564L623.999 599.991L607.974 600.009C607.965 602.641 608.177 605.473 607.827 608.076C600.044 607.218 591.832 607.839 584.003 607.989L584 615.394Q532.003 615.845 480.004 615.499L480.003 607.97L447.957 607.991L448.003 583.482Q436.223 583.451 424.458 584.037L423.994 569.941C418.805 569.99 413.699 570.168 408.523 570.582Q408.551 533.339 408.01 496.099Q426.035 496.662 444.065 496.333C447.985 496.358 452.071 495.986 455.959 496.207C462.769 497.557 469.793 495.899 476.657 495.995C475.854 496.15 474.124 496.206 473.669 496.889C471.68 499.869 472.931 508.04 472.499 512.023C464.908 511.849 457.262 511.518 449.673 511.697C443.78 511.835 437.89 512.433 432.001 512.495L431.997 544.028L447.622 543.903Q447.494 555.968 447.683 568.032L472.015 567.992L472.006 591.977C506.594 591.706 541.438 593.105 575.98 591.627L576.022 578.447C578.69 577.632 581.247 576.996 584.005 576.556L584.032 568.04L608.013 568.036C608.002 558.61 608.165 549.152 607.973 539.731C613.06 539.172 618.404 540.021 623.314 539.062C624.525 537.923 624.288 537.32 624.431 535.704C624.708 527.757 624.758 519.958 624.434 512.016L616.018 512.032Z"/>
	<path fill="#2F2850" transform="scale(0.407715 0.407715)" d="M604.453 480.949L617.074 481.029L616.929 490.283C616.084 497.468 616.466 504.806 616.018 512.032L624.434 512.016C624.758 519.958 624.708 527.757 624.431 535.704C624.288 537.32 624.525 537.923 623.314 539.062C618.404 540.021 613.06 539.172 607.973 539.731C608.165 549.152 608.002 558.61 608.013 568.036L584.032 568.04L584.005 576.556C581.247 576.996 578.69 577.632 576.022 578.447L575.98 591.627C541.438 593.105 506.594 591.706 472.006 591.977L472.015 567.992L447.683 568.032Q447.494 555.968 447.622 543.903L431.997 544.028L432.001 512.495C437.89 512.433 443.78 511.835 449.673 511.697C457.262 511.518 464.908 511.849 472.499 512.023C472.931 508.04 471.68 499.869 473.669 496.889C474.124 496.206 475.854 496.15 476.657 495.995C480.414 496.072 484.249 495.998 487.989 496.336L487.932 511.96C517.264 512.231 546.656 511.431 575.977 512.051L576.01 496.708C585.503 496.784 595.011 496.608 604.505 496.551L604.453 480.949Z"/>
	<path fill="#140E31" transform="scale(0.407715 0.407715)" d="M592.597 520.042C596.61 520.075 600.587 520.074 604.593 519.816C604.48 522.621 604.425 525.375 604.54 528.182C600.389 527.893 596.119 528.106 591.955 528.12C592.106 525.428 592.378 522.73 592.597 520.042Z"/>
	<path fill="#140E31" transform="scale(0.407715 0.407715)" d="M487.932 511.96C517.264 512.231 546.656 511.431 575.977 512.051L576.055 512.408C575.808 518.906 575.987 525.463 576.004 531.968L487.955 531.999Q487.875 521.98 487.932 511.96Z"/>
	<path fill="#140E31" transform="scale(0.407715 0.407715)" d="M664.001 624.014C668.052 624.07 672.099 624.202 676.133 623.741C676.984 629.399 676.554 635.62 676.519 641.348C676.44 654.227 675.95 667.141 676.029 680.013L695.557 680.044Q695.421 692.015 695.582 703.986Q684.575 704.093 673.569 703.98C673.168 709.288 672.562 714.66 672.459 719.979L663.958 720.032L663.973 711.892C653.317 711.549 642.668 711.854 632.014 711.675L631.996 719.978L623.478 719.941L623.525 736.914C612.84 737.033 602.15 737.609 591.469 737.577L591.547 751.909L575.991 751.938L575.995 759.991L559.955 759.935L560.006 768.395L512.037 768.497L512.078 759.952L472.013 760.021L472.005 743.919L448.022 744.02L448.024 735.907L415.997 736.025L415.997 719.955L400.007 720.024L400.004 711.915L384.017 712.029L384.002 680.01L392.052 680.026Q391.889 656.481 392.067 632.937C393.305 639.902 392.547 647.928 392.391 654.998C395.616 655.047 398.826 655.029 402.02 655.529L401.999 663.5L409.021 663.607L408.982 656.009L415.74 655.929L415.829 656.386Q423.754 656.557 431.68 656.502L431.589 663.54C433.851 663.563 436.263 663.415 438.482 663.86L439.995 664.06C441.914 664.043 443.871 664.254 445.789 664.372C445.798 666.246 446.099 668.455 445.846 670.286C445.653 671.68 445.02 672.268 444.013 673.147C442.925 673.351 441.864 673.595 440.793 673.87L440.731 674.65C446.882 678.162 475.403 676.862 484.114 676.721L484.096 688.162Q530.01 688.599 575.922 688.048C575.78 685.05 575.88 682.004 575.883 679.001L607.057 679.022L607.041 672.892C612.69 672.6 618.348 672.569 624.003 672.493L623.993 656.464L648.943 656.461C649.686 650.9 649.372 645.578 648.81 640.016C648.264 634.732 648.633 629.29 648.836 623.989L664.001 624.014Z"/>
	<path fill="#2F2850" transform="scale(0.407715 0.407715)" d="M648.943 656.461L657.625 656.236L656.9 663.482L648.118 663.406L647.112 671.429L640.025 671.487L639.984 679.749C634.671 679.859 629.373 680.05 624.07 679.617L624.033 695.985L607.989 695.996L608.006 711.554Q595.971 712.033 583.927 711.995L583.883 719.957C575.992 720.824 567.952 720.562 560.028 720.479L560.015 738.035Q544.009 738.705 527.995 738.234L528.019 719.988Q500.007 719.838 471.995 720.08L472.036 703.42L455.992 703.424L456.008 696.153L443.501 696.02C443.458 690.627 443.66 685.375 444.135 680.006L415.502 680.023C415.43 672.332 414.813 664.006 415.829 656.386Q423.754 656.557 431.68 656.502L431.589 663.54C433.851 663.563 436.263 663.415 438.482 663.86L439.995 664.06C441.914 664.043 443.871 664.254 445.789 664.372C445.798 666.246 446.099 668.455 445.846 670.286C445.653 671.68 445.02 672.268 444.013 673.147C442.925 673.351 441.864 673.595 440.793 673.87L440.731 674.65C446.882 678.162 475.403 676.862 484.114 676.721L484.096 688.162Q530.01 688.599 575.922 688.048C575.78 685.05 575.88 682.004 575.883 679.001L607.057 679.022L607.041 672.892C612.69 672.6 618.348 672.569 624.003 672.493L623.993 656.464L648.943 656.461Z"/>
	<path fill="#9538DD" transform="scale(0.407715 0.407715)" d="M438.482 663.86L439.995 664.06L440.01 673.447L431.625 673.414L431.55 664.018C433.862 664.038 436.172 663.937 438.482 663.86Z"/>
	<path fill="#FEFEFE" transform="scale(0.407715 0.407715)" d="M705.934 223.105C710.608 223.035 715.304 222.868 719.978 222.967C720.03 241.962 720.664 261.068 720.331 280.044L735.872 279.976C735.849 306.407 735.251 333.007 735.986 359.417L720.566 359.402C721.336 372.598 720.962 386.023 720.987 399.249C726.141 399.173 731.317 398.993 736.469 399.116L736.524 415.137Q744.722 414.997 752.921 415.021C752.894 420.348 753.048 425.747 752.624 431.058L768.002 430.994C767.986 436.212 768.071 441.451 767.895 446.665L781.976 446.506L782.018 497.064L760.511 497.048Q760.583 508.506 760.513 519.964L777.053 519.944C777.168 525.048 777.396 530.178 777.309 535.282Q785.147 534.871 792.994 534.977L793.081 551.999L808.992 551.956C809.004 562.622 809.244 573.344 808.822 584.001L824.076 584L824.093 600.025L840.001 600.014C840.037 616.009 839.754 632.073 840.167 648.059L849.872 647.983C849.51 671.986 850.01 696.044 850.023 720.054L840.478 720.119L840.456 752.213C835.186 752.496 829.947 752.574 824.671 752.585C824.712 757.626 824.307 763.091 824.819 768.083C818.936 768.084 813.042 768.02 807.16 768.117Q806.93 760.163 807.01 752.206C801.962 752.162 796.904 752.049 791.857 752.187Q791.493 744.115 791.682 736.036L736.456 736.064C736.52 757.371 736.354 778.714 736.72 800.016L752.686 799.956C752.465 821.174 751.886 842.802 752.875 863.982L744.446 864.032L744.47 871.988L800.012 872.014L800.052 887.605L808.044 887.678C808.051 893.114 807.954 898.579 808.093 904.012L799.973 904.028L799.971 888.141C782.818 888.905 765.598 888.557 748.433 888.533L671.941 888.506C666.614 888.512 661.329 888.48 656.01 888.134L656.005 872.002L648.741 871.999C648.483 874.228 648.515 877.285 646.754 878.91C645.069 880.466 642.347 880.139 640.237 880.106L639.592 879.747C639.292 874.441 639.289 869.207 639.386 863.897L647.933 863.705L647.869 832.309L655.45 831.979L655.469 815.993L670.007 816.006L670.118 848.401L684.499 848.524L684.486 872.003L703.474 871.989C702.263 856.031 702.868 839.974 703.149 823.991L720.003 824.111L720.038 861.114L737.57 861.092C738.627 843.826 738.398 826.271 737.683 808.999L721.02 809.022Q720.896 764.016 721.405 719.013L707.329 719.004C706.733 703.036 707.348 686.917 707.515 670.935C702.188 670.944 696.856 670.717 691.531 670.555C691.04 641.755 691.596 612.933 691.13 584.123C686.064 583.996 680.983 584.045 675.914 584.016L675.972 548.577L688.557 548.603L688.701 563.769L703.363 564.585L703.229 570.99L695.001 571.007L694.965 583.386C700.813 583.425 706.662 583.416 712.505 583.697Q712.333 591.099 712 598.495L723.985 598.589L724.018 614.883L744.497 614.935C744.583 625.945 744.854 636.988 744.584 647.994L728.483 648.013Q728.151 677.508 728.462 707.002L744.533 707.018C744.587 712.972 744.568 718.936 744.91 724.882L760.234 724.853L760.263 705.493L767.493 705.501L767.495 695.997L781.954 696.011C782.634 688.181 782.547 680.326 783.145 672.494L792.487 672.515Q792.584 680.268 793.106 688.004C798.027 687.987 803.203 687.633 808.084 688.25L808.4 688.344C813.206 687.094 819.105 687.829 824.057 688.04L824.066 672.021C824.049 666.834 824.038 661.663 823.754 656.482C823.644 655.308 823.475 654.163 823.287 652.999C822.553 647.542 822.889 641.669 822.899 636.164L822.986 608.138L807.998 608.025C807.921 600.027 808 592.024 808.024 584.025L792.988 584.002L792.994 559.242C788.183 558.99 783.329 559.174 778.512 559.23C778.593 551.398 777.624 543.751 777.387 535.946Q768.46 536.034 759.534 535.946L759.394 520.508C754.453 520.524 749.501 520.621 744.569 520.278L744.097 519.844C742.944 507.074 743.764 493.822 743.945 480.996L766.98 480.999L767.015 447.489Q759.493 447.427 751.972 447.591C751.88 442.237 751.995 436.858 752.015 431.501L736.509 431.488L736.504 415.939C732.464 416.11 725.201 417.491 721.795 415.233C719.683 412.159 720.933 403.692 720.931 399.973L689.985 400.024L689.942 384.927L705.051 384.91L705.068 359.254L705.305 358.645C710.199 358.053 715.25 358.374 720.172 358.459C721.086 350.499 720.192 342.06 720.117 334.034L720.008 287.071L705.993 287.068L705.934 223.105Z"/>
	<path fill="#030303" transform="scale(0.407715 0.407715)" d="M823.754 656.482L838.987 656.589Q839.049 684.814 838.512 713.033C833.749 712.92 828.893 712.644 824.18 713.467C822.081 723.231 822.965 734.426 823.115 744.386C818.321 744.345 813.516 744.232 808.725 744.371L808.659 736.715C803.147 736.063 797.67 735.573 792.112 735.551L792.076 719.757L781.503 720.003L781.603 704.503L791.993 704.507L792.434 712.003L808.483 711.993C808.522 704.121 808.718 696.21 808.4 688.344C813.206 687.094 819.105 687.829 824.057 688.04L824.066 672.021C824.049 666.834 824.038 661.663 823.754 656.482Z"/>
</svg>
