<svg width="1024" height="1024" viewBox="0 0 1024 1024" fill="none" xmlns="http://www.w3.org/2000/svg">
<path d="M248.11 427.526L442.304 273.806C455.471 263.481 468.543 253.036 481.52 242.473C491.479 234.271 501.36 225.38 512.039 218.162C524.386 225.257 537.786 237.539 549.151 246.659L604.5 290.449C643.351 320.954 681.98 351.737 720.387 382.799C739.128 397.695 758.837 411.719 776.998 427.305C776.764 399.675 777.549 372.033 777.237 344.397C770.642 339.38 764.335 333.87 757.914 328.628C747.091 319.821 736.206 311.091 725.261 302.436C709.737 290.269 694.297 277.997 678.94 265.62C673.139 261.02 666.985 256.817 661.329 252.046C659.388 250.409 656.153 247.986 655.201 245.643C655.413 244.673 655.688 243.917 656.273 243.117C658.758 239.711 683.105 219.835 686.427 219.655C689.48 219.488 708.051 235.842 712.159 239.124L781.497 294.623C789.508 300.98 797.61 307.235 805.562 313.662C809.786 317.075 814.313 320.418 818.043 324.378L818.07 460.946L824.412 466.938C834.445 459.736 886.787 414.555 893.268 414.379C894.415 414.348 895.398 414.581 896.262 415.373C897.459 416.472 898.105 417.895 898.103 419.515C898.101 421.203 897.129 422.888 896.012 424.082C889.714 430.82 881.045 436.434 873.842 442.227C860.361 453.164 846.981 464.223 833.703 475.405C842.044 482.769 851.126 489.37 860.032 496.033C864.367 499.276 869.91 502.624 873.502 506.629C874.746 508.017 875.686 509.716 875.376 511.645C875.063 513.592 873.618 515.296 872.268 516.642C868.256 520.643 863.095 523.874 858.604 527.367C851.03 533.357 843.487 539.385 835.975 545.452C850.224 555.885 864.013 567.247 877.807 578.278C883.549 582.87 890.5 587.346 895.625 592.505C895.877 592.761 896.11 593.034 896.323 593.323C896.536 593.613 896.728 593.916 896.898 594.233C897.068 594.55 897.214 594.877 897.337 595.215C897.46 595.553 897.559 595.898 897.632 596.25C897.975 597.855 897.727 599.599 896.74 600.941C895.995 601.955 894.942 602.433 893.727 602.6C891.547 602.899 889.182 601.609 887.404 600.513C880.98 596.552 874.965 590.729 868.98 586.069C854.741 574.864 840.349 563.861 825.803 553.058C823.418 555.172 820.92 557.173 818.465 559.207C817.001 566.01 818.081 574.639 818.032 581.666C817.946 594.112 819.058 686.032 817.529 689.798C810.559 696.943 802.1 702.872 794.199 708.94C785.097 715.939 776.051 723.009 767.062 730.152C749.105 744.236 731.245 758.441 713.481 772.768C704.446 780.026 695.604 787.53 686.425 794.605C678.509 789.466 659.077 774.986 653.989 767.73C659.022 762.317 665.37 757.816 671.148 753.23C680.488 745.805 689.877 738.443 699.314 731.142L777.059 669.398C777.372 644.193 776.694 619.018 776.875 593.833C769.231 598.653 762.214 604.484 755.146 610.098L730.593 629.504L575.359 753.262C556.955 767.873 539.025 783.427 520.224 797.491C518.338 798.902 514.425 802.025 512.088 802.239C508.327 802.584 459.661 761.288 453.807 756.567L306.372 639.011C286.892 623.428 266.783 608.311 247.772 592.179C247.202 601.83 247.56 611.665 247.489 621.339C247.377 636.795 247.045 652.28 247.544 667.73C280.828 696.526 316.026 722.967 350.438 750.363C353.926 753.14 367.234 762.629 367.425 766.831C367.696 772.819 354.233 784.815 349.934 788.974C346.877 791.931 342.451 796.421 337.845 796.073C336.384 795.963 335.653 795.423 334.501 794.559C325.294 787.648 316.597 780.114 307.72 772.796L257.488 731.351C246.988 722.799 236.238 714.558 225.697 706.054C219.194 700.808 212.546 695.738 206.896 689.549C204.799 676.205 206.228 659.97 206.189 646.315L205.847 558.411C203.096 556.481 200.327 554.433 197.875 552.133C187.929 558.594 137.839 601.29 132.573 602.042C131.01 602.266 128.953 601.853 127.763 600.774C126.793 599.894 126.316 598.767 126.388 597.452C126.498 595.414 127.481 593.806 128.824 592.33C135.91 584.549 145.855 578.311 154.189 571.842C165.624 562.827 176.932 553.655 188.112 544.326C178.366 534.195 165.512 526.597 154.796 517.455C152.563 515.551 149.768 512.915 149.841 509.722C149.89 507.541 151.248 505.644 152.661 504.102C156.962 499.407 163.123 495.506 168.164 491.545C175.373 485.881 182.382 479.966 189.59 474.3C182.72 467.565 174.948 461.929 167.413 455.984L142.545 436.032C137.662 432.15 131.917 428.386 127.566 423.939C126.561 422.912 125.649 421.652 125.313 420.231C124.97 418.781 125.354 417.422 126.131 416.198C126.997 414.835 128.157 413.886 129.785 413.612C131.611 413.304 133.471 414.265 134.935 415.221C142.92 420.435 150.365 427.611 157.769 433.661C171.499 444.889 185.486 455.787 199.73 466.354C202.067 464.821 204.162 463.008 206.294 461.209C206.664 450.578 206.395 439.864 206.402 429.222C206.425 393.723 205.456 358.064 206.56 322.594C213.838 314.599 229.73 303.756 238.748 296.932C255.403 284.301 271.977 271.564 288.469 258.721L321.563 232.953C327.524 228.287 333.521 222.738 340.086 218.991C348.046 221.987 357.782 230.8 364.278 236.491C367.476 239.293 371.079 242.506 371.39 246.993C368.495 251.414 296.079 306.25 286.569 313.641C273.72 323.629 261.244 334.224 248.132 343.85C247.334 371.606 247.359 399.764 248.11 427.526ZM511.824 303.934C487.339 322.416 463.461 341.874 439.397 360.915L253.271 509.143L406.041 630.325C429.998 649.791 454.164 668.994 478.539 687.933C489.866 696.907 500.797 706.669 512.493 715.142L770.623 510.303C757.466 497.844 742.169 487.171 728.034 475.812L637.365 403.414L556.631 338.981C541.932 327.227 527.552 314.249 511.824 303.934ZM247.909 521.39C247.175 534.359 247.586 547.503 247.586 560.497C247.586 565.53 248.171 571.562 247.305 576.493C253.945 581.165 260.058 587.097 266.442 592.178L314.29 630.004L428.875 720.988C456.659 743.271 483.903 766.262 512.527 787.477C528.438 776.159 543.258 762.961 558.506 750.758L642.979 683.728L707.406 632.71C730.652 614.653 754.293 596.864 776.361 577.368C777.914 566.249 777.317 554.313 777.18 543.108C777.093 535.978 777.365 528.618 776.511 521.535C769.65 526.52 763.133 532.152 756.473 537.414L722.466 563.913L598.536 662.087C588.512 670.11 519.421 726.434 514.194 728.023C511.753 728.764 510.195 727.82 508.19 726.54C499.851 721.217 492.205 714.432 484.395 708.345C466.445 694.328 448.636 680.134 430.969 665.763L290.766 554.724C282.371 548.083 274.016 541.392 265.699 534.653C260.405 530.368 254.78 524.853 248.709 521.777C248.445 521.643 248.176 521.519 247.909 521.39ZM512.519 232.846C506.641 237.929 500.282 242.584 494.164 247.381L455.543 277.633L335.85 372.767C317.474 387.21 299.191 401.769 281 416.445C270.112 425.261 259.156 435.592 247.161 442.827C248.387 449.8 247.588 457.961 247.58 465.092C247.569 475.166 247.912 485.391 247.485 495.447L247.85 496.1C250.568 496.134 257.37 490.007 259.666 488.265C294.412 461.9 328.269 434.139 362.401 406.974L464.22 326.859C472.254 320.5 505.997 291.292 512.103 289.314C519.872 292.912 531.86 303.885 539.248 309.73C554.063 321.27 568.795 332.916 583.444 344.669L700.46 438.174L745.038 473.855C755.441 482.273 765.645 491.189 776.49 499.018C776.922 480.325 777.097 461.63 777.014 442.933L599.118 301.403L540.119 254.573C530.905 247.284 522.421 239.223 512.519 232.846ZM315.985 253.105C297.629 265.243 280.441 279.498 263.108 293.032C247.823 304.967 232.131 316.357 217.061 328.568L217.182 415.423C217.316 427.655 216.811 440.267 217.68 452.436L225.989 445.349C229.458 442.452 232.872 439.364 236.498 436.67L236.447 371.973C236.416 360.892 235.586 349.349 236.477 338.321C247.28 327.67 260.428 318.718 272.541 309.581C285.094 299.983 297.58 290.299 309.999 280.529C316.515 275.453 323.277 270.594 329.667 265.369C325.29 261.006 320.907 256.864 315.985 253.105ZM217.555 568.167C216.477 582.915 216.993 597.93 216.98 612.715L217.034 682.68C232.801 697.871 250.736 710.899 267.811 724.572C283.602 737.216 298.863 750.596 315.163 762.592L321.437 755.817C323.632 753.438 325.88 751.09 328.005 748.649L262.835 696.026C254.859 689.572 242.91 682.621 236.948 674.53C235.968 643.929 236.591 613.233 236.552 582.617C230.435 577.556 224.389 572.252 217.555 568.167ZM709.516 252.969C705.092 256.329 700.95 259.964 696.844 263.7C716.507 280.105 736.36 296.275 756.404 312.211C766.087 319.965 780.647 329.666 788.368 338.937C788.036 372.076 788.058 405.215 788.434 438.353C792.187 441.004 795.891 443.941 799.323 447.001L806.486 452.632L806.774 367.406C806.816 355.063 806.285 342.544 806.742 330.232C786.137 312.847 764.75 296.304 743.607 279.578L721.544 262.171C717.63 259.094 713.699 255.651 709.516 252.969ZM806.081 568.399C800.126 572.843 794.363 577.651 788.171 581.755C787.4 613.294 788.044 644.993 788.065 676.548C772.081 689.665 755.586 702.311 739.33 715.098C724.77 726.551 710.343 738.283 695.557 749.438C698.12 751.241 700.415 753.314 702.752 755.394C704.733 757.188 706.738 758.96 708.647 760.832C718.521 752.565 728.858 744.909 739.066 737.065C751.986 727.024 764.85 716.912 777.659 706.729C787.567 698.944 797.742 691.341 807.314 683.151C807.81 658.086 807.081 632.963 807.035 607.89L806.996 582.437C806.99 577.944 807.414 573.077 806.652 568.662L806.081 568.399ZM823.262 482.925L818.142 486.511C817.933 501.44 817.876 516.37 817.971 531.301L825.827 538.051L843.189 524.84C848.989 520.444 854.855 516.039 860.282 511.182C854.554 506.391 828.196 484.671 823.262 482.925ZM200.472 481.472C187.971 490.668 176.228 500.817 164.166 510.559C170.854 514.921 176.743 520.261 183.283 524.766L199.043 536.905L205.75 531.781C205.959 516.598 204.998 500.998 205.838 485.873L200.472 481.472ZM235.512 523.036C229.066 527.593 222.593 532.334 216.494 537.342C216.392 542.217 216.37 547.041 216.594 551.917L226.525 560.121C229.73 562.616 233.227 565.017 236.201 567.773C236.452 562.359 237.455 525.29 235.512 523.036ZM788.516 523.381C787.933 537.742 788.227 552.065 788.594 566.425C792.316 563.855 795.756 561.085 799.216 558.181L806.565 551.997L806.572 537.393C800.89 532.214 795.069 527.438 788.516 523.381ZM235.054 453.976C228.884 458.391 222.547 462.918 216.671 467.714C216.567 471.644 216.399 475.587 216.496 479.519C219.883 482.179 223.303 484.798 226.754 487.375C229.981 489.765 233.399 492.07 236.309 494.84C236.438 482.664 237.636 466.139 235.672 454.599L235.054 453.976ZM788.878 453.653C788.227 467.658 788.47 481.765 788.596 495.782L799.206 487.24C801.703 485.22 804.218 483.221 806.749 481.243C806.785 476.874 806.89 472.495 806.821 468.127C800.906 463.161 795.431 457.806 788.878 453.653ZM337.259 756.585C332.524 760.981 327.555 765.187 323.309 770.067C327.434 773.973 333.418 780.425 338.747 782.417L339.333 782.323C343.97 777.8 348.665 773.338 353.418 768.938C348.929 764.136 343.226 759.417 337.259 756.585ZM686.399 756.451L670.734 768.837C673.642 771.213 682.975 779.875 686.309 780.1C691.739 775.928 697.131 771.79 702.221 767.202C697.235 763.639 691.807 759.253 686.399 756.451ZM340.947 232.937C335.293 236.832 330.001 241.288 324.735 245.688C329.431 249.512 334.079 254.114 339.013 257.54C344.373 253.301 349.804 249.129 355.1 244.813C350.615 240.644 346.094 236.287 340.947 232.937ZM685.666 233.831C681.199 237.576 676.762 241.361 672.156 244.935C675.219 247.711 683.181 255.96 686.822 256.458L687.247 256.306C691.771 252.777 696.476 249.35 700.842 245.634C697.21 242.057 690.886 234.968 685.666 233.831ZM217.506 494.952C217.392 504.114 217.4 513.276 217.53 522.437C220.93 519.678 224.37 516.957 227.73 514.149L234.78 508.54C229.294 503.731 223.734 498.783 217.506 494.952ZM805.997 497.425C800.7 501.416 795.496 505.526 790.385 509.755L798.808 516.105C801.316 518.12 803.8 520.19 806.395 522.092C807.074 515.557 808.15 504.082 806.445 497.835L805.997 497.425ZM817.529 689.798C819.058 686.032 817.946 594.112 818.032 581.666C818.081 574.639 817.001 566.01 818.465 559.207L817.421 559.418C815.514 564.719 815.723 683.767 817.529 689.798ZM247.305 576.493C248.171 571.562 247.586 565.53 247.586 560.497C247.586 547.503 247.175 534.359 247.909 521.39C246.963 522.639 246.737 522.981 246.572 524.523C245.682 532.859 246.516 542.053 246.481 550.499C246.45 557.989 245.466 566.472 246.374 573.854C246.495 574.836 246.868 575.619 247.305 576.493ZM247.485 495.447C247.912 485.391 247.569 475.166 247.58 465.092C247.588 457.961 248.387 449.8 247.161 442.827L246.612 443.01C245.814 451.575 246.543 460.57 246.526 469.186C246.511 476.891 245.655 485.418 246.61 493.02C246.722 493.912 247.054 494.666 247.485 495.447Z" fill="url(#paint0_linear_40_86)"/>
<path d="M247.485 495.447C247.054 494.666 246.722 493.912 246.61 493.02C245.655 485.418 246.511 476.891 246.526 469.186C246.543 460.57 245.814 451.575 246.612 443.01L247.161 442.827C248.387 449.8 247.588 457.961 247.58 465.092C247.569 475.166 247.912 485.391 247.485 495.447Z" fill="url(#paint1_linear_40_86)"/>
<path d="M247.305 576.493C246.868 575.619 246.495 574.836 246.374 573.854C245.466 566.472 246.45 557.989 246.481 550.499C246.516 542.053 245.682 532.859 246.572 524.523C246.737 522.981 246.963 522.639 247.909 521.39C247.175 534.359 247.586 547.503 247.586 560.497C247.586 565.53 248.171 571.562 247.305 576.493Z" fill="url(#paint2_linear_40_86)"/>
<path d="M817.529 689.798C815.723 683.767 815.514 564.719 817.421 559.418L818.465 559.207C817.001 566.01 818.081 574.639 818.032 581.666C817.946 594.112 819.058 686.032 817.529 689.798Z" fill="url(#paint3_linear_40_86)"/>
<path d="M670.838 519.939C671.117 519.947 671.396 519.95 671.674 519.963C671.937 519.976 672.198 520.002 672.457 520.043C672.716 520.084 672.973 520.138 673.227 520.207C673.48 520.276 673.729 520.358 673.974 520.454C674.219 520.55 674.457 520.659 674.69 520.78C674.923 520.902 675.148 521.036 675.367 521.182C675.585 521.329 675.795 521.486 675.996 521.655C676.197 521.824 676.388 522.004 676.57 522.194C676.751 522.383 676.922 522.582 677.082 522.791C677.956 523.907 678.402 525.366 678.069 526.775C677.6 528.764 675.305 530.582 673.849 531.921C661.415 543.356 647.254 553.696 634.102 564.34C627.075 570.026 608.374 586.562 601.285 589.917C600.519 589.855 599.727 589.796 598.98 589.609C597.301 589.189 595.641 587.734 594.904 586.186C594.321 584.96 594.245 583.46 594.683 582.178C595.401 580.082 597.492 578.408 599.098 576.966C610.977 566.295 624.127 556.812 636.544 546.77C645.839 539.253 661.384 525.092 670.838 519.939Z" fill="url(#paint4_linear_40_86)"/>
<path d="M598.085 428.87C598.398 428.896 598.711 428.915 599.023 428.949C600.513 429.111 601.576 429.629 602.804 430.469C613.154 437.544 622.786 446.398 632.58 454.256L659.021 475.369C664.88 480.042 672.984 485.243 677.374 491.371C678.311 492.679 678.615 494.518 678.14 496.069C677.49 498.191 675.976 498.956 674.145 499.898C672.311 499.692 670.01 499.668 668.37 498.753C662.493 495.472 656.582 490.041 651.41 485.731L626.807 465.211C616.934 457.112 605.111 449.491 596.537 440.073C595 438.384 593.569 436.398 593.934 433.961C594.319 431.387 596.081 430.192 598.085 428.87Z" fill="url(#paint5_linear_40_86)"/>
<path d="M423.005 429.444C423.29 429.438 423.574 429.424 423.859 429.427C426.118 429.45 428.57 430.387 430.12 432.065C431.25 433.288 431.577 434.644 431.414 436.27C431.292 437.497 430.613 438.693 429.796 439.582C421.998 448.072 411.275 454.906 402.181 462.037C386.17 474.593 370.507 487.518 353.991 499.424C353.354 499.612 352.711 499.767 352.041 499.779C350.184 499.81 348.139 498.823 346.791 497.578C345.845 496.705 345.192 495.553 345.262 494.23C345.388 491.856 347.797 489.762 349.426 488.236C357.62 480.559 367.226 474.013 376.075 467.094C391.879 454.744 407.522 442.194 423.005 429.444Z" fill="url(#paint6_linear_40_86)"/>
<path d="M349.316 519.526C349.54 519.512 349.763 519.49 349.988 519.483C351.659 519.434 353.646 519.457 355.105 520.366C364.286 526.084 375.387 536.472 384.114 543.419L412.324 565.783C417.272 569.72 422.523 573.542 427.192 577.803C428.893 579.356 431.423 581.385 431.167 583.922C430.88 586.768 428.57 588.371 426.481 589.966C425.662 590.021 424.811 590.076 423.995 589.964C422.248 589.725 420.472 588.562 419.084 587.54C408.774 579.949 399.337 571.078 389.378 563.028C380.897 556.173 350.374 534.148 345.998 527.89C345.17 526.707 345.043 524.651 345.502 523.293C346.161 521.348 347.634 520.464 349.316 519.526Z" fill="url(#paint7_linear_40_86)"/>
<path d="M556.094 387.399C558.017 387.737 561.707 388.524 562.818 390.308C563.975 392.169 563.251 395.557 562.755 397.504C560.432 406.63 555.452 415.649 551.763 424.334L530.012 476.063L493.185 564.45C486.37 580.861 480.01 597.743 472.361 613.772C470.798 617.046 469.533 619.89 466.336 621.844C464.2 621.69 461.907 621.809 460.329 620.119C458.947 618.639 458.802 616.432 459.08 614.522C460.069 607.722 465.017 599.784 467.785 593.489L480.91 563.07L527.972 450.126L542.927 413.745C545.882 406.402 548.455 398.549 552.03 391.509C552.984 389.631 554.417 388.62 556.094 387.399Z" fill="url(#paint8_linear_40_86)"/>
<defs>
<linearGradient id="paint0_linear_40_86" x1="511.645" y1="218.162" x2="511.645" y2="802.241" gradientUnits="userSpaceOnUse">
<stop stop-color="#F39C12"/>
<stop offset="1" stop-color="#E88EED"/>
</linearGradient>
<linearGradient id="paint1_linear_40_86" x1="247.001" y1="442.827" x2="247.001" y2="495.447" gradientUnits="userSpaceOnUse">
<stop stop-color="#F39C12"/>
<stop offset="1" stop-color="#E88EED"/>
</linearGradient>
<linearGradient id="paint2_linear_40_86" x1="246.95" y1="521.39" x2="246.95" y2="576.493" gradientUnits="userSpaceOnUse">
<stop stop-color="#F39C12"/>
<stop offset="1" stop-color="#E88EED"/>
</linearGradient>
<linearGradient id="paint3_linear_40_86" x1="817.273" y1="559.207" x2="817.273" y2="689.798" gradientUnits="userSpaceOnUse">
<stop stop-color="#F39C12"/>
<stop offset="1" stop-color="#E88EED"/>
</linearGradient>
<linearGradient id="paint4_linear_40_86" x1="636.291" y1="519.939" x2="636.291" y2="589.917" gradientUnits="userSpaceOnUse">
<stop stop-color="#F39C12"/>
<stop offset="1" stop-color="#E88EED"/>
</linearGradient>
<linearGradient id="paint5_linear_40_86" x1="636.119" y1="428.87" x2="636.119" y2="499.898" gradientUnits="userSpaceOnUse">
<stop stop-color="#F39C12"/>
<stop offset="1" stop-color="#E88EED"/>
</linearGradient>
<linearGradient id="paint6_linear_40_86" x1="388.355" y1="429.427" x2="388.355" y2="499.78" gradientUnits="userSpaceOnUse">
<stop stop-color="#F39C12"/>
<stop offset="1" stop-color="#E88EED"/>
</linearGradient>
<linearGradient id="paint7_linear_40_86" x1="388.212" y1="519.468" x2="388.212" y2="590.029" gradientUnits="userSpaceOnUse">
<stop stop-color="#F39C12"/>
<stop offset="1" stop-color="#E88EED"/>
</linearGradient>
<linearGradient id="paint8_linear_40_86" x1="511.201" y1="387.399" x2="511.201" y2="621.844" gradientUnits="userSpaceOnUse">
<stop stop-color="#F39C12"/>
<stop offset="1" stop-color="#E88EED"/>
</linearGradient>
</defs>
</svg>
