<?xml version="1.0" encoding="utf-8" ?>
<svg xmlns="http://www.w3.org/2000/svg" xmlns:xlink="http://www.w3.org/1999/xlink" width="171" height="171">
	<path fill="#FEFEF5" transform="scale(0.167014 0.167014)" d="M507.109 173.732C513.525 174.29 519.99 173.669 526.414 174.007L529.057 178.059C523.436 179.042 517.58 178.453 511.937 178.002C511.685 177.935 511.43 177.88 511.182 177.802C508.802 177.05 508.236 175.827 507.109 173.732Z"/>
	<path fill="#FEFEF5" transform="scale(0.167014 0.167014)" d="M192.016 493.227C197.206 493.029 202.438 492.888 207.62 493.262C210.344 494.223 211.873 495.151 213.508 497.544C208.777 498.649 203.121 498.047 198.278 497.891C196.749 497.491 195.204 497.752 193.701 497.434C192.347 497.148 192.301 496.81 191.717 495.681L192.016 493.227Z"/>
	<path fill="#FEFA51" transform="scale(0.167014 0.167014)" d="M297.994 385.007L306.424 385.017C306.005 386.592 305.58 387.702 304.667 389.058C304.219 388.361 303.902 388.435 303.141 388.18C301.408 391.793 302.053 397.394 302.385 401.325C300.992 403.095 300.215 404.796 298.064 405.69L297.645 405.214C298.95 400.501 298.047 390.254 297.994 385.007Z"/>
	<path fill="#FEFA51" transform="scale(0.167014 0.167014)" d="M252.57 428.39Q262.779 428.266 272.986 428.539C268.108 430.537 261.149 430.902 255.913 431.495C255.93 436.731 255.297 442.913 256.436 448.017C255.228 448.332 254.08 448.271 252.845 448.244C252.545 441.653 252.65 434.991 252.57 428.39Z"/>
	<path fill="#FEFA51" transform="scale(0.167014 0.167014)" d="M186.974 513.178C186.84 507.038 186.045 499.963 186.967 493.933C188.189 493.064 190.517 493.279 192.016 493.227L191.717 495.681C191.441 496.282 191.147 496.537 191.318 497.193C192.128 500.306 193.486 510.088 191.556 512.632C191.101 513.233 190.594 513.654 189.844 513.667C188.817 513.686 187.961 513.428 186.974 513.178Z"/>
	<path fill="#FEFA51" transform="scale(0.167014 0.167014)" d="M379.997 320.172C379.989 314.156 379.321 307.314 380.294 301.429C381.597 300.511 382.399 300.692 383.968 300.63C384.053 302.55 384.264 304.288 385.129 306.036C386.41 311.032 385.801 315.583 385.32 320.652L379.997 320.172Z"/>
	<path fill="#FEFA51" transform="scale(0.167014 0.167014)" d="M168.979 513.445L178.014 513.074C176.757 514.82 175.372 516.379 173.932 517.971C171.703 523.038 173.373 532.32 172.5 538.186C171.027 537.031 169.812 536.118 168.864 534.483C169.187 527.498 168.992 520.44 168.979 513.445Z"/>
	<path fill="#FEFDBB" transform="scale(0.167014 0.167014)" d="M191.717 495.681C192.301 496.81 192.347 497.148 193.701 497.434C195.204 497.752 196.749 497.491 198.278 497.891C196.79 497.903 195.038 497.685 193.691 498.388C193.685 504.94 193.819 511.462 193.389 518.005L173.932 517.971C175.372 516.379 176.757 514.82 178.014 513.074C180.929 513.063 184.092 512.828 186.974 513.178C187.961 513.428 188.817 513.686 189.844 513.667C190.594 513.654 191.101 513.233 191.556 512.632C193.486 510.088 192.128 500.306 191.318 497.193C191.147 496.537 191.441 496.282 191.717 495.681Z"/>
	<path fill="#FEFA51" transform="scale(0.167014 0.167014)" d="M506.453 195.564C506.262 191.104 504.826 176.814 507.109 173.732C508.236 175.827 508.802 177.05 511.182 177.802C511.43 177.88 511.685 177.935 511.937 178.002C512.027 183.985 512.248 190.019 511.683 195.985C509.888 196.038 508.155 196.241 506.453 195.564Z"/>
	<path fill="#FEFA51" transform="scale(0.167014 0.167014)" d="M209.451 471.495L217.564 471.539C216.755 472.627 215.389 474.064 215.115 475.363C214.006 477.281 214.152 492.455 213.621 496.251C213.561 496.68 213.538 497.113 213.508 497.544C211.873 495.151 210.344 494.223 207.62 493.262C208.69 493.193 208.21 493.373 209.061 492.726C209.68 485.667 209.5 478.572 209.451 471.495Z"/>
	<path fill="#FEFA51" transform="scale(0.167014 0.167014)" d="M336.58 340.472L345.772 340.472C344.738 342.223 343.844 343.662 342.344 345.047C340.596 349.094 341.098 360.243 341.583 364.778L336.784 364.065C336.438 356.239 336.635 348.311 336.58 340.472Z"/>
	<path fill="#FEFA51" transform="scale(0.167014 0.167014)" d="M465.03 214.408Q471.03 214.385 477.028 214.541C474.622 215.782 472.858 216.614 471.322 218.967C468.367 224.353 470.764 233.213 469.882 239.406C469.86 239.559 469.844 239.714 469.825 239.867L465.303 238.117C464.282 230.584 465.023 222.05 465.03 214.408Z"/>
	<path fill="#FEFA51" transform="scale(0.167014 0.167014)" d="M274.085 405.061L284.608 405.02C283.368 406.756 282.107 408.055 280.469 409.419C278.778 412.794 278.883 426.839 279.827 430.446C277.813 429.72 275.675 429.772 273.842 428.574C275.12 421.391 274.156 412.437 274.085 405.061Z"/>
	<path fill="#FEFA51" transform="scale(0.167014 0.167014)" d="M128.053 557.06L134.363 557.014C133.431 558.655 132.67 560.033 132.269 561.886C133.305 573.877 131.369 585.906 132.137 597.037C130.808 595.731 129.44 594.483 128.046 593.245L128.053 557.06Z"/>
	<path fill="#FEFA51" transform="scale(0.167014 0.167014)" d="M526.035 148.611L542.063 148.609C542.007 150.124 541.983 151.533 541.553 153.002L530.576 153.046C530.644 157.737 531.753 175.032 529.057 178.059L526.414 174.007C525.347 165.803 525.991 156.902 526.035 148.611Z"/>
	<path fill="#188D08" transform="scale(0.167014 0.167014)" d="M875.192 213.138C882.478 213.663 889.806 213.508 897.107 213.481C897.193 224.154 897.632 234.915 897.206 245.578C897.08 241.731 897.172 237.855 897.167 234.005C889.926 234.083 882.525 235.171 875.396 233.437C875.511 226.779 875.942 219.75 875.192 213.138Z"/>
	<path fill="#CB2A01" transform="scale(0.167014 0.167014)" d="M788.621 115.667C804.711 114.995 820.88 115.367 836.982 115.481L836.966 130.515C835.348 130.243 833.699 130.163 832.063 130.036L788.843 130.066L788.621 115.667Z"/>
	<path fill="#8D201D" transform="scale(0.167014 0.167014)" d="M853.74 150.004L874.928 149.896Q874.619 169.907 874.669 189.92C874.686 197.576 874.379 205.533 875.192 213.138C872.576 212.621 869.837 212.693 867.177 212.617C862.711 212.214 858.053 212.527 853.566 212.575L853.74 150.004Z"/>
	<path fill="#FEC147" transform="scale(0.167014 0.167014)" d="M102.965 598.429C111.352 598.266 119.743 598.035 128.13 597.965C127.401 613.543 127.888 629.183 127.933 644.776C127.97 657.426 127.491 670.292 128.068 682.916C127.81 696.154 127.613 709.288 128.15 722.522C120.179 722.538 111.985 722.179 104.05 722.882Q103.946 702.876 104.062 682.871Q93.9466 683.025 83.83 683.053C83.0194 666.813 83.8343 650.36 83.6379 634.081L103.33 634.033C102.549 622.293 103.006 610.208 102.965 598.429Z"/>
	<path fill="#FEC147" transform="scale(0.167014 0.167014)" d="M658.536 82.126L721.887 82.1466C721.272 88.6856 720.435 101.836 722.079 107.974L721.57 109.472C714.252 111.899 669.809 109.363 659.007 109.482L659.049 130.007L639.125 130.024C639.136 136.603 639.216 143.189 639.146 149.768C623.739 149.341 608.327 149.497 592.918 149.336C592.628 157.211 592.179 165.135 592.961 172.995C580.96 173.068 568.938 173 556.94 173.26C556.951 180.336 556.854 187.431 556.998 194.506C549.652 194.29 542.352 194.208 535.005 194.425L535.025 215.993Q524.524 215.722 514.02 215.745L514.01 237.536C507.343 237.458 500.613 237.202 493.952 237.452L494.008 258.552C486.372 258.283 478.655 257.819 471.022 258.205L471.112 280.511L450.041 280.52L450.172 302.516C443.774 302.504 437.367 302.42 430.97 302.487C430.972 309.501 430.907 316.521 430.991 323.534C423.158 323.517 415.315 323.423 407.482 323.511L407.477 343.724Q396.75 343.434 386.02 343.52L386.163 365.509L365.493 365.523L365.496 386.762L343.017 386.917L343.038 408.301Q332.742 407.938 322.44 408.024L322.483 430.002L301.003 430.024L301.023 452.008C293.699 452.014 286.322 451.843 279.006 452.151L279.158 472.473Q268.379 472.128 257.595 472.027L257.709 493.992L237.042 494.019L237.108 514.254Q226.281 514.063 215.453 514.018C215.426 521.356 215.407 528.682 215.066 536.013L194.022 535.95L194.032 557.008L172.486 557.032C172.462 564.023 172.521 571.026 172.388 578.015L150.467 578.025L150.452 597.458C146.368 597.495 135.493 598.532 132.137 597.037C131.369 585.906 133.305 573.877 132.269 561.886C132.67 560.033 133.431 558.655 134.363 557.014C138.737 557.01 143.251 556.776 147.599 557.26C149.032 550.252 148.06 541.287 148.006 534.039L160.759 534.076C163.452 534.051 166.236 533.831 168.864 534.483C169.812 536.118 171.027 537.031 172.5 538.186C173.373 532.32 171.703 523.038 173.932 517.971L193.389 518.005C193.819 511.462 193.685 504.94 193.691 498.388C195.038 497.685 196.79 497.903 198.278 497.891C203.121 498.047 208.777 498.649 213.508 497.544C213.538 497.113 213.561 496.68 213.621 496.251C214.152 492.455 214.006 477.281 215.115 475.363C215.389 474.064 216.755 472.627 217.564 471.539C222.652 471.513 227.834 471.282 232.905 471.704C232.826 464.537 231.725 455.445 233.302 448.472C235.036 447.766 237.104 448.014 238.95 448.04C243.549 448.002 248.271 447.742 252.845 448.244C254.08 448.271 255.228 448.332 256.436 448.017C255.297 442.913 255.93 436.731 255.913 431.495C261.149 430.902 268.108 430.537 272.986 428.539L273.842 428.574C275.675 429.772 277.813 429.72 279.827 430.446C278.883 426.839 278.778 412.794 280.469 409.419C282.107 408.055 283.368 406.756 284.608 405.02C288.926 405.006 293.347 404.798 297.645 405.214L298.064 405.69C300.215 404.796 300.992 403.095 302.385 401.325C302.053 397.394 301.408 391.793 303.141 388.18C303.902 388.435 304.219 388.361 304.667 389.058C305.58 387.702 306.005 386.592 306.424 385.017C309.548 385.017 312.892 384.801 315.983 385.178L316.03 363.838L331.155 364.038C333.025 364.019 334.918 363.93 336.784 364.065L341.583 364.778C341.098 360.243 340.596 349.094 342.344 345.047C343.844 343.662 344.738 342.223 345.772 340.472C350.817 340.456 355.932 340.266 360.965 340.642C361.262 336.169 360.051 323.209 361.69 320.102L365.972 319.954C370.595 319.968 375.404 319.703 379.997 320.172L385.32 320.652C385.801 315.583 386.41 311.032 385.129 306.036C384.264 304.288 384.053 302.55 383.968 300.63C389.223 300.56 395.996 299.737 401.055 301.133L401.027 276.13C404.214 276.113 407.408 276.276 410.593 276.39C415.419 276.375 420.251 276.301 425.073 276.509C425.059 272.288 423.815 259.671 425.703 256.566C426.129 255.865 427.119 255.942 427.866 255.792C432.362 256.249 437.006 255.593 441.44 256.191C441.431 251.289 441.354 246.427 441.069 241.531C441.059 240.388 441.112 239.464 441.397 238.355C443.975 236.542 461.335 237.77 465.303 238.117L469.825 239.867C469.844 239.714 469.86 239.559 469.882 239.406C470.764 233.213 468.367 224.353 471.322 218.967C472.858 216.614 474.622 215.782 477.028 214.541C480.671 214.484 484.983 214.009 488.498 215.099C488.607 208.727 487.868 201.842 488.789 195.562C490.143 194.763 491.476 195.006 493.032 194.98C497.238 194.976 502.412 194.418 506.453 195.564C508.155 196.241 509.888 196.038 511.683 195.985C512.248 190.019 512.027 183.985 511.937 178.002C517.58 178.453 523.436 179.042 529.057 178.059C531.753 175.032 530.644 157.737 530.576 153.046L541.553 153.002C541.983 151.533 542.007 150.124 542.063 148.609L552.17 148.611C552.03 143.083 552.205 137.586 551.98 132.046L566.969 132.025Q566.612 124.979 566.52 117.924C584.785 117.023 603.253 117.5 621.543 117.487L621.457 101.055C633.806 100.937 646.308 100.658 658.639 101.369L658.536 82.126Z"/>
	<path fill="#FEFDBB" transform="scale(0.167014 0.167014)" d="M362.002 341.781C363.313 342.345 364.645 342.869 365.897 343.554C365.127 344.793 364.753 345.122 363.282 345.397C361.138 345.796 358.545 345.324 356.38 345.087C358.158 343.57 359.858 342.694 362.002 341.781Z"/>
	<path fill="#FEFE83" transform="scale(0.167014 0.167014)" d="M298.064 405.69C300.215 404.796 300.992 403.095 302.385 401.325C302.565 403.655 303.143 406.413 302.172 408.59C300.754 409.683 299.851 409.595 298.086 409.613L298.064 405.69Z"/>
	<path fill="#FEFE83" transform="scale(0.167014 0.167014)" d="M542.063 148.609L552.17 148.611C552.024 150.093 552.227 151.461 550.922 152.47C548.814 154.099 544.061 153.188 541.553 153.002C541.983 151.533 542.007 150.124 542.063 148.609Z"/>
	<path fill="#FEFDBB" transform="scale(0.167014 0.167014)" d="M331.155 364.038C333.025 364.019 334.918 363.93 336.784 364.065L341.583 364.778C341.404 365.535 341.332 366.901 340.657 367.33C337.473 369.357 325.493 368.538 321.579 367.507C323.412 365.071 328.295 366.386 331.155 364.038Z"/>
	<path fill="#FEFDBB" transform="scale(0.167014 0.167014)" d="M284.608 405.02C288.926 405.006 293.347 404.798 297.645 405.214L298.064 405.69L298.086 409.613Q289.275 409.752 280.469 409.419C282.107 408.055 283.368 406.756 284.608 405.02Z"/>
	<path fill="#FEFDBB" transform="scale(0.167014 0.167014)" d="M315.983 385.178C317.685 385.555 318.492 385.504 319.724 386.779C320.018 387.899 320.242 389.105 320.688 390.171C316.781 389.716 312.695 390.372 308.764 390.272C307.068 390.229 305.874 390.276 304.667 389.058C305.58 387.702 306.005 386.592 306.424 385.017C309.548 385.017 312.892 384.801 315.983 385.178Z"/>
	<path fill="#FEFE83" transform="scale(0.167014 0.167014)" d="M345.772 340.472C350.817 340.456 355.932 340.266 360.965 340.642L362.002 341.781C359.858 342.694 358.158 343.57 356.38 345.087C351.758 345.482 346.982 345.142 342.344 345.047C343.844 343.662 344.738 342.223 345.772 340.472Z"/>
	<path fill="#FEFEF5" transform="scale(0.167014 0.167014)" d="M365.972 319.954C370.595 319.968 375.404 319.703 379.997 320.172L385.32 320.652C384.966 322.048 385.056 323.128 383.633 323.824C380.425 325.393 374.205 324.442 370.692 324.336C369.432 324.243 368.186 324.114 366.932 323.969C365.814 322.701 366.075 321.611 365.972 319.954Z"/>
	<path fill="#FEFEF5" transform="scale(0.167014 0.167014)" d="M160.759 534.076C163.452 534.051 166.236 533.831 168.864 534.483C169.812 536.118 171.027 537.031 172.5 538.186C165.88 539.547 158.888 538.512 152.182 538.549C151.734 538.029 151.525 537.582 151.232 536.967L151.759 536.081C154.528 534.798 157.763 534.555 160.759 534.076Z"/>
	<path fill="#FEFDBB" transform="scale(0.167014 0.167014)" d="M217.564 471.539C222.652 471.513 227.834 471.282 232.905 471.704C234.664 472.424 236.344 472.934 237.599 474.426C232.325 477.665 221.072 475.73 215.115 475.363C215.389 474.064 216.755 472.627 217.564 471.539Z"/>
	<path fill="#FEFDBB" transform="scale(0.167014 0.167014)" d="M134.363 557.014C138.737 557.01 143.251 556.776 147.599 557.26C148.851 557.711 150.095 558.157 151.373 558.528C150.845 560.112 150.931 560.775 149.253 561.505C145.007 563.35 136.956 561.99 132.269 561.886C132.67 560.033 133.431 558.655 134.363 557.014Z"/>
	<path fill="#FEFEF5" transform="scale(0.167014 0.167014)" d="M477.028 214.541C480.671 214.484 484.983 214.009 488.498 215.099C489.922 216.163 491.446 217.194 492.733 218.421C488.128 220.88 476.565 219.817 471.322 218.967C472.858 216.614 474.622 215.782 477.028 214.541Z"/>
	<path fill="#FEFEF5" transform="scale(0.167014 0.167014)" d="M256.436 448.017L257.2 447.947C257.818 449.405 257.676 450.945 257.675 452.499L237.933 452.486C238.117 450.994 238.581 449.499 238.95 448.04C243.549 448.002 248.271 447.742 252.845 448.244C254.08 448.271 255.228 448.332 256.436 448.017Z"/>
	<path fill="#FEFEF5" transform="scale(0.167014 0.167014)" d="M493.032 194.98C497.238 194.976 502.412 194.418 506.453 195.564C508.155 196.241 509.888 196.038 511.683 195.985C511.867 197.388 512.061 197.833 511.444 199.141C507.639 201.705 497.724 199.962 493.015 200.029L493.032 194.98Z"/>
	<path fill="#FEFEF5" transform="scale(0.167014 0.167014)" d="M427.866 255.792C432.362 256.249 437.006 255.593 441.44 256.191C443.549 256.488 445.683 256.726 447.772 257.138C447.875 258.712 448.092 259.019 447.15 260.345C442.399 262.872 436.007 260.775 430.812 261.293C430.158 261.122 429.532 260.826 428.904 260.573C427.72 259.191 427.922 257.516 427.866 255.792Z"/>
	<path fill="#FEFA51" transform="scale(0.167014 0.167014)" d="M441.069 241.531C443.373 241.778 445.731 241.931 448.018 242.286C448.14 247.283 448.091 252.144 447.772 257.138C445.683 256.726 443.549 256.488 441.44 256.191C441.431 251.289 441.354 246.427 441.069 241.531Z"/>
	<path fill="#FEFA51" transform="scale(0.167014 0.167014)" d="M488.498 215.099C488.607 208.727 487.868 201.842 488.789 195.562C490.143 194.763 491.476 195.006 493.032 194.98L493.015 200.029C493.175 206.204 493.323 212.26 492.733 218.421C491.446 217.194 489.922 216.163 488.498 215.099Z"/>
	<path fill="#FEFEF5" transform="scale(0.167014 0.167014)" d="M410.593 276.39C415.419 276.375 420.251 276.301 425.073 276.509C426.951 277.5 428.313 278.579 429.829 280.062C422.338 282.664 414.436 281.192 406.684 281.573C405.666 280.597 405.071 279.925 405.034 278.486C406.419 277.122 408.754 276.851 410.593 276.39Z"/>
	<path fill="#FEFDBB" transform="scale(0.167014 0.167014)" d="M272.986 428.539L273.842 428.574C275.675 429.772 277.813 429.72 279.827 430.446C279.654 431.21 279.689 432.184 278.998 432.656C276.175 434.589 261.766 433.65 257.935 433.223C258.062 439.266 258.919 446.587 257.675 452.499C257.676 450.945 257.818 449.405 257.2 447.947L256.436 448.017C255.297 442.913 255.93 436.731 255.913 431.495C261.149 430.902 268.108 430.537 272.986 428.539Z"/>
	<path fill="#FEFA51" transform="scale(0.167014 0.167014)" d="M360.965 340.642C361.262 336.169 360.051 323.209 361.69 320.102L365.972 319.954C366.075 321.611 365.814 322.701 366.932 323.969C368.186 324.114 369.432 324.243 370.692 324.336C369.234 324.334 367.485 324.069 366.226 324.902C366.288 331.133 366.421 337.338 365.897 343.554C364.645 342.869 363.313 342.345 362.002 341.781L360.965 340.642Z"/>
	<path fill="#FEFA51" transform="scale(0.167014 0.167014)" d="M148.006 534.039L160.759 534.076C157.763 534.555 154.528 534.798 151.759 536.081L151.232 536.967C151.525 537.582 151.734 538.029 152.182 538.549C152.829 544.502 154.51 553.17 151.373 558.528C150.095 558.157 148.851 557.711 147.599 557.26C149.032 550.252 148.06 541.287 148.006 534.039Z"/>
	<path fill="#FEFEF5" transform="scale(0.167014 0.167014)" d="M383.968 300.63C389.223 300.56 395.996 299.737 401.055 301.133C403.071 301.534 404.952 301.633 407.005 301.67C406.917 303.316 407.137 304.002 406.041 305.276C399.817 307.863 391.739 305.864 385.129 306.036C384.264 304.288 384.053 302.55 383.968 300.63Z"/>
	<path fill="#FEFA51" transform="scale(0.167014 0.167014)" d="M232.905 471.704C232.826 464.537 231.725 455.445 233.302 448.472C235.036 447.766 237.104 448.014 238.95 448.04C238.581 449.499 238.117 450.994 237.933 452.486C237.888 457.643 236.686 470.305 237.599 474.426C236.344 472.934 234.664 472.424 232.905 471.704Z"/>
	<path fill="#FEFA51" transform="scale(0.167014 0.167014)" d="M425.073 276.509C425.059 272.288 423.815 259.671 425.703 256.566C426.129 255.865 427.119 255.942 427.866 255.792C427.922 257.516 427.72 259.191 428.904 260.573C429.532 260.826 430.158 261.122 430.812 261.293C431.2 265.138 432.562 276.603 430.477 279.845L429.829 280.062C428.313 278.579 426.951 277.5 425.073 276.509Z"/>
	<path fill="#FEFEF5" transform="scale(0.167014 0.167014)" d="M441.069 241.531C441.059 240.388 441.112 239.464 441.397 238.355C443.975 236.542 461.335 237.77 465.303 238.117L469.825 239.867C469.742 240.591 469.921 241.266 469.249 241.696C466.083 243.722 452.105 242.619 448.018 242.286C445.731 241.931 443.373 241.778 441.069 241.531Z"/>
	<path fill="#FEFA51" transform="scale(0.167014 0.167014)" d="M401.027 276.13C404.214 276.113 407.408 276.276 410.593 276.39C408.754 276.851 406.419 277.122 405.034 278.486C405.071 279.925 405.666 280.597 406.684 281.573C407.428 288.363 407.114 294.869 407.005 301.67C404.952 301.633 403.071 301.534 401.055 301.133L401.027 276.13Z"/>
	<path fill="#FEFA51" transform="scale(0.167014 0.167014)" d="M316.03 363.838L331.155 364.038C328.295 366.386 323.412 365.071 321.579 367.507C322.182 372.192 323.734 386.031 320.911 389.909C320.844 390.002 320.763 390.084 320.688 390.171C320.242 389.105 320.018 387.899 319.724 386.779C318.492 385.504 317.685 385.555 315.983 385.178L316.03 363.838Z"/>
	<path fill="#2365B5" transform="scale(0.167014 0.167014)" d="M926.479 261.395C930.648 261.365 934.829 261.266 938.997 261.4Q939.016 301.448 939.47 341.494L959.898 341.5C959.921 376.666 959.499 411.877 959.959 447.035Q948.945 446.827 937.931 447.004L937.975 491.969Q927.938 491.751 917.899 491.857C917.865 505.842 917.716 519.851 917.961 533.834Q907.452 533.423 896.944 533.838L896.981 554.487L874.965 554.44L874.985 576.037C867.77 576.027 860.559 575.981 853.349 576.285L853.449 604.029L843.577 604.002L843.515 597.395L831.985 597.313L832.02 617.992Q821.253 617.828 810.487 618.006L810.467 640.52L789.97 640.525L789.994 660.992C782.843 660.739 775.671 660.546 768.522 660.976L768.579 682.335C761.114 681.982 753.678 682.466 746.229 682.25L746.174 704.46L724.887 704.476L724.951 724.427L703.957 724.363L704.08 745.494L682.229 745.553Q682.242 756.797 682.402 768.039C675.277 768.062 668.13 767.975 661.009 768.189L661.114 788.894C654.331 788.65 647.448 788.491 640.669 788.867C640.676 795.724 640.529 802.631 640.866 809.48L618.223 809.534C618.198 816.975 617.878 824.607 618.339 832.028C610.978 832.018 603.593 831.892 596.236 832.144Q596.436 843.269 596.375 854.395C589.499 854.397 582.613 854.327 575.738 854.434L575.912 874.514L553.187 874.502C553.21 881.795 553.404 889.13 553.217 896.419C546.028 895.749 538.628 895.964 531.408 896.027L531.402 917.352C517.683 916.721 503.737 917.224 489.998 917.409L490.013 937.774C470.78 937.288 448.676 937.082 429.546 937.977L429.589 944.415L383.853 944.422L383.958 960.432C368.374 958.954 352.119 959.544 336.462 959.507C316.403 959.461 296.168 959.057 276.128 960.017L276.096 938.731C262.602 939.113 249.091 938.624 235.593 938.963L235.59 919.234C220.956 919.01 206.124 918.567 191.511 919.38L191.493 898.993C185.768 898.993 180.015 898.87 174.303 899.294L174.251 884.889L160.395 884.964L160.497 870.859L148.554 870.904C148.664 868.593 148.809 866.277 148.831 863.963L149.004 861.931C157.251 860.129 166.295 861.438 174.691 861.44C193.852 861.445 213.6 861.917 232.661 860.138L232.938 864.014Q243.986 863.835 255.035 864.005C255.798 865.802 255.004 891.446 255.001 896.039Q277.504 896.015 300.001 895.485L300.009 915.441L364.418 915.498Q364.468 905.994 364.398 896.49Q384.409 896.425 404.42 896.577Q404.471 885.573 404.382 874.57Q426.224 874.18 448.053 875.023Q448.152 864.051 448.035 853.079C462.656 853.719 477.376 853.499 492.012 853.593L491.992 831.492C498.484 831.524 504.977 831.495 511.461 831.863C511.429 823.915 511.482 815.953 511.173 808.01Q521.422 808.074 531.672 808.028L531.611 786.057L553.366 785.852C552.843 779.677 553.059 773.405 553.066 767.21Q564.115 767.201 575.161 767.484L575.079 743.945L595.599 744.024L595.572 724.299C603.002 724.602 610.526 724.321 617.966 724.27L617.855 703.664C625.39 703.558 632.861 703.716 640.392 704.009C639.306 696.54 639.593 688.598 639.563 681.068C646.219 681.008 652.876 681.286 659.528 681.491Q659.813 670.966 659.949 660.439L682.233 660.501Q682.772 650.46 682.049 640.431C689.239 640.579 696.453 640.432 703.645 640.403L703.477 617.554Q713.332 617.479 723.179 617.867C723.474 612.865 723.445 607.857 723.458 602.849L726.627 599.07C730.234 598.04 734.02 597.885 737.055 595.466C740.134 595.25 743.308 595.436 746.397 595.486Q746.589 585.78 746.384 576.074L769.015 576.111C768.414 568.894 768.517 561.638 768.493 554.401L788.097 554.404L788.155 533.487L809.492 533.584L809.506 512.406Q819.686 512.523 829.867 512.43L830.102 489.571Q840.727 489.657 851.351 489.864Q851.531 478.972 851.422 468.08L874.522 468.094L874.403 448.086C880.877 448.346 887.393 448.232 893.874 448.24C893.485 441.363 893.669 434.372 893.621 427.48L915.065 427.499Q915.345 406.996 915.387 386.492Q921.208 386.484 927.018 386.849L926.479 261.395Z"/>
	<path fill="#8D201D" transform="scale(0.167014 0.167014)" d="M149.004 861.931C157.251 860.129 166.295 861.438 174.691 861.44C193.852 861.445 213.6 861.917 232.661 860.138L232.938 864.014C204.875 863.758 176.912 864.797 148.831 863.963L149.004 861.931Z"/>
	<path fill="#D05F1D" transform="scale(0.167014 0.167014)" d="M875.153 233.537L875.396 233.437C882.525 235.171 889.926 234.083 897.167 234.005C897.172 237.855 897.08 241.731 897.206 245.578C899.27 246.749 911.451 245.966 914.507 245.974L914.523 261.474C918.505 261.45 922.499 261.495 926.479 261.395L927.018 386.849Q921.208 386.484 915.387 386.492Q915.345 406.996 915.065 427.499L893.621 427.48C893.669 434.372 893.485 441.363 893.874 448.24C887.393 448.232 880.877 448.346 874.403 448.086L874.522 468.094L851.422 468.08Q851.531 478.972 851.351 489.864Q840.727 489.657 830.102 489.571L829.867 512.43Q819.686 512.523 809.506 512.406L809.492 533.584L788.155 533.487L788.097 554.404L768.493 554.401C768.517 561.638 768.414 568.894 769.015 576.111L746.384 576.074Q746.589 585.78 746.397 595.486C743.308 595.436 740.134 595.25 737.055 595.466C734.02 597.885 730.234 598.04 726.627 599.07L723.458 602.849C723.445 607.857 723.474 612.865 723.179 617.867Q713.332 617.479 703.477 617.554L703.645 640.403C696.453 640.432 689.239 640.579 682.049 640.431Q682.772 650.46 682.233 660.501L659.949 660.439Q659.813 670.966 659.528 681.491C652.876 681.286 646.219 681.008 639.563 681.068C639.593 688.598 639.306 696.54 640.392 704.009C632.861 703.716 625.39 703.558 617.855 703.664L617.966 724.27C610.526 724.321 603.002 724.602 595.572 724.299L595.599 744.024L575.079 743.945L575.161 767.484Q564.115 767.201 553.066 767.21C553.059 773.405 552.843 779.677 553.366 785.852L531.611 786.057L531.672 808.028Q521.422 808.074 511.173 808.01C511.482 815.953 511.429 823.915 511.461 831.863C504.977 831.495 498.484 831.524 491.992 831.492L492.012 853.593C477.376 853.499 462.656 853.719 448.035 853.079Q448.152 864.051 448.053 875.023Q426.224 874.18 404.382 874.57Q404.471 885.573 404.42 896.577Q384.409 896.425 364.398 896.49Q364.468 905.994 364.418 915.498L300.009 915.441L300.001 895.485Q277.504 896.015 255.001 896.039C255.004 891.446 255.798 865.802 255.035 864.005C256.454 861.022 255.377 842.639 255.922 837.488C256.147 833.129 255.979 828.681 255.993 824.311C255.882 817.251 255.958 810.179 255.954 803.118C255.675 796.791 255.874 790.452 255.981 784.122C263.356 784.026 270.886 784.335 278.209 783.423C278.041 777.65 278.274 771.81 278.346 766.033C285.16 765.948 292.155 765.649 298.911 766.581C305.068 768.748 312.657 768.077 319.081 767.961C319.296 772.469 320.259 778.591 318.535 782.801C317.769 783.133 317.448 783.241 316.588 783.288L318.365 783.628C320.793 787.813 319.448 801.281 319.332 806.282C333.987 806.586 348.82 806.035 363.498 806.009L363.392 783.369L404.995 783.509L404.967 765.931Q426.471 765.912 447.971 765.497L447.884 744.279C454.933 744.134 461.946 744.294 468.991 744.512L468.983 722.065L489.506 722.005L489.484 702.698C496.644 702.75 503.815 702.616 510.976 702.568L510.908 680.996C518.001 680.999 525.187 682.246 532.198 680.65C532.457 680.481 532.725 680.323 532.977 680.142C537.894 676.601 536.465 665.641 537.6 660.139L537.735 659.516L541.266 659.355Q547.626 659.174 553.986 659.356L553.906 640.036C560.941 640.087 567.999 639.775 575.028 639.494L575.153 616.377C582.027 617.332 589.055 617.079 595.978 617.059L595.857 594.938L617.135 595.017C617.331 588.652 617.141 582.27 617.053 575.903L639.472 575.866L639.499 552.693C646.277 553.045 653.147 552.923 659.938 553.013L659.908 531.49L682.568 531.508L682.479 509.945L702.501 509.847L702.449 489.423L723.402 489.838C723.427 482.002 722.882 474.158 722.406 466.341Q733.952 466.667 745.501 466.868L745.484 447.701C752.716 448.004 760.002 447.916 767.242 447.999C767.399 440.658 767.101 433.276 766.962 425.934C773.014 425.512 779.085 425.547 785.148 425.502C785.224 418.348 785.023 411.178 784.919 404.024L805.505 404.118L805.482 384.034L832.565 384.014C832.567 376.64 832.546 369.291 831.971 361.936L854.047 362.063C854.355 347.841 854.732 333.723 854.21 319.494L875.001 319.546L875.153 233.537Z"/>
	<path fill="#144FB3" transform="scale(0.167014 0.167014)" d="M723.114 594.939C727.769 594.973 732.407 595.223 737.055 595.466C734.02 597.885 730.234 598.04 726.627 599.07L723.458 602.849L723.114 594.939Z"/>
	<path fill="#FDDB34" transform="scale(0.167014 0.167014)" d="M278.346 766.033C285.16 765.948 292.155 765.649 298.911 766.581C305.068 768.748 312.657 768.077 319.081 767.961C319.296 772.469 320.259 778.591 318.535 782.801C317.769 783.133 317.448 783.241 316.588 783.288L318.365 783.628C320.793 787.813 319.448 801.281 319.332 806.282L319.009 824.01C298.035 824.025 276.947 824.88 255.993 824.311C255.882 817.251 255.958 810.179 255.954 803.118C255.675 796.791 255.874 790.452 255.981 784.122C263.356 784.026 270.886 784.335 278.209 783.423C278.041 777.65 278.274 771.81 278.346 766.033Z"/>
	<path fill="#188D08" transform="scale(0.167014 0.167014)" d="M278.346 766.033C285.16 765.948 292.155 765.649 298.911 766.581C305.068 768.748 312.657 768.077 319.081 767.961C319.296 772.469 320.259 778.591 318.535 782.801C317.769 783.133 317.448 783.241 316.588 783.288C303.778 782.673 291.044 783.26 278.239 783.518C278.281 790.079 278.416 796.656 278.295 803.215Q267.124 803.3 255.954 803.118C255.675 796.791 255.874 790.452 255.981 784.122C263.356 784.026 270.886 784.335 278.209 783.423C278.041 777.65 278.274 771.81 278.346 766.033Z"/>
	<defs>
		<linearGradient id="gradient_0" gradientUnits="userSpaceOnUse" x1="371.71378" y1="372.60141" x2="502.90549" y2="476.61465">
			<stop offset="0" stop-color="#20970F"/>
			<stop offset="1" stop-color="#4D791A"/>
		</linearGradient>
	</defs>
	<path fill="url(#gradient_0)" transform="scale(0.167014 0.167014)" d="M722.079 107.974C730.227 106.83 738.999 107.405 747.209 107.51L747.25 108.139C747.548 113.19 745.993 125.998 748.109 129.83L749.935 130.087C759.749 130.524 769.57 130.114 779.388 130.193L788.843 130.066L832.063 130.036C833.699 130.163 835.348 130.243 836.966 130.515C842.572 130.797 848.063 130.706 853.664 130.504C853.646 136.996 853.511 143.518 853.74 150.004L853.566 212.575C858.053 212.527 862.711 212.214 867.177 212.617C869.837 212.693 872.576 212.621 875.192 213.138C875.942 219.75 875.511 226.779 875.396 233.437L875.153 233.537L875.001 319.546L854.21 319.494C854.732 333.723 854.355 347.841 854.047 362.063L831.971 361.936C832.546 369.291 832.567 376.64 832.565 384.014L805.482 384.034L805.505 404.118L784.919 404.024C785.023 411.178 785.224 418.348 785.148 425.502C779.085 425.547 773.014 425.512 766.962 425.934C767.101 433.276 767.399 440.658 767.242 447.999C760.002 447.916 752.716 448.004 745.484 447.701L745.501 466.868Q733.952 466.667 722.406 466.341C722.882 474.158 723.427 482.002 723.402 489.838L702.449 489.423L702.501 509.847L682.479 509.945L682.568 531.508L659.908 531.49L659.938 553.013C653.147 552.923 646.277 553.045 639.499 552.693L639.472 575.866L617.053 575.903C617.141 582.27 617.331 588.652 617.135 595.017L595.857 594.938L595.978 617.059C589.055 617.079 582.027 617.332 575.153 616.377L575.028 639.494C567.999 639.775 560.941 640.087 553.906 640.036L553.986 659.356Q547.626 659.174 541.266 659.355L537.735 659.516L537.6 660.139C536.465 665.641 537.894 676.601 532.977 680.142C532.725 680.323 532.457 680.481 532.198 680.65C525.187 682.246 518.001 680.999 510.908 680.996L510.976 702.568C503.815 702.616 496.644 702.75 489.484 702.698L489.506 722.005L468.983 722.065L468.991 744.512C461.946 744.294 454.933 744.134 447.884 744.279L447.971 765.497Q426.471 765.912 404.967 765.931L404.995 783.509L363.392 783.369L363.498 806.009C348.82 806.035 333.987 806.586 319.332 806.282C319.448 801.281 320.793 787.813 318.365 783.628L316.588 783.288C317.448 783.241 317.769 783.133 318.535 782.801C320.259 778.591 319.296 772.469 319.081 767.961C312.657 768.077 305.068 768.748 298.911 766.581C292.155 765.649 285.16 765.948 278.346 766.033C278.274 771.81 278.041 777.65 278.209 783.423C270.886 784.335 263.356 784.026 255.981 784.122C255.874 790.452 255.675 796.791 255.954 803.118C255.958 810.179 255.882 817.251 255.993 824.311C255.979 828.681 256.147 833.129 255.922 837.488C255.377 842.639 256.454 861.022 255.035 864.005Q243.986 863.835 232.938 864.014L232.661 860.138C213.6 861.917 193.852 861.445 174.691 861.44C166.295 861.438 157.251 860.129 149.004 861.931Q149.102 852.957 149.366 843.987L129.293 844.003L129.486 824.551L113.912 825.01C114.114 811.994 113.846 798.971 114.048 785.953L113.762 784.024C114.356 777.866 113.844 771.314 113.686 765.127Q121.242 765.057 128.798 765.079C128.206 750.957 128.677 736.705 128.449 722.558L128.15 722.522C127.613 709.288 127.81 696.154 128.068 682.916C127.491 670.292 127.97 657.426 127.933 644.776C127.888 629.183 127.401 613.543 128.13 597.965C119.743 598.035 111.352 598.266 102.965 598.429C102.917 596.714 102.905 595.29 103.365 593.629C107.699 591.82 122.803 592.845 128.046 593.245C129.44 594.483 130.808 595.731 132.137 597.037C135.493 598.532 146.368 597.495 150.452 597.458L150.467 578.025L172.388 578.015C172.521 571.026 172.462 564.023 172.486 557.032L194.032 557.008L194.022 535.95L215.066 536.013C215.407 528.682 215.426 521.356 215.453 514.018Q226.281 514.063 237.108 514.254L237.042 494.019L257.709 493.992L257.595 472.027Q268.379 472.128 279.158 472.473L279.006 452.151C286.322 451.843 293.699 452.014 301.023 452.008L301.003 430.024L322.483 430.002L322.44 408.024Q332.742 407.938 343.038 408.301L343.017 386.917L365.496 386.762L365.493 365.523L386.163 365.509L386.02 343.52Q396.75 343.434 407.477 343.724L407.482 323.511C415.315 323.423 423.158 323.517 430.991 323.534C430.907 316.521 430.972 309.501 430.97 302.487C437.367 302.42 443.774 302.504 450.172 302.516L450.041 280.52L471.112 280.511L471.022 258.205C478.655 257.819 486.372 258.283 494.008 258.552L493.952 237.452C500.613 237.202 507.343 237.458 514.01 237.536L514.02 215.745Q524.524 215.722 535.025 215.993L535.005 194.425C542.352 194.208 549.652 194.29 556.998 194.506C556.854 187.431 556.951 180.336 556.94 173.26C568.938 173 580.96 173.068 592.961 172.995C592.179 165.135 592.628 157.211 592.918 149.336C608.327 149.497 623.739 149.341 639.146 149.768C639.216 143.189 639.136 136.603 639.125 130.024L659.049 130.007L659.007 109.482C669.809 109.363 714.252 111.899 721.57 109.472L722.079 107.974Z"/>
	<path fill="#CB2A01" transform="scale(0.167014 0.167014)" d="M256.192 605.043C256.002 603.009 255.42 600.327 256.468 598.502C257.946 597.478 258.67 597.542 260.429 597.368C259.579 600.217 258.577 603.102 256.192 605.043Z"/>
	<path fill="#87530F" transform="scale(0.167014 0.167014)" d="M610.235 209.807C610.82 210.161 611.409 210.59 611.787 211.176C613.725 214.178 612.207 220.599 611.766 224.021C611.34 223.876 610.846 223.507 610.457 223.274C608.527 219.324 609.123 213.959 610.235 209.807Z"/>
	<path fill="#87530F" transform="scale(0.167014 0.167014)" d="M594.315 223.614L596.173 224.185C597.468 226.736 595.965 237.156 595.878 240.37C595.515 240.46 595.129 240.359 594.756 240.334C592.67 236.505 593.938 227.952 594.315 223.614Z"/>
	<path fill="#CB2A01" transform="scale(0.167014 0.167014)" d="M332.778 533.143L340.977 532.289C341.438 537.595 341.572 543.221 341.162 548.532L335.031 548.46L334.811 548.028Q333.877 540.574 332.778 533.143Z"/>
	<path fill="#CB2A01" transform="scale(0.167014 0.167014)" d="M684.592 213.123Q684.435 223.488 684.511 233.853C681.952 233.893 679.456 233.943 676.911 233.607C677.361 227.019 676.992 220.629 675.943 214.116C678.804 213.685 681.714 213.438 684.592 213.123Z"/>
	<path fill="#CB2A01" transform="scale(0.167014 0.167014)" d="M273.494 575.993L288.753 576.048C288.392 578.414 288.082 580.618 285.955 582.055C283.656 583.607 280.183 583.553 277.499 583.612C277.542 586.253 277.569 588.888 277.709 591.526C277.818 593.561 277.642 595.326 276.498 597.061C275.432 597.607 274.737 597.628 273.549 597.622L273.494 575.993Z"/>
	<path fill="#87530F" transform="scale(0.167014 0.167014)" d="M429.525 423.822C433.816 423.857 441.542 422.962 445.33 424.523C444.376 425.817 443.383 427.07 442.662 428.514C441.269 428.784 441.18 428.805 440.203 429.828C439.361 432.471 439.793 435.362 440.003 438.093L429.514 438.022L429.525 423.822Z"/>
	<path fill="#CB2A01" transform="scale(0.167014 0.167014)" d="M354.412 510.511C357.574 510.51 360.709 510.642 363.866 510.817C363.57 518.042 363.739 525.372 363.952 532.6C360.973 532.424 357.974 532.318 355.01 531.965C355.007 524.826 354.616 517.65 354.412 510.511Z"/>
	<path fill="#CB2A01" transform="scale(0.167014 0.167014)" d="M384.014 492.804L396.838 493.054L396.866 510.949L384.073 511.488C383.959 505.266 384.031 499.028 384.014 492.804Z"/>
	<path fill="#A62F15" transform="scale(0.167014 0.167014)" d="M700.061 198.628C699.946 196.435 699.412 193.82 700.635 191.899C701.96 190.927 703.144 190.987 704.713 190.92C703.191 195.751 704.214 201.064 703.744 206.045C703.627 208.31 703.491 210.573 703.482 212.843C697.27 212.574 690.735 211.981 684.592 213.123C684.716 207.927 684.498 202.676 684.429 197.477C689.727 197.448 694.834 197.713 700.061 198.628Z"/>
	<path fill="#CB2A01" transform="scale(0.167014 0.167014)" d="M194.03 639.998L213.498 640.007C213.601 647.182 213.984 654.258 213.345 661.421C207.573 661.532 200.035 662.474 194.458 661.072Q194.468 650.53 194.03 639.998Z"/>
	<path fill="#D8420D" transform="scale(0.167014 0.167014)" d="M396.838 493.054L397.367 492.913L397.49 531.189L404.751 530.988C407.165 535.913 403.825 542.559 406.151 547.392L406.276 547.813C405.303 548.292 404.454 548.474 403.901 549.434L403.11 553.393C396.7 553.842 390.367 554.066 383.937 553.99L341.846 553.99C339.923 553.997 336.975 554.588 335.404 553.479C334.556 551.926 334.917 550.163 335.031 548.46L341.162 548.532C341.572 543.221 341.438 537.595 340.977 532.289C345.56 531.553 350.382 531.853 355.01 531.965C357.974 532.318 360.973 532.424 363.952 532.6C363.739 525.372 363.57 518.042 363.866 510.817C370.599 511.115 377.332 511.468 384.073 511.488L396.866 510.949L396.838 493.054Z"/>
	<path fill="#FEFEF5" transform="scale(0.167014 0.167014)" d="M341.162 548.532L380.436 548.265C387.417 548.22 395.194 547.65 402.111 548.564C402.883 548.667 403.325 548.93 403.901 549.434L403.11 553.393C396.7 553.842 390.367 554.066 383.937 553.99L341.846 553.99C339.923 553.997 336.975 554.588 335.404 553.479C334.556 551.926 334.917 550.163 335.031 548.46L341.162 548.532Z"/>
	<path fill="#D05F1D" transform="scale(0.167014 0.167014)" d="M676.911 233.607C679.456 233.943 681.952 233.893 684.511 233.853L684.517 265.769L684.384 273.307C684.245 278.874 683.919 284.512 684.002 290.077C675.379 289.645 666.742 289.943 658.112 289.943L616.903 289.877C616.832 285.349 616.742 280.947 617.852 276.525C619.946 269.685 618.786 261.195 618.496 254.09Q629.813 253.931 641.13 254.098C640.893 248.916 641.007 243.681 640.974 238.492C645.476 238.672 654.142 239.933 658.003 237.668C659.226 236.951 659.139 236.246 659.466 234.975L659.679 234.382C663.136 232.229 672.791 233.521 676.911 233.607Z"/>
	<path fill="#A62F15" transform="scale(0.167014 0.167014)" d="M659.466 234.975Q659.396 244.58 659.515 254.184Q650.321 254.389 641.13 254.098C640.893 248.916 641.007 243.681 640.974 238.492C645.476 238.672 654.142 239.933 658.003 237.668C659.226 236.951 659.139 236.246 659.466 234.975Z"/>
	<path fill="#CB2A01" transform="scale(0.167014 0.167014)" d="M595.995 276.424L617.852 276.525C616.742 280.947 616.832 285.349 616.903 289.877C616.902 294.916 616.867 299.959 616.925 304.998C609.122 304.942 601.308 304.794 593.506 304.84C593.517 320.208 593.398 335.588 593.621 350.953C593.622 353.672 594.113 356.822 593.227 359.389C592.369 360.015 592.167 360.09 591.113 360.228Q558.912 359.194 526.695 359.509C526.694 363.787 527.53 374.15 526.434 377.707C525.104 377.982 524.118 377.997 522.784 377.9C519.488 377.129 515.883 377.373 512.509 377.372C512.485 373.426 512.299 369.398 512.877 365.488C513.393 357.532 513.137 349.563 512.985 341.599C519.663 341.596 526.385 341.613 533.033 340.94Q533.333 331.653 533.412 322.361C540.95 322.604 548.523 322.482 556.066 322.499L556.021 304.054C563.276 304.664 570.627 304.439 577.905 304.416C577.513 299.785 577.57 295.094 577.498 290.447L596.008 290.591L595.995 276.424Z"/>
	<path fill="#FEFA51" transform="scale(0.167014 0.167014)" d="M616.903 289.877L658.112 289.943C666.742 289.943 675.379 289.645 684.002 290.077L683.995 294.828Q683.973 307.966 683.669 321.1C683.952 327.967 684.421 334.704 682.968 341.481L682.705 341.736C681.475 347.897 681.433 355.802 682.336 362.054L660.507 361.995L633.755 362.026C628.976 362.026 623.713 362.412 618.999 361.669C611.053 361.465 602.588 360.691 594.706 361.6C593.734 360.552 592.451 360.485 591.113 360.228C592.167 360.09 592.369 360.015 593.227 359.389C594.113 356.822 593.622 353.672 593.621 350.953C593.398 335.588 593.517 320.208 593.506 304.84C601.308 304.794 609.122 304.942 616.925 304.998C616.867 299.959 616.902 294.916 616.903 289.877Z"/>
	<path fill="#FEFEF5" transform="scale(0.167014 0.167014)" d="M616.903 289.877L658.112 289.943C666.742 289.943 675.379 289.645 684.002 290.077L683.995 294.828C676.503 294.933 668.968 294.588 661.476 294.417C647.982 293.961 634.507 294.111 621.013 293.894C620.986 299.19 621.051 304.503 620.862 309.795C613.224 309.91 605.6 310.01 597.967 309.676C598.076 317.421 599.318 350.757 596.522 356.093L595.868 356.374C594.853 355.628 594.085 355.114 593.802 353.818C593.608 352.926 593.647 351.868 593.621 350.953C593.398 335.588 593.517 320.208 593.506 304.84C601.308 304.794 609.122 304.942 616.925 304.998C616.867 299.959 616.902 294.916 616.903 289.877Z"/>
	<path fill="#FDDB34" transform="scale(0.167014 0.167014)" d="M661.476 294.417C668.968 294.588 676.503 294.933 683.995 294.828Q683.973 307.966 683.669 321.1C676.289 321.077 668.841 320.859 661.473 321.271C661.463 327.867 661.458 334.422 660.956 341.003C647.046 341.003 633.119 340.867 619.21 341.056C619.975 334.509 619.676 328.069 619.459 321.503C633.377 321.783 647.534 321.909 661.441 321.389L661.476 294.417Z"/>
	<path fill="#F49508" transform="scale(0.167014 0.167014)" d="M661.473 321.271C668.841 320.859 676.289 321.077 683.669 321.1C683.952 327.967 684.421 334.704 682.968 341.481L682.705 341.736C681.475 347.897 681.433 355.802 682.336 362.054L660.507 361.995L633.755 362.026C628.976 362.026 623.713 362.412 618.999 361.669C618.51 354.658 618.351 348.047 619.21 341.056C633.119 340.867 647.046 341.003 660.956 341.003C661.458 334.422 661.463 327.867 661.473 321.271Z"/>
	<path fill="#CB2A01" transform="scale(0.167014 0.167014)" d="M661 341.074C667.585 340.899 676.402 339.653 682.705 341.736C681.475 347.897 681.433 355.802 682.336 362.054L660.507 361.995Q660.914 351.538 661 341.074Z"/>
	<path fill="#D05F1D" transform="scale(0.167014 0.167014)" d="M512.877 365.488C512.299 369.398 512.485 373.426 512.509 377.372C515.883 377.373 519.488 377.129 522.784 377.9C519.432 377.895 511.602 376.99 509.112 379.17C507.216 386.726 508.492 415.979 508.483 425.84L512.461 426.118L512.58 426.414C512.371 432.116 512.519 438.215 511.751 443.853L512.223 443.974L512.448 448.144L512.505 448.395C505.651 449.158 498.832 449.127 491.946 449.007C491.944 453.488 491.163 459.579 492.244 463.851L497.232 464.065C495.361 464.261 493.493 464.498 491.61 464.512L491.368 469.021Q455.193 468.746 419.025 469.478C419.034 472.494 419.52 475.943 417.208 478.276C413.475 482.042 402.993 480.441 397.862 480.503L398.043 477.013C398.729 473.765 398.557 470.348 398.588 467.042L398.489 450.038C408.729 449.324 419.058 449.176 429.321 448.976L429.514 438.022L440.003 438.093C439.793 435.362 439.361 432.471 440.203 429.828C441.18 428.805 441.269 428.784 442.662 428.514C443.383 427.07 444.376 425.817 445.33 424.523C446.991 423.953 448.418 424.123 450.148 424.254C449.633 418.282 449.973 412.001 449.961 405.992C456.103 405.94 462.247 406.271 468.383 406.514C468.593 399.691 468.477 392.842 468.465 386.015L492.959 385.992C492.718 379.247 492.701 372.479 492.583 365.73C499.348 365.395 506.106 365.454 512.877 365.488Z"/>
	<path fill="#188D08" transform="scale(0.167014 0.167014)" d="M445.33 424.523C446.991 423.953 448.418 424.123 450.148 424.254C449.961 425.97 450.005 426.591 448.985 428.027C447.057 429.006 444.768 428.607 442.662 428.514C443.383 427.07 444.376 425.817 445.33 424.523Z"/>
	<path fill="#FEFDBB" transform="scale(0.167014 0.167014)" d="M508.483 425.84L512.461 426.118L512.58 426.414C512.371 432.116 512.519 438.215 511.751 443.853C511.03 443.502 510.381 443.174 509.865 442.53C506.924 438.854 508.262 430.329 508.483 425.84Z"/>
	<path fill="#D8420D" transform="scale(0.167014 0.167014)" d="M398.588 467.042Q406.459 466.862 414.331 466.984C414.339 470.371 414.099 473.989 414.58 477.334C409.058 476.979 403.572 476.984 398.043 477.013C398.729 473.765 398.557 470.348 398.588 467.042Z"/>
	<path fill="#FEFEF5" transform="scale(0.167014 0.167014)" d="M414.941 464.952C423.883 463.864 433.371 464.478 442.39 464.479L491.61 464.512L491.368 469.021Q455.193 468.746 419.025 469.478C419.034 472.494 419.52 475.943 417.208 478.276C413.475 482.042 402.993 480.441 397.862 480.503L398.043 477.013C403.572 476.984 409.058 476.979 414.58 477.334C415.225 473.334 414.93 469.006 414.941 464.952Z"/>
	<path fill="#FDDB34" transform="scale(0.167014 0.167014)" d="M505.251 469.176L508.056 469.1C507.978 475.972 507.895 482.829 507.524 489.692C507.822 496.973 506.985 504.193 507.794 511.451C501.089 513.182 496.171 511.228 491.508 512.222C491.5 518.833 491.746 525.557 491.407 532.152L492.472 532.744C490.445 535.068 490.472 548.363 490.302 551.997C483.948 552.051 477.162 552.539 470.867 551.609L470.116 550.698C463.616 549.24 455.607 549.998 448.907 549.993L411.555 550.019C409.311 549.738 408.014 549.296 406.276 547.813L406.151 547.392C403.825 542.559 407.165 535.913 404.751 530.988L397.49 531.189L397.367 492.913C397.639 488.784 397.543 484.643 397.862 480.503C402.993 480.441 413.475 482.042 417.208 478.276C419.52 475.943 419.034 472.494 419.025 469.478Q455.193 468.746 491.368 469.021L505.251 469.176Z"/>
	<path fill="#E77803" transform="scale(0.167014 0.167014)" d="M492.053 489.846C496.548 488.712 502.867 489.402 507.524 489.692C507.822 496.973 506.985 504.193 507.794 511.451C501.089 513.182 496.171 511.228 491.508 512.222L491.369 511.905C491.788 504.579 491.72 497.189 492.053 489.846Z"/>
	<path fill="#FEC147" transform="scale(0.167014 0.167014)" d="M471.038 511.66C477.67 511.354 484.791 511.007 491.369 511.905L491.508 512.222C491.5 518.833 491.746 525.557 491.407 532.152L492.472 532.744C490.445 535.068 490.472 548.363 490.302 551.997C483.948 552.051 477.162 552.539 470.867 551.609L470.116 550.698C463.616 549.24 455.607 549.998 448.907 549.993L411.555 550.019C409.311 549.738 408.014 549.296 406.276 547.813L406.151 547.392C406.945 546.764 407.774 546.094 408.447 545.332C411.349 542.049 410.179 535.101 409.978 530.991C430.183 531.266 450.321 530.655 470.53 531.536C470.992 524.916 470.991 518.292 471.038 511.66Z"/>
	<path fill="#D8420D" transform="scale(0.167014 0.167014)" d="M491.407 532.152L492.472 532.744C490.445 535.068 490.472 548.363 490.302 551.997C483.948 552.051 477.162 552.539 470.867 551.609L470.116 550.698C471.016 544.585 470.53 537.972 470.504 531.796C477.468 532.325 484.43 532.68 491.407 532.152Z"/>
	<path fill="#FEFA51" transform="scale(0.167014 0.167014)" d="M505.251 469.176L508.056 469.1C507.978 475.972 507.895 482.829 507.524 489.692C502.867 489.402 496.548 488.712 492.053 489.846L491.965 489.612C485.185 490.293 478.251 490.118 471.442 490.035C471.493 497.211 471.587 504.349 470.952 511.506C448.696 511.544 426.216 512.517 404.003 511.487C403.951 517.959 403.582 524.595 404.751 530.988L397.49 531.189L397.367 492.913C397.639 488.784 397.543 484.643 397.862 480.503C402.993 480.441 413.475 482.042 417.208 478.276C419.52 475.943 419.034 472.494 419.025 469.478Q455.193 468.746 491.368 469.021L505.251 469.176Z"/>
	<path fill="#FEC147" transform="scale(0.167014 0.167014)" d="M505.251 469.176L508.056 469.1C507.978 475.972 507.895 482.829 507.524 489.692C502.867 489.402 496.548 488.712 492.053 489.846L491.965 489.612C492.122 482.874 491.995 476.116 491.963 469.375Q498.609 469.435 505.251 469.176Z"/>
	<path fill="#FDDB34" transform="scale(0.167014 0.167014)" d="M750.991 205.506C754.149 205.498 765.92 204.154 767.845 205.899L767.868 206.878Q767.588 220.961 767.624 235.047L767.869 256.246C767.687 261.574 767.351 266.864 768.127 272.162L767.902 273.158C761.1 274.583 753.718 273.456 746.808 273.425C746.548 278.929 746.678 284.478 746.35 289.966L746.058 290.225Q745.901 300.367 745.978 310.509C738.645 309.922 731.34 310.566 724.003 310.522C724.011 314.131 723.872 317.813 724.093 321.411L723.804 321.872C717.197 322.121 710.584 321.956 703.975 321.866C703.937 328.225 703.808 334.595 704.113 340.949C702.167 342.457 694.793 341.66 692.127 341.664L682.968 341.481C684.421 334.704 683.952 327.967 683.669 321.1Q683.973 307.966 683.995 294.828L684.002 290.077C683.919 284.512 684.245 278.874 684.384 273.307L684.517 265.769L684.511 233.853Q684.435 223.487 684.592 213.123C690.735 211.981 697.27 212.574 703.482 212.843C703.491 210.573 703.627 208.31 703.744 206.045C719.463 204.772 735.299 206.602 750.991 205.506Z"/>
	<path fill="#FEFA51" transform="scale(0.167014 0.167014)" d="M689.747 256.807C694.83 257.093 699.916 256.905 704.986 256.508C705.44 262.136 705.786 267.737 705.224 273.37C698.275 273.47 691.328 273.646 684.384 273.307L684.517 265.769C686.452 267.44 687.93 269.36 689.506 271.355L689.747 256.807Z"/>
	<path fill="#F49508" transform="scale(0.167014 0.167014)" d="M747.074 256.353C753.145 254.893 761.528 256.074 767.869 256.246C767.687 261.574 767.351 266.864 768.127 272.162L767.902 273.158C761.1 274.583 753.718 273.456 746.808 273.425C746.548 278.929 746.678 284.478 746.35 289.966L746.058 290.225C732.497 289.768 718.907 290.067 705.341 290.128L705.048 273.468Q725.984 273.558 746.919 273.433C747.19 267.753 747.111 262.038 747.074 256.353Z"/>
	<path fill="#CB2A01" transform="scale(0.167014 0.167014)" d="M705.341 290.128C718.907 290.067 732.497 289.768 746.058 290.225Q745.901 300.367 745.978 310.509C738.645 309.922 731.34 310.566 724.003 310.522C724.011 314.131 723.872 317.813 724.093 321.411L723.804 321.872C717.197 322.121 710.584 321.956 703.975 321.866C703.937 328.225 703.808 334.595 704.113 340.949C702.167 342.457 694.793 341.66 692.127 341.664L682.968 341.481C684.421 334.704 683.952 327.967 683.669 321.1Q683.973 307.966 683.995 294.828L684.002 290.077L705.341 290.128Z"/>
	<path fill="#FEFE83" transform="scale(0.167014 0.167014)" d="M750.991 205.506C754.149 205.498 765.92 204.154 767.845 205.899L767.868 206.878Q767.588 220.961 767.624 235.047L767.869 256.246C761.528 256.074 753.145 254.893 747.074 256.353L746.968 256.161C740.136 256.716 732.825 257.037 725.988 256.513Q715.487 256.211 704.986 256.508C699.916 256.905 694.83 257.093 689.747 256.807L689.506 271.355C687.93 269.36 686.452 267.44 684.517 265.769L684.511 233.853Q684.435 223.487 684.592 213.123C690.735 211.981 697.27 212.574 703.482 212.843C703.491 210.573 703.627 208.31 703.744 206.045C719.463 204.772 735.299 206.602 750.991 205.506Z"/>
	<path fill="#FEFEF5" transform="scale(0.167014 0.167014)" d="M750.991 205.506C754.149 205.498 765.92 204.154 767.845 205.899L767.868 206.878L767.511 210.296C747.305 209.054 726.732 210.246 706.47 209.992L706.499 217.993L689.46 217.937C689.489 230.85 690.035 243.913 689.747 256.807L689.506 271.355C687.93 269.36 686.452 267.44 684.517 265.769L684.511 233.853Q684.435 223.487 684.592 213.123C690.735 211.981 697.27 212.574 703.482 212.843C703.491 210.573 703.627 208.31 703.744 206.045C719.463 204.772 735.299 206.602 750.991 205.506Z"/>
	<path fill="#FEFA51" transform="scale(0.167014 0.167014)" d="M767.868 206.878Q767.588 220.961 767.624 235.047L767.869 256.246C761.528 256.074 753.145 254.893 747.074 256.353L746.968 256.161C740.136 256.716 732.825 257.037 725.988 256.513L725.987 234.49Q736.649 234.305 747.311 234.523C748.688 226.601 748.119 218.419 747.983 210.415C754.203 210.507 761.418 211.319 767.511 210.296L767.868 206.878Z"/>
	<path fill="#FEC147" transform="scale(0.167014 0.167014)" d="M747.202 234.959L767.624 235.047L767.869 256.246C761.528 256.074 753.145 254.893 747.074 256.353L746.968 256.161C746.887 249.095 746.683 242.012 747.202 234.959Z"/>
	<path fill="#D8420D" transform="scale(0.167014 0.167014)" d="M788.843 130.066L832.063 130.036C833.699 130.163 835.348 130.243 836.966 130.515C842.572 130.797 848.063 130.706 853.664 130.504C853.646 136.996 853.511 143.518 853.74 150.004L853.566 212.575C858.053 212.527 862.711 212.214 867.177 212.617C869.837 212.693 872.576 212.621 875.192 213.138C875.942 219.75 875.511 226.779 875.396 233.437L875.153 233.537Q863.948 233.3 852.744 233.578Q842.583 234.013 832.415 233.752L831.062 233.535L804.958 233.465C804.988 238.798 804.918 244.16 805.076 249.49Q796.274 248.941 787.455 249.01L787.466 273.535C781.008 273.502 774.497 273.65 768.046 273.427L767.902 273.158L768.127 272.162C767.351 266.864 767.687 261.574 767.869 256.246L767.624 235.047Q767.588 220.961 767.868 206.878L767.845 205.899C765.92 204.154 754.149 205.498 750.991 205.506C735.299 206.602 719.463 204.772 703.744 206.045C704.214 201.064 703.191 195.751 704.713 190.92Q713.637 190.998 722.546 191.534L722.545 171.514Q734.796 171.451 747.035 171.992C747.072 164.908 745.643 157.163 746.995 150.194C747.32 148.52 747.641 148.269 749.034 147.3C749.261 147.084 749.527 146.902 749.715 146.651C751.873 143.762 750.281 133.543 749.935 130.087C759.749 130.524 769.57 130.114 779.388 130.193L788.843 130.066Z"/>
	<path fill="#A62F15" transform="scale(0.167014 0.167014)" d="M750.991 205.506C749.474 204.549 748.363 204.395 747.446 202.763L747.859 201.738C752.433 199.231 764.487 200.439 770.006 200.475Q770.733 202.419 771.491 204.351C769.209 206.222 769 209.937 768.716 212.728C767.297 226.695 768.5 241.536 768.628 255.614C768.676 260.946 769.164 266.926 768.127 272.162C767.351 266.864 767.687 261.574 767.869 256.246L767.624 235.047Q767.588 220.961 767.868 206.878L767.845 205.899C765.92 204.154 754.149 205.498 750.991 205.506Z"/>
	<path fill="#FEFE83" transform="scale(0.167014 0.167014)" d="M867.177 212.617C869.837 212.693 872.576 212.621 875.192 213.138C875.942 219.75 875.511 226.779 875.396 233.437L875.153 233.537Q863.948 233.3 852.744 233.578Q842.583 234.013 832.415 233.752L831.062 233.535C830.927 226.653 831.004 219.755 830.985 212.871C843.013 212.968 855.169 213.359 867.177 212.617Z"/>
	<path fill="#D05F1D" transform="scale(0.167014 0.167014)" d="M788.843 130.066L832.063 130.036L831.925 172.98C824.28 172.96 816.623 173.032 808.98 172.917L808.974 192.93C802.016 192.948 795.032 193.091 788.076 192.945C788.174 199.434 788.296 205.908 788.025 212.395L773.876 212.488C773.202 209.711 772.441 207.048 771.491 204.351Q770.733 202.419 770.006 200.475C764.487 200.439 752.433 199.231 747.859 201.738L747.446 202.763C748.363 204.395 749.474 204.549 750.991 205.506C735.299 206.602 719.463 204.772 703.744 206.045C704.214 201.064 703.191 195.751 704.713 190.92Q713.637 190.998 722.546 191.534L722.545 171.514Q734.796 171.451 747.035 171.992C747.072 164.908 745.643 157.163 746.995 150.194C747.32 148.52 747.641 148.269 749.034 147.3C749.261 147.084 749.527 146.902 749.715 146.651C751.873 143.762 750.281 133.543 749.935 130.087C759.749 130.524 769.57 130.114 779.388 130.193L788.843 130.066Z"/>
	<path fill="#A62F15" transform="scale(0.167014 0.167014)" d="M749.935 130.087C759.749 130.524 769.57 130.114 779.388 130.193C776.28 131.443 770.488 130.603 766.976 130.579L767.011 147.598C761.052 147.598 754.969 147.852 749.034 147.3C749.261 147.084 749.527 146.902 749.715 146.651C751.873 143.762 750.281 133.543 749.935 130.087Z"/>
	<path fill="#CB2A01" transform="scale(0.167014 0.167014)" d="M526.695 359.509Q558.912 359.194 591.113 360.228C592.451 360.485 593.734 360.552 594.706 361.6C602.588 360.691 611.053 361.465 618.999 361.669C623.713 362.412 628.976 362.026 633.755 362.026L660.507 361.995C660.48 369.287 660.367 376.595 660.618 383.884C660.927 384.179 661.17 384.565 661.546 384.769C663.274 385.705 678.917 385.068 682.085 385.025C680.391 391.007 681.513 399.217 681.492 405.496L660.885 405.493C660.357 412.485 660.468 419.501 660.47 426.508C653.322 426.499 646.152 426.367 639.007 426.522Q639.112 437.193 638.907 447.863C631.815 448.377 624.54 447.966 617.421 448.011C612.751 447.875 599.161 449.062 595.651 447.438C594.312 448.415 592.318 448.15 590.71 448.15Q583.092 447.903 575.471 448.009C575.492 452.861 575.235 457.883 575.605 462.712C575.595 464.661 575.911 467.263 575.028 469.019C567.881 469.07 560.687 468.64 553.532 468.542C554.595 463.669 554.526 454.006 553.778 449.004L553.064 448.616C547.881 447.135 519.531 447.902 512.448 448.144L512.223 443.974L511.751 443.853C512.519 438.215 512.371 432.116 512.58 426.414L512.461 426.118L508.483 425.84C508.492 415.979 507.216 386.726 509.112 379.17C511.602 376.99 519.432 377.895 522.784 377.9C524.118 377.997 525.104 377.982 526.434 377.707C527.53 374.15 526.694 363.787 526.695 359.509Z"/>
	<path fill="#FDDB34" transform="scale(0.167014 0.167014)" d="M575.427 363.972C581.882 364.33 588.236 365.001 594.59 363.492C595.458 370.375 595.092 377.537 595.006 384.473C588.665 384.466 582.32 384.415 575.979 384.487C576.054 377.652 575.722 370.8 575.427 363.972Z"/>
	<path fill="#29E322" transform="scale(0.167014 0.167014)" d="M617.48 405.498L638.987 405.833C638.977 412.746 638.849 419.685 639.05 426.594C631.974 426.889 625.009 426.9 617.936 426.388C618.068 433.452 618.681 441.031 617.421 448.011C612.751 447.875 599.161 449.062 595.651 447.438C595.243 440.199 595.028 433.169 595.6 425.933C603.017 426.292 610.468 426.112 617.891 426.054C617.428 419.215 617.507 412.35 617.48 405.498Z"/>
	<path fill="#F49508" transform="scale(0.167014 0.167014)" d="M595.006 384.473Q595.336 405.06 595.015 425.647C588.62 426.199 582.247 425.8 575.848 425.479Q575.612 434.482 575.567 443.488C566.317 443.843 557.161 444.186 547.912 443.586C550.267 443.418 552.654 443.483 555.016 443.47L554.988 425.602C561.847 425.028 568.681 425.28 575.55 425.492Q575.503 415.878 575.897 406.272L575.979 384.487C582.32 384.415 588.665 384.466 595.006 384.473Z"/>
	<path fill="#2CC21E" transform="scale(0.167014 0.167014)" d="M660.618 383.884C660.927 384.179 661.17 384.565 661.546 384.769C663.274 385.705 678.917 385.068 682.085 385.025C680.391 391.007 681.513 399.217 681.492 405.496L660.885 405.493C660.357 412.485 660.468 419.501 660.47 426.508C653.322 426.499 646.152 426.367 639.007 426.522Q639.112 437.193 638.907 447.863C631.815 448.377 624.54 447.966 617.421 448.011C618.681 441.031 618.068 433.452 617.936 426.388C625.009 426.9 631.974 426.889 639.05 426.594C638.849 419.685 638.977 412.746 638.987 405.833L639.172 405.46C639.877 398.644 639.405 391.498 639.305 384.653C646.426 384.89 653.49 385.072 660.616 384.92L660.618 383.884Z"/>
	<path fill="#29E322" transform="scale(0.167014 0.167014)" d="M639.305 384.653C646.426 384.89 653.49 385.072 660.616 384.92C661.676 391.452 661.08 398.866 661.016 405.492C653.75 405.516 646.432 405.718 639.172 405.46C639.877 398.644 639.405 391.498 639.305 384.653Z"/>
	<path fill="#FEFA51" transform="scale(0.167014 0.167014)" d="M526.695 359.509Q558.912 359.194 591.113 360.228C592.451 360.485 593.734 360.552 594.706 361.6L594.59 363.492C588.236 365.001 581.882 364.33 575.427 363.972C575.722 370.8 576.054 377.652 575.979 384.487L575.897 406.272Q575.503 415.878 575.55 425.492C568.681 425.28 561.847 425.028 554.988 425.602L555.016 443.47C552.654 443.483 550.267 443.418 547.912 443.586C536.028 443.564 524.09 444.169 512.223 443.974L511.751 443.853C512.519 438.215 512.371 432.116 512.58 426.414L512.461 426.118L508.483 425.84C508.492 415.979 507.216 386.726 509.112 379.17C511.602 376.99 519.432 377.895 522.784 377.9C524.118 377.997 525.104 377.982 526.434 377.707C527.53 374.15 526.694 363.787 526.695 359.509Z"/>
	<path fill="#FDDB34" transform="scale(0.167014 0.167014)" d="M554.958 384.429C562.016 384.893 568.916 385.128 575.979 384.487L575.897 406.272C569.073 406.772 561.875 406.111 555.014 405.988C555.616 398.847 555.031 391.593 554.958 384.429Z"/>
	<path fill="#FEFEF5" transform="scale(0.167014 0.167014)" d="M526.695 359.509Q558.912 359.194 591.113 360.228C592.451 360.485 593.734 360.552 594.706 361.6L594.59 363.492C588.236 365.001 581.882 364.33 575.427 363.972Q553.455 364.109 531.482 363.932C531.649 368.553 533.134 378.048 529.548 381.537C527.077 383.942 522.84 383.705 519.67 383.495Q516.321 383.265 512.977 382.963Q512.986 404.544 512.461 426.118L508.483 425.84C508.492 415.979 507.216 386.726 509.112 379.17C511.602 376.99 519.432 377.895 522.784 377.9C524.118 377.997 525.104 377.982 526.434 377.707C527.53 374.15 526.694 363.787 526.695 359.509Z"/>
	<path fill="#FEC147" transform="scale(0.167014 0.167014)" d="M555.014 405.988C561.875 406.111 569.073 406.772 575.897 406.272Q575.503 415.878 575.55 425.492C568.681 425.28 561.847 425.028 554.988 425.602L555.016 443.47C552.654 443.483 550.267 443.418 547.912 443.586C536.028 443.564 524.09 444.169 512.223 443.974L511.751 443.853C512.519 438.215 512.371 432.116 512.58 426.414C517.851 424.529 545.974 426.526 554.992 425.651L555.014 405.988Z"/>
	<path fill="#FEFE83" transform="scale(0.167014 0.167014)" d="M722.079 107.974C730.227 106.83 738.999 107.405 747.209 107.51C746.706 114.818 747.041 122.311 747.161 129.636C732.676 128.074 717.958 128.9 703.422 129.277L703.44 149.285Q681.15 148.916 658.858 149.023L658.86 174.589Q640.965 174.629 623.07 174.49Q623.273 187.636 623.108 200.783Q611.81 201.041 600.512 200.797L600.542 218.915Q591.282 218.539 582.015 218.485C582.084 226.182 582.984 234.909 581.836 242.477C580.619 243.348 579.353 243.437 577.853 243.177C576.72 242.981 576.283 242.889 575.688 241.863C575.324 241.234 575.112 240.362 574.881 239.667C572.077 237.077 562.902 238.39 559.001 238.52L559.068 264.012L535.5 264.027L535.506 284.584L512.52 284.492L512.523 294.998L520.009 294.977L520.009 303.511L494.153 303.496C494.035 306.65 493.674 310.165 494.028 313.293C494.436 316.9 498.185 323.612 496.736 326.644C493.134 328.429 476.065 327.272 470.998 327.298L471.015 340.285L478.01 340.424L478.008 347.438C468.675 347.444 459.343 347.569 450.023 346.986C450.076 351.798 450.078 356.617 450.192 361.429L457.16 361.844L457.024 368.515C448.368 368.427 439.696 368.237 431.041 368.424L431.184 384.506L437.996 384.503L437.974 391.439L408.011 391.11L408.061 404.908L413.504 404.719L413.5 412.921Q400.009 412.761 386.52 412.443L386.521 425.229L393.056 425.437L393.054 432.012C384.386 432.009 375.686 432.147 367.026 431.781C366.799 437.131 366.521 442.411 367.16 447.749C368.847 448.001 370.354 448.041 371.655 449.265C372.585 451.156 372.188 453.541 372.101 455.599C362.554 455.578 353.001 455.625 343.455 455.493L343.455 470.582L352.399 470.605L352.252 477.105L321.326 477.016L321.392 490.914L328.784 490.988L328.757 498.012L302.078 497.488C302.008 502.096 301.879 506.665 302.369 511.256L302.397 511.549C304.259 512.986 305.648 514.126 305.841 516.604C305.915 517.555 305.542 517.913 305.112 518.716C296.265 519.909 286.443 518.984 277.453 519.005L277.471 532.072L285.564 532.083L285.536 539.912Q271.615 539.574 257.69 539.436L257.947 551.998L264.583 551.994L264.525 560.917L238.336 560.494C238.337 567.657 238.462 574.849 238.207 582.006L217.216 582.019Q217.57 592.976 217.497 603.938L194.506 604.023L194.419 623.507L171.477 623.496L171.521 662.495Q160.449 662.661 149.377 662.483L149.481 683.01L128.068 682.916C127.491 670.292 127.97 657.426 127.933 644.776C127.888 629.183 127.401 613.543 128.13 597.965C119.743 598.035 111.352 598.266 102.965 598.429C102.917 596.714 102.905 595.29 103.365 593.629C107.699 591.82 122.803 592.845 128.046 593.245C129.44 594.483 130.808 595.731 132.137 597.037C135.493 598.532 146.368 597.495 150.452 597.458L150.467 578.025L172.388 578.015C172.521 571.026 172.462 564.023 172.486 557.032L194.032 557.008L194.022 535.95L215.066 536.013C215.407 528.682 215.426 521.356 215.453 514.018Q226.281 514.063 237.108 514.254L237.042 494.019L257.709 493.992L257.595 472.027Q268.379 472.128 279.158 472.473L279.006 452.151C286.322 451.843 293.699 452.014 301.023 452.008L301.003 430.024L322.483 430.002L322.44 408.024Q332.742 407.938 343.038 408.301L343.017 386.917L365.496 386.762L365.493 365.523L386.163 365.509L386.02 343.52Q396.75 343.434 407.477 343.724L407.482 323.511C415.315 323.423 423.158 323.517 430.991 323.534C430.907 316.521 430.972 309.501 430.97 302.487C437.367 302.42 443.774 302.504 450.172 302.516L450.041 280.52L471.112 280.511L471.022 258.205C478.655 257.819 486.372 258.283 494.008 258.552L493.952 237.452C500.613 237.202 507.343 237.458 514.01 237.536L514.02 215.745Q524.524 215.722 535.025 215.993L535.005 194.425C542.352 194.208 549.652 194.29 556.998 194.506C556.854 187.431 556.951 180.336 556.94 173.26C568.938 173 580.96 173.068 592.961 172.995C592.179 165.135 592.628 157.211 592.918 149.336C608.327 149.497 623.739 149.341 639.146 149.768C639.216 143.189 639.136 136.603 639.125 130.024L659.049 130.007L659.007 109.482C669.809 109.363 714.252 111.899 721.57 109.472L722.079 107.974Z"/>
	<path fill="#D8420D" transform="scale(0.167014 0.167014)" d="M334.811 548.028L335.031 548.46C334.917 550.163 334.556 551.926 335.404 553.479C336.975 554.588 339.923 553.997 341.846 553.99L383.937 553.99L383.976 574.445L383.96 594.367Q383.822 605.22 383.51 616.069C383.512 621.665 383.74 627.389 383.393 632.968C383.192 634.967 382.724 637.567 383.504 639.485C384.155 646.435 383.504 653.484 384.046 660.479Q373.222 660.588 362.398 660.476L362.515 680.505C357.626 680.43 346.469 679.271 342.232 680.918L341.872 682.301Q342.115 692.058 342.104 701.817L325.203 701.608L320.02 702.099C313.286 703.911 305.323 703.079 298.392 702.99C298.864 709.215 298.196 715.244 298.453 721.363C296.91 724.78 297.876 735.868 297.944 740.088C291.296 740.003 284.634 740.013 277.998 739.562C278.12 747.235 278.403 754.944 278.286 762.617C272.876 762.871 260.546 761.975 256.141 763.298C254.42 769.722 255.702 777.509 255.981 784.122C255.874 790.452 255.675 796.791 255.954 803.118C255.958 810.179 255.882 817.251 255.993 824.311C255.979 828.681 256.147 833.129 255.922 837.488C255.377 842.639 256.454 861.022 255.035 864.005Q243.986 863.835 232.938 864.014L232.661 860.138C213.6 861.917 193.852 861.445 174.691 861.44C166.295 861.438 157.251 860.129 149.004 861.931Q149.102 852.957 149.366 843.987L129.293 844.003L129.486 824.551L113.912 825.01C114.114 811.994 113.846 798.971 114.048 785.953L113.762 784.024C114.356 777.866 113.844 771.314 113.686 765.127Q121.242 765.057 128.798 765.079C128.206 750.957 128.677 736.705 128.449 722.558C131.731 722.479 135.184 722.176 138.45 722.403C141.706 721.967 145.204 722.103 148.498 722.016C148.639 716.101 149.036 709.699 148.16 703.847C148.34 702.507 148.245 701.802 149.31 700.853C152.074 698.389 160.83 699.859 164.384 700.037L162.292 685.642C165.268 685.551 168.037 685.325 170.967 684.773C170.969 684.627 170.956 684.479 170.973 684.334C171.071 683.537 171.058 682.926 171.724 682.422C174.041 680.67 179.258 681.825 182.066 682.067L182.008 660.974L190.506 660.804L194.458 661.072C200.035 662.474 207.573 661.532 213.345 661.421C213.984 654.258 213.601 647.182 213.498 640.007L236.018 639.993L235.967 618L256.354 617.98Q256.354 611.51 256.192 605.043C258.577 603.102 259.579 600.217 260.429 597.368C264.783 597.522 269.212 597.355 273.549 597.622C274.737 597.628 275.432 597.607 276.498 597.061C277.642 595.326 277.818 593.561 277.709 591.526C277.569 588.888 277.542 586.253 277.499 583.612C280.183 583.553 283.656 583.607 285.955 582.055C288.082 580.618 288.392 578.414 288.753 576.048Q294.556 576.125 300.357 575.989C298.341 570.816 297.672 562.601 299.482 557.317C302.918 558.033 315.783 557.462 320.064 557.521L319.932 547.997L334.811 548.028Z"/>
	<path fill="#CB2A01" transform="scale(0.167014 0.167014)" d="M113.762 784.024C118.603 783.857 123.426 783.869 128.267 783.914C134.424 784.157 141.491 783.217 147.469 784.273C144.425 786.994 119.596 785.576 114.048 785.953L113.762 784.024Z"/>
	<path fill="#CB2A01" transform="scale(0.167014 0.167014)" d="M321.017 683.053C328.002 683.195 334.942 683.372 341.872 682.301Q342.115 692.058 342.104 701.817L325.203 701.608C323.66 701.534 321.991 701.654 320.612 700.884Q321.093 691.975 321.017 683.053Z"/>
	<path fill="#D05F1D" transform="scale(0.167014 0.167014)" d="M128.798 765.079C135.351 764.87 141.927 764.535 148.482 764.652L148.462 783.645C141.927 783.565 134.733 782.999 128.267 783.914C123.426 783.869 118.603 783.857 113.762 784.024C114.356 777.866 113.844 771.314 113.686 765.127Q121.242 765.057 128.798 765.079Z"/>
	<path fill="#A62F15" transform="scale(0.167014 0.167014)" d="M231.924 765.022C238.683 765.129 250.162 766.709 256.141 763.298C254.42 769.722 255.702 777.509 255.981 784.122C255.874 790.452 255.675 796.791 255.954 803.118C255.958 810.179 255.882 817.251 255.993 824.311C255.979 828.681 256.147 833.129 255.922 837.488C255.377 842.639 256.454 861.022 255.035 864.005Q243.986 863.835 232.938 864.014L232.661 860.138C213.6 861.917 193.852 861.445 174.691 861.44C166.295 861.438 157.251 860.129 149.004 861.931Q149.102 852.957 149.366 843.987L129.293 844.003L129.486 824.551C136.322 824.182 143.321 824.495 150.174 824.495L191.025 824.497L191.021 805.547L210.009 805.757L210.002 784.013L231.989 783.999C231.901 777.676 231.937 771.347 231.924 765.022Z"/>
	<path fill="#E77803" transform="scale(0.167014 0.167014)" d="M232.668 837.503L255.922 837.488C255.377 842.639 256.454 861.022 255.035 864.005Q243.986 863.835 232.938 864.014L232.661 860.138C232.904 852.612 232.702 845.035 232.668 837.503Z"/>
	<path fill="#D05F1D" transform="scale(0.167014 0.167014)" d="M334.811 548.028L335.031 548.46C334.917 550.163 334.556 551.926 335.404 553.479C336.975 554.588 339.923 553.997 341.846 553.99L383.937 553.99L383.976 574.445L383.96 594.367Q383.822 605.22 383.51 616.069C383.512 621.665 383.74 627.389 383.393 632.968Q368.808 633.072 354.224 632.826C342.823 633.2 331.394 633.004 319.989 632.965L319.914 639.938C312.855 640.463 305.958 640.277 298.893 639.933C298.891 642.325 298.824 644.736 298.914 647.125C291.9 647.231 284.847 647.484 277.834 647.336L277.993 661.55C270.691 661.554 263.369 661.668 256.071 661.466C256.689 675.301 256.545 689.188 256.459 703.034C248.124 703.02 239.773 703.117 231.44 702.978L231.482 722.018C224.346 722.046 217.191 722.182 210.057 722.028C210.258 729.208 210.487 736.378 210.335 743.561C203.901 743.527 197.453 743.585 191.021 743.445C191.036 750.594 191.177 757.769 191.003 764.915C176.977 765.027 162.755 765.569 148.759 764.529C148.447 750.476 149.608 736.445 148.656 722.394C145.277 722.5 141.814 722.757 138.45 722.403C141.706 721.967 145.204 722.103 148.498 722.016C148.639 716.101 149.036 709.699 148.16 703.847C148.34 702.507 148.245 701.802 149.31 700.853C152.074 698.389 160.83 699.859 164.384 700.037L162.292 685.642C165.268 685.551 168.037 685.325 170.967 684.773C170.969 684.627 170.956 684.479 170.973 684.334C171.071 683.537 171.058 682.926 171.724 682.422C174.041 680.67 179.258 681.825 182.066 682.067L182.008 660.974L190.506 660.804L194.458 661.072C200.035 662.474 207.573 661.532 213.345 661.421C213.984 654.258 213.601 647.182 213.498 640.007L236.018 639.993L235.967 618L256.354 617.98Q256.354 611.51 256.192 605.043C258.577 603.102 259.579 600.217 260.429 597.368C264.783 597.522 269.212 597.355 273.549 597.622C274.737 597.628 275.432 597.607 276.498 597.061C277.642 595.326 277.818 593.561 277.709 591.526C277.569 588.888 277.542 586.253 277.499 583.612C280.183 583.553 283.656 583.607 285.955 582.055C288.082 580.618 288.392 578.414 288.753 576.048Q294.556 576.125 300.357 575.989C298.341 570.816 297.672 562.601 299.482 557.317C302.918 558.033 315.783 557.462 320.064 557.521L319.932 547.997L334.811 548.028Z"/>
	<path fill="#D8420D" transform="scale(0.167014 0.167014)" d="M299.482 557.317C300.194 557.555 301.173 557.618 301.542 558.324C303.463 561.993 302.68 571.063 301.389 574.973L300.357 575.989C298.341 570.816 297.672 562.601 299.482 557.317Z"/>
	<path fill="#CB2A01" transform="scale(0.167014 0.167014)" d="M182.008 660.974L190.506 660.804C190.607 668.168 190.829 675.557 190.668 682.92C188.043 682.755 184.502 682.92 182.066 682.067L182.008 660.974Z"/>
	<path fill="#CB2A01" transform="scale(0.167014 0.167014)" d="M170.967 684.773C173.063 690.368 172.191 697.565 171.994 703.462C164.095 703.86 156.064 704.411 148.16 703.847C148.34 702.507 148.245 701.802 149.31 700.853C152.074 698.389 160.83 699.859 164.384 700.037L162.292 685.642C165.268 685.551 168.037 685.325 170.967 684.773Z"/>
	<path fill="#FEFA51" transform="scale(0.167014 0.167014)" d="M341.846 553.99L383.937 553.99L383.976 574.445L383.96 594.367Q383.822 605.22 383.51 616.069C383.512 621.665 383.74 627.389 383.393 632.968Q368.808 633.072 354.224 632.826C342.823 633.2 331.394 633.004 319.989 632.965L319.998 616.024L319.995 568.569C327.316 568.531 334.661 568.784 341.983 568.904L341.846 553.99Z"/>
	<path fill="#FDDB34" transform="scale(0.167014 0.167014)" d="M364.637 594.484Q374.3 594.62 383.96 594.367Q383.822 605.22 383.51 616.069C383.512 621.665 383.74 627.389 383.393 632.968Q368.808 633.072 354.224 632.826C342.823 633.2 331.394 633.004 319.989 632.965L319.998 616.024C334.793 616.027 349.589 615.57 364.389 615.552C364.993 608.487 364.879 601.559 364.637 594.484Z"/>
	<path fill="#FEC147" transform="scale(0.167014 0.167014)" d="M364.078 615.938Q373.795 615.923 383.51 616.069C383.512 621.665 383.74 627.389 383.393 632.968Q368.808 633.072 354.224 632.826C357.487 632.182 360.726 632.475 364.023 632.648L364.078 615.938Z"/>
	<path fill="#F49508" transform="scale(0.167014 0.167014)" d="M852.744 233.578Q863.948 233.3 875.153 233.537L875.001 319.546L854.21 319.494C854.732 333.723 854.355 347.841 854.047 362.063L831.971 361.936C832.546 369.291 832.567 376.64 832.565 384.014L805.482 384.034L805.505 404.118L784.919 404.024C785.023 411.178 785.224 418.348 785.148 425.502C779.085 425.547 773.014 425.512 766.962 425.934C767.101 433.276 767.399 440.658 767.242 447.999C760.002 447.916 752.716 448.004 745.484 447.701L745.501 466.868Q733.952 466.667 722.406 466.341C722.882 474.158 723.427 482.002 723.402 489.838L702.449 489.423L702.501 509.847L682.479 509.945L682.568 531.508L659.908 531.49L659.938 553.013C653.147 552.923 646.277 553.045 639.499 552.693L639.472 575.866L617.053 575.903C617.141 582.27 617.331 588.652 617.135 595.017L595.857 594.938L595.978 617.059C589.055 617.079 582.027 617.332 575.153 616.377L575.028 639.494C567.999 639.775 560.941 640.087 553.906 640.036L553.986 659.356Q547.626 659.174 541.266 659.355L537.735 659.516L537.6 660.139C536.465 665.641 537.894 676.601 532.977 680.142C532.725 680.323 532.457 680.481 532.198 680.65C525.187 682.246 518.001 680.999 510.908 680.996L510.976 702.568C503.815 702.616 496.644 702.75 489.484 702.698L489.506 722.005L468.983 722.065L468.991 744.512C461.946 744.294 454.933 744.134 447.884 744.279L447.971 765.497Q426.471 765.912 404.967 765.931L404.995 783.509L363.392 783.369L363.498 806.009C348.82 806.035 333.987 806.586 319.332 806.282C319.448 801.281 320.793 787.813 318.365 783.628L316.588 783.288C317.448 783.241 317.769 783.133 318.535 782.801C320.259 778.591 319.296 772.469 319.081 767.961C312.657 768.077 305.068 768.748 298.911 766.581C292.155 765.649 285.16 765.948 278.346 766.033C278.274 771.81 278.041 777.65 278.209 783.423C270.886 784.335 263.356 784.026 255.981 784.122C255.702 777.509 254.42 769.722 256.141 763.298C260.546 761.975 272.876 762.871 278.286 762.617C278.403 754.944 278.12 747.235 277.998 739.562C284.634 740.013 291.296 740.003 297.944 740.088C297.876 735.868 296.91 724.78 298.453 721.363C298.196 715.244 298.864 709.215 298.392 702.99C305.323 703.079 313.286 703.911 320.02 702.099L325.203 701.608L342.104 701.817Q342.115 692.058 341.872 682.301L342.232 680.918C346.469 679.271 357.626 680.43 362.515 680.505L362.398 660.476Q373.222 660.588 384.046 660.479C383.504 653.484 384.155 646.435 383.504 639.485C382.724 637.567 383.192 634.967 383.393 632.968C383.74 627.389 383.512 621.665 383.51 616.069Q383.822 605.22 383.96 594.367L383.976 574.445L383.937 553.99C390.367 554.066 396.7 553.842 403.11 553.393L403.901 549.434C404.454 548.474 405.303 548.292 406.276 547.813C408.014 549.296 409.311 549.738 411.555 550.019L448.907 549.993C455.607 549.998 463.616 549.24 470.116 550.698L470.867 551.609C477.162 552.539 483.948 552.051 490.302 551.997C490.472 548.363 490.445 535.068 492.472 532.744L491.407 532.152C491.746 525.557 491.5 518.833 491.508 512.222C496.171 511.228 501.089 513.182 507.794 511.451C506.985 504.193 507.822 496.973 507.524 489.692C507.895 482.829 507.978 475.972 508.056 469.1L505.251 469.176L491.368 469.021L491.61 464.512C493.493 464.498 495.361 464.261 497.232 464.065L492.244 463.851C491.163 459.579 491.944 453.488 491.946 449.007C498.832 449.127 505.651 449.158 512.505 448.395L512.448 448.144C519.531 447.902 547.881 447.135 553.064 448.616L553.778 449.004C554.526 454.006 554.595 463.669 553.532 468.542C560.687 468.64 567.881 469.07 575.028 469.019C575.911 467.263 575.595 464.661 575.605 462.712C575.235 457.883 575.492 452.861 575.471 448.009Q583.092 447.903 590.71 448.15C592.318 448.15 594.312 448.415 595.651 447.438C599.161 449.062 612.751 447.875 617.421 448.011C624.54 447.966 631.815 448.377 638.907 447.863Q639.112 437.193 639.007 426.522C646.152 426.367 653.322 426.499 660.47 426.508C660.468 419.501 660.357 412.485 660.885 405.493L681.492 405.496C681.513 399.217 680.391 391.007 682.085 385.025C678.917 385.068 663.274 385.705 661.546 384.769C661.17 384.565 660.927 384.179 660.618 383.884C660.367 376.595 660.48 369.287 660.507 361.995L682.336 362.054C681.433 355.802 681.475 347.897 682.705 341.736L682.968 341.481L692.127 341.664C694.793 341.66 702.167 342.457 704.113 340.949C703.808 334.595 703.937 328.225 703.975 321.866C710.584 321.956 717.197 322.121 723.804 321.872L724.093 321.411C723.872 317.813 724.011 314.131 724.003 310.522C731.34 310.566 738.645 309.922 745.978 310.509Q745.901 300.366 746.058 290.225L746.35 289.966C746.678 284.478 746.548 278.929 746.808 273.425C753.718 273.456 761.1 274.583 767.902 273.158L768.046 273.427C774.497 273.65 781.008 273.502 787.466 273.535L787.455 249.01Q796.274 248.941 805.076 249.49C804.918 244.16 804.988 238.798 804.958 233.465L831.062 233.535L832.415 233.752Q842.583 234.013 852.744 233.578Z"/>
	<path fill="#E77803" transform="scale(0.167014 0.167014)" d="M510.806 658.99C515.21 659.191 519.653 659.442 524.061 659.365C529.809 659.265 535.537 658.649 541.266 659.355L537.735 659.516L537.6 660.139C536.465 665.641 537.894 676.601 532.977 680.142C532.725 680.323 532.457 680.481 532.198 680.65C525.187 682.246 518.001 680.999 510.908 680.996L510.806 658.99Z"/>
	<path fill="#D8420D" transform="scale(0.167014 0.167014)" d="M532.198 680.65C531.826 674.237 531.191 666.126 532.255 659.83C533.85 659.135 536.004 659.456 537.735 659.516L537.6 660.139C536.465 665.641 537.894 676.601 532.977 680.142C532.725 680.323 532.457 680.481 532.198 680.65Z"/>
	<path fill="#188D08" transform="scale(0.167014 0.167014)" d="M470.017 618.713C476.875 619.037 483.76 619.227 490.571 618.239L490.488 639.725Q479.842 639.455 469.194 639.563C468.114 646.503 468.471 653.5 468.681 660.493C462.27 660.422 454.731 659.622 448.43 660.771C448.826 653.636 449.08 646.582 448.504 639.445C455.459 639.553 462.426 639.452 469.382 639.431C470.156 632.521 470.098 625.652 470.017 618.713Z"/>
	<path fill="#188D08" transform="scale(0.167014 0.167014)" d="M426.506 661.019C433.387 661.073 441.401 659.917 448.116 660.847Q447.938 670.92 447.993 680.994C440.805 680.986 433.702 681.089 426.527 681.559L426.485 701.98C419.192 701.991 411.85 701.84 404.568 702.235C404.693 709.15 404.912 716.079 404.897 722.994L383.966 723.002L384.032 702.104L404.498 701.99C404.18 695.331 404.316 688.648 404.34 681.984Q415.461 682.322 426.548 681.399C426.097 674.587 426.272 667.832 426.506 661.019Z"/>
	<path fill="#188D08" transform="scale(0.167014 0.167014)" d="M724.093 321.411C731.298 321.778 738.358 321.003 745.515 320.288L745.447 341.591C738.519 341.63 731.588 341.608 724.668 341.999C724.703 348.856 725.001 355.812 724.14 362.628C731.426 362.187 738.708 362.891 745.964 362.423L745.834 383.996Q734.672 383.814 723.51 383.992L723.494 404.711Q712.892 404.515 702.289 404.594C702.356 411.858 702.49 419.129 702.469 426.393C695.315 426.251 688.126 425.972 680.975 426.226L681.025 447.933C674.018 447.922 666.995 447.822 659.99 447.987L660.017 468.075Q649.257 467.99 638.508 468.483C638.923 461.629 638.852 454.729 638.907 447.863Q639.112 437.193 639.007 426.522C646.152 426.367 653.322 426.499 660.47 426.508C660.468 419.501 660.357 412.485 660.885 405.493L681.492 405.496C681.513 399.217 680.391 391.007 682.085 385.025C678.917 385.068 663.274 385.705 661.546 384.769C661.17 384.565 660.927 384.179 660.618 383.884C660.367 376.595 660.48 369.287 660.507 361.995L682.336 362.054C681.433 355.802 681.475 347.897 682.705 341.736L682.968 341.481L692.127 341.664C694.793 341.66 702.167 342.457 704.113 340.949C703.808 334.595 703.937 328.225 703.975 321.866C710.584 321.956 717.197 322.121 723.804 321.872L724.093 321.411Z"/>
	<path fill="#2CC21E" transform="scale(0.167014 0.167014)" d="M724.093 321.411C731.298 321.778 738.358 321.003 745.515 320.288L745.447 341.591C738.519 341.63 731.588 341.608 724.668 341.999C724.703 348.856 725.001 355.812 724.14 362.628C717.425 362.434 710.734 362.268 704.017 362.456L703.998 384.56C696.725 384.561 689.325 384.306 682.085 385.025C678.917 385.068 663.274 385.705 661.546 384.769C661.17 384.565 660.927 384.179 660.618 383.884C660.367 376.595 660.48 369.287 660.507 361.995L682.336 362.054C681.433 355.802 681.475 347.897 682.705 341.736L682.968 341.481L692.127 341.664C694.793 341.66 702.167 342.457 704.113 340.949C703.808 334.595 703.937 328.225 703.975 321.866C710.584 321.956 717.197 322.121 723.804 321.872L724.093 321.411Z"/>
	<path fill="#29E322" transform="scale(0.167014 0.167014)" d="M703.975 321.866C710.584 321.956 717.197 322.121 723.804 321.872C725.965 327.095 725.283 336.435 724.473 342.001C718.466 342.014 709.599 343.171 704.113 340.949C703.808 334.595 703.937 328.225 703.975 321.866Z"/>
	<path fill="#29E322" transform="scale(0.167014 0.167014)" d="M682.968 341.481L692.127 341.664C694.433 343.016 701.092 342.16 704.057 342.173L704.057 362.457C696.76 362.885 689.724 363.173 682.433 362.323C683.141 369.221 684.378 378.318 682.085 385.025C678.917 385.068 663.274 385.705 661.546 384.769C661.17 384.565 660.927 384.179 660.618 383.884C660.367 376.595 660.48 369.287 660.507 361.995L682.336 362.054C681.433 355.802 681.475 347.897 682.705 341.736L682.968 341.481Z"/>
	<path fill="#269D19" transform="scale(0.167014 0.167014)" d="M831.062 233.535L832.415 233.752Q842.583 234.013 852.744 233.578L852.564 285.912C837.335 285.593 822.093 285.509 806.869 285.061L806.991 318.99C800.167 318.998 793.291 318.855 786.478 319.215L786.436 341.529C779.654 341.038 772.905 340.927 766.106 341.011C766.121 348.024 766.227 355.049 766.12 362.059C761.85 362.004 749.475 360.992 745.964 362.423C738.708 362.891 731.426 362.187 724.14 362.628C725.001 355.812 724.703 348.856 724.668 341.999C731.588 341.608 738.519 341.63 745.447 341.591L745.515 320.288C738.358 321.003 731.298 321.778 724.093 321.411C723.872 317.813 724.011 314.131 724.003 310.522C731.34 310.566 738.645 309.922 745.978 310.509Q745.901 300.366 746.058 290.225L746.35 289.966C746.678 284.478 746.548 278.929 746.808 273.425C753.718 273.456 761.1 274.583 767.902 273.158L768.046 273.427C774.497 273.65 781.008 273.502 787.466 273.535L787.455 249.01Q796.274 248.941 805.076 249.49C804.918 244.16 804.988 238.798 804.958 233.465L831.062 233.535Z"/>
	<path fill="#29E322" transform="scale(0.167014 0.167014)" d="M831.062 233.535L832.415 233.752L831.653 234.318C830.878 241.543 831.594 249.217 831.496 256.504L808.46 256.504L808.437 275.452C801.628 275.528 794.829 275.655 788.025 275.296C786.964 283.246 787.274 290.977 787.435 298.959L766.971 298.979L766.988 320.022C759.971 319.89 752.478 319.3 745.515 320.288C738.358 321.003 731.298 321.778 724.093 321.411C723.872 317.813 724.011 314.131 724.003 310.522C731.34 310.566 738.645 309.922 745.978 310.509Q745.901 300.366 746.058 290.225L746.35 289.966C746.678 284.478 746.548 278.929 746.808 273.425C753.718 273.456 761.1 274.583 767.902 273.158L768.046 273.427C774.497 273.65 781.008 273.502 787.466 273.535L787.455 249.01Q796.274 248.941 805.076 249.49C804.918 244.16 804.988 238.798 804.958 233.465L831.062 233.535Z"/>
	<path fill="#CB2A01" transform="scale(0.167014 0.167014)" d="M767.902 273.158L768.046 273.427Q767.906 281.672 767.916 289.919C760.734 289.931 753.53 289.821 746.35 289.966C746.678 284.478 746.548 278.929 746.808 273.425C753.718 273.456 761.1 274.583 767.902 273.158Z"/>
	<path fill="#269D19" transform="scale(0.167014 0.167014)" d="M595.651 447.438C599.161 449.062 612.751 447.875 617.421 448.011C624.54 447.966 631.815 448.377 638.907 447.863C638.852 454.729 638.923 461.629 638.508 468.483L638.513 489.49C631.523 489.505 624.466 489.333 617.487 489.682L617.59 511.967C610.386 511.928 603.164 511.791 595.962 511.963L595.966 532.993C588.992 533.006 581.988 532.893 575.019 533.139L575.007 553.944C568.172 554.592 561.312 554.566 554.454 554.37C553.087 557.267 553.894 563.454 553.885 566.785Q553.988 571.164 553.946 575.545C546.946 575.199 540.029 574.904 533.019 575.131L532.876 584.286Q533.019 590.392 532.982 596.499C527.241 596.551 521.23 596.967 515.518 596.597C513.876 596.765 513.041 596.568 511.816 597.72C510.681 600.927 511.547 604.502 511.357 607.877L511.483 617.693C505.508 617.525 499.467 617.259 493.501 617.707L490.571 618.239C483.76 619.227 476.875 619.037 470.017 618.713C470.098 625.652 470.156 632.521 469.382 639.431C462.426 639.452 455.459 639.553 448.504 639.445C449.08 646.582 448.826 653.636 448.43 660.771L448.116 660.847C441.401 659.917 433.387 661.073 426.506 661.019C426.272 667.832 426.097 674.587 426.548 681.399Q415.461 682.322 404.34 681.984C404.316 688.648 404.18 695.331 404.498 701.99L384.032 702.104L383.966 723.002L383.86 726.884C383.994 732.325 384.083 737.607 383.208 743.003C376.59 742.622 370.046 741.927 363.504 743.312L363.369 746.077Q363.583 755.026 363.497 763.978C348.809 763.937 334.046 763.617 319.365 764.025L319.081 767.961C312.657 768.077 305.068 768.748 298.911 766.581C292.155 765.649 285.16 765.948 278.346 766.033C278.274 771.81 278.041 777.65 278.209 783.423C270.886 784.335 263.356 784.026 255.981 784.122C255.702 777.509 254.42 769.722 256.141 763.298C260.546 761.975 272.876 762.871 278.286 762.617C278.403 754.944 278.12 747.235 277.998 739.562C284.634 740.013 291.296 740.003 297.944 740.088C297.876 735.868 296.91 724.78 298.453 721.363C298.196 715.244 298.864 709.215 298.392 702.99C305.323 703.079 313.286 703.911 320.02 702.099L325.203 701.608L342.104 701.817Q342.115 692.058 341.872 682.301L342.232 680.918C346.469 679.271 357.626 680.43 362.515 680.505L362.398 660.476Q373.222 660.588 384.046 660.479C383.504 653.484 384.155 646.435 383.504 639.485C382.724 637.567 383.192 634.967 383.393 632.968C383.74 627.389 383.512 621.665 383.51 616.069Q383.822 605.22 383.96 594.367L383.976 574.445L383.937 553.99C390.367 554.066 396.7 553.842 403.11 553.393L403.901 549.434C404.454 548.474 405.303 548.292 406.276 547.813C408.014 549.296 409.311 549.738 411.555 550.019L448.907 549.993C455.607 549.998 463.616 549.24 470.116 550.698L470.867 551.609C477.162 552.539 483.948 552.051 490.302 551.997C490.472 548.363 490.445 535.068 492.472 532.744L491.407 532.152C491.746 525.557 491.5 518.833 491.508 512.222C496.171 511.228 501.089 513.182 507.794 511.451C506.985 504.193 507.822 496.973 507.524 489.692C507.895 482.829 507.978 475.972 508.056 469.1L505.251 469.176L491.368 469.021L491.61 464.512C493.493 464.498 495.361 464.261 497.232 464.065L492.244 463.851C491.163 459.579 491.944 453.488 491.946 449.007C498.832 449.127 505.651 449.158 512.505 448.395L512.448 448.144C519.531 447.902 547.881 447.135 553.064 448.616L553.778 449.004C554.526 454.006 554.595 463.669 553.532 468.542C560.687 468.64 567.881 469.07 575.028 469.019C575.911 467.263 575.595 464.661 575.605 462.712C575.235 457.883 575.492 452.861 575.471 448.009Q583.092 447.903 590.71 448.15C592.318 448.15 594.312 448.415 595.651 447.438Z"/>
	<path fill="#188D08" transform="scale(0.167014 0.167014)" d="M363.401 723.992C367.969 723.939 372.682 724.105 377.23 723.761C378.713 723.649 381.109 722.738 382.48 723.015C382.861 723.092 383.173 723.369 383.519 723.545C383.457 724.527 383.319 725.508 383.655 726.453C383.708 726.603 383.792 726.74 383.86 726.884C383.994 732.325 384.083 737.607 383.208 743.003C376.59 742.622 370.046 741.927 363.504 743.312C363.303 736.885 363.413 730.424 363.401 723.992Z"/>
	<path fill="#188D08" transform="scale(0.167014 0.167014)" d="M490.982 596.892C497.659 596.553 504.307 596.344 510.985 596.765C510.906 599.544 510.079 605.625 511.357 607.877L511.483 617.693C505.508 617.525 499.467 617.259 493.501 617.707L490.908 617.392C489.443 614.674 490.86 601.061 490.982 596.892Z"/>
	<path fill="#188D08" transform="scale(0.167014 0.167014)" d="M532.994 554.552C539.848 554.25 546.739 554.385 553.602 554.211C553.41 558.269 552.954 562.819 553.885 566.785Q553.988 571.164 553.946 575.545C546.946 575.199 540.029 574.904 533.019 575.131L532.994 554.552Z"/>
	<path fill="#188D08" transform="scale(0.167014 0.167014)" d="M511.849 575.963C518.771 576.071 525.604 576.067 532.494 575.318C532.416 578.301 532.156 581.366 532.876 584.286Q533.019 590.392 532.982 596.499C527.241 596.551 521.23 596.967 515.518 596.597C514.226 596.494 512.981 596.309 511.704 596.099C510.299 591.103 511.653 581.343 511.849 575.963Z"/>
	<path fill="#2CC21E" transform="scale(0.167014 0.167014)" d="M511.066 533.402L511.273 533.237C518.339 534.697 525.943 534.082 533.122 533.91L532.995 554.959C525.886 554.951 518.794 554.601 511.689 554.546C504.853 554.494 497.91 554.739 491.089 554.221C497.475 553.251 504.934 554.067 511.421 554.215C511.519 547.777 512.46 539.632 511.066 533.402Z"/>
	<path fill="#188D08" transform="scale(0.167014 0.167014)" d="M320.513 744.994C325.264 745.048 361.007 744.559 362.479 745.277C362.837 745.452 363.072 745.81 363.369 746.077Q363.583 755.026 363.497 763.978C348.809 763.937 334.046 763.617 319.365 764.025C320.383 757.865 320.364 751.233 320.513 744.994Z"/>
	<path fill="#188D08" transform="scale(0.167014 0.167014)" d="M617.058 468.803C624.162 468.254 631.383 468.481 638.508 468.483L638.513 489.49C631.523 489.505 624.466 489.333 617.487 489.682L617.59 511.967C610.386 511.928 603.164 511.791 595.962 511.963L595.966 532.993C588.992 533.006 581.988 532.893 575.019 533.139L575.007 553.944C568.172 554.592 561.312 554.566 554.454 554.37C553.237 552.259 553.941 536.62 553.957 533.143L575.005 532.969L574.983 511.995Q585.272 512.052 595.557 511.78Q595.291 500.884 595.566 489.989C602.884 490.003 610.175 490.082 617.476 489.506C616.59 482.726 617 475.628 617.058 468.803Z"/>
	<path fill="#2CC21E" transform="scale(0.167014 0.167014)" d="M595.651 447.438C599.161 449.062 612.751 447.875 617.421 448.011C616.796 454.994 617.785 461.962 616.978 468.938L596.039 468.98C595.52 476.011 595.513 482.992 595.522 490.038C588.688 489.814 581.88 489.539 575.052 490.07L575.021 512.009C567.815 511.797 560.743 511.603 553.544 512.051Q553.896 522.588 553.988 533.131L533.426 533.482C533.713 526.398 533.505 519.228 533.519 512.134Q543.513 513.007 553.505 512.11C553.409 504.763 554.27 497.15 553.325 489.853L553.437 489.36C553.706 482.449 553.525 475.46 553.532 468.542C560.687 468.64 567.881 469.07 575.028 469.019C575.911 467.263 575.595 464.661 575.605 462.712C575.235 457.883 575.492 452.861 575.471 448.009Q583.092 447.903 590.71 448.15C592.318 448.15 594.312 448.415 595.651 447.438Z"/>
	<path fill="#29E322" transform="scale(0.167014 0.167014)" d="M575.471 448.009Q583.092 447.903 590.71 448.15C592.385 448.445 594.04 448.672 595.733 448.829C597.779 454.111 596.406 463.374 595.959 469.006C589.284 469.045 582.601 469.157 575.927 469.111C576.042 466.867 576.169 464.918 575.605 462.712C575.235 457.883 575.492 452.861 575.471 448.009Z"/>
	<path fill="#29E322" transform="scale(0.167014 0.167014)" d="M553.532 468.542C560.687 468.64 567.881 469.07 575.028 469.019C576.824 474.101 575.338 484.868 575.021 490.395C568.902 490.591 559.022 492.035 553.437 489.36C553.706 482.449 553.525 475.46 553.532 468.542Z"/>
	<path fill="#D8420D" transform="scale(0.167014 0.167014)" d="M512.448 448.144C519.531 447.902 547.881 447.135 553.064 448.616L553.778 449.004C554.526 454.006 554.595 463.669 553.532 468.542C553.525 475.46 553.706 482.449 553.437 489.36L553.325 489.853C554.27 497.15 553.409 504.763 553.505 512.11Q543.513 513.007 533.519 512.134C533.505 519.228 533.713 526.398 533.426 533.482L533.122 533.91C525.943 534.082 518.339 534.697 511.273 533.237L511.066 533.402C505.125 532.426 498.507 532.951 492.472 532.744L491.407 532.152C491.746 525.557 491.5 518.833 491.508 512.222C496.171 511.228 501.089 513.182 507.794 511.451C506.985 504.193 507.822 496.973 507.524 489.692C507.895 482.829 507.978 475.972 508.056 469.1L505.251 469.176L491.368 469.021L491.61 464.512C493.493 464.498 495.361 464.261 497.232 464.065L492.244 463.851C491.163 459.579 491.944 453.488 491.946 449.007C498.832 449.127 505.651 449.158 512.505 448.395L512.448 448.144Z"/>
	<path fill="#A62F15" transform="scale(0.167014 0.167014)" d="M512.448 448.144C519.531 447.902 547.881 447.135 553.064 448.616C547.033 449.583 516.185 448.611 513.761 449.925Q513.432 469.957 513.532 489.992C511.602 489.963 509.399 490.142 507.524 489.692C507.895 482.829 507.978 475.972 508.056 469.1L505.251 469.176L491.368 469.021L491.61 464.512C493.493 464.498 495.361 464.261 497.232 464.065L492.244 463.851C491.163 459.579 491.944 453.488 491.946 449.007C498.832 449.127 505.651 449.158 512.505 448.395L512.448 448.144Z"/>
	<path fill="#FEFDBB" transform="scale(0.167014 0.167014)" d="M497.232 464.065C500.232 463.983 503.901 463.34 506.677 464.555C508.022 466.126 508.041 467.039 508.056 469.1L505.251 469.176L491.368 469.021L491.61 464.512C493.493 464.498 495.361 464.261 497.232 464.065Z"/>
	<path fill="#29E322" transform="scale(0.167014 0.167014)" d="M532.455 489.949Q542.891 490.135 553.325 489.853C554.27 497.15 553.409 504.763 553.505 512.11Q543.513 513.007 533.519 512.134C533.505 519.228 533.713 526.398 533.426 533.482L533.122 533.91C525.943 534.082 518.339 534.697 511.273 533.237L511.066 533.402C505.125 532.426 498.507 532.951 492.472 532.744L491.407 532.152C491.746 525.557 491.5 518.833 491.508 512.222C496.171 511.228 501.089 513.182 507.794 511.451C508.873 511.38 509.926 511.336 510.99 511.128C518.195 510.419 525.528 511.628 532.837 510.912C532.267 503.965 532.456 496.917 532.455 489.949Z"/>
	<path fill="#CB2A01" transform="scale(0.167014 0.167014)" d="M507.794 511.451C508.873 511.38 509.926 511.336 510.99 511.128C511.307 518.473 511.815 525.892 511.273 533.237L511.066 533.402C505.125 532.426 498.507 532.951 492.472 532.744L491.407 532.152C491.746 525.557 491.5 518.833 491.508 512.222C496.171 511.228 501.089 513.182 507.794 511.451Z"/>
	<path fill="#29E322" transform="scale(0.167014 0.167014)" d="M492.472 532.744C498.507 532.951 505.125 532.426 511.066 533.402C512.46 539.632 511.519 547.777 511.421 554.215C504.934 554.067 497.475 553.251 491.089 554.221C491.594 561.485 491.734 568.767 490.913 576.013C484.281 576.052 477.567 576.282 470.978 575.39Q471.128 586.426 471.002 597.462C463.768 597.551 456.166 598.078 448.991 597.016L448.997 618.076Q438.003 618.134 427.011 617.917Q427.123 628.965 427.025 640.013L405.463 639.986Q405.557 650.5 405.515 661.015C398.435 661.36 391.524 661.612 384.449 660.915C384.74 667.944 385.073 674.968 384.773 682.003C377.804 682.095 370.35 682.618 363.44 681.624Q363.564 692.606 363.454 703.589L342.953 703.544Q343.099 713.511 343.002 723.479C335.473 723.277 327.92 722.889 320.405 723.53C320.542 730.686 320.8 737.876 320.279 745.022Q309.502 745.113 298.725 745.043C298.977 752.181 299.294 759.445 298.911 766.581C292.155 765.649 285.16 765.948 278.346 766.033C278.274 771.81 278.041 777.65 278.209 783.423C270.886 784.335 263.356 784.026 255.981 784.122C255.702 777.509 254.42 769.722 256.141 763.298C260.546 761.975 272.876 762.871 278.286 762.617C278.403 754.944 278.12 747.235 277.998 739.562C284.634 740.013 291.296 740.003 297.944 740.088C297.876 735.868 296.91 724.78 298.453 721.363C298.196 715.244 298.864 709.215 298.392 702.99C305.323 703.079 313.286 703.911 320.02 702.099L325.203 701.608L342.104 701.817Q342.115 692.058 341.872 682.301L342.232 680.918C346.469 679.271 357.626 680.43 362.515 680.505L362.398 660.476Q373.222 660.588 384.046 660.479C383.504 653.484 384.155 646.435 383.504 639.485C382.724 637.567 383.192 634.967 383.393 632.968C383.74 627.389 383.512 621.665 383.51 616.069Q383.822 605.22 383.96 594.367L383.976 574.445L383.937 553.99C390.367 554.066 396.7 553.842 403.11 553.393L403.901 549.434C404.454 548.474 405.303 548.292 406.276 547.813C408.014 549.296 409.311 549.738 411.555 550.019L448.907 549.993C455.607 549.998 463.616 549.24 470.116 550.698L470.867 551.609C477.162 552.539 483.948 552.051 490.302 551.997C490.472 548.363 490.445 535.068 492.472 532.744Z"/>
	<path fill="#CB2A01" transform="scale(0.167014 0.167014)" d="M298.392 702.99C305.323 703.079 313.286 703.911 320.02 702.099Q319.948 711.812 319.976 721.525L298.453 721.363C298.196 715.244 298.864 709.215 298.392 702.99Z"/>
	<path fill="#CB2A01" transform="scale(0.167014 0.167014)" d="M403.281 615.599L403.891 617.078C405.673 624.315 405.148 632.118 404.979 639.507L383.504 639.485C382.724 637.567 383.192 634.967 383.393 632.968C383.74 627.389 383.512 621.665 383.51 616.069C383.84 616.035 384.171 616.006 384.502 615.967C389.179 615.416 399.767 617.525 403.281 615.599Z"/>
	<path fill="#CB2A01" transform="scale(0.167014 0.167014)" d="M406.276 547.813C408.014 549.296 409.311 549.738 411.555 550.019L448.907 549.993C455.607 549.998 463.616 549.24 470.116 550.698L470.867 551.609L470.063 553.718Q470.343 564.153 470.461 574.592L448.339 574.502L448.495 596.572L426.463 596.421C426.574 603.408 426.778 610.396 426.395 617.377Q416.664 616.913 406.923 616.965L403.891 617.078L403.281 615.599C399.767 617.525 389.179 615.416 384.502 615.967C384.171 616.006 383.84 616.035 383.51 616.069Q383.822 605.22 383.96 594.367L383.976 574.445L383.937 553.99C390.367 554.066 396.7 553.842 403.11 553.393L403.901 549.434C404.454 548.474 405.303 548.292 406.276 547.813Z"/>
	<path fill="#A62F15" transform="scale(0.167014 0.167014)" d="M411.555 550.019L448.907 549.993C455.607 549.998 463.616 549.24 470.116 550.698L470.867 551.609L470.063 553.718C464.302 554.445 413.838 554.794 412.337 554.024C411.601 552.68 411.613 551.506 411.555 550.019Z"/>
	<path fill="#A62F15" transform="scale(0.167014 0.167014)" d="M403.081 556.715C404.582 557.198 406.045 557.436 406.951 558.834C409.258 567.929 407.008 596.582 406.79 607.173C406.735 609.844 406.113 614.512 406.923 616.965L403.891 617.078L403.281 615.599C401.811 602.104 402.898 588.068 403.001 574.512L403.081 556.715Z"/>
	<path fill="#FDDB34" transform="scale(0.167014 0.167014)" d="M383.937 553.99C390.367 554.066 396.7 553.842 403.11 553.393L403.081 556.715L403.001 574.512L383.976 574.445L383.937 553.99Z"/>
	<path fill="#F49508" transform="scale(0.167014 0.167014)" d="M383.976 574.445L403.001 574.512C402.898 588.068 401.811 602.104 403.281 615.599C399.767 617.525 389.179 615.416 384.502 615.967C384.171 616.006 383.84 616.035 383.51 616.069Q383.822 605.22 383.96 594.367L383.976 574.445Z"/>
</svg>
