<?xml version="1.0" encoding="utf-8" ?>
<svg xmlns="http://www.w3.org/2000/svg" xmlns:xlink="http://www.w3.org/1999/xlink" width="417" height="417">
	<path fill="#EBDB45" transform="scale(0.407715 0.407715)" d="M904.557 442.44L917.093 442.498C917.172 446.752 917.374 451.045 917.054 455.291L904.033 455.365C904.91 451.205 904.575 446.683 904.557 442.44Z"/>
	<path fill="#FBC324" transform="scale(0.407715 0.407715)" d="M313.054 898.006Q319.553 898.037 326.051 897.951Q326.117 904.987 326.022 912.022L312.963 912.048L313.054 898.006Z"/>
	<path fill="#FBC324" transform="scale(0.407715 0.407715)" d="M312.082 884.783C313.31 885.788 313.129 886.29 313.301 887.878C313.659 891.17 313.355 894.713 313.054 898.006L298.594 898.07L298.482 884.913Q305.284 885.019 312.082 884.783Z"/>
	<path fill="#83C4C4" transform="scale(0.407715 0.407715)" d="M848.944 46.3995Q856.472 46.355 863.999 46.4246L864.036 61.6259C859.038 61.6171 853.97 61.4308 848.994 61.9334Q848.91 54.1664 848.944 46.3995Z"/>
	<path fill="#EBDB45" transform="scale(0.407715 0.407715)" d="M687.989 680.853L703.127 680.881C703.186 686.299 703.122 691.725 703.114 697.143C698.08 697.098 693.01 696.917 687.992 697.381Q687.92 689.117 687.989 680.853Z"/>
	<path fill="#EBDB45" transform="scale(0.407715 0.407715)" d="M467.498 785.999L483.915 786.003L483.939 802.974C478.489 802.906 473.029 803.001 467.579 803.03C467.484 797.357 467.524 791.674 467.498 785.999Z"/>
	<path fill="#A542A3" transform="scale(0.407715 0.407715)" d="M907.683 591.021L924.145 590.948C924.21 596.57 924.585 602.485 923.962 608.069C918.612 608.008 913.252 608.076 907.901 608.084C907.707 602.406 907.739 596.704 907.683 591.021Z"/>
	<path fill="#A542A3" transform="scale(0.407715 0.407715)" d="M263.02 438.011L279.58 438.031L279.561 455.468Q271.332 455.237 263.102 455.405L263.02 438.011Z"/>
	<path fill="#A542A3" transform="scale(0.407715 0.407715)" d="M782.016 672.456L798.883 672.472C798.299 678.112 798.676 684.26 798.883 689.924Q790.52 689.696 782.155 689.83C781.986 684.048 782.051 678.241 782.016 672.456Z"/>
	<path fill="#3A0F4A" transform="scale(0.407715 0.407715)" d="M565.991 478.001Q574.201 478.099 582.407 477.816C581.948 484.137 582.061 490.491 582.055 496.825C576.659 496.515 571.21 497.011 565.861 496.667C566.161 490.471 565.996 484.207 565.991 478.001Z"/>
	<path fill="#5465FB" transform="scale(0.407715 0.407715)" d="M400.988 461.529L418.859 461.525C418.649 467.621 418.768 473.736 418.793 479.835C414.279 480.758 405.952 479.997 401.006 480.012C400.927 473.854 400.988 467.688 400.988 461.529Z"/>
	<path fill="#A542A3" transform="scale(0.407715 0.407715)" d="M494.015 342.435L511.517 342.482L511.562 361.618C505.809 361.408 499.994 361.544 494.233 361.521C494.05 355.168 494.131 348.793 494.015 342.435Z"/>
	<path fill="#5465FB" transform="scale(0.407715 0.407715)" d="M215.572 299.92Q224.801 299.826 234.03 299.847L234.016 318.007C227.94 317.787 221.824 317.936 215.744 317.956C215.518 311.964 215.618 305.92 215.572 299.92Z"/>
	<path fill="#3A0F4A" transform="scale(0.407715 0.407715)" d="M207.027 881.416C213.844 881.423 220.662 881.507 227.469 881.105C227.241 886.728 227.212 892.326 227.244 897.953C220.496 897.917 213.747 897.826 207.002 898.056L207.027 881.416Z"/>
	<path fill="#33237F" transform="scale(0.407715 0.407715)" d="M844.046 184.529L863.949 184.508L863.962 201.921C857.345 201.658 850.575 201.505 843.962 201.915L844.046 184.529Z"/>
	<path fill="#3A0F4A" transform="scale(0.407715 0.407715)" d="M376.851 669.418C383.004 669.535 389.794 670.069 395.834 668.891C396.074 675.105 395.955 681.337 395.932 687.554C389.613 687.569 383.208 687.356 376.915 687.982Q376.64 678.701 376.851 669.418Z"/>
	<path fill="#3A0F4A" transform="scale(0.407715 0.407715)" d="M249.002 797.915C255.553 797.945 262.041 797.812 268.58 797.39Q268.424 806.705 268.472 816.021C261.953 816.047 255.305 815.802 248.803 816.162C249.269 810.148 249.008 803.953 249.002 797.915Z"/>
	<path fill="#33237F" transform="scale(0.407715 0.407715)" d="M862.776 407.116C869.003 407.054 875.353 407.228 881.561 406.811Q881.306 416.452 881.397 426.096C875.123 426.095 868.832 426 862.559 426.123Q862.44 416.765 862.623 407.409L862.776 407.116Z"/>
	<path fill="#3A0F4A" transform="scale(0.407715 0.407715)" d="M442.597 605.007C449.118 605.053 455.551 605 462.043 604.315C461.229 610.722 461.601 617.487 461.575 623.946C455.064 623.959 448.43 624.238 441.934 623.925C443.762 618.367 442.775 610.823 442.597 605.007Z"/>
	<path fill="#3C549B" transform="scale(0.407715 0.407715)" d="M842.953 347.15Q852.753 347.304 862.554 347.357C862.577 353.59 862.399 359.91 862.744 366.13C857.645 365.923 847.24 367.032 842.769 365.599C843.296 359.627 842.992 353.493 842.921 347.503L842.953 347.15Z"/>
	<path fill="#5465FB" transform="scale(0.407715 0.407715)" d="M522.534 628.033L541.978 628.045C541.864 634.374 541.985 640.724 542.001 647.055C535.54 646.92 529.052 647.042 522.587 647.047L522.534 628.033Z"/>
	<path fill="#33237F" transform="scale(0.407715 0.407715)" d="M862.972 366.367C869.118 366.346 875.471 366.647 881.59 366.207C881.588 372.66 880.959 379.858 882.149 386.209L863.027 386.035L862.972 366.367Z"/>
	<path fill="#FBC324" transform="scale(0.407715 0.407715)" d="M386.721 370.249C392.171 370.215 397.606 370.174 403.052 370.4C403.139 374.621 404.287 385.811 402.561 389.341L401.125 389.515L383.916 389.538C383.878 384.954 382.238 373.896 384.812 370.404L386.721 370.249Z"/>
	<path fill="#33237F" transform="scale(0.407715 0.407715)" d="M823.946 407.004C830.299 407.115 836.718 406.844 843.056 407.184L843.282 407.394L843.48 426.26C837.043 425.976 830.455 426.327 824.004 426.396C823.908 420.058 824.349 413.361 823.639 407.076L823.946 407.004Z"/>
	<path fill="#3A0F4A" transform="scale(0.407715 0.407715)" d="M505.996 539.473L525.057 539.508Q524.94 549.3 524.987 559.093Q515.068 559.058 505.151 559.277C506.332 552.84 505.979 545.995 505.996 539.473Z"/>
	<path fill="#3A0F4A" transform="scale(0.407715 0.407715)" d="M313.003 731.989Q322.79 732.07 332.577 731.908Q332.404 741.936 332.422 751.965C325.867 751.864 319.215 752.203 312.684 751.946C313.832 745.861 313.025 738.252 313.003 731.989Z"/>
	<path fill="#33237F" transform="scale(0.407715 0.407715)" d="M567.532 283.99L584.992 283.969C585.174 291.314 585.294 298.59 584.906 305.931C579.107 306.001 573.29 306.165 567.491 306.126L567.532 283.99Z"/>
	<path fill="#3A0F4A" transform="scale(0.407715 0.407715)" d="M354.456 689.995L374.074 689.937Q373.936 699.979 373.993 710.021C367.379 710.004 360.723 709.849 354.115 710.095C354.979 703.558 354.502 696.581 354.456 689.995Z"/>
	<path fill="#3A0F4A" transform="scale(0.407715 0.407715)" d="M397.994 647.39C404.648 647.59 411.207 647.334 417.84 646.865C417.334 653.722 417.252 660.628 417.051 667.501L396.959 667.535C398.957 662.126 397.957 653.186 397.994 647.39Z"/>
	<path fill="#3A0F4A" transform="scale(0.407715 0.407715)" d="M289.25 775.428C289.632 782.232 288.933 789.156 288.999 795.987C282.576 795.948 275.204 795.235 268.938 796.757C270.135 790.124 269.501 782.693 269.463 775.969C273.704 775.946 285.953 776.686 289.25 775.428Z"/>
	<path fill="#3A0F4A" transform="scale(0.407715 0.407715)" d="M290.973 754.002L311.353 754.001C310.664 760.578 311.098 767.416 311.051 774.033C304.081 774.06 297.055 773.921 290.096 774.31C291.492 767.708 291.024 760.715 290.973 754.002Z"/>
	<path fill="#3A0F4A" transform="scale(0.407715 0.407715)" d="M547.131 518.858C547.726 525.486 547.454 532.296 547.458 538.949C540.184 539.216 532.789 539.645 525.512 539.375L526.409 539.087C527.98 536.365 527.049 523.564 527.019 519.568C533.722 519.45 540.452 519.466 547.131 518.858Z"/>
	<path fill="#33237F" transform="scale(0.407715 0.407715)" d="M882.456 386.326L902.983 386.375L903.018 406.488C896.151 406.516 889.126 406.867 882.277 406.519C883.15 399.941 883.171 392.905 882.456 386.326Z"/>
	<path fill="#3C549B" transform="scale(0.407715 0.407715)" d="M884.916 241.367C891.807 242.45 898.744 241.679 905.675 241.917L906.015 241.976C905.421 248.634 906.389 255.4 905.757 261.932L885.05 261.979C884.833 255.049 885.686 248.318 884.916 241.367Z"/>
	<path fill="#53216D" transform="scale(0.407715 0.407715)" d="M863.027 386.035L882.149 386.209L882.456 386.326C883.171 392.905 883.15 399.941 882.277 406.519L881.561 406.811C875.353 407.228 869.003 407.054 862.776 407.116C863.543 400.242 863.069 392.958 863.027 386.035Z"/>
	<path fill="#A542A3" transform="scale(0.407715 0.407715)" d="M676.627 105.842C682.799 106.524 689.344 106.181 695.548 106.012C695.469 111.515 694.38 122.718 695.852 127.677L695.834 127.924C689.676 128.457 683.177 128.081 676.993 127.917C676.024 120.786 676.584 113.049 676.627 105.842Z"/>
	<path fill="#4182D7" transform="scale(0.407715 0.407715)" d="M439.518 223.541Q449.483 223.732 459.447 223.527L459.448 244.456C452.904 244.257 446.321 244.394 439.772 244.396C439.319 237.474 439.504 230.477 439.518 223.541Z"/>
	<path fill="#5799BF" transform="scale(0.407715 0.407715)" d="M842.384 386.063C842.782 379.324 840.949 372.256 842.769 365.599C847.24 367.032 857.645 365.923 862.744 366.13L862.972 366.367L863.027 386.035C856.341 385.825 849.551 385.314 842.903 386.249L842.384 386.063Z"/>
	<path fill="#FBC324" transform="scale(0.407715 0.407715)" d="M130.5 491.979L151.191 491.944Q151.357 501.718 151.133 511.49C149.951 512.582 133.554 512.105 130.599 512.127C130.348 505.432 130.505 498.681 130.5 491.979Z"/>
	<path fill="#4182D7" transform="scale(0.407715 0.407715)" d="M459.953 202.474Q470.025 202.302 480.098 202.447Q480.234 212.739 480.086 223.03L459.931 223.043L459.953 202.474Z"/>
	<path fill="#3A0F4A" transform="scale(0.407715 0.407715)" d="M333.483 711.013C340.277 710.906 347.081 710.587 353.874 710.363C353.408 717.38 353.582 724.452 353.615 731.482C346.717 731.539 339.811 731.531 332.915 731.687C334.498 725.483 333.546 717.409 333.483 711.013Z"/>
	<path fill="#3A0F4A" transform="scale(0.407715 0.407715)" d="M419.006 625.473C424.57 625.596 435.8 626.811 440.824 624.907Q440.642 635.17 440.574 645.434C433.176 645.463 425.683 645.263 418.305 645.793C420.108 639.877 419.074 631.638 419.006 625.473Z"/>
	<path fill="#3C549B" transform="scale(0.407715 0.407715)" d="M864.047 220.136C871.002 220.469 878.045 220.202 885.011 220.139C885.047 227.212 885.168 234.298 884.916 241.367C878.039 240.747 870.938 241.08 864.029 241.104L864.047 220.136Z"/>
	<path fill="#762B94" transform="scale(0.407715 0.407715)" d="M628.004 181.816L651.965 181.845L651.927 200.477Q639.95 199.913 627.96 199.988C627.753 193.907 627.79 187.896 628.004 181.816Z"/>
	<path fill="#5799BF" transform="scale(0.407715 0.407715)" d="M843.534 141.93L843.833 142.048C842.718 148.511 843.236 156.458 843.667 163.017C842.862 164.1 842.333 164.272 840.998 164.501C835.469 165.45 829.525 164.981 823.982 164.391C824.365 157.028 824.055 149.503 824.059 142.122L843.534 141.93Z"/>
	<path fill="#53216D" transform="scale(0.407715 0.407715)" d="M606.008 283.63Q606.02 294.638 606.219 305.645C599.55 305.59 592.571 305.129 585.937 305.865L584.906 305.931C585.294 298.59 585.174 291.314 584.992 283.969C591.691 284.074 599.439 284.823 606.008 283.63Z"/>
	<path fill="#A542A3" transform="scale(0.407715 0.407715)" d="M334.979 654.028Q345.753 653.909 356.527 654.012Q356.388 664.763 356.112 675.511C349.096 675.454 342.05 675.515 335.044 675.132L334.979 654.028Z"/>
	<path fill="#5799BF" transform="scale(0.407715 0.407715)" d="M776.983 182.933L801.994 182.969C802.067 189.058 802.743 195.458 802.414 201.5L802.094 201.549C793.794 201.255 785.664 201.375 777.363 201.725L776.923 201.458C775.363 198.252 776.451 186.751 776.983 182.933Z"/>
	<path fill="#228E9E" transform="scale(0.407715 0.407715)" d="M606.008 283.63C613.249 282.917 620.608 283.76 627.882 283.034Q627.647 294.529 627.865 306.024L606.387 305.968L585.937 305.865C592.571 305.129 599.55 305.59 606.219 305.645Q606.02 294.638 606.008 283.63Z"/>
	<path fill="#FBC324" transform="scale(0.407715 0.407715)" d="M312.954 870.948L326.457 870.946L326.464 884.907C330.819 884.918 335.179 884.881 339.534 884.942C339.494 889.295 339.511 893.655 339.407 898.006C334.951 897.913 330.507 897.814 326.051 897.951Q319.553 898.037 313.054 898.006C313.355 894.713 313.659 891.17 313.301 887.878C313.129 886.29 313.31 885.788 312.082 884.783L312.859 884.406C313.08 879.923 312.991 875.434 312.954 870.948Z"/>
	<path fill="#33237F" transform="scale(0.407715 0.407715)" d="M312.859 884.406C317.17 884.862 321.511 884.721 325.809 885.141C326.054 889.421 326.089 893.664 326.051 897.951Q319.553 898.037 313.054 898.006C313.355 894.713 313.659 891.17 313.301 887.878C313.129 886.29 313.31 885.788 312.082 884.783L312.859 884.406Z"/>
	<path fill="#FBC324" transform="scale(0.407715 0.407715)" d="M892.978 430.493L904.543 430.487L904.557 442.44C904.575 446.683 904.91 451.205 904.033 455.365L904.032 468.053L892.963 468.115L893.002 455.028L881.045 455.134L881.059 442.376C885.029 442.215 889.037 442.326 893.011 442.326C892.938 438.385 892.985 434.435 892.978 430.493Z"/>
	<path fill="#228E9E" transform="scale(0.407715 0.407715)" d="M696.046 166.611C695.934 177.926 695.184 189.764 696.542 201C687.995 201.36 679.356 201.79 670.859 200.56L677.086 200.539C677.446 189.319 676.295 178.11 676.882 166.907C683.239 166.558 689.677 166.675 696.046 166.611Z"/>
	<path fill="#FBC324" transform="scale(0.407715 0.407715)" d="M121.972 696.055L134.548 696.117C134.502 699.7 134.61 703.294 134.66 706.878L144.99 706.894L145.015 719.737C141.555 719.627 138.085 719.652 134.624 719.629L134.462 730.553L121.926 730.575L121.919 719.563C118.584 719.551 115.265 719.657 111.934 719.788L111.868 707.298C115.217 707.168 118.607 707.282 121.961 707.292L121.972 696.055Z"/>
	<path fill="#53216D" transform="scale(0.407715 0.407715)" d="M696.12 70.723C700.162 70.5921 712.131 68.9892 714.972 71.6662C717.833 74.3621 716.83 84.2137 716.86 88.1983L735.668 88.102C735.673 94.0519 735.456 100.097 735.922 106.029L717.025 105.91C716.838 100.098 716.922 94.2905 716.983 88.4768C709.984 88.2566 702.963 88.3906 695.958 88.2369Q696.176 79.4812 696.12 70.723Z"/>
	<path fill="#83C4C4" transform="scale(0.407715 0.407715)" d="M828.396 495.067L840.466 495.006C840.443 499.214 840.522 503.449 840.354 507.652L851.539 507.69L851.49 520.012L840.058 520.003L840.053 533.524L828.731 533.494C828.699 528.995 828.712 524.522 828.897 520.026L828.353 519.92L817.219 519.946L817.126 507.944L828.473 507.823L828.396 495.067Z"/>
	<path fill="#33237F" transform="scale(0.407715 0.407715)" d="M829.019 508.262C832.525 508.397 836.022 508.546 839.531 508.489C839.521 512.287 839.391 516.134 839.756 519.916L828.897 520.026L828.353 519.92C829.814 517.685 829.058 511.107 829.019 508.262Z"/>
	<path fill="#3A0F4A" transform="scale(0.407715 0.407715)" d="M207.081 794.324C207.057 791.118 207.069 787.941 207.253 784.74C208.054 792.473 207.04 800.363 207.526 808.122L207.031 808.958C196.329 808.846 184.643 807.838 174.03 809.367C168.479 809.637 162.918 809.266 157.369 809.743C158.213 804.607 157.995 799.378 157.978 794.191C174.341 794.402 190.716 794.299 207.081 794.324Z"/>
	<path fill="#EBDB45" transform="scale(0.407715 0.407715)" d="M671.985 785.425L684.97 785.483L684.937 798.017L695.021 798.05L695.037 811.157L684.529 811.214C684.587 813.658 685.346 820.708 683.891 822.462C680.001 822.255 676.147 822.32 672.255 822.413L672.309 810.993L660.641 811.029C660.538 806.691 660.582 802.341 660.561 798.001L672.045 797.977C671.956 793.797 672 789.607 671.985 785.425Z"/>
	<path fill="#FBC324" transform="scale(0.407715 0.407715)" d="M572.986 105.923L585.812 105.928C585.671 109.968 585.933 113.986 585.654 118.031L598.038 117.979L598.026 130.086L585.006 130.049L585.073 142.125C585.023 142.47 584.779 142.885 584.637 143.206C580.954 143.871 576.795 143.489 573.041 143.453L573.055 130.041L560.941 130.162C560.806 126.14 560.86 122.11 560.87 118.086L573.006 118.056C572.866 114.018 572.962 109.964 572.986 105.923Z"/>
	<path fill="#A0DCF0" transform="scale(0.407715 0.407715)" d="M802.301 164.615C809.402 164.362 816.52 164.473 823.624 164.503C824.937 170.731 824.061 178.672 823.99 185.082L824.001 201.993C817.541 202.079 808.623 203.161 802.414 201.5C802.743 195.458 802.067 189.058 801.994 182.969C801.951 176.861 801.804 170.708 802.301 164.615Z"/>
	<path fill="#4182D7" transform="scale(0.407715 0.407715)" d="M439.119 181.973L459.493 181.922L459.501 202.376C452.962 201.68 446.048 202.148 439.478 202.323C439.499 209.171 439.729 216.105 439.36 222.94C432.968 222.132 425.422 222.208 419.014 222.947C418.909 215.968 418.995 208.976 418.996 201.995Q429.218 201.994 439.44 201.879C439.279 195.272 439.759 188.551 439.119 181.973Z"/>
	<path fill="#66B3DB" transform="scale(0.407715 0.407715)" d="M864.002 162.484L864.029 163.59L864.035 184.135L863.949 184.508L844.046 184.529C837.62 184.519 830.249 183.818 823.99 185.082C824.061 178.672 824.937 170.731 823.624 164.503L823.982 164.391C829.525 164.981 835.469 165.45 840.998 164.501C842.333 164.272 842.862 164.1 843.667 163.017C849.781 161.411 857.689 162.272 864.002 162.484Z"/>
	<path fill="#3A0F4A" transform="scale(0.407715 0.407715)" d="M157.369 809.743C156.814 814.984 156.98 820.306 156.979 825.572C157.658 831.85 157.359 837.811 156.852 844.084L156.498 844.124C151.131 843.617 145.894 844.595 140.484 843.69C134.465 843.098 128.835 843.103 122.808 843.66Q122.776 835.07 122.628 826.481Q131.404 826.485 140.178 826.318L140.047 810.081C145.642 810.081 151.854 810.594 157.369 809.743Z"/>
	<path fill="#FEFDAB" transform="scale(0.407715 0.407715)" d="M156.979 825.572C157.658 831.85 157.359 837.811 156.852 844.084L156.498 844.124C151.131 843.617 145.894 844.595 140.484 843.69L140.496 826.031C145.989 825.947 151.487 825.732 156.979 825.572Z"/>
	<path fill="#3A0F4A" transform="scale(0.407715 0.407715)" d="M243.641 825.775C244.122 844.176 243.366 862.602 243.9 880.994C238.435 880.969 232.926 880.802 227.469 881.105L227.508 859.004L227.521 826.493C232.434 826.626 239.042 827.474 243.641 825.775Z"/>
	<path fill="#3A0F4A" transform="scale(0.407715 0.407715)" d="M104.511 943.969Q138.299 944.185 172.087 944.004C171.818 949.122 171.942 954.275 171.952 959.399C149.638 959.047 127.261 959.388 104.945 959.518C104.927 954.341 104.668 949.146 104.511 943.969Z"/>
	<path fill="#762B94" transform="scale(0.407715 0.407715)" d="M567.491 306.126C573.29 306.165 579.107 306.001 584.906 305.931Q584.705 317.478 584.933 329.025C591.63 328.839 598.333 328.527 605.026 328.966C604.935 335.067 604.762 341.171 605.114 347.266C598.085 346.738 590.203 346.373 583.24 347.492C583.295 352.368 583.548 357.325 583.361 362.193C582.888 357.374 583.104 352.345 583.04 347.496Q575.295 347.553 567.562 347.993L567.491 306.126Z"/>
	<path fill="#FAF9F6" transform="scale(0.407715 0.407715)" d="M842.903 386.249C849.551 385.314 856.341 385.825 863.027 386.035C863.069 392.958 863.543 400.242 862.776 407.116L862.623 407.409Q862.44 416.766 862.559 426.123Q853.018 426.022 843.48 426.26L843.282 407.394L843.056 407.184C836.718 406.844 830.299 407.115 823.946 407.004C824.105 400.245 824.239 393.536 823.896 386.78L824.195 386.551C830.271 386.504 836.316 386.395 842.384 386.063L842.903 386.249Z"/>
	<path fill="#53216D" transform="scale(0.407715 0.407715)" d="M843.282 407.394C849.713 407.447 856.198 407.653 862.623 407.409Q862.44 416.766 862.559 426.123Q853.018 426.022 843.48 426.26L843.282 407.394Z"/>
	<path fill="#4182D7" transform="scale(0.407715 0.407715)" d="M842.384 386.063L842.903 386.249C843 393.218 842.838 400.224 843.056 407.184C836.718 406.844 830.299 407.115 823.946 407.004C824.105 400.245 824.239 393.536 823.896 386.78L824.195 386.551C830.271 386.504 836.316 386.395 842.384 386.063Z"/>
	<path fill="#33237F" transform="scale(0.407715 0.407715)" d="M883.487 123.776C890.162 123.742 896.857 123.782 903.528 123.586L903.635 164.445L883.999 164.474L883.983 183.962C877.337 183.942 870.676 183.825 864.035 184.135L864.029 163.59C870.519 164.163 877.035 164.042 883.542 163.985L883.487 123.776Z"/>
	<path fill="#762B94" transform="scale(0.407715 0.407715)" d="M695.958 88.2369C702.963 88.3906 709.984 88.2566 716.983 88.4768C716.922 94.2905 716.838 100.098 717.025 105.91L735.922 106.029C736.565 113.07 735.765 119.601 735.72 126.566C729.428 126.882 723.109 127.166 716.81 126.981L716.183 127.403C709.413 127.815 702.631 127.708 695.852 127.677C694.38 122.718 695.469 111.515 695.548 106.012C689.344 106.181 682.799 106.524 676.627 105.842C682.525 104.858 689.563 105.538 695.601 105.551C696.002 99.8289 695.878 93.978 695.958 88.2369Z"/>
	<path fill="#FAF9F6" transform="scale(0.407715 0.407715)" d="M695.548 106.012C702.638 105.789 709.896 105.453 716.972 106.012C716.987 112.986 717.173 120.017 716.81 126.981L716.183 127.403C709.413 127.815 702.631 127.708 695.852 127.677C694.38 122.718 695.469 111.515 695.548 106.012Z"/>
	<path fill="#5FA0B0" transform="scale(0.407715 0.407715)" d="M695.852 127.677C702.631 127.708 709.413 127.815 716.183 127.403C715.709 151.952 715.993 176.557 715.991 201.113C709.639 200.882 703.282 201.013 696.928 201.085L696.542 201C695.184 189.764 695.934 177.926 696.046 166.611C696.045 153.758 696.428 140.759 695.834 127.924L695.852 127.677Z"/>
	<path fill="#3C549B" transform="scale(0.407715 0.407715)" d="M752.015 433.988C751.83 450.065 750.696 467.242 751.873 483.237L712.105 483.413C712.077 473.162 711.601 462.63 712.096 452.404C712.189 453.812 712.354 455.077 712.652 456.455C719.303 457.431 727.059 456.588 733.827 456.509C734.009 449.029 733.705 441.5 733.572 434.017L752.015 433.988Z"/>
	<path fill="#762B94" transform="scale(0.407715 0.407715)" d="M843.718 123.936L883.487 123.776L883.542 163.985C877.035 164.042 870.519 164.163 864.029 163.59L864.002 162.484C857.689 162.272 849.781 161.411 843.667 163.017C843.236 156.458 842.718 148.511 843.833 142.048L843.534 141.93C843.948 135.967 843.804 129.911 843.718 123.936Z"/>
	<path fill="#FAF9F6" transform="scale(0.407715 0.407715)" d="M843.833 142.048Q853.946 141.921 864.059 141.994Q864.14 152.239 864.002 162.484C857.689 162.272 849.781 161.411 843.667 163.017C843.236 156.458 842.718 148.511 843.833 142.048Z"/>
	<path fill="#3A0F4A" transform="scale(0.407715 0.407715)" d="M105.05 844.055C110.808 844.063 117.148 844.59 122.808 843.66C122.745 849.625 122.505 855.709 122.97 861.658C116.95 862.575 110.675 862.16 104.605 861.986C104.092 879.141 104.437 896.368 104.483 913.532L104.457 927.496C104.425 932.984 104.318 938.483 104.511 943.969C99.0821 943.717 93.6238 943.846 88.1896 943.865L88.0945 861.961C93.695 861.842 99.3083 861.873 104.911 861.834C105.263 855.929 105.079 849.97 105.05 844.055Z"/>
	<path fill="#3A0F4A" transform="scale(0.407715 0.407715)" d="M671.782 434.599C677.028 434.392 684.651 433.415 689.634 434.817L689.979 434.922Q689.744 444.699 689.898 454.478C684.391 454.493 678.761 454.262 673.275 454.745C672.088 462.534 671.833 469.989 671.968 477.836Q662.539 477.461 653.114 477.944L653.029 494.917C636.842 494.132 620.253 494.552 604.05 495.027C604.041 490.215 604.905 481.826 602.881 477.514L640.915 477.505C640.983 469.952 641.019 462.412 640.505 454.872L640.701 454.275C638.544 450.031 641.719 444.412 639.865 440.493C639.133 438.945 638.481 438.986 637.007 438.506C646.075 438.414 660.109 439.089 668.571 437.031C670.314 436.606 670.906 436.142 671.782 434.599Z"/>
	<path fill="#BB6D12" transform="scale(0.407715 0.407715)" d="M671.782 434.599C677.028 434.392 684.651 433.415 689.634 434.817Q689.481 444.319 689.509 453.821L660.507 453.825C653.967 453.809 647.192 453.465 640.701 454.275C638.544 450.031 641.719 444.412 639.865 440.493C639.133 438.945 638.481 438.986 637.007 438.506C646.075 438.414 660.109 439.089 668.571 437.031C670.314 436.606 670.906 436.142 671.782 434.599Z"/>
	<path fill="#EA9F23" transform="scale(0.407715 0.407715)" d="M234.024 549.752C241.827 549.717 249.675 549.522 257.469 549.912L257.499 572L280.015 571.953L280.008 595.995Q268.725 595.815 257.441 595.987C257.478 600.026 258.46 619.893 257.029 622.012L255.125 622.057L234.135 622.056C233.413 613.252 233.678 604.569 233.973 595.755C225.875 596.197 217.615 595.944 209.496 596.017L209.442 572.065C217.575 571.885 225.735 572.027 233.871 572.034C233.741 564.762 233.146 556.965 234.024 549.752Z"/>
	<path fill="#EA9F23" transform="scale(0.407715 0.407715)" d="M650.307 502.972L672.154 503.018Q672.14 517.411 672.352 531.803Q683.958 531.743 695.563 531.876L695.466 553.833C687.895 553.039 679.83 553.574 672.201 553.633C672.562 558.39 673.498 579.664 671.479 582.574C671.087 583.138 670.254 582.959 669.625 583.006L650.462 583.079L650.386 553.532L624.028 553.618L624 531.479L650.204 531.438C650.432 521.964 650.283 512.451 650.307 502.972Z"/>
	<path fill="#3A0F4A" transform="scale(0.407715 0.407715)" d="M532.156 381.286Q557.796 381.168 583.433 381.57L583.506 392.483L584.024 397.573C584.025 402.643 584.404 408.064 583.563 413.069L583.512 415.117C582.717 423.44 584.242 432.621 582.563 440.699C578.104 440.431 573.64 440.439 569.174 440.411L568.422 439.729C562.816 439.463 557.197 439.675 551.606 439.417C548.15 437.75 536.623 438.808 532.419 438.904Q531.968 410.096 532.156 381.286Z"/>
	<path fill="#FBC324" transform="scale(0.407715 0.407715)" d="M551.688 392.039C562.295 392.053 572.897 392.46 583.506 392.483L584.024 397.573C584.025 402.643 584.404 408.064 583.563 413.069L583.512 415.117C582.717 423.44 584.242 432.621 582.563 440.699C578.104 440.431 573.64 440.439 569.174 440.411L568.422 439.729C568.2 434.84 568.265 429.914 568.213 425.02L551.657 425.005C551.335 420.044 551.41 415.034 551.358 410.063Q551.476 401.05 551.688 392.039Z"/>
	<path fill="#DA7913" transform="scale(0.407715 0.407715)" d="M551.688 392.039C562.295 392.053 572.897 392.46 583.506 392.483L584.024 397.573C584.025 402.643 584.404 408.064 583.563 413.069C583.414 408.242 583.525 403.406 583.574 398.578C578.903 400.29 574.243 401.913 569.485 403.372L569.363 410.405C563.37 410.442 557.351 410.199 551.358 410.063Q551.476 401.05 551.688 392.039Z"/>
	<path fill="#A04A15" transform="scale(0.407715 0.407715)" d="M227.508 859.004L227.469 881.105C220.662 881.507 213.844 881.423 207.027 881.416L207.002 898.056C206.882 904.378 206.721 910.696 206.898 917.019C201.3 916.82 195.71 916.594 190.107 916.651C189.984 918.802 189.74 920.617 189.054 922.663L188.872 923.911C188.17 929.93 188.481 936.219 188.502 942.279C183.932 942.103 177.205 941.38 172.79 942.468L172.087 944.004Q138.299 944.185 104.511 943.969C104.318 938.483 104.425 932.984 104.457 927.496Q130.98 927.54 157.497 927.024L157.479 912.022L172.97 912.003L172.776 882.031L189.953 882.005L189.961 870.487Q198.486 870.491 207.009 870.676L206.987 858.98C213.824 858.68 220.668 858.888 227.508 859.004Z"/>
	<path fill="#3A0F4A" transform="scale(0.407715 0.407715)" d="M188.872 923.911C188.17 929.93 188.481 936.219 188.502 942.279C183.932 942.103 177.205 941.38 172.79 942.468C171.786 936.695 172.515 929.882 172.548 924.003Q180.71 924.01 188.872 923.911Z"/>
	<path fill="#3A0F4A" transform="scale(0.407715 0.407715)" d="M189.005 898.42Q198.009 898.517 207.002 898.056C206.882 904.378 206.721 910.696 206.898 917.019C201.3 916.82 195.71 916.594 190.107 916.651C189.984 918.802 189.74 920.617 189.054 922.663C188.818 914.605 189.014 906.485 189.005 898.42Z"/>
	<path fill="#5FA0B0" transform="scale(0.407715 0.407715)" d="M823.99 185.082C830.249 183.818 837.62 184.519 844.046 184.529L843.962 201.915Q843.855 210.95 844.033 219.983C850.675 219.955 857.421 219.714 864.047 220.136L864.029 241.104C870.938 241.08 878.039 240.747 884.916 241.367C885.686 248.318 884.833 255.049 885.05 261.979C871.865 262.12 858.666 261.986 845.48 261.984L824.014 261.976L802.514 261.99Q802.363 241.002 802.586 220.015C802.909 214.585 803.545 206.824 802.094 201.549L802.414 201.5C808.623 203.161 817.541 202.079 824.001 201.993L823.99 185.082Z"/>
	<path fill="#53216D" transform="scale(0.407715 0.407715)" d="M567.347 182.056C584.534 181.922 601.949 181.002 619.108 181.893L628.004 181.816C627.79 187.896 627.753 193.907 627.96 199.988L628.01 220.009L612.998 220.034C615.54 226.923 611.11 235.076 613.064 241.453L627.539 241.497C628.02 248.422 627.307 255.314 627.722 262.206C613.43 261.684 598.852 262.449 584.534 262.549C584.305 255.18 584.414 247.776 584.385 240.403Q576.163 240.18 567.942 240.445C566.964 221.076 567.45 201.456 567.347 182.056Z"/>
	<path fill="#3C549B" transform="scale(0.407715 0.407715)" d="M606.027 220.111L612.998 220.034C615.54 226.923 611.11 235.076 613.064 241.453L606.056 241.737C606.25 234.495 606.481 227.351 606.027 220.111Z"/>
	<path fill="#A542A3" transform="scale(0.407715 0.407715)" d="M619.108 181.893L628.004 181.816C627.79 187.896 627.753 193.907 627.96 199.988L628.01 220.009L612.998 220.034L606.027 220.111Q595.518 220.369 585.006 220.231L584.982 200.002L605.946 199.991C606.14 194.005 605.999 188.009 605.933 182.021C610.331 182.084 614.716 182.187 619.108 181.893Z"/>
	<path fill="#FAF9F6" transform="scale(0.407715 0.407715)" d="M605.953 200.031C613.304 199.791 620.608 199.826 627.96 199.988L628.01 220.009L612.998 220.034L606.027 220.111C605.254 213.432 605.673 206.727 605.953 200.031Z"/>
	<path fill="#83C4C4" transform="scale(0.407715 0.407715)" d="M730.156 333.72C737.488 333.123 744.647 332.966 751.987 333.363L752.01 406.94L752.015 433.988L733.572 434.017C733.705 441.5 734.009 449.029 733.827 456.509C727.059 456.588 719.303 457.431 712.652 456.455C712.354 455.077 712.189 453.812 712.096 452.404C711.829 446.493 712.031 440.479 712.011 434.557C712.053 423.163 710.34 375.073 712.825 368.078C715.952 364.258 714.043 351.195 713.758 346.336C717.003 345.324 726.402 346.418 730.146 346.484C730.315 342.211 730.308 337.994 730.156 333.72Z"/>
	<path fill="#83C4C4" transform="scale(0.407715 0.407715)" d="M735.72 126.566L753.559 126.499C753.693 132.255 753.723 138.035 753.981 143.785C753.938 151.382 753.783 159.001 754.09 166.592C761.714 166.654 769.431 166.463 777.041 166.845C777.052 172.193 777.223 177.592 776.983 182.933C776.451 186.751 775.363 198.252 776.923 201.458L777.363 201.725C775.209 204.567 776.567 214.893 776.827 218.583C775.462 219.926 773.446 219.606 771.573 219.582Q769.324 219.54 767.076 219.455C762.71 219.014 758.387 219.154 754.014 219.402Q745.733 219.625 737.452 219.403L737.485 201.492L716.459 201.487L715.991 201.113C715.993 176.557 715.709 151.952 716.183 127.403L716.81 126.981C723.109 127.166 729.428 126.882 735.72 126.566Z"/>
	<path fill="#33237F" transform="scale(0.407715 0.407715)" d="M735.72 126.566L753.559 126.499C753.693 132.255 753.723 138.035 753.981 143.785C747.994 143.556 741.922 143.762 735.927 143.771C735.992 138.091 736.257 132.221 735.72 126.566Z"/>
	<path fill="#83C4C4" transform="scale(0.407715 0.407715)" d="M627.96 199.988Q639.95 199.913 651.927 200.477C658.202 200.48 664.6 200.227 670.859 200.56C679.356 201.79 687.995 201.36 696.542 201L696.928 201.085C697.178 221.412 696.412 241.702 696.492 262.014Q682.224 261.841 667.959 262.15C662.018 262.765 655.972 262.549 650.008 262.4C650 269.138 649.816 275.93 650.043 282.662L649.999 282.936C642.635 283.09 635.249 283.003 627.882 283.034Q628.008 272.618 627.722 262.206C627.307 255.314 628.02 248.422 627.539 241.497L613.064 241.453C611.11 235.076 615.54 226.923 612.998 220.034L628.01 220.009L627.96 199.988Z"/>
	<path fill="#5799BF" transform="scale(0.407715 0.407715)" d="M612.998 220.034L628.01 220.009L627.948 241.452C635.345 241.813 642.62 241.912 650.024 241.517L650.008 262.4C650 269.138 649.816 275.93 650.043 282.662L649.999 282.936C642.635 283.09 635.249 283.003 627.882 283.034Q628.008 272.618 627.722 262.206C627.307 255.314 628.02 248.422 627.539 241.497L613.064 241.453C611.11 235.076 615.54 226.923 612.998 220.034Z"/>
	<path fill="#4182D7" transform="scale(0.407715 0.407715)" d="M627.722 262.206C635.044 263.018 642.655 262.595 650.008 262.4C650 269.138 649.816 275.93 650.043 282.662L649.999 282.936C642.635 283.09 635.249 283.003 627.882 283.034Q628.008 272.618 627.722 262.206Z"/>
	<path fill="#83C4C4" transform="scale(0.407715 0.407715)" d="M885.05 261.979L905.757 261.932C905.06 267.245 904.708 277.356 905.864 282.391C906.225 289.454 906.407 296.425 906.224 303.5Q895.869 303.634 885.514 303.473L885.426 324.709C871.551 324.839 857.228 325.691 843.401 324.813C837.18 322.789 810.346 324.275 801.91 324.51C801.572 317.732 801.94 310.79 802.016 303.997L802.071 296.925L823.385 296.603C823.345 291.303 823.324 286.05 823.7 280.758L823.939 280.514C824.254 274.303 824.179 268.19 824.014 261.976L845.48 261.984C858.666 261.986 871.865 262.12 885.05 261.979Z"/>
	<path fill="#DA7913" transform="scale(0.407715 0.407715)" d="M824.014 261.976L845.48 261.984L845.454 280.507C838.283 280.433 831.108 280.294 823.939 280.514C824.254 274.303 824.179 268.19 824.014 261.976Z"/>
	<path fill="#4182D7" transform="scale(0.407715 0.407715)" d="M885.141 282.403L905.864 282.391C906.225 289.454 906.407 296.425 906.224 303.5Q895.869 303.634 885.514 303.473L885.373 303.106C885.008 296.249 885.201 289.275 885.141 282.403Z"/>
	<path fill="#5FA0B0" transform="scale(0.407715 0.407715)" d="M802.016 303.997Q833.682 304.133 865.347 303.826C870.725 303.752 880.443 304.482 885.373 303.106L885.514 303.473L885.426 324.709C871.551 324.839 857.228 325.691 843.401 324.813C837.18 322.789 810.346 324.275 801.91 324.51C801.572 317.732 801.94 310.79 802.016 303.997Z"/>
	<path fill="#33237F" transform="scale(0.407715 0.407715)" d="M905.675 241.917C905.739 241.649 905.808 241.381 905.867 241.112C906.732 237.16 904.337 225.852 907.371 223.558C911.177 220.679 938.751 221.831 944.394 222.324Q944.651 232.188 944.571 242.055L965.579 242.021C965.651 261.883 965.106 282.017 965.852 301.851C958.593 302.984 951.43 302.971 944.108 302.972Q943.983 313.734 944.03 324.496C924.548 324.496 904.885 323.93 885.426 324.709L885.514 303.473Q895.869 303.635 906.224 303.5C906.407 296.425 906.225 289.454 905.864 282.391C904.708 277.356 905.06 267.245 905.757 261.932C906.389 255.4 905.421 248.634 906.015 241.976L905.675 241.917Z"/>
	<path fill="#762B94" transform="scale(0.407715 0.407715)" d="M906.015 241.976C911.287 240.674 920.344 241.805 926.011 241.933C926.022 248.578 925.953 255.234 926.059 261.877Q935.041 262.069 944.024 261.99L944.017 302.981C931.664 302.669 918.46 301.606 906.224 303.5C906.407 296.425 906.225 289.454 905.864 282.391C904.708 277.356 905.06 267.245 905.757 261.932C906.389 255.4 905.421 248.634 906.015 241.976Z"/>
	<path fill="#FAF9F6" transform="scale(0.407715 0.407715)" d="M905.757 261.932C912.483 261.911 919.244 261.761 925.965 261.987L925.999 282.292C919.288 282.404 912.575 282.582 905.864 282.391C904.708 277.356 905.06 267.245 905.757 261.932Z"/>
	<path fill="#228E9E" transform="scale(0.407715 0.407715)" d="M801.91 324.51C810.346 324.275 837.18 322.789 843.401 324.813C841.607 329.764 842.25 341.843 842.953 347.15L842.921 347.503C842.992 353.493 843.296 359.627 842.769 365.599C840.949 372.256 842.782 379.324 842.384 386.063C836.316 386.395 830.271 386.504 824.195 386.551L823.896 386.78C824.239 393.536 824.105 400.245 823.946 407.004L823.639 407.076C813.744 406.746 803.783 407.021 793.881 407.064C793.654 400.034 793.882 392.953 793.952 385.918L769.062 385.996Q769.106 396.485 769.025 406.973C763.372 406.787 757.668 406.93 752.01 406.94L751.987 333.363C757.311 333.217 762.692 333.385 768.019 333.41L768.012 347.036C779.298 346.761 790.745 346.118 802.008 346.998Q802.157 335.753 801.91 324.51Z"/>
	<path fill="#5799BF" transform="scale(0.407715 0.407715)" d="M809.036 366.417Q816.208 366.49 823.38 366.415C824.603 373.103 823.373 379.898 824.195 386.551L823.896 386.78C819.011 387.053 814.087 386.973 809.194 387.008L809.036 366.417Z"/>
	<path fill="#5FA0B0" transform="scale(0.407715 0.407715)" d="M823.012 347.427C829.628 347.209 836.323 346.846 842.921 347.503C842.992 353.493 843.296 359.627 842.769 365.599C840.949 372.256 842.782 379.324 842.384 386.063C836.316 386.395 830.271 386.504 824.195 386.551C823.373 379.898 824.603 373.103 823.38 366.415C822.307 360.415 822.934 353.521 823.012 347.427Z"/>
	<path fill="#BB6D12" transform="scale(0.407715 0.407715)" d="M583.24 347.492C590.203 346.373 598.085 346.738 605.114 347.266L605.321 347.49Q605.553 357.594 605.459 367.7C612.848 367.773 620.272 367.691 627.655 367.927L627.968 368.09C628.271 373.162 628.462 378.153 628.347 383.239C628.159 385.182 628.005 387.052 628.069 389.005Q627.928 401.96 627.982 414.915C626.362 415.034 624.629 415.039 623.032 415.317C623.045 421.55 622.688 428.028 623.14 434.23C623.407 436.004 623.225 436.959 624.561 438.209C626.978 438.949 629.623 438.291 632.168 438.587C633.783 438.6 635.398 438.658 637.007 438.506C638.481 438.986 639.133 438.945 639.865 440.493C641.719 444.412 638.544 450.031 640.701 454.275L640.505 454.872C641.019 462.412 640.983 469.952 640.915 477.505L602.881 477.514L582.594 477.496C584.106 471.552 583.487 464.461 583.375 458.358L583.431 458.044C582.699 452.502 583.374 446.537 583.378 440.929L582.563 440.699C584.242 432.621 582.717 423.44 583.512 415.117L583.563 413.069C584.404 408.064 584.025 402.643 584.024 397.573L583.506 392.483L583.433 381.57L583.361 362.193C583.548 357.325 583.295 352.368 583.24 347.492Z"/>
	<path fill="#762B94" transform="scale(0.407715 0.407715)" d="M632.168 438.587C633.783 438.6 635.398 438.658 637.007 438.506C638.481 438.986 639.133 438.945 639.865 440.493C641.719 444.412 638.544 450.031 640.701 454.275L640.505 454.872L624.105 455.23L623.928 438.885C626.695 438.915 629.409 438.776 632.168 438.587Z"/>
	<path fill="#3A0F4A" transform="scale(0.407715 0.407715)" d="M583.431 458.044Q592.936 457.968 602.442 458.001C602.341 463.054 601.247 472.963 602.881 477.514L582.594 477.496C584.106 471.552 583.487 464.461 583.375 458.358L583.431 458.044Z"/>
	<path fill="#875A4F" transform="scale(0.407715 0.407715)" d="M602.628 415.405C609.398 415.459 616.28 415.749 623.032 415.317C623.045 421.55 622.688 428.028 623.14 434.23C623.114 435.811 623.401 436.746 622.385 437.997C618.338 439.287 614.4 437.91 610.286 437.982C608.078 438.021 604.677 439.169 602.672 438.499C602.156 430.834 602.393 423.077 602.628 415.405Z"/>
	<path fill="#DA7913" transform="scale(0.407715 0.407715)" d="M584.024 397.573C590.271 397.543 596.555 397.387 602.797 397.59C602.16 403.358 601.837 409.385 602.569 415.158L602.628 415.405C602.393 423.077 602.156 430.834 602.672 438.499C602.094 439.682 601.832 440.111 600.537 440.535C595.709 442.114 588.512 440.892 583.378 440.929L582.563 440.699C584.242 432.621 582.717 423.44 583.512 415.117L583.563 413.069C584.404 408.064 584.025 402.643 584.024 397.573Z"/>
	<path fill="#53216D" transform="scale(0.407715 0.407715)" d="M584.024 397.573C590.271 397.543 596.555 397.387 602.797 397.59C602.16 403.358 601.837 409.385 602.569 415.158C596.325 415.987 589.787 415.454 583.512 415.117L583.563 413.069C584.404 408.064 584.025 402.643 584.024 397.573Z"/>
	<path fill="#FBC324" transform="scale(0.407715 0.407715)" d="M583.24 347.492C590.203 346.373 598.085 346.738 605.114 347.266L605.321 347.49Q605.553 357.594 605.459 367.7C612.848 367.773 620.272 367.691 627.655 367.927L627.968 368.09C628.271 373.162 628.462 378.153 628.347 383.239C628.159 385.182 628.005 387.052 628.069 389.005Q627.928 401.96 627.982 414.915C626.362 415.034 624.629 415.039 623.032 415.317C616.28 415.749 609.398 415.459 602.628 415.405L602.569 415.158C601.837 409.385 602.16 403.358 602.797 397.59C596.555 397.387 590.271 397.543 584.024 397.573L583.506 392.483L583.433 381.57L583.361 362.193C583.548 357.325 583.295 352.368 583.24 347.492Z"/>
	<path fill="#EA9F23" transform="scale(0.407715 0.407715)" d="M603.967 389.014L628.069 389.005Q627.928 401.96 627.982 414.915C626.362 415.034 624.629 415.039 623.032 415.317C616.28 415.749 609.398 415.459 602.628 415.405L602.569 415.158C601.837 409.385 602.16 403.358 602.797 397.59C603.94 394.937 603.841 391.86 603.967 389.014Z"/>
	<path fill="#DA7913" transform="scale(0.407715 0.407715)" d="M627.968 368.09C635.36 367.451 642.642 367.665 650.038 367.992L671.959 367.988Q684.261 368.092 696.562 367.967C701.879 367.779 707.564 367.184 712.825 368.078C710.34 375.073 712.053 423.163 712.011 434.557L690.623 434.636L689.979 434.922L689.634 434.817C684.651 433.415 677.028 434.392 671.782 434.599C670.906 436.142 670.314 436.606 668.571 437.031C660.109 439.089 646.075 438.414 637.007 438.506C635.398 438.658 633.783 438.6 632.168 438.587C629.623 438.291 626.978 438.949 624.561 438.209C623.225 436.959 623.407 436.004 623.14 434.23C622.688 428.028 623.045 421.55 623.032 415.317C624.629 415.039 626.362 415.034 627.982 414.915Q627.928 401.96 628.069 389.005C628.005 387.052 628.159 385.182 628.347 383.239C628.462 378.153 628.271 373.162 627.968 368.09Z"/>
	<path fill="#33237F" transform="scale(0.407715 0.407715)" d="M650.758 389.342Q661.181 388.992 671.609 388.998C670.396 396.171 670.939 404.04 670.981 411.319C664.368 411.009 657.65 411.219 651.02 411.106C651.184 403.791 651.352 396.643 650.758 389.342Z"/>
	<path fill="#762B94" transform="scale(0.407715 0.407715)" d="M627.968 368.09C635.36 367.451 642.642 367.665 650.038 367.992C649.974 375.042 649.564 382.334 650.232 389.357C643.815 387.675 635.527 389.15 628.81 388.815C627.995 387.364 628.359 384.928 628.347 383.239C628.462 378.153 628.271 373.162 627.968 368.09Z"/>
	<path fill="#5FA0B0" transform="scale(0.407715 0.407715)" d="M650.038 367.992L671.959 367.988C672.13 374.686 673.12 382.479 671.609 388.998Q661.181 388.992 650.758 389.342L650.232 389.357C649.564 382.334 649.974 375.042 650.038 367.992Z"/>
	<path fill="#228E9E" transform="scale(0.407715 0.407715)" d="M696.562 367.967C701.879 367.779 707.564 367.184 712.825 368.078C710.34 375.073 712.053 423.163 712.011 434.557L690.623 434.636L689.979 434.922L689.634 434.817C684.651 433.415 677.028 434.392 671.782 434.599C670.997 427.075 671.466 419.016 671.433 411.44L670.981 411.319C670.939 404.04 670.396 396.171 671.609 388.998C673.12 382.479 672.13 374.686 671.959 367.988Q684.261 368.092 696.562 367.967Z"/>
	<path fill="#33237F" transform="scale(0.407715 0.407715)" d="M671.433 411.44Q680.916 411.165 690.402 410.998C690.275 415.015 689.011 432.436 690.623 434.636L689.979 434.922L689.634 434.817C684.651 433.415 677.028 434.392 671.782 434.599C670.997 427.075 671.466 419.016 671.433 411.44Z"/>
	<path fill="#DA7913" transform="scale(0.407715 0.407715)" d="M696.928 201.085C703.282 201.013 709.639 200.882 715.991 201.113L716.459 201.487L737.485 201.492L737.452 219.403Q745.733 219.625 754.014 219.402C758.387 219.154 762.71 219.014 767.076 219.455Q769.324 219.54 771.573 219.582C773.446 219.606 775.462 219.926 776.827 218.583C776.567 214.893 775.209 204.567 777.363 201.725C785.664 201.375 793.794 201.255 802.094 201.549C803.545 206.824 802.909 214.585 802.586 220.015Q802.363 241.003 802.514 261.99C794.463 262.189 774.645 263.565 767.895 262.191L767.7 262.399C762.757 262.655 757.729 262.478 752.776 262.486C753.4 268.568 753.107 274.912 752.963 281.02Q744.936 281.074 736.91 280.917Q736.849 271.294 736.957 261.671C730.262 262.41 723.209 261.992 716.477 261.928L696.492 262.014C696.412 241.702 697.178 221.412 696.928 201.085Z"/>
	<path fill="#EA9F23" transform="scale(0.407715 0.407715)" d="M777.363 201.725C785.664 201.375 793.794 201.255 802.094 201.549C803.545 206.824 802.909 214.585 802.586 220.015L783.99 219.991C783.993 226.269 784.384 232.869 783.739 239.099C782.905 232.985 783.473 226.239 783.506 220.052C781.362 219.913 779.217 219.864 777.128 219.33L776.827 218.583C776.567 214.893 775.209 204.567 777.363 201.725Z"/>
	<path fill="#EBDB45" transform="scale(0.407715 0.407715)" d="M776.827 218.583L777.128 219.33C779.217 219.864 781.362 219.913 783.506 220.052C783.473 226.239 782.905 232.985 783.739 239.099C778.487 239.103 773.221 239.191 767.971 239.059C763.153 238.705 758.188 238.947 753.352 238.947L755.991 238.369C755.759 238.11 755.527 237.851 755.31 237.579C751.895 233.315 753.509 224.443 754.014 219.402C758.387 219.154 762.71 219.014 767.076 219.455Q769.324 219.54 771.573 219.582C773.446 219.606 775.462 219.926 776.827 218.583Z"/>
	<path fill="#FBC324" transform="scale(0.407715 0.407715)" d="M754.014 219.402C758.387 219.154 762.71 219.014 767.076 219.455C766.956 225.787 766.826 232.083 767.16 238.412L755.991 238.369C755.759 238.11 755.527 237.851 755.31 237.579C751.895 233.315 753.509 224.443 754.014 219.402Z"/>
	<path fill="#EBDB45" transform="scale(0.407715 0.407715)" d="M737.015 239.085C742.077 239.041 747.148 238.929 752.209 239.035L753.352 238.947C758.188 238.947 763.153 238.705 767.971 239.059C768.06 246.713 768.445 254.559 767.895 262.191L767.7 262.399C762.757 262.655 757.729 262.478 752.776 262.486C753.4 268.568 753.107 274.912 752.963 281.02Q744.936 281.074 736.91 280.917Q736.849 271.294 736.957 261.671L736.944 239.429L737.015 239.085Z"/>
	<path fill="#FAF9F6" transform="scale(0.407715 0.407715)" d="M753.352 238.947C758.188 238.947 763.153 238.705 767.971 239.059C768.06 246.713 768.445 254.559 767.895 262.191L767.7 262.399C762.757 262.655 757.729 262.478 752.776 262.486C751.485 255.252 752.318 246.438 752.209 239.035L753.352 238.947Z"/>
	<path fill="#EBDB45" transform="scale(0.407715 0.407715)" d="M696.928 201.085C703.282 201.013 709.639 200.882 715.991 201.113L716.459 201.487L737.485 201.492L737.452 219.403Q745.733 219.625 754.014 219.402C753.509 224.443 751.895 233.315 755.31 237.579C755.527 237.851 755.759 238.11 755.991 238.369L753.352 238.947L752.209 239.035C747.148 238.929 742.077 239.041 737.015 239.085L736.944 239.429L736.957 261.671C730.262 262.41 723.209 261.992 716.477 261.928L696.492 262.014C696.412 241.702 697.178 221.412 696.928 201.085Z"/>
	<path fill="#EA9F23" transform="scale(0.407715 0.407715)" d="M716.5 239.554L736.944 239.429L736.957 261.671C730.262 262.41 723.209 261.992 716.477 261.928L716.5 239.554Z"/>
	<path fill="#EA9F23" transform="scale(0.407715 0.407715)" d="M716.459 201.487L737.485 201.492L737.452 219.403Q745.733 219.625 754.014 219.402C753.509 224.443 751.895 233.315 755.31 237.579C755.527 237.851 755.759 238.11 755.991 238.369L753.352 238.947L752.209 239.035C747.148 238.929 742.077 239.041 737.015 239.085L736.944 239.429L716.5 239.554L716.49 219.325L716.459 201.487Z"/>
	<path fill="#FBC324" transform="scale(0.407715 0.407715)" d="M716.49 219.325C723.449 219.073 730.468 218.743 737.419 219.317C736.961 225.793 736.64 232.604 737.015 239.085L736.944 239.429L716.5 239.554L716.49 219.325Z"/>
	<path fill="#BB6D12" transform="scale(0.407715 0.407715)" d="M802.514 261.99L824.014 261.976C824.179 268.19 824.254 274.303 823.939 280.514L823.7 280.758C823.324 286.05 823.345 291.303 823.385 296.603L802.071 296.925L802.016 303.997C801.94 310.79 801.572 317.732 801.91 324.51Q802.157 335.753 802.008 346.998C790.745 346.118 779.298 346.761 768.012 347.036L768.019 333.41C762.692 333.385 757.311 333.217 751.987 333.363C744.647 332.966 737.488 333.123 730.156 333.72C730.308 337.994 730.315 342.211 730.146 346.484C726.402 346.418 717.003 345.324 713.758 346.336L713.54 345.707C713.86 344.639 713.812 344.189 714.857 343.654C715.506 343.321 715.994 343.274 716.597 342.828C721.036 339.547 716.816 329.5 718.075 324.734C719.194 323.654 720.729 323.796 722.247 323.587Q720.072 323.486 717.9 323.342C715.954 321.069 716.943 301.145 717.005 297.469L736.943 297.497C737.062 292.312 737.72 286.093 736.654 281.033L736.91 280.917Q744.936 281.074 752.963 281.02C753.107 274.912 753.4 268.568 752.776 262.486C757.729 262.478 762.757 262.655 767.7 262.399L767.895 262.191C774.645 263.565 794.463 262.189 802.514 261.99Z"/>
	<path fill="#EA9F23" transform="scale(0.407715 0.407715)" d="M736.91 280.917Q744.936 281.074 752.963 281.02L752.729 297.754C747.624 297.83 742.477 298.05 737.376 297.862C737.401 301.148 737.555 304.494 737.398 307.774C736.711 304.454 736.939 300.879 736.943 297.497C737.062 292.312 737.72 286.093 736.654 281.033L736.91 280.917Z"/>
	<path fill="#EA9F23" transform="scale(0.407715 0.407715)" d="M765.492 297.441L783.011 297.503L783.006 323.43L765.5 323.163L765.492 297.441Z"/>
	<path fill="#FBC324" transform="scale(0.407715 0.407715)" d="M717.005 297.469L736.943 297.497C736.939 300.879 736.711 304.454 737.398 307.774C737.442 313.153 737.437 318.472 737.065 323.843C732.226 323.387 727.101 323.293 722.247 323.587Q720.072 323.486 717.9 323.342C715.954 321.069 716.943 301.145 717.005 297.469Z"/>
	<path fill="#EA9F23" transform="scale(0.407715 0.407715)" d="M802.514 261.99L824.014 261.976C824.179 268.19 824.254 274.303 823.939 280.514L823.7 280.758C818.131 279.81 811.097 280.899 805.362 280.972C792.895 281.129 780.415 281.031 767.947 281.018L752.963 281.02C753.107 274.912 753.4 268.568 752.776 262.486C757.729 262.478 762.757 262.655 767.7 262.399L767.895 262.191C774.645 263.565 794.463 262.189 802.514 261.99Z"/>
	<path fill="#FBC324" transform="scale(0.407715 0.407715)" d="M752.776 262.486C757.729 262.478 762.757 262.655 767.7 262.399C768.298 268.542 767.666 274.836 767.947 281.018L752.963 281.02C753.107 274.912 753.4 268.568 752.776 262.486Z"/>
	<path fill="#DA7913" transform="scale(0.407715 0.407715)" d="M174.03 809.367C184.643 807.838 196.329 808.846 207.031 808.958L207.027 826.249Q217.272 826.534 227.521 826.493L227.508 859.004C220.668 858.888 213.824 858.68 206.987 858.98L207.009 870.676Q198.486 870.491 189.961 870.487L189.953 882.005L172.776 882.031L172.97 912.003L157.479 912.022L157.497 927.024Q130.98 927.54 104.457 927.496L104.483 913.532C104.437 896.368 104.092 879.141 104.605 861.986C110.675 862.16 116.95 862.575 122.97 861.658C122.505 855.709 122.745 849.625 122.808 843.66C128.835 843.103 134.465 843.098 140.484 843.69C145.894 844.595 151.131 843.617 156.498 844.124L156.852 844.084C157.359 837.811 157.658 831.85 156.979 825.572C156.98 820.306 156.814 814.984 157.369 809.743C162.918 809.266 168.479 809.637 174.03 809.367Z"/>
	<path fill="#FAF9F6" transform="scale(0.407715 0.407715)" d="M156.852 844.084Q165.448 843.872 174.045 844.038L174.009 862.929L156.506 863.05C156.104 856.722 156.052 850.451 156.498 844.124L156.852 844.084Z"/>
	<path fill="#FBC324" transform="scale(0.407715 0.407715)" d="M157.369 809.743C162.918 809.266 168.479 809.637 174.03 809.367L173.977 825.582L190.003 825.583L189.998 844.078L174.045 844.038Q165.448 843.872 156.852 844.084C157.359 837.811 157.658 831.85 156.979 825.572C156.98 820.306 156.814 814.984 157.369 809.743Z"/>
	<path fill="#FBC324" transform="scale(0.407715 0.407715)" d="M122.808 843.66C128.835 843.103 134.465 843.098 140.484 843.69C145.894 844.595 151.131 843.617 156.498 844.124C156.052 850.451 156.104 856.722 156.506 863.05L156.5 880.903C151.185 880.605 146.047 881.116 140.727 880.393L140.601 879.947C140.277 874.008 140.486 867.949 140.488 861.998Q131.755 862.081 123.023 861.958L122.97 861.658C122.505 855.709 122.745 849.625 122.808 843.66Z"/>
	<path fill="#FBC324" transform="scale(0.407715 0.407715)" d="M104.605 861.986C110.675 862.16 116.95 862.575 122.97 861.658L123.023 861.958Q131.755 862.081 140.488 861.998C140.486 867.949 140.277 874.008 140.601 879.947L140.727 880.393C139.991 885.737 140.39 891.565 140.347 896.964L122.496 896.996L122.519 913.456Q113.501 913.404 104.483 913.532C104.437 896.368 104.092 879.141 104.605 861.986Z"/>
	<path fill="#DA7913" transform="scale(0.407715 0.407715)" d="M123.023 861.958Q131.755 862.081 140.488 861.998C140.486 867.949 140.277 874.008 140.601 879.947C134.615 880.239 128.493 879.958 122.494 879.934C122.333 874.168 121.716 867.569 123.023 861.958Z"/>
	<path fill="#83C4C4" transform="scale(0.407715 0.407715)" d="M716.477 261.928C723.209 261.992 730.262 262.41 736.957 261.671Q736.849 271.294 736.91 280.917L736.654 281.033C737.72 286.093 737.062 292.312 736.943 297.497L717.005 297.469C716.943 301.145 715.954 321.069 717.9 323.342Q720.072 323.486 722.247 323.587C720.729 323.796 719.194 323.654 718.075 324.734C716.816 329.5 721.036 339.547 716.597 342.828C715.994 343.274 715.506 343.321 714.857 343.654C713.812 344.189 713.86 344.639 713.54 345.707L713.758 346.336C714.043 351.195 715.952 364.258 712.825 368.078C707.564 367.184 701.879 367.779 696.562 367.967Q684.261 368.092 671.959 367.988L650.038 367.992C642.642 367.665 635.36 367.451 627.968 368.09L627.655 367.927C620.272 367.691 612.848 367.773 605.459 367.7Q605.553 357.594 605.321 347.49L605.114 347.266C604.762 341.171 604.935 335.067 605.026 328.966C598.333 328.527 591.63 328.839 584.933 329.025Q584.705 317.478 584.906 305.931L585.937 305.865L606.387 305.968L627.865 306.024Q627.647 294.529 627.882 283.034C635.249 283.003 642.635 283.09 649.999 282.936L650.043 282.662C649.816 275.93 650 269.138 650.008 262.4C655.972 262.549 662.018 262.765 667.959 262.15Q682.224 261.841 696.492 262.014L716.477 261.928Z"/>
	<path fill="#979227" transform="scale(0.407715 0.407715)" d="M667.959 262.15C667.931 266.176 667.09 278.744 668.391 281.83C670.928 282.054 673.453 282.269 676 282.355C669.311 282.863 656.253 283.491 650.043 282.662C649.816 275.93 650 269.138 650.008 262.4C655.972 262.549 662.018 262.765 667.959 262.15Z"/>
	<path fill="#762B94" transform="scale(0.407715 0.407715)" d="M605.321 347.49Q616.663 347.185 628.008 347.279Q627.239 357.593 627.655 367.927C620.272 367.691 612.848 367.773 605.459 367.7Q605.553 357.594 605.321 347.49Z"/>
	<path fill="#66B3DB" transform="scale(0.407715 0.407715)" d="M627.882 283.034C635.249 283.003 642.635 283.09 649.999 282.936L650.007 306.032C642.641 306.042 635.225 306.235 627.865 306.024Q627.647 294.529 627.882 283.034Z"/>
	<path fill="#A0DCF0" transform="scale(0.407715 0.407715)" d="M585.937 305.865L606.387 305.968C606.371 313.492 606.292 320.984 605.912 328.5Q627.94 327.956 649.974 328.022L650.004 346.993Q636.962 347.092 623.92 346.91C618.117 346.848 610.707 345.991 605.114 347.266C604.762 341.171 604.935 335.067 605.026 328.966C598.333 328.527 591.63 328.839 584.933 329.025Q584.705 317.478 584.906 305.931L585.937 305.865Z"/>
	<path fill="#DA7913" transform="scale(0.407715 0.407715)" d="M696.688 297.277Q706.844 297.601 717.005 297.469C716.943 301.145 715.954 321.069 717.9 323.342Q720.072 323.486 722.247 323.587C720.729 323.796 719.194 323.654 718.075 324.734C716.816 329.5 721.036 339.547 716.597 342.828C715.994 343.274 715.506 343.321 714.857 343.654C713.812 344.189 713.86 344.639 713.54 345.707L713.758 346.336C714.043 351.195 715.952 364.258 712.825 368.078C707.564 367.184 701.879 367.779 696.562 367.967C696.231 355.233 696.502 342.429 696.503 329.687C696.503 318.926 696.144 308.02 696.688 297.277Z"/>
	<path fill="#FBC324" transform="scale(0.407715 0.407715)" d="M716.477 261.928C723.209 261.992 730.262 262.41 736.957 261.671Q736.849 271.294 736.91 280.917L736.654 281.033C737.72 286.093 737.062 292.312 736.943 297.497L717.005 297.469Q706.844 297.601 696.688 297.277C696.572 296.637 696.362 295.994 696.192 295.365C693.148 293.317 680.207 294.439 676.014 294.524L676 282.355C673.453 282.269 670.928 282.054 668.391 281.83C667.09 278.744 667.931 266.176 667.959 262.15Q682.224 261.841 696.492 262.014L716.477 261.928Z"/>
	<path fill="#BB6D12" transform="scale(0.407715 0.407715)" d="M668.391 281.83C674.992 280.868 682.486 281.302 689.211 281.205Q712.932 280.962 736.654 281.033C737.72 286.093 737.062 292.312 736.943 297.497L717.005 297.469Q706.844 297.601 696.688 297.277C696.572 296.637 696.362 295.994 696.192 295.365C693.148 293.317 680.207 294.439 676.014 294.524L676 282.355C673.453 282.269 670.928 282.054 668.391 281.83Z"/>
	<path fill="#53216D" transform="scale(0.407715 0.407715)" d="M551.606 439.417C557.197 439.675 562.816 439.463 568.422 439.729L569.174 440.411C573.64 440.439 578.104 440.431 582.563 440.699L583.378 440.929C583.374 446.537 582.699 452.502 583.431 458.044L583.375 458.358C583.487 464.461 584.106 471.552 582.594 477.496L582.407 477.816Q574.201 478.099 565.991 478.001C565.996 484.207 566.161 490.471 565.861 496.667L565.574 496.929Q565.435 507.476 565.515 518.024C560.027 517.976 552.359 516.992 547.112 518.49L547.131 518.858C540.452 519.466 533.722 519.45 527.019 519.568C527.049 523.564 527.98 536.365 526.409 539.087L525.512 539.375L525.057 539.508L505.996 539.473C505.979 545.995 506.332 552.84 505.151 559.277C504.644 560.03 504.335 560.586 504.114 561.468C503.315 568.056 503.48 574.765 503.507 581.394L481.778 581.478L481.537 583.984L481.464 603.503C475.349 603.49 467.911 602.723 462.043 604.315C455.551 605 449.118 605.053 442.597 605.007C442.775 610.823 443.762 618.367 441.934 623.925L440.824 624.907C435.8 626.811 424.57 625.596 419.006 625.473C419.074 631.638 420.108 639.877 418.305 645.793L417.84 646.865C411.207 647.334 404.648 647.59 397.994 647.39C397.957 653.186 398.957 662.126 396.959 667.535C395.912 668.293 396.256 667.817 395.834 668.891C389.794 670.069 383.004 669.535 376.851 669.418Q376.64 678.701 376.915 687.982C375.943 688.609 374.971 689.203 374.074 689.937L354.456 689.995C354.502 696.581 354.979 703.558 354.115 710.095L353.874 710.363C347.081 710.587 340.277 710.906 333.483 711.013C333.546 717.409 334.498 725.483 332.915 731.687L332.577 731.908Q322.791 732.07 313.003 731.989C313.025 738.252 313.832 745.861 312.684 751.946L311.353 754.001L290.973 754.002C291.024 760.715 291.492 767.708 290.096 774.31L289.25 775.428C285.953 776.686 273.704 775.946 269.463 775.969C269.501 782.693 270.135 790.124 268.938 796.757L268.58 797.39C262.041 797.812 255.553 797.945 249.002 797.915C249.008 803.953 249.269 810.148 248.803 816.162Q248.469 820.531 248.307 824.91C246.815 825.169 245.07 825.315 243.641 825.775C239.042 827.474 232.434 826.626 227.521 826.493Q217.272 826.534 207.027 826.249L207.031 808.958L207.526 808.122C207.04 800.363 208.054 792.473 207.253 784.74C214.229 784.329 221.3 784.537 228.296 784.32L228.448 783.918C228.746 776.456 228.532 768.92 228.521 761.449L249.902 761.346Q249.604 750.934 249.888 740.521L270.554 740.494L270.496 718.11C277.503 717.969 284.527 718.066 291.536 718.074C292.282 716.619 292.083 714.865 292.105 713.243L292.024 696.463C299.345 696.307 306.687 696.411 314.01 696.406Q314.134 685.81 314.004 675.215C320.986 674.967 328.061 674.884 335.044 675.132C342.05 675.515 349.096 675.454 356.112 675.511Q356.388 664.763 356.527 654.012L356.845 654.015C357.154 647.355 356.951 640.593 356.976 633.921Q367.964 633.554 378.957 633.464L378.982 611.541C386.001 611.401 393.033 611.428 400.054 611.379C399.92 604.287 399.989 597.179 399.964 590.085Q411 589.916 422.037 590.07L422.021 568.978L442.31 568.945C442.02 562.034 442.15 555.067 442.117 548.148L463.084 548.139L463.014 526.559L484.999 526.523L484.993 504.349C492.557 503.351 500.387 504.83 507.952 503.829C508.061 495.549 507.984 487.259 507.994 478.978L531.072 478.932C530.854 472.279 530.921 465.623 530.946 458.967L551.885 459.025C551.418 452.511 551.593 445.943 551.606 439.417Z"/>
	<path fill="#3A0F4A" transform="scale(0.407715 0.407715)" d="M462.491 584L481.537 583.984L481.464 603.503C475.349 603.49 467.911 602.723 462.043 604.315C463.129 597.81 462.529 590.582 462.491 584Z"/>
	<path fill="#3A0F4A" transform="scale(0.407715 0.407715)" d="M547.014 496.996L565.574 496.929Q565.435 507.476 565.515 518.024C560.027 517.976 552.359 516.992 547.112 518.49C546.87 511.337 547.001 504.153 547.014 496.996Z"/>
	<path fill="#3A0F4A" transform="scale(0.407715 0.407715)" d="M482.048 561.489C489.435 561.878 496.73 562.158 504.114 561.468C503.315 568.056 503.48 574.765 503.507 581.394L481.778 581.478C482.604 575.046 482.076 567.997 482.048 561.489Z"/>
	<path fill="#A542A3" transform="scale(0.407715 0.407715)" d="M356.976 633.921Q367.964 633.554 378.957 633.464C379.372 640.68 379.24 647.738 378.992 654.962C372.349 655.086 363.14 656.295 356.845 654.015C357.154 647.355 356.951 640.593 356.976 633.921Z"/>
	<path fill="#A542A3" transform="scale(0.407715 0.407715)" d="M207.253 784.74C214.229 784.329 221.3 784.537 228.296 784.32C228.979 792.107 228.57 800.185 228.501 808.003C221.448 807.658 214.578 807.561 207.526 808.122C207.04 800.363 208.054 792.473 207.253 784.74Z"/>
	<path fill="#A542A3" transform="scale(0.407715 0.407715)" d="M314.004 675.215C320.986 674.967 328.061 674.884 335.044 675.132L335.021 696.998L314.007 696.978L313.771 717.999C306.893 718.013 299.474 718.608 292.664 717.885C292.451 716.338 292.256 714.797 292.105 713.243L292.024 696.463C299.345 696.307 306.687 696.411 314.01 696.406Q314.134 685.81 314.004 675.215Z"/>
	<path fill="#A542A3" transform="scale(0.407715 0.407715)" d="M270.496 718.11C277.503 717.969 284.527 718.066 291.536 718.074C292.863 720.543 292.038 737.254 292.009 740.999L270.959 740.981C271.019 747.804 271.258 754.679 270.76 761.489L249.985 761.491L249.986 783.996C243.026 784.026 235.317 784.743 228.448 783.918C228.746 776.456 228.532 768.92 228.521 761.449L249.902 761.346Q249.604 750.934 249.888 740.521L270.554 740.494L270.496 718.11Z"/>
	<path fill="#A542A3" transform="scale(0.407715 0.407715)" d="M551.606 439.417C557.197 439.675 562.816 439.463 568.422 439.729L569.174 440.411C573.64 440.439 578.104 440.431 582.563 440.699L583.378 440.929C583.374 446.537 582.699 452.502 583.431 458.044L583.375 458.358L582.862 460.689C581.03 461.737 572.021 460.376 569.538 460.063L552.01 459.547L552.007 479.608L531.516 479.491L531.538 503.212C524.002 503.178 515.255 502.254 507.952 503.829C508.061 495.549 507.984 487.259 507.994 478.978L531.072 478.932C530.854 472.279 530.921 465.623 530.946 458.967L551.885 459.025C551.418 452.511 551.593 445.943 551.606 439.417Z"/>
	<path fill="#762B94" transform="scale(0.407715 0.407715)" d="M569.174 440.411C573.64 440.439 578.104 440.431 582.563 440.699L583.378 440.929C583.374 446.537 582.699 452.502 583.431 458.044L583.375 458.358L582.862 460.689C581.03 461.737 572.021 460.376 569.538 460.063C569.534 453.522 569.707 446.934 569.174 440.411Z"/>
	<path fill="#A542A3" transform="scale(0.407715 0.407715)" d="M484.999 526.523L484.993 504.349C492.274 504.773 499.671 504.496 506.967 504.454C508.068 511.847 507.33 519.566 506.981 527.004L484.997 526.975L484.998 548.998L463.358 548.977Q463.5 559.239 463.306 569.501Q453.117 569.649 442.929 569.494L443.009 591.944C436.039 591.966 429.011 592.179 422.068 591.456L422.009 611.946Q411.174 611.99 400.342 611.759Q400.426 622.676 400.001 633.585C392.984 633.643 385.97 633.752 378.957 633.464L378.982 611.541C386.001 611.401 393.033 611.428 400.054 611.379C399.92 604.287 399.989 597.179 399.964 590.085Q411 589.916 422.037 590.07L422.021 568.978L442.31 568.945C442.02 562.034 442.15 555.067 442.117 548.148L463.084 548.139L463.014 526.559L484.999 526.523Z"/>
</svg>
