<?xml version="1.0" encoding="utf-8" ?>
<svg xmlns="http://www.w3.org/2000/svg" xmlns:xlink="http://www.w3.org/1999/xlink" width="417" height="417">
	<path fill="#CC6118" transform="scale(0.407715 0.407715)" d="M208.49 438.951L223.953 439.068L223.942 456.041Q216.178 455.855 208.414 456.002L208.49 438.951Z"/>
	<path fill="#5F221B" transform="scale(0.407715 0.407715)" d="M104.107 362.235C104.392 364.665 104.487 367.014 104.505 369.455Q112.764 369.525 121.022 369.424L121.116 387.484L104.104 387.487Q103.997 374.861 104.107 362.235Z"/>
	<path fill="#CC6118" transform="scale(0.407715 0.407715)" d="M224.068 456.504L224.862 456.549C231.164 457.623 238.221 457.074 244.631 456.988C244.543 461.863 243.616 468.748 244.954 473.379C238.077 473.595 231.148 473.316 224.255 473.468C223.916 467.834 224.065 462.148 224.068 456.504Z"/>
	<path fill="#894122" transform="scale(0.407715 0.407715)" d="M727.577 289.308C733.846 290.224 740.513 289.747 746.838 289.548C746.871 295.689 746.394 302.367 747.288 308.438L727.986 308.391L727.77 307.907C727.263 301.806 727.583 295.442 727.577 289.308Z"/>
	<path fill="#894122" transform="scale(0.407715 0.407715)" d="M768.178 327.984C774.434 328.103 780.712 328.121 786.963 328.378C786.654 334.682 785.522 342.464 787.544 348.528L782.157 348.651C778.235 348.673 772.011 349.511 768.403 348.167Q768.368 338.075 768.178 327.984Z"/>
	<path fill="#894122" transform="scale(0.407715 0.407715)" d="M747.288 308.438C754.163 308.443 761.044 308.386 767.918 308.473L768.005 327.527L747.516 327.486L747.322 324.053C747.428 318.841 747.566 313.647 747.288 308.438Z"/>
	<path fill="#CFED49" transform="scale(0.407715 0.407715)" d="M747.516 327.486L768.005 327.527L768.178 327.984Q768.368 338.075 768.403 348.167C761.624 347.798 754.762 347.999 747.972 348.017Q747.607 337.755 747.516 327.486Z"/>
	<path fill="#5F221B" transform="scale(0.407715 0.407715)" d="M139.608 407.389C152.99 409.725 166.086 407.619 179.479 408.061L179.307 426.909C166.208 426.297 152.771 426.394 139.667 426.913L139.608 407.389Z"/>
	<path fill="#894122" transform="scale(0.407715 0.407715)" d="M787.544 348.528L805.938 348.579L805.911 374.093C805.899 379.092 805.379 385.064 806.379 389.974L787.98 389.985C787.953 379.731 789.41 357.4 787.544 348.528Z"/>
	<path fill="#894122" transform="scale(0.407715 0.407715)" d="M584.074 184.488Q606.758 184.808 629.442 184.58C629.464 190.361 629.317 196.216 629.585 201.989C622.369 201.721 615.244 201.783 608.03 201.998C600.198 201.605 592.323 201.839 584.489 202.009L584.173 201.676C583.897 195.967 584.064 190.204 584.074 184.488Z"/>
	<path fill="#894122" transform="scale(0.407715 0.407715)" d="M826.014 411.865Q835.013 411.975 844.013 411.975C844.01 426.983 843.849 442.01 844.064 457.015Q835.037 456.667 826.009 456.995C827.58 442.314 826.415 426.637 826.014 411.865Z"/>
	<path fill="#894122" transform="scale(0.407715 0.407715)" d="M806.379 389.974L825.562 389.977C825.527 396.864 824.803 404.707 825.808 411.48L814.753 411.352C812.221 411.113 809.654 411.536 807.196 410.774L806.725 409.582L806.319 410.726C801.794 412.031 793.015 411.123 788.038 411.072L787.821 409.006C788.236 402.721 787.991 396.287 787.98 389.985L806.379 389.974Z"/>
	<path fill="#CFED49" transform="scale(0.407715 0.407715)" d="M787.98 389.985L806.379 389.974C807.012 396.538 807.048 402.999 806.725 409.582L806.319 410.726C801.794 412.031 793.015 411.123 788.038 411.072L787.821 409.006C788.236 402.721 787.991 396.287 787.98 389.985Z"/>
	<path fill="#CFED49" transform="scale(0.407715 0.407715)" d="M814.753 411.352L825.808 411.48L826.014 411.865C826.415 426.637 827.58 442.314 826.009 456.995L810.418 457.076C810.469 451.553 811.526 439.51 810.255 434.69C809.802 432.974 808.394 432.763 806.924 432.081C804.853 426.216 806.264 417.581 806.561 411.358L814.753 411.352Z"/>
	<path fill="#894122" transform="scale(0.407715 0.407715)" d="M143.079 251.547L163.03 251.513C162.738 258.344 162.474 265.151 162.511 271.989C156.139 271.935 149.741 271.734 143.387 272.282L143.214 293.504C136.645 293.464 129.978 293.046 123.542 294.579L123.474 272.35Q133.33 272.365 143.183 272.163Q143.284 261.854 143.079 251.547Z"/>
	<path fill="#55963D" transform="scale(0.407715 0.407715)" d="M788.038 411.072C793.015 411.123 801.794 412.031 806.319 410.726L806.725 409.582L807.196 410.774C809.654 411.536 812.221 411.113 814.753 411.352L806.561 411.358C806.264 417.581 804.853 426.216 806.924 432.081C808.394 432.763 809.802 432.974 810.255 434.69C811.526 439.51 810.469 451.553 810.418 457.076C806.414 457.457 802.518 457.37 798.516 457.038L793.047 456.526C792.964 449.25 793.846 441.252 792.857 434.085C792.749 433.302 792.897 433.647 792.144 433.068C790.769 433.074 789.374 433.283 788.201 432.454C786.259 426.804 787.437 417.043 788.038 411.072Z"/>
	<path fill="#894122" transform="scale(0.407715 0.407715)" d="M280.036 160.081Q290.007 160.086 299.977 159.938L299.989 179.459L300.023 198.146C294.718 197.99 289.399 198.089 284.093 198.113L280.022 198.022C274.037 197.964 266.854 197.148 260.986 198.215L260.826 197.882C261.824 191.832 261.278 185.487 261.03 179.385C267.375 179.449 273.695 179.464 280.037 179.244C280.137 172.862 280.042 166.465 280.036 160.081Z"/>
	<path fill="#CFED49" transform="scale(0.407715 0.407715)" d="M280.033 179.464C286.715 178.915 293.31 178.834 299.989 179.459L300.023 198.146C294.718 197.99 289.399 198.089 284.093 198.113L280.022 198.022C279.664 191.801 279.825 185.685 280.033 179.464Z"/>
	<path fill="#CC6118" transform="scale(0.407715 0.407715)" d="M264.85 489.454C270.351 489.512 275.966 489.34 281.451 489.647L281.405 531.985L281.573 560.358C276.329 561.813 270.354 560.826 264.924 561.448C264.518 537.483 264.921 513.43 264.85 489.454Z"/>
	<defs>
		<linearGradient id="gradient_0" gradientUnits="userSpaceOnUse" x1="262.10342" y1="227.65768" x2="210.94144" y2="189.79582">
			<stop offset="0" stop-color="#88381D"/>
			<stop offset="1" stop-color="#9B2D31"/>
		</linearGradient>
	</defs>
	<path fill="url(#gradient_0)" transform="scale(0.407715 0.407715)" d="M204.007 197.503L241.192 197.454C247.557 197.447 254.549 196.899 260.826 197.882L260.986 198.215L261.119 231.968C253.999 231.6 246.973 231.431 239.858 232.108C240.003 226.075 239.969 220.028 240.011 213.993Q222.02 213.997 204.034 214.465Q203.961 205.984 204.007 197.503Z"/>
	<path fill="#894122" transform="scale(0.407715 0.407715)" d="M608.03 201.998C615.244 201.783 622.369 201.721 629.585 201.989L630.002 216.125L630.669 216.083C634.469 215.872 647.223 216.864 649.648 215.009C649.908 214.203 649.997 213.059 650.809 212.699C655.21 210.747 663.63 212.083 668.533 212.262C668.499 218.394 668.036 224.896 668.775 230.983C662.367 230.954 655.943 230.84 649.537 231.006L649.59 251.07C628.318 249.614 606.711 251.047 585.388 251.162L585.517 273.006C579.012 272.595 572.527 272.656 566.013 272.698L566.012 244.543Q587.007 244.766 608.002 244.505Q607.834 234.248 607.823 223.99C608.191 216.9 608.034 209.728 608.07 202.626L608.03 201.998Z"/>
	<path fill="#85C344" transform="scale(0.407715 0.407715)" d="M608.03 201.998C615.244 201.783 622.369 201.721 629.585 201.989L630.002 216.125L630.087 244.583L608.002 244.505Q607.834 234.248 607.823 223.99C608.191 216.9 608.034 209.728 608.07 202.626L608.03 201.998Z"/>
	<path fill="#55963D" transform="scale(0.407715 0.407715)" d="M608.03 201.998C615.244 201.783 622.369 201.721 629.585 201.989L630.002 216.125C624.513 217.774 614.377 216.604 608.54 216.437C608.552 211.909 608.913 207.079 608.07 202.626L608.03 201.998Z"/>
	<path fill="#894122" transform="scale(0.407715 0.407715)" d="M649.537 231.006C655.943 230.84 662.367 230.954 668.775 230.983L687.105 230.987C686.906 237.491 686.561 244.017 686.963 250.518Q696.792 250.619 706.621 250.578C706.564 257.047 706.406 263.531 706.623 269.997C700.171 269.757 693.861 269.597 687.415 270.119L687.481 289.293C687.513 295.577 687.993 302.259 687.053 308.483C681.058 307.549 674.537 308.076 668.481 308.195L668.496 289.257C662.416 289.122 656.312 289.226 650.23 289.222C649.924 276.509 650.464 263.802 649.971 251.082L649.59 251.07L649.537 231.006Z"/>
	<path fill="#FEDE20" transform="scale(0.407715 0.407715)" d="M649.537 231.006C655.943 230.84 662.367 230.954 668.775 230.983Q668.985 240.738 668.92 250.495C674.93 250.505 680.991 250.351 686.992 250.694C686.997 257.153 686.908 263.63 687.059 270.087L668.474 270.06L668.498 250.583C662.688 250.424 655.588 249.532 649.971 251.082L649.59 251.07L649.537 231.006Z"/>
	<path fill="#894122" transform="scale(0.407715 0.407715)" d="M758.478 740.488Q769.49 740.391 780.498 740.698C779.283 740.749 778.05 740.607 777.087 741.453C774.27 750.791 776.634 767.669 776.478 777.961C783.206 778.345 789.753 778.579 796.484 777.985C817.987 776.475 839.531 778.302 861.033 777.419L860.994 796.012Q818.968 795.31 776.942 795.979L777.038 828.407Q776.944 844.714 777.496 861.012C771.193 860.872 764.718 861.121 758.445 860.703C759.061 841.435 758.512 821.985 758.51 802.698L758.478 740.488Z"/>
	<path fill="#55963D" transform="scale(0.407715 0.407715)" d="M687.415 270.119C693.861 269.597 700.171 269.757 706.623 269.997L706.981 270.102C713.779 270.168 720.707 269.976 727.482 270.464C727.489 276.735 727.363 283.043 727.577 289.308C727.583 295.442 727.263 301.806 727.77 307.907L727.986 308.391L747.288 308.438C747.566 313.647 747.428 318.841 747.322 324.053L747.516 327.486Q747.607 337.755 747.972 348.017C754.762 347.999 761.624 347.798 768.403 348.167C772.011 349.511 778.235 348.673 782.157 348.651L787.544 348.528C789.41 357.4 787.953 379.731 787.98 389.985C787.991 396.287 788.236 402.721 787.821 409.006C782.328 406.345 767.172 408.021 760.543 408.212L760.549 386.989L751.017 386.97L742.896 386.978L722.038 386.993L722.101 343.982L705.488 343.984C705.491 339.912 706.779 329.592 704.319 326.788C700.358 324.581 691.985 326.185 687.495 326.443L687.455 308.524L687.053 308.483C687.993 302.259 687.513 295.577 687.481 289.293L687.415 270.119Z"/>
	<path fill="#894122" transform="scale(0.407715 0.407715)" d="M745.82 368.479C747.334 368.48 749.48 368.216 750.8 368.956C751.337 374.884 751.033 381.014 751.017 386.97L742.896 386.978C743.068 382.721 741.945 373.077 743.519 369.655C743.867 368.899 745.065 368.744 745.82 368.479Z"/>
	<path fill="#CFED49" transform="scale(0.407715 0.407715)" d="M727.986 308.391L747.288 308.438C747.566 313.647 747.428 318.841 747.322 324.053C747.302 325.323 747.355 326.033 746.651 327.143C740.721 327.868 733.987 327.179 727.978 327.092L727.986 308.391Z"/>
	<path fill="#CFED49" transform="scale(0.407715 0.407715)" d="M787.544 348.528C789.41 357.4 787.953 379.731 787.98 389.985Q778.516 390.285 769.047 390.227L768.904 348.837C773.332 348.873 777.733 348.895 782.157 348.651L787.544 348.528Z"/>
	<path fill="#CFED49" transform="scale(0.407715 0.407715)" d="M687.415 270.119C693.861 269.597 700.171 269.757 706.623 269.997L706.981 270.102C713.779 270.168 720.707 269.976 727.482 270.464C727.489 276.735 727.363 283.043 727.577 289.308C727.583 295.442 727.263 301.806 727.77 307.907C724.716 309.708 711.027 308.585 706.953 308.514L706.981 289.235C700.488 289.6 693.977 289.479 687.481 289.293L687.415 270.119Z"/>
	<path fill="#894122" transform="scale(0.407715 0.407715)" d="M706.981 270.102C713.779 270.168 720.707 269.976 727.482 270.464C727.489 276.735 727.363 283.043 727.577 289.308C721.049 287.946 713.712 288.751 707.073 289.034C706.794 282.748 706.968 276.395 706.981 270.102Z"/>
	<path fill="#894122" transform="scale(0.407715 0.407715)" d="M687.455 308.524C693.932 308.331 700.412 308.457 706.89 308.53L706.348 325.87C711.792 326.194 717.122 326.142 722.567 325.967L722.394 343.952L739.669 343.953C739.523 348.962 738.083 364.686 740.514 368.193C742.339 368.641 743.951 368.568 745.82 368.479C745.065 368.744 743.867 368.899 743.519 369.655C741.945 373.077 743.068 382.721 742.896 386.978L722.038 386.993L722.101 343.982L705.488 343.984C705.491 339.912 706.779 329.592 704.319 326.788C700.358 324.581 691.985 326.185 687.495 326.443L687.455 308.524Z"/>
	<path fill="#D8731A" transform="scale(0.407715 0.407715)" d="M264.924 561.448C270.354 560.826 276.329 561.813 281.573 560.358L281.7 576.81C275.959 576.672 270.249 576.517 264.512 576.87L264.558 644.044L282.059 644.017C281.845 653.714 280.148 682.155 282.324 689.582C283.471 690.161 284.333 690.116 285.589 690.139C284.843 690.247 283.425 690.192 283.014 690.85C281.016 694.041 282.012 702.166 282.46 705.964L300.971 705.925L321.501 705.972C321.492 711.235 321.826 716.837 321.376 722.067L321.377 722.439C321.464 727.207 321.563 731.96 321.365 736.727C320.231 743.066 320.801 750.491 320.78 756.954L320.985 802.922C314.074 802.227 306.981 802.521 300.037 802.535C294.37 802.354 288.11 801.73 282.535 802.857L282.381 803.38Q274.242 803.517 266.101 803.498Q265.842 730.756 266.463 658.015L247.606 658.051Q247.502 609.78 247.952 561.513C253.634 561.919 259.245 561.826 264.924 561.448Z"/>
	<path fill="#EC9629" transform="scale(0.407715 0.407715)" d="M282.46 705.964L300.971 705.925L321.501 705.972C321.492 711.235 321.826 716.837 321.376 722.067L321.377 722.439C321.464 727.207 321.563 731.96 321.365 736.727C320.231 743.066 320.801 750.491 320.78 756.954L320.985 802.922C314.074 802.227 306.981 802.521 300.037 802.535C294.37 802.354 288.11 801.73 282.535 802.857L282.507 740.012Q282.763 722.988 282.46 705.964Z"/>
	<path fill="#894122" transform="scale(0.407715 0.407715)" d="M300.971 705.925L321.501 705.972C321.492 711.235 321.826 716.837 321.376 722.067L321.377 722.439C314.618 722.829 307.662 723.304 300.907 722.723L300.971 705.925Z"/>
	<path fill="#FEDE20" transform="scale(0.407715 0.407715)" d="M282.507 740.012L300.011 740.003L300.037 802.535C294.37 802.354 288.11 801.73 282.535 802.857L282.507 740.012Z"/>
	<path fill="#894122" transform="scale(0.407715 0.407715)" d="M844.064 457.015C850.182 457.585 856.334 457.434 862.472 457.405L862.443 510.004L879.951 510.099L880.059 606.728C880.077 622.821 880.468 639.011 880.1 655.093Q870.036 654.964 859.972 655.014L860.038 675.509C879.182 675.543 898.366 675.793 917.504 675.298C917.554 696.822 917.136 718.5 917.816 740.004C912.128 739.564 906.632 739.436 900.969 740.214L901.039 758.493C893.9 758.202 887.094 757.863 879.994 758.899L879.986 777.406C873.69 777.147 867.32 776.882 861.033 777.419C839.531 778.302 817.987 776.475 796.484 777.985C796.51 771.567 796.649 765.132 796.24 758.723C803.147 757.938 809.731 758.25 816.659 758.519C816.482 752.311 816.66 746.184 817.018 739.989L832.505 739.98L832.497 721.491L842.988 721.509C843.008 714.693 842.793 707.828 843.264 701.027C844.391 690.059 843.876 678.497 843.707 667.474C843.595 660.134 843.813 652.666 843.147 645.357L861.532 645.314C861.379 617.037 862.71 588.775 861.548 560.496Q861.182 549.317 861.669 538.143C863.545 531.885 862.184 517.631 862.054 510.534C856.182 510.117 849.965 510.655 844.062 510.815Q844.247 495.136 844.066 479.457C843.881 471.991 844.051 464.485 844.064 457.015Z"/>
	<path fill="#D8731A" transform="scale(0.407715 0.407715)" d="M881.034 686.507C887.656 686.421 894.343 686.153 900.958 686.399L900.966 699.826C900.761 713.165 901.351 726.748 900.492 740.029Q890.256 739.959 880.02 739.996C880.025 746.196 880.111 752.411 879.994 758.61C873.688 758.636 867.327 758.502 861.033 758.878L861.033 777.419C839.531 778.302 817.987 776.475 796.484 777.985C796.51 771.567 796.649 765.132 796.24 758.723C803.147 757.938 809.731 758.25 816.659 758.519C816.482 752.311 816.66 746.184 817.018 739.989L832.505 739.98L832.497 721.491L842.988 721.509C843.008 714.693 842.793 707.828 843.264 701.027L860.015 701.005L860.006 687.024C867.01 687.005 874.032 686.698 881.034 686.507Z"/>
	<path fill="#FEDE20" transform="scale(0.407715 0.407715)" d="M881.034 686.507C887.656 686.421 894.343 686.153 900.958 686.399L900.966 699.826C900.749 700.77 900.539 701.288 899.945 702.056C894.342 703.903 886.914 702.803 881.073 702.578L881.034 686.507Z"/>
	<path fill="#894122" transform="scale(0.407715 0.407715)" d="M860.968 720.085L880.011 720.09L880.02 739.996L860.983 739.991L860.968 720.085Z"/>
	<path fill="#438330" transform="scale(0.407715 0.407715)" d="M826.009 456.995Q835.037 456.667 844.064 457.015C844.051 464.485 843.881 471.991 844.066 479.457Q844.247 495.136 844.062 510.815C849.965 510.655 856.182 510.117 862.054 510.534C862.184 517.631 863.545 531.885 861.669 538.143Q861.182 549.317 861.548 560.496C862.71 588.775 861.379 617.037 861.532 645.314L843.147 645.357C843.813 652.666 843.595 660.134 843.707 667.474C843.876 678.497 844.391 690.059 843.264 701.027C842.793 707.828 843.008 714.693 842.988 721.509L832.497 721.491L832.505 739.98L817.018 739.989C816.66 746.184 816.482 752.311 816.659 758.519C809.731 758.25 803.147 757.938 796.24 758.723C796.649 765.132 796.51 771.567 796.484 777.985C789.753 778.579 783.206 778.345 776.478 777.961C776.634 767.669 774.27 750.791 777.087 741.453C778.05 740.607 779.283 740.749 780.498 740.698L780.938 740.685C781.118 740.468 781.383 740.3 781.479 740.035C782.084 738.369 781.461 702.159 781.456 697.013L797.839 697.108Q797.943 679.566 797.608 662.027L817.011 661.998L817.195 583.124C817.283 567.999 818.554 552.191 816.949 537.155L815.954 536.987C816.15 517.798 815.662 498.652 815.471 479.469C809.653 479.574 803.824 479.531 798.004 479.553C798.412 472.063 798.409 464.539 798.516 457.038C802.518 457.37 806.414 457.457 810.418 457.076L826.009 456.995Z"/>
	<path fill="#D8731A" transform="scale(0.407715 0.407715)" d="M832.562 599.998L844.092 599.997C844.051 607.855 843.907 615.726 843.982 623.583L832.792 623.467C833.472 615.967 833.615 607.448 832.562 599.998Z"/>
	<path fill="#894122" transform="scale(0.407715 0.407715)" d="M816.996 721.429L832.497 721.491L832.505 739.98L817.018 739.989L816.996 721.429Z"/>
	<path fill="#C1C38A" transform="scale(0.407715 0.407715)" d="M844.477 538.254Q853.073 538.135 861.669 538.143Q861.182 549.317 861.548 560.496L844.499 560.499L844.477 538.254Z"/>
	<path fill="#427129" transform="scale(0.407715 0.407715)" d="M795.957 739.791C802.951 740.113 810.015 739.957 817.018 739.989C816.66 746.184 816.482 752.311 816.659 758.519C809.731 758.25 803.147 757.938 796.24 758.723C795.314 752.707 795.92 745.883 795.957 739.791Z"/>
	<path fill="#CFED49" transform="scale(0.407715 0.407715)" d="M826.009 456.995Q835.037 456.667 844.064 457.015C844.051 464.485 843.881 471.991 844.066 479.457C837.997 479.514 831.951 479.53 825.883 479.326Q825.698 468.159 826.009 456.995Z"/>
	<path fill="#894122" transform="scale(0.407715 0.407715)" d="M816.949 537.155Q824.506 536.876 832.067 536.98L832.084 574.323C832.09 582.886 831.892 591.455 832.562 599.998C833.615 607.448 833.472 615.967 832.792 623.467C831.543 636.42 832.614 649.036 832.467 661.979L817.011 661.998L817.195 583.124C817.283 567.999 818.554 552.191 816.949 537.155Z"/>
	<path fill="#894122" transform="scale(0.407715 0.407715)" d="M204.034 214.465Q222.02 213.997 240.011 213.993C239.969 220.028 240.003 226.075 239.858 232.108L239.514 232.154L239.482 249.967C233.178 249.658 226.87 249.387 220.581 250.11L220.487 250.42L220.529 274.974C216.381 275.006 212.13 274.835 207.996 275.093C208.44 281.672 208.498 288.231 208.546 294.823C208.934 323.872 208.324 352.94 208.488 382.004L208.467 399.12C208.482 412.203 208.77 425.365 208.282 438.436L196.61 438.477Q197.077 421.611 197.067 404.738Q188.27 404.621 179.473 404.596L179.479 408.061C166.086 407.619 152.99 409.725 139.608 407.389C133.542 407.211 127.471 407.368 121.404 407.459C121.405 400.804 121.526 394.129 121.116 387.484L121.022 369.424Q112.764 369.525 104.505 369.455C104.487 367.014 104.392 364.665 104.107 362.235C103.635 354.742 104.026 346.943 104.021 339.425L104.009 295.017Q112.257 294.892 120.505 295.046L123.542 294.579C129.978 293.046 136.645 293.464 143.214 293.504L143.387 272.282C149.741 271.734 156.139 271.935 162.511 271.989C162.474 265.151 162.738 258.344 163.03 251.513C163.206 245.362 163.065 239.175 163.044 233.021C169.695 232.985 176.236 232.725 182.869 232.258C183.195 226.362 183.003 220.411 182.972 214.507Q193.503 214.576 204.034 214.465Z"/>
	<path fill="#5F221B" transform="scale(0.407715 0.407715)" d="M207.884 250.467C212.101 249.93 216.264 249.941 220.487 250.42L220.529 274.974C216.381 275.006 212.13 274.835 207.996 275.093C208.44 281.672 208.498 288.231 208.546 294.823C208.934 323.872 208.324 352.94 208.488 382.004L208.467 399.12C208.482 412.203 208.77 425.365 208.282 438.436L196.61 438.477Q197.077 421.611 197.067 404.738Q188.27 404.621 179.473 404.596L178.995 386.814L164.018 386.501L164.023 372.059L196.036 371.987C195.919 348.737 194.144 318.486 199.08 296.095L199.77 294.166C201.451 280.101 200.282 265.141 199.995 250.999C202.628 250.907 205.258 250.665 207.884 250.467Z"/>
	<path fill="#894122" transform="scale(0.407715 0.407715)" d="M207.884 250.467C212.101 249.93 216.264 249.941 220.487 250.42L220.529 274.974C216.381 275.006 212.13 274.835 207.996 275.093C206.36 267.398 208.099 258.379 207.884 250.467Z"/>
	<path fill="#CB4C26" transform="scale(0.407715 0.407715)" d="M204.034 214.465Q222.02 213.997 240.011 213.993C239.969 220.028 240.003 226.075 239.858 232.108L239.514 232.154L239.482 249.967C233.178 249.658 226.87 249.387 220.581 250.11L220.487 250.42C216.264 249.941 212.101 249.93 207.884 250.467C205.258 250.665 202.628 250.907 199.995 250.999C200.282 265.141 201.451 280.101 199.77 294.166L199.08 296.095L179.96 296.177L179.997 313.492C173.838 313.5 167.655 313.8 161.498 313.989L161.578 348.003L141.968 348.019L142.012 368.998C135.008 369.087 127.997 369.023 120.992 369.021C120.739 353.151 120.996 337.241 120.996 321.366C120.997 312.628 121.282 303.752 120.505 295.046L123.542 294.579C129.978 293.046 136.645 293.464 143.214 293.504L143.387 272.282C149.741 271.734 156.139 271.935 162.511 271.989C162.474 265.151 162.738 258.344 163.03 251.513C163.206 245.362 163.065 239.175 163.044 233.021C169.695 232.985 176.236 232.725 182.869 232.258C183.195 226.362 183.003 220.411 182.972 214.507Q193.503 214.576 204.034 214.465Z"/>
	<path fill="#894122" transform="scale(0.407715 0.407715)" d="M220.151 232.173Q229.832 231.939 239.514 232.154L239.482 249.967C233.178 249.658 226.87 249.387 220.581 250.11C218.808 245.062 219.932 237.531 220.151 232.173Z"/>
	<path fill="#894122" transform="scale(0.407715 0.407715)" d="M182.972 214.507Q193.503 214.576 204.034 214.465L204.009 232.175L182.544 232.486C182.327 238.738 182.255 244.927 182.452 251.18Q172.744 251.524 163.03 251.513C163.206 245.362 163.065 239.175 163.044 233.021C169.695 232.985 176.236 232.725 182.869 232.258C183.195 226.362 183.003 220.411 182.972 214.507Z"/>
	<path fill="#FEFEFE" transform="scale(0.407715 0.407715)" d="M281.405 531.985C288.363 532.01 295.401 531.884 302.33 532.603L302.549 533.104C308.28 532.12 315.631 532.947 321.509 532.992L321.901 532.523C327.938 532.32 333.965 532.099 340.007 532.151L339.993 548.611C346.018 548.547 352.079 548.341 358.1 548.595L358.346 548.487L376.2 548.489C376.025 543.485 376.087 538.478 376.111 533.472L376.564 533.064C384.326 533.024 392.083 532.861 399.826 533.484C400.013 538.347 399.893 543.208 399.811 548.073C407.222 548.043 414.645 547.917 422.055 547.999L422.039 560.083C427.939 560.043 433.852 559.918 439.75 560.07C440.41 566.272 440.042 572.758 439.936 578.999C446.261 578.944 452.599 578.797 458.923 578.996L458.495 658.025L458.609 687.059L439.008 687.126L439.03 705.095C427.838 705.165 416.531 705.606 405.356 705.09Q405.499 713.545 405.514 722.001C384.031 722.366 362.653 722.05 341.182 722.024L321.376 722.067C321.826 716.837 321.492 711.235 321.501 705.972L300.971 705.925L282.46 705.964C282.012 702.166 281.016 694.041 283.014 690.85C283.425 690.192 284.843 690.247 285.589 690.139C284.333 690.116 283.471 690.161 282.324 689.582C280.148 682.155 281.845 653.714 282.059 644.017L264.558 644.044L264.512 576.87C270.249 576.517 275.959 576.672 281.7 576.81L281.573 560.358L281.405 531.985Z"/>
	<path fill="#55963D" transform="scale(0.407715 0.407715)" d="M302.549 533.104C308.28 532.12 315.631 532.947 321.509 532.992C321.333 538.165 321.084 543.349 321.694 548.505L302.8 548.422L302.549 533.104Z"/>
	<path fill="#894122" transform="scale(0.407715 0.407715)" d="M285.589 690.139Q293.267 690.021 300.945 690.025L300.971 705.925L282.46 705.964C282.012 702.166 281.016 694.041 283.014 690.85C283.425 690.192 284.843 690.247 285.589 690.139Z"/>
	<path fill="#894122" transform="scale(0.407715 0.407715)" d="M376.564 533.064C384.326 533.024 392.083 532.861 399.826 533.484C400.013 538.347 399.893 543.208 399.811 548.073Q388.001 548.026 376.2 548.489C376.025 543.485 376.087 538.478 376.111 533.472L376.564 533.064Z"/>
	<path fill="#FEDE20" transform="scale(0.407715 0.407715)" d="M321.901 532.523C327.938 532.32 333.965 532.099 340.007 532.151L339.993 548.611C346.018 548.547 352.079 548.341 358.1 548.595C358.003 551.748 357.01 559.735 358.614 562.208L358.06 562.506L340.359 562.509Q340.525 570.782 340.458 579.056C334.126 579.056 327.78 578.972 321.45 579.09C321.472 584.837 321.361 590.62 321.53 596.362C315.339 595.563 308.778 596.032 302.543 596.094C303.229 584.896 302.967 573.634 302.885 562.421L321.977 562.427C322.046 557.827 322.261 553.074 321.694 548.505C321.084 543.349 321.333 538.165 321.509 532.992L321.901 532.523Z"/>
	<path fill="#D8731A" transform="scale(0.407715 0.407715)" d="M358.614 562.208Q366.296 562.055 373.98 562.002L373.959 594.907C368.633 594.794 363.301 594.613 357.974 594.72L358.041 613.002C348.801 612.743 339.535 612.324 330.299 612.828C328.402 612.931 323.279 613.801 321.818 612.905C321.585 611.608 321.571 610.571 321.646 609.27L321.53 596.362C321.361 590.62 321.472 584.837 321.45 579.09C327.78 578.972 334.126 579.056 340.458 579.056Q340.525 570.782 340.359 562.509L358.06 562.506L358.614 562.208Z"/>
	<path fill="#F6AD28" transform="scale(0.407715 0.407715)" d="M340.359 562.509L358.06 562.506L357.991 579.27Q349.236 579.26 340.482 579.147L340.508 596.496C334.32 596.504 328.115 596.599 321.93 596.469C322.015 600.664 322.392 605.134 321.646 609.27L321.53 596.362C321.361 590.62 321.472 584.837 321.45 579.09C327.78 578.972 334.126 579.056 340.458 579.056Q340.525 570.782 340.359 562.509Z"/>
	<path fill="#894122" transform="scale(0.407715 0.407715)" d="M320.572 123.04Q372.276 123.48 423.979 123.029C423.922 128.736 423.711 134.432 424.651 140.085L447.87 139.567L447.924 154.94C486.911 154.02 526.016 154.544 565.017 154.549L565.467 165.155L565.536 165.389Q574.698 165.549 583.862 165.517Q583.736 174.793 583.92 184.067L584.074 184.488C584.064 190.204 583.897 195.967 584.173 201.676L584.489 202.009C592.323 201.839 600.198 201.605 608.03 201.998L608.07 202.626C608.034 209.728 608.191 216.9 607.823 223.99Q607.834 234.248 608.002 244.505Q587.007 244.766 566.012 244.543L566.013 272.698C572.527 272.656 579.012 272.595 585.517 273.006C592.9 272.989 602.153 272.079 609.304 273.237C609.359 274.408 609.431 275.561 609.379 276.734C609.359 280.54 608.533 289.576 609.858 292.524L610.328 292.78L609.313 293.129C607.211 301.516 608.704 316.592 608.972 325.382L609.015 388Q608.906 397.49 609.111 406.978L591.979 406.99L591.985 425.039L542.527 425.042C540.36 425.082 538.18 425.057 536.026 425.323L535.531 425.338C535.418 419.413 535.542 413.47 535.578 407.543C530.056 407.404 524.508 407.473 518.983 407.45L518.915 407.152C514.694 406.819 510.217 406.789 506.02 407.362L506.019 389.085L505.931 345.463C506.22 339.216 506.541 333.2 505.642 326.982C501.121 327.034 494.701 327.925 490.673 325.712C491.408 318.281 490.949 310.491 490.944 303.019L491.035 264.015C487.031 264.328 483.069 264.455 479.053 264.481L478.982 232.038C474.891 232.022 470.743 232.149 466.691 231.525C465.748 226.125 466.427 219.826 466.48 214.334C472.348 214.474 478.334 214.608 484.184 214.11C478.314 213.815 472.312 214.041 466.427 214.029L466.5 198.54C460.179 198.09 453.854 198.139 447.521 198.127C439.972 197.493 432.543 197.752 424.983 197.993L389.326 197.996L338.59 197.8C325.75 197.683 312.835 197.128 300.023 198.146L299.989 179.459L299.977 159.938L300.2 159.578Q300.4 150.018 300.4 140.455L320.741 140.483C321.034 134.703 320.69 128.826 320.572 123.04Z"/>
	<path fill="#85C344" transform="scale(0.407715 0.407715)" d="M513.401 199.007C519.353 198.911 525.546 198.023 530.234 202.462C530.331 202.554 530.42 202.652 530.513 202.747L530.47 212.956C524.816 213.201 519.132 213.075 513.473 213.06L513.401 199.007Z"/>
	<path fill="#5F221B" transform="scale(0.407715 0.407715)" d="M506.019 389.085Q521.013 388.878 536.008 388.986L535.924 407.152C530.387 406.973 524.41 406.497 518.915 407.152C514.694 406.819 510.217 406.789 506.02 407.362L506.019 389.085Z"/>
	<path fill="#5F221B" transform="scale(0.407715 0.407715)" d="M491.035 264.015C496.033 263.865 500.967 263.851 505.967 264.02L505.959 307.062C505.914 313.679 505.481 320.375 505.642 326.982C501.121 327.034 494.701 327.925 490.673 325.712C491.408 318.281 490.949 310.491 490.944 303.019L491.035 264.015Z"/>
	<path fill="#5F221B" transform="scale(0.407715 0.407715)" d="M536.068 407.397Q564.026 407.458 591.979 406.99L591.985 425.039L542.527 425.042C540.36 425.082 538.18 425.057 536.026 425.323C535.836 419.355 536.004 413.367 536.068 407.397Z"/>
	<path fill="#CFED49" transform="scale(0.407715 0.407715)" d="M500.047 164.998C521.859 164.9 543.659 164.462 565.467 165.155L565.536 165.389Q574.698 165.549 583.862 165.517Q583.736 174.793 583.92 184.067L584.074 184.488C584.064 190.204 583.897 195.967 584.173 201.676C579.321 203.858 570.426 202.608 565.022 202.484C564.885 196.364 565.207 190.206 565.447 184.092C556.73 183.512 548.209 183.958 539.498 183.911C530.714 183.864 522.087 183.145 513.323 184.34C508.966 184.675 504.501 184.489 500.129 184.494L500.047 164.998Z"/>
	<path fill="#894122" transform="scale(0.407715 0.407715)" d="M565.536 165.389Q574.698 165.549 583.862 165.517Q583.736 174.793 583.92 184.067C577.816 183.749 571.674 183.926 565.564 183.967C565.254 177.77 565.414 171.589 565.536 165.389Z"/>
	<path fill="#55963D" transform="scale(0.407715 0.407715)" d="M513.323 184.34C522.087 183.145 530.714 183.864 539.498 183.911C548.209 183.958 556.73 183.512 565.447 184.092C565.207 190.206 564.885 196.364 565.022 202.484C570.426 202.608 579.321 203.858 584.173 201.676L584.489 202.009C592.323 201.839 600.198 201.605 608.03 201.998L608.07 202.626C608.034 209.728 608.191 216.9 607.823 223.99Q607.834 234.248 608.002 244.505Q587.007 244.766 566.012 244.543L566.036 244.156C565.836 238.802 565.994 233.38 566.001 228.019L549.065 228.035C544.694 228.028 540.375 227.988 536.026 228.512L535.299 228.325C535.135 228.188 534.952 228.071 534.808 227.913C531.827 224.619 533.223 216.994 533.581 213.006L530.47 212.956L530.513 202.747C530.42 202.652 530.331 202.554 530.234 202.462C525.546 198.023 519.353 198.911 513.401 199.007Q513.428 191.673 513.323 184.34Z"/>
	<path fill="#85C344" transform="scale(0.407715 0.407715)" d="M533.581 213.006L549.302 213.01C549.404 218.011 549.633 223.054 549.065 228.035C544.694 228.028 540.375 227.988 536.026 228.512L535.299 228.325C535.135 228.188 534.952 228.071 534.808 227.913C531.827 224.619 533.223 216.994 533.581 213.006Z"/>
	<path fill="#CFED49" transform="scale(0.407715 0.407715)" d="M584.489 202.009C592.323 201.839 600.198 201.605 608.03 201.998L608.07 202.626C608.034 209.728 608.191 216.9 607.823 223.99L584.548 224.008L584.489 202.009Z"/>
	<path fill="#CFED49" transform="scale(0.407715 0.407715)" d="M320.951 140.784C355.515 140.907 390.131 140.207 424.679 140.559C424.904 145.211 423.623 153.507 425.833 157.51C426.675 158.235 427.347 158.584 428.477 158.67C433.961 159.087 441.783 158.248 448.042 158.549C447.966 165.051 447.741 171.587 448.076 178.083C454.372 177.414 460.675 177.419 467 177.495C466.761 184.356 466.261 191.335 466.918 198.183C477.658 197.741 488.319 197.813 499.062 198.008L499.077 214.002L484.184 214.11C478.314 213.815 472.312 214.041 466.427 214.029L466.5 198.54C460.179 198.09 453.854 198.139 447.521 198.127C439.972 197.493 432.543 197.752 424.983 197.993L389.326 197.996L338.59 197.8C325.75 197.683 312.835 197.128 300.023 198.146L299.989 179.459L299.977 159.938L300.2 159.578Q310.597 159.492 320.995 159.551L320.951 140.784Z"/>
	<path fill="#55963D" transform="scale(0.407715 0.407715)" d="M335.499 159.023L358.518 159.005L358.505 179.611C350.864 180.068 343.179 179.851 335.535 179.599L335.499 159.023Z"/>
	<path fill="#55963D" transform="scale(0.407715 0.407715)" d="M377.973 159.022C393.46 159.006 408.973 159.176 424.456 158.88C424.776 165.462 424.736 171.926 424.514 178.513C432.066 179.584 440.384 179.566 447.964 178.556Q447.906 188.345 447.521 198.127C439.972 197.493 432.543 197.752 424.983 197.993C425.041 191.715 425.297 185.337 424.558 179.094C409.076 179.693 393.519 179.465 378.025 179.509L377.973 159.022Z"/>
	<path fill="#894122" transform="scale(0.407715 0.407715)" d="M378.025 179.509C393.519 179.465 409.076 179.693 424.558 179.094C425.297 185.337 425.041 191.715 424.983 197.993L389.326 197.996L338.59 197.8C325.75 197.683 312.835 197.128 300.023 198.146L299.989 179.459C311.808 179.468 323.727 179.177 335.535 179.599C343.179 179.851 350.864 180.068 358.505 179.611L378.025 179.509Z"/>
	<path fill="#CB4C26" transform="scale(0.407715 0.407715)" d="M489.937 224.99Q491.142 224.861 492.351 224.78C496.553 224.52 513.166 223.52 515.67 225.718C515.936 226.939 516.035 227.974 517.009 228.852C522.022 230.457 530.131 229.247 535.299 228.325L536.026 228.512C540.375 227.988 544.694 228.028 549.065 228.035L566.001 228.019C565.994 233.38 565.836 238.802 566.036 244.156L566.012 244.543L566.013 272.698C572.527 272.656 579.012 272.595 585.517 273.006C592.9 272.989 602.153 272.079 609.304 273.237C609.359 274.408 609.431 275.561 609.379 276.734C609.359 280.54 608.533 289.576 609.858 292.524L610.328 292.78L609.313 293.129C607.211 301.516 608.704 316.592 608.972 325.382C600.677 325.628 592.315 325.411 584.012 325.41Q584.187 346.203 584.039 366.997L535.915 367.093L536.009 300.476L518.04 300.603C517.778 280.529 519.11 259.986 517.46 239.998L489.947 240.085Q489.714 232.538 489.937 224.99Z"/>
	<path fill="#894122" transform="scale(0.407715 0.407715)" d="M536.026 228.512C540.375 227.988 544.694 228.028 549.065 228.035C548.275 233.346 547.902 238.593 547.883 243.96C553.923 243.946 560.005 243.779 566.036 244.156L566.012 244.543C556.03 244.213 546.012 244.445 536.025 244.514L536.026 228.512Z"/>
	<path fill="#5F221B" transform="scale(0.407715 0.407715)" d="M549.065 228.035L566.001 228.019C565.994 233.38 565.836 238.802 566.036 244.156C560.005 243.779 553.923 243.946 547.883 243.96C547.902 238.593 548.275 233.346 549.065 228.035Z"/>
	<path fill="#894122" transform="scale(0.407715 0.407715)" d="M585.517 273.006C592.9 272.989 602.153 272.079 609.304 273.237C609.359 274.408 609.431 275.561 609.379 276.734C608.562 281.72 608.96 287.143 608.989 292.192C601.296 290.981 593.357 291.465 585.598 291.589L585.517 273.006Z"/>
	<defs>
		<linearGradient id="gradient_1" gradientUnits="userSpaceOnUse" x1="731.23016" y1="711.95819" x2="616.10693" y2="244.70535">
			<stop offset="0" stop-color="#FCD723"/>
			<stop offset="1" stop-color="#FFF549"/>
		</linearGradient>
	</defs>
	<path fill="url(#gradient_1)" transform="scale(0.407715 0.407715)" d="M585.388 251.162C606.711 251.047 628.318 249.614 649.59 251.07L649.971 251.082C650.464 263.802 649.924 276.509 650.23 289.222C656.312 289.226 662.416 289.122 668.496 289.257L668.481 308.195C674.537 308.076 681.058 307.549 687.053 308.483L687.455 308.524L687.495 326.443C691.985 326.185 700.358 324.581 704.319 326.788C706.779 329.592 705.491 339.912 705.488 343.984L722.101 343.982L722.038 386.993L742.896 386.978L751.017 386.97L760.549 386.989L760.543 408.212C767.172 408.021 782.328 406.345 787.821 409.006L788.038 411.072C787.437 417.043 786.259 426.804 788.201 432.454C789.374 433.283 790.769 433.074 792.144 433.068C792.897 433.647 792.749 433.302 792.857 434.085C793.846 441.252 792.964 449.25 793.047 456.526L798.516 457.038C798.409 464.539 798.412 472.063 798.004 479.553C803.824 479.531 809.653 479.574 815.471 479.469C815.662 498.652 816.15 517.798 815.954 536.987L816.949 537.155C818.554 552.191 817.283 567.999 817.195 583.124L817.011 661.998L797.608 662.027Q797.943 679.566 797.839 697.108L781.456 697.013L768.462 697.072C768.453 691.863 768.562 686.628 768.069 681.438C768.041 680.685 767.902 680.3 767.638 679.608C764.889 678.249 760.575 678.911 757.534 679.007L750.998 679.121C745.388 679.611 739.717 679.477 734.09 679.49C733.356 673.665 733.523 667.854 733.572 661.998C733.373 656.376 733.696 650.724 733.254 645.113C728.122 644.818 723.024 644.785 717.904 645.265C717.303 645.164 716.903 644.963 716.356 644.703C714.879 640.017 715.904 632.745 716.018 627.709Q707.003 627.931 697.985 627.989L698.001 610.084L687.746 610.074L680.028 609.978C679.96 606.105 681.397 595.52 679.19 592.685L677.113 592.579C672.303 592.27 667.359 592.499 662.533 592.498C662.423 586.689 662.814 580.79 662.312 575.003Q653.73 575.042 645.148 574.943L644.518 574.492L644.503 555.617C641.388 555.475 638.267 555.542 635.15 555.563C632.295 555.479 629.411 555.576 626.553 555.589L626.453 539.82C621.611 539.55 616.773 539.499 611.925 539.447L611.379 538.65C605.969 538.26 600.441 538.499 595.016 538.51C595.093 533.52 595.581 527.903 594.438 523.018C593.938 521.298 593.875 519.396 593.682 517.615C593.673 513.259 593.874 508.883 593.974 504.527C588.46 504.437 582.997 504.023 577.472 504.112C576.658 503.351 576.576 502.693 576.211 501.644C575.625 496.504 576.14 491.166 576.44 486.014L560.773 486.014C560.209 479.72 560.467 473.315 560.501 467.002C554.478 466.936 548.49 467.261 542.478 467.573C542.476 454.261 542.685 440.905 542.338 427.599L542.527 425.042L591.985 425.039L591.979 406.99L609.111 406.978Q608.906 397.49 609.015 388L608.972 325.382C608.704 316.592 607.211 301.516 609.313 293.129L610.328 292.78L609.858 292.524C608.533 289.576 609.359 280.54 609.379 276.734C609.431 275.561 609.359 274.408 609.304 273.237C602.153 272.079 592.9 272.989 585.517 273.006L585.388 251.162Z"/>
	<path fill="#894122" transform="scale(0.407715 0.407715)" d="M594.438 523.018L611.416 523.005C611.433 528.161 611.734 533.516 611.379 538.65C605.969 538.26 600.441 538.499 595.016 538.51C595.093 533.52 595.581 527.903 594.438 523.018Z"/>
	<path fill="#894122" transform="scale(0.407715 0.407715)" d="M733.572 661.998Q742.33 661.974 751.079 661.568L750.998 679.121C745.388 679.611 739.717 679.477 734.09 679.49C733.356 673.665 733.523 667.854 733.572 661.998Z"/>
	<path fill="#F6AD28" transform="scale(0.407715 0.407715)" d="M737.849 463.089L757.511 463.083Q757.569 474.156 757.377 485.228C750.831 485.607 744.178 485.298 737.621 485.195Q737.898 474.144 737.849 463.089Z"/>
	<path fill="#EC9629" transform="scale(0.407715 0.407715)" d="M699.046 581.172C705.317 581.407 711.642 581.291 717.92 581.335C718.621 588.99 718.318 596.531 717.964 604.191Q708.579 604.339 699.195 604.112C698.244 596.436 698.717 588.874 699.046 581.172Z"/>
	<path fill="#F6AD28" transform="scale(0.407715 0.407715)" d="M663.678 463.199C668.536 463.32 678.962 461.986 682.805 464.355C685.476 467.654 683.997 480.639 683.887 485.23Q673.787 485.479 663.685 485.407C663.12 478.061 663.471 470.554 663.678 463.199Z"/>
	<path fill="#F6AD28" transform="scale(0.407715 0.407715)" d="M589.498 464.49L609.7 464.489C609.49 471.978 609.593 479.499 609.558 486.992L589.454 486.988L589.498 464.49Z"/>
	<path fill="#F6AD28" transform="scale(0.407715 0.407715)" d="M655.513 331.033L675.156 331.007Q675.485 342.454 675.436 353.906L655.458 353.986L655.513 331.033Z"/>
	<path fill="#F6AD28" transform="scale(0.407715 0.407715)" d="M632.497 406.741L649.1 406.56C649.224 410.198 650.555 426.513 648.765 429.045C648.35 429.631 647.286 429.452 646.625 429.502L629.052 429.501C629.045 422.294 628.629 414.664 629.588 407.525C630.53 406.603 631.23 406.829 632.497 406.741Z"/>
	<path fill="#F6AD28" transform="scale(0.407715 0.407715)" d="M728.035 511.587L749.019 511.546L749.016 535.01L728.013 535.002L728.035 511.587Z"/>
	<path fill="#F6AD28" transform="scale(0.407715 0.407715)" d="M697.051 399.115L721.011 399.072L720.986 429.426L697.005 429.412L697.051 399.115Z"/>
	<path fill="#F6AD28" transform="scale(0.407715 0.407715)" d="M767.066 556.041L784.777 556.055L784.646 571.015L798.441 570.695L798.473 588.824C791.601 589.985 775.093 589.059 767.291 589.041C767.462 578.046 767.63 567.027 767.066 556.041Z"/>
	<path fill="#EC9629" transform="scale(0.407715 0.407715)" d="M767.618 623.05L797.483 623.151L797.482 651.975L767.457 652.035Q767.455 637.542 767.618 623.05Z"/>
	<path fill="#427129" transform="scale(0.407715 0.407715)" d="M798.004 479.553C803.824 479.531 809.653 479.574 815.471 479.469C815.662 498.652 816.15 517.798 815.954 536.987L798.025 536.998C798.099 517.968 798.4 498.887 797.922 479.863L798.004 479.553Z"/>
	<path fill="#F6AD28" transform="scale(0.407715 0.407715)" d="M657.954 523.57L688.135 523.493Q687.903 540.808 688.384 558.118C678.096 557.873 667.781 558.011 657.49 557.996Q657.621 540.782 657.954 523.57Z"/>
	<path fill="#894122" transform="scale(0.407715 0.407715)" d="M760.543 408.212C767.172 408.021 782.328 406.345 787.821 409.006L788.038 411.072C787.437 417.043 786.259 426.804 788.201 432.454C789.374 433.283 790.769 433.074 792.144 433.068C792.897 433.647 792.749 433.302 792.857 434.085C793.846 441.252 792.964 449.25 793.047 456.526L798.516 457.038C798.409 464.539 798.412 472.063 798.004 479.553L797.922 479.863C792.942 478.499 785.932 479.472 780.733 479.643Q781.065 455.32 780.934 430.996L760.567 430.98Q760.683 419.596 760.543 408.212Z"/>
	<path fill="#5F221B" transform="scale(0.407715 0.407715)" d="M610.328 292.78C616.072 293.213 621.83 293.034 627.584 292.954L627.489 387.971L609.015 388L608.972 325.382C608.704 316.592 607.211 301.516 609.313 293.129L610.328 292.78Z"/>
	<path fill="#EC9629" transform="scale(0.407715 0.407715)" d="M542.478 467.573C548.49 467.261 554.478 466.936 560.501 467.002C560.467 473.315 560.209 479.72 560.773 486.014L576.44 486.014C576.14 491.166 575.625 496.504 576.211 501.644C576.576 502.693 576.658 503.351 577.472 504.112C582.997 504.023 588.46 504.437 593.974 504.527C593.874 508.883 593.673 513.259 593.682 517.615C593.875 519.396 593.938 521.298 594.438 523.018C595.581 527.903 595.093 533.52 595.016 538.51C600.441 538.499 605.969 538.26 611.379 538.65L611.925 539.447C616.773 539.499 621.611 539.55 626.453 539.82L626.553 555.589C629.411 555.576 632.295 555.479 635.15 555.563C638.267 555.542 641.388 555.475 644.503 555.617L644.518 574.492L645.148 574.943Q653.73 575.042 662.312 575.003C662.814 580.79 662.423 586.689 662.533 592.498C667.359 592.499 672.303 592.27 677.113 592.579L679.19 592.685C681.397 595.52 679.96 606.105 680.028 609.978L687.746 610.074L698.001 610.084L697.985 627.989Q707.003 627.931 716.018 627.709C715.904 632.745 714.879 640.017 716.356 644.703C716.903 644.963 717.303 645.164 717.904 645.265C723.024 644.785 728.122 644.818 733.254 645.113C733.696 650.724 733.373 656.376 733.572 661.998C733.523 667.854 733.356 673.665 734.09 679.49C739.717 679.477 745.388 679.611 750.998 679.121L757.534 679.007C760.575 678.911 764.889 678.249 767.638 679.608C767.902 680.3 768.041 680.685 768.069 681.438C768.562 686.628 768.453 691.863 768.462 697.072L781.456 697.013C781.461 702.159 782.084 738.369 781.479 740.035C781.383 740.3 781.118 740.468 780.938 740.685L780.498 740.698Q769.49 740.391 758.478 740.488L758.51 802.698C746.631 802.367 734.702 802.492 722.818 802.564C714.984 802.444 701.01 801.276 693.548 802.901Q693.435 811.938 693.486 820.976C687.119 820.957 680.69 820.749 674.337 821.198C672.859 816.327 673.944 808.609 674.017 803.459C652.988 804.137 632.024 803.804 610.994 803.487L581.901 803.474Q572.382 803.323 562.871 802.928L562.615 803.054C556.216 802.748 549.188 803.556 542.907 802.383L541.966 802.57L493.913 802.514L493.989 820.75L475.878 820.988L476.022 804.475C476.633 799.06 476.435 793.45 476.513 788.002C476.609 761.418 475.93 734.833 476.125 708.257C475.472 691.685 476.117 674.856 476.035 658.257C470.099 657.333 464.456 657.641 458.495 658.025L458.923 578.996C452.599 578.797 446.261 578.944 439.936 578.999C440.042 572.758 440.41 566.272 439.75 560.07C433.852 559.918 427.939 560.043 422.039 560.083L422.055 547.999C414.645 547.917 407.222 548.043 399.811 548.073C399.893 543.208 400.013 538.347 399.826 533.484C399.985 527.614 399.935 521.811 399.553 515.95C406.233 515.975 413.529 515.481 420.129 516.339L420.415 516.21C426.902 515.862 433.483 516.032 439.971 516.353L457.019 516.551C463.674 516.918 470.354 517.044 477.015 517.315C476.995 511.791 476.861 506.265 476.771 500.741C483.264 500.438 489.821 500.581 496.323 500.563L496.414 484.944C503.609 484.312 510.804 484.677 518.003 485.011L518.015 467.755C526.17 467.976 534.333 468.141 542.478 467.573Z"/>
	<path fill="#D8731A" transform="scale(0.407715 0.407715)" d="M674.95 680.015L694.039 679.989C694.031 686.643 694.17 693.335 693.97 699.985L675.016 699.998L674.95 680.015Z"/>
	<path fill="#CC6118" transform="scale(0.407715 0.407715)" d="M547.961 555.018L567.512 554.954L567.505 574.982L547.981 575.082L547.961 555.018Z"/>
	<path fill="#D8731A" transform="scale(0.407715 0.407715)" d="M562.579 721.299C564.089 740.607 562.464 763.686 562.392 783.433C562.371 789.17 561.443 797.392 562.871 802.928L562.615 803.054C556.216 802.748 549.188 803.556 542.907 802.383C543.823 793.967 543.262 785.204 543.202 776.751L543.016 737.158C549.518 737.283 556.047 737.14 562.551 737.12C562.475 731.84 562.423 726.578 562.579 721.299Z"/>
	<path fill="#CC6118" transform="scale(0.407715 0.407715)" d="M476.381 658.811Q484.944 659.032 493.51 658.936L493.488 748.06C493.488 766.187 493.06 784.409 493.913 802.514L493.989 820.75L475.878 820.988L476.022 804.475C476.633 799.06 476.435 793.45 476.513 788.002C476.609 761.418 475.93 734.833 476.125 708.257C476.739 700.887 476.437 693.295 476.445 685.892C476.456 676.885 476.682 667.81 476.381 658.811Z"/>
	<path fill="#D8731A" transform="scale(0.407715 0.407715)" d="M542.478 467.573C548.49 467.261 554.478 466.936 560.501 467.002C560.467 473.315 560.209 479.72 560.773 486.014L576.44 486.014C576.14 491.166 575.625 496.504 576.211 501.644C576.576 502.693 576.658 503.351 577.472 504.112C582.997 504.023 588.46 504.437 593.974 504.527C593.874 508.883 593.673 513.259 593.682 517.615C593.875 519.396 593.938 521.298 594.438 523.018C595.581 527.903 595.093 533.52 595.016 538.51C600.441 538.499 605.969 538.26 611.379 538.65L611.925 539.447C616.773 539.499 621.611 539.55 626.453 539.82L626.553 555.589C629.411 555.576 632.295 555.479 635.15 555.563C638.267 555.542 641.388 555.475 644.503 555.617L644.518 574.492L645.148 574.943Q653.73 575.042 662.312 575.003C662.814 580.79 662.423 586.689 662.533 592.498C667.359 592.499 672.303 592.27 677.113 592.579L679.19 592.685C681.397 595.52 679.96 606.105 680.028 609.978L687.746 610.074L698.001 610.084L697.985 627.989Q707.003 627.931 716.018 627.709C715.904 632.745 714.879 640.017 716.356 644.703C716.903 644.963 717.303 645.164 717.904 645.265C723.024 644.785 728.122 644.818 733.254 645.113C733.696 650.724 733.373 656.376 733.572 661.998C733.523 667.854 733.356 673.665 734.09 679.49C739.717 679.477 745.388 679.611 750.998 679.121L757.534 679.007C760.575 678.911 764.889 678.249 767.638 679.608C767.902 680.3 768.041 680.685 768.069 681.438C768.562 686.628 768.453 691.863 768.462 697.072L781.456 697.013C781.461 702.159 782.084 738.369 781.479 740.035C781.383 740.3 781.118 740.468 780.938 740.685L780.498 740.698Q769.49 740.391 758.478 740.488L758.51 802.698C746.631 802.367 734.702 802.492 722.818 802.564C714.984 802.444 701.01 801.276 693.548 802.901Q693.435 811.938 693.486 820.976C687.119 820.957 680.69 820.749 674.337 821.198C672.859 816.327 673.944 808.609 674.017 803.459C652.988 804.137 632.024 803.804 610.994 803.487L581.901 803.474Q572.382 803.323 562.871 802.928C561.443 797.392 562.371 789.17 562.392 783.433C562.464 763.686 564.089 740.607 562.579 721.299L562.535 720.129C562.208 708.792 562.499 697.359 562.494 686.012L582.025 685.987L582.035 720L608.527 719.998L608.503 737.008L654.973 737.05L654.892 700.009L675.016 699.998L693.97 699.985C694.053 703.354 693.952 706.872 694.425 710.207C694.636 706.882 694.466 703.467 694.444 700.132C701.333 699.236 708.108 699.636 715.018 699.968L714.991 720.86Q727.994 720.8 740.994 720.55L740.948 699.205L734.021 699.043C734.083 692.527 733.998 686.003 733.979 679.487C727.617 679.463 721.255 679.78 714.899 680.02L714.945 662.105C708.412 661.81 701.918 662.166 695.397 662.53C695.43 656.917 695.235 651.336 694.999 645.73C689.458 645.427 683.849 645.814 678.307 646.01C678.372 640.142 678.377 634.308 678.147 628.442C672.402 628.317 666.626 628.464 660.879 628.506L660.875 610.703L640.388 610.946L640.412 592.446Q632.959 592.462 625.51 592.195C625.479 586.437 625.761 580.723 626.074 574.975L595.509 574.984C595.517 568.32 595.531 561.674 595.842 555.016L579.48 554.991L579.474 536.981L562.234 536.985Q562.46 528.167 562.137 519.351C556.945 519.085 551.709 519.127 546.509 519.039Q546.464 502.026 546.178 485.015L536.981 485.003C536.815 490.643 536.806 496.299 536.722 501.941L502.775 502.008C502.605 507.297 502.754 512.645 502.761 517.94Q490.104 517.928 477.453 517.524Q477.911 525.757 477.985 534.002L439.988 534.076Q439.521 547.07 439.75 560.07C433.852 559.918 427.939 560.043 422.039 560.083L422.055 547.999C414.645 547.917 407.222 548.043 399.811 548.073C399.893 543.208 400.013 538.347 399.826 533.484C399.985 527.614 399.935 521.811 399.553 515.95C406.233 515.975 413.529 515.481 420.129 516.339L420.415 516.21C426.902 515.862 433.483 516.032 439.971 516.353L457.019 516.551C463.674 516.918 470.354 517.044 477.015 517.315C476.995 511.791 476.861 506.265 476.771 500.741C483.264 500.438 489.821 500.581 496.323 500.563L496.414 484.944C503.609 484.312 510.804 484.677 518.003 485.011L518.015 467.755C526.17 467.976 534.333 468.141 542.478 467.573Z"/>
	<path fill="#894122" transform="scale(0.407715 0.407715)" d="M757.534 679.007C760.575 678.911 764.889 678.249 767.638 679.608C767.902 680.3 768.041 680.685 768.069 681.438C767.659 686.709 767.972 692.172 767.995 697.465C764.499 697.587 760.996 697.843 757.502 698.035L757.534 679.007Z"/>
	<path fill="#CC6118" transform="scale(0.407715 0.407715)" d="M611.925 539.447C616.773 539.499 621.611 539.55 626.453 539.82L626.553 555.589C621.724 556.119 616.846 556.008 611.994 556.017L611.925 539.447Z"/>
	<path fill="#CC6118" transform="scale(0.407715 0.407715)" d="M577.472 504.112C582.997 504.023 588.46 504.437 593.974 504.527C593.874 508.883 593.673 513.259 593.682 517.615L593.254 518.713C589.12 520.635 581.625 519.683 577.021 519.646C576.924 514.79 576.209 508.81 577.472 504.112Z"/>
	<path fill="#894122" transform="scale(0.407715 0.407715)" d="M560.773 486.014L576.44 486.014C576.14 491.166 575.625 496.504 576.211 501.644C576.119 502.392 576.247 501.997 575.687 502.773C570.937 503.433 565.748 502.99 560.943 502.956Q560.996 494.484 560.773 486.014Z"/>
	<path fill="#894122" transform="scale(0.407715 0.407715)" d="M645.148 574.943Q653.73 575.042 662.312 575.003C661.169 580.289 661.959 586.932 662.05 592.36C656.599 591.915 650.972 592.066 645.496 591.981C645.505 586.299 645.607 580.611 645.148 574.943Z"/>
	<path fill="#894122" transform="scale(0.407715 0.407715)" d="M677.113 592.579L679.19 592.685C681.397 595.52 679.96 606.105 680.028 609.978L663.502 610.149C663.496 604.417 663.497 598.722 663.043 593.003C667.69 593.062 672.501 593.189 677.113 592.579Z"/>
	<path fill="#CB4C26" transform="scale(0.407715 0.407715)" d="M687.746 610.074L698.001 610.084L697.985 627.989Q689.253 628.076 680.52 628.002C680.644 622.176 680.531 616.331 680.506 610.504C682.98 610.53 685.287 610.449 687.746 610.074Z"/>
	<path fill="#894122" transform="scale(0.407715 0.407715)" d="M674.023 786.487L693.982 786.499Q693.851 794.551 693.432 802.593C687.086 802.331 680.484 802.95 674.106 803.044Q673.989 794.766 674.023 786.487Z"/>
	<path fill="#F6AD28" transform="scale(0.407715 0.407715)" d="M675.016 699.998L693.97 699.985C694.053 703.354 693.952 706.872 694.425 710.207L694.466 717.002L675.022 717.005L675.016 699.998Z"/>
	<path fill="#894122" transform="scale(0.407715 0.407715)" d="M635.15 555.563C638.267 555.542 641.388 555.475 644.503 555.617L644.518 574.492C638.519 574.732 632.525 574.731 626.523 574.743C627.545 568.701 627.035 562.179 626.944 556.067C629.744 556.077 632.387 556.082 635.15 555.563Z"/>
	<path fill="#55963D" transform="scale(0.407715 0.407715)" d="M399.553 515.95C406.233 515.975 413.529 515.481 420.129 516.339C420.006 522.054 419.737 527.917 420.546 533.59C413.681 533.271 406.704 533.502 399.826 533.484C399.985 527.614 399.935 521.811 399.553 515.95Z"/>
	<path fill="#894122" transform="scale(0.407715 0.407715)" d="M420.415 516.21C426.902 515.862 433.483 516.032 439.971 516.353C440.178 522.289 440.246 528.059 439.932 533.994C433.654 534.071 426.744 534.632 420.546 533.59C419.737 527.917 420.006 522.054 420.129 516.339L420.415 516.21Z"/>
	<path fill="#894122" transform="scale(0.407715 0.407715)" d="M697.985 627.989Q707.003 627.931 716.018 627.709C715.904 632.745 714.879 640.017 716.356 644.703C716.903 644.963 717.303 645.164 717.904 645.265C723.024 644.785 728.122 644.818 733.254 645.113C732.651 650.691 732.886 656.386 733.246 661.974C727.167 662.001 721.075 662.118 714.998 662.039C714.986 656.525 715.021 651.09 715.506 645.591C710.001 643.928 703.657 644.729 698.013 645.069L697.985 627.989Z"/>
	<path fill="#EC9629" transform="scale(0.407715 0.407715)" d="M675.022 717.005L694.466 717.002L694.502 724.978C694.938 735.827 694.652 746.694 694.492 757.547L675.002 757.636L675.015 724.977L675.022 717.005Z"/>
	<path fill="#894122" transform="scale(0.407715 0.407715)" d="M675.022 717.005L694.466 717.002L694.502 724.978L675.015 724.977L675.022 717.005Z"/>
	<path fill="#CB4C26" transform="scale(0.407715 0.407715)" d="M562.535 720.129C569.02 719.79 575.585 719.993 582.08 720.021Q582.364 753.52 582.011 787.019Q628.015 786.418 674.023 786.487Q673.989 794.766 674.106 803.044C680.484 802.95 687.086 802.331 693.432 802.593L693.548 802.901Q693.435 811.938 693.486 820.976C687.119 820.957 680.69 820.749 674.337 821.198C672.859 816.327 673.944 808.609 674.017 803.459C652.988 804.137 632.024 803.804 610.994 803.487L581.901 803.474Q572.382 803.323 562.871 802.928C561.443 797.392 562.371 789.17 562.392 783.433C562.464 763.686 564.089 740.607 562.579 721.299L562.535 720.129Z"/>
	<path fill="#5083A6" transform="scale(0.407715 0.407715)" d="M458.495 658.025C464.456 657.641 470.099 657.333 476.035 658.257C476.117 674.856 475.472 691.685 476.125 708.257C475.93 734.833 476.609 761.418 476.513 788.002C476.435 793.45 476.633 799.06 476.022 804.475L475.878 820.988L493.989 820.75L493.913 802.514L541.966 802.57L542.907 802.383C549.188 803.556 556.216 802.748 562.615 803.054L562.871 802.928Q572.382 803.323 581.901 803.474L610.994 803.487C632.024 803.804 652.988 804.137 674.017 803.459C673.944 808.609 672.859 816.327 674.337 821.198C680.69 820.749 687.119 820.957 693.486 820.976Q693.435 811.938 693.548 802.901C701.01 801.276 714.984 802.444 722.818 802.564C734.702 802.492 746.631 802.367 758.51 802.698C758.512 821.985 759.061 841.435 758.445 860.703C764.718 861.121 771.193 860.872 777.496 861.012Q776.944 844.714 777.038 828.407C787.159 827.901 797.386 828.141 807.524 828.091C830.993 827.976 854.499 828.154 877.956 827.334L878.017 845.321Q907.509 844.996 937.002 844.991L936.967 862.465C930.842 862.476 924.69 862.381 918.569 862.565L918.524 882.952Q909.264 882.846 900.005 882.99L899.971 863.067C892.469 863.072 884.938 862.939 877.44 863.151L877.528 884.481C850.553 884.452 823.544 884.148 796.573 884.474L796.643 907.056L485.049 907.007L332.185 906.971C302.287 906.944 272.356 906.638 242.463 906.983L242.415 890.919C236.618 890.927 230.801 890.847 225.007 890.989L225 882.23C199.006 882.123 172.906 881.902 146.919 882.426L147.004 862.889L127.177 862.876L127.119 846.064L163.056 846.066L163.053 827.524L224.473 827.575C224.475 832.053 224.303 836.601 224.539 841.069L242.447 840.947L242.41 823.478Q252.55 823.605 262.689 823.406C267.577 821.953 277.033 822.861 282.429 822.899Q282.52 813.139 282.381 803.38L282.535 802.857C288.11 801.73 294.37 802.354 300.037 802.535C306.981 802.521 314.074 802.227 320.985 802.922L320.78 756.954C320.801 750.491 320.231 743.066 321.365 736.727C321.563 731.96 321.464 727.207 321.377 722.439L321.376 722.067L341.182 722.024C362.653 722.05 384.031 722.366 405.514 722.001Q405.499 713.545 405.356 705.09C416.531 705.606 427.838 705.165 439.03 705.095L439.008 687.126L458.609 687.059L458.495 658.025ZM458.495 658.025L458.609 687.059L439.008 687.126L439.03 705.095C427.838 705.165 416.531 705.606 405.356 705.09Q405.499 713.545 405.514 722.001C384.031 722.366 362.653 722.05 341.182 722.024L321.376 722.067L321.377 722.439C321.464 727.207 321.563 731.96 321.365 736.727C320.231 743.066 320.801 750.491 320.78 756.954L320.985 802.922L341.117 803.046L341.358 802.934L361.47 803.025L361.478 834.549C379.278 834.677 397.102 831.923 414.792 830.159C423.853 829.255 433.029 829.156 442.053 828.163Q442.161 816.286 442.046 804.41Q459.034 804.33 476.022 804.475C476.633 799.06 476.435 793.45 476.513 788.002C476.609 761.418 475.93 734.833 476.125 708.257C475.472 691.685 476.117 674.856 476.035 658.257C470.099 657.333 464.456 657.641 458.495 658.025Z"/>
	<path fill="#894122" transform="scale(0.407715 0.407715)" d="M654.995 821.283C661.318 821.619 667.695 821.436 674.027 821.407Q673.939 831.039 673.986 840.67C667.642 840.649 661.335 840.715 654.997 841.007L654.995 821.283Z"/>
	<path fill="#894122" transform="scale(0.407715 0.407715)" d="M562.708 841.177C568.99 841.297 575.259 841.146 581.539 841.003L581.494 860.802Q572 860.711 562.507 860.496Q562.401 850.834 562.708 841.177Z"/>
	<path fill="#5B9CBC" transform="scale(0.407715 0.407715)" d="M581.901 803.474L610.994 803.487L611.026 819.527C601.284 819.328 591.54 819.093 581.801 819.585L581.901 803.474Z"/>
	<path fill="#EC9629" transform="scale(0.407715 0.407715)" d="M562.871 802.928Q572.382 803.323 581.901 803.474L581.801 819.585C581.876 826.751 581.855 833.843 581.539 841.003C575.259 841.146 568.99 841.297 562.708 841.177C563.582 832.209 564.351 811.432 562.615 803.054L562.871 802.928Z"/>
	<path fill="#894122" transform="scale(0.407715 0.407715)" d="M523.044 860.507L562.507 860.496L562.411 880.021Q510.213 879.514 458.015 880.009C458.064 873.534 458.261 866.951 457.689 860.497L523.044 860.507Z"/>
	<path fill="#894122" transform="scale(0.407715 0.407715)" d="M638.564 841.052C644.04 841.356 649.519 841.14 654.997 841.007C654.976 847.682 654.896 854.365 654.963 861.04Q684.295 860.911 713.626 861.175C728.46 861.986 743.539 861.426 758.379 860.953C758.727 867.229 758.362 873.713 758.397 880.015Q698.674 879.747 638.955 880.512L638.564 841.052Z"/>
	<path fill="#FEFEFE" transform="scale(0.407715 0.407715)" d="M693.548 802.901C701.01 801.276 714.984 802.444 722.818 802.564C734.702 802.492 746.631 802.367 758.51 802.698C758.512 821.985 759.061 841.435 758.445 860.703L758.379 860.953C743.539 861.426 728.46 861.986 713.626 861.175Q684.295 860.911 654.963 861.04C654.896 854.365 654.976 847.682 654.997 841.007C661.335 840.715 667.642 840.649 673.986 840.67Q673.939 831.038 674.027 821.407L674.337 821.198C680.69 820.749 687.119 820.957 693.486 820.976Q693.435 811.938 693.548 802.901Z"/>
	<path fill="#E3D1BF" transform="scale(0.407715 0.407715)" d="M722.818 802.564C734.702 802.492 746.631 802.367 758.51 802.698C758.512 821.985 759.061 841.435 758.445 860.703L758.379 860.953C743.539 861.426 728.46 861.986 713.626 861.175C715.042 857.464 714.057 844.666 713.994 840.094L731.989 840.515L731.992 821.693L739.971 821.507L740 802.927C734.425 803.096 728.311 803.622 722.818 802.564Z"/>
	<path fill="#FEFEFE" transform="scale(0.407715 0.407715)" d="M542.907 802.383C549.188 803.556 556.216 802.748 562.615 803.054C564.351 811.432 563.582 832.209 562.708 841.177Q562.401 850.834 562.507 860.496L523.044 860.507L457.689 860.497C456.77 853.904 457.33 846.869 457.494 840.231L475.57 840.207C475.908 833.809 475.851 827.393 475.878 820.988L493.989 820.75L493.913 802.514L541.966 802.57L542.907 802.383Z"/>
	<path fill="#E3D1BF" transform="scale(0.407715 0.407715)" d="M542.907 802.383C549.188 803.556 556.216 802.748 562.615 803.054C564.351 811.432 563.582 832.209 562.708 841.177Q562.401 850.834 562.507 860.496L523.044 860.507L523.02 840.029C529.683 840.032 536.351 840.18 543.014 840.274C543.025 835.853 543.666 805.162 542.827 803.485C542.64 803.11 542.253 802.875 541.966 802.57L542.907 802.383Z"/>
	<path fill="#894122" transform="scale(0.407715 0.407715)" d="M282.535 802.857C288.11 801.73 294.37 802.354 300.037 802.535C306.981 802.521 314.074 802.227 320.985 802.922L341.117 803.046L341.358 802.934L361.47 803.025L361.478 834.549C361.349 836.701 361.268 838.866 361.031 841.008Q360.919 850.668 361.025 860.327C354.576 860.562 348.07 860.971 341.665 859.988C341.082 866.68 341.109 873.311 341.176 880.02L242.419 879.927L242.495 861.027C236.515 860.989 230.499 861.283 224.519 861.443L224.539 841.069L242.447 840.947L242.41 823.478Q252.55 823.605 262.689 823.406C267.577 821.953 277.033 822.861 282.429 822.899Q282.52 813.139 282.381 803.38L282.535 802.857Z"/>
	<path fill="#E3D1BF" transform="scale(0.407715 0.407715)" d="M341.358 802.934L361.47 803.025L361.478 834.549C361.349 836.701 361.268 838.866 361.031 841.008C354.686 841.099 348.32 841.083 341.98 841.299L341.98 859.919C328.218 860.802 314.274 860.001 300.482 860.012Q300.557 850.11 300.382 840.21C307.238 840.561 314.168 840.45 321.035 840.523C321.155 827.994 321.01 815.452 320.985 802.922L341.117 803.046L341.358 802.934Z"/>
	<path fill="#D9B890" transform="scale(0.407715 0.407715)" d="M341.358 802.934L361.47 803.025L361.478 834.549C361.349 836.701 361.268 838.866 361.031 841.008C354.686 841.099 348.32 841.083 341.98 841.299C341.083 829.667 343.413 813.571 341.117 803.046L341.358 802.934Z"/>
	<path fill="#FEFEFE" transform="scale(0.407715 0.407715)" d="M282.535 802.857C288.11 801.73 294.37 802.354 300.037 802.535C306.981 802.521 314.074 802.227 320.985 802.922C321.01 815.452 321.155 827.994 321.035 840.523C314.168 840.45 307.238 840.561 300.382 840.21Q300.557 850.11 300.482 860.012L242.512 860.049L242.511 841.014C249.208 840.613 255.996 840.779 262.707 840.752C263.018 834.992 262.768 829.172 262.689 823.406C267.577 821.953 277.033 822.861 282.429 822.899Q282.52 813.139 282.381 803.38L282.535 802.857Z"/>
	<path fill="#E3D1BF" transform="scale(0.407715 0.407715)" d="M458.495 658.025C464.456 657.641 470.099 657.333 476.035 658.257C476.117 674.856 475.472 691.685 476.125 708.257C475.93 734.833 476.609 761.418 476.513 788.002C476.435 793.45 476.633 799.06 476.022 804.475Q459.034 804.33 442.046 804.41Q442.161 816.286 442.053 828.163C433.029 829.156 423.853 829.255 414.792 830.159C397.102 831.923 379.278 834.677 361.478 834.549L361.47 803.025L341.358 802.934L341.117 803.046L320.985 802.922L320.78 756.954C320.801 750.491 320.231 743.066 321.365 736.727C321.563 731.96 321.464 727.207 321.377 722.439L321.376 722.067L341.182 722.024C362.653 722.05 384.031 722.366 405.514 722.001Q405.499 713.545 405.356 705.09C416.531 705.606 427.838 705.165 439.03 705.095L439.008 687.126L458.609 687.059L458.495 658.025ZM321.376 722.067L321.377 722.439C321.464 727.207 321.563 731.96 321.365 736.727C320.231 743.066 320.801 750.491 320.78 756.954L320.985 802.922L341.117 803.046L341.358 802.934L361.47 803.025L361.478 834.549C379.278 834.677 397.102 831.923 414.792 830.159C423.853 829.255 433.029 829.156 442.053 828.163Q442.161 816.286 442.046 804.41Q459.034 804.33 476.022 804.475C476.633 799.06 476.435 793.45 476.513 788.002L426.524 788.023L426.519 773.547C411.673 773.319 396.781 773.757 381.936 774.019L381.987 759.56Q371.985 759.587 361.983 759.49L362.008 740.485L341.141 740.562C341.072 734.386 341.157 728.201 341.182 722.024L321.376 722.067Z"/>
	<path fill="#894122" transform="scale(0.407715 0.407715)" d="M321.376 722.067L341.182 722.024C341.157 728.201 341.072 734.386 341.141 740.562L362.008 740.485L361.983 759.49Q371.985 759.587 381.987 759.56L381.936 774.019C396.781 773.757 411.673 773.319 426.519 773.547L426.524 788.023L476.513 788.002C476.435 793.45 476.633 799.06 476.022 804.475Q459.034 804.33 442.046 804.41Q442.161 816.286 442.053 828.163C433.029 829.156 423.853 829.255 414.792 830.159C397.102 831.923 379.278 834.677 361.478 834.549L361.47 803.025L341.358 802.934L341.117 803.046L320.985 802.922L320.78 756.954C320.801 750.491 320.231 743.066 321.365 736.727C321.563 731.96 321.464 727.207 321.377 722.439L321.376 722.067ZM361.087 788.516Q361.523 795.764 361.47 803.025L361.478 834.549C379.278 834.677 397.102 831.923 414.792 830.159C423.853 829.255 433.029 829.156 442.053 828.163Q442.161 816.286 442.046 804.41C430.147 803.228 417.443 804.252 405.475 804.409L405.507 788.508C390.676 788.562 375.936 788.224 361.087 788.516Z"/>
	<path fill="#CC6118" transform="scale(0.407715 0.407715)" d="M340.991 759.995L361.644 759.946C360.243 769.472 360.559 778.943 361.087 788.516Q361.523 795.764 361.47 803.025L341.358 802.934C339.863 798.302 340.96 767.136 340.991 759.995Z"/>
	<path fill="#D8731A" transform="scale(0.407715 0.407715)" d="M320.985 802.922L320.78 756.954C320.801 750.491 320.231 743.066 321.365 736.727C321.387 737.944 321.129 740.171 321.841 741.088C328.26 741.296 334.699 741.061 341.118 740.943L340.991 759.995C340.96 767.136 339.863 798.302 341.358 802.934L341.117 803.046L320.985 802.922Z"/>
	<path fill="#FEFEFE" transform="scale(0.407715 0.407715)" d="M300.023 198.146C312.835 197.128 325.75 197.683 338.59 197.8L389.326 197.996L424.983 197.993C432.543 197.752 439.972 197.493 447.521 198.127C453.854 198.139 460.179 198.09 466.5 198.54L466.427 214.029C472.312 214.041 478.314 213.815 484.184 214.11C478.334 214.608 472.348 214.474 466.48 214.334C466.427 219.826 465.748 226.125 466.691 231.525C470.743 232.149 474.891 232.022 478.982 232.038L479.053 264.481C483.069 264.455 487.031 264.328 491.035 264.015L490.944 303.019C490.949 310.491 491.408 318.281 490.673 325.712C494.701 327.925 501.121 327.034 505.642 326.982C506.541 333.2 506.22 339.216 505.931 345.463L506.019 389.085L506.02 407.362C510.217 406.789 514.694 406.819 518.915 407.152L518.983 407.45C524.508 407.473 530.056 407.404 535.578 407.543C535.542 413.47 535.418 419.413 535.531 425.338L536.026 425.323C538.18 425.057 540.36 425.082 542.527 425.042L542.338 427.599C542.685 440.905 542.476 454.261 542.478 467.573C534.333 468.141 526.17 467.976 518.015 467.755L518.003 485.011C510.804 484.677 503.609 484.312 496.414 484.944L496.323 500.563C489.821 500.581 483.264 500.438 476.771 500.741C476.861 506.265 476.995 511.791 477.015 517.315C470.354 517.044 463.674 516.918 457.019 516.551L439.971 516.353C433.483 516.032 426.902 515.862 420.415 516.21L420.129 516.339C413.529 515.481 406.233 515.975 399.553 515.95C399.935 521.811 399.985 527.614 399.826 533.484C392.083 532.861 384.326 533.024 376.564 533.064L376.111 533.472C376.087 538.478 376.025 543.485 376.2 548.489L358.346 548.487L358.1 548.595C352.079 548.341 346.018 548.547 339.993 548.611L340.007 532.151C333.965 532.099 327.938 532.32 321.901 532.523L321.509 532.992C315.631 532.947 308.28 532.12 302.549 533.104L302.33 532.603C295.401 531.884 288.363 532.01 281.405 531.985L281.451 489.647C275.966 489.34 270.351 489.512 264.85 489.454Q255.217 489.359 245.584 489.485L245.449 473.974L244.954 473.379C243.616 468.748 244.543 461.863 244.631 456.988C238.221 457.074 231.164 457.623 224.862 456.549L224.068 456.504L223.942 456.041L223.953 439.068L208.49 438.951L208.282 438.436C208.77 425.365 208.482 412.203 208.467 399.12L208.488 382.004C208.324 352.94 208.934 323.872 208.546 294.823C208.498 288.231 208.44 281.672 207.996 275.093C212.13 274.835 216.381 275.006 220.529 274.974L220.487 250.42L220.581 250.11C226.87 249.387 233.178 249.658 239.482 249.967L239.514 232.154L239.858 232.108C246.973 231.431 253.999 231.6 261.119 231.968L260.986 198.215C266.854 197.148 274.037 197.964 280.022 198.022L284.093 198.113C289.399 198.089 294.718 197.99 300.023 198.146Z"/>
	<path fill="#080909" transform="scale(0.407715 0.407715)" d="M294.063 363.513L303.947 363.441C304.031 370.369 304.355 377.233 303.12 384.083C296.451 383.912 289.757 384.011 283.085 384.003C283.169 381.472 283.388 378.937 283.556 376.409L294.05 376.292L294.063 363.513Z"/>
	<path fill="#894122" transform="scale(0.407715 0.407715)" d="M283.272 425.022L302.514 425.011L302.477 440.966L283.367 440.984C283.119 435.673 283.244 430.338 283.272 425.022Z"/>
	<path fill="#894122" transform="scale(0.407715 0.407715)" d="M322.01 425.091C330.937 425.808 339.994 425.354 348.935 425.123L348.992 440.753L322.541 440.904C322.342 435.641 322.03 430.356 322.01 425.091Z"/>
	<path fill="#FEDE20" transform="scale(0.407715 0.407715)" d="M208.488 382.004L241.014 381.988Q241.396 390.966 241.621 399.95Q232.806 399.852 223.997 399.523C218.795 399.098 213.681 399.028 208.467 399.12L208.488 382.004Z"/>
	<path fill="#F6AD28" transform="scale(0.407715 0.407715)" d="M208.467 399.12C213.681 399.028 218.795 399.098 223.997 399.523L223.953 439.068L208.49 438.951L208.282 438.436C208.77 425.365 208.482 412.203 208.467 399.12Z"/>
	<path fill="#5F221B" transform="scale(0.407715 0.407715)" d="M303.947 363.441L341.458 363.135L341.388 383.954C334.958 384.014 328.418 383.863 322.007 384.324L322.01 425.091C315.674 424.773 309.341 424.902 303.001 424.977L303.036 397.281C303.03 394.283 303.096 391.282 303.13 388.284L303.12 384.083C304.355 377.233 304.031 370.369 303.947 363.441Z"/>
	<path fill="#080909" transform="scale(0.407715 0.407715)" d="M303.13 388.284L303.917 384.889C309.748 384.373 315.743 385.091 321.618 384.85L321.615 400.931C316.262 401.111 308.833 402.206 303.738 400.674C303.38 399.516 303.159 398.486 303.036 397.281C303.03 394.283 303.096 391.282 303.13 388.284Z"/>
	<path fill="#EC9629" transform="scale(0.407715 0.407715)" d="M340.056 247.1Q348.33 247.338 356.607 247.291C357.964 251.922 357.009 260.763 356.994 265.806Q356.88 290.755 356.252 315.696C356.083 325.493 355.33 336.281 356.383 346C351.019 346.018 345.642 346.276 340.279 346.439L340.056 247.1Z"/>
	<path fill="#EC9629" transform="scale(0.407715 0.407715)" d="M300.058 247.037L317.476 247.01C317.578 280.092 316.944 313.384 317.991 346.439L299.984 346.499L280.796 346.508C280.835 351.653 281.248 357.096 280.588 362.197C279.877 354.09 280.387 345.656 280.427 337.507L280.465 297.019C275.312 296.905 268.888 296.124 263.919 297.52L263.365 297.604L263.319 279.895Q281.828 280.103 300.337 279.964C300.326 268.982 299.849 258.021 300.058 247.037Z"/>
	<path fill="#894122" transform="scale(0.407715 0.407715)" d="M280.465 297.019L300.01 297.001C300.013 313.482 300.328 330.025 299.984 346.499L280.796 346.508C280.835 351.653 281.248 357.096 280.588 362.197C279.877 354.09 280.387 345.656 280.427 337.507L280.465 297.019Z"/>
	<path fill="#F6AD28" transform="scale(0.407715 0.407715)" d="M260.986 198.215C266.854 197.148 274.037 197.964 280.022 198.022L284.093 198.113C289.399 198.089 294.718 197.99 300.023 198.146Q299.953 206.475 299.981 214.805C299.96 225.538 299.743 236.309 300.058 247.037C299.849 258.021 300.326 268.982 300.337 279.964Q281.828 280.103 263.319 279.895C255.941 279.34 248.429 279.602 241.029 279.614Q230.79 279.852 220.549 279.846L220.529 274.974L220.487 250.42L220.581 250.11C226.87 249.387 233.178 249.658 239.482 249.967L239.514 232.154L239.858 232.108C246.973 231.431 253.999 231.6 261.119 231.968L260.986 198.215Z"/>
	<path fill="#894122" transform="scale(0.407715 0.407715)" d="M284.093 198.113C289.399 198.089 294.718 197.99 300.023 198.146Q299.953 206.475 299.981 214.805C293.338 214.376 286.655 214.581 280.005 214.698C280.012 209.589 278.941 204.158 280.503 199.231C281.742 198.07 282.436 198.267 284.093 198.113Z"/>
	<path fill="#E3D1BF" transform="scale(0.407715 0.407715)" d="M420.372 424.418C420.381 421.807 420.348 419.29 420.901 416.721C420.94 424.859 420.557 432.977 420.512 441.108L420.511 458.123L420.589 458.365C420.488 461.832 420.29 465.332 420.423 468.798C420.297 470.337 420.375 472.437 419.575 473.757C413.16 475.163 405.09 474.143 398.508 474.012Q339.942 473.405 281.376 474.064L281.451 489.647C275.966 489.34 270.351 489.512 264.85 489.454Q255.217 489.359 245.584 489.485L245.449 473.974L244.954 473.379C243.616 468.748 244.543 461.863 244.631 456.988C238.221 457.074 231.164 457.623 224.862 456.549C228.925 456.205 233.356 456.588 237.458 456.569L268.909 456.522L363.937 456.514L363.974 441.03L394.946 440.971C395.014 435.655 395.314 430.33 395.523 425.018Q407.956 425.075 420.372 424.418Z"/>
	<path fill="#C1C38A" transform="scale(0.407715 0.407715)" d="M398.454 458.483C405.729 458.61 413.281 459.004 420.511 458.123L420.589 458.365C420.488 461.832 420.29 465.332 420.423 468.798C420.297 470.337 420.375 472.437 419.575 473.757C413.16 475.163 405.09 474.143 398.508 474.012L398.454 458.483Z"/>
	<path fill="#894122" transform="scale(0.407715 0.407715)" d="M245.449 473.974Q263.412 474.144 281.376 474.064L281.451 489.647C275.966 489.34 270.351 489.512 264.85 489.454Q255.217 489.359 245.584 489.485L245.449 473.974Z"/>
	<path fill="#5F221B" transform="scale(0.407715 0.407715)" d="M207.996 275.093C212.13 274.835 216.381 275.006 220.529 274.974L220.549 279.846Q230.79 279.852 241.029 279.614C248.429 279.602 255.941 279.34 263.319 279.895L263.365 297.604L263.919 297.52C268.888 296.124 275.312 296.905 280.465 297.019L280.427 337.507C280.387 345.656 279.877 354.09 280.588 362.197C279.163 363.528 265.575 362.922 262.546 363.137Q262.439 372.556 262.491 381.976L241.014 381.988L208.488 382.004C208.324 352.94 208.934 323.872 208.546 294.823C208.498 288.231 208.44 281.672 207.996 275.093Z"/>
	<path fill="#FEFEFE" transform="scale(0.407715 0.407715)" d="M228.836 327.741C233.016 327.567 237.225 327.619 241.409 327.575C241.521 331.332 242.844 342.137 240.453 345.122L227.689 345.033Q227.516 341.03 227.425 337.025C227.391 334.516 227.025 329.608 228.836 327.741Z"/>
	<path fill="#CFED49" transform="scale(0.407715 0.407715)" d="M220.549 279.846Q230.79 279.852 241.029 279.614L241.206 297.414L221.192 297.498C220.15 291.708 220.488 285.706 220.549 279.846Z"/>
	<path fill="#FEFEFE" transform="scale(0.407715 0.407715)" d="M241.495 297.496C248.783 297.438 256.081 297.298 263.365 297.604L263.919 297.52C264.414 307.025 264.41 316.504 264.373 326.018L241.507 326.033L241.495 297.496Z"/>
	<defs>
		<linearGradient id="gradient_2" gradientUnits="userSpaceOnUse" x1="261.05066" y1="328.0452" x2="208.9498" y2="327.99487">
			<stop offset="0" stop-color="#AD5C25"/>
			<stop offset="1" stop-color="#D76D2B"/>
		</linearGradient>
	</defs>
	<path fill="url(#gradient_2)" transform="scale(0.407715 0.407715)" d="M207.996 275.093C212.13 274.835 216.381 275.006 220.529 274.974L220.549 279.846C220.488 285.706 220.15 291.708 221.192 297.498C221.969 305.727 221.598 314.198 221.576 322.464L221.48 363.576C230.03 363.539 256.203 364.54 262.546 363.137Q262.439 372.556 262.491 381.976L241.014 381.988L208.488 382.004C208.324 352.94 208.934 323.872 208.546 294.823C208.498 288.231 208.44 281.672 207.996 275.093Z"/>
	<path fill="#85C344" transform="scale(0.407715 0.407715)" d="M398.508 474.012C405.09 474.143 413.16 475.163 419.575 473.757C420.375 472.437 420.297 470.337 420.423 468.798C420.493 470.462 420.53 472.125 420.751 473.778C425.557 475.634 450.268 473.856 456.958 474.019C456.988 488.188 457.211 502.385 457.019 516.551L439.971 516.353C433.483 516.032 426.902 515.862 420.415 516.21L420.129 516.339C413.529 515.481 406.233 515.975 399.553 515.95C399.935 521.811 399.985 527.614 399.826 533.484C392.083 532.861 384.326 533.024 376.564 533.064L376.111 533.472C376.087 538.478 376.025 543.485 376.2 548.489L358.346 548.487L358.1 548.595C352.079 548.341 346.018 548.547 339.993 548.611L340.007 532.151C333.965 532.099 327.938 532.32 321.901 532.523L321.509 532.992C315.631 532.947 308.28 532.12 302.549 533.104L302.33 532.603C295.401 531.884 288.363 532.01 281.405 531.985L281.451 489.647L281.376 474.064Q339.942 473.405 398.508 474.012Z"/>
	<path fill="#55963D" transform="scale(0.407715 0.407715)" d="M358.088 533.497C364.089 533.684 370.109 533.529 376.111 533.472C376.087 538.478 376.025 543.485 376.2 548.489L358.346 548.487C357.183 544.198 358.007 537.992 358.088 533.497Z"/>
	<path fill="#6EAA3D" transform="scale(0.407715 0.407715)" d="M376.616 516.027Q388.085 516.05 399.553 515.95C399.935 521.811 399.985 527.614 399.826 533.484C392.083 532.861 384.326 533.024 376.564 533.064C376.713 527.398 376.604 521.697 376.616 516.027Z"/>
	<path fill="#CFED49" transform="scale(0.407715 0.407715)" d="M358.308 501.503L376.055 501.443Q376.244 517.216 376.112 532.989C370.168 533.119 364.226 533.33 358.287 532.995Q358.501 517.249 358.308 501.503Z"/>
	<path fill="#CFED49" transform="scale(0.407715 0.407715)" d="M302.006 495.001Q312.007 494.822 322.008 494.992C322.019 507.491 322.212 520.029 321.901 532.523L321.509 532.992C315.631 532.947 308.28 532.12 302.549 533.104L302.33 532.603C302.75 520.068 301.973 507.535 302.006 495.001Z"/>
	<path fill="#55963D" transform="scale(0.407715 0.407715)" d="M398.508 474.012C405.09 474.143 413.16 475.163 419.575 473.757C420.375 472.437 420.297 470.337 420.423 468.798C420.493 470.462 420.53 472.125 420.751 473.778C425.557 475.634 450.268 473.856 456.958 474.019C456.988 488.188 457.211 502.385 457.019 516.551L439.971 516.353C433.483 516.032 426.902 515.862 420.415 516.21C421.468 507.088 421.07 497.744 420.991 488.572C403.633 488.293 386.245 488.679 368.886 488.821L281.451 489.647L281.376 474.064Q339.942 473.405 398.508 474.012Z"/>
	<path fill="#438330" transform="scale(0.407715 0.407715)" d="M505.931 345.463L506.019 389.085L506.02 407.362C510.217 406.789 514.694 406.819 518.915 407.152L518.983 407.45C524.508 407.473 530.056 407.404 535.578 407.543C535.542 413.47 535.418 419.413 535.531 425.338L536.026 425.323C538.18 425.057 540.36 425.082 542.527 425.042L542.338 427.599C542.685 440.905 542.476 454.261 542.478 467.573C534.333 468.141 526.17 467.976 518.015 467.755L518.003 485.011C510.804 484.677 503.609 484.312 496.414 484.944L496.323 500.563C489.821 500.581 483.264 500.438 476.771 500.741C476.861 506.265 476.995 511.791 477.015 517.315C470.354 517.044 463.674 516.918 457.019 516.551C457.211 502.385 456.988 488.188 456.958 474.019C450.268 473.856 425.557 475.634 420.751 473.778C420.53 472.125 420.493 470.462 420.423 468.798C420.29 465.332 420.488 461.832 420.589 458.365L420.511 458.123L420.512 441.108C420.557 432.977 420.94 424.859 420.901 416.721C421.179 411.199 421.001 405.572 421.015 400.038C415.358 399.907 409.672 400.012 404.011 400.007L404.004 382.985C418.203 382.996 432.841 382.234 446.985 383.085C450.122 383.471 453.411 383.265 456.486 383.771C463.173 384.503 470.246 384.036 476.97 383.994L476.961 351.005L505.37 351.054C505.462 349.169 505.668 347.332 505.931 345.463Z"/>
	<path fill="#CC6118" transform="scale(0.407715 0.407715)" d="M445.097 440.835C447.378 443.344 446.121 454.422 446.013 458.165L436.051 458.185C430.996 458.163 425.596 457.744 420.589 458.365L420.511 458.123L420.512 441.108C426.839 440.511 433.669 440.948 440.038 441.067L445.097 440.835Z"/>
	<path fill="#CB4C26" transform="scale(0.407715 0.407715)" d="M445.097 440.835C447.378 443.344 446.121 454.422 446.013 458.165L436.051 458.185C435.957 454.23 434.971 444.774 436.225 441.613L440.038 441.067L445.097 440.835Z"/>
	<path fill="#427129" transform="scale(0.407715 0.407715)" d="M445.097 440.835C448.527 439.949 454.875 440.019 458.383 440.852C463.964 441.345 469.517 441.715 475.12 441.314L475.028 459.04C469.213 458.975 463.438 458.915 457.641 458.405Q451.828 458.245 446.013 458.165C446.121 454.422 447.378 443.344 445.097 440.835Z"/>
	<path fill="#CC6118" transform="scale(0.407715 0.407715)" d="M445.097 440.835C448.527 439.949 454.875 440.019 458.383 440.852C456.535 446.621 457.306 452.463 457.641 458.405Q451.828 458.245 446.013 458.165C446.121 454.422 447.378 443.344 445.097 440.835Z"/>
	<path fill="#427129" transform="scale(0.407715 0.407715)" d="M506.02 407.362C510.217 406.789 514.694 406.819 518.915 407.152L518.983 407.45C524.508 407.473 530.056 407.404 535.578 407.543C535.542 413.47 535.418 419.413 535.531 425.338L536.026 425.323C538.18 425.057 540.36 425.082 542.527 425.042L542.338 427.599C540.944 430.284 541.877 437.384 541.917 440.611C519.732 441.819 497.325 439.56 475.12 441.314C474.773 436.114 475.023 430.702 475.009 425.481L493.021 425.591L493.015 407.484C497.357 407.525 501.681 407.557 506.02 407.362Z"/>
	<path fill="#D8731A" transform="scale(0.407715 0.407715)" d="M518.983 407.45C524.508 407.473 530.056 407.404 535.578 407.543C535.542 413.47 535.418 419.413 535.531 425.338C530.308 426.645 524.287 426.082 518.925 426.004L518.983 407.45Z"/>
	<path fill="#D8731A" transform="scale(0.407715 0.407715)" d="M505.931 345.463L506.019 389.085L506.02 407.362C501.681 407.557 497.357 407.525 493.015 407.484L493.021 425.591L475.009 425.481C475.023 430.702 474.773 436.114 475.12 441.314C469.517 441.715 463.964 441.345 458.383 440.852C454.875 440.019 448.527 439.949 445.097 440.835L440.038 441.067C433.669 440.948 426.839 440.511 420.512 441.108C420.557 432.977 420.94 424.859 420.901 416.721C421.179 411.199 421.001 405.572 421.015 400.038C415.358 399.907 409.672 400.012 404.011 400.007L404.004 382.985C418.203 382.996 432.841 382.234 446.985 383.085C450.122 383.471 453.411 383.265 456.486 383.771C463.173 384.503 470.246 384.036 476.97 383.994L476.961 351.005L505.37 351.054C505.462 349.169 505.668 347.332 505.931 345.463Z"/>
	<path fill="#F6AD28" transform="scale(0.407715 0.407715)" d="M404.004 382.985C418.203 382.996 432.841 382.234 446.985 383.085C450.122 383.471 453.411 383.265 456.486 383.771L456.473 401.002C444.648 401.043 432.813 399.933 421.015 400.038C415.358 399.907 409.672 400.012 404.011 400.007L404.004 382.985Z"/>
	<path fill="#F6AD28" transform="scale(0.407715 0.407715)" d="M424.983 197.993C432.543 197.752 439.972 197.493 447.521 198.127C453.854 198.139 460.179 198.09 466.5 198.54L466.427 214.029C472.312 214.041 478.314 213.815 484.184 214.11C478.334 214.608 472.348 214.474 466.48 214.334C466.427 219.826 465.748 226.125 466.691 231.525C470.743 232.149 474.891 232.022 478.982 232.038L479.053 264.481C483.069 264.455 487.031 264.328 491.035 264.015L490.944 303.019C490.949 310.491 491.408 318.281 490.673 325.712C494.701 327.925 501.121 327.034 505.642 326.982C506.541 333.2 506.22 339.216 505.931 345.463C505.668 347.332 505.462 349.169 505.37 351.054L476.961 351.005L476.97 383.994C470.246 384.036 463.173 384.503 456.486 383.771C453.411 383.265 450.122 383.471 446.985 383.085C432.841 382.234 418.203 382.996 404.004 382.985L388.561 382.988L388.666 373.757C388.614 370.56 388.738 367.343 388.787 364.145C378.272 362.66 367.074 363.391 356.484 363.841C356.675 357.859 356.838 351.977 356.383 346C355.33 336.281 356.083 325.493 356.252 315.696Q356.88 290.755 356.994 265.806C357.009 260.763 357.964 251.922 356.607 247.291C356.968 242.043 356.714 236.752 356.602 231.497L372.468 231.563C372.16 225.787 371.993 220.079 372.106 214.294L383.594 214.388C385.313 213.972 387.58 214.183 389.373 214.134L389.326 197.996L424.983 197.993Z"/>
	<path fill="#438330" transform="scale(0.407715 0.407715)" d="M406.146 297.326L406.401 297.461C406.295 303.333 406.291 309.163 406.508 315.033Q397.803 314.499 389.082 314.473L389 314.12C389.065 308.577 389.016 303.03 389.01 297.486C394.73 297.527 400.428 297.533 406.146 297.326Z"/>
	<path fill="#D8731A" transform="scale(0.407715 0.407715)" d="M372.106 214.294L383.594 214.388C385.567 214.599 387.471 214.633 389.454 214.592L389.507 231.558C383.858 231.941 378.107 232.255 372.468 231.563C372.16 225.787 371.993 220.079 372.106 214.294Z"/>
	<path fill="#55963D" transform="scale(0.407715 0.407715)" d="M371.526 314.016C377.354 314.143 383.171 314.294 389 314.12L389.082 314.473C389.008 318.842 388.944 323.188 389.117 327.556C389.004 332.552 387.736 341.123 389.733 345.671C391.432 346.192 392.991 346.128 394.756 346.101C392.926 346.28 391.109 346.488 389.268 346.478C384.228 344.731 376.869 345.856 371.546 346.097L371.526 314.016Z"/>
	<path fill="#5F221B" transform="scale(0.407715 0.407715)" d="M406.007 279.681C415.047 279.346 424.141 280.122 433.208 279.891L446.977 279.941C446.915 285.782 446.745 291.643 447.002 297.48C440.345 297.312 433.718 297.569 427.071 297.005C420.226 296.973 413.213 296.688 406.401 297.461L406.146 297.326C405.814 291.465 405.987 285.551 406.007 279.681Z"/>
	<path fill="#D8731A" transform="scale(0.407715 0.407715)" d="M424.983 197.993C432.543 197.752 439.972 197.493 447.521 198.127C453.854 198.139 460.179 198.09 466.5 198.54L466.427 214.029C472.312 214.041 478.314 213.815 484.184 214.11C478.334 214.608 472.348 214.474 466.48 214.334C466.427 219.826 465.748 226.125 466.691 231.525L466.258 232.88L465.922 232.195C463.321 231.27 430.235 231.976 425 231.967L424.983 197.993Z"/>
	<path fill="#55963D" transform="scale(0.407715 0.407715)" d="M447.521 198.127C453.854 198.139 460.179 198.09 466.5 198.54L466.427 214.029L447.022 213.986C446.946 208.675 447.211 203.425 447.521 198.127Z"/>
	<path fill="#5F221B" transform="scale(0.407715 0.407715)" d="M406.401 297.461C413.213 296.688 420.226 296.973 427.071 297.005C428.021 302.962 427.681 309.008 427.491 315.013L440.319 314.888L446.905 315.043C446.993 331.504 446.571 348.047 446.997 364.491C448.75 364.551 450.544 364.523 452.259 364.915C450.689 364.934 448.536 364.697 447.166 365.47C446.613 371.265 446.951 377.262 446.985 383.085C432.841 382.234 418.203 382.996 404.004 382.985L388.561 382.988L388.666 373.757C389.123 370.601 388.95 367.169 389.01 363.971C388.982 358.128 388.996 352.317 389.268 346.478C391.109 346.488 392.926 346.28 394.756 346.101C392.991 346.128 391.432 346.192 389.733 345.671C387.736 341.123 389.004 332.552 389.117 327.556C388.944 323.188 389.008 318.842 389.082 314.473Q397.803 314.499 406.508 315.033C406.291 309.163 406.295 303.333 406.401 297.461Z"/>
	<path fill="#FEFEFE" transform="scale(0.407715 0.407715)" d="M389.117 327.556C395.415 327.508 401.727 327.367 408.024 327.427L408.09 346.025C403.667 346.039 399.168 345.873 394.756 346.101C392.991 346.128 391.432 346.192 389.733 345.671C387.736 341.123 389.004 332.552 389.117 327.556Z"/>
	<path fill="#FEFEFE" transform="scale(0.407715 0.407715)" d="M406.401 297.461C413.213 296.688 420.226 296.973 427.071 297.005C428.021 302.962 427.681 309.008 427.491 315.013L406.508 315.033C406.291 309.163 406.295 303.333 406.401 297.461Z"/>
	<path fill="#894122" transform="scale(0.407715 0.407715)" d="M389.01 363.971C408.306 364.884 427.685 364.566 446.997 364.491C448.75 364.551 450.544 364.523 452.259 364.915C450.689 364.934 448.536 364.697 447.166 365.47C446.613 371.265 446.951 377.262 446.985 383.085C432.841 382.234 418.203 382.996 404.004 382.985L388.561 382.988L388.666 373.757C389.123 370.601 388.95 367.169 389.01 363.971Z"/>
	<path fill="#EC9629" transform="scale(0.407715 0.407715)" d="M466.691 231.525C470.743 232.149 474.891 232.022 478.982 232.038L479.053 264.481C483.069 264.455 487.031 264.328 491.035 264.015L490.944 303.019C490.949 310.491 491.408 318.281 490.673 325.712C494.701 327.925 501.121 327.034 505.642 326.982C506.541 333.2 506.22 339.216 505.931 345.463C505.668 347.332 505.462 349.169 505.37 351.054L476.961 351.005L476.97 383.994C470.246 384.036 463.173 384.503 456.486 383.771C453.411 383.265 450.122 383.471 446.985 383.085C446.951 377.262 446.613 371.265 447.166 365.47C448.536 364.697 450.689 364.934 452.259 364.915C450.544 364.523 448.75 364.551 446.997 364.491C446.571 348.047 446.993 331.504 446.905 315.043L440.319 314.888L427.491 315.013C427.681 309.008 428.021 302.962 427.071 297.005C433.718 297.569 440.345 297.312 447.002 297.48C446.745 291.643 446.915 285.782 446.977 279.941L433.208 279.891C437.21 278.663 442.809 279.34 447.005 279.37L447.014 263.476L465.275 263.991C467.151 260.882 465.588 246.014 465.66 241.507C465.706 238.625 465.974 235.747 466.258 232.88L466.691 231.525Z"/>
	<path fill="#CC6118" transform="scale(0.407715 0.407715)" d="M466.691 231.525C470.743 232.149 474.891 232.022 478.982 232.038L479.053 264.481C483.069 264.455 487.031 264.328 491.035 264.015L490.944 303.019C490.949 310.491 491.408 318.281 490.673 325.712C490.01 321.063 490.408 315.787 490.404 311.08Q490.362 295.032 490.745 278.989Q477.531 279.12 464.317 279.045C464.031 274.638 463.204 267.975 465.275 263.991C467.151 260.882 465.588 246.014 465.66 241.507C465.706 238.625 465.974 235.747 466.258 232.88L466.691 231.525Z"/>
	<path fill="#894122" transform="scale(0.407715 0.407715)" d="M427.071 297.005C433.718 297.569 440.345 297.312 447.002 297.48L463.374 297.503Q462.894 331.212 463.034 364.925C459.463 364.959 455.82 365.141 452.259 364.915C450.544 364.523 448.75 364.551 446.997 364.491C446.571 348.047 446.993 331.504 446.905 315.043L440.319 314.888L427.491 315.013C427.681 309.008 428.021 302.962 427.071 297.005Z"/>
	<path fill="#55963D" transform="scale(0.407715 0.407715)" d="M427.071 297.005C433.718 297.569 440.345 297.312 447.002 297.48C447.175 302.707 447.387 307.878 447.013 313.102L446.952 314.042L446.909 314.606C444.733 314.644 442.47 314.555 440.319 314.888L427.491 315.013C427.681 309.008 428.021 302.962 427.071 297.005Z"/>
</svg>
