<?xml version="1.0" encoding="utf-8" ?>
<svg xmlns="http://www.w3.org/2000/svg" xmlns:xlink="http://www.w3.org/1999/xlink" width="417" height="417">
	<path transform="scale(0.407715 0.407715)" d="M807.831 725.095Q816.674 724.858 825.52 724.987L825.524 739.502L807.156 739.494C808.17 735.335 807.561 729.604 807.571 725.277L807.831 725.095Z"/>
	<path transform="scale(0.407715 0.407715)" d="M767.498 766.044C773.299 766.033 779.133 766.152 784.921 765.711Q784.927 775.584 784.669 785.454C778.609 785.421 772.479 785.577 766.429 785.311C768.384 779.428 767.569 772.188 767.498 766.044Z"/>
	<path transform="scale(0.407715 0.407715)" d="M746 784.514C749.968 782.439 757.944 782.248 762.271 783.576C763.07 783.821 763.627 784.12 764.213 784.729C763.858 790.615 763.986 796.544 764.226 802.435C758.574 802.474 751.412 803.334 745.931 802.122L746.005 789.207L746 784.514Z"/>
	<path transform="scale(0.407715 0.407715)" d="M826.002 701.985C832.78 701.787 839.855 702.399 846.573 701.523L846.551 720.464C839.787 720.443 832.605 720.857 825.903 720.054C826.175 714.067 825.982 707.984 826.002 701.985Z"/>
	<path transform="scale(0.407715 0.407715)" d="M747.155 214.494C754.08 214.446 761.058 214.223 767.977 214.442Q767.725 224.475 767.961 234.509L747.337 234.506C747.391 227.827 747.437 221.17 747.155 214.494Z"/>
	<path transform="scale(0.407715 0.407715)" d="M789.056 256.016C796.199 256.026 803.354 255.943 810.495 256.049C810.585 263.076 810.742 270.106 810.472 277.131C803.394 276.58 796.365 276.796 789.278 276.981C789.354 269.98 789.409 263.012 789.056 256.016Z"/>
	<path transform="scale(0.407715 0.407715)" d="M767.961 234.509L788.962 234.56C788.814 241.732 788.612 248.85 789.056 256.016L768.112 256.008L767.961 234.509Z"/>
	<path transform="scale(0.407715 0.407715)" d="M704.005 171.105C711.137 171.234 718.29 170.897 725.41 171.091L725.513 192.491C718.329 192.032 711.21 192.191 704.023 192.399L704.005 171.105Z"/>
	<path transform="scale(0.407715 0.407715)" d="M277.584 192.479L299.41 192.518L299.488 213.504C292.298 213.482 284.595 212.929 277.469 213.703C277.758 206.661 277.558 199.531 277.584 192.479Z"/>
	<path transform="scale(0.407715 0.407715)" d="M785.804 739.005C792.937 738.967 800.039 738.926 807.156 739.494Q806.526 750.223 806.789 760.968C799.634 761.011 792.449 761.205 785.297 761.089C785.966 756.053 785.785 751.027 785.6 745.967C785.841 743.598 785.99 741.393 785.804 739.005Z"/>
	<path transform="scale(0.407715 0.407715)" d="M660.763 151.537C675.156 151.994 689.544 151.635 703.938 151.748C703.953 158.192 703.84 164.665 704.005 171.105C690.22 169.335 674.906 170.458 660.998 170.871C661.026 164.506 661.374 157.869 660.763 151.537Z"/>
	<path transform="scale(0.407715 0.407715)" d="M618.612 874.43L618.553 895.902C604.393 895.837 590.156 896.064 576.007 895.59L576 874.963C589.802 875.335 604.974 876.828 618.612 874.43Z"/>
	<path transform="scale(0.407715 0.407715)" d="M853.099 362.968L874.445 363.059C874.568 377.198 874.4 391.352 874.627 405.486L853.444 405.506C853.481 394.882 853.986 383.982 853.091 373.404C853.35 369.982 853.125 366.407 853.099 362.968Z"/>
	<path transform="scale(0.407715 0.407715)" d="M149.57 362.996C156.595 362.989 163.65 363.142 170.651 362.498Q171.175 384.021 170.92 405.548Q160.219 405.286 149.518 405.549L149.57 362.996Z"/>
	<path transform="scale(0.407715 0.407715)" d="M404.913 874.514L447.993 874.671L448.012 895.595C433.694 895.974 419.337 895.868 405.014 895.957Q405.246 885.234 404.913 874.514Z"/>
	<path transform="scale(0.407715 0.407715)" d="M846.889 661.478C852.683 661.625 858.798 662.051 864.498 660.898L864.515 701.457C858.635 701.441 852.718 701.561 846.843 701.382L846.573 701.523C839.855 702.399 832.78 701.787 826.002 701.985L826.074 687.048C826.212 685.803 826.368 684.703 826.721 683.494C828.16 682.516 830.148 682.861 831.881 682.851C836.553 682.97 841.369 683.337 846.021 682.852C846.767 681.516 846.597 680.217 846.631 678.717C845.958 673.205 846.382 666.999 846.889 661.478Z"/>
	<path fill="#030C22" transform="scale(0.407715 0.407715)" d="M846.631 678.717C848.17 685.725 846.607 694.17 846.843 701.382L846.573 701.523C839.855 702.399 832.78 701.787 826.002 701.985L826.074 687.048C826.212 685.803 826.368 684.703 826.721 683.494C828.16 682.516 830.148 682.861 831.881 682.851C836.553 682.97 841.369 683.337 846.021 682.852C846.767 681.516 846.597 680.217 846.631 678.717Z"/>
	<path transform="scale(0.407715 0.407715)" d="M362.563 129.372C391.128 129.332 419.836 128.968 448.387 129.536L448.435 150.02L392.303 150.007C382.401 150.005 372.413 149.736 362.52 150.077L362.563 129.372Z"/>
	<path transform="scale(0.407715 0.407715)" d="M724.214 801.526C731.292 801.702 738.42 801.701 745.488 802.063L745.451 824.76C738.447 824.558 731.418 824.897 724.427 824.641L724.452 840.905C717.612 840.906 710.81 840.848 703.978 840.516L704.036 854.461C689.735 854.266 675.43 853.778 661.127 854.024C662.457 847.125 661.56 838.991 661.391 831.987L703.957 831.996L703.978 809.924C710.811 809.516 717.655 809.64 724.496 809.68C724.503 806.945 724.4 804.255 724.214 801.526Z"/>
	<path transform="scale(0.407715 0.407715)" d="M448.012 895.595C473.499 894.931 499.124 895.474 524.625 895.483C541.309 895.489 559.481 894.621 576.007 895.59L575.987 912.989Q512.013 912.817 448.042 913.439L448.012 895.595Z"/>
	<path transform="scale(0.407715 0.407715)" d="M448.229 103.498L534.179 103.232C548.029 103.229 562.133 102.663 575.956 103.34L575.989 120.653Q597.272 120.497 618.555 120.571L618.539 134.898Q639.555 134.906 660.568 134.58C660.502 140.16 660.1 145.992 660.763 151.537C646.708 151.238 632.59 151.512 618.527 151.51L618.599 135.018C604.399 134.648 590.136 134.977 575.929 135.053L575.94 121.378C545.078 122.204 514.083 121.725 483.204 121.792L459.416 121.838C456.005 121.841 452.193 121.397 448.85 121.97L448.274 122.876C448.203 116.418 448.069 109.955 448.229 103.498Z"/>
	<path transform="scale(0.407715 0.407715)" d="M107.05 448.022C114.038 447.844 121.042 447.959 128.033 447.995Q127.165 480.259 127.977 512.525L128.012 568.402L127.888 574.93L141.802 574.875L141.469 618.096L156.75 617.958C156.613 632.056 156.09 646.084 157.597 660.125C152.471 661.05 146.372 660.425 141.146 660.391C141.108 646.421 140.901 632.421 141.265 618.456L124.503 618.454C124.524 604.115 124.363 589.743 124.816 575.411L107.401 575.445L107.05 448.022Z"/>
	<path transform="scale(0.407715 0.407715)" d="M874.858 405.613L897.094 405.562C898.253 419.15 898.008 433.998 897.172 447.586C903.238 447.915 909.39 447.559 915.423 448.065L915.459 575.952L897.347 575.991C897.487 590.09 897.027 604.39 897.88 618.457L880.722 618.419C881 632.368 880.298 646.718 881.328 660.589Q872.982 660.668 864.636 660.66L864.582 658.618C866.038 645.979 866.097 630.816 865.981 617.979L880.527 618.008L880.593 597.977L880.421 575.989L896.612 575.925C896.16 558.929 896.39 541.792 896.578 524.79C896.646 518.667 897.063 512.516 896.936 506.4C897.095 486.672 896.476 467.05 897.175 447.318C889.579 446.341 882.45 446.645 874.841 447.073Q874.981 436.803 874.977 426.533Q875.069 416.239 874.853 405.946L874.858 405.613Z"/>
	<path fill="#0E2F5C" transform="scale(0.407715 0.407715)" d="M128.012 568.402C134.976 568.645 142.03 568.926 148.993 568.533C148.923 578.345 148.708 588.186 148.875 597.996C156.101 597.526 163.316 597.51 170.555 597.481L170.127 618.02L192.158 618.008Q191.939 628.757 192.054 639.508C199.2 639.367 206.357 639.03 213.502 638.975L213.095 659.041L234.537 658.98L234.474 674.498L255.991 674.467L255.986 698.876C263.077 698.647 270.178 699.014 277.259 698.555Q277.07 706.801 277.06 715.05L320.013 714.98L319.87 732.108C326.944 731.418 333.932 731.401 341.03 731.668Q340.983 741.59 341.048 751.512C355.337 751.396 369.623 751.008 383.911 750.973Q383.603 759.496 383.478 768.023C398.087 768.014 412.717 768.174 427.322 767.932C427.389 773.78 427.567 779.657 427.455 785.503C463.538 786.007 499.54 785.401 535.613 785.046L598.116 784.977L598.008 767.656C612.252 767.686 626.522 768.016 640.754 767.966C640.538 762.655 640.459 757.294 639.896 752.007L682.957 751.996L682.985 736L704.012 736.014L703.995 724.921C710.869 725.871 717.988 725.642 724.878 724.904L724.859 711.453L746.517 711.483Q746.717 701.732 746.609 691.979Q757.36 692.059 768.111 691.976L768 668.719Q778.508 668.735 789.014 668.496L789.007 647.016C795.863 646.982 802.677 646.893 809.521 646.462L809.633 632.982L832.009 633.016L832.004 617.983C838.673 618.155 845.354 618.426 852.024 618.489L851.952 597.96L880.593 597.977L880.527 618.008L865.981 617.979C866.097 630.816 866.038 645.979 864.582 658.618L864.636 660.66L864.498 660.898C858.798 662.051 852.683 661.625 846.889 661.478C846.382 666.999 845.958 673.205 846.631 678.717C846.597 680.217 846.767 681.516 846.021 682.852C841.369 683.337 836.553 682.97 831.881 682.851C830.148 682.861 828.16 682.516 826.721 683.494C826.368 684.703 826.212 685.803 826.074 687.048L826.002 701.985C825.982 707.984 826.175 714.067 825.903 720.054C825.728 721.697 825.517 723.332 825.52 724.987Q816.674 724.858 807.831 725.095L807.571 725.277C807.561 729.604 808.17 735.335 807.156 739.494C800.039 738.926 792.937 738.967 785.804 739.005C785.99 741.393 785.841 743.598 785.6 745.967C785.785 751.027 785.966 756.053 785.297 761.089C785.129 762.63 784.938 764.16 784.921 765.711C779.133 766.152 773.299 766.033 767.498 766.044C767.569 772.188 768.384 779.428 766.429 785.311L764.213 784.729C763.627 784.12 763.07 783.821 762.271 783.576C757.944 782.248 749.968 782.439 746 784.514L746.005 789.207L745.931 802.122L745.488 802.063C738.42 801.701 731.292 801.702 724.214 801.526C724.4 804.255 724.503 806.945 724.496 809.68C717.655 809.64 710.811 809.516 703.978 809.924L703.957 831.996L661.391 831.987C661.56 838.991 662.457 847.125 661.127 854.024C660.075 860.651 660.578 867.687 660.78 874.388Q639.696 874.278 618.612 874.43C604.974 876.828 589.802 875.335 576 874.963L576.007 895.59C559.481 894.621 541.309 895.489 524.625 895.483C499.124 895.474 473.499 894.931 448.012 895.595L447.993 874.671L404.913 874.514L404.535 874.232C390.838 873.135 376.477 874 362.705 874.075C362.873 867.198 362.599 860.254 362.526 853.371L362.396 853.142C348.451 852.977 334.451 853.343 320.502 853.423L320.534 838.063L299.061 838.417L299.053 818.497C295.709 818.609 291.911 819.018 288.616 818.476C286.666 818.155 285.539 817.683 284.376 816.072C284.396 814.733 284.542 813.619 283.756 812.457C282.048 811.553 279.771 811.921 277.885 811.983L278.04 796.567Q267.519 796.445 257.006 796.877L257.036 779.964C249.992 779.857 242.934 779.96 235.888 779.971C235.726 773.387 235.198 766.463 235.818 759.915L213.559 760.007L213.552 737.486L193.425 737.541L193.333 718.16C187.606 718.456 181.857 718.406 176.124 718.444Q176.15 709.938 176.327 701.434L158.062 701.463Q158.146 680.779 158.011 660.096L157.597 660.125C156.09 646.084 156.613 632.056 156.75 617.958L141.469 618.096L141.802 574.875L127.888 574.93L128.012 568.402Z"/>
	<path fill="#173F74" transform="scale(0.407715 0.407715)" d="M723.994 788.931Q735.002 788.872 746.005 789.207L745.931 802.122L745.488 802.063C738.42 801.701 731.292 801.702 724.214 801.526C723.508 797.563 723.958 792.963 723.994 788.931Z"/>
	<path fill="#173F74" transform="scale(0.407715 0.407715)" d="M785.502 724.977C792.627 724.898 800.539 724.228 807.571 725.277C807.561 729.604 808.17 735.335 807.156 739.494C800.039 738.926 792.937 738.967 785.804 739.005C784.724 734.873 785.448 729.268 785.502 724.977Z"/>
	<path fill="#173F74" transform="scale(0.407715 0.407715)" d="M846.49 654.001C852.225 653.992 858.042 653.528 863.76 654.02C864.514 654.989 864.451 657.335 864.582 658.618L864.636 660.66L864.498 660.898C858.798 662.051 852.683 661.625 846.889 661.478C846.382 666.999 845.958 673.205 846.631 678.717C846.597 680.217 846.767 681.516 846.021 682.852C841.369 683.337 836.553 682.97 831.881 682.851C830.232 682.086 828.121 682.358 826.312 682.343Q826.907 671.969 827.007 661.578L846.481 661.394L846.49 654.001Z"/>
	<path fill="#030C22" transform="scale(0.407715 0.407715)" d="M785.6 745.967C785.785 751.027 785.966 756.053 785.297 761.089C785.129 762.63 784.938 764.16 784.921 765.711C779.133 766.152 773.299 766.033 767.498 766.044C767.569 772.188 768.384 779.428 766.429 785.311L764.213 784.729C763.627 784.12 763.07 783.821 762.271 783.576C757.944 782.248 749.968 782.439 746 784.514C746.141 778.368 746.05 772.2 746.052 766.051Q756.547 766.268 767.039 765.943Q767.086 755.973 766.999 746.003L785.6 745.967Z"/>
	<path fill="#173F74" transform="scale(0.407715 0.407715)" d="M807.993 682.967C813.725 682.876 819.725 682.403 825.423 683.02C826.059 684.279 825.979 685.656 826.074 687.048L826.002 701.985C825.982 707.984 826.175 714.067 825.903 720.054C825.728 721.697 825.517 723.332 825.52 724.987Q816.674 724.858 807.831 725.095C806.865 721.645 807.975 689.514 807.993 682.967Z"/>
	<path transform="scale(0.407715 0.407715)" d="M661.127 854.024C660.075 860.651 660.578 867.687 660.78 874.388Q639.696 874.278 618.612 874.43L618.52 854.179C627.962 855.174 652.08 855.353 661.127 854.024Z"/>
	<path transform="scale(0.407715 0.407715)" d="M362.526 853.371Q383.518 853.67 404.51 853.445Q404.434 863.839 404.535 874.232C390.838 873.135 376.477 874 362.705 874.075C362.873 867.198 362.599 860.254 362.526 853.371Z"/>
	<path transform="scale(0.407715 0.407715)" d="M158.011 660.096Q167.971 659.859 177.934 659.972L178.038 699.218L192.525 698.969L192.55 711.054L213.972 710.974L214.037 725.725Q224.499 725.551 234.963 725.56L235 747.211L255.94 747.02L256.003 767.492L277.537 767.484L277.571 789.05L298.492 788.551C298.498 795.598 298.298 802.73 298.734 809.761Q309.367 809.584 320.001 809.674Q320.273 820.619 320.296 831.568L361.997 831.554C361.946 838.672 361.532 846.065 362.396 853.142C348.451 852.977 334.451 853.343 320.502 853.423L320.534 838.063L299.061 838.417L299.053 818.497C295.709 818.609 291.911 819.018 288.616 818.476C286.666 818.155 285.539 817.683 284.376 816.072C284.396 814.733 284.542 813.619 283.756 812.457C282.048 811.553 279.771 811.921 277.885 811.983L278.04 796.567Q267.519 796.445 257.006 796.877L257.036 779.964C249.992 779.857 242.934 779.96 235.888 779.971C235.726 773.387 235.198 766.463 235.818 759.915L213.559 760.007L213.552 737.486L193.425 737.541L193.333 718.16C187.606 718.456 181.857 718.406 176.124 718.444Q176.15 709.938 176.327 701.434L158.062 701.463Q158.146 680.779 158.011 660.096Z"/>
	<path fill="#173F74" transform="scale(0.407715 0.407715)" d="M896.936 506.4C897.063 512.516 896.646 518.667 896.578 524.79C896.39 541.792 896.16 558.929 896.612 575.925L880.421 575.989L880.593 597.977L851.952 597.96L852.024 618.489C845.354 618.426 838.673 618.155 832.004 617.983L832.009 633.016L809.633 632.982L809.521 646.462C802.677 646.893 795.863 646.982 789.007 647.016L789.014 668.496Q778.508 668.735 768 668.719L768.111 691.976Q757.36 692.059 746.609 691.979Q746.717 701.732 746.517 711.483L724.859 711.453L724.878 724.904C717.988 725.642 710.869 725.871 703.995 724.921L704.012 736.014L682.985 736L682.957 751.996L639.896 752.007C640.459 757.294 640.538 762.655 640.754 767.966C626.522 768.016 612.252 767.686 598.008 767.656L598.116 784.977L535.613 785.046C499.54 785.401 463.538 786.007 427.455 785.503C427.567 779.657 427.389 773.78 427.322 767.932C412.717 768.174 398.087 768.014 383.478 768.023Q383.603 759.496 383.911 750.973C369.623 751.008 355.337 751.396 341.048 751.512Q340.984 741.59 341.03 731.668C333.932 731.401 326.944 731.418 319.87 732.108L320.013 714.98L277.06 715.05Q277.07 706.801 277.259 698.555C270.178 699.014 263.077 698.647 255.986 698.876L255.991 674.467L234.474 674.498L234.537 658.98L213.095 659.041L213.502 638.975C206.357 639.03 199.2 639.367 192.054 639.508Q191.939 628.757 192.158 618.008L170.127 618.02L170.555 597.481C163.316 597.51 156.101 597.526 148.875 597.996C148.708 588.186 148.923 578.345 148.993 568.533C142.03 568.926 134.976 568.645 128.012 568.402L127.977 512.525C135.002 512.514 142.064 512.643 149.083 512.366Q149.002 522.698 149.032 533.029Q159.752 533.184 170.472 533.063C170.587 530.043 170.499 526.819 170.924 523.835C171.004 526.874 171.065 529.897 170.988 532.937C173.645 533.034 176.45 532.954 179.064 533.434L192.452 533.498Q203.221 533.679 213.99 533.486C218.748 533.346 231.17 531.863 235.023 533.364C241.739 534.217 249.21 533.743 255.986 533.499L277.481 533.535L277.488 555.004C284.374 555.903 291.603 555.542 298.543 555.509C298.257 562.442 297.898 569.201 298.647 576.119C300.665 576.071 302.729 575.929 304.743 576.059L320.004 576.005L319.999 597.143L341.518 597.021L341.554 617.511L362.556 617.498Q362.948 627.928 363.002 638.366C377.041 638.429 391.066 638.578 405.095 637.91L405.692 638.102L405.486 638.46C412.43 638.395 419.572 638.028 426.499 638.545C440.735 638.529 455.291 637.828 469.484 638.746L469.51 659.024L520.707 659.015C532.139 659.118 543.455 659.759 554.885 658.935C561.876 658.53 593.473 659.395 596.886 658.233L597.281 657.125C597.516 650.756 597.291 644.379 597.156 638.01L618.1 637.948L618.33 637.686C623.056 638.977 654.343 638.097 661.784 638.118C661.949 631.581 661.93 625.03 661.987 618.49C668.825 618.518 675.641 618.549 682.466 618.085L682.486 596.626C689.472 597.171 696.497 597.017 703.499 597.002L703.484 576.012L725.483 576.014L725.495 555.452C732.482 555.408 739.493 555.973 746.494 556.019L746.453 534.086Q757.199 534.423 767.95 534.522C767.841 545.976 767.591 557.54 768.033 568.985Q767.752 581.899 767.772 594.816Q756.878 594.868 745.984 594.771L745.913 614.513L724.969 614.462C724.973 621.317 725.232 628.299 724.788 635.134C727.103 636.918 742.377 636.044 746.07 636.04L768.027 636.109L768.01 619.064L789.569 619.082L789.556 595.999Q800.128 596.148 810.7 596.088C810.442 589.327 810.355 582.564 810.974 575.82Q821.494 576.228 832.021 576.04L832.067 555.017C839.242 555.391 846.451 555.27 853.635 555.258L853.516 533.497Q864.107 533.414 874.691 533.811Q874.709 522.935 874.495 512.062C881.823 512.026 889.125 512.028 896.447 512.335C896.497 510.335 896.704 508.386 896.936 506.4Z"/>
	<path fill="#40B9E9" transform="scale(0.407715 0.407715)" d="M179.064 533.434L192.452 533.498C192.43 540.49 192.53 547.511 192.1 554.492L170.493 554.504Q170.446 543.978 170.581 533.453C173.409 533.523 176.236 533.47 179.064 533.434Z"/>
	<path fill="#40B9E9" transform="scale(0.407715 0.407715)" d="M192.452 533.498Q203.221 533.679 213.99 533.486L214.012 554.495C213.998 559.682 214.244 565.057 213.91 570.222C213.613 572.004 213.4 573.654 213.409 575.461C206.262 575.95 199.167 575.955 192.006 575.954Q191.845 565.222 192.1 554.492C192.53 547.511 192.43 540.49 192.452 533.498Z"/>
	<path transform="scale(0.407715 0.407715)" d="M192.452 533.498Q203.221 533.679 213.99 533.486L214.012 554.495L192.1 554.492C192.53 547.511 192.43 540.49 192.452 533.498Z"/>
	<path fill="#147AC6" transform="scale(0.407715 0.407715)" d="M213.409 575.461C213.4 573.654 213.613 572.004 213.91 570.222C213.927 571.745 213.694 573.734 214.398 575.071C220.669 576.409 228.421 575.591 234.867 575.493L234.854 597.025L256.516 597.002C256.518 603.961 256.137 611.144 256.58 618.075L256.219 618.887C256.197 618.856 256.182 618.817 256.152 618.793C254.257 617.264 238.086 618.084 234.504 618.109Q234.488 607.611 234.623 597.114C227.583 597.656 220.48 597.515 213.435 597.148Q213.54 586.304 213.409 575.461Z"/>
	<path transform="scale(0.407715 0.407715)" d="M214.012 554.495C220.587 554.434 228.484 553.528 234.903 554.952L235.003 571.447L256.512 571.607L256.516 597.002L234.854 597.025L234.867 575.493C228.421 575.591 220.669 576.409 214.398 575.071C213.694 573.734 213.927 571.745 213.91 570.222C214.244 565.057 213.998 559.682 214.012 554.495Z"/>
	<path fill="#147AC6" transform="scale(0.407715 0.407715)" d="M724.788 635.134C727.103 636.918 742.377 636.044 746.07 636.04C746.891 643.57 746.511 651.451 746.439 659.022L724.981 659.08C725.244 666.487 725.62 673.826 724.915 681.22C717.983 681.705 710.972 681.542 704.026 681.441L704.027 696.837L682.911 696.962L682.995 712.03L639.976 712.022L640.027 730.3L384.03 730.112L384.051 712.429L341.473 712.424L341.474 698.088L320 698.121L319.992 671.432C312.791 671.434 305.515 671.637 298.325 671.26Q298.433 665.104 298.376 658.947L298.436 658.681C312.384 659.238 327.677 659.657 341.582 658.902L341.913 659.054C355.946 659.917 369.982 659.078 384.017 659.235C384.004 665.809 383.869 672.415 384.096 678.984L384.124 697.134Q415.996 696.671 447.869 697.071L489.988 697.076C497.449 697.065 505.165 696.637 512.601 697.123C533.613 697.063 554.925 698.448 575.912 697.495L576.382 697.175L576.902 679.381C597.575 679.693 618.751 680.671 639.363 678.766L639.801 678.387C640.857 672.08 640.434 665.517 640.315 659.148Q661.18 659.292 682.041 658.888L682.173 658.511C683.436 651.646 682.679 643.503 682.62 636.5C695.941 636.473 709.295 636.863 722.606 636.28L724.233 635.993L724.788 635.134Z"/>
	<path transform="scale(0.407715 0.407715)" d="M640.315 659.148Q661.18 659.292 682.041 658.888Q682.182 668.534 682.006 678.18C668.127 677.976 653.616 677.011 639.801 678.387C640.857 672.08 640.434 665.517 640.315 659.148Z"/>
	<path transform="scale(0.407715 0.407715)" d="M341.913 659.054C355.946 659.917 369.982 659.078 384.017 659.235C384.004 665.809 383.869 672.415 384.096 678.984C369.914 678.278 355.768 678.69 341.583 679.029C341.529 672.78 340.696 665.129 341.913 659.054Z"/>
	<path transform="scale(0.407715 0.407715)" d="M722.606 636.28L723.943 636.584C726.129 640.861 724.65 653.195 724.435 658.418C710.389 658.895 696.233 658.49 682.173 658.511C683.436 651.646 682.679 643.503 682.62 636.5C695.941 636.473 709.295 636.863 722.606 636.28Z"/>
	<path transform="scale(0.407715 0.407715)" d="M639.363 678.766C641.026 682.491 640.083 692.993 640.016 697.45L599.588 697.442C591.955 697.445 583.983 697.871 576.382 697.175L576.902 679.381C597.575 679.693 618.751 680.671 639.363 678.766Z"/>
	<path transform="scale(0.407715 0.407715)" d="M512.601 697.123C533.613 697.063 554.925 698.448 575.912 697.495C576.375 704.489 576.157 711.464 576 718.465C560.616 718.036 545.276 718.452 529.893 718.481L448.007 718.514L447.99 697.393C469.398 697.419 491.254 698.345 512.601 697.123Z"/>
	<defs>
		<linearGradient id="gradient_0" gradientUnits="userSpaceOnUse" x1="488.88254" y1="699.84778" x2="507.19113" y2="510.0788">
			<stop offset="0" stop-color="#9D96EF"/>
			<stop offset="1" stop-color="#C3A5F0"/>
		</linearGradient>
	</defs>
	<path fill="url(#gradient_0)" transform="scale(0.407715 0.407715)" d="M213.99 533.486C218.748 533.346 231.17 531.863 235.023 533.364C241.739 534.217 249.21 533.743 255.986 533.499L277.481 533.535L277.488 555.004C284.374 555.903 291.603 555.542 298.543 555.509C298.257 562.442 297.898 569.201 298.647 576.119C300.665 576.071 302.729 575.929 304.743 576.059L320.004 576.005L319.999 597.143L341.518 597.021L341.554 617.511L362.556 617.498Q362.948 627.928 363.002 638.366C377.041 638.429 391.066 638.578 405.095 637.91L405.692 638.102L405.486 638.46C412.43 638.395 419.572 638.028 426.499 638.545C440.735 638.529 455.291 637.828 469.484 638.746L469.51 659.024L520.707 659.015C532.139 659.118 543.455 659.759 554.885 658.935C561.876 658.53 593.473 659.395 596.886 658.233L597.281 657.125C597.516 650.756 597.291 644.379 597.156 638.01L618.1 637.948L618.33 637.686C623.056 638.977 654.343 638.097 661.784 638.118C661.949 631.581 661.93 625.03 661.987 618.49C668.825 618.518 675.641 618.549 682.466 618.085L682.486 596.626C689.472 597.171 696.497 597.017 703.499 597.002L703.484 576.012L725.483 576.014L725.495 555.452C732.482 555.408 739.493 555.973 746.494 556.019L746.453 534.086Q757.199 534.423 767.95 534.522C767.841 545.976 767.591 557.54 768.033 568.985Q767.752 581.899 767.772 594.816Q756.878 594.868 745.984 594.771L745.913 614.513L724.969 614.462C724.973 621.317 725.232 628.299 724.788 635.134L724.233 635.993L722.606 636.28C709.295 636.863 695.941 636.473 682.62 636.5C682.679 643.503 683.436 651.646 682.173 658.511L682.041 658.888Q661.18 659.292 640.315 659.148C640.434 665.517 640.857 672.08 639.801 678.387L639.363 678.766C618.751 680.671 597.575 679.693 576.902 679.381L576.382 697.175L575.912 697.495C554.925 698.448 533.613 697.063 512.601 697.123C505.165 696.637 497.449 697.065 489.988 697.076L447.869 697.071Q415.996 696.671 384.124 697.134L384.096 678.984C383.869 672.415 384.004 665.809 384.017 659.235C369.982 659.078 355.946 659.917 341.913 659.054L341.582 658.902C327.677 659.657 312.384 659.238 298.436 658.681L298.376 658.947C291.415 659.162 284.472 659.101 277.509 659.017Q277.289 649.042 277.617 639.069C270.422 638.388 263.274 638.774 256.067 639.046C256.02 632.327 255.889 625.601 256.219 618.887L256.58 618.075C256.137 611.144 256.518 603.961 256.516 597.002L256.512 571.607L235.003 571.447L234.903 554.952C228.484 553.528 220.587 554.434 214.012 554.495L213.99 533.486Z"/>
	<path fill="#FEFEFE" transform="scale(0.407715 0.407715)" d="M597.156 638.01L618.1 637.948Q618.301 648.231 618.038 658.513C614.685 658.534 599.544 659.269 597.593 657.957L597.281 657.125C597.516 650.756 597.291 644.379 597.156 638.01Z"/>
	<path fill="#FEFEFE" transform="scale(0.407715 0.407715)" d="M405.486 638.46C412.43 638.395 419.572 638.028 426.499 638.545L426.492 658.97L404.926 658.958C404.847 653.591 403.823 643.299 405.486 638.46Z"/>
	<path transform="scale(0.407715 0.407715)" d="M426.499 638.545C440.735 638.529 455.291 637.828 469.484 638.746L469.51 659.024L426.492 658.97L426.499 638.545Z"/>
	<path transform="scale(0.407715 0.407715)" d="M384.096 678.984C405.383 678.785 426.728 678.508 448.013 678.702C447.988 684.822 448.039 690.954 447.869 697.071Q415.996 696.671 384.124 697.134L384.096 678.984Z"/>
	<path transform="scale(0.407715 0.407715)" d="M469.51 659.024L520.707 659.015C532.139 659.118 543.455 659.759 554.885 658.935C554.287 665.414 554.639 672.014 554.775 678.51L469.413 678.505L469.51 659.024Z"/>
	<path fill="#DAD3FE" transform="scale(0.407715 0.407715)" d="M213.99 533.486C218.748 533.346 231.17 531.863 235.023 533.364C241.739 534.217 249.21 533.743 255.986 533.499L277.481 533.535L277.488 555.004C284.374 555.903 291.603 555.542 298.543 555.509C298.257 562.442 297.898 569.201 298.647 576.119C300.665 576.071 302.729 575.929 304.743 576.059C296.384 577.896 285.939 576.734 277.404 576.479L277.47 555.05C263.314 554.408 249.154 555.389 235.039 554.593L234.903 554.952C228.484 553.528 220.587 554.434 214.012 554.495L213.99 533.486Z"/>
	<path fill="#988BE3" transform="scale(0.407715 0.407715)" d="M213.99 533.486C218.748 533.346 231.17 531.863 235.023 533.364C234.897 540.446 234.728 547.515 235.039 554.593L234.903 554.952C228.484 553.528 220.587 554.434 214.012 554.495L213.99 533.486Z"/>
	<path transform="scale(0.407715 0.407715)" d="M256.516 597.002C263.598 596.952 270.689 596.823 277.771 596.867Q278.124 607.365 278.034 617.868C284.857 617.814 291.693 617.658 298.514 617.703L298.508 638.497L341.431 638.495C341.43 645.239 341.098 652.184 341.582 658.902C327.677 659.657 312.384 659.238 298.436 658.681L298.376 658.947C291.415 659.162 284.472 659.101 277.509 659.017Q277.289 649.042 277.617 639.069C270.422 638.388 263.274 638.774 256.067 639.046C256.02 632.327 255.889 625.601 256.219 618.887L256.58 618.075C256.137 611.144 256.518 603.961 256.516 597.002Z"/>
	<path fill="#40B9E9" transform="scale(0.407715 0.407715)" d="M256.58 618.075Q267.347 617.86 278.115 617.923C278.005 624.939 277.784 631.977 278.039 638.99L298.564 638.881C298.558 645.46 298.745 652.112 298.436 658.681L298.376 658.947C291.415 659.162 284.472 659.101 277.509 659.017Q277.289 649.042 277.617 639.069C270.422 638.388 263.274 638.774 256.067 639.046C256.02 632.327 255.889 625.601 256.219 618.887L256.58 618.075Z"/>
	<path fill="#40B9E9" transform="scale(0.407715 0.407715)" d="M448.274 122.876L448.85 121.97C452.193 121.397 456.005 121.841 459.416 121.838L483.204 121.792C514.083 121.725 545.078 122.204 575.94 121.378L575.929 135.053C590.136 134.977 604.399 134.648 618.599 135.018L618.527 151.51C632.59 151.512 646.708 151.238 660.763 151.537C661.374 157.869 661.026 164.506 660.998 170.871C674.906 170.458 690.22 169.335 704.005 171.105L704.023 192.399C711.21 192.191 718.329 192.032 725.513 192.491C732.488 193.248 739.513 193.009 746.52 193.036C746.53 199.998 746.282 207.078 746.692 214.023L747.155 214.494C747.437 221.17 747.391 227.827 747.337 234.506L767.961 234.509L768.112 256.008L789.056 256.016C789.409 263.012 789.354 269.98 789.278 276.981C796.365 276.796 803.394 276.58 810.472 277.131L810.572 277.462C817.67 277.439 824.851 277.187 831.941 277.452C831.932 291.543 831.449 305.821 832.114 319.887Q842.604 320.155 853.098 320.087C852.996 334.297 852.335 348.793 853.099 362.968C853.125 366.407 853.35 369.982 853.091 373.404C853.986 383.982 853.481 394.882 853.444 405.506L874.627 405.486L874.858 405.613L874.853 405.946Q875.069 416.239 874.977 426.533Q874.981 436.803 874.841 447.073C882.45 446.645 889.579 446.341 897.175 447.318C896.476 467.05 897.095 486.672 896.936 506.4C896.704 508.386 896.497 510.335 896.447 512.335C889.125 512.028 881.823 512.026 874.495 512.062Q874.709 522.935 874.691 533.811Q864.107 533.414 853.516 533.497L853.635 555.258C846.451 555.27 839.242 555.391 832.067 555.017L832.021 576.04Q821.494 576.228 810.974 575.82C810.355 582.564 810.442 589.327 810.7 596.088Q800.128 596.148 789.556 595.999L789.569 619.082L768.01 619.064L768.027 636.109L746.07 636.04C742.377 636.044 727.103 636.918 724.788 635.134C725.232 628.299 724.973 621.317 724.969 614.462L745.913 614.513L745.984 594.771Q756.878 594.868 767.772 594.816Q767.752 581.899 768.033 568.985C767.591 557.54 767.841 545.976 767.95 534.522Q757.199 534.423 746.453 534.086L746.494 556.019C739.493 555.973 732.482 555.408 725.495 555.452L725.483 576.014L703.484 576.012L703.499 597.002C696.497 597.017 689.472 597.171 682.486 596.626L682.466 618.085C675.641 618.549 668.825 618.518 661.987 618.49C661.93 625.03 661.949 631.581 661.784 638.118C654.343 638.097 623.056 638.977 618.33 637.686L618.1 637.948L597.156 638.01C597.291 644.379 597.516 650.756 597.281 657.125L596.886 658.233C593.473 659.395 561.876 658.53 554.885 658.935C543.455 659.759 532.139 659.118 520.707 659.015L469.51 659.024L469.484 638.746C455.291 637.828 440.735 638.529 426.499 638.545C419.572 638.028 412.43 638.395 405.486 638.46L405.692 638.102L405.095 637.91C391.066 638.578 377.041 638.429 363.002 638.366Q362.948 627.928 362.556 617.498L341.554 617.511L341.518 597.021L319.999 597.143L320.004 576.005L304.743 576.059C302.729 575.929 300.665 576.071 298.647 576.119C297.898 569.201 298.257 562.442 298.543 555.509C291.603 555.542 284.374 555.903 277.488 555.004L277.481 533.535L255.986 533.499C249.21 533.743 241.739 534.217 235.023 533.364C231.17 531.863 218.748 533.346 213.99 533.486Q203.221 533.679 192.452 533.498L179.064 533.434C176.45 532.954 173.645 533.034 170.988 532.937C171.065 529.897 171.004 526.874 170.924 523.835C170.499 526.819 170.587 530.043 170.472 533.063Q159.752 533.184 149.032 533.029Q149.002 522.697 149.083 512.366C142.064 512.643 135.002 512.514 127.977 512.525Q127.165 480.259 128.033 447.995C128.636 433.937 128.189 419.67 128.228 405.586L149.518 405.549Q160.219 405.286 170.92 405.548Q171.175 384.021 170.651 362.498L170.959 362.468C171.871 348.443 171.301 334.087 171.38 320.017L192.035 319.995C192.443 305.872 192.125 291.743 192.112 277.619Q202.831 277.81 213.55 277.574Q213.727 266.838 213.679 256.1L234.824 256.006C235.369 248.998 234.956 241.685 234.953 234.642L255.947 234.649L255.958 213.882C263.127 213.777 270.301 213.891 277.469 213.703C284.595 212.929 292.298 213.482 299.488 213.504L299.41 192.518C299.578 185.224 299.468 177.901 299.487 170.604L320.497 170.553L320.562 150.005L362.52 150.077C372.413 149.736 382.401 150.005 392.303 150.007L448.435 150.02L448.387 129.536L448.274 122.876Z"/>
	<path transform="scale(0.407715 0.407715)" d="M725.513 192.491C732.488 193.248 739.513 193.009 746.52 193.036C746.53 199.998 746.282 207.078 746.692 214.023Q736.098 213.897 725.503 213.902L725.513 192.491Z"/>
	<path transform="scale(0.407715 0.407715)" d="M213.679 256.1L234.824 256.006C234.477 263.179 234.69 270.405 234.76 277.584C227.699 277.538 220.607 277.366 213.55 277.574Q213.727 266.838 213.679 256.1Z"/>
	<path fill="#FEFEFE" transform="scale(0.407715 0.407715)" d="M640.042 235.02C647.37 234.746 654.675 234.513 662.008 234.574L662.009 256.414C654.643 256.621 647.35 256.912 639.998 256.271L640.042 235.02Z"/>
	<path transform="scale(0.407715 0.407715)" d="M171.38 320.017L192.035 319.995L192.051 362.514C185.034 362.501 177.97 362.669 170.959 362.468C171.871 348.443 171.301 334.087 171.38 320.017Z"/>
	<path transform="scale(0.407715 0.407715)" d="M277.469 213.703L277.274 235.065L255.84 235.001L255.895 256.146Q245.361 255.921 234.824 256.006C235.369 248.998 234.956 241.685 234.953 234.642L255.947 234.649L255.958 213.882C263.127 213.777 270.301 213.891 277.469 213.703Z"/>
	<path transform="scale(0.407715 0.407715)" d="M213.55 277.574L213.505 320.02L192.035 319.995C192.443 305.872 192.125 291.743 192.112 277.619Q202.831 277.81 213.55 277.574Z"/>
	<path transform="scale(0.407715 0.407715)" d="M320.562 150.005L362.52 150.077L362.43 171.299L320.146 170.989L320.017 192.507L299.41 192.518C299.578 185.224 299.468 177.901 299.487 170.604L320.497 170.553L320.562 150.005Z"/>
	<path transform="scale(0.407715 0.407715)" d="M810.572 277.462C817.67 277.439 824.851 277.187 831.941 277.452C831.932 291.543 831.449 305.821 832.114 319.887Q842.604 320.155 853.098 320.087C852.996 334.297 852.335 348.793 853.099 362.968Q842.555 362.768 832.013 363.03L832.003 319.566C824.829 319.205 817.684 319.386 810.507 319.547Q810.416 298.504 810.572 277.462Z"/>
	<path fill="#FEFEFE" transform="scale(0.407715 0.407715)" d="M483.539 156.501L547.876 156.571Q547.548 166.657 547.75 176.746L576.013 176.715L576.012 192.002C585.828 191.979 595.661 191.84 605.47 192.238L605.465 213.918C617.096 213.696 628.751 213.387 640.382 213.74L640.042 235.02L597.993 235.103L597.995 213.817Q583.906 214 569.816 213.858Q569.576 206.435 569.785 199.012L540.474 198.998C540.44 191.838 540.536 184.652 540.33 177.497C521.584 178.267 503.083 177.548 484.365 177.475L484.029 199.018L448.489 199.025C448.495 204.026 448.588 209.031 448.086 214.012C441.032 213.837 433.959 213.552 426.904 213.56Q426.891 224.289 426.5 235.011C419.381 235.086 412.242 235.058 405.129 235.326C405.166 242.211 405.325 249.122 405.182 256.004Q391.267 255.733 377.353 256.044L377.082 277.363L341.735 277.494L341.672 256.013L362.538 255.975L362.524 234.947C369.685 234.84 376.858 234.92 384.02 234.914L383.995 213.572L412.995 213.722L412.896 192.503L440.423 192.503L440.457 176.938C454.929 176.821 469.349 177.624 483.823 176.914C483.401 170.113 483.5 163.311 483.539 156.501Z"/>
	<path fill="#147AC6" transform="scale(0.407715 0.407715)" d="M447.997 249.011L526.264 249.076C542.634 249.087 559.128 249.455 575.476 248.706L575.464 256.004L616.352 255.989C624.237 255.979 632.147 255.705 640.025 256.069L639.993 278.015L682.478 277.937L682.48 291.489L704.27 291.49L704.508 299.138C711.271 299.457 718.012 299.431 724.78 299.387C724.705 303.755 724.563 308.133 724.678 312.5L746.14 312.49L746.048 326.01L768.032 326L768.011 341.077L789.494 341.048L789.477 363.006L810.513 363.001L810.486 384.007L831.938 383.998L831.978 405.424L852.962 405.49C852.944 395.447 852.059 383.119 853.091 373.404C853.986 383.982 853.481 394.882 853.444 405.506L874.627 405.486L874.858 405.613L874.853 405.946Q875.069 416.239 874.977 426.533Q874.981 436.803 874.841 447.073C882.45 446.645 889.579 446.341 897.175 447.318C896.476 467.05 897.095 486.672 896.936 506.4C896.704 508.386 896.497 510.335 896.447 512.335C889.125 512.028 881.823 512.026 874.495 512.062Q874.709 522.935 874.691 533.811Q864.107 533.414 853.516 533.497L853.635 555.258C846.451 555.27 839.242 555.391 832.067 555.017L832.021 576.04Q821.494 576.228 810.974 575.82C810.355 582.564 810.442 589.327 810.7 596.088Q800.128 596.148 789.556 595.999L789.569 619.082L768.01 619.064L768.027 636.109L746.07 636.04C742.377 636.044 727.103 636.918 724.788 635.134C725.232 628.299 724.973 621.317 724.969 614.462L745.913 614.513L745.984 594.771Q756.878 594.868 767.772 594.816Q767.752 581.899 768.033 568.985C767.591 557.54 767.841 545.976 767.95 534.522C767.864 509.913 768.436 485.306 768.504 460.695C768.535 449.326 769.174 437.812 768.102 426.485L746.507 426.487Q746.527 416.013 746.42 405.54C739.362 405.204 732.33 405.361 725.269 405.505L725.436 383.785C718.149 384.124 710.807 383.978 703.512 383.988C703.526 376.818 703.616 369.64 703.291 362.475L683.011 362.495C683.119 355.599 683.275 348.72 682.894 341.829L682.458 341.616Q671.976 341.336 661.491 341.49C661.607 334.326 661.688 327.186 661.472 320.023C660.809 313.243 661.034 306.293 661.007 299.481L597.486 299.512L483.871 299.506L449.478 299.372C442.009 299.335 434.382 299.049 426.939 299.71L426.594 299.808Q426.457 309.904 426.508 320L362.562 320L341.595 319.992L341.556 341.522L341.511 362.669C334.495 363.393 327.096 362.972 320.032 362.991L320.046 384.11C312.879 383.989 305.723 383.829 298.558 384.099L298.479 405.03L277.503 405.047L277.485 426.375L256.012 426.53L255.986 533.499C249.21 533.743 241.739 534.217 235.023 533.364C231.17 531.863 218.748 533.346 213.99 533.486Q203.221 533.679 192.452 533.498L179.064 533.434C176.45 532.954 173.645 533.034 170.988 532.937C171.065 529.897 171.004 526.874 170.924 523.835C170.499 526.819 170.587 530.043 170.472 533.063Q159.752 533.184 149.032 533.029Q149.002 522.697 149.083 512.366C142.064 512.643 135.002 512.514 127.977 512.525Q127.165 480.259 128.033 447.995C128.636 433.937 128.189 419.67 128.228 405.586L149.518 405.549Q160.219 405.286 170.92 405.548C171.563 412.532 170.568 419.678 171.369 426.601C172.444 420.117 171.611 412.396 171.539 405.803C178.337 405.292 185.202 405.544 192.011 405.652L191.99 384.013L213.973 384.002C214.013 377.027 213.902 370.046 213.854 363.07L234.017 363.067L234.013 355.484L255.998 355.597L255.991 327.013L277.961 327.007L277.957 320.018L298.914 320.007L298.654 299.069L341.561 299.15C341.514 291.933 341.373 284.704 341.735 277.494L377.082 277.363L377.353 256.044Q391.267 255.733 405.182 256.004L448.008 256.064L447.997 249.011Z"/>
	<path transform="scale(0.407715 0.407715)" d="M832.39 468.425C839.227 468.766 846.023 469.039 852.871 468.976C852.913 473.161 853.967 486.277 852.426 489.324L851.098 489.695C844.83 489.428 838.517 489.584 832.242 489.605Q832.418 479.016 832.39 468.425Z"/>
	<path transform="scale(0.407715 0.407715)" d="M725.522 362.681C732.324 362.358 739.192 362.393 746.001 362.496L746.024 383.692C739.227 383.589 732.308 383.319 725.52 383.727L725.522 362.681Z"/>
	<path transform="scale(0.407715 0.407715)" d="M789.292 426.405Q799.578 425.811 809.871 426.265C810.127 431.831 811.731 441.57 809.226 446.556C808.474 447.01 808.015 447.135 807.141 447.21C801.297 446.832 795.283 447.077 789.42 447.069C789.043 442.82 789.168 438.484 789.134 434.218C789.203 431.616 789.315 429.008 789.292 426.405Z"/>
	<path transform="scale(0.407715 0.407715)" d="M767.995 405.522L789.013 405.485Q788.948 415.977 789.018 426.47C782.018 426.562 775.043 426.791 768.052 426.301L767.995 405.522Z"/>
	<path transform="scale(0.407715 0.407715)" d="M832.491 511.744C839.344 511.75 846.183 511.759 853.032 511.46C853.719 518.673 853.607 525.854 853.309 533.083C846.435 532.928 839.186 533.356 832.386 532.433C832.713 525.572 832.494 518.617 832.491 511.744Z"/>
	<path transform="scale(0.407715 0.407715)" d="M832.07 532.931C832.445 539.957 832.933 547.038 831.951 554.034C824.842 553.488 817.599 553.238 810.496 554.026L810.52 533.449C817.684 533.486 824.942 533.718 832.07 532.931Z"/>
	<path transform="scale(0.407715 0.407715)" d="M661.472 320.023L682.509 319.981L682.458 341.616Q671.976 341.336 661.491 341.49C661.607 334.326 661.688 327.186 661.472 320.023Z"/>
	<path transform="scale(0.407715 0.407715)" d="M192.447 447.665Q203.02 447.872 213.595 447.953L213.621 469.44C206.491 469.237 199.407 468.89 192.304 469.732C192.815 462.372 192.593 455.035 192.447 447.665Z"/>
	<path transform="scale(0.407715 0.407715)" d="M853.455 489.998L874.037 489.979C874.451 497.239 874.675 504.401 874.009 511.661C867.125 511.389 860.342 512.057 853.447 511.384L853.455 489.998Z"/>
	<path transform="scale(0.407715 0.407715)" d="M255.998 383.885Q266.75 383.796 277.501 383.952L277.484 405.058C272.206 405.073 266.896 404.977 261.622 405.118C259.815 405.107 257.934 405.245 256.224 404.597C255.253 398.028 255.952 390.56 255.998 383.885Z"/>
	<path transform="scale(0.407715 0.407715)" d="M810.151 447.492L832.002 447.414L832.03 468.413L810.346 468.379C809.94 461.458 810.155 454.427 810.151 447.492Z"/>
	<path fill="#FEFEFE" transform="scale(0.407715 0.407715)" d="M149.518 405.549Q160.219 405.286 170.92 405.548C171.563 412.532 170.568 419.678 171.369 426.601C164.083 426.54 156.786 426.705 149.499 426.782L149.518 405.549Z"/>
	<path transform="scale(0.407715 0.407715)" d="M234.456 405.427L256.006 405.402C256.215 412.467 256.324 419.448 255.998 426.512Q245.255 426.677 234.511 426.542L234.456 405.427Z"/>
	<path fill="#C4DFFE" transform="scale(0.407715 0.407715)" d="M852.974 405.864C860.23 405.789 867.612 405.511 874.853 405.946Q875.069 416.239 874.977 426.533C867.702 427.105 860.217 426.827 852.928 426.548L852.974 405.864Z"/>
	<path transform="scale(0.407715 0.407715)" d="M746.476 384.005L768.001 383.947L767.995 405.522Q757.235 405.682 746.475 405.54L746.476 384.005Z"/>
	<path transform="scale(0.407715 0.407715)" d="M682.894 341.829C696.811 340.931 710.925 341.447 724.866 341.551C724.61 348.359 724.135 355.396 724.94 362.176C719.96 362.172 714.928 362.019 709.96 362.369L703.291 362.475L683.011 362.495C683.119 355.599 683.275 348.72 682.894 341.829Z"/>
	<path transform="scale(0.407715 0.407715)" d="M298.617 341.494L341.556 341.522L341.511 362.669C336.56 362.178 331.375 362.468 326.393 362.474L298.537 362.52L298.617 341.494Z"/>
	<path transform="scale(0.407715 0.407715)" d="M128.228 405.586L149.518 405.549L149.499 426.782L149.573 448.023L128.033 447.995C128.636 433.937 128.189 419.67 128.228 405.586Z"/>
	<path transform="scale(0.407715 0.407715)" d="M170.436 469.525C177.506 469.271 185.111 468.529 192.091 469.894Q192.256 480.662 192.162 491.43Q181.354 491.034 170.539 491.003C170.513 497.763 170.186 504.699 170.729 511.433C167.966 513.014 153.417 512.092 149.408 512.114L149.187 490.927Q159.839 490.547 170.497 490.695L170.436 469.525Z"/>
	<path transform="scale(0.407715 0.407715)" d="M362.617 299.494L402.445 299.431C410.31 299.389 418.821 298.739 426.594 299.808Q426.457 309.904 426.508 320L362.562 320L362.617 299.494Z"/>
	<path transform="scale(0.407715 0.407715)" d="M809.457 554.301C811.781 558.393 810.538 570.237 810.442 575.355C803.427 575.615 796.433 575.566 789.414 575.489L789.437 595.446L767.723 595.382L767.927 615.516L745.77 615.385C745.669 622.203 745.366 629.247 746.07 636.04C742.377 636.044 727.103 636.918 724.788 635.134C725.232 628.299 724.973 621.317 724.969 614.462L745.913 614.513L745.984 594.771Q756.878 594.868 767.772 594.816Q767.752 581.899 768.033 568.985L788.99 568.989L789.053 554.501C795.855 554.513 802.659 554.579 809.457 554.301Z"/>
	<path transform="scale(0.407715 0.407715)" d="M426.785 279.43L536.512 279.425C556.74 279.43 577.335 280.235 597.507 279.068L597.486 299.512L483.871 299.506L449.478 299.372C442.009 299.335 434.382 299.049 426.939 299.71C426.702 292.943 426.712 286.201 426.785 279.43Z"/>
	<path fill="#B29DED" transform="scale(0.407715 0.407715)" d="M703.291 362.475L709.96 362.369C714.959 362.467 720.604 361.937 725.522 362.681L725.52 383.727C732.498 384.139 739.493 383.781 746.476 384.005L746.475 405.54Q757.235 405.682 767.995 405.522L768.052 426.301C775.043 426.791 782.018 426.562 789.018 426.47C789.046 429.047 789.001 431.646 789.134 434.218C789.168 438.484 789.043 442.82 789.42 447.069C795.283 447.077 801.297 446.832 807.141 447.21L810.151 447.492C810.155 454.427 809.94 461.458 810.346 468.379L832.03 468.413C831.988 475.233 831.313 482.885 832.242 489.605C838.517 489.584 844.83 489.428 851.098 489.695L852.549 490.094C854.313 493.837 853.251 507.017 853.032 511.46C846.183 511.759 839.344 511.75 832.491 511.744C832.494 518.617 832.713 525.572 832.386 532.433L832.07 532.931C824.942 533.718 817.684 533.486 810.52 533.449L810.496 554.026L809.457 554.301C802.659 554.579 795.855 554.513 789.053 554.501L788.99 568.989L768.033 568.985C767.591 557.54 767.841 545.976 767.95 534.522C767.864 509.913 768.436 485.306 768.504 460.695C768.535 449.326 769.174 437.812 768.102 426.485L746.507 426.487Q746.527 416.013 746.42 405.54C739.362 405.204 732.33 405.361 725.269 405.505L725.436 383.785C718.149 384.124 710.807 383.978 703.512 383.988C703.526 376.818 703.616 369.64 703.291 362.475Z"/>
	<path fill="#B29DED" transform="scale(0.407715 0.407715)" d="M298.537 362.52L326.393 362.474C331.375 362.468 336.56 362.178 341.511 362.669C334.495 363.393 327.096 362.972 320.032 362.991L320.046 384.11C312.879 383.989 305.723 383.829 298.558 384.099L298.479 405.03L277.503 405.047L277.485 426.375L256.012 426.53L255.986 533.499C249.21 533.743 241.739 534.217 235.023 533.364C231.17 531.863 218.748 533.346 213.99 533.486Q203.221 533.679 192.452 533.498L179.064 533.434C176.45 532.954 173.645 533.034 170.988 532.937C171.065 529.897 171.004 526.874 170.924 523.835Q170.905 517.894 170.98 511.954L170.729 511.433C170.186 504.699 170.513 497.763 170.539 491.003Q181.354 491.034 192.162 491.43Q192.256 480.662 192.091 469.894L192.304 469.732C199.407 468.89 206.491 469.237 213.621 469.44L213.595 447.953C213.498 440.806 213.607 433.643 213.616 426.494L234.511 426.542Q245.255 426.677 255.998 426.512C256.324 419.448 256.215 412.467 256.006 405.402C257.878 405.362 259.752 405.223 261.622 405.118C266.896 404.977 272.206 405.073 277.484 405.058L277.501 383.952L277.514 362.926C284.486 362.499 291.55 362.608 298.537 362.52Z"/>
	<path transform="scale(0.407715 0.407715)" d="M298.537 362.52L298.502 384.042C291.522 384.032 284.471 384.233 277.501 383.952L277.514 362.926C284.486 362.499 291.55 362.608 298.537 362.52Z"/>
	<path transform="scale(0.407715 0.407715)" d="M213.616 426.494L234.511 426.542L234.509 448.031C227.556 448.018 220.539 448.212 213.595 447.953C213.498 440.806 213.607 433.643 213.616 426.494Z"/>
	<path transform="scale(0.407715 0.407715)" d="M170.98 511.954L192.447 511.983L192.452 533.498L179.064 533.434C176.45 532.954 173.645 533.034 170.988 532.937C171.065 529.897 171.004 526.874 170.924 523.835Q170.905 517.894 170.98 511.954Z"/>
	<path fill="#FEFEFE" transform="scale(0.407715 0.407715)" d="M426.939 299.71C434.382 299.049 442.009 299.335 449.478 299.372L483.871 299.506L597.486 299.512L661.007 299.481C661.034 306.293 660.809 313.243 661.472 320.023C661.688 327.186 661.607 334.326 661.491 341.49Q671.976 341.336 682.458 341.616L682.894 341.829C683.275 348.72 683.119 355.599 683.011 362.495L703.291 362.475C703.616 369.64 703.526 376.818 703.512 383.988C710.807 383.978 718.149 384.124 725.436 383.785L725.269 405.505C732.33 405.361 739.362 405.204 746.42 405.54Q746.527 416.013 746.507 426.487L768.102 426.485C769.174 437.812 768.535 449.326 768.504 460.695C768.436 485.306 767.864 509.913 767.95 534.522Q757.199 534.423 746.453 534.086L746.494 556.019C739.493 555.973 732.482 555.408 725.495 555.452L725.483 576.014L703.484 576.012L703.499 597.002C696.497 597.017 689.472 597.171 682.486 596.626L682.466 618.085C675.641 618.549 668.825 618.518 661.987 618.49C661.93 625.03 661.949 631.581 661.784 638.118C654.343 638.097 623.056 638.977 618.33 637.686L618.1 637.948L597.156 638.01C597.291 644.379 597.516 650.756 597.281 657.125L596.886 658.233C593.473 659.395 561.876 658.53 554.885 658.935C543.455 659.759 532.139 659.118 520.707 659.015L469.51 659.024L469.484 638.746C455.291 637.828 440.735 638.529 426.499 638.545C419.572 638.028 412.43 638.395 405.486 638.46L405.692 638.102L405.095 637.91C391.066 638.578 377.041 638.429 363.002 638.366Q362.948 627.928 362.556 617.498L341.554 617.511L341.518 597.021L319.999 597.143L320.004 576.005L304.743 576.059C302.729 575.929 300.665 576.071 298.647 576.119C297.898 569.201 298.257 562.442 298.543 555.509C291.603 555.542 284.374 555.903 277.488 555.004L277.481 533.535L255.986 533.499L256.012 426.53L277.485 426.375L277.503 405.047L298.479 405.03L298.558 384.099C305.723 383.829 312.879 383.989 320.046 384.11L320.032 362.991C327.096 362.972 334.495 363.393 341.511 362.669L341.556 341.522L341.595 319.992L362.562 320L426.508 320Q426.457 309.903 426.594 299.808L426.939 299.71Z"/>
	<path transform="scale(0.407715 0.407715)" d="M384.423 597.476C391.141 597.478 397.872 597.404 404.588 597.568C404.536 604.239 404.398 610.874 404.988 617.527C398.138 617.401 391.279 617.434 384.427 617.404L384.423 597.476Z"/>
	<path transform="scale(0.407715 0.407715)" d="M619.186 384.022L640.121 384.007L640.009 405.101C633.159 404.742 626.33 404.82 619.478 405.029Q619.387 394.525 619.186 384.022Z"/>
	<path transform="scale(0.407715 0.407715)" d="M341.595 319.992L362.562 320L362.63 341.531Q352.093 341.738 341.556 341.522L341.595 319.992Z"/>
	<path transform="scale(0.407715 0.407715)" d="M554.902 341.364Q576.232 341.529 597.558 341.115L597.588 362.495L554.82 362.539C554.74 355.486 554.868 348.418 554.902 341.364Z"/>
	<path transform="scale(0.407715 0.407715)" d="M640.504 554.514L661.525 554.579C661.52 568.661 661.326 582.771 661.551 596.85L640.006 596.902C639.915 583.021 638.785 568.266 640.504 554.514Z"/>
	<path transform="scale(0.407715 0.407715)" d="M597.486 299.512L661.007 299.481C661.034 306.293 660.809 313.243 661.472 320.023L597.284 320.097C597.66 313.258 597.497 306.361 597.486 299.512Z"/>
	<path transform="scale(0.407715 0.407715)" d="M640.618 405.484Q651.304 405.621 661.991 405.592C662.22 424.173 662.459 442.696 661.874 461.273C661.711 463.855 661.574 466.418 661.565 469.008L640.499 469.048Q640.331 437.265 640.618 405.484Z"/>
	<path transform="scale(0.407715 0.407715)" d="M469.538 320.126C498.007 319.933 526.541 319.475 555.003 320.152L554.902 341.364C546.223 340.555 537.149 341.007 528.433 341.03C508.659 341.083 488.945 341.616 469.169 341.055C469.874 334.178 469.423 327.044 469.538 320.126Z"/>
	<path transform="scale(0.407715 0.407715)" d="M661.565 469.008C661.574 466.418 661.711 463.855 661.874 461.273C661.859 463.873 661.911 466.497 661.82 469.094Q672.412 469.111 683.003 468.986L683.011 554.562L661.525 554.579L640.504 554.514C641.199 547.452 640.975 540.567 640.476 533.513Q640.639 515.361 640.399 497.209C640.536 487.825 640.48 478.433 640.499 469.048L661.565 469.008Z"/>
	<path fill="#C82514" transform="scale(0.407715 0.407715)" d="M661.565 469.008C661.574 466.418 661.711 463.855 661.874 461.273C661.859 463.873 661.911 466.497 661.82 469.094C660.419 497.501 661.859 526.141 661.525 554.579L640.504 554.514C641.199 547.452 640.975 540.567 640.476 533.513Q640.639 515.361 640.399 497.209C640.536 487.825 640.48 478.433 640.499 469.048L661.565 469.008Z"/>
	<path transform="scale(0.407715 0.407715)" d="M404.694 362.495L426.978 362.494L427.02 383.956L404.735 383.906L404.581 405.514C398.261 405.482 390.213 404.555 384.073 405.846C383.75 427.25 384.055 448.608 383.979 470.009L383.966 533.609C383.53 540.713 382.893 548.022 384.26 555.058C385.07 562.412 385.131 590.594 384.046 597.147C376.956 595.941 369.303 596.473 362.132 596.495Q362.087 575.759 362.305 555.024L340.711 555.002L340.613 470.316C347.809 470.079 355.028 470.081 362.227 469.981C361.872 448.415 362.204 426.76 362.087 405.179C369.254 405.175 376.436 405.39 383.604 405.499C383.526 400.874 382.152 388.211 384.659 384.829C388.232 382.434 399.889 383.635 404.607 383.638Q404.542 373.066 404.694 362.495Z"/>
	<path fill="#830A1D" transform="scale(0.407715 0.407715)" d="M362.516 533.793C369.525 533.611 376.983 532.953 383.966 533.609C383.53 540.713 382.893 548.022 384.26 555.058C376.938 554.717 369.731 554.832 362.406 555.023L362.516 533.793Z"/>
	<path fill="#C82514" transform="scale(0.407715 0.407715)" d="M383.979 470.009L383.966 533.609C376.983 532.953 369.525 533.611 362.516 533.793Q362.689 501.875 362.331 469.958C369.538 470.115 376.769 470.002 383.979 470.009Z"/>
	<defs>
		<linearGradient id="gradient_1" gradientUnits="userSpaceOnUse" x1="508.32736" y1="335.35239" x2="534.85455" y2="486.30203">
			<stop offset="0" stop-color="#EA3A02"/>
			<stop offset="1" stop-color="#FA6001"/>
		</linearGradient>
	</defs>
	<path fill="url(#gradient_1)" transform="scale(0.407715 0.407715)" d="M469.169 341.055C488.945 341.616 508.659 341.083 528.433 341.03C537.149 341.007 546.223 340.555 554.902 341.364C554.868 348.418 554.74 355.486 554.82 362.539L597.588 362.495L618.796 362.563C618.649 369.399 618.329 376.294 618.778 383.123L619.186 384.022Q619.387 394.525 619.478 405.029C626.33 404.82 633.159 404.742 640.009 405.101L640.618 405.484Q640.331 437.265 640.499 469.048C640.48 478.433 640.536 487.825 640.399 497.209C639.109 488.259 640.039 478.053 640.114 469.007L619.026 468.996L618.938 462.403C619.148 450.508 619.781 438.435 618.67 426.579C611.556 426.368 604.414 426.574 597.297 426.666C596.695 419.577 597.047 412.4 597.225 405.299C590.186 404.9 583.036 405.109 575.995 405.395L575.991 383.498L555.02 383.496L554.997 370.014L469.462 370.006L469.432 383.986L440.98 383.993L440.995 398.003L426.94 398.002L426.966 418.438C424.976 418.559 422.263 418.443 420.778 420.042C419.304 421.63 419.336 424.616 419.175 426.65C414.51 426.038 409.598 426.366 404.896 426.401C404.826 422.456 406.206 409.348 403.788 406.756C402.084 404.931 388.003 406.295 384.544 405.905C384.387 405.888 384.23 405.866 384.073 405.846C390.213 404.555 398.261 405.482 404.581 405.514L404.735 383.906L427.02 383.956L426.978 362.494L426.822 341.424Q447.93 341.621 469.037 341.353L469.169 341.055Z"/>
	<path transform="scale(0.407715 0.407715)" d="M597.588 362.495L618.796 362.563C618.649 369.399 618.329 376.294 618.778 383.123L618.556 383.442C615.829 385.198 601.336 384.083 597.581 383.999L597.588 362.495Z"/>
	<path transform="scale(0.407715 0.407715)" d="M426.822 341.424Q447.93 341.621 469.037 341.353Q469.422 351.925 469.236 362.503L426.978 362.494L426.822 341.424Z"/>
	<path fill="#155954" transform="scale(0.407715 0.407715)" d="M469.462 370.006L554.997 370.014L555.02 383.496L575.991 383.498L575.995 405.395C583.036 405.109 590.186 404.9 597.225 405.299C597.047 412.4 596.695 419.577 597.297 426.666C604.414 426.574 611.556 426.368 618.67 426.579C619.781 438.435 619.148 450.508 618.938 462.403L619.026 468.996L640.114 469.007C640.039 478.053 639.109 488.259 640.399 497.209Q640.639 515.361 640.476 533.513C640.975 540.567 641.199 547.452 640.504 554.514C638.785 568.266 639.915 583.021 640.006 596.902L639.865 612.591L639.895 617.961C632.82 617.984 625.691 617.817 618.624 618.066L618.436 618.648C618.43 624.971 618.624 631.373 618.33 637.686L618.1 637.948L597.156 638.01C597.291 644.379 597.516 650.756 597.281 657.125L596.886 658.233C593.473 659.395 561.876 658.53 554.885 658.935C543.455 659.759 532.139 659.118 520.707 659.015L469.51 659.024L469.484 638.746C455.291 637.828 440.735 638.529 426.499 638.545C419.572 638.028 412.43 638.395 405.486 638.46L405.692 638.102L405.095 637.91L404.988 617.527C404.398 610.874 404.536 604.239 404.588 597.568C397.872 597.404 391.141 597.478 384.423 597.476L384.046 597.147C385.131 590.594 385.07 562.412 384.26 555.058C382.893 548.022 383.53 540.713 383.966 533.609L383.979 470.009C384.055 448.608 383.75 427.25 384.073 405.846C384.23 405.866 384.387 405.888 384.544 405.905C388.003 406.295 402.084 404.931 403.788 406.756C406.206 409.348 404.826 422.456 404.896 426.401C409.598 426.366 414.51 426.038 419.175 426.65C419.336 424.616 419.304 421.63 420.778 420.042C422.263 418.443 424.976 418.559 426.966 418.438L426.94 398.002L440.995 398.003L440.98 383.993L469.432 383.986L469.462 370.006Z"/>
	<path fill="#2CBC59" transform="scale(0.407715 0.407715)" d="M476.755 412.558L484.543 412.556C483.523 414.157 483.506 415.129 483.467 416.992L483.413 419.473L476.808 419.603C476.725 417.259 476.763 414.904 476.755 412.558Z"/>
	<path fill="#FED530" transform="scale(0.407715 0.407715)" d="M575.995 405.395C583.036 405.109 590.186 404.9 597.225 405.299C597.047 412.4 596.695 419.577 597.297 426.666C604.414 426.574 611.556 426.368 618.67 426.579C619.781 438.435 619.148 450.508 618.938 462.403L619.026 468.996L640.114 469.007C640.039 478.053 639.109 488.259 640.399 497.209Q640.639 515.361 640.476 533.513L619 533.504C618.911 540.486 619.063 547.527 618.741 554.498C611.682 554.471 604.561 554.252 597.509 554.519C597.355 547.327 597.445 540.115 597.43 532.92C599.309 532.985 601.548 533.319 603.319 532.624C604.448 531.247 604.285 529.485 604.38 527.786L604.509 447.932L596.89 447.965L596.987 426.992Q586.49 426.997 575.994 427.113L575.995 405.395Z"/>
	<path fill="#FCA51D" transform="scale(0.407715 0.407715)" d="M618.938 462.403L619.026 468.996L640.114 469.007C640.039 478.053 639.109 488.259 640.399 497.209Q640.639 515.361 640.476 533.513L619 533.504C618.911 540.486 619.063 547.527 618.741 554.498C611.682 554.471 604.561 554.252 597.509 554.519C597.355 547.327 597.445 540.115 597.43 532.92C599.309 532.985 601.548 533.319 603.319 532.624C604.448 531.247 604.285 529.485 604.38 527.786C604.423 529.478 604.541 531.071 604.807 532.744C608.724 534.253 614.752 533.446 618.984 533.349Q619.24 511.786 618.905 490.224C618.746 481.226 617.584 471.26 618.938 462.403Z"/>
	<path fill="#FED530" transform="scale(0.407715 0.407715)" d="M469.462 370.006L554.997 370.014L555.02 383.496L575.991 383.498L575.995 405.395Q565.456 405.534 554.917 405.499L554.967 391.336C547.799 391.415 540.626 391.561 533.47 391.023L533.494 384.51L491.345 384.488L491.168 391.015L469.906 391.088L469.968 405.516L448.034 405.427L448.037 412.451L441.546 412.406C441.514 417.357 441.563 422.322 441.403 427.27L427.144 427.423L427.249 448.067L420.172 448.427L420.131 532.563L427.1 532.493Q427.174 543.412 427.021 554.33Q434.247 554.481 441.475 554.451L441.487 568.949C443.384 568.976 445.449 568.779 447.133 569.753C448.036 571.111 447.988 572.184 448.071 573.743L448.169 575.506L469.442 575.505L469.428 596.597C497.737 596.562 526.209 595.94 554.501 596.777L554.419 575.973C561.795 576.228 569.116 576.657 576.473 575.882L576.501 569.126L583.06 568.962Q583.154 561.767 583.383 554.576L597.509 554.519L597.421 576.011L576.492 576.031Q576.559 586.565 576.379 597.098Q565.639 597.322 554.9 597.061C555.079 603.957 555.311 610.781 554.968 617.676C526.374 616.773 497.552 617.505 468.933 617.514C469.439 610.569 469.626 603.843 468.971 596.894C455.229 598.399 439.951 598.044 426.135 597.095C426.859 583.014 426.818 568.757 426.406 554.665C419.345 555.393 412.111 555.118 405.021 555.119C404.493 542.658 404.86 530.288 404.898 517.827L404.939 464.352C404.991 451.863 405.294 439.377 404.506 426.905C409.392 426.653 414.293 427.056 419.175 426.65C419.336 424.616 419.304 421.63 420.778 420.042C422.263 418.443 424.976 418.559 426.966 418.438L426.94 398.002L440.995 398.003L440.98 383.993L469.432 383.986L469.462 370.006Z"/>
	<path fill="#FC6B01" transform="scale(0.407715 0.407715)" d="M384.073 405.846C384.23 405.866 384.387 405.888 384.544 405.905C388.003 406.295 402.084 404.931 403.788 406.756C406.206 409.348 404.826 422.456 404.896 426.401C409.598 426.366 414.51 426.038 419.175 426.65C414.293 427.056 409.392 426.653 404.506 426.905C405.294 439.377 404.991 451.863 404.939 464.352L404.898 517.827C404.86 530.288 404.493 542.658 405.021 555.119C412.111 555.118 419.345 555.393 426.406 554.665C426.818 568.757 426.859 583.014 426.135 597.095C439.951 598.044 455.229 598.399 468.971 596.894C469.626 603.843 469.439 610.569 468.933 617.514C497.552 617.505 526.374 616.773 554.968 617.676C555.311 610.781 555.079 603.957 554.9 597.061Q565.639 597.322 576.379 597.098Q576.559 586.565 576.492 576.031L597.421 576.011L597.509 554.519C604.561 554.252 611.682 554.471 618.741 554.498C619.063 547.527 618.911 540.486 619 533.504L640.476 533.513C640.975 540.567 641.199 547.452 640.504 554.514C638.785 568.266 639.915 583.021 640.006 596.902L639.865 612.591L639.895 617.961C632.82 617.984 625.691 617.817 618.624 618.066L618.436 618.648C618.43 624.971 618.624 631.373 618.33 637.686L618.1 637.948L597.156 638.01C597.291 644.379 597.516 650.756 597.281 657.125L596.886 658.233C593.473 659.395 561.876 658.53 554.885 658.935C543.455 659.759 532.139 659.118 520.707 659.015L469.51 659.024L469.484 638.746C455.291 637.828 440.735 638.529 426.499 638.545C419.572 638.028 412.43 638.395 405.486 638.46L405.692 638.102L405.095 637.91L404.988 617.527C404.398 610.874 404.536 604.239 404.588 597.568C397.872 597.404 391.141 597.478 384.423 597.476L384.046 597.147C385.131 590.594 385.07 562.412 384.26 555.058C382.893 548.022 383.53 540.713 383.966 533.609L383.979 470.009C384.055 448.608 383.75 427.25 384.073 405.846Z"/>
	<path fill="#C82514" transform="scale(0.407715 0.407715)" d="M384.26 555.058C391.06 554.993 398.228 554.497 404.976 555.455C404.981 569.436 405.232 583.467 404.905 597.441L426.24 597.421Q426.063 607.547 426.128 617.675C419.064 617.075 412.064 617.325 404.988 617.527C404.398 610.874 404.536 604.239 404.588 597.568C397.872 597.404 391.141 597.478 384.423 597.476L384.046 597.147C385.131 590.594 385.07 562.412 384.26 555.058Z"/>
	<path fill="#C82514" transform="scale(0.407715 0.407715)" d="M618.932 554.507Q629.718 554.413 640.504 554.514C638.785 568.266 639.915 583.021 640.006 596.902L639.865 612.591L639.895 617.961C632.82 617.984 625.691 617.817 618.624 618.066L618.436 618.648C618.43 624.971 618.624 631.373 618.33 637.686L618.1 637.948L597.156 638.01C597.291 644.379 597.516 650.756 597.281 657.125L596.886 658.233C593.473 659.395 561.876 658.53 554.885 658.935C543.455 659.759 532.139 659.118 520.707 659.015L469.51 659.024L469.484 638.746C455.291 637.828 440.735 638.529 426.499 638.545C419.572 638.028 412.43 638.395 405.486 638.46L405.692 638.102L405.095 637.91L404.988 617.527C412.064 617.325 419.064 617.075 426.128 617.675C440.159 619.172 454.915 618.124 469.004 617.887Q468.912 628.21 469.185 638.529L555.002 638.468L554.988 617.98C562.141 618.138 569.317 618.024 576.472 618.027L576.483 597.387C590.514 596.891 604.596 597.103 618.636 597.114C619.506 582.978 618.612 568.681 618.932 554.507Z"/>
	<path transform="scale(0.407715 0.407715)" d="M404.988 617.527C412.064 617.325 419.064 617.075 426.128 617.675C426.578 624.435 426.979 631.497 425.939 638.222Q415.816 638.078 405.692 638.102L405.095 637.91L404.988 617.527Z"/>
	<path transform="scale(0.407715 0.407715)" d="M618.525 597.196C625.576 597.011 632.618 596.77 639.663 597.215Q639.612 604.905 639.865 612.591L639.895 617.961C632.82 617.984 625.691 617.817 618.624 618.066C617.943 611.158 618.349 604.123 618.525 597.196Z"/>
	<path transform="scale(0.407715 0.407715)" d="M597.246 618.035C603.61 617.883 612.372 616.689 618.436 618.648C618.43 624.971 618.624 631.373 618.33 637.686L618.1 637.948L597.156 638.01C597.291 644.379 597.516 650.756 597.281 657.125L596.886 658.233C593.473 659.395 561.876 658.53 554.885 658.935C555.206 652.117 555.061 645.301 554.97 638.479C569.004 638.477 583.049 637.956 597.101 637.985C597.014 631.343 597.186 624.678 597.246 618.035Z"/>
	<path fill="#2CBC59" transform="scale(0.407715 0.407715)" d="M490.861 404.991L533.45 405.014C533.287 409.827 533.052 414.65 533.065 419.465C537.701 419.277 550.357 417.554 553.952 420.5C555.048 422.327 555.012 424.357 555.184 426.432C559.771 426.432 564.377 426.343 568.961 426.513L568.972 440.992L575.972 441.003L576.021 454.92L589.987 454.946L590.118 526.057L575.905 526.09L575.948 540.521C573.809 540.703 571.662 540.936 569.519 541.053Q569.377 547.569 568.973 554.074L555.01 554.21L554.986 561.583L548.501 561.72L548.452 569L533.007 569.025L532.999 576.003L490.63 576L490.696 568.498L469.091 568.584L469.054 555.503L448.012 555.508L448.01 519.285L426.99 519.048L426.994 468.674L440.5 468.754L440.467 441.014L448.014 440.936L447.894 427.024L455.495 426.811L455.48 419.554C460.165 419.569 464.894 419.444 469.574 419.613L476.808 419.603L483.413 419.473L483.467 416.992C483.506 415.129 483.523 414.157 484.543 412.556L490.91 412.492L490.861 404.991Z"/>
	<path fill="#FEFEFE" transform="scale(0.407715 0.407715)" d="M490.91 412.492C498.06 412.491 505.218 412.561 512.367 412.469C512.355 419.618 512.071 426.863 512.296 434.003C512.062 448.254 511.745 462.617 512.302 476.86Q484.438 476.783 456.575 477.016L448.163 477.441L448.127 440.93L455.508 440.897L455.492 426.695C460.125 426.371 464.821 426.495 469.465 426.474L469.574 419.613L476.808 419.603L483.413 419.473L483.467 416.992C483.506 415.129 483.523 414.157 484.543 412.556L490.91 412.492Z"/>
	<path transform="scale(0.407715 0.407715)" d="M512.296 434.003Q522.652 433.822 533.01 433.819L533.014 440.998L554.158 441.033Q554.368 455.273 554.17 469.514L568.702 469.523L568.487 519.033C563.825 519.064 559.117 518.956 554.462 519.164C554.454 526.569 554.54 533.986 554.421 541.389L547.495 541.485L547.504 548.135C542.678 548.075 537.837 547.932 533.013 548.068L533.019 555.494C525.333 555.293 517.629 555.012 509.94 555.051C505.069 555.076 494.82 556.181 490.759 555.171C490.579 553.378 490.623 551.687 490.718 549.889C490.589 549.381 490.333 548.858 490.139 548.369C487.823 547.558 485.168 547.92 482.742 547.998L482.576 539.497L476.51 539.508L476.495 532.497L469.478 532.667L469.474 520.016L455.091 520.144L455.081 492.593C455.085 487.796 454.631 482.436 455.428 477.737L456.575 477.016Q484.438 476.783 512.302 476.86C511.745 462.617 512.062 448.254 512.296 434.003Z"/>
	<path fill="#238F70" transform="scale(0.407715 0.407715)" d="M482.576 539.497L490.987 539.505C490.969 542.936 491.12 546.484 490.718 549.889C490.589 549.381 490.333 548.858 490.139 548.369C487.823 547.558 485.168 547.92 482.742 547.998L482.576 539.497Z"/>
</svg>
