<?xml version="1.0" encoding="utf-8" ?>
<svg xmlns="http://www.w3.org/2000/svg" xmlns:xlink="http://www.w3.org/1999/xlink" width="217" height="217">
	<path transform="scale(0.212184 0.212184)" d="M781.076 248.97L782.286 249.362C783.423 256.01 782.643 266.101 782.432 273.054C779.955 269.437 781.506 254.18 781.076 248.97Z"/>
	<path transform="scale(0.212184 0.212184)" d="M251.655 895.958C252.132 895.695 252.943 895.329 253.361 894.942C253.469 894.842 254.143 894.099 254.221 893.861C255.273 890.629 254.489 882.693 254.466 879.023L254.355 842.499C254.34 834.478 253.727 825.605 255.201 817.709C256.27 831.442 255.513 845.77 255.52 859.565C255.527 871.324 256.34 883.745 255.322 895.403C254.179 896.13 252.958 895.968 251.655 895.958Z"/>
	<path transform="scale(0.212184 0.212184)" d="M407.549 400.559Q419.222 400.424 430.894 400.592Q431.115 411.799 431.027 423.007L407.55 423.533Q407.482 412.046 407.549 400.559Z"/>
	<path transform="scale(0.212184 0.212184)" d="M338.026 514.091L360.491 514.028C360.578 522.035 361.248 530.734 360.148 538.676C352.837 538.171 345.334 538.498 337.999 538.505C338.264 530.395 338.03 522.209 338.026 514.091Z"/>
	<path transform="scale(0.212184 0.212184)" d="M734.22 222.917C741.485 224.157 749.53 223.551 756.891 223.454C757.107 230.453 757.729 238.21 756.627 245.118L756.365 248.419C750.384 246.957 740.328 247.969 733.918 248.016L734.22 222.917ZM756.891 223.454C756.555 223.871 756.095 224.214 755.882 224.706C755.107 226.493 755.836 239.394 756.079 241.991Q756.242 243.574 756.627 245.118C757.729 238.21 757.107 230.453 756.891 223.454Z"/>
	<path transform="scale(0.212184 0.212184)" d="M756.891 223.454C757.107 230.453 757.729 238.21 756.627 245.118Q756.242 243.574 756.079 241.991C755.836 239.394 755.107 226.493 755.882 224.706C756.095 224.214 756.555 223.871 756.891 223.454Z"/>
	<path transform="scale(0.212184 0.212184)" d="M782.926 275.575Q793.193 275.182 803.459 275.611Q803.68 289.49 803.411 303.368C796.83 302.409 789.63 302.99 782.984 303.048L782.926 275.575Z"/>
	<path transform="scale(0.212184 0.212184)" d="M405.003 641.219C413.121 640.667 421.462 641.024 429.607 641.007C429.275 649.471 429.457 657.982 429.473 666.453L404.848 666.442C405.179 658.049 405.018 649.618 405.003 641.219Z"/>
	<path transform="scale(0.212184 0.212184)" d="M455.408 592.499Q467.94 592.737 480.474 592.592C480.442 600.852 480.521 609.128 480.352 617.385C474.67 617.411 459.369 618.377 454.577 617.094C456.471 609.628 455.492 600.147 455.408 592.499Z"/>
	<path transform="scale(0.212184 0.212184)" d="M344.038 200.526C352.134 199.801 360.224 199.786 368.264 201.11C369.12 209.482 368.031 217.622 368.605 225.893C360.378 225.741 352.114 225.942 343.884 225.978Q343.838 213.251 344.038 200.526Z"/>
	<path transform="scale(0.212184 0.212184)" d="M356.486 717.652L356.444 743.899C348.293 743.931 340.1 744.138 331.953 743.93L332.062 717.975C340.176 718.016 348.392 718.242 356.486 717.652Z"/>
	<path transform="scale(0.212184 0.212184)" d="M417.306 276.517Q433.165 276.948 449.029 276.928C449.005 284.116 447.964 295.947 449.57 302.565C438.986 301.553 428.263 301.925 417.653 302.251C417.038 293.64 417.518 285.124 417.306 276.517Z"/>
	<path transform="scale(0.212184 0.212184)" d="M704.546 192.065C714.366 192.316 724.726 191.262 734.446 192.496C734.488 202.494 735.145 212.971 734.22 222.917C727.01 221.579 712.574 222.619 704.672 222.684C704.612 212.472 705.042 202.271 704.546 192.065Z"/>
	<path transform="scale(0.212184 0.212184)" d="M505.27 544.003Q517.371 543.945 529.471 544.01C529.329 551.985 529.008 559.966 528.975 567.941C521.117 567.972 513.241 568.124 505.385 568.032C505.315 576.214 505.438 584.448 505.126 592.622Q492.8 592.356 480.474 592.592C480.821 584.549 480.863 576.528 480.847 568.478C485.971 568.616 499.547 570.116 503.578 567.847C504.293 566.979 504.635 566.232 504.741 565.096C504.988 562.446 504.576 559.612 504.555 556.942C504.52 552.602 504.863 548.32 505.27 544.003Z"/>
	<path transform="scale(0.212184 0.212184)" d="M381.032 666.529C388.888 666.385 396.707 666.318 404.561 666.564L404.558 690.858L381.91 690.882L381.966 717.426C373.601 717.425 365.208 717.581 356.847 717.418C357.246 708.634 357.029 699.779 357.03 690.985Q369.296 690.899 381.558 690.596C381.153 682.549 380.982 674.587 381.032 666.529Z"/>
	<path transform="scale(0.212184 0.212184)" d="M360.506 448.95Q372.196 449.077 383.886 448.918C384.175 470.637 383.817 492.295 383.564 514.006L360.491 514.028L360.506 448.95Z"/>
	<path transform="scale(0.212184 0.212184)" d="M807.014 610.559C815.514 610.39 823.994 610.63 832.488 610.568Q832.153 629.295 832.277 648.025C832.353 657.132 832.869 666.341 832.164 675.43Q819.377 675.534 806.589 675.444C806.484 653.835 806.766 632.169 807.014 610.559Z"/>
	<path transform="scale(0.212184 0.212184)" d="M128.172 928.073C140.651 928.862 153.293 928.556 165.794 928.517C174.337 928.49 183.25 928.905 191.755 928.134C192.821 935.859 191.948 948.844 191.944 957.085Q159.989 957.724 128.033 957.148Q127.984 942.61 128.172 928.073Z"/>
	<path transform="scale(0.212184 0.212184)" d="M863.923 386.052C874.253 386.042 884.619 385.863 894.945 386.06L895.023 448.765C885.128 447.379 874.009 448.456 863.997 448.487L864.107 418.347Q864.328 402.198 863.923 386.052Z"/>
	<path transform="scale(0.212184 0.212184)" d="M895.941 741.582C904.865 741.56 918.226 740.329 926.583 741.935C925.668 748.847 926.137 756.037 926.228 762.997L926.469 791.296C926.496 796.707 926.823 802.385 926.007 807.744C915.889 808.424 905.258 808.499 895.159 807.554C896.39 801.185 895.567 793.32 895.578 786.749C895.602 771.688 895.448 756.637 895.941 741.582Z"/>
	<path transform="scale(0.212184 0.212184)" d="M479.882 96.9373C511.9 97.0311 543.979 97.5187 575.991 97.0201C576.093 107.419 576.457 117.959 575.718 128.334C568.086 127.235 559.806 127.9 552.103 127.942L512.055 128.053C501.369 127.945 490.683 128.154 479.996 128.093L479.882 96.9373Z"/>
	<path transform="scale(0.212184 0.212184)" d="M450.309 302.761C460.197 302.529 470.124 302.919 480.016 303.016C479.074 320.081 478.073 337.476 480.013 354.51L479.992 385.73L479.926 385.973Q464.47 385.366 449.002 385.402L449.026 401.034Q439.963 400.7 430.894 400.592C429.5 390.323 430.53 377.531 430.578 367.024C437.22 366.936 443.87 367.002 450.513 367.002C450.183 345.595 450.828 324.166 450.309 302.761Z"/>
	<path transform="scale(0.212184 0.212184)" d="M229.527 96.483C259.383 96.4966 289.379 95.623 319.216 96.3517C320.644 106.393 319.452 117.305 319.572 127.468Q312.853 126.641 306.084 126.545Q299.316 126.449 292.576 127.085C292.551 134.881 292.33 142.733 292.602 150.522C283.341 150.354 273.886 150.048 264.653 150.875L264.606 126.96C252.948 126.282 241.167 126.707 229.495 126.976L229.527 96.483Z"/>
	<path transform="scale(0.212184 0.212184)" d="M69.5617 791.03L96.9855 791.011C97.761 817.123 97.372 843.363 97.4181 869.49L127.997 869.513L128.006 927.634C117.584 927.117 106.967 927.413 96.5452 927.866L96.565 895.926Q83.1601 895.85 69.7553 895.963Q69.2799 843.496 69.5617 791.03Z"/>
	<path transform="scale(0.212184 0.212184)" d="M319.6 65.5812L433.454 66.2021C448.808 66.199 464.269 65.4089 479.602 65.673C479.726 75.996 479.834 86.2822 479.43 96.5997C471.197 96.1232 462.853 96.3638 454.604 96.353C443.14 95.6229 431.41 96.0506 419.914 96.0809L365.64 96.1385L336.584 95.9978C331.06 95.9672 325.081 95.5373 319.624 96.387Q319.505 80.9838 319.6 65.5812Z"/>
	<path transform="scale(0.212184 0.212184)" d="M281.599 791.295L281.642 816.86C277.845 816.856 256.645 816.273 255.28 817.579C255.243 817.614 255.228 817.665 255.201 817.709C253.727 825.605 254.34 834.478 254.355 842.499L254.466 879.023C254.489 882.693 255.273 890.629 254.221 893.861C254.143 894.099 253.469 894.842 253.361 894.942C252.943 895.329 252.132 895.695 251.655 895.958Q237.708 895.845 223.761 895.937Q224.049 911.685 223.969 927.436C213.323 927.448 202.636 927.268 192 927.748L191.986 870.016L224.034 869.977C224.168 852.423 224.818 834.585 223.979 817.061C234.493 816.51 244.919 816.45 255.444 816.74C255.451 808.502 255.245 800.197 255.638 791.97C264.031 791.91 273.34 792.9 281.599 791.295Z"/>
	<path transform="scale(0.212184 0.212184)" d="M806.056 808.074L831.985 808.059C832.333 826.058 831.52 844.034 831.948 862.009L806.085 862.037Q805.178 878.791 805.514 895.566C809.606 895.883 830.513 895.026 832.441 896.113C832.263 906.287 832.447 916.507 832.453 926.684Q818.542 926.819 804.632 926.659C804.468 936.58 804.627 946.526 804.643 956.45L775.474 956.497L775.587 861.575L806.048 861.542L806.056 808.074Z"/>
	<defs>
		<linearGradient id="gradient_0" gradientUnits="userSpaceOnUse" x1="415.58145" y1="683.58789" x2="269.60089" y2="723.75781">
			<stop offset="0" stop-color="#1E1B1B"/>
			<stop offset="1" stop-color="#101E1F"/>
		</linearGradient>
	</defs>
	<path fill="url(#gradient_0)" transform="scale(0.212184 0.212184)" d="M404.768 640.572L405.003 641.219C405.018 649.618 405.179 658.049 404.848 666.442L404.561 666.564C396.707 666.318 388.888 666.385 381.032 666.529C380.982 674.587 381.153 682.549 381.558 690.596Q369.296 690.899 357.03 690.985C357.029 699.779 357.246 708.634 356.847 717.418L356.486 717.652C348.392 718.242 340.176 718.016 332.062 717.975L331.953 743.93L306.033 744.023L306.07 767.901Q293.508 768.108 280.944 767.998Q281.163 746.687 280.512 725.384C288.799 725.492 297.108 725.592 305.377 724.979Q305.535 717.2 305.415 709.42C308.934 708.951 312.494 709.026 316.038 709.001C315.938 702.614 315.472 695.772 316.35 689.453C323.892 689.621 331.465 689.493 339.011 689.501L338.995 670.013L354.999 670Q355.677 658.521 355.416 647.024C363.299 646.94 371.105 646.953 378.975 646.374L379.376 640.993C384.217 641.043 401.398 642.107 404.768 640.572Z"/>
	<path transform="scale(0.212184 0.212184)" d="M189.005 736.086C196.782 736.817 204.564 736.329 212.348 735.968L212.56 736.406C217.788 736.424 245.346 735.05 247.947 737.27L248.586 739.533L254.481 739.487L254.49 768.519C263.31 768.501 272.136 767.903 280.944 767.998Q293.508 768.108 306.07 767.901L306.033 744.023L331.953 743.93L331.959 767.87L306.053 767.886C306.883 774.797 307.262 783.653 306.208 790.538C302.011 792.775 286.837 791.383 281.599 791.295C273.34 792.9 264.031 791.91 255.638 791.97C255.245 800.197 255.451 808.502 255.444 816.74C244.919 816.45 234.493 816.51 223.979 817.061C213.76 813.978 202.653 818.407 192.396 816.057L192.02 815.971Q191.969 803.735 192.3 791.504L127.883 791.076C128.234 782.085 128.021 773.016 128.05 764.015C137.438 763.903 153.263 765.713 161.878 763.671L162.253 762.593C161.763 753.757 161.984 744.862 162.022 736.015L189.005 736.086ZM306.208 790.538C307.262 783.653 306.883 774.797 306.053 767.886C305.374 774.921 304.229 783.697 306.208 790.538Z"/>
	<path transform="scale(0.212184 0.212184)" d="M306.208 790.538C304.229 783.697 305.374 774.921 306.053 767.886C306.883 774.797 307.262 783.653 306.208 790.538Z"/>
	<path fill="#161919" transform="scale(0.212184 0.212184)" d="M255.011 778.981C263.826 779.16 272.648 779.426 281.464 779.512C281.486 783.412 281.323 787.409 281.599 791.295C273.34 792.9 264.031 791.91 255.638 791.97C255.628 791.055 255.476 790.225 255.326 789.324C254.791 785.985 255.019 782.366 255.011 778.981Z"/>
	<path fill="#FBD65F" transform="scale(0.212184 0.212184)" d="M212.56 736.406C217.788 736.424 245.346 735.05 247.947 737.27L248.586 739.533C248.157 747.66 248.431 755.803 248.038 763.928L212.563 763.908C212.036 754.636 212.037 745.679 212.56 736.406Z"/>
	<path fill="#DF1414" transform="scale(0.212184 0.212184)" d="M189.005 736.086C196.782 736.817 204.564 736.329 212.348 735.968L212.56 736.406C212.037 745.679 212.036 754.636 212.563 763.908L162.432 763.991L162.253 762.593C161.763 753.757 161.984 744.862 162.022 736.015L189.005 736.086Z"/>
	<path fill="#2B3B39" transform="scale(0.212184 0.212184)" d="M162.253 762.593L162.432 763.991L163.034 771.014C176.479 771.026 189.95 771.187 203.392 770.958C220.564 770.666 237.7 769.947 254.881 770.012L255.011 778.981C255.019 782.366 254.791 785.985 255.326 789.324C255.476 790.225 255.628 791.055 255.638 791.97C255.245 800.197 255.451 808.502 255.444 816.74C244.919 816.45 234.493 816.51 223.979 817.061C213.76 813.978 202.653 818.407 192.396 816.057L192.02 815.971Q191.969 803.735 192.3 791.504L127.883 791.076C128.234 782.085 128.021 773.016 128.05 764.015C137.438 763.903 153.263 765.713 161.878 763.671L162.253 762.593Z"/>
	<defs>
		<linearGradient id="gradient_1" gradientUnits="userSpaceOnUse" x1="196.99309" y1="795.6637" x2="254.80716" y2="812.97412">
			<stop offset="0" stop-color="#0B0704"/>
			<stop offset="1" stop-color="#1A2122"/>
		</linearGradient>
	</defs>
	<path fill="url(#gradient_1)" transform="scale(0.212184 0.212184)" d="M255.326 789.324C255.476 790.225 255.628 791.055 255.638 791.97C255.245 800.197 255.451 808.502 255.444 816.74C244.919 816.45 234.493 816.51 223.979 817.061C213.76 813.978 202.653 818.407 192.396 816.057C192.195 813.431 192.396 810.696 192.437 808.06Q216.277 808.156 240.114 807.784L240.018 792.012C243.693 791.964 251.382 793.163 254.497 791.503C255.222 791.116 255.162 790.069 255.326 789.324Z"/>
	<path fill="#161919" transform="scale(0.212184 0.212184)" d="M864.028 704.081Q895.974 703.879 927.92 704.025C928.042 716.273 929.274 729.946 927.029 741.972L926.583 741.935C918.226 740.329 904.865 741.56 895.941 741.582C895.448 756.637 895.602 771.688 895.578 786.749C895.567 793.32 896.39 801.185 895.159 807.554L894.97 808.15C894.717 828.757 894.449 849.464 894.812 870.067L863.473 870.011C863.44 878.527 863.519 887.058 863.361 895.571C853.073 895.854 842.797 895.501 832.526 895.742L832.441 896.113C830.513 895.026 809.606 895.883 805.514 895.566Q805.178 878.791 806.085 862.037L831.948 862.009C831.52 844.034 832.333 826.058 831.985 808.059L832.285 806.637L832.78 807.609C843.073 807.925 853.245 807.328 863.568 808.067C862.883 793.91 863.637 780.115 863.918 765.977C864.141 754.795 863.871 743.577 863.882 732.389C863.891 722.95 864.234 713.521 864.028 704.081Z"/>
	<path transform="scale(0.212184 0.212184)" d="M864.092 807.985C874.279 808.048 884.841 807.329 894.97 808.15C894.717 828.757 894.449 849.464 894.812 870.067L863.473 870.011C863.44 878.527 863.519 887.058 863.361 895.571C853.073 895.854 842.797 895.501 832.526 895.742C832.386 886.216 833.068 876.588 833.051 867.028C843.197 868.835 853.805 866.941 863.953 868.511C864.381 848.367 864.054 828.14 864.092 807.985Z"/>
	<path fill="#F9830C" transform="scale(0.212184 0.212184)" d="M127.883 791.076L192.3 791.504Q191.969 803.735 192.02 815.971L192.396 816.057C202.653 818.407 213.76 813.978 223.979 817.061C224.818 834.585 224.168 852.423 224.034 869.977L191.986 870.016L192 927.748L191.755 928.134C183.25 928.905 174.337 928.49 165.794 928.517C153.293 928.556 140.651 928.862 128.172 928.073L128.006 927.634L127.997 869.513L97.4181 869.49C97.372 843.363 97.761 817.123 96.9855 791.011L127.883 791.076Z"/>
	<path fill="#FBD65F" transform="scale(0.212184 0.212184)" d="M127.883 791.076L192.3 791.504Q191.969 803.735 192.02 815.971L191.993 840.498L127.985 840.488L127.997 869.513L97.4181 869.49C97.372 843.363 97.761 817.123 96.9855 791.011L127.883 791.076Z"/>
	<path transform="scale(0.212184 0.212184)" d="M927.57 513.171C936.975 514.739 947.225 513.112 956.798 513.861Q956.477 562.175 956.666 610.489L956.649 742.093C946.78 742.092 936.894 742.215 927.029 741.972C929.274 729.946 928.042 716.273 927.92 704.025Q895.974 703.879 864.028 704.081C864.234 713.521 863.891 722.95 863.882 732.389C863.871 743.577 864.141 754.795 863.918 765.977C863.637 780.115 862.883 793.91 863.568 808.067C853.245 807.328 843.073 807.925 832.78 807.609L832.285 806.637C831.21 795.996 832.346 784.84 832.196 774.125C831.736 741.226 832.361 708.419 832.419 675.528C842.558 676.467 853.778 675.863 863.958 675.437L863.948 633.801C863.948 626.426 863.472 618.678 864.304 611.365C874.708 612.026 885.242 611.889 895.668 611.942Q895.27 645.715 895.945 679.483L927.487 679.482C927.492 634.732 926.662 589.8 927.659 545.067C928.332 534.548 928.191 523.689 927.57 513.171Z"/>
	<path transform="scale(0.212184 0.212184)" d="M337.999 538.505L338.049 560.741Q325.792 561.087 313.545 560.48Q313.447 570.957 312.961 581.424C310.409 581.487 307.737 581.378 305.232 581.896L300.13 582.044L300.037 609.347C289.2 608.091 277.444 608.992 266.497 609.043C266.502 616.367 266.594 623.703 266.479 631.026C266.267 633.888 265.956 636.787 265.897 639.655L275.38 639.505L275.228 671C285.888 670.971 297.665 670.041 308.206 671.194C308.492 673.04 308.59 674.792 308.589 676.659C308.771 674.609 308.923 672.593 308.936 670.535L316.617 670.413C316.646 676.771 316.628 683.1 316.35 689.453C315.472 695.772 315.938 702.614 316.038 709.001C312.494 709.026 308.934 708.951 305.415 709.42Q305.535 717.2 305.377 724.979C297.108 725.592 288.799 725.492 280.512 725.384Q281.163 746.687 280.944 767.998C272.136 767.903 263.31 768.501 254.49 768.519L254.481 739.487L248.586 739.533L247.947 737.27C245.346 735.05 217.788 736.424 212.56 736.406L212.348 735.968C204.564 736.329 196.782 736.817 189.005 736.086L162.022 736.015C161.984 744.862 161.763 753.757 162.253 762.593L161.878 763.671C153.263 765.713 137.438 763.903 128.05 764.015C128.021 773.016 128.234 782.085 127.883 791.076L96.9855 791.011C96.4804 781.724 96.621 772.412 96.6503 763.115L128.181 763.139Q127.969 747.125 128.099 731.11C135.895 731.264 143.716 730.877 151.502 731.28L151.556 704.122L172.058 704.086Q172.01 691.334 172.094 678.583L193.097 678.614L193.114 659.506L217.427 659.511L217.346 638.729L241.08 638.963L241.174 609.019L266.277 609.017Q266.054 596.1 266.081 583.181Q277.357 583.112 288.633 583.176C288.529 575.496 288.613 567.805 288.607 560.125C297.084 560.024 305.571 560.115 314.05 560.121L314.032 538.57L337.999 538.505Z"/>
	<path fill="#FBD65F" transform="scale(0.212184 0.212184)" d="M206.46 703.981L212.305 704.005C212.009 714.441 211.012 725.629 212.348 735.968C204.564 736.329 196.782 736.817 189.005 736.086L189.008 704.456Q197.731 704.117 206.46 703.981Z"/>
	<path fill="#2B3B39" transform="scale(0.212184 0.212184)" d="M240.944 639.491L265.897 639.655L275.38 639.505L275.228 671C285.888 670.971 297.665 670.041 308.206 671.194C308.492 673.04 308.59 674.792 308.589 676.659C308.771 674.609 308.923 672.593 308.936 670.535L316.617 670.413C316.646 676.771 316.628 683.1 316.35 689.453C315.472 695.772 315.938 702.614 316.038 709.001C312.494 709.026 308.934 708.951 305.415 709.42Q305.535 717.2 305.377 724.979C297.108 725.592 288.799 725.492 280.512 725.384Q281.163 746.687 280.944 767.998C272.136 767.903 263.31 768.501 254.49 768.519L254.481 739.487L248.586 739.533L247.947 737.27C245.346 735.05 217.788 736.424 212.56 736.406L212.348 735.968C211.012 725.629 212.009 714.441 212.305 704.005L206.46 703.981Q206.571 687.244 206.275 670.51L240.6 670.114Q240.967 654.805 240.944 639.491Z"/>
	<path transform="scale(0.212184 0.212184)" d="M308.936 670.535L316.617 670.413C316.646 676.771 316.628 683.1 316.35 689.453C315.472 695.772 315.938 702.614 316.038 709.001C312.494 709.026 308.934 708.951 305.415 709.42C283.849 710.857 262.104 710.147 240.501 710.008L240.516 702.998Q257.989 703.176 275.462 703.002C286.333 702.876 297.807 704.416 308.533 702.346C308.802 693.814 308.469 685.207 308.589 676.659C308.771 674.609 308.923 672.593 308.936 670.535Z"/>
	<path fill="#DF1414" transform="scale(0.212184 0.212184)" d="M240.699 670.561C247.128 672.17 267.468 671.282 275.095 671.096C274.992 681.562 274.237 692.612 275.462 703.002Q257.989 703.176 240.516 702.998C240.358 692.099 240.013 681.46 240.699 670.561Z"/>
	<path fill="#FBD65F" transform="scale(0.212184 0.212184)" d="M240.944 639.491L265.897 639.655L275.38 639.505L275.228 671C285.888 670.971 297.665 670.041 308.206 671.194C308.492 673.04 308.59 674.792 308.589 676.659C308.469 685.207 308.802 693.814 308.533 702.346C297.807 704.416 286.333 702.876 275.462 703.002C274.237 692.612 274.992 681.562 275.095 671.096C267.468 671.282 247.128 672.17 240.699 670.561L240.6 670.114Q240.967 654.805 240.944 639.491Z"/>
	<path fill="#DF1414" transform="scale(0.212184 0.212184)" d="M704.548 303.933Q720.276 304.065 736.004 303.999L736.003 335.14L803.035 335.109C802.276 352.07 802.45 369.035 802.541 386.008L832.022 385.986L832.014 418.132Q848.06 418.394 864.107 418.347L863.997 448.487C874.009 448.456 885.128 447.379 895.023 448.765L895.881 449.066L927.32 449.05Q927.491 469.664 927.383 490.279C927.362 497.903 927.021 505.562 927.57 513.171C928.191 523.689 928.332 534.548 927.659 545.067C926.662 589.8 927.492 634.732 927.487 679.482L895.945 679.483Q895.27 645.715 895.668 611.942C885.242 611.889 874.708 612.026 864.304 611.365L864.056 611.162Q848.376 610.948 832.7 610.555C833.273 597.175 832.874 583.695 832.577 570.31C832.398 562.247 831.478 553.302 832.854 545.378L832.706 544.162C832.095 532.75 832.55 521.192 832.564 509.761L832.608 448.998L806.623 448.948L802.072 448.495C800.942 442.142 801.984 426.545 802.007 419.01Q794.79 418.827 787.571 418.901C781.165 418.303 774.483 418.57 768.04 418.5L768.012 386.009L736.309 385.789C735.882 379.38 736.022 372.929 736.023 366.509Q723.399 366.084 710.768 366.106L704.508 366.042C704.443 360.307 706.423 339.532 703.687 335.721C706.298 332.035 704.628 309.801 704.548 303.933Z"/>
	<path transform="scale(0.212184 0.212184)" d="M832.854 545.378Q848.36 545.613 863.868 545.51C863.67 567.395 863.242 589.286 864.056 611.162Q848.376 610.948 832.7 610.555C833.273 597.175 832.874 583.695 832.577 570.31C832.398 562.247 831.478 553.302 832.854 545.378Z"/>
	<path fill="#FBD65F" transform="scale(0.212184 0.212184)" d="M863.997 448.487C874.009 448.456 885.128 447.379 895.023 448.765L895.881 449.066L927.32 449.05Q927.491 469.664 927.383 490.279C927.362 497.903 927.021 505.562 927.57 513.171C928.191 523.689 928.332 534.548 927.659 545.067C916.951 545.54 906.149 545.306 895.431 545.208C894.84 534.737 894.594 524.124 895.583 513.672C885.018 513.807 874.489 514.027 863.928 513.571C863.014 505.404 863.528 496.808 863.612 488.59L863.997 448.487Z"/>
	<path transform="scale(0.212184 0.212184)" d="M895.881 449.066L927.32 449.05Q927.491 469.664 927.383 490.279C927.362 497.903 927.021 505.562 927.57 513.171C917.401 512.042 906.243 512.723 896.025 513.259C895.329 491.923 896.108 470.43 895.881 449.066Z"/>
	<path fill="#FBD65F" transform="scale(0.212184 0.212184)" d="M512.055 128.053L552.103 127.942C559.806 127.9 568.086 127.235 575.718 128.334L576.435 128.917C597.423 130.392 618.894 128.979 639.948 129.097C639.956 139.682 640.071 150.28 639.96 160.864L640.397 161.146C661.562 161.755 682.813 161.479 703.989 161.526C703.761 171.543 702.509 182.196 704.546 192.065C705.042 202.271 704.612 212.472 704.672 222.684C712.574 222.619 727.01 221.579 734.22 222.917L733.918 248.016C740.328 247.969 750.384 246.957 756.365 248.419L757.095 248.823C764.944 248.745 773.297 248.121 781.076 248.97C781.506 254.18 779.955 269.437 782.432 273.054L782.577 275.537L782.926 275.575L782.984 303.048C789.63 302.99 796.83 302.409 803.411 303.368C812.85 304.131 822.495 303.84 831.96 303.867L831.983 329.096C842.472 329.094 852.973 328.993 863.461 329.1C863.535 348.034 863.065 367.08 863.595 385.998L863.923 386.052Q864.328 402.198 864.107 418.347Q848.06 418.394 832.014 418.132L832.022 385.986L802.541 386.008C802.45 369.035 802.276 352.07 803.035 335.109L736.003 335.14L736.004 303.999Q720.276 304.065 704.548 303.933C704.628 309.801 706.298 332.035 703.687 335.721C694.928 335.28 680.741 334.671 672.279 335.663L671.535 335.233C661.287 333.967 650.767 334.699 640.468 335.019C640.518 324.831 641.081 314.288 640.214 304.142L639.521 303.683C641.071 300.77 640.055 280.436 640 275.577Q656.058 275.273 672.112 275.712C672.806 269.164 672.479 262.482 672.409 255.909L672.698 255.196C670.64 248.696 672.195 231.621 672.413 224.014L639.996 224.022L640.008 191.64C631.256 192.672 621.869 192.038 613.058 192.034C600.773 192.029 588.285 192.46 576.023 191.728C575.804 181.349 575.187 171.457 576.355 161.06C568.491 159.799 560.191 160.863 552.253 160.953L512 161.089L512.055 128.053Z"/>
	<path transform="scale(0.212184 0.212184)" d="M757.095 248.823C764.944 248.745 773.297 248.121 781.076 248.97C781.506 254.18 779.955 269.437 782.432 273.054L782.577 275.537C774.13 275.348 765.755 275.346 757.308 275.497C756.955 266.693 758.17 257.545 757.095 248.823Z"/>
	<path transform="scale(0.212184 0.212184)" d="M640.397 161.146C661.562 161.755 682.813 161.479 703.989 161.526C703.761 171.543 702.509 182.196 704.546 192.065C683.145 191.512 661.672 193.352 640.287 191.559C640.815 181.453 640.511 171.262 640.397 161.146Z"/>
	<path transform="scale(0.212184 0.212184)" d="M576.435 128.917C597.423 130.392 618.894 128.979 639.948 129.097C639.956 139.682 640.071 150.28 639.96 160.864C633.915 159.476 624.752 160.393 618.315 160.413Q597.312 160.281 576.313 160.67C575.429 150.151 576.101 139.456 576.435 128.917Z"/>
	<path transform="scale(0.212184 0.212184)" d="M803.411 303.368C812.85 304.131 822.495 303.84 831.96 303.867L831.983 329.096C842.472 329.094 852.973 328.993 863.461 329.1C863.535 348.034 863.065 367.08 863.595 385.998C853.063 386.137 842.756 386.592 832.229 385.698C833.054 368.888 832.307 351.77 832.208 334.936C822.603 334.728 812.954 334.966 803.345 335.012C803.429 324.472 803.676 313.905 803.411 303.368Z"/>
	<path fill="#F9830C" transform="scale(0.212184 0.212184)" d="M672.698 255.196C683.031 254.474 693.623 255.109 703.997 254.985L703.988 276.011C703.951 285.001 703.472 294.276 704.17 303.232L704.548 303.933C704.628 309.801 706.298 332.035 703.687 335.721C694.928 335.28 680.741 334.671 672.279 335.663L671.535 335.233C661.287 333.967 650.767 334.699 640.468 335.019C640.518 324.831 641.081 314.288 640.214 304.142L639.521 303.683C641.071 300.77 640.055 280.436 640 275.577Q656.058 275.273 672.112 275.712C672.806 269.164 672.479 262.482 672.409 255.909L672.698 255.196Z"/>
	<path transform="scale(0.212184 0.212184)" d="M672.607 276.091Q688.297 275.916 703.988 276.011C703.951 285.001 703.472 294.276 704.17 303.232C693.896 303.682 682.88 304.27 672.654 303.066C673.157 294.099 672.814 285.064 672.607 276.091Z"/>
	<path transform="scale(0.212184 0.212184)" d="M640.214 304.142C644.587 301.85 666.627 303.434 672.084 303.589C672.137 308.892 673.343 331.758 671.535 335.233C661.287 333.967 650.767 334.699 640.468 335.019C640.518 324.831 641.081 314.288 640.214 304.142Z"/>
	<path fill="#2B3B39" transform="scale(0.212184 0.212184)" d="M449.002 385.402Q464.47 385.366 479.926 385.973C480.338 390.678 480.497 395.298 480.524 400.018C490.878 400.649 502.212 401.339 512.497 399.921L512.454 418.506C522.532 418.527 532.652 418.373 542.725 418.584L543.998 418.482L543.999 449.007L544.015 490.017L512.519 490.012C512.517 499.83 512.684 509.683 512.3 519.494Q496.664 520.2 481.014 519.995C480.983 528.173 480.531 536.345 480.496 544.512L451.026 544.491L451.007 569.827L428.028 569.497L428.018 593.518L417.35 593.504L417.035 617.01L404.769 617.005C404.955 624.833 405.271 632.75 404.768 640.572C401.398 642.107 384.217 641.043 379.376 640.993L378.975 646.374C371.105 646.953 363.299 646.94 355.416 647.024Q355.677 658.521 354.999 670L338.995 670.013L339.011 689.501C331.465 689.493 323.892 689.621 316.35 689.453C316.628 683.1 316.646 676.771 316.617 670.413L308.936 670.535C308.923 672.593 308.771 674.609 308.589 676.659C308.59 674.792 308.492 673.04 308.206 671.194C297.665 670.041 285.888 670.971 275.228 671L275.38 639.505L265.897 639.655C265.956 636.787 266.267 633.888 266.479 631.026C266.594 623.703 266.502 616.367 266.497 609.043C277.444 608.992 289.2 608.091 300.037 609.347L300.13 582.044L305.232 581.896C307.737 581.378 310.409 581.487 312.961 581.424Q313.447 570.957 313.545 560.48Q325.792 561.087 338.049 560.741L337.999 538.505C345.334 538.498 352.837 538.171 360.148 538.676C361.248 530.734 360.578 522.035 360.491 514.028L383.564 514.006C383.817 492.295 384.175 470.637 383.886 448.918L384.069 448.565C383.96 440.258 384.064 431.937 384.068 423.629Q395.81 423.739 407.55 423.533L431.027 423.007Q431.115 411.799 430.894 400.592Q439.963 400.7 449.026 401.034L449.002 385.402Z"/>
	<path fill="#161919" transform="scale(0.212184 0.212184)" d="M360.148 538.676C354.265 540.136 344.68 539.093 338.464 539.002L338.473 581.478L312.961 581.424Q313.447 570.957 313.545 560.48Q325.792 561.087 338.049 560.741L337.999 538.505C345.334 538.498 352.837 538.171 360.148 538.676Z"/>
	<path transform="scale(0.212184 0.212184)" d="M407.55 423.533Q407.822 435.799 407.959 448.068Q396.01 448.143 384.069 448.565C383.96 440.258 384.064 431.937 384.068 423.629Q395.81 423.739 407.55 423.533Z"/>
	<path fill="#161919" transform="scale(0.212184 0.212184)" d="M543.998 418.482L543.999 449.007L512.424 448.989Q512.235 433.893 512.462 418.798C521.331 419.231 534.191 420.026 542.725 418.584L543.998 418.482Z"/>
	<path fill="#2B3B39" transform="scale(0.212184 0.212184)" d="M305.232 581.896L340.56 581.991L340.447 609.489L373 609.566L372.992 618.983L378.976 618.999C379.221 626.309 379.655 633.683 379.376 640.993L378.975 646.374C371.105 646.953 363.299 646.94 355.416 647.024Q355.677 658.521 354.999 670L338.995 670.013L339.011 689.501C331.465 689.493 323.892 689.621 316.35 689.453C316.628 683.1 316.646 676.771 316.617 670.413L308.936 670.535C308.923 672.593 308.771 674.609 308.589 676.659C308.59 674.792 308.492 673.04 308.206 671.194C297.665 670.041 285.888 670.971 275.228 671L275.38 639.505L265.897 639.655C265.956 636.787 266.267 633.888 266.479 631.026C266.594 623.703 266.502 616.367 266.497 609.043C277.444 608.992 289.2 608.091 300.037 609.347L300.13 582.044L305.232 581.896Z"/>
	<path fill="#161919" transform="scale(0.212184 0.212184)" d="M266.479 631.026L275.497 631.03C275.475 633.816 275.616 636.736 275.38 639.505L265.897 639.655C265.956 636.787 266.267 633.888 266.479 631.026Z"/>
	<path transform="scale(0.212184 0.212184)" d="M372.992 618.983L378.976 618.999C379.221 626.309 379.655 633.683 379.376 640.993L378.975 646.374C371.105 646.953 363.299 646.94 355.416 647.024C337.119 646.956 318.827 647.527 300.518 647.449C300.522 645.032 299.733 642.593 301.264 640.549L303.357 640.255C315.581 639.594 327.736 640.357 339.954 640.504L372.952 640.597L372.992 618.983Z"/>
	<path fill="#FBD65F" transform="scale(0.212184 0.212184)" d="M305.232 581.896L340.56 581.991L340.447 609.489L373 609.566L372.992 618.983L372.952 640.597L339.954 640.504C327.736 640.357 315.581 639.594 303.357 640.255C302.341 640.244 301.499 640.119 300.511 639.88C298.165 634.735 299.908 616.062 300.037 609.347L300.13 582.044L305.232 581.896Z"/>
	<path fill="#DF1414" transform="scale(0.212184 0.212184)" d="M300.037 609.347C313.297 610.303 326.729 610.151 340.018 609.871L339.954 640.504C327.736 640.357 315.581 639.594 303.357 640.255C302.341 640.244 301.499 640.119 300.511 639.88C298.165 634.735 299.908 616.062 300.037 609.347Z"/>
	<path fill="#161919" transform="scale(0.212184 0.212184)" d="M319.216 96.3517L319.624 96.387C325.081 95.5373 331.06 95.9672 336.584 95.9978L365.64 96.1385L419.914 96.0809C431.41 96.0506 443.14 95.6229 454.604 96.353C462.853 96.3638 471.197 96.1232 479.43 96.5997L479.882 96.9373L479.996 128.093C490.683 128.154 501.369 127.945 512.055 128.053L512 161.089L552.253 160.953C560.191 160.863 568.491 159.799 576.355 161.06C575.187 171.457 575.804 181.349 576.023 191.728C588.285 192.46 600.773 192.029 613.058 192.034C621.869 192.038 631.256 192.672 640.008 191.64L639.996 224.022L672.413 224.014C672.195 231.621 670.64 248.696 672.698 255.196L672.409 255.909C672.479 262.482 672.806 269.164 672.112 275.712Q656.058 275.273 640 275.577C640.055 280.436 641.071 300.77 639.521 303.683L640.214 304.142C641.081 314.288 640.518 324.831 640.468 335.019C650.767 334.699 661.287 333.967 671.535 335.233L672.279 335.663C680.741 334.671 694.928 335.28 703.687 335.721C706.423 339.532 704.443 360.307 704.508 366.042L710.768 366.106Q723.399 366.084 736.023 366.509C736.022 372.929 735.882 379.38 736.309 385.789L768.012 386.009L768.04 418.5C774.483 418.57 781.165 418.303 787.571 418.901Q794.79 418.827 802.007 419.01C801.984 426.545 800.942 442.142 802.072 448.495L806.623 448.948L832.608 448.998L832.564 509.761C832.55 521.192 832.095 532.75 832.706 544.162L832.854 545.378C831.478 553.302 832.398 562.247 832.577 570.31C832.874 583.695 833.273 597.175 832.7 610.555Q848.376 610.948 864.056 611.162L864.304 611.365C863.472 618.678 863.948 626.426 863.948 633.801L863.958 675.437C853.778 675.863 842.558 676.467 832.419 675.528L832.164 675.43C832.869 666.341 832.353 657.132 832.277 648.025Q832.153 629.295 832.488 610.568C823.994 610.63 815.514 610.39 807.014 610.559C799.72 610.262 792.37 610.445 785.068 610.469Q784.854 577.77 785.297 545.074L784.87 545.012C779.261 544.649 773.584 544.894 767.966 544.964L768.092 513.434L736.516 513.54L736.483 490.654C715.016 490.797 693.504 490.585 672.045 490.967L672.175 466.423L607.947 466.404Q607.866 478.628 607.962 490.851L576.091 490.896L576.029 519.918C568.319 519.923 560.582 520.068 552.875 519.919L552.544 520.014Q552.343 532.034 552.444 544.056C544.839 544.062 537.053 544.427 529.471 544.01Q517.371 543.945 505.27 544.003C504.863 548.32 504.52 552.602 504.555 556.942C504.576 559.612 504.988 562.446 504.741 565.096C504.635 566.232 504.293 566.979 503.578 567.847C499.547 570.116 485.971 568.616 480.847 568.478C480.863 576.528 480.821 584.549 480.474 592.592Q467.94 592.737 455.408 592.499C455.492 600.147 456.471 609.628 454.577 617.094Q454.323 628.988 454.332 640.884L429.607 641.007C421.462 641.024 413.121 640.667 405.003 641.219L404.768 640.572C405.271 632.75 404.955 624.833 404.769 617.005L417.035 617.01L417.35 593.504L428.018 593.518L428.028 569.497L451.007 569.827L451.026 544.491L480.496 544.512C480.531 536.345 480.983 528.173 481.014 519.995Q496.664 520.2 512.3 519.494C512.684 509.683 512.517 499.83 512.519 490.012L544.015 490.017L543.999 449.007L543.998 418.482L542.725 418.584C532.652 418.373 522.532 418.527 512.454 418.506L512.497 399.921C502.212 401.339 490.878 400.649 480.524 400.018C480.497 395.298 480.338 390.678 479.926 385.973L479.992 385.73L480.013 354.51C478.073 337.476 479.074 320.081 480.016 303.016C470.124 302.919 460.197 302.529 450.309 302.761L449.57 302.565C447.964 295.947 449.005 284.116 449.029 276.928Q433.165 276.948 417.306 276.517C408.889 276.229 400.404 276.447 391.979 276.452C391.249 268.11 392.086 259.7 391.544 251.323C384.234 250.795 376.81 251.074 369.482 251.128C368.857 242.744 369.442 234.383 369.269 225.986L368.605 225.893C368.031 217.622 369.12 209.482 368.264 201.11C360.224 199.786 352.134 199.801 344.038 200.526L343.729 200.084Q331.641 199.772 319.55 199.984L319.549 175.946Q306.225 175.847 292.901 175.98C292.99 167.6 292.901 159.212 292.89 150.831L292.602 150.522C292.33 142.733 292.551 134.881 292.576 127.085Q299.316 126.449 306.084 126.545Q312.853 126.641 319.572 127.468C319.452 117.305 320.644 106.393 319.216 96.3517Z"/>
	<path transform="scale(0.212184 0.212184)" d="M529.523 520.004L552.544 520.014Q552.343 532.034 552.444 544.056C544.839 544.062 537.053 544.427 529.471 544.01C529.591 536.013 529.509 528.003 529.523 520.004Z"/>
	<path transform="scale(0.212184 0.212184)" d="M430.003 616.986C438.188 616.959 446.397 616.808 454.577 617.094Q454.323 628.988 454.332 640.884L429.607 641.007C431.089 633.756 430.054 624.417 430.003 616.986Z"/>
	<path transform="scale(0.212184 0.212184)" d="M672.279 335.663C680.741 334.671 694.928 335.28 703.687 335.721C706.423 339.532 704.443 360.307 704.508 366.042L672.497 366.082C672.491 356.024 672.956 345.69 672.279 335.663Z"/>
	<path fill="#FBD65F" transform="scale(0.212184 0.212184)" d="M543.998 418.482C554.522 417.51 565.543 417.618 576.079 418.236L576.125 449.021L543.999 449.007L543.998 418.482Z"/>
	<path fill="#FBD65F" transform="scale(0.212184 0.212184)" d="M544.472 303.086C554.877 302.995 565.59 302.435 575.944 303.423C576.02 308.216 574.873 325.757 576.326 328.891L576.589 334.709C567.246 336.901 554.093 335.464 544.444 335.04L544.472 303.086Z"/>
	<path transform="scale(0.212184 0.212184)" d="M787.571 418.901Q794.79 418.827 802.007 419.01C801.984 426.545 800.942 442.142 802.072 448.495C799.143 449.909 773.388 449.022 767.991 449.006C767.691 438.891 767.594 428.964 768.05 418.849C774.496 419.14 781.131 419.388 787.571 418.901Z"/>
	<path transform="scale(0.212184 0.212184)" d="M369.269 225.986Q380.172 225.812 391.076 225.939C391.744 234.283 391.682 242.681 391.516 251.046Q404.266 250.837 417.016 251.064C416.999 258.932 416.06 268.899 417.306 276.517C408.889 276.229 400.404 276.447 391.979 276.452C391.249 268.11 392.086 259.7 391.544 251.323C384.234 250.795 376.81 251.074 369.482 251.128C368.857 242.744 369.442 234.383 369.269 225.986Z"/>
	<path transform="scale(0.212184 0.212184)" d="M292.89 150.831C301.895 150.485 310.849 150.679 319.852 150.949C319.749 159.164 319.566 167.386 319.562 175.601Q331.483 175.411 343.405 175.345C343.524 183.476 343.061 191.999 343.729 200.084Q331.641 199.772 319.55 199.984L319.549 175.946Q306.225 175.847 292.901 175.98C292.99 167.6 292.901 159.212 292.89 150.831Z"/>
	<path transform="scale(0.212184 0.212184)" d="M736.483 490.654C746.964 490.26 757.495 490.44 767.984 490.425L767.976 513.209C773.654 513.078 779.292 512.994 784.968 513.329C785.005 522.007 785.954 537.012 784.87 545.012C779.261 544.649 773.584 544.894 767.966 544.964L768.092 513.434L736.516 513.54L736.483 490.654Z"/>
	<path transform="scale(0.212184 0.212184)" d="M785.297 545.074C792.535 545.049 799.805 545.168 807.037 544.95C807.051 566.785 807.56 588.737 807.014 610.559C799.72 610.262 792.37 610.445 785.068 610.469Q784.854 577.77 785.297 545.074Z"/>
	<path transform="scale(0.212184 0.212184)" d="M710.768 366.106Q723.399 366.084 736.023 366.509C736.022 372.929 735.882 379.38 736.309 385.789L768.012 386.009L768.04 418.5Q752.028 417.947 736.007 418.058L736.12 385.988L704.541 385.985Q705.037 376.244 704.837 366.492C706.856 366.505 708.767 366.373 710.768 366.106Z"/>
	<path transform="scale(0.212184 0.212184)" d="M806.623 448.948L832.608 448.998L832.564 509.761C832.55 521.192 832.095 532.75 832.706 544.162L832.379 544.829C830.195 545.425 811.175 544.495 807.047 544.564L807.055 487.149C807.053 474.423 807.237 461.662 806.623 448.948Z"/>
	<path fill="#FBD65F" transform="scale(0.212184 0.212184)" d="M480.013 354.51L512.984 354.5C513.149 364.814 513.596 375.248 512.759 385.539C523.19 386.674 533.576 385.892 544.03 385.87L543.998 418.482L542.725 418.584C532.652 418.373 522.532 418.527 512.454 418.506L512.497 399.921C502.212 401.339 490.878 400.649 480.524 400.018C480.497 395.298 480.338 390.678 479.926 385.973L479.992 385.73L480.013 354.51Z"/>
	<path fill="#161919" transform="scale(0.212184 0.212184)" d="M479.992 385.73C489.421 387.213 502.674 386.103 512.499 386.006L512.497 399.921C502.212 401.339 490.878 400.649 480.524 400.018C480.497 395.298 480.338 390.678 479.926 385.973L479.992 385.73Z"/>
	<path fill="#FBD65F" transform="scale(0.212184 0.212184)" d="M608.129 303.503C618.498 303.457 629.188 302.889 639.521 303.683L640.214 304.142C641.081 314.288 640.518 324.831 640.468 335.019C650.767 334.699 661.287 333.967 671.535 335.233L672.279 335.663C672.956 345.69 672.491 356.024 672.497 366.082L640.043 365.988C633.622 366.017 613.701 367.02 608.746 365.526L608.24 364.109C608.078 364.591 607.781 365.062 607.546 365.513C601.078 367.92 584.221 366.232 576.512 365.991C576.415 356.901 575.555 347.016 576.528 338.005C576.707 336.351 576.85 336.008 578.148 334.959L576.589 334.709L576.326 328.891L576.444 303.699C586.996 303.318 597.572 303.476 608.129 303.503Z"/>
	<path transform="scale(0.212184 0.212184)" d="M608.461 335.144L640.064 335.106L640.043 365.988C633.622 366.017 613.701 367.02 608.746 365.526L608.24 364.109C608.826 354.513 608.386 344.764 608.461 335.144Z"/>
	<path transform="scale(0.212184 0.212184)" d="M576.444 303.699C586.996 303.318 597.572 303.476 608.129 303.503Q607.956 319.298 608.031 335.094C598.153 335.315 587.981 335.987 578.148 334.959L576.589 334.709L576.326 328.891L576.444 303.699Z"/>
	<path transform="scale(0.212184 0.212184)" d="M608.047 422.005C629.017 423.842 650.921 422.563 671.982 422.43C671.927 436.98 672.62 451.497 672.359 466.067Q704.408 465.616 736.448 466.519L736.483 490.654C715.016 490.797 693.504 490.585 672.045 490.967L672.175 466.423L607.947 466.404Q607.866 478.628 607.962 490.851L576.091 490.896L576.029 519.918C568.319 519.923 560.582 520.068 552.875 519.919C553.675 510.011 553.408 500.442 553.017 490.523L576.015 490.539L576.042 465.641C586.666 466.25 597.34 465.268 607.932 465.923L608.047 422.005Z"/>
	<path transform="scale(0.212184 0.212184)" d="M387.883 161.701C429.203 160.887 470.665 161.509 512 161.488L512.029 191.904L575.922 191.976C576.543 202.563 575.832 212.939 576.031 223.489C586.83 223.503 597.651 223.376 608.443 223.794L608.493 254.546C622.418 255.274 636.373 255.026 650.311 254.962C656.211 254.935 666.872 253.932 672.082 255.277C672.147 255.414 672.247 255.549 672.249 255.701L672.409 255.909C672.479 262.482 672.806 269.164 672.112 275.712Q656.058 275.273 640 275.577C640.055 280.436 641.071 300.77 639.521 303.683C629.188 302.889 618.498 303.457 608.129 303.503C597.572 303.476 586.996 303.318 576.444 303.699L576.326 328.891C574.873 325.757 576.02 308.216 575.944 303.423C577.553 294.334 576.667 284.688 576.546 275.487C574.623 266.885 575.541 256.404 575.752 247.626Q576.008 235.57 576.109 223.511L512.013 223.488L511.983 191.983L422.802 191.855C410.958 191.735 395.558 192.73 384.125 190.7C383.748 184.738 382.549 167.116 384.383 162.35C385.416 162.266 386.48 162.241 387.463 161.889C387.608 161.837 387.743 161.764 387.883 161.701Z"/>
	<path fill="#F9830C" transform="scale(0.212184 0.212184)" d="M576.546 275.487L608.481 275.513C608.571 284.587 609.414 294.548 608.129 303.503C597.572 303.476 586.996 303.318 576.444 303.699L576.326 328.891C574.873 325.757 576.02 308.216 575.944 303.423C577.553 294.334 576.667 284.688 576.546 275.487Z"/>
	<path fill="#DF1414" transform="scale(0.212184 0.212184)" d="M319.624 96.387C325.081 95.5373 331.06 95.9672 336.584 95.9978L365.64 96.1385L419.914 96.0809C431.41 96.0506 443.14 95.6229 454.604 96.353C462.853 96.3638 471.197 96.1232 479.43 96.5997L479.882 96.9373L479.996 128.093C490.683 128.154 501.369 127.945 512.055 128.053L512 161.089L552.253 160.953C560.191 160.863 568.491 159.799 576.355 161.06C575.187 171.457 575.804 181.349 576.023 191.728C588.285 192.46 600.773 192.029 613.058 192.034C621.869 192.038 631.256 192.672 640.008 191.64L639.996 224.022L672.413 224.014C672.195 231.621 670.64 248.696 672.698 255.196L672.409 255.909L672.249 255.701C672.247 255.549 672.147 255.414 672.082 255.277C666.872 253.932 656.211 254.935 650.311 254.962C636.373 255.026 622.418 255.274 608.493 254.546L608.443 223.794C597.651 223.376 586.83 223.503 576.031 223.489C575.832 212.939 576.543 202.563 575.922 191.976L512.029 191.904L512 161.488C470.665 161.509 429.203 160.887 387.883 161.701C386.403 161.69 385.543 161.862 384.245 161.114C383.002 152.535 383.917 137.486 383.906 128.267C362.661 126.779 341.227 129.615 319.968 127.667C319.886 118.481 321.119 104.967 319.624 96.387Z"/>
	<path fill="#FBD65F" transform="scale(0.212184 0.212184)" d="M454.604 96.353C462.853 96.3638 471.197 96.1232 479.43 96.5997L479.882 96.9373L479.996 128.093Q449.44 128.786 418.877 128.544C407.411 128.555 395.246 129.446 383.894 128.039C382.696 117.72 383.494 106.746 383.922 96.3897C407.439 96.6648 431.09 96.7457 454.604 96.353Z"/>
</svg>
