<?xml version="1.0" encoding="utf-8" ?>
<svg xmlns="http://www.w3.org/2000/svg" xmlns:xlink="http://www.w3.org/1999/xlink" width="98" height="98">
	<path fill="#C6B8E6" transform="scale(0.0958368 0.0958368)" d="M0 0L384.052 0L640.899 0L1024 0L1024 1024L640.405 1024L384.072 1024L0 1024L0 0ZM0 0L0 1024L384.072 1024L384.083 992.045L352.299 992.055C351.485 981.51 352.069 970.529 352.058 959.921L320.499 959.984C320.119 949.317 320.465 938.616 320.192 927.94C309.645 927.822 299.083 927.922 288.534 927.916C287.599 917.396 288.08 906.581 288.014 896.017Q287.818 879.988 288.035 863.959C288.251 858.867 289.269 835.152 287.604 831.856C288.609 829.451 288.285 775.345 288.41 768.036L256.422 767.983L256.471 736.051C245.699 735.901 234.898 736.127 224.125 736.195C224.785 725.502 224.278 714.774 224.559 704.066C225.604 693.637 224.866 682.522 224.924 672.001L192.612 671.987C193.232 661.377 192.669 650.655 193.058 640.015C182.072 639.659 171.019 640.067 160.02 639.926L160.004 607.985L192.038 608.044L192.042 447.996C181.409 447.865 170.756 448 160.12 448.008C159.785 426.647 160.091 405.225 160.086 383.858L160.027 255.992L191.977 256.034Q192.124 226.125 191.913 196.217L191.979 192.009L223.955 191.96Q224.275 176.799 223.968 161.638L224.007 160.016L255.926 160.002Q256.279 147.774 255.919 135.546C256.003 133.37 255.38 130.595 256.429 128.648C258.002 127.652 259.92 127.89 261.718 127.901C259.815 127.711 257.877 127.744 255.965 127.706L255.993 95.9688L256.003 64.0307C277.367 63.641 298.778 63.9078 320.147 63.9309C319.89 53.3284 320.072 42.6702 320.137 32.0646C341.445 31.6105 362.813 31.8344 384.129 31.8041Q383.991 15.9025 384.052 0L0 0ZM640.899 0Q640.994 15.8008 640.9 31.6016C654.251 31.3061 667.56 30.9443 680.918 31.182C688.739 31.3211 696.597 32.1512 704.411 31.9906C704.403 42.6585 704.564 53.3657 704.346 64.0294L768.241 64.0769C769.121 74.4675 768.467 85.3808 768.451 95.843C778.737 95.5095 789.641 95.1101 799.9 95.8699C799.98 106.549 799.782 117.288 800.083 127.96L832.401 128.021C832.415 138.695 832.574 149.397 832.407 160.067L863.603 160.106C863.728 170.662 863.428 181.334 863.805 191.874L895.887 191.903C895.907 213.242 895.55 234.674 896.012 256.003C886.552 255.699 873.44 254.184 864.405 256.328C865.15 320.261 863.679 384.192 864.089 448.121L847.053 448.071C842.078 448.601 836.982 448.541 831.987 448.308L832.017 608.024Q847.913 607.894 863.81 607.931L864 608.329L864.421 608.329C872.043 606.823 887.511 607.986 896.027 607.966C896.015 639.977 895.583 672.05 896.079 704.053C895.416 725.493 895.932 747.063 895.965 768.517L863.984 768.561C863.766 778.941 863.352 789.675 863.908 800.036L831.924 800.049L831.976 831.976C800.038 832.002 767.994 831.457 736.07 832.107Q735.816 848.035 736.057 863.964Q735.936 879.945 736 895.926C725.595 895.499 714.927 896.01 704.488 895.982Q703.716 912.003 704.08 928.039L704.01 960.012L672.061 959.999L672.001 991.986L640.396 992.022L640.405 1024L1024 1024L1024 0L640.899 0Z"/>
	<path transform="scale(0.0958368 0.0958368)" d="M768.477 127.561C779.004 128.507 789.586 127.618 800.126 127.866C800.084 138.288 800.707 149.157 800.061 159.519L768.521 159.412L768.477 127.561Z"/>
	<path transform="scale(0.0958368 0.0958368)" d="M677.212 159.914L736.007 159.976C735.915 169.718 734.847 182.012 736.238 191.487L704.162 191.506C693.483 192.01 682.694 191.594 672.002 191.465C672.019 181.513 670.745 170.409 672.663 160.652C673.625 159.849 675.909 160.005 677.212 159.914Z"/>
	<path transform="scale(0.0958368 0.0958368)" d="M320.518 64.232C341.61 63.4193 362.888 63.9562 384.003 63.9744L384.027 96.0384L340.824 95.9706C334.483 95.9596 326.692 95.0194 320.535 96.3224C319.916 85.7851 320.492 74.8075 320.518 64.232Z"/>
	<path transform="scale(0.0958368 0.0958368)" d="M255.993 95.9688L296.759 95.9414C303.873 95.901 311.201 95.2952 318.284 95.9294C319.027 95.996 319.598 96.2082 320.189 96.653C319.869 107.07 320.029 117.513 320.084 127.935C300.644 128.313 281.163 127.914 261.718 127.901C259.815 127.711 257.877 127.744 255.965 127.706L255.993 95.9688Z"/>
	<path transform="scale(0.0958368 0.0958368)" d="M416.661 96.0304L576.022 96.1318C575.81 106.673 575.635 117.056 576.085 127.593C569.721 128.535 562.901 128.105 556.476 128.072L525.69 127.942L416.977 127.921C416.982 125.704 416.791 123.544 416.574 121.342Q416.292 108.685 416.661 96.0304Z"/>
	<path transform="scale(0.0958368 0.0958368)" d="M192.427 287.993L224.09 287.981C223.634 305.901 223.953 323.892 223.969 341.821C223.982 355.895 223.606 369.947 223.976 384.019L255.985 383.965L256.023 416.043L223.999 416.019L224.025 448.131L192.042 447.996Q192.727 367.996 192.427 287.993Z"/>
	<path transform="scale(0.0958368 0.0958368)" d="M352.563 127.856C359.709 128.442 367.093 128.113 374.267 128.107C388.349 128.094 402.444 127.93 416.524 128.083L416.486 159.774L352.515 160.011L352.453 191.96C341.63 191.994 330.787 192.168 319.966 191.947C309.471 191.457 299.025 191.752 288.528 192.071C286.997 202.447 287.896 213.551 288.095 224.023C277.479 224.29 266.947 224.618 256.341 223.973L256.083 288.043L224.665 288.033C224.687 286.284 225.077 283.649 224.156 282.128C223.813 272.069 224.063 261.923 224.018 251.854C223.977 242.648 223.485 233.14 224.473 223.991L256.34 223.973C256.697 213.333 256.504 202.641 256.523 191.995L288.457 191.969C289.233 181.294 288.157 170.667 288.768 159.993Q320.635 160.131 352.498 159.601L352.563 127.856Z"/>
	<path transform="scale(0.0958368 0.0958368)" d="M736.445 191.931L768.015 191.976Q767.872 207.972 768.09 223.966L799.612 223.963C801.17 244.514 799.625 267.113 799.986 287.978C810.64 287.964 821.321 288.113 831.972 287.866L831.961 447.979C821.433 448.259 810.865 448.043 800.333 448.017L800.051 415.723Q784.265 416.131 768.475 416.018C768.487 405.551 768.733 395.024 768.282 384.568C771.025 382.923 795.242 383.946 800.044 383.975L800.017 288.038L768.325 288.015C767.455 277.564 767.94 266.823 767.937 256.336C767.934 245.519 767.494 234.784 768.026 223.971C757.498 224.483 746.994 224.122 736.459 224.007L736.445 191.931Z"/>
	<path fill="#091F2D" transform="scale(0.0958368 0.0958368)" d="M288.528 192.071C299.025 191.752 309.471 191.457 319.966 191.947L319.983 256.025L351.97 256.046L351.967 288.025L383.912 288.042C383.919 298.664 383.651 309.386 384.004 319.998Q384.153 336.022 384.082 352.047L288.008 352.02L288.084 384.041C277.401 384.025 266.662 384.228 255.985 383.965L223.976 384.019C223.606 369.947 223.982 355.895 223.969 341.821C223.953 323.892 223.634 305.901 224.09 287.981L224.156 282.128C225.077 283.649 224.687 286.284 224.665 288.033L256.083 288.043L256.341 223.973C266.947 224.618 277.479 224.29 288.095 224.023C287.896 213.551 286.997 202.447 288.528 192.071Z"/>
	<path transform="scale(0.0958368 0.0958368)" d="M288.002 287.97L319.996 287.962L320.069 319.996L384.004 319.998Q384.153 336.022 384.082 352.047L288.008 352.02L288.084 384.041C277.401 384.025 266.662 384.228 255.985 383.965L256.004 319.88L287.975 319.979L288.002 287.97Z"/>
	<path fill="#091F2D" transform="scale(0.0958368 0.0958368)" d="M736.238 191.487L736.445 191.931L736.459 224.007C746.994 224.122 757.498 224.483 768.026 223.971C767.494 234.784 767.934 245.519 767.937 256.336C767.94 266.823 767.455 277.564 768.325 288.015L800.017 288.038L800.044 383.975C795.242 383.946 771.025 382.923 768.282 384.568L767.994 384.05C757.577 383.599 746.916 384.013 736.478 384.019L736.437 352.05C704.293 351.665 672.12 352.144 639.971 351.963L640.002 319.992L640.028 288.064L672.015 288.001L672.01 256.008L704.034 255.999L704.162 191.506L736.238 191.487Z"/>
	<path transform="scale(0.0958368 0.0958368)" d="M703.964 287.969L736.444 287.89L736.49 319.986L767.976 319.96L768.029 362.347C768.037 369.552 768.334 376.864 767.994 384.05C757.577 383.599 746.916 384.013 736.478 384.019L736.437 352.05C704.293 351.665 672.12 352.144 639.971 351.963L640.002 319.992L703.959 319.974L703.964 287.969Z"/>
	<path fill="#5E0167" transform="scale(0.0958368 0.0958368)" d="M384.052 0L640.899 0Q640.994 15.8008 640.9 31.6016C654.251 31.3061 667.56 30.9443 680.918 31.182C688.739 31.3211 696.597 32.1512 704.411 31.9906C704.403 42.6585 704.564 53.3657 704.346 64.0294L768.241 64.0769C769.121 74.4675 768.467 85.3808 768.451 95.843C778.737 95.5095 789.641 95.1101 799.9 95.8699C799.98 106.549 799.782 117.288 800.083 127.96L832.401 128.021C832.415 138.695 832.574 149.397 832.407 160.067L863.603 160.106C863.728 170.662 863.428 181.334 863.805 191.874L895.887 191.903C895.907 213.242 895.55 234.674 896.012 256.003C886.552 255.699 873.44 254.184 864.405 256.328L864.052 256.263C853.902 254.69 842.802 255.729 832.536 256.03L832.415 205.037C831.886 200.582 832.049 195.993 832.015 191.51L800.199 191.503C799.659 181.732 799.903 171.928 799.996 162.148L800.061 159.519C800.707 149.157 800.084 138.288 800.126 127.866C789.586 127.618 779.004 128.507 768.477 127.561C747.221 126.906 725.737 127.511 704.458 127.509L704.448 96.4062L702.102 95.7369C695.44 95.2588 688.528 95.9308 681.832 95.9778Q661.208 96.0648 640.584 95.9312L640.531 64.0153Q632.408 63.8958 624.284 63.9124C597.797 64.7873 571.001 63.9903 544.487 63.9916L408.529 63.9093Q396.266 64.0392 384.003 63.9744C362.888 63.9562 341.61 63.4193 320.518 64.232C320.492 74.8075 319.916 85.7851 320.535 96.3224L320.189 96.653C319.598 96.2082 319.027 95.996 318.284 95.9294C311.201 95.2952 303.873 95.901 296.759 95.9414L255.993 95.9688L256.003 64.0307C277.367 63.641 298.778 63.9078 320.147 63.9309C319.89 53.3284 320.072 42.6702 320.137 32.0646C341.445 31.6105 362.813 31.8344 384.129 31.8041Q383.991 15.9025 384.052 0Z"/>
	<path transform="scale(0.0958368 0.0958368)" d="M799.996 162.148L800.624 160.001C803.489 159.017 827.138 159.996 832.072 159.994L832.015 191.51L800.199 191.503C799.659 181.732 799.903 171.928 799.996 162.148Z"/>
	<path transform="scale(0.0958368 0.0958368)" d="M704.448 96.4062C713.753 95.634 723.283 95.9802 732.621 95.978C744.545 95.9751 756.506 95.7956 768.426 96.1107Q768.561 111.836 768.477 127.561C747.221 126.906 725.737 127.511 704.458 127.509L704.448 96.4062Z"/>
	<path transform="scale(0.0958368 0.0958368)" d="M832.397 191.663C842.832 191.699 853.332 191.487 863.757 191.895C865.137 212.972 863.81 235.051 864.052 256.263C853.902 254.69 842.802 255.729 832.536 256.03L832.415 205.037C832.592 200.572 832.495 196.127 832.397 191.663Z"/>
	<path transform="scale(0.0958368 0.0958368)" d="M640.531 64.0153Q672.293 63.8311 704.055 63.9828C704.052 71.1528 704.963 89.2736 703.664 95.1417C702.575 95.7445 703.109 95.5839 702.102 95.7369C695.44 95.2588 688.528 95.9308 681.832 95.9778Q661.208 96.0648 640.584 95.9312L640.531 64.0153Z"/>
	<path transform="scale(0.0958368 0.0958368)" d="M384.485 31.9949Q459.386 31.3483 534.286 31.9963L602.564 31.9752C615.211 31.9644 627.803 31.5564 640.448 32.0557Q640.143 47.8251 640.443 63.5945C635.163 63.4844 629.503 63.0783 624.284 63.9124C597.797 64.7873 571.001 63.9903 544.487 63.9916L408.529 63.9093C400.46 63.0967 392.1 63.5243 383.997 63.616C383.925 53.0825 383.688 42.507 384.485 31.9949Z"/>
	<path fill="#2D485A" transform="scale(0.0958368 0.0958368)" d="M416.574 121.342C416.791 123.544 416.982 125.704 416.977 127.921L525.69 127.942L556.476 128.072C562.901 128.105 569.721 128.535 576.085 127.593C588.567 127.62 603.958 126.762 616.083 127.916L672.026 127.979C671.922 137.711 671.23 147.928 672.214 157.604C672.429 158.313 672.411 159.099 673.129 159.452C674.323 160.038 675.904 159.891 677.212 159.914C675.909 160.005 673.625 159.849 672.663 160.652C670.745 170.409 672.019 181.513 672.002 191.465C682.694 191.594 693.483 192.01 704.162 191.506L704.034 255.999L672.01 256.008L672.015 288.001L640.028 288.064L640.002 319.992L639.971 351.963L640.031 416.025L640.015 447.979C629.344 447.994 618.653 447.873 607.985 448.031Q591.982 448.025 575.981 448.214C575.709 458.599 574.764 469.663 575.828 480.016L447.974 480.047L447.967 448.146C437.332 447.746 426.651 448.028 416.011 448.117L415.997 416.276C405.365 415.751 394.642 416.004 383.996 415.989Q383.905 402.184 384.141 388.381C383.28 377.304 384.175 363.484 384.082 352.047Q384.153 336.022 384.004 319.998C383.651 309.386 383.919 298.664 383.912 288.042L351.967 288.025L351.97 256.046L319.983 256.025L319.966 191.947C330.787 192.168 341.63 191.994 352.453 191.96L352.515 160.011L416.486 159.774L416.524 128.083C402.444 127.93 388.349 128.094 374.267 128.107C367.093 128.113 359.709 128.442 352.563 127.856C359.381 126.893 367.066 127.563 374.004 127.566L416.453 127.593L416.574 121.342Z"/>
	<path fill="#091F2D" transform="scale(0.0958368 0.0958368)" d="M448.004 384L480.062 383.984C480.037 394.652 479.918 405.332 480.01 416Q464.018 415.907 448.026 415.998L448.004 384Z"/>
	<path transform="scale(0.0958368 0.0958368)" d="M616.083 127.916L672.026 127.979C671.922 137.711 671.23 147.928 672.214 157.604L671.737 159.139C669.277 160.463 586.521 159.383 576.004 159.305C575.663 148.83 575.318 138.525 576.096 128.067C589.324 128.111 602.899 128.765 616.083 127.916Z"/>
	<path transform="scale(0.0958368 0.0958368)" d="M576 320.008L640.002 319.992L639.971 351.963L640.031 416.025L640.015 447.979C629.344 447.994 618.653 447.873 607.985 448.031Q591.982 448.025 575.981 448.214C575.709 458.599 574.764 469.663 575.828 480.016L447.974 480.047L447.967 448.146C437.332 447.746 426.651 448.028 416.011 448.117L415.997 416.276C405.365 415.751 394.642 416.004 383.996 415.989Q383.905 402.184 384.141 388.381C383.28 377.304 384.175 363.484 384.082 352.047Q384.153 336.022 384.004 319.998L415.685 320.037C415.377 330.735 414.981 341.322 415.71 352.016L448.015 351.989L448.004 384L448.026 415.998Q464.018 415.907 480.01 416L512.013 416.002L512.003 384.006L544.507 383.992L544.5 352.012L576.001 351.997L576 320.008Z"/>
	<path fill="#7480A5" transform="scale(0.0958368 0.0958368)" d="M640.031 416.025L640.015 447.979C629.344 447.994 618.653 447.873 607.985 448.031L607.987 416.051L640.031 416.025Z"/>
	<path fill="#091F2D" transform="scale(0.0958368 0.0958368)" d="M384.004 319.998L415.685 320.037C415.377 330.735 414.981 341.322 415.71 352.016L448.015 351.989L448.004 384L416.026 384.054C416.015 373.378 416.261 362.634 415.868 351.967C405.461 351.971 395.02 351.816 384.616 352.017C384.635 357.247 385.545 385.871 384.141 388.381C383.28 377.304 384.175 363.484 384.082 352.047Q384.153 336.022 384.004 319.998Z"/>
	<path fill="#091F2D" transform="scale(0.0958368 0.0958368)" d="M576 320.008L640.002 319.992L639.971 351.963L607.97 351.968L607.976 383.976L575.991 383.966L575.963 416.029L544.865 415.96C544.188 426.588 544.448 437.338 544.455 447.987L480.036 447.999L480.01 416L512.013 416.002L512.003 384.006L544.507 383.992L544.5 352.012L576.001 351.997L576 320.008Z"/>
	<path fill="#7480A5" transform="scale(0.0958368 0.0958368)" d="M639.971 351.963C672.12 352.144 704.293 351.665 736.437 352.05L736.478 384.019C746.916 384.013 757.577 383.599 767.994 384.05L768.282 384.568C768.733 395.024 768.487 405.551 768.475 416.018Q784.265 416.131 800.051 415.723L800.333 448.017C810.865 448.043 821.433 448.259 831.961 447.979C836.978 447.933 842.044 447.741 847.053 448.071C842.078 448.601 836.982 448.541 831.987 448.308L832.017 608.024Q847.913 607.894 863.81 607.931L864 608.329Q863.868 624.396 863.968 640.463C853.351 640.454 842.513 640.998 831.938 640.049C832.1 647.562 833.652 665.739 831.061 671.847L829.605 672.307C823.461 671.392 816.52 671.696 810.303 671.681C796.203 671.647 782.098 672.135 768 671.943Q735.997 671.797 703.994 671.991Q665.618 672 627.244 672.5C623.337 672.524 610.828 671.615 607.844 672.341C606.379 682.176 607.49 693.929 607.425 704.014C597.003 704.018 586.443 703.701 576.036 704.099C575.576 693.445 575.858 682.706 575.992 672.043L544.024 671.999L480.002 671.999C469.366 672.065 458.71 672.23 448.078 671.893L447.976 672.297C439.02 670.999 425.481 672.039 416.003 671.981L320.238 671.987C314.422 671.751 308.628 672.277 302.813 672.251L256.011 672.03Q240.468 671.699 224.924 672.001L192.612 671.987C193.232 661.377 192.669 650.655 193.058 640.015C182.072 639.659 171.019 640.067 160.02 639.926L160.004 607.985L192.038 608.044L192.042 447.996L224.025 448.131L223.999 416.019L256.023 416.043L255.985 383.965C266.662 384.228 277.401 384.025 288.084 384.041L288.008 352.02L384.082 352.047C384.175 363.484 383.28 377.304 384.141 388.381Q383.905 402.184 383.996 415.989C394.642 416.004 405.365 415.751 415.997 416.276L416.011 448.117C426.651 448.028 437.332 447.746 447.967 448.146L447.974 480.047L575.828 480.016C574.764 469.663 575.709 458.599 575.981 448.214Q591.982 448.025 607.985 448.031C618.653 447.873 629.344 447.994 640.015 447.979L640.031 416.025L639.971 351.963Z"/>
	<path transform="scale(0.0958368 0.0958368)" d="M193.058 640.015L256.006 639.964L256.011 672.03Q240.468 671.699 224.924 672.001L192.612 671.987C193.232 661.377 192.669 650.655 193.058 640.015Z"/>
	<path transform="scale(0.0958368 0.0958368)" d="M767.991 640.672Q799.96 639.888 831.938 640.049C832.1 647.562 833.652 665.739 831.061 671.847L829.605 672.307C823.461 671.392 816.52 671.696 810.303 671.681C796.203 671.647 782.098 672.135 768 671.943L767.991 640.672Z"/>
	<path transform="scale(0.0958368 0.0958368)" d="M479.99 576.068L544.015 575.967L544.031 607.977L576.005 607.965L575.992 672.043L544.024 671.999L480.002 671.999C469.366 672.065 458.71 672.23 448.078 671.893L447.984 607.984L479.971 607.981L479.99 576.068Z"/>
	<path fill="#2D485A" transform="scale(0.0958368 0.0958368)" d="M480.004 640.103Q511.993 639.456 543.98 640.173L544.024 671.999L480.002 671.999L480.004 640.103Z"/>
	<path transform="scale(0.0958368 0.0958368)" d="M288.676 415.989L383.996 415.989C394.642 416.004 405.365 415.751 415.997 416.276L416.011 448.117Q415.895 464.257 416.023 480.396Q431.993 480.571 447.964 480.408L448.022 576.043L415.967 576.022L416.024 608.043L383.99 608.02L384.017 640.043L288.408 640.016L288.176 608.042L256.467 608.018L256.356 576.044L224.016 576.023L224.246 479.988L256.394 479.968L256.502 448.417L288.511 448.184L288.676 415.989Z"/>
	<path fill="#7480A5" transform="scale(0.0958368 0.0958368)" d="M383.996 415.989C394.642 416.004 405.365 415.751 415.997 416.276L416.011 448.117Q400.025 448.288 384.04 448.085L383.996 415.989Z"/>
	<path fill="#F43181" transform="scale(0.0958368 0.0958368)" d="M288.008 480.021L384.004 480.023L384.015 545.281C383.994 555.553 384.681 566.221 383.821 576.44C351.902 576.531 320.051 577.003 288.129 576.483C287.762 544.338 288.011 512.169 288.008 480.021Z"/>
	<path fill="#EAEFF2" transform="scale(0.0958368 0.0958368)" d="M319.777 511.993L352.582 512.097C352.945 522.922 353.249 533.767 352.823 544.595Q336.36 545.015 319.892 544.97C318.933 534.107 319.512 522.884 319.777 511.993Z"/>
	<path transform="scale(0.0958368 0.0958368)" d="M640.031 416.025L736.013 415.968L736.021 447.978L767.998 447.964L767.983 479.977L799.835 479.954L800.018 576.04L768.075 576.021L768.081 608.041L736.485 608.029Q736.452 624.031 736.25 640.031L640.383 640.016L640.269 608.043L607.923 608.02L607.976 576.042L575.978 576.021L575.977 515.16C575.989 503.463 576.41 491.701 575.828 480.016C574.764 469.663 575.709 458.599 575.981 448.214Q591.982 448.025 607.985 448.031C618.653 447.873 629.344 447.994 640.015 447.979L640.031 416.025Z"/>
	<path fill="#7480A5" transform="scale(0.0958368 0.0958368)" d="M607.985 448.031L607.984 479.983C597.275 479.984 586.532 479.822 575.828 480.016C574.764 469.663 575.709 458.599 575.981 448.214Q591.982 448.025 607.985 448.031Z"/>
	<path fill="#F43181" transform="scale(0.0958368 0.0958368)" d="M733.689 480.252C734.62 480.215 735.247 480.261 736.133 480.554C737.518 483.868 736.617 563.192 736.58 576.002L642.875 576.001C641.772 575.962 641.697 576.118 640.772 575.416C639.649 571.969 640.432 558.966 640.394 554.535Q639.979 517.455 640.07 480.375L733.689 480.252Z"/>
	<path fill="#EAEFF2" transform="scale(0.0958368 0.0958368)" d="M670.982 511.988L704.994 512.003L705.001 544.962Q688.284 545.145 671.567 545.023C669.634 534.451 670.718 522.721 670.982 511.988Z"/>
	<path transform="scale(0.0958368 0.0958368)" d="M864.421 608.329C872.043 606.823 887.511 607.986 896.027 607.966C896.015 639.977 895.583 672.05 896.079 704.053C895.416 725.493 895.932 747.063 895.965 768.517L863.984 768.561C863.766 778.941 863.352 789.675 863.908 800.036L831.924 800.049L831.976 831.976C800.038 832.002 767.994 831.457 736.07 832.107Q735.816 848.035 736.057 863.964Q735.936 879.945 736 895.926C725.595 895.499 714.927 896.01 704.488 895.982Q703.716 912.003 704.08 928.039L704.01 960.012L672.061 959.999L672.001 991.986L640.396 992.022L640.405 1024L384.072 1024L384.083 992.045L352.299 992.055C351.485 981.51 352.069 970.529 352.058 959.921L320.499 959.984C320.119 949.317 320.465 938.616 320.192 927.94C309.645 927.822 299.083 927.922 288.534 927.916C287.599 917.396 288.08 906.581 288.014 896.017Q287.818 879.988 288.035 863.959C288.251 858.867 289.269 835.152 287.604 831.856C288.609 829.451 288.285 775.345 288.41 768.036L256.422 767.983L256.471 736.051C245.699 735.901 234.898 736.127 224.125 736.195C224.785 725.502 224.278 714.774 224.559 704.066C225.604 693.637 224.866 682.522 224.924 672.001Q240.468 671.699 256.011 672.03L302.813 672.251C308.628 672.277 314.422 671.751 320.238 671.987L416.003 671.981C425.481 672.039 439.02 670.999 447.976 672.297L448.078 671.893C458.71 672.23 469.366 672.065 480.002 671.999L544.024 671.999L575.992 672.043C575.858 682.706 575.576 693.445 576.036 704.099C586.443 703.701 597.003 704.018 607.425 704.014C607.49 693.929 606.379 682.176 607.844 672.341C610.828 671.615 623.337 672.524 627.244 672.5Q665.618 671.999 703.994 671.991Q735.997 671.798 768 671.943C782.098 672.135 796.203 671.647 810.303 671.681C816.52 671.696 823.461 671.392 829.605 672.307L831.061 671.847C833.652 665.739 832.1 647.562 831.938 640.049C842.513 640.998 853.351 640.454 863.968 640.463Q863.868 624.396 864 608.329L864.421 608.329Z"/>
	<path fill="#B6887D" transform="scale(0.0958368 0.0958368)" d="M320.134 800.514L352.713 800.519L352.847 825.564C352.888 830.632 353.323 836.114 352.573 841.116C352.241 837.997 352.422 834.685 352.408 831.544Q336.217 831.069 320.021 831.376L320.134 800.514Z"/>
	<path fill="#D4534E" transform="scale(0.0958368 0.0958368)" d="M607.998 800.041L640.398 799.959Q640.183 815.722 640.498 831.483C629.712 830.965 618.818 831.293 608.021 831.375L607.998 800.041Z"/>
	<path fill="#B6887D" transform="scale(0.0958368 0.0958368)" d="M672.022 800.029L704.294 800.032Q704.228 815.803 704.479 831.573Q688.241 831.434 672.003 831.549L672.022 800.029Z"/>
	<path fill="#5E0167" transform="scale(0.0958368 0.0958368)" d="M672.078 928.02L704.08 928.039L704.01 960.012L672.061 959.999C671.691 949.4 672.13 938.645 672.078 928.02Z"/>
	<path fill="#5E0167" transform="scale(0.0958368 0.0958368)" d="M799.824 736.016C800.207 746.682 800.004 757.385 799.966 768.058L768.012 768.067L768.003 736.088L799.824 736.016Z"/>
	<path fill="#D4534E" transform="scale(0.0958368 0.0958368)" d="M384.014 800.163L416.496 800.157L416.506 831.588C405.664 831.823 394.863 831.703 384.023 831.565L384.014 800.163Z"/>
	<path fill="#2D485A" transform="scale(0.0958368 0.0958368)" d="M796.953 703.982C808.155 703.783 820.896 705.362 831.969 704.332L831.965 735.985C821.271 735.983 810.511 735.751 799.824 736.016C798.498 725.918 800.183 715.499 799.669 705.353C798.983 704.221 798.181 704.319 796.953 703.982Z"/>
	<path fill="#2D485A" transform="scale(0.0958368 0.0958368)" d="M864 608.329L864.421 608.329L864.433 672.371C860.24 672.46 832.987 672.277 831.876 673.056L829.605 672.307L831.061 671.847C833.652 665.739 832.1 647.562 831.938 640.049C842.513 640.998 853.351 640.454 863.968 640.463Q863.868 624.396 864 608.329Z"/>
	<path fill="#B6887D" transform="scale(0.0958368 0.0958368)" d="M528.644 800.05L576.116 800.032C576.088 810.523 575.888 821.043 576.088 831.531C560.211 830.969 544.38 830.971 528.496 830.977Q528.698 815.514 528.644 800.05Z"/>
	<path fill="#B6887D" transform="scale(0.0958368 0.0958368)" d="M448.014 800.152Q471.914 799.922 495.813 800.179C495.583 810.798 495.164 821.508 495.932 832.109C491.33 831.014 485.721 831.445 480.998 831.4Q464.505 831.369 448.013 831.557L448.014 800.152Z"/>
	<path fill="#5E0167" transform="scale(0.0958368 0.0958368)" d="M288.014 896.017C298.679 895.741 309.411 895.339 320.067 895.999C320.4 906.587 320.365 917.131 320.321 927.72C330.907 928.447 341.47 927.833 352.059 927.646C352.039 938.393 351.844 949.178 352.058 959.921L320.499 959.984C320.119 949.317 320.465 938.616 320.192 927.94C309.645 927.822 299.083 927.922 288.534 927.916C287.599 917.396 288.08 906.581 288.014 896.017Z"/>
	<path fill="#FEE1AA" transform="scale(0.0958368 0.0958368)" d="M672.003 831.549Q688.241 831.434 704.479 831.573Q704.964 863.777 704.488 895.982L672.03 895.995Q671.807 863.772 672.003 831.549Z"/>
	<path fill="#FEE1AA" transform="scale(0.0958368 0.0958368)" d="M320.021 831.376Q336.216 831.069 352.408 831.544C352.422 834.685 352.241 837.997 352.573 841.116C352.481 859.454 353.236 877.777 352.615 896.11L320.067 895.999C319.337 874.459 319.854 852.922 320.021 831.376Z"/>
	<path fill="#FE8D7E" transform="scale(0.0958368 0.0958368)" d="M384.023 831.565C394.863 831.703 405.664 831.823 416.506 831.588L416.863 927.985L384.032 927.897L384.023 831.565Z"/>
	<path fill="#FE8D7E" transform="scale(0.0958368 0.0958368)" d="M608.021 831.375C618.818 831.293 629.712 830.965 640.498 831.483Q641.161 879.736 640.265 927.986L608.028 927.986L608.021 831.375Z"/>
	<path fill="#FEE1AA" transform="scale(0.0958368 0.0958368)" d="M448.013 831.557Q464.505 831.369 480.998 831.4C485.721 831.445 491.33 831.014 495.932 832.109C496.266 846.718 495.988 861.387 495.99 876.005L495.999 959.994L448.026 959.996L448.013 831.557Z"/>
	<path fill="#FEE1AA" transform="scale(0.0958368 0.0958368)" d="M528.496 830.977C544.38 830.971 560.211 830.969 576.088 831.531L576.107 959.992L528.126 959.9Q527.595 895.436 528.496 830.977Z"/>
	<path fill="#5E0167" transform="scale(0.0958368 0.0958368)" d="M863.958 704.013L896.079 704.053C895.416 725.493 895.932 747.063 895.965 768.517L863.984 768.561C863.766 778.941 863.352 789.675 863.908 800.036L831.924 800.049L831.976 831.976C800.038 832.002 767.994 831.457 736.07 832.107C736.494 823.222 736.008 814.196 735.987 805.291C735.959 793.043 736.297 780.808 736.192 768.555L767.978 768.507L767.984 800.008L831.553 800.023L831.558 768.047Q847.79 767.973 864.022 768.097L863.958 704.013Z"/>
	<path fill="#5E0167" transform="scale(0.0958368 0.0958368)" d="M352.058 959.921L416.009 960.023L416.007 992.007L608.067 992.042L608.01 960.018C629.329 959.998 650.752 959.551 672.061 959.999L672.001 991.986L640.396 992.022L640.405 1024L384.072 1024L384.083 992.045L352.299 992.055C351.485 981.51 352.069 970.529 352.058 959.921Z"/>
	<path fill="#5F7191" transform="scale(0.0958368 0.0958368)" d="M256.011 672.03L302.813 672.251C308.628 672.277 314.422 671.751 320.238 671.987L416.003 671.981C425.481 672.039 439.02 670.999 447.976 672.297L448.078 671.893C458.71 672.23 469.366 672.065 480.002 671.999L544.024 671.999L575.992 672.043C575.858 682.706 575.576 693.445 576.036 704.099C586.443 703.701 597.003 704.018 607.425 704.014C607.49 693.929 606.379 682.176 607.844 672.341C610.828 671.615 623.337 672.524 627.244 672.5Q665.618 671.999 703.994 671.991Q735.997 671.798 768 671.943C782.098 672.135 796.203 671.647 810.303 671.681C816.52 671.696 823.461 671.392 829.605 672.307L831.876 673.056C832.557 683.549 831.946 693.843 831.969 704.332C820.896 705.362 808.155 703.783 796.953 703.982C790.571 704.402 783.916 704.022 777.502 704.046L736.487 704.215L736.148 735.973L704.855 736.066Q704.527 752.247 704.623 768.43C662.445 769.089 620.212 768.047 578.028 767.983L320.004 767.979L320.005 736.415L288.297 736.376Q288.392 720.174 288.287 703.972L224.559 704.066C225.604 693.637 224.866 682.522 224.924 672.001Q240.468 671.699 256.011 672.03Z"/>
	<path transform="scale(0.0958368 0.0958368)" d="M544.05 704.521C551.505 703.472 568.757 702.944 575.949 704.511C576.349 714.961 576.027 725.582 576.046 736.047Q560.054 736.228 544.064 735.942Q543.855 720.231 544.05 704.521Z"/>
	<path transform="scale(0.0958368 0.0958368)" d="M448.012 704.35C454.627 703.036 473.724 702.451 479.973 704.358L480.036 736.308C469.476 736.92 458.597 736.413 447.999 736.445L448.012 704.35Z"/>
	<path fill="#8DAAB9" transform="scale(0.0958368 0.0958368)" d="M448.078 671.893C458.71 672.23 469.366 672.065 480.002 671.999L544.024 671.999L575.992 672.043C575.858 682.706 575.576 693.445 576.036 704.099L575.949 704.511C568.757 702.944 551.505 703.472 544.05 704.521L543.95 704.103Q512.018 703.566 480.086 704.097L479.973 704.358C473.724 702.451 454.627 703.036 448.012 704.35L447.877 704.076C448.281 693.515 447.992 682.867 447.976 672.297L448.078 671.893Z"/>
	<path fill="#2D485A" transform="scale(0.0958368 0.0958368)" d="M448.078 671.893C458.71 672.23 469.366 672.065 480.002 671.999C479.886 682.697 479.656 693.404 480.086 704.097L479.973 704.358C473.724 702.451 454.627 703.036 448.012 704.35L447.877 704.076C448.281 693.515 447.992 682.867 447.976 672.297L448.078 671.893Z"/>
	<path fill="#2D485A" transform="scale(0.0958368 0.0958368)" d="M544.024 671.999L575.992 672.043C575.858 682.706 575.576 693.445 576.036 704.099L575.949 704.511C568.757 702.944 551.505 703.472 544.05 704.521L543.95 704.103Q544.295 688.052 544.024 671.999Z"/>
	<path transform="scale(0.0958368 0.0958368)" d="M607.844 672.341C610.828 671.615 623.337 672.524 627.244 672.5Q665.618 671.999 703.994 671.991L704.037 703.942L641.006 704.123L640.796 735.772L607.989 736.022Q607.8 715.924 607.987 695.826C608.026 688.12 608.471 680.005 607.844 672.341Z"/>
	<path transform="scale(0.0958368 0.0958368)" d="M320.238 671.987L416.003 671.981C425.481 672.039 439.02 670.999 447.976 672.297C447.992 682.867 448.281 693.515 447.877 704.076C437.598 705.443 426.39 704.534 416.012 704.453L416.032 736.045Q400.025 736.012 384.02 736.301L383.976 704.464C362.973 703.083 341.475 704.056 320.421 704.119L320.238 671.987Z"/>
	<path fill="#8DAAB9" transform="scale(0.0958368 0.0958368)" d="M416.003 671.981C425.481 672.039 439.02 670.999 447.976 672.297C447.992 682.867 448.281 693.515 447.877 704.076C437.598 705.443 426.39 704.534 416.012 704.453L416.003 671.981Z"/>
	<path fill="#5E0167" transform="scale(0.0958368 0.0958368)" d="M736.057 863.964L767.596 863.981C767.721 874.469 767.003 885.614 767.859 896.002C757.25 896.023 746.604 896.232 736 895.926Q735.936 879.944 736.057 863.964Z"/>
	<path fill="#5E0167" transform="scale(0.0958368 0.0958368)" d="M704.488 895.982C714.927 896.01 725.595 895.499 736 895.926Q735.802 911.954 735.942 927.982L704.08 928.039Q703.716 912.003 704.488 895.982Z"/>
	<path fill="#5E0167" transform="scale(0.0958368 0.0958368)" d="M863.986 512.012L896.076 512.079L896.058 575.964L927.98 575.981L928.001 704.046L896.079 704.053C895.583 672.05 896.015 639.977 896.027 607.966C887.511 607.986 872.043 606.823 864.421 608.329L864 608.329L863.81 607.931C864.937 603.821 864.068 587.943 864.062 582.394L863.986 512.012Z"/>
	<path fill="#5E0167" transform="scale(0.0958368 0.0958368)" d="M896.012 256.003L927.955 256.052L927.99 512.044L896.076 512.079L896.012 256.003Z"/>
	<path transform="scale(0.0958368 0.0958368)" d="M864.405 256.328C873.44 254.184 886.552 255.699 896.012 256.003L896.076 512.079L863.986 512.012L864.062 582.394C864.068 587.943 864.937 603.821 863.81 607.931Q847.913 607.894 832.017 608.024L831.987 448.308C836.982 448.541 842.078 448.601 847.053 448.071L864.089 448.121C863.679 384.192 865.15 320.261 864.405 256.328Z"/>
	<path fill="#5E0167" transform="scale(0.0958368 0.0958368)" d="M256.429 864.047C266.96 863.896 277.503 863.975 288.035 863.959Q287.818 879.988 288.014 896.017L256.53 896.069L256.429 864.047Z"/>
	<path fill="#5E0167" transform="scale(0.0958368 0.0958368)" d="M256.422 767.983L288.41 768.036C288.285 775.345 288.609 829.451 287.604 831.856L192.353 831.995C191.568 821.477 192.064 810.596 192.041 800.028Q224.168 800.264 256.294 800.034L256.422 767.983Z"/>
	<path transform="scale(0.0958368 0.0958368)" d="M127.966 607.978L160.004 607.985L160.02 639.926C171.019 640.067 182.072 639.659 193.058 640.015C192.669 650.655 193.232 661.377 192.612 671.987L224.924 672.001C224.866 682.522 225.604 693.637 224.559 704.066C224.278 714.774 224.785 725.502 224.125 736.195C234.898 736.127 245.699 735.901 256.471 736.051L256.422 767.983L256.294 800.034Q224.168 800.264 192.041 800.028L160.484 800.066C160.132 789.396 160.421 778.707 160.048 768.03L128.516 768.042C127.702 746.774 128.346 725.345 128.044 704.049C127.193 672.111 127.917 639.936 127.966 607.978Z"/>
	<path fill="#5E0167" transform="scale(0.0958368 0.0958368)" d="M160.048 768.03L192.307 768.028C192.196 778.684 191.938 789.373 192.041 800.028L160.484 800.066C160.132 789.396 160.421 778.707 160.048 768.03Z"/>
	<path fill="#2D485A" transform="scale(0.0958368 0.0958368)" d="M224.125 736.195C234.898 736.127 245.699 735.901 256.471 736.051L256.422 767.983L224.038 768.392Q223.921 752.293 224.125 736.195Z"/>
	<path fill="#2D485A" transform="scale(0.0958368 0.0958368)" d="M160.02 639.926C171.019 640.067 182.072 639.659 193.058 640.015C192.669 650.655 193.232 661.377 192.612 671.987L160.045 671.98L160.02 639.926Z"/>
	<path fill="#5E0167" transform="scale(0.0958368 0.0958368)" d="M128.044 704.049L160.023 704.024C159.967 725.284 159.358 746.788 160.048 768.03L128.516 768.042C127.702 746.774 128.346 725.345 128.044 704.049Z"/>
	<path fill="#2D485A" transform="scale(0.0958368 0.0958368)" d="M192.612 671.987L224.924 672.001C224.866 682.522 225.604 693.637 224.559 704.066C224.278 714.774 224.785 725.502 224.125 736.195L192.506 736.492C192.495 715.013 192.111 693.457 192.612 671.987Z"/>
	<path fill="#5E0167" transform="scale(0.0958368 0.0958368)" d="M224.014 96.062C234.665 95.8912 245.339 95.9906 255.993 95.9688L255.965 127.706C257.877 127.744 259.815 127.711 261.718 127.901C259.92 127.89 258.002 127.652 256.429 128.648C255.38 130.595 256.003 133.37 255.919 135.546Q256.279 147.774 255.926 160.002L224.007 160.016L223.968 161.638Q224.275 176.799 223.955 191.96L191.979 192.009L191.913 196.217Q192.124 226.125 191.977 256.034L160.027 255.992L160.086 383.858C160.091 405.225 159.785 426.647 160.12 448.008C170.756 448 181.409 447.865 192.042 447.996L192.038 608.044L160.004 607.985L127.966 607.978C127.917 639.936 127.193 672.111 128.044 704.049L96.9695 704.091C96.4082 661.413 97.2556 618.72 96.5584 576.037L128.758 575.987C128.301 568.879 128.585 561.606 128.566 554.48Q128.58 533.255 128.354 512.031C117.746 511.902 107.119 512.044 96.5086 512.069L96.4197 256.077C106.946 255.613 117.52 255.688 128.056 255.58L128.024 192.019L160.112 191.799C159.97 181.209 160.065 170.602 160.05 160.011Q176.029 159.688 192.011 159.718C191.866 149.138 191.987 138.539 191.992 127.957C202.661 127.712 213.351 127.724 224.023 127.623L224.014 96.062Z"/>
	<path transform="scale(0.0958368 0.0958368)" d="M223.995 127.958Q239.76 128.026 255.525 127.858C255.518 130.449 255.687 132.968 255.919 135.546Q256.279 147.774 255.926 160.002L224.007 160.016C223.753 149.349 223.974 138.63 223.995 127.958Z"/>
	<path transform="scale(0.0958368 0.0958368)" d="M192.045 159.994C199.225 159.946 217.683 158.889 223.32 160.358L223.968 161.638Q224.275 176.799 223.955 191.96L191.979 192.009Q191.913 176.001 192.045 159.994Z"/>
	<path transform="scale(0.0958368 0.0958368)" d="M160.454 192.012C170.432 192.072 181.186 190.963 191.048 192.193C191.782 193.466 191.758 194.777 191.913 196.217Q192.124 226.125 191.977 256.034L160.027 255.992C159.88 247.729 160.307 239.411 160.4 231.143L160.454 192.012Z"/>
	<path transform="scale(0.0958368 0.0958368)" d="M128.088 255.961L160.027 255.992L160.086 383.858C160.091 405.225 159.785 426.647 160.12 448.008C170.756 448 181.409 447.865 192.042 447.996L192.038 608.044L160.004 607.985C159.419 576.048 159.971 543.971 160.023 512.024L128.273 511.984C127.698 500.367 127.978 488.606 127.976 476.972L127.978 420.502L128.088 255.961Z"/>
</svg>
