<?xml version="1.0" encoding="utf-8" ?>
<svg xmlns="http://www.w3.org/2000/svg" xmlns:xlink="http://www.w3.org/1999/xlink" width="417" height="417">
	<path fill="#562345" transform="scale(0.407715 0.407715)" d="M457.344 507.897C460.267 511.526 464.109 514.864 467.657 517.886C465.858 519.952 463.968 521.984 462.293 524.151C458.2 528.689 454.187 533.346 449.974 537.77C445.338 537.963 437.727 537.095 433.492 538.118C432.403 537.139 431.911 536.834 431.419 535.427C433.211 530.858 452.522 512.78 457.344 507.897Z"/>
	<path fill="#562345" transform="scale(0.407715 0.407715)" d="M498.366 609.326C501.473 612.489 505.303 615.125 508.092 618.549C494.186 630.69 481.595 644.383 468.373 657.262L370.945 753.944Q346.907 778.038 322.598 801.859C311.017 813.121 298.134 824.666 287.695 836.936C284.868 833.835 282.741 830.113 279.845 826.982C285.918 820.598 292.472 814.697 298.958 808.741C306.711 801.632 314.868 794.989 321.643 786.897C327.753 779.694 334.651 773.263 341.466 766.743C349.361 759.696 357.452 752.191 364.163 743.99C370.034 737.193 376.699 731.046 383.313 724.985C391.17 720.285 398.282 711.404 404.304 704.476C410.991 697.194 417.954 690.251 424.971 683.29L447.25 661.024Q458.272 650.056 469.464 639.261Q480.52 628.305 491.744 617.521C494.088 614.895 496.214 612.109 498.366 609.326Z"/>
	<path fill="#8B6897" transform="scale(0.407715 0.407715)" d="M467.657 517.886C483.1 533.695 499.28 548.824 515.064 564.298C521.89 571.164 528.592 578.271 535.815 584.719C538.102 587.433 541.993 592.465 545.614 593.099Q535.797 602.928 525.822 612.596L514.293 623.901C512.207 622.142 510.084 620.414 508.092 618.549C505.303 615.125 501.473 612.489 498.366 609.326Q488.275 598.135 477.679 587.421Q464.778 573.635 451.319 560.392C448.746 557.596 447.079 554.103 444.809 551.064C444.55 547.931 435.984 540.629 433.492 538.118C437.727 537.095 445.338 537.963 449.974 537.77C454.187 533.346 458.2 528.689 462.293 524.151C463.968 521.984 465.858 519.952 467.657 517.886Z"/>
	<path fill="#562345" transform="scale(0.407715 0.407715)" d="M535.815 584.719C538.102 587.433 541.993 592.465 545.614 593.099Q535.797 602.928 525.822 612.596C523.352 609.241 520.184 606.781 516.562 604.805C522.369 597.689 529.364 591.254 535.815 584.719Z"/>
	<path fill="#BD9FC8" transform="scale(0.407715 0.407715)" d="M462.293 524.151C475.363 533.854 485.806 546.995 498.025 557.729C493.628 562.97 488.999 568.324 483.441 572.37C472.178 561.074 460.254 549.966 449.974 537.77C454.187 533.346 458.2 528.689 462.293 524.151Z"/>
	<path fill="#5C2E68" transform="scale(0.407715 0.407715)" d="M433.492 538.118C437.727 537.095 445.338 537.963 449.974 537.77C460.254 549.966 472.178 561.074 483.441 572.37C493.935 583.699 505.638 593.894 516.562 604.805C520.184 606.781 523.352 609.241 525.822 612.596L514.293 623.901C512.207 622.142 510.084 620.414 508.092 618.549C505.303 615.125 501.473 612.489 498.366 609.326Q488.275 598.135 477.679 587.421Q464.778 573.635 451.319 560.392C448.746 557.596 447.079 554.103 444.809 551.064C444.55 547.931 435.984 540.629 433.492 538.118Z"/>
	<path fill="#146454" transform="scale(0.407715 0.407715)" d="M143.807 842.435C155.152 829.624 168.669 818.197 180.926 806.202C192.26 795.109 202.802 783.143 214.296 772.25C216.405 770.252 218.749 767.543 221.549 766.623C217.199 774.437 210.303 780.539 204.032 786.795Q191.359 799.471 178.97 812.424C172.413 819.186 165.064 825.746 160.049 833.772C170.849 851.726 199.641 877.379 215.721 892.399C231.001 878.769 245.288 864.132 259.672 849.571Q264.208 844.905 268.662 840.162C263.569 832.951 257.125 827.682 250.952 821.501C254.85 817.331 259.419 813.678 263.728 809.939C268.972 815.726 274.13 821.653 279.845 826.982C282.741 830.113 284.868 833.835 287.695 836.936C291.446 840.978 294.691 846.237 297.996 850.697Q260.245 886.236 223.176 922.487C196.416 896.028 168.804 870.661 143.807 842.435Z"/>
	<path fill="#5C2E68" transform="scale(0.407715 0.407715)" d="M477.567 468.658C480.292 471.539 483.436 474.256 485.938 477.302Q506.971 499.714 529.405 520.723C534.514 525.911 539.487 531.509 544.999 536.255C555.74 546.484 567.055 556.983 576.347 568.551C578.844 570.952 581.395 573.318 583.761 575.849Q576.026 583.133 568.477 590.609L555.782 603.091C552.379 599.8 548.818 596.583 545.614 593.099C541.993 592.465 538.102 587.433 535.815 584.719C528.592 578.271 521.89 571.164 515.064 564.298C499.28 548.824 483.1 533.695 467.657 517.886C464.109 514.864 460.267 511.526 457.344 507.897C454.575 504.506 450.814 501.401 447.662 498.335C456.304 487.463 467.416 478.093 477.567 468.658Z"/>
	<path fill="#562345" transform="scale(0.407715 0.407715)" d="M576.347 568.551C578.844 570.952 581.395 573.318 583.761 575.849Q576.026 583.133 568.477 590.609C565.252 588.367 562.216 586.084 559.274 583.481C564.499 577.822 569.937 572.854 576.347 568.551Z"/>
	<path fill="#8B6897" transform="scale(0.407715 0.407715)" d="M529.405 520.723C534.514 525.911 539.487 531.509 544.999 536.255C541.232 540.179 529.885 553.886 525.535 555.128L525.069 554.886C520.828 549.479 515.47 544.975 511.015 539.709C517.797 535.233 524.029 526.856 529.405 520.723Z"/>
	<path fill="#BD9FC8" transform="scale(0.407715 0.407715)" d="M485.938 477.302Q506.971 499.714 529.405 520.723C524.029 526.856 517.797 535.233 511.015 539.709Q488.912 517.881 467.909 494.993C473.505 488.738 479.837 483.06 485.938 477.302Z"/>
	<path fill="#329E6A" transform="scale(0.407715 0.407715)" d="M234.472 763.701C232.442 766.73 229.818 769.419 227.397 772.142C230.07 774.892 232.903 777.59 235.362 780.529C243.512 789.653 251.938 798.971 261.186 806.996L263.728 809.939C259.419 813.678 254.85 817.331 250.952 821.501C257.125 827.682 263.569 832.951 268.662 840.162Q264.208 844.905 259.672 849.571C245.288 864.132 231.001 878.769 215.721 892.399C199.641 877.379 170.849 851.726 160.049 833.772C165.064 825.746 172.413 819.186 178.97 812.424Q191.359 799.471 204.032 786.795C210.303 780.539 217.199 774.437 221.549 766.623L226.628 771.304C229.168 768.667 231.738 766.136 234.472 763.701Z"/>
	<path fill="#FDFEFC" transform="scale(0.407715 0.407715)" d="M215.159 793.614C218.476 796.997 222.032 800.142 225.533 803.332C219.467 810.12 212.862 816.456 206.326 822.79C201.849 827.128 196.702 831.446 193.135 836.595C189.188 833.489 185.727 829.674 182.191 826.113Q198.024 809.204 215.159 793.614Z"/>
	<path fill="#4BB779" transform="scale(0.407715 0.407715)" d="M225.533 803.332C227.843 805.979 230.136 809.39 232.908 811.521C238.487 815.813 245.891 816.348 250.952 821.501C257.125 827.682 263.569 832.951 268.662 840.162Q264.208 844.905 259.672 849.571C258.438 848.624 257.038 847.908 255.687 847.143C245.763 856.972 236.031 867.06 225.708 876.468Q219.096 869.386 212.575 862.22C206.847 855.303 199.562 849.911 193.89 842.85C193.625 840.746 193.558 838.686 193.135 836.595C196.702 831.446 201.849 827.128 206.326 822.79C212.862 816.456 219.467 810.12 225.533 803.332Z"/>
	<path fill="#146454" transform="scale(0.407715 0.407715)" d="M242.039 832.759C246.681 837.455 251.153 842.342 255.687 847.143C245.763 856.972 236.031 867.06 225.708 876.468Q219.096 869.386 212.575 862.22Q227.232 847.415 242.039 832.759Z"/>
	<path fill="#A45604" transform="scale(0.407715 0.407715)" d="M444.809 551.064C447.079 554.103 448.746 557.596 451.319 560.392Q464.778 573.635 477.679 587.421Q488.275 598.135 498.366 609.326C496.214 612.109 494.088 614.895 491.744 617.521Q480.52 628.305 469.464 639.261Q458.272 650.056 447.25 661.024L424.971 683.29C417.954 690.251 410.991 697.194 404.304 704.476C398.282 711.404 391.17 720.285 383.313 724.985C376.699 731.046 370.034 737.193 364.163 743.99C357.452 752.191 349.361 759.696 341.466 766.743C334.651 773.263 327.753 779.694 321.643 786.897C314.868 794.989 306.711 801.632 298.958 808.741C292.472 814.697 285.918 820.598 279.845 826.982C274.13 821.653 268.972 815.726 263.728 809.939L261.186 806.996C251.938 798.971 243.512 789.653 235.362 780.529C232.903 777.59 230.07 774.892 227.397 772.142C229.818 769.419 232.442 766.73 234.472 763.701C237.393 760.147 241.415 756.817 244.715 753.565Q256.208 742.326 267.462 730.848Q276.814 721.044 286.335 711.404Q297.077 700.033 308.03 688.863Q317.729 679.166 327.188 669.233C333.87 662.021 341.037 655.228 348.208 648.509L368.893 628.235Q380.647 616.532 392.167 604.598C398.86 597.586 405.856 590.819 412.696 583.947C423.43 573.02 434.489 562.388 444.809 551.064Z"/>
	<path fill="#763D01" transform="scale(0.407715 0.407715)" d="M327.188 669.233C333.87 662.021 341.037 655.228 348.208 648.509L355.396 655.831C348.456 662.427 341.416 668.93 335.203 676.233C332.225 674.145 329.992 671.446 327.188 669.233Z"/>
	<path fill="#763D01" transform="scale(0.407715 0.407715)" d="M308.03 688.863C310.528 691.094 313.115 693.28 315.472 695.66C308.348 703.225 301.958 712.125 294.118 718.897C291.614 716.362 289.15 713.585 286.335 711.404Q297.077 700.033 308.03 688.863Z"/>
	<path fill="#763D01" transform="scale(0.407715 0.407715)" d="M368.893 628.235Q380.647 616.532 392.167 604.598C394.765 607.036 397.312 609.47 399.707 612.109C391.601 619.518 384.253 628.114 375.847 635.104L368.893 628.235Z"/>
	<path fill="#763D01" transform="scale(0.407715 0.407715)" d="M244.715 753.565Q256.208 742.326 267.462 730.848C269.894 733.504 272.506 736.11 274.735 738.935C267.317 746.379 259.763 753.733 252.494 761.321C249.952 758.746 247.456 755.916 244.715 753.565Z"/>
	<path fill="#C56F13" transform="scale(0.407715 0.407715)" d="M451.319 560.392Q464.778 573.635 477.679 587.421C475.328 590.09 473.077 592.854 470.207 594.986C462.34 585.09 452.85 577.274 443.999 568.36L451.319 560.392Z"/>
	<path fill="#763D01" transform="scale(0.407715 0.407715)" d="M444.809 551.064C447.079 554.103 448.746 557.596 451.319 560.392L443.999 568.36C436.62 576.334 428.801 583.795 420.911 591.259C418.115 588.877 415.323 586.516 412.696 583.947C423.43 573.02 434.489 562.388 444.809 551.064Z"/>
	<path fill="#763D01" transform="scale(0.407715 0.407715)" d="M362.857 704.664C369.097 697.226 376.49 690.662 383.504 683.96C390.594 690.618 397.398 697.624 404.304 704.476C398.282 711.404 391.17 720.285 383.313 724.985Q373.356 714.552 362.857 704.664Z"/>
	<path fill="#763D01" transform="scale(0.407715 0.407715)" d="M301.826 766.448Q311.577 776.825 321.643 786.897C314.868 794.989 306.711 801.632 298.958 808.741C292.242 802.104 286.301 794.799 279.413 788.307C285.681 780.22 294.31 773.37 301.826 766.448Z"/>
	<path fill="#763D01" transform="scale(0.407715 0.407715)" d="M344.218 724.424Q354.095 734.304 364.163 743.99C357.452 752.191 349.361 759.696 341.466 766.743C334.754 760.085 327.775 753.919 321.625 746.704C328.996 739.147 336.801 731.96 344.218 724.424Z"/>
	<path fill="#763D01" transform="scale(0.407715 0.407715)" d="M426.722 639.6C434.525 645.639 440.912 653.522 447.25 661.024L424.971 683.29Q414.234 673.207 403.901 662.709C411.994 655.435 419.651 647.876 426.722 639.6Z"/>
	<path fill="#763D01" transform="scale(0.407715 0.407715)" d="M470.211 595.05C478.067 601.92 484.824 609.743 491.744 617.521Q480.52 628.305 469.464 639.261C462.164 631.862 454.263 625.01 446.858 617.698C454.831 610.343 462.471 602.648 470.211 595.05Z"/>
	<path fill="#D9861E" transform="scale(0.407715 0.407715)" d="M235.362 780.529C240.296 773.582 246.374 767.818 252.369 761.804C262.035 769.172 271.627 778.968 279.255 788.422C273.26 794.624 267.398 801.014 261.186 806.996C251.938 798.971 243.512 789.653 235.362 780.529Z"/>
	<path fill="#D9861E" transform="scale(0.407715 0.407715)" d="M293.489 719.277C297.028 720.847 315.095 741.802 321.579 746.694C315.393 753.169 308.915 759.378 302.528 765.655L301.829 765.81C292.858 759.813 283.361 746.499 274.596 738.824C280.265 731.823 287.087 725.608 293.489 719.277Z"/>
	<path fill="#D9861E" transform="scale(0.407715 0.407715)" d="M420.541 591.419C429.645 599.725 438.178 608.942 446.904 617.663C439.87 624.684 433.623 632.459 426.555 639.445C421.926 632.745 406.577 618.628 399.986 612.301C406.515 604.94 413.015 597.79 420.541 591.419Z"/>
	<path fill="#D9861E" transform="scale(0.407715 0.407715)" d="M335.367 676.601C344.43 683.595 355.571 695.745 362.825 704.821Q353.595 714.705 343.984 724.22C334.135 715.052 324.498 705.704 315.817 695.411C322.254 689.116 328.047 681.901 335.367 676.601Z"/>
	<path fill="#D9861E" transform="scale(0.407715 0.407715)" d="M375.489 635.272C378.783 636.78 389.595 649.706 392.783 652.951Q397.822 658.161 403.394 662.795C397.08 669.85 390.437 676.647 383.836 683.435C381.747 683.14 358.654 658.916 355.54 655.788C361.916 648.696 368.819 642.087 375.489 635.272Z"/>
	<path fill="#123679" transform="scale(0.407715 0.407715)" d="M388.187 232.052C391.557 235.321 396.423 241.281 400.603 243.152L419.831 260.579C411.047 265.742 404.552 273.048 397.752 280.504C400.581 283.133 403.549 285.701 406.213 288.494C407.767 289.795 409.37 291.065 410.844 292.456Q430.706 311.75 450.318 331.298C456.386 337.295 463.569 343.086 468.574 350.009C465.838 359.275 466.315 385.067 467.908 394.921C466.24 397.186 464.043 398.909 461.91 400.713Q455.075 407.584 448.542 414.744L554.241 520.121L598.481 564.737C606.511 572.826 614.391 581.217 622.767 588.943C626.973 584.053 631.829 579.561 636.393 574.998C644.651 566.742 652.971 558.074 662.286 551.008C672.937 542.131 682.312 531.789 692.201 522.092Q721.188 494.046 749.775 465.592L801.234 415.021C810.677 405.739 825.264 393.759 831.967 382.831C831.948 378.562 831.88 374.291 832.116 370.027C841.152 378.417 856.194 390.788 863.078 400.502C869.9 398.577 877.948 399.879 884.996 399.823C884.104 435.75 885.114 471.926 885.375 507.873C854.477 538.746 822.771 568.823 791.678 599.503L761.905 628.91C754.846 635.968 747.704 643.946 739.759 649.979Q728.858 638.443 717.509 627.348C704.334 640.806 691.277 655.611 676.483 667.285L613.206 604.708L593.694 585.657C590.446 582.502 586.622 579.336 583.761 575.849C581.395 573.318 578.844 570.952 576.347 568.551C567.055 556.983 555.74 546.484 544.999 536.255C539.487 531.509 534.514 525.911 529.405 520.723Q506.971 499.714 485.938 477.302C483.436 474.256 480.292 471.539 477.567 468.658C473.297 464.137 468.629 459.889 464.233 455.475L429.393 420.618C433.394 416.635 438.016 413.016 442.294 409.318C434.533 402.267 427.233 394.509 419.864 387.046L387.24 353.968C386.848 330.399 387.625 306.741 387.676 283.161C387.696 274.237 386.414 238.088 388.187 232.052Z"/>
	<path fill="#09AAD5" transform="scale(0.407715 0.407715)" d="M862.961 400.886C864.261 430.962 863.671 461.07 863.497 491.165C858.276 487.373 853.902 482.545 849.052 478.299C838.559 467.016 826.659 457.051 816.588 445.384C823.845 439.68 830.239 432.56 836.768 426.05Q849.588 413.18 862.961 400.886Z"/>
	<path fill="#2E8E67" transform="scale(0.407715 0.407715)" d="M406.213 288.494C407.767 289.795 409.37 291.065 410.844 292.456Q430.706 311.75 450.318 331.298C456.386 337.295 463.569 343.086 468.574 350.009C465.838 359.275 466.315 385.067 467.908 394.921C466.24 397.186 464.043 398.909 461.91 400.713C458.699 399.077 455.963 397.339 453.518 394.672C447.082 387.271 439.705 380.594 432.673 373.77C423.279 364.653 414.175 355.418 405.5 345.606C405.58 326.73 404.593 307.282 406.213 288.494Z"/>
	<path fill="#146454" transform="scale(0.407715 0.407715)" d="M453.518 394.672C457.683 394.131 464.082 392.696 467.908 394.921C466.24 397.186 464.043 398.909 461.91 400.713C458.699 399.077 455.963 397.339 453.518 394.672Z"/>
	<path fill="#3F8BB7" transform="scale(0.407715 0.407715)" d="M849.052 478.299C853.902 482.545 858.276 487.373 863.497 491.165C863.639 493.567 863.749 495.97 864.044 498.359Q831.417 531.153 798.425 563.578C778.766 582.73 758.699 601.483 739.822 621.409C733.945 615.608 728.165 609.642 722.121 604.019C725.333 601.242 728.39 598.465 731.271 595.343C732.729 593.523 734.454 591.865 736.058 590.169C745.129 582.586 753.354 574.094 761.728 565.764Q776.435 551.285 790.995 536.659C810.297 517.216 830.238 498.194 849.052 478.299Z"/>
	<path fill="#146454" transform="scale(0.407715 0.407715)" d="M662.286 551.008C669.827 558.784 677.694 566.186 685.486 573.704C689.358 569.404 693.185 565.103 696.833 560.609C703.969 567.949 710.977 575.431 718.402 582.481C721.487 585.337 724.546 588.226 727.669 591.04L731.271 595.343C728.39 598.465 725.333 601.242 722.121 604.019C720.674 602.893 718.773 601.118 716.984 600.643C715.448 600.236 714.696 600.83 713.409 601.478C703.451 615.314 687.582 627.972 675.282 639.99C657.683 623.081 640.668 605.533 622.767 588.943C626.973 584.053 631.829 579.561 636.393 574.998C644.651 566.742 652.971 558.074 662.286 551.008Z"/>
	<path fill="#09AAD5" transform="scale(0.407715 0.407715)" d="M685.486 573.704C689.358 569.404 693.185 565.103 696.833 560.609C703.969 567.949 710.977 575.431 718.402 582.481C721.487 585.337 724.546 588.226 727.669 591.04L731.271 595.343C728.39 598.465 725.333 601.242 722.121 604.019C720.674 602.893 718.773 601.118 716.984 600.643C715.448 600.236 714.696 600.83 713.409 601.478C703.679 592.672 694.648 583.092 685.486 573.704Z"/>
	<path fill="#A45604" transform="scale(0.407715 0.407715)" d="M811.774 440.516L816.588 445.384C826.659 457.051 838.559 467.016 849.052 478.299C830.238 498.194 810.297 517.216 790.995 536.659Q776.435 551.285 761.728 565.764C753.354 574.094 745.129 582.586 736.058 590.169C734.454 591.865 732.729 593.523 731.271 595.343L727.669 591.04C724.546 588.226 721.487 585.337 718.402 582.481C723.227 579.344 727.053 575.791 731.071 571.669C735.319 567.482 739.765 563.466 744.12 559.389C735.022 553.186 725.377 541.939 718.292 533.527C723.263 527.028 729.21 521.615 735.434 516.367C746.149 505.512 757.672 495.491 767.652 483.918C773.01 477.338 779.263 471.99 785.609 466.4C791.444 461.094 796.923 455.342 802.495 449.76L811.774 440.516Z"/>
	<path fill="#A5AB99" transform="scale(0.407715 0.407715)" d="M727.669 591.04C730.529 589.984 733.079 590.037 736.058 590.169C734.454 591.865 732.729 593.523 731.271 595.343L727.669 591.04Z"/>
	<path fill="#D9861E" transform="scale(0.407715 0.407715)" d="M802.495 449.76C815.121 457.058 822.305 462.002 830.199 474.524Q821.316 483.916 812.215 493.097C803.748 483.747 794.762 475.064 785.609 466.4C791.444 461.094 796.923 455.342 802.495 449.76Z"/>
	<path fill="#D9861E" transform="scale(0.407715 0.407715)" d="M767.652 483.918C773.01 477.338 779.263 471.99 785.609 466.4C794.762 475.064 803.748 483.747 812.215 493.097Q803.733 501.607 795.017 509.877Q785.718 519.065 776.282 528.111C771.394 532.742 766.054 537.209 761.792 542.424Q753.241 551.203 744.12 559.389C735.022 553.186 725.377 541.939 718.292 533.527C723.263 527.028 729.21 521.615 735.434 516.367C746.149 505.512 757.672 495.491 767.652 483.918Z"/>
	<path fill="#F9DB63" transform="scale(0.407715 0.407715)" d="M735.434 516.367C744.845 523.703 754.314 533.111 761.792 542.424Q753.241 551.203 744.12 559.389C735.022 553.186 725.377 541.939 718.292 533.527C723.263 527.028 729.21 521.615 735.434 516.367Z"/>
	<path fill="#F9DB63" transform="scale(0.407715 0.407715)" d="M767.652 483.918C773.01 477.338 779.263 471.99 785.609 466.4C794.762 475.064 803.748 483.747 812.215 493.097Q803.733 501.607 795.017 509.877C786.24 504.327 775.236 491.551 767.652 483.918Z"/>
	<path fill="#7AE1D9" transform="scale(0.407715 0.407715)" d="M831.967 382.831C831.948 378.562 831.88 374.291 832.116 370.027C841.152 378.417 856.194 390.788 863.078 400.502L862.961 400.886Q849.588 413.18 836.768 426.05C830.239 432.56 823.845 439.68 816.588 445.384L811.774 440.516L802.495 449.76C796.923 455.342 791.444 461.094 785.609 466.4C779.263 471.99 773.01 477.338 767.652 483.918C757.672 495.491 746.149 505.512 735.434 516.367C729.21 521.615 723.263 527.028 718.292 533.527C725.377 541.939 735.022 553.186 744.12 559.389C739.765 563.466 735.319 567.482 731.071 571.669C727.053 575.791 723.227 579.344 718.402 582.481C710.977 575.431 703.969 567.949 696.833 560.609C693.185 565.103 689.358 569.404 685.486 573.704C677.694 566.186 669.827 558.784 662.286 551.008C672.937 542.131 682.312 531.789 692.201 522.092Q721.188 494.046 749.775 465.592L801.234 415.021C810.677 405.739 825.264 393.759 831.967 382.831Z"/>
	<path fill="#D9861E" transform="scale(0.407715 0.407715)" d="M718.292 533.527C725.377 541.939 735.022 553.186 744.12 559.389C739.765 563.466 735.319 567.482 731.071 571.669C727.053 575.791 723.227 579.344 718.402 582.481C710.977 575.431 703.969 567.949 696.833 560.609L695.575 558.669L695.257 558.202C695.953 553.903 714.166 537.94 718.292 533.527Z"/>
	<path fill="#C56F13" transform="scale(0.407715 0.407715)" d="M695.575 558.669C700.37 559.429 705.492 562.09 710.02 563.872C716.991 566.616 723.959 569.307 731.071 571.669C727.053 575.791 723.227 579.344 718.402 582.481C710.977 575.431 703.969 567.949 696.833 560.609L695.575 558.669Z"/>
	<path fill="#344F97" transform="scale(0.407715 0.407715)" d="M596.58 99.6431C609.668 111.829 621.934 125.009 634.778 137.472C644.651 147.051 655.839 156.217 664.775 166.662C670.777 173.677 667.878 180.902 676.683 189.935C694.498 208.211 713.053 225.873 731.118 243.912L829.397 342.745L864.385 377.673C871.204 384.492 879.699 391.8 884.996 399.823C877.948 399.879 869.9 398.577 863.078 400.502C856.194 390.788 841.152 378.417 832.116 370.027C828.769 365.906 825.366 362.03 821.524 358.358L819.741 358.508C805.166 357.124 790.031 358.142 775.422 358.632L774.566 359.14C754.724 358.224 734.917 359.954 715.016 358.802C709.648 354.528 704.878 349.107 700.076 344.212C687.906 331.81 675.651 318.241 662.07 307.371C661.334 301.968 661.604 296.395 661.504 290.95L661.185 254.572L661.558 252.868C656.646 248.152 664.294 211.748 659.836 203.002L661.681 200.976C661.409 194.432 661.519 187.849 661.512 181.299C657.708 177.271 653.788 173.624 649.332 170.325C641.658 179.196 633.1 187.322 624.784 195.586L588.33 231.626L506.381 311.578Q487.365 330.683 468.574 350.009C463.569 343.086 456.386 337.295 450.318 331.298Q430.706 311.749 410.844 292.456C409.37 291.065 407.767 289.795 406.213 288.494C403.549 285.701 400.581 283.133 397.752 280.504C404.552 273.048 411.047 265.742 419.831 260.579L400.603 243.152C396.423 241.281 391.557 235.321 388.187 232.052C407.108 211.301 428.092 192.261 448.185 172.649C472.21 149.198 495.709 125.205 519.857 101.885C531.574 113.231 545.902 129.025 558.362 138.686C571.111 125.655 584.185 113.028 596.58 99.6431Z"/>
	<path fill="#51CFEF" transform="scale(0.407715 0.407715)" d="M545.946 146.715C550.107 150.835 554.286 154.941 558.929 158.527C557.949 159.861 557.008 161.253 555.889 162.472L552.787 161.045C548.601 158.115 545.142 154.384 541.684 150.657C543.361 149.669 544.622 148.121 545.946 146.715Z"/>
	<path fill="#8DEBF5" transform="scale(0.407715 0.407715)" d="M596.331 121.412C604.893 130.508 614.18 138.931 623.263 147.5C618.158 154.717 611.17 161.024 604.951 167.3C597.942 174.372 591.004 181.688 583.654 188.403C575.568 178.885 565.472 170.45 555.889 162.472C557.008 161.253 557.949 159.861 558.929 158.527C570.952 145.756 583.769 133.648 596.331 121.412Z"/>
	<path fill="#8DEBF5" transform="scale(0.407715 0.407715)" d="M400.603 243.152L474.946 169.374C490.517 153.835 505.195 137.678 521.951 123.356Q533.872 135.114 545.946 146.715C544.622 148.121 543.361 149.669 541.684 150.657C538.361 152.319 535.487 155.136 532.773 157.642C524.902 164.914 517.585 172.837 509.931 180.342L461.197 228.018L439.7 249.31C435.866 253.13 431.241 256.878 428.285 261.407C430.245 263.804 432.31 266.011 434.483 268.216C426.432 276.207 418.124 283.721 410.844 292.456C409.37 291.065 407.767 289.795 406.213 288.494C403.549 285.701 400.581 283.133 397.752 280.504C404.552 273.048 411.047 265.742 419.831 260.579L400.603 243.152Z"/>
	<path fill="#F9DB63" transform="scale(0.407715 0.407715)" d="M428.285 261.407C431.241 256.878 435.866 253.13 439.7 249.31L461.197 228.018L509.931 180.342C517.585 172.837 524.902 164.914 532.773 157.642C535.487 155.136 538.361 152.319 541.684 150.657C545.142 154.384 548.601 158.115 552.787 161.045L555.889 162.472C565.472 170.45 575.568 178.885 583.654 188.403L583.644 188.866C569.997 196.217 561.424 207.078 550.209 217.34Q541.419 225.549 532.84 233.977L501.55 264.745C495.992 270.162 490.184 275.373 484.714 280.868C478.792 287.28 472.096 293.102 466.46 299.745C457.74 290.433 449.177 281.119 439.461 272.825L439.097 272.888C437.698 271.245 436.011 269.747 434.483 268.216C432.31 266.011 430.245 263.804 428.285 261.407Z"/>
	<path fill="#D9861E" transform="scale(0.407715 0.407715)" d="M474.713 238.519Q490.959 222.102 507.508 205.989C514.869 216.244 524.653 224.418 532.84 233.977L501.55 264.745L474.713 238.519Z"/>
	<path fill="#D9861E" transform="scale(0.407715 0.407715)" d="M457.819 254.364C463.505 249.144 469.084 243.8 474.713 238.519L501.55 264.745C495.992 270.162 490.184 275.373 484.714 280.868C478.792 287.28 472.096 293.102 466.46 299.745C457.74 290.433 449.177 281.119 439.461 272.825C446.173 267.529 452.012 260.607 457.819 254.364Z"/>
	<path fill="#D7D490" transform="scale(0.407715 0.407715)" d="M457.819 254.364C463.505 249.144 469.084 243.8 474.713 238.519L501.55 264.745C495.992 270.162 490.184 275.373 484.714 280.868C474.78 273.152 466.348 263.561 457.819 254.364Z"/>
	<path fill="#D9861E" transform="scale(0.407715 0.407715)" d="M552.787 161.045L555.889 162.472C565.472 170.45 575.568 178.885 583.654 188.403L583.644 188.866C569.997 196.217 561.424 207.078 550.209 217.34Q541.419 225.549 532.84 233.977C524.653 224.418 514.869 216.244 507.508 205.989L522.842 190.24C533.009 180.488 541.731 169.965 552.787 161.045Z"/>
	<path fill="#D7D490" transform="scale(0.407715 0.407715)" d="M522.842 190.24L550.209 217.34Q541.419 225.549 532.84 233.977C524.653 224.418 514.869 216.244 507.508 205.989L522.842 190.24Z"/>
	<path fill="#7AE1D9" transform="scale(0.407715 0.407715)" d="M623.263 147.5C631.811 155.26 640.269 163.161 649.332 170.325C641.658 179.196 633.1 187.322 624.784 195.586L588.33 231.626L506.381 311.578Q487.365 330.683 468.574 350.009C463.569 343.086 456.386 337.295 450.318 331.298Q430.706 311.749 410.844 292.456C418.124 283.721 426.432 276.207 434.483 268.216C436.011 269.747 437.698 271.245 439.097 272.888L439.461 272.825C449.177 281.119 457.74 290.433 466.46 299.745C472.096 293.102 478.792 287.28 484.714 280.868C490.184 275.373 495.992 270.162 501.55 264.745L532.84 233.977Q541.419 225.549 550.209 217.34C561.424 207.078 569.997 196.217 583.644 188.866L583.654 188.403C591.004 181.688 597.942 174.372 604.951 167.3C611.17 161.024 618.158 154.717 623.263 147.5Z"/>
	<path fill="#C56F13" transform="scale(0.407715 0.407715)" d="M439.461 272.825C449.177 281.119 457.74 290.433 466.46 299.745C466.463 303.92 466.521 308.102 466.459 312.275C455.149 301.19 444.315 289.313 433.393 277.826L439.097 272.888L439.461 272.825Z"/>
	<path fill="#A45604" transform="scale(0.407715 0.407715)" d="M583.644 188.866C585.228 191.923 586.074 195.509 586.855 198.855L516.563 268.186C504.768 279.978 493.107 291.918 480.96 303.347C477.07 307.008 473.328 311.068 469.175 314.418C467.7 314.269 467.387 313.362 466.459 312.275C466.521 308.102 466.463 303.92 466.46 299.745C472.096 293.102 478.792 287.28 484.714 280.868C490.184 275.373 495.992 270.162 501.55 264.745L532.84 233.977Q541.419 225.549 550.209 217.34C561.424 207.078 569.997 196.217 583.644 188.866Z"/>
	<path fill="#7AE1D9" transform="scale(0.407715 0.407715)" d="M661.681 200.976Q731.009 269.626 801.172 337.424C808.122 344.144 815.403 350.857 821.524 358.358L819.741 358.508C805.166 357.124 790.031 358.142 775.422 358.632L774.566 359.14C754.724 358.224 734.917 359.954 715.016 358.802C709.648 354.528 704.878 349.107 700.076 344.212C687.906 331.81 675.651 318.241 662.07 307.371C661.334 301.968 661.604 296.395 661.504 290.95L661.185 254.572L661.558 252.868C656.646 248.152 664.294 211.748 659.836 203.002L661.681 200.976Z"/>
	<path fill="#8DEBF5" transform="scale(0.407715 0.407715)" d="M801.172 337.424C808.122 344.144 815.403 350.857 821.524 358.358L819.741 358.508C805.166 357.124 790.031 358.142 775.422 358.632C768.898 352.15 762.058 345.966 755.386 339.634C761.064 336.305 791.769 338.927 801.172 337.424Z"/>
	<path fill="#09AAD5" transform="scale(0.407715 0.407715)" d="M661.558 252.868C669.485 257.87 678.527 269.072 685.668 275.82Q709.936 298.602 734.845 320.682C741.75 326.916 748.161 333.783 755.386 339.634C762.058 345.966 768.898 352.15 775.422 358.632L774.566 359.14C754.724 358.224 734.917 359.954 715.016 358.802C709.648 354.528 704.878 349.107 700.076 344.212C687.906 331.81 675.651 318.241 662.07 307.371C661.334 301.968 661.604 296.395 661.504 290.95L661.185 254.572L661.558 252.868Z"/>
	<path fill="#329E6A" transform="scale(0.407715 0.407715)" d="M649.332 170.325C653.788 173.624 657.708 177.271 661.512 181.299C661.519 187.849 661.409 194.432 661.681 200.976L659.836 203.002C664.294 211.748 656.646 248.152 661.558 252.868L661.185 254.572L661.504 290.95C661.604 296.395 661.334 301.968 662.07 307.371C675.651 318.241 687.906 331.81 700.076 344.212C704.878 349.107 709.648 354.528 715.016 358.802C734.917 359.954 754.724 358.224 774.566 359.14L775.422 358.632C790.031 358.142 805.166 357.124 819.741 358.508L821.524 358.358C825.366 362.03 828.769 365.906 832.116 370.027C831.88 374.291 831.948 378.562 831.967 382.831C825.264 393.759 810.677 405.739 801.234 415.021L749.775 465.592Q721.188 494.046 692.201 522.092C682.312 531.789 672.937 542.131 662.286 551.008C652.971 558.074 644.651 566.742 636.393 574.998C631.829 579.561 626.973 584.053 622.767 588.943C614.391 581.217 606.511 572.826 598.481 564.737L554.241 520.121L448.542 414.744Q455.075 407.584 461.91 400.713C464.043 398.909 466.24 397.186 467.908 394.921C466.315 385.067 465.838 359.275 468.574 350.009Q487.365 330.683 506.381 311.578L588.33 231.626L624.784 195.586C633.1 187.322 641.658 179.196 649.332 170.325Z"/>
	<path fill="#7AE1D9" transform="scale(0.407715 0.407715)" d="M468.524 394.668C474.021 395.941 480.072 395.148 485.689 395.055Q497.605 394.857 509.523 394.846C512.726 394.852 516.967 394.504 519.971 395.573L521.018 396.36Q573.959 449.079 626.126 502.563L626.57 504.461C625.787 519.067 626.676 533.506 626.337 548.076C626.049 548.266 625.667 548.243 625.329 548.308C615.223 541.064 602.65 528.141 593.121 519.313C561.971 490.453 532.108 460.096 501.974 430.174C496.062 424.305 470.51 400.739 468.064 395.49L468.524 394.668Z"/>
	<path fill="#4BB779" transform="scale(0.407715 0.407715)" d="M775.422 358.632C790.031 358.142 805.166 357.124 819.741 358.508C813.392 365.198 805.787 371.065 798.973 377.31Q778.624 396.182 758.483 415.275Q689.802 479.081 626.337 548.076C626.676 533.506 625.787 519.067 626.57 504.461C628.274 503.796 629.732 502.33 631.048 501.091C635.022 497.349 638.657 493.217 642.517 489.354L666.642 465.622L774.566 359.14L775.422 358.632Z"/>
	<path fill="#3F8BB7" transform="scale(0.407715 0.407715)" d="M715.016 358.802C734.917 359.954 754.724 358.224 774.566 359.14L666.642 465.622L642.517 489.354C638.657 493.217 635.022 497.349 631.048 501.091C629.732 502.33 628.274 503.796 626.57 504.461L626.126 502.563L626.007 471.109C625.988 463.331 625.725 455.441 626.562 447.699C637.454 437.727 647.276 426.828 657.604 416.301C676.559 396.982 695.681 377.738 715.016 358.802Z"/>
	<path fill="#8DEBF5" transform="scale(0.407715 0.407715)" d="M659.836 203.002C664.294 211.748 656.646 248.152 661.558 252.868L661.185 254.572C655.947 258.801 651.263 264.012 646.523 268.794L622.672 292.822L555.584 360.057C543.776 371.891 532.211 384.197 519.971 395.573C516.967 394.504 512.726 394.852 509.523 394.846Q497.605 394.857 485.689 395.055C480.072 395.148 474.021 395.941 468.524 394.668C489.496 374.871 509.456 354.179 529.928 333.879Q595.647 269.2 659.836 203.002Z"/>
	<path fill="#51CFEF" transform="scale(0.407715 0.407715)" d="M519.971 395.573C532.211 384.197 543.776 371.891 555.584 360.057L622.672 292.822L646.523 268.794C651.263 264.012 655.947 258.801 661.185 254.572L661.504 290.95C661.604 296.395 661.334 301.968 662.07 307.371C675.651 318.241 687.906 331.81 700.076 344.212C704.878 349.107 709.648 354.528 715.016 358.802C695.681 377.738 676.559 396.982 657.604 416.301C647.276 426.828 637.454 437.727 626.562 447.699C625.725 455.441 625.988 463.331 626.007 471.109L626.126 502.563Q573.959 449.078 521.018 396.36L519.971 395.573Z"/>
	<path fill="#8DEBF5" transform="scale(0.407715 0.407715)" d="M652.794 298.547C656.093 301.216 658.855 304.24 661.792 307.284C661.511 310.147 661.16 312.664 660.153 315.386Q656.763 312.599 653.794 309.367Q650.825 306.136 648.335 302.522C649.768 301.068 651.123 299.725 652.794 298.547Z"/>
	<path fill="#FDFEFC" transform="scale(0.407715 0.407715)" d="M648.335 302.522Q650.825 306.136 653.794 309.367Q656.763 312.599 660.153 315.386C653.456 323.779 645.305 331.353 637.741 338.982Q619.056 357.884 600.079 376.493C595.096 381.374 582.373 395.103 577.078 398.099L576.641 397.895C573.123 394.014 569.399 390.319 565.723 386.587C591.956 357.39 620.507 330.195 648.335 302.522Z"/>
</svg>
