<?xml version="1.0" encoding="utf-8" ?>
<svg xmlns="http://www.w3.org/2000/svg" xmlns:xlink="http://www.w3.org/1999/xlink" width="417" height="417">
	<path fill="#6A1413" transform="scale(0.407715 0.407715)" d="M797.564 364.767C802.326 361.049 807.811 353.815 813.259 351.618C811.837 356.026 804.505 368.944 804.421 371L804.15 371.068C802.183 368.83 799.746 366.81 797.564 364.767Z"/>
	<path fill="#6A1413" transform="scale(0.407715 0.407715)" d="M926.488 449.529C926.022 456.359 926.231 463.224 925.389 470.019Q919.913 477.418 914.353 484.754C910.687 482.33 907.867 478.321 904.193 475.669C905.442 473.932 906.588 472.156 907.713 470.338L915.94 460.812C919.183 457.566 924.481 453.556 926.488 449.529Z"/>
	<path fill="#464A42" transform="scale(0.407715 0.407715)" d="M596.869 125.665C604.642 123.681 613.134 111.949 622.725 109.79C626.642 108.907 631.36 109.464 635.422 109.264C630.78 113.339 625.786 117.322 621.493 121.752C616.235 127.021 607.233 137.321 601.536 141.212C597.47 136.839 599.555 130.556 596.869 125.665Z"/>
	<path fill="#FCDD2E" transform="scale(0.407715 0.407715)" d="M892.626 436.923C895.573 433.945 898.596 430.476 902.029 428.069C903.124 427.301 903.721 426.912 905.052 427.103C911.93 433.989 921.002 441.598 926.488 449.529C924.481 453.556 919.183 457.566 915.94 460.812C908.317 452.847 899.806 445.229 892.626 436.923Z"/>
	<path fill="#A15719" transform="scale(0.407715 0.407715)" d="M911.563 396.509C910.077 406.126 909.367 418.111 905.14 426.91C905.109 426.973 905.081 427.038 905.052 427.103C903.721 426.912 903.124 427.301 902.029 428.069C898.596 430.476 895.573 433.945 892.626 436.923L890.76 438.437Q884.79 433.923 878.625 429.679Q887.414 420.496 896.379 411.485C901.165 406.191 905.752 400.717 911.563 396.509Z"/>
	<path fill="#D03318" transform="scale(0.407715 0.407715)" d="M892.626 436.923C899.806 445.229 908.317 452.847 915.94 460.812L907.713 470.338C906.588 472.156 905.442 473.932 904.193 475.669C899.977 479.925 895.227 485.87 890.087 488.945C891.562 485.803 894.392 485.392 894.443 481.475L893.991 481.037C892.702 480.562 888.502 480.431 887.209 481.044C886.959 481.163 886.732 481.326 886.494 481.467C885.722 481.448 885.132 481.288 884.41 481.036L883.516 480.719C883.827 480.111 884.05 479.426 884.298 478.79C882.006 474.773 879.619 470.139 879.434 465.451C882.439 459.948 881.987 453.286 882.021 447.201L881.788 446.761C884.205 443.655 887.788 440.995 890.76 438.437L892.626 436.923Z"/>
	<path fill="#D88134" transform="scale(0.407715 0.407715)" d="M892.626 436.923C899.806 445.229 908.317 452.847 915.94 460.812L907.713 470.338C898.79 463.037 891.017 454.398 882.021 447.201L881.788 446.761C884.205 443.655 887.788 440.995 890.76 438.437L892.626 436.923Z"/>
	<path fill="#311414" transform="scale(0.407715 0.407715)" d="M815.962 306.887C814.146 319.037 816.489 341.789 813.259 351.618C807.811 353.815 802.326 361.049 797.564 364.767Q787.66 354.882 777.48 345.281C781.808 340.836 786.796 336.962 791.167 332.497Q799.263 324.085 807.242 315.561C809.955 312.686 812.729 309.149 815.962 306.887Z"/>
	<path fill="#26162A" transform="scale(0.407715 0.407715)" d="M349.943 275.249C356.873 280.878 363.03 287.816 368.777 294.631C359.209 303.801 350.635 313.894 341.092 323.09C334.445 316.662 327.587 310.499 321.104 303.897C330.111 293.903 340.415 284.78 349.943 275.249Z"/>
	<path fill="#4B0B0E" transform="scale(0.407715 0.407715)" d="M675.798 150.621C674.936 161.486 675.716 172.53 675.143 183.44C669.742 190.956 661.893 196.803 656.239 204.327C656.877 209.137 657.689 213.835 657.49 218.702Q645.755 207.417 633.891 196.267C636.455 191.494 639.912 186.964 642.984 182.485C649.171 175.316 656.767 168.791 663.757 162.385Q669.911 156.639 675.798 150.621Z"/>
	<path fill="#F4AF4E" transform="scale(0.407715 0.407715)" d="M853.1 370.619C857.409 366.144 863.244 358.262 869.047 356.176C870.686 356.357 870.944 356.769 872.178 357.802C883.695 370.621 898.722 384.999 911.563 396.509C905.752 400.717 901.165 406.191 896.379 411.485C885.563 403.656 876.146 393.601 866.613 384.301C861.656 380.563 856.85 375.553 853.1 370.619Z"/>
	<path fill="#FCDD2E" transform="scale(0.407715 0.407715)" d="M853.1 370.619C857.409 366.144 863.244 358.262 869.047 356.176C870.686 356.357 870.944 356.769 872.178 357.802C871.115 361.199 870.393 364.474 870.089 368.027C869.753 371.956 870.593 378.104 869.217 381.612C868.758 382.783 867.574 383.569 866.613 384.301C861.656 380.563 856.85 375.553 853.1 370.619Z"/>
	<path fill="#D88134" transform="scale(0.407715 0.407715)" d="M836.423 387.642C841.63 381.723 847.554 376.234 853.1 370.619C856.85 375.553 861.656 380.563 866.613 384.301C876.146 393.601 885.563 403.656 896.379 411.485Q887.414 420.496 878.625 429.679C870.326 424.895 844.098 396.238 836.423 387.642Z"/>
	<path fill="#D88134" transform="scale(0.407715 0.407715)" d="M904.193 475.669C907.867 478.321 910.687 482.33 914.353 484.754Q919.838 489.904 925.085 495.296C921.197 499.257 917.314 503.733 913.058 507.272C912.603 507.282 912.148 507.313 911.693 507.311C911.492 507.31 911.292 507.264 911.092 507.28C906.736 507.621 900.087 517.788 896.462 520.582C886.208 523.977 877.374 532.768 868.502 538.742C863.589 534.858 858.649 530.513 853.326 527.237C864.925 513.916 877.899 501.733 890.087 488.945C895.227 485.87 899.977 479.925 904.193 475.669Z"/>
	<path fill="#464A42" transform="scale(0.407715 0.407715)" d="M813.262 260.727C816.243 264.347 819.21 267.965 821.826 271.865C821.903 280.898 821.666 290.254 820.998 299.262C819.363 301.745 817.81 304.58 815.962 306.887C812.729 309.149 809.955 312.686 807.242 315.561Q799.263 324.085 791.167 332.497C786.796 336.962 781.808 340.836 777.48 345.281C773.666 342.146 770.225 338.473 766.71 335.007C767.088 333.965 767.568 332.81 767.678 331.7C767.896 329.487 766.934 328.403 765.634 326.787Q761.685 323.052 757.674 319.384C762.487 315.45 766.578 310.507 770.811 305.974C775.947 300.475 781.263 295.139 786.234 289.489C795.585 280.293 805.386 271.255 813.262 260.727Z"/>
	<path fill="#26162A" transform="scale(0.407715 0.407715)" d="M424.351 406.066C429.68 410.575 434.554 415.393 439.235 420.569C446.778 428.299 464.771 448.469 472.563 453.24L468.753 457.028C474.992 463.253 481.835 469.367 486.733 476.729C484.769 478.354 482.735 479.931 480.919 481.721C476.494 485.342 472.918 489.674 468.719 493.488C460.405 486.672 453.112 478.494 445.593 470.825L416.858 441.883L403.053 427.726Q413.861 417.052 424.351 406.066Z"/>
	<path fill="#763F1A" transform="scale(0.407715 0.407715)" d="M424.351 406.066C429.68 410.575 434.554 415.393 439.235 420.569Q427.896 431.068 416.858 441.883L403.053 427.726Q413.861 417.052 424.351 406.066Z"/>
	<path fill="#A3AC93" transform="scale(0.407715 0.407715)" d="M738.277 189.469L750.787 200.896C761.757 210.557 771.93 221.189 782.519 231.269C774.406 240.261 766.199 248.772 757.513 257.195L725.218 226.058C717.62 233.382 709.895 240.605 702.559 248.193C697.618 244.963 692.629 241.6 688.185 237.702L712.616 214.159Q725.53 201.9 738.277 189.469Z"/>
	<path fill="#D2EADD" transform="scale(0.407715 0.407715)" d="M738.277 189.469L750.787 200.896C742.452 209.689 734.179 218.22 725.004 226.156C721.107 222.027 717.13 217.618 712.616 214.159Q725.53 201.9 738.277 189.469Z"/>
	<path fill="#D88134" transform="scale(0.407715 0.407715)" d="M635.422 109.264C640.364 110.566 650.692 122.821 654.472 126.694L655.713 127.937C658.874 131.046 675.044 146.023 675.97 148.586C676.003 148.676 676.024 149.959 676.017 150.008C675.984 150.222 675.871 150.417 675.798 150.621Q669.911 156.639 663.757 162.385C656.767 168.791 649.171 175.316 642.984 182.485C636.33 176.653 630.12 170.371 623.737 164.253C616.044 156.879 608.155 149.866 601.496 141.501L601.536 141.212C607.233 137.321 616.235 127.021 621.493 121.752C625.786 117.322 630.78 113.339 635.422 109.264Z"/>
	<path fill="#FCDD2E" transform="scale(0.407715 0.407715)" d="M635.422 109.264C640.364 110.566 650.692 122.821 654.472 126.694C649.388 131.016 644.952 135.858 639.597 139.896C633.622 133.748 627.797 127.575 621.493 121.752C625.786 117.322 630.78 113.339 635.422 109.264Z"/>
	<path fill="#FCDD2E" transform="scale(0.407715 0.407715)" d="M641.962 142.287C646.272 137.289 651.09 132.65 655.713 127.937C658.874 131.046 675.044 146.023 675.97 148.586C676.003 148.676 676.024 149.959 676.017 150.008C675.984 150.222 675.871 150.417 675.798 150.621Q669.911 156.639 663.757 162.385C655.998 156.114 649 149.348 641.962 142.287Z"/>
	<path fill="#26162A" transform="scale(0.407715 0.407715)" d="M352.674 334.529C364.027 345.466 375.571 359.963 387.843 369.294C392.96 373.914 397.607 379.072 402.426 384.001L424.351 406.066Q413.861 417.052 403.053 427.726C390.515 415.322 378.283 402.589 365.811 390.113C354.742 379.04 343.284 368.156 332.742 356.58C339.446 349.555 347.056 342.433 352.674 334.529Z"/>
	<path fill="#F4AF4E" transform="scale(0.407715 0.407715)" d="M766.71 335.007C770.225 338.473 773.666 342.146 777.48 345.281Q787.66 354.882 797.564 364.767C799.746 366.81 802.183 368.83 804.15 371.068L804.421 371C809.621 376.07 814.65 381.302 819.82 386.4C822.978 389.513 826.642 392.48 829.509 395.842C831.536 392.968 834.12 390.311 836.423 387.642C844.098 396.238 870.326 424.895 878.625 429.679Q884.79 433.923 890.76 438.437C887.788 440.995 884.205 443.655 881.788 446.761C878.838 444.897 876.219 441.923 873.698 439.496C870.429 444.016 865.864 447.9 861.838 451.746C856.945 444.35 848.866 437.517 842.628 431.235C828.96 417.471 814.463 404.675 800.3 391.44Q788.126 379.856 776.262 367.955C769.156 360.95 761.304 354.567 755.093 346.722L757.915 344.21C760.973 341.244 763.861 338.175 766.71 335.007Z"/>
	<path fill="#FEDA9B" transform="scale(0.407715 0.407715)" d="M766.71 335.007C770.225 338.473 773.666 342.146 777.48 345.281Q787.66 354.882 797.564 364.767C799.746 366.81 802.183 368.83 804.15 371.068C802.856 374.811 799.5 377.731 796.769 380.474C784.395 367.957 772.03 354.799 757.915 344.21C760.973 341.244 763.861 338.175 766.71 335.007Z"/>
	<path fill="#8D271C" transform="scale(0.407715 0.407715)" d="M829.509 395.842C831.536 392.968 834.12 390.311 836.423 387.642C844.098 396.238 870.326 424.895 878.625 429.679Q884.79 433.923 890.76 438.437C887.788 440.995 884.205 443.655 881.788 446.761C878.838 444.897 876.219 441.923 873.698 439.496C859.177 424.757 844.197 410.421 829.509 395.842Z"/>
	<path fill="#848467" transform="scale(0.407715 0.407715)" d="M702.559 248.193C709.895 240.605 717.62 233.382 725.218 226.058L757.513 257.195C766.199 248.772 774.406 240.261 782.519 231.269C792.758 240.992 803.685 250.361 813.262 260.727C805.386 271.255 795.585 280.293 786.234 289.489C781.263 295.139 775.947 300.475 770.811 305.974C766.578 310.507 762.487 315.45 757.674 319.384C747.375 309.821 737.432 299.991 728.111 289.459C717.096 277.554 705.365 266.702 693.615 255.553C689.641 251.783 686.102 247.556 682.033 243.9L681.997 243.611C684.167 241.854 686.172 239.651 688.185 237.702C692.629 241.6 697.618 244.963 702.559 248.193Z"/>
	<path fill="#65552E" transform="scale(0.407715 0.407715)" d="M757.715 257.489C767.992 267.424 776.188 279.33 786.234 289.489C781.263 295.139 775.947 300.475 770.811 305.974C766.578 310.507 762.487 315.45 757.674 319.384C747.375 309.821 737.432 299.991 728.111 289.459L757.715 257.489Z"/>
	<path fill="#763F1A" transform="scale(0.407715 0.407715)" d="M372.838 297.851C379.607 296.717 386.252 295.166 392.942 293.651C397.687 298.361 402.321 303.194 407.834 307.023C408.788 305.617 409.76 304.219 410.693 302.799Q415.331 303.449 420.013 303.49Q424.696 303.531 429.344 302.963C430.999 303.842 432.67 304.699 434.296 305.631C436.541 311.212 463.131 335.434 469.238 341.521C481.351 353.595 493.168 365.946 505.169 378.128C513.301 386.383 521.751 394.104 529.194 403.021C526.868 403.415 524.594 403.699 522.42 404.657L516.546 410.704L511.617 416.113C508.295 419.62 505.052 423.349 501.406 426.519C497.528 430.24 493.708 434.049 489.541 437.449C483.181 441.921 477.968 447.696 472.563 453.24C464.771 448.469 446.778 428.299 439.235 420.569C434.554 415.393 429.68 410.575 424.351 406.066L402.426 384.001C397.607 379.072 392.96 373.914 387.843 369.294C375.571 359.963 364.027 345.466 352.674 334.529Q346.921 328.771 341.092 323.09C350.635 313.894 359.209 303.801 368.777 294.631L372.838 297.851Z"/>
	<path fill="#8D271C" transform="scale(0.407715 0.407715)" d="M385.352 312.641C389.309 312.707 393.04 317.422 395.636 320.106C402.47 327.171 409.287 334.159 416.945 340.348C412.883 344.558 408.876 348.848 404.693 352.936C399.92 348.862 389.571 341.258 388.126 334.99C389.785 336.197 391.729 337.91 393.733 338.432C395.089 338.786 395.834 338.411 397.003 337.788C399.06 334.551 398.446 329.948 398.454 326.251Q391.972 319.38 385.352 312.641Z"/>
	<path fill="#E75504" transform="scale(0.407715 0.407715)" d="M372.254 319.56C374.868 317.268 378.174 312.378 381.543 311.534C383.297 311.095 383.904 311.802 385.352 312.641Q391.972 319.38 398.454 326.251C398.446 329.948 399.06 334.551 397.003 337.788C395.834 338.411 395.089 338.786 393.733 338.432C391.729 337.91 389.785 336.197 388.126 334.99C383.88 329.335 377.468 324.312 372.254 319.56Z"/>
	<path fill="#311414" transform="scale(0.407715 0.407715)" d="M511.617 416.113C509.081 414.848 506.751 412.435 504.746 410.451C498.352 404.126 492.627 397.153 486.36 390.705C480.214 384.381 473.694 378.404 467.441 372.184C459.734 364.518 452.259 356.617 444.611 348.891L418.427 322.601C415.25 319.442 411.566 316.529 408.576 313.228C407.776 312.343 407.14 311.791 407.203 310.587C408.084 309.887 408.821 309.184 409.98 309.032C411.7 308.807 416.776 313.065 418.107 314.233C427.68 322.637 436.176 332.344 445.181 341.357Q468.727 364.849 492.649 387.959C500.594 395.709 507.55 404.072 516.546 410.704L511.617 416.113Z"/>
	<path fill="#6A1413" transform="scale(0.407715 0.407715)" d="M416.945 340.348C436.42 357.713 453.916 377.664 472.124 396.348C481.752 406.227 493.562 415.086 501.406 426.519C497.528 430.24 493.708 434.049 489.541 437.449C483.181 441.921 477.968 447.696 472.563 453.24C464.771 448.469 446.778 428.299 439.235 420.569C434.554 415.393 429.68 410.575 424.351 406.066L402.426 384.001C397.607 379.072 392.96 373.914 387.843 369.294C393.887 364.295 399.247 358.563 404.693 352.936C408.876 348.848 412.883 344.558 416.945 340.348Z"/>
	<path fill="#8D271C" transform="scale(0.407715 0.407715)" d="M412.374 356.434C413.54 356.548 414.024 356.912 414.876 357.674C422.942 364.89 430.343 373.15 438.157 380.669C453.897 395.814 469.923 410.562 485.289 426.101C484.452 428.412 483.817 430.415 482.184 432.305C469.533 420.374 457.759 407.604 445.193 395.609C434.407 385.313 415.952 370.847 407.801 359.099L412.374 356.434Z"/>
	<defs>
		<linearGradient id="gradient_0" gradientUnits="userSpaceOnUse" x1="461.26822" y1="212.47511" x2="418.72098" y2="170.54318">
			<stop offset="0" stop-color="#EE441D"/>
			<stop offset="1" stop-color="#C03229"/>
		</linearGradient>
	</defs>
	<path fill="url(#gradient_0)" transform="scale(0.407715 0.407715)" d="M523.279 104.705Q535.32 116.091 548.04 126.713C549.006 127.337 549.869 127.786 551.026 127.957C553.72 128.355 556.395 126.238 558.345 124.694L565.658 117.548C569.414 114.28 573.116 110.705 577.152 107.797C583.81 113.55 589.707 120.03 596.64 125.49L596.869 125.665C599.555 130.556 597.47 136.839 601.536 141.212L601.496 141.501C598.219 145.022 594.885 149.503 591.052 152.376C587.376 149.616 582.754 150.695 578.501 151.081L577.07 151.1C559.28 166.047 544.197 184.354 527.884 200.863L480.45 248.759C469.143 260.027 435.288 291.219 429.344 302.963Q424.696 303.531 420.013 303.49Q415.331 303.449 410.693 302.799C409.76 304.219 408.788 305.617 407.834 307.023C402.321 303.194 397.687 298.361 392.942 293.651C386.252 295.166 379.607 296.717 372.838 297.851L368.777 294.631C363.03 287.816 356.873 280.878 349.943 275.249C345.762 271.013 341.906 266.353 338.026 261.842L333.061 256.701Q407.692 180.236 483.624 105.064C490.419 111.144 496.703 117.849 503.155 124.293Q513.303 114.588 523.279 104.705Z"/>
	<path fill="#D88134" transform="scale(0.407715 0.407715)" d="M447.989 182.289C453.65 184.199 459.408 191.949 463.483 196.263Q457.064 203.2 450.361 209.864C446.978 209.539 437.752 198.814 435.434 196.072C439.409 191.264 443.645 186.758 447.989 182.289Z"/>
	<path fill="#FCDD2E" transform="scale(0.407715 0.407715)" d="M421.416 211.366C425.541 214.791 429.207 218.829 432.958 222.655C420.913 236.149 408.48 250.036 395.021 262.134C390.466 259.034 386.78 254.737 383.051 250.723C395.048 237.051 408.735 224.445 421.416 211.366Z"/>
	<path fill="#8D271C" transform="scale(0.407715 0.407715)" d="M577.152 107.797C583.81 113.55 589.707 120.03 596.64 125.49L596.869 125.665C599.555 130.556 597.47 136.839 601.536 141.212L601.496 141.501C598.219 145.022 594.885 149.503 591.052 152.376C587.376 149.616 582.754 150.695 578.501 151.081L577.07 151.1C559.28 166.047 544.197 184.354 527.884 200.863L480.45 248.759C469.143 260.027 435.288 291.219 429.344 302.963Q424.696 303.531 420.013 303.49Q415.331 303.449 410.693 302.799C409.76 304.219 408.788 305.617 407.834 307.023C402.321 303.194 397.687 298.361 392.942 293.651C386.252 295.166 379.607 296.717 372.838 297.851L368.777 294.631C363.03 287.816 356.873 280.878 349.943 275.249C345.762 271.013 341.906 266.353 338.026 261.842C350.531 260.406 362.89 257.792 375.374 256.141C382.725 262.956 389.959 269.893 396.646 277.37C403.367 272.659 409.155 266.149 414.942 260.363L439.138 236.124L501.888 172.812C517.152 157.313 532.178 141.61 548.04 126.713C549.006 127.337 549.869 127.786 551.026 127.957C553.72 128.355 556.395 126.238 558.345 124.694L565.658 117.548C569.414 114.28 573.116 110.705 577.152 107.797Z"/>
	<path fill="#E75504" transform="scale(0.407715 0.407715)" d="M558.345 124.694L565.658 117.548C570.688 124.655 578.173 130.265 585.109 135.442C581.714 138.628 578.036 141.558 574.476 144.562Q572.987 143.437 571.568 142.224C566.792 138.127 558.83 131.41 558.345 124.694Z"/>
	<path fill="#FCDD2E" transform="scale(0.407715 0.407715)" d="M577.152 107.797C583.81 113.55 589.707 120.03 596.64 125.49C594.736 129.135 588.4 132.9 585.109 135.442C578.173 130.265 570.688 124.655 565.658 117.548C569.414 114.28 573.116 110.705 577.152 107.797Z"/>
	<path fill="#A15719" transform="scale(0.407715 0.407715)" d="M562.018 146.258L568.27 152.525C569.656 151.849 571.076 151.1 572.525 150.571C574.23 149.948 575.483 150.433 577.07 151.1C559.28 166.047 544.197 184.354 527.884 200.863L480.45 248.759C469.143 260.027 435.288 291.219 429.344 302.963Q424.696 303.531 420.013 303.49Q415.331 303.449 410.693 302.799C416.149 294.116 424.388 286.517 431.544 279.216L450.047 260.032Q505.271 202.395 562.018 146.258Z"/>
	<path fill="#D88134" transform="scale(0.407715 0.407715)" d="M601.496 141.501C608.155 149.866 616.044 156.879 623.737 164.253C630.12 170.371 636.33 176.653 642.984 182.485C639.912 186.964 636.455 191.494 633.891 196.267Q645.755 207.417 657.49 218.702C665.751 226.882 674.195 234.991 681.997 243.611L682.033 243.9C686.102 247.556 689.641 251.783 693.615 255.553C705.365 266.702 717.096 277.554 728.111 289.459C737.432 299.991 747.375 309.821 757.674 319.384Q761.685 323.052 765.634 326.787C766.934 328.403 767.896 329.487 767.678 331.7C767.568 332.81 767.088 333.965 766.71 335.007C763.861 338.175 760.973 341.244 757.915 344.21L755.093 346.722C761.304 354.567 769.156 360.95 776.262 367.955Q788.126 379.856 800.3 391.44C814.463 404.675 828.96 417.471 842.628 431.235C848.866 437.517 856.945 444.35 861.838 451.746L859.977 453.307C855.543 457.701 851.05 462.048 846.794 466.616C844.369 469.023 841.867 471.387 839.532 473.878L836.778 476.552L809.07 503.861L808.567 504.452C804.704 508.246 801.022 512.263 797.12 516.006C791.33 522.532 780.82 534.733 773.594 538.919C770.741 542.23 767.77 545.379 764.717 548.505L742.308 571.918C734.789 579.628 727.165 587.046 719.93 595.022C719.3 598.4 711.736 603.556 709.216 606.322C706.649 605.402 703.519 602.061 701.538 600.199C692.515 591.72 683.915 582.708 675.158 573.948Q660.043 558.855 644.622 544.075C638.242 537.878 623.683 526.045 619.021 519.721C617.98 512.287 618.328 504.001 618.643 496.497C617.202 494.869 615.378 493.476 613.741 492.04C609.933 489.228 606.242 486.515 602.86 483.178C593.844 474.278 586.347 463.815 576.121 456.187C566.182 447.252 556.791 437.687 546.935 428.644C538.169 421.374 530.38 412.791 522.42 404.657C524.594 403.699 526.868 403.415 529.194 403.021C521.751 394.104 513.301 386.383 505.169 378.128C493.168 365.946 481.351 353.595 469.238 341.521C463.131 335.434 436.541 311.212 434.296 305.631C432.67 304.699 430.999 303.842 429.344 302.963C435.288 291.219 469.143 260.027 480.45 248.759L527.884 200.863C544.197 184.354 559.28 166.047 577.07 151.1L578.501 151.081C582.754 150.695 587.376 149.616 591.052 152.376C594.885 149.503 598.219 145.022 601.496 141.501Z"/>
	<path fill="#8D271C" transform="scale(0.407715 0.407715)" d="M738.06 355.479C739.521 356.388 740.886 357.297 742.221 358.384C740.193 360.794 739.868 363.813 738.041 366.172L738.06 355.479Z"/>
	<path fill="#A15719" transform="scale(0.407715 0.407715)" d="M620.41 486.251L623.051 484.367C632.576 491.361 640.493 499.958 649.054 508.037C663.923 522.068 679.953 535.657 692.052 552.28C692.254 557.837 692.126 563.644 693.245 569.103C684.56 562.969 677.389 554.531 669.983 546.951C660.373 537.113 649.911 528.116 640.162 518.417C632.912 511.204 626.625 502.94 618.643 496.497C617.202 494.869 615.378 493.476 613.741 492.04C616.165 490.23 618.32 488.446 620.41 486.251Z"/>
	<path fill="#763F1A" transform="scale(0.407715 0.407715)" d="M619.021 519.721C617.98 512.287 618.328 504.001 618.643 496.497C626.625 502.94 632.912 511.204 640.162 518.417C649.911 528.116 660.373 537.113 669.983 546.951C677.389 554.531 684.56 562.969 693.245 569.103C702.063 577.821 710.658 586.782 719.93 595.022C719.3 598.4 711.736 603.556 709.216 606.322C706.649 605.402 703.519 602.061 701.538 600.199C692.515 591.72 683.915 582.708 675.158 573.948Q660.043 558.855 644.622 544.075C638.242 537.878 623.683 526.045 619.021 519.721Z"/>
	<path fill="#FEDA9B" transform="scale(0.407715 0.407715)" d="M829.107 457.574C834.671 461.633 841.334 462.846 846.794 466.616C844.369 469.023 841.867 471.387 839.532 473.878L836.778 476.552L809.07 503.861L808.567 504.452C804.704 508.246 801.022 512.263 797.12 516.006C791.33 522.532 780.82 534.733 773.594 538.919C770.741 542.23 767.77 545.379 764.717 548.505L760.551 544.298C754.352 548.911 749.366 555.415 744.063 560.998Q733.881 571.521 723.458 581.806C720.814 579.146 718.327 576.424 715.904 573.561C733.606 554.577 751.849 536.157 769.868 517.479C777.303 509.772 784.311 501.636 791.853 494.04C804.094 481.712 816.846 469.889 829.107 457.574Z"/>
	<path fill="#F4AF4E" transform="scale(0.407715 0.407715)" d="M770.252 530.644C771.293 531.049 772.074 531.52 772.422 532.667C773.025 534.658 771.848 536.623 770.927 538.294C770.713 538.179 770.482 538.092 770.285 537.95C769.345 537.273 768.665 536.133 768.557 534.978C768.394 533.227 769.296 531.999 770.252 530.644Z"/>
	<path fill="#F4AF4E" transform="scale(0.407715 0.407715)" d="M808.567 504.452C807.7 504.138 806.862 503.685 806.217 503.004C805.28 502.016 804.721 500.96 804.867 499.556C804.997 498.299 805.514 497.518 806.422 496.706C807.23 496.71 807.454 496.491 808.027 497.176C809.718 499.196 809.413 501.427 809.07 503.861L808.567 504.452Z"/>
	<path fill="#F4AF4E" transform="scale(0.407715 0.407715)" d="M810.902 481.224L812.431 481.575C813.4 482.53 813.416 482.422 813.434 483.772C812.384 485.994 810.613 487.593 808.92 489.334C808.311 489.354 807.616 489.269 807.005 489.232L806.459 488.314C806.838 485.568 809.145 483.253 810.902 481.224Z"/>
	<path fill="#F4AF4E" transform="scale(0.407715 0.407715)" d="M834.652 466.193C836.71 468.528 838.392 470.969 839.532 473.878L836.778 476.552L832.56 471.684L834.652 466.193Z"/>
	<path fill="#F4AF4E" transform="scale(0.407715 0.407715)" d="M821.997 469.096C822.445 469.29 822.821 469.425 823.216 469.743C825.614 471.676 824.986 476.543 824.961 479.302C826.083 480.081 827.089 480.826 828.057 481.802C828.077 483.223 827.756 483.356 826.877 484.505C825.324 484.998 824.53 485.439 822.914 485.106C822.393 484.589 821.993 484.118 821.712 483.429C820.214 479.75 820.358 472.661 821.997 469.096Z"/>
	<path fill="#F4AF4E" transform="scale(0.407715 0.407715)" d="M773.594 538.919C774.092 537 775.935 535.371 776.788 533.417L775.725 534.541C776.739 531.722 779.218 528.64 780.833 526.056C780.587 525.536 780.365 525.005 780.095 524.497C779.766 523.881 779.433 523.502 779.285 522.808C778.793 520.498 778.372 516.577 779.726 514.576L780.564 514.463C782.356 517.038 782.583 520.594 783.912 523.466C784.483 523.307 784.674 523.28 785.264 522.963C789.308 520.789 794.762 515.898 795.936 511.436C796.214 510.377 796.318 510.233 795.761 509.256C794.832 509.56 793.67 510.061 792.705 510.144C791.96 510.208 791.199 510.129 790.601 509.655C789.177 508.524 788.992 506.682 788.848 504.996C789.38 503.682 789.335 503.191 790.624 502.52C792.593 503.051 794.501 504.132 795.655 505.871C796.897 507.745 797.973 510.679 797.496 512.932C797.331 513.71 797.19 514.385 797.153 515.184L797.12 516.006C791.33 522.532 780.82 534.733 773.594 538.919Z"/>
	<path fill="#763F1A" transform="scale(0.407715 0.407715)" d="M636.854 455.179C648.679 465.104 659.377 476.247 670.479 486.949C686.698 502.585 702.771 517.536 717.667 534.493C722.386 530.241 727.984 525.802 731.659 520.598C741.907 510.247 752.607 500.403 763.021 490.228Q775.757 477.544 788.224 464.595C792.182 464.192 796.065 464.027 800.043 464.005C792.926 472.771 786.009 481.703 778.711 490.321Q749.691 524.474 717.79 555.953Q675.15 516.177 633.801 475.058Q628.323 479.593 623.051 484.367L620.41 486.251C617.853 487.177 616.363 490.385 613.457 490.459L613.218 489.883C615.135 486.856 618.546 484.265 621.042 481.619Q626.925 475.347 632.414 468.728C632.487 465.793 632.979 462.949 632.866 459.994C634.357 458.523 635.58 456.836 636.854 455.179Z"/>
	<path fill="#FEDA9B" transform="scale(0.407715 0.407715)" d="M755.093 346.722C761.304 354.567 769.156 360.95 776.262 367.955Q788.126 379.856 800.3 391.44C814.463 404.675 828.96 417.471 842.628 431.235C848.866 437.517 856.945 444.35 861.838 451.746L859.977 453.307C855.543 457.701 851.05 462.048 846.794 466.616C841.334 462.846 834.671 461.633 829.107 457.574L829.613 456.816Q797.264 425.124 764.337 394.032Q756.427 386.433 748.339 379.024C745.163 376.1 741.232 373.035 738.537 369.686C737.532 368.437 737.91 367.68 738.041 366.172C739.868 363.813 740.193 360.794 742.221 358.384L743.234 358.29C746.732 354.058 751.049 350.422 755.093 346.722Z"/>
	<path fill="#F4AF4E" transform="scale(0.407715 0.407715)" d="M833.432 429.786C834.376 430.114 835.373 430.584 836.178 431.187C838.197 432.7 838.953 434.378 839.282 436.824C837.932 436.976 836.638 437.043 835.518 436.121C833.782 434.691 833.731 431.865 833.432 429.786Z"/>
	<path fill="#F4AF4E" transform="scale(0.407715 0.407715)" d="M847.049 439.545C848.194 439.858 849.328 440.387 849.943 441.466C851.034 443.379 850.244 445.911 849.805 447.898C848.6 446.839 846.986 445.655 846.374 444.118C845.75 442.552 846.497 441.011 847.049 439.545Z"/>
	<path fill="#F4AF4E" transform="scale(0.407715 0.407715)" d="M788.773 387.636C790.544 388.039 792.804 388.822 794.045 390.233C794.979 391.296 794.998 391.863 794.909 393.225C794.375 393.395 793.547 393.732 792.964 393.767C791.572 393.851 791.195 393.511 790.107 392.757C789.168 391.107 789.025 389.496 788.773 387.636Z"/>
	<path fill="#F4AF4E" transform="scale(0.407715 0.407715)" d="M805.119 400.697C806.508 401.334 807.602 401.913 808.27 403.352C808.193 405.198 807.06 406.297 805.967 407.677C805.28 407.932 804.882 407.89 804.161 407.863C803.561 407.211 803.406 407.224 803.271 406.286C802.954 404.084 803.855 402.409 805.119 400.697Z"/>
	<path fill="#F4AF4E" transform="scale(0.407715 0.407715)" d="M817.651 413.106C818.336 413.394 819.062 413.671 819.701 414.062C820.782 414.722 821.617 415.703 821.762 416.997C821.938 418.574 820.963 419.811 820.141 421.048C818.905 420.633 817.361 419.667 816.767 418.44C815.828 416.501 816.785 414.83 817.651 413.106Z"/>
	<path fill="#F4AF4E" transform="scale(0.407715 0.407715)" d="M758.439 355.671C760.376 356.057 762.404 357.121 763.548 358.79C764.94 360.821 764.859 362.548 764.483 364.894C764.295 364.934 764.111 364.995 763.92 365.012C762.77 365.115 761.733 364.293 760.97 363.519C758.937 361.457 758.439 358.433 758.439 355.671Z"/>
	<path fill="#F4AF4E" transform="scale(0.407715 0.407715)" d="M773.674 372.803C774.541 372.967 775.424 373.14 776.257 373.434C780.276 374.848 783.615 378.151 785.43 381.939C784.32 382.015 783.094 382.1 782.004 381.829C777.886 380.807 775.51 376.245 773.674 372.803Z"/>
	<path fill="#F4AF4E" transform="scale(0.407715 0.407715)" d="M837.676 448.222C841.757 451.538 844.462 455.246 847.359 459.578C848.201 456.86 848.938 454.052 850.028 451.423C853.339 452.166 856.614 452.845 859.977 453.307C855.543 457.701 851.05 462.048 846.794 466.616C841.334 462.846 834.671 461.633 829.107 457.574L829.613 456.816C832.12 453.777 834.907 451.018 837.676 448.222Z"/>
	<path fill="#763F1A" transform="scale(0.407715 0.407715)" d="M742.221 358.384L743.234 358.29C751.896 365.341 759.765 373.714 767.801 381.482L809.016 421.272C818.414 430.362 827.667 439.805 837.676 448.222C834.907 451.018 832.12 453.777 829.613 456.816Q797.264 425.124 764.337 394.032Q756.427 386.433 748.339 379.024C745.163 376.1 741.232 373.035 738.537 369.686C737.532 368.437 737.91 367.68 738.041 366.172C739.868 363.813 740.193 360.794 742.221 358.384Z"/>
	<path fill="#D03318" transform="scale(0.407715 0.407715)" d="M682.033 243.9C686.102 247.556 689.641 251.783 693.615 255.553C705.365 266.702 717.096 277.554 728.111 289.459C737.432 299.991 747.375 309.821 757.674 319.384Q761.685 323.052 765.634 326.787C766.934 328.403 767.896 329.487 767.678 331.7C767.568 332.81 767.088 333.965 766.71 335.007C763.861 338.175 760.973 341.244 757.915 344.21L755.093 346.722C751.049 350.422 746.732 354.058 743.234 358.29L742.221 358.384C740.886 357.297 739.521 356.388 738.06 355.479C733.574 349.853 728.163 344.809 723.075 339.728Q710.213 326.832 697.049 314.243C682.649 300.264 668.914 285.622 653.798 272.393L658.808 267.462L658.806 266.481C662.516 263.728 665.829 260.598 668.877 257.134C670.894 254.663 673.247 252.498 675.529 250.276C677.787 248.23 679.91 246.083 682.033 243.9Z"/>
	<path fill="#FCDD2E" transform="scale(0.407715 0.407715)" d="M708.43 285.774L711.865 288.617L709.961 290.754C708.467 292.31 706.409 294.09 706.24 296.388C706.19 297.073 706.421 297.361 706.695 297.951C706.564 299.422 706.487 300.924 706.228 302.377L698.836 295.014C702.123 292.03 705.262 288.882 708.43 285.774Z"/>
	<path fill="#FCDD2E" transform="scale(0.407715 0.407715)" d="M711.865 288.617C716.004 292.582 720.194 296.505 724.286 300.517C721.135 303.309 718.034 306.231 714.709 308.812C711.161 307.236 708.835 305.181 706.228 302.377C706.487 300.924 706.564 299.422 706.695 297.951C706.421 297.361 706.19 297.073 706.24 296.388C706.409 294.09 708.467 292.31 709.961 290.754L711.865 288.617Z"/>
	<path fill="#FEFCD0" transform="scale(0.407715 0.407715)" d="M709.961 290.754C712.719 293.422 717.53 297.89 717.763 301.981L717.221 303.111L715.818 303.554C712.836 301.647 709.957 299.337 706.695 297.951C706.421 297.361 706.19 297.073 706.24 296.388C706.409 294.09 708.467 292.31 709.961 290.754Z"/>
	<path fill="#FCDD2E" transform="scale(0.407715 0.407715)" d="M733.968 309.871C739.321 313.677 743.869 319.509 748.318 324.31L738.838 332.769C738.8 332.771 738.763 332.776 738.725 332.774C734.408 332.514 727.715 323.338 724.913 320.095L733.968 309.871Z"/>
	<path fill="#FEFCD0" transform="scale(0.407715 0.407715)" d="M732.65 315.822C733.636 315.891 734.635 315.963 735.591 316.225C737.057 316.628 738.59 317.386 739.238 318.856C740.165 320.959 739.164 322.835 738.334 324.764C737.874 324.863 737.485 324.978 736.998 324.928C735.518 324.773 734.147 323.725 733.396 322.474C732.07 320.265 732.109 318.259 732.65 315.822Z"/>
	<path fill="#FCDD2E" transform="scale(0.407715 0.407715)" d="M684.952 260.811C689.748 262.841 696.54 272.323 699.959 276.365C696.984 279.102 693.847 281.68 690.773 284.305C685.197 280.071 680.164 275.418 675.226 270.475Q680.052 265.605 684.952 260.811Z"/>
	<path fill="#FFFFFE" transform="scale(0.407715 0.407715)" d="M684.649 266.883C687.815 268.602 689.802 270.729 692.054 273.463L689.511 277.184L689.075 277.398C688.527 277.267 687.987 277.165 687.474 276.909C685.51 275.929 683.692 273.128 683.31 271.021C683.018 269.414 683.871 268.205 684.649 266.883Z"/>
	<path fill="#6A1413" transform="scale(0.407715 0.407715)" d="M658.808 267.462L713.067 320.611C722.472 329.877 731.567 340.436 742.015 348.476C750.51 341.892 756.847 333.044 765.634 326.787C766.934 328.403 767.896 329.487 767.678 331.7C767.568 332.81 767.088 333.965 766.71 335.007C763.861 338.175 760.973 341.244 757.915 344.21L755.093 346.722C751.049 350.422 746.732 354.058 743.234 358.29L742.221 358.384C740.886 357.297 739.521 356.388 738.06 355.479C733.574 349.853 728.163 344.809 723.075 339.728Q710.213 326.832 697.049 314.243C682.649 300.264 668.914 285.622 653.798 272.393L658.808 267.462Z"/>
	<path fill="#D03318" transform="scale(0.407715 0.407715)" d="M558.93 379.991C560.961 380.194 561.704 380.829 563.212 382.182C576.019 393.673 587.495 406.839 599.645 419.031C611.84 431.27 624.854 442.782 636.854 455.179C635.58 456.836 634.357 458.523 632.866 459.994C632.979 462.949 632.487 465.793 632.414 468.728Q626.925 475.347 621.042 481.619C618.546 484.265 615.135 486.856 613.218 489.883L613.457 490.459C616.363 490.385 617.853 487.177 620.41 486.251C618.32 488.446 616.165 490.23 613.741 492.04C609.933 489.228 606.242 486.515 602.86 483.178C593.844 474.278 586.347 463.815 576.121 456.187C566.182 447.252 556.791 437.687 546.935 428.644C538.169 421.374 530.38 412.791 522.42 404.657C524.594 403.699 526.868 403.415 529.194 403.021C530.307 404.008 531.421 405.13 532.651 405.959C534.391 404.707 536.056 403.336 537.743 402.012C540.932 398.728 543.93 395.244 547.067 391.906C551.48 388.212 555.298 384.464 558.93 379.991Z"/>
	<path fill="#FCDD2E" transform="scale(0.407715 0.407715)" d="M607.877 446.839C611.889 449.768 615.776 454.112 619.439 457.531C616.939 461.213 613.639 464.025 610.272 466.883C607.391 466.339 601.255 458.123 599.076 455.693L607.877 446.839Z"/>
	<path fill="#FEFCD0" transform="scale(0.407715 0.407715)" d="M603.979 451.929C605.194 451.986 606.149 452.125 607.291 452.57C609.585 453.464 612.278 454.932 613.19 457.368C613.529 458.274 612.973 458.708 612.552 459.502C611.827 459.781 611.114 459.979 610.366 460.184C609.634 459.903 608.977 459.594 608.357 459.101C606.374 457.525 604.351 454.431 603.979 451.929Z"/>
	<path fill="#FCDD2E" transform="scale(0.407715 0.407715)" d="M585.502 423.302C590.338 424.489 596.44 432.621 600.008 436.284C596.764 439.28 593.725 442.488 590.651 445.657L590.407 445.728C587.35 444.928 579.079 434.844 576.558 432.168C579.46 429.107 582.361 426.118 585.502 423.302Z"/>
	<path fill="#FFFFFE" transform="scale(0.407715 0.407715)" d="M586.868 428.729C589.133 429.765 591.068 431.531 593.019 433.063L589.126 436.628C588.981 436.686 588.84 436.756 588.691 436.801C587.271 437.231 586.11 436.996 584.878 436.251C584.505 435.596 584.209 435.05 584.192 434.274C584.138 431.77 585.221 430.442 586.868 428.729Z"/>
	<path fill="#FCDD2E" transform="scale(0.407715 0.407715)" d="M561.642 398.807C566.484 399.788 572.387 408.097 575.75 411.627C572.312 415.047 568.754 418.308 565.159 421.56L564.314 421.548Q557.419 415.652 551.596 408.697Q556.531 403.663 561.642 398.807Z"/>
	<path fill="#FEFCD0" transform="scale(0.407715 0.407715)" d="M561.136 403.331C561.515 403.539 561.887 403.758 562.25 403.993C564.665 405.561 567.313 407.216 567.902 410.203C567.624 411.818 566.768 412.627 565.715 413.795C563.951 413.658 562.452 413.316 561.013 412.263C559.832 411.399 559.065 410.336 558.861 408.865C558.533 406.495 559.778 405.1 561.136 403.331Z"/>
	<path fill="#6A1413" transform="scale(0.407715 0.407715)" d="M529.194 403.021C530.307 404.008 531.421 405.13 532.651 405.959C547.382 419.932 561.698 434.307 576.308 448.402C587.815 459.503 599.681 470.303 610.914 481.679C619.324 475.65 625.528 467.175 632.866 459.994C632.979 462.949 632.487 465.793 632.414 468.728Q626.925 475.347 621.042 481.619C618.546 484.265 615.135 486.856 613.218 489.883L613.457 490.459C616.363 490.385 617.853 487.177 620.41 486.251C618.32 488.446 616.165 490.23 613.741 492.04C609.933 489.228 606.242 486.515 602.86 483.178C593.844 474.278 586.347 463.815 576.121 456.187C566.182 447.252 556.791 437.687 546.935 428.644C538.169 421.374 530.38 412.791 522.42 404.657C524.594 403.699 526.868 403.415 529.194 403.021Z"/>
	<path fill="#A15719" transform="scale(0.407715 0.407715)" d="M447.222 312.155C490.749 269.51 533.956 226.929 575.46 182.285C587.891 194.303 599.65 207.142 611.955 219.321C627.658 234.864 644.13 249.968 658.806 266.481L658.808 267.462L653.798 272.393C636.488 257.75 620.048 242.374 603.693 226.682C594.065 217.445 584.153 208.393 575.242 198.451C559.299 216.186 542.042 232.26 524.775 248.658C514.973 257.967 505.568 267.533 495.495 276.575C495.52 290.29 495.915 303.981 496.035 317.689C507.18 329.856 519.269 340.973 530.93 352.622C536.03 357.717 554.445 377.639 558.93 379.991C555.298 384.464 551.48 388.212 547.067 391.906C543.93 395.244 540.932 398.728 537.743 402.012C536.056 403.336 534.391 404.707 532.651 405.959C531.421 405.13 530.307 404.008 529.194 403.021C521.751 394.104 513.301 386.383 505.169 378.128C493.168 365.946 481.351 353.595 469.238 341.521C463.131 335.434 436.541 311.212 434.296 305.631L434.909 305.626C439.277 307.296 443.277 309.672 447.222 312.155Z"/>
	<path fill="#D88134" transform="scale(0.407715 0.407715)" d="M461.14 306.477C475.334 320.146 489.135 334.189 503.292 347.89C517.76 361.892 533.943 376.755 547.067 391.906C543.93 395.244 540.932 398.728 537.743 402.012C530.808 395.254 524.821 387.458 518.122 380.45C509.54 371.473 500.489 362.9 491.737 354.084C478.948 341.201 466.3 328.082 452.49 316.278C455.542 313.206 458.299 309.749 461.14 306.477Z"/>
	<path fill="#F4AF4E" transform="scale(0.407715 0.407715)" d="M728.58 396.172C739.591 403.792 748.231 413.835 757.592 423.279L793.049 459.012L788.224 464.595Q775.757 477.544 763.021 490.228C752.607 500.403 741.907 510.247 731.659 520.598C728.661 519.448 725.497 515.967 723.227 513.751C713.435 504.19 704.82 493.499 695.286 483.696C686.467 474.629 675.72 466.461 668.209 456.281C677.784 445.83 688.016 436.011 698.074 426.036C708.173 416.021 718.145 405.837 728.58 396.172Z"/>
	<path fill="#E75504" transform="scale(0.407715 0.407715)" d="M772.051 456.692C772.433 457.351 772.826 457.596 772.584 458.389C771.46 462.066 735.373 499.16 730.741 501.404L729.74 501.025C732.898 492.381 731.184 468.725 730.992 458.557C744.63 458.416 758.413 457.307 772.051 456.692Z"/>
	<path fill="#D03318" transform="scale(0.407715 0.407715)" d="M704.666 437.573C712.623 444.821 721.232 451.309 729.263 458.471L730.992 458.557C731.184 468.725 732.898 492.381 729.74 501.025C725.096 496.235 720.027 491.782 715.286 487.069Q701.499 473.227 687.949 459.152C687.588 458.855 687.019 458.091 686.707 457.726C687.23 453.624 700.979 441.266 704.666 437.573Z"/>
	<path fill="#E75504" transform="scale(0.407715 0.407715)" d="M704.666 437.573C712.623 444.821 721.232 451.309 729.263 458.471C715.709 458.579 701.359 457.567 687.949 459.152C687.588 458.855 687.019 458.091 686.707 457.726C687.23 453.624 700.979 441.266 704.666 437.573Z"/>
	<path fill="#D88134" transform="scale(0.407715 0.407715)" d="M704.666 437.573C712.956 429.442 721.553 421.474 729.557 413.072C736.976 422.63 745.583 430.403 754.113 438.889C760.08 444.826 765.66 451.2 772.051 456.692C758.413 457.307 744.63 458.416 730.992 458.557L729.263 458.471C721.232 451.309 712.623 444.821 704.666 437.573Z"/>
	<path fill="#F4AF4E" transform="scale(0.407715 0.407715)" d="M601.496 141.501C608.155 149.866 616.044 156.879 623.737 164.253C630.12 170.371 636.33 176.653 642.984 182.485C639.912 186.964 636.455 191.494 633.891 196.267Q645.755 207.417 657.49 218.702C665.751 226.882 674.195 234.991 681.997 243.611L682.033 243.9C679.91 246.083 677.787 248.23 675.529 250.276C673.247 252.498 670.894 254.663 668.877 257.134C665.829 260.598 662.516 263.728 658.806 266.481C644.13 249.968 627.658 234.864 611.955 219.321C599.65 207.142 587.891 194.303 575.46 182.285C533.956 226.929 490.749 269.51 447.222 312.155C443.277 309.672 439.277 307.296 434.909 305.626L434.296 305.631C432.67 304.699 430.999 303.842 429.344 302.963C435.288 291.219 469.143 260.027 480.45 248.759L527.884 200.863C544.197 184.354 559.28 166.047 577.07 151.1L578.501 151.081C582.754 150.695 587.376 149.616 591.052 152.376C594.885 149.503 598.219 145.022 601.496 141.501Z"/>
	<path fill="#FEDA9B" transform="scale(0.407715 0.407715)" d="M601.496 141.501C608.155 149.866 616.044 156.879 623.737 164.253C630.12 170.371 636.33 176.653 642.984 182.485C639.912 186.964 636.455 191.494 633.891 196.267Q645.755 207.417 657.49 218.702C665.751 226.882 674.195 234.991 681.997 243.611L682.033 243.9C679.91 246.083 677.787 248.23 675.529 250.276C666.256 238.207 654.629 228.585 643.673 218.139C632.49 207.477 622.061 196.037 610.949 185.296C600.693 175.384 589.268 165.969 579.751 155.385C578.796 154.323 577.76 153.315 577.685 151.821L578.501 151.081C582.754 150.695 587.376 149.616 591.052 152.376C594.885 149.503 598.219 145.022 601.496 141.501Z"/>
	<path fill="#D03318" transform="scale(0.407715 0.407715)" d="M601.496 141.501C608.155 149.866 616.044 156.879 623.737 164.253C630.12 170.371 636.33 176.653 642.984 182.485C639.912 186.964 636.455 191.494 633.891 196.267C629.367 192.508 592.754 156.179 591.052 152.376C594.885 149.503 598.219 145.022 601.496 141.501Z"/>
	<path fill="#FEDA9B" transform="scale(0.407715 0.407715)" d="M573.183 165.144C581.491 171.266 587.051 180.074 595.087 186.568C594.702 188.784 594.444 191.155 595.108 193.346C595.431 194.413 595.152 194.035 596.146 194.56L597.25 193.941C598.012 192.319 596.897 190.127 596.695 188.286C596.848 188.34 597.02 188.36 597.156 188.449C600.061 190.355 606.889 196.431 608.218 199.549L606.647 200.226C606.153 201.516 605.776 202.837 606.201 204.218C606.614 205.562 607.238 206.205 608.371 206.95C611.539 206.627 609.277 203.706 610.908 201.897C615.4 205.016 620.025 210.089 623.705 214.178L623.483 214.312C622.284 213.676 621.346 213.215 619.976 213.019L619.084 213.773C618.707 216.085 620.113 217.944 621.33 219.787L621.689 220.324L626.372 216.534C639.695 230.933 655.132 243.164 668.877 257.134C665.829 260.598 662.516 263.728 658.806 266.481C644.13 249.968 627.658 234.864 611.955 219.321C599.65 207.142 587.891 194.303 575.46 182.285C533.956 226.929 490.749 269.51 447.222 312.155C443.277 309.672 439.277 307.296 434.909 305.626C441.713 293.494 461.102 276.102 471.66 266.12C473.18 267.667 474.49 269.182 476.508 270.076C477.809 269.957 478.512 269.561 479.271 268.429C479.939 267.433 480.312 266.215 479.985 265.025C479.697 263.975 479.063 263.327 478.192 262.749C477.189 262.083 477.473 262.571 477.221 261.586C485.894 251.44 496.422 243.088 505.659 233.481L547.982 189.146C555.962 180.949 563.979 171.978 573.183 165.144Z"/>
	<path fill="#F4AF4E" transform="scale(0.407715 0.407715)" d="M489.579 253.271C490.746 253.972 491.295 254.237 491.851 255.544C491.658 257.239 490.527 258.33 489.496 259.607C488.454 258.842 488.052 258.42 487.561 257.219C487.694 255.558 488.62 254.553 489.579 253.271Z"/>
	<path fill="#F4AF4E" transform="scale(0.407715 0.407715)" d="M583.198 182.742C584.856 182.962 586.144 183.155 587.468 184.262C588.07 185.9 587.884 186.399 587.596 188.078C586.135 188.464 586.177 188.597 584.879 187.868C583.738 186.287 583.55 184.627 583.198 182.742Z"/>
	<path fill="#F4AF4E" transform="scale(0.407715 0.407715)" d="M557.87 183.729C558.571 184.097 558.576 184.305 558.968 184.964C559.226 187.665 558.533 189.552 556.832 191.64C556.231 190.72 555.466 189.695 555.297 188.586C554.998 186.629 556.707 185.077 557.87 183.729Z"/>
	<path fill="#F4AF4E" transform="scale(0.407715 0.407715)" d="M525.356 222.33C525.464 222.41 525.586 222.474 525.681 222.57C526.646 223.544 526.646 223.861 526.752 225.171C526.067 227.128 524.755 228.466 523.414 229.992C522.407 228.897 521.812 228.298 521.647 226.741C522.203 224.809 523.912 223.628 525.356 222.33Z"/>
	<path fill="#F4AF4E" transform="scale(0.407715 0.407715)" d="M501.656 241.746C501.865 241.842 502.093 241.903 502.281 242.033C503.517 242.885 503.774 243.481 504.226 244.824C503.981 246.738 503.351 247.771 502.278 249.356C501.783 249.145 501.504 249.053 501.039 248.718C500.069 248.021 499.462 246.954 499.477 245.751C499.496 244.226 500.757 242.874 501.656 241.746Z"/>
	<path fill="#F4AF4E" transform="scale(0.407715 0.407715)" d="M657.199 252.825C657.592 252.93 658.16 253.062 658.509 253.251C659.694 253.893 659.719 254.273 659.956 255.481C659.442 257.163 658.532 258.199 657.412 259.532C655.919 258.901 655.174 258.823 654.278 257.438C654.433 255.623 656.051 254.168 657.199 252.825Z"/>
	<path fill="#F4AF4E" transform="scale(0.407715 0.407715)" d="M568.239 172.586C569.425 173.036 570.344 173.543 570.827 174.805C571.631 176.908 570.627 179.35 569.982 181.357C568.724 181.304 568.735 181.236 567.782 180.392C566.801 177.757 567.56 175.205 568.239 172.586Z"/>
	<path fill="#F4AF4E" transform="scale(0.407715 0.407715)" d="M511.168 233.353C511.935 234.237 512.809 235.712 512.865 236.901C512.963 238.995 511.254 240.544 509.912 241.887C509.07 241.133 508.676 240.458 508.165 239.456C507.996 236.676 509.465 235.344 511.168 233.353Z"/>
	<path fill="#F4AF4E" transform="scale(0.407715 0.407715)" d="M532.452 208.795C532.819 209.023 533.395 209.351 533.677 209.666C534.157 210.2 534.529 210.934 534.466 211.656C534.28 213.801 532.366 215.102 530.851 216.388L529.798 215.993C529.366 215.396 528.992 215.141 529.009 214.355C529.058 212.007 530.857 210.291 532.452 208.795Z"/>
	<path fill="#F4AF4E" transform="scale(0.407715 0.407715)" d="M465.199 276.826C466.325 278.021 466.825 278.377 467.219 280.005C466.823 282.172 465.312 283.754 464.006 285.465C462.732 284.94 462.635 284.914 461.905 283.757C461.801 280.827 463.393 278.976 465.199 276.826Z"/>
	<path fill="#F4AF4E" transform="scale(0.407715 0.407715)" d="M448.899 294.25C449.655 294.29 450.023 294.356 450.712 294.721C451.516 295.148 451.355 295.383 451.58 296.205C450.964 298.424 449.343 300.202 447.977 302.02C447.642 302.013 447.302 302.057 446.972 301.998C445.81 301.788 445.68 301.206 445.289 300.258C445.517 297.606 447.051 296.003 448.899 294.25Z"/>
	<path fill="#F4AF4E" transform="scale(0.407715 0.407715)" d="M544.673 197.84C545.737 199.112 546.264 200.888 546.127 202.543C545.891 205.373 543.985 207.274 541.962 209.031C541.323 208.138 540.908 207.387 540.801 206.267C540.49 203.034 542.805 200.207 544.673 197.84Z"/>
	<path fill="#F4AF4E" transform="scale(0.407715 0.407715)" d="M630.383 223.036C632.374 223.771 634.397 225.18 635.499 227.027C636.638 228.938 636.546 230.379 636.104 232.452C635.657 232.457 635.414 232.479 634.946 232.386C633.578 232.115 632.573 231.347 631.761 230.249C630.251 228.209 630.118 225.462 630.383 223.036Z"/>
	<path fill="#F4AF4E" transform="scale(0.407715 0.407715)" d="M642.796 237.987C644.248 238.369 645.546 238.873 646.859 239.612C649.914 241.333 650.96 243.921 651.862 247.153C650.393 247.117 649.047 247.026 647.774 246.239C644.873 244.445 643.517 241.189 642.796 237.987Z"/>
	<defs>
		<linearGradient id="gradient_1" gradientUnits="userSpaceOnUse" x1="684.41095" y1="403.75516" x2="528.44623" y2="262.63928">
			<stop offset="0" stop-color="#E89D46"/>
			<stop offset="1" stop-color="#FFBD4B"/>
		</linearGradient>
	</defs>
	<path fill="url(#gradient_1)" transform="scale(0.407715 0.407715)" d="M567.595 227.364C589.356 247.376 609.881 268.727 631.116 289.301Q620.341 299.806 609.845 310.59Q617.814 319.045 625.949 327.342C633.714 319.425 641.459 311.514 649.714 304.102C660.375 312.227 669.845 322.567 679.164 332.167Q697.835 351.211 716.025 370.714C705.975 380.626 697.09 391.421 686.23 400.52L679.363 407.425C668.465 418.37 657.236 428.976 646.406 439.992C638.857 433.148 631.848 425.358 624.682 418.097C600.919 394.021 578.296 368.981 554.853 344.623C544.183 333.537 533.068 322.848 522.184 311.971C515.591 305.381 507.931 298.468 502.748 290.696C509.949 280.727 520.588 272.347 529.382 263.738C541.771 251.608 553.927 238.023 567.595 227.364Z"/>
	<path fill="#F4AF4E" transform="scale(0.407715 0.407715)" d="M671.864 398.923C673.783 396.973 675.86 395.165 677.879 393.319C680.736 395.652 683.552 397.983 686.23 400.52L679.363 407.425C676.65 404.768 674.279 401.848 671.864 398.923Z"/>
	<path fill="#3DE2C0" transform="scale(0.407715 0.407715)" d="M608.241 357.192C618.25 367.742 629.212 377.068 639.554 387.227C634.902 391.848 630.811 396.94 626.269 401.647C616.565 390.584 605.681 380.617 595.912 369.568C599.778 365.184 604.005 361.211 608.241 357.192Z"/>
	<path fill="#D88134" transform="scale(0.407715 0.407715)" d="M602.694 317.933C608.74 322.526 613.726 328.453 618.22 334.526C608.388 343.891 598.517 353.164 588.965 362.819C583.969 357.487 578.35 352.715 572.972 347.773C583.069 337.886 593.441 328.669 602.694 317.933Z"/>
	<path fill="#D03318" transform="scale(0.407715 0.407715)" d="M565.055 295.94C572.123 301.951 579.855 307.886 586.348 314.498C579.411 321.017 573.014 328.331 566.471 335.257C554.071 323.601 542.283 311.345 530.451 299.12C534.359 298.751 538.327 298.919 542.266 298.501C549.866 297.696 557.42 296.364 565.055 295.94Z"/>
	<path fill="#E75504" transform="scale(0.407715 0.407715)" d="M563.879 247.598C566.399 252.917 564.809 287.18 565.055 295.94C557.42 296.364 549.866 297.696 542.266 298.501C538.327 298.919 534.359 298.751 530.451 299.12C527.15 296.409 524.159 293.386 521.124 290.388Q542.707 269.198 563.879 247.598Z"/>
	<path fill="#3DE2C0" transform="scale(0.407715 0.407715)" d="M687.2 357.757L700.247 371.005Q689.258 382.358 677.879 393.319C675.86 395.165 673.783 396.973 671.864 398.923C667.983 402.929 651.643 421.256 647.911 422.796C647.527 422.603 647.051 422.443 646.762 422.122C640.157 415.088 632.402 409.108 626.269 401.647C630.811 396.94 634.902 391.848 639.554 387.227L640.343 387.904C648.665 388.278 657.091 388.014 665.425 388.011C674.602 379.493 680.363 368.078 687.2 357.757Z"/>
	<path fill="#39B69E" transform="scale(0.407715 0.407715)" d="M639.554 387.227L640.343 387.904C645.758 396.673 647.769 412.059 646.762 422.122C640.157 415.088 632.402 409.108 626.269 401.647C630.811 396.94 634.902 391.848 639.554 387.227Z"/>
	<path fill="#D88134" transform="scale(0.407715 0.407715)" d="M563.879 247.598L565.476 245.926C569.94 245.991 605.919 283.67 611.765 289.541C603.678 297.9 595.626 307.471 586.348 314.498C579.855 307.886 572.123 301.951 565.055 295.94C564.809 287.18 566.399 252.917 563.879 247.598Z"/>
	<path fill="#D2EADD" transform="scale(0.407715 0.407715)" d="M647.641 317.356Q663.713 332.881 678.947 349.228C681.7 352.043 684.606 354.798 687.2 357.757C680.363 368.078 674.602 379.493 665.425 388.011C657.091 388.014 648.665 388.278 640.343 387.904L639.554 387.227C629.212 377.068 618.25 367.742 608.241 357.192L618.761 346.576C628.392 336.893 638.405 327.409 647.641 317.356Z"/>
	<path fill="#70E6DF" transform="scale(0.407715 0.407715)" d="M618.761 346.576C623.581 351.523 628.347 356.572 633.345 361.338C639.014 366.744 645.01 371.691 649.788 377.941C659.549 368.419 669.596 359.159 678.947 349.228C681.7 352.043 684.606 354.798 687.2 357.757C680.363 368.078 674.602 379.493 665.425 388.011C657.091 388.014 648.665 388.278 640.343 387.904L639.554 387.227C629.212 377.068 618.25 367.742 608.241 357.192L618.761 346.576Z"/>
	<path fill="#26162A" transform="scale(0.407715 0.407715)" d="M516.546 410.704L522.42 404.657C530.38 412.791 538.169 421.374 546.935 428.644C556.791 437.687 566.182 447.252 576.121 456.187C586.347 463.815 593.844 474.278 602.86 483.178C606.242 486.515 609.933 489.228 613.741 492.04C615.378 493.476 617.202 494.869 618.643 496.497C618.328 504.001 617.98 512.287 619.021 519.721C623.683 526.045 638.242 537.878 644.622 544.075Q660.043 558.855 675.158 573.948C683.915 582.708 692.515 591.72 701.538 600.199C703.519 602.061 706.649 605.402 709.216 606.322C711.736 603.556 719.3 598.4 719.93 595.022C727.165 587.046 734.789 579.628 742.308 571.918L764.717 548.505C767.77 545.379 770.741 542.23 773.594 538.919C780.82 534.733 791.33 522.532 797.12 516.006C801.022 512.263 804.704 508.246 808.567 504.452L809.07 503.861L836.778 476.552L839.532 473.878C841.867 471.387 844.369 469.023 846.794 466.616C851.05 462.048 855.543 457.701 859.977 453.307L861.838 451.746C865.864 447.9 870.429 444.016 873.698 439.496C876.219 441.923 878.838 444.897 881.788 446.761L882.021 447.201C881.987 453.286 882.439 459.948 879.434 465.451C879.619 470.139 882.006 474.773 884.298 478.79C884.05 479.426 883.827 480.111 883.516 480.719L884.41 481.036C885.132 481.288 885.722 481.448 886.494 481.467C886.732 481.326 886.959 481.163 887.209 481.044C888.502 480.431 892.702 480.562 893.991 481.037L894.443 481.475C894.392 485.392 891.562 485.803 890.087 488.945C877.899 501.733 864.925 513.916 853.326 527.237C858.649 530.513 863.589 534.858 868.502 538.742C877.374 532.768 886.208 523.977 896.462 520.582C900.087 517.788 906.736 507.621 911.092 507.28C911.292 507.264 911.492 507.31 911.693 507.311C912.148 507.313 912.603 507.282 913.058 507.272C913.409 511.415 923.532 520.205 926.778 523.529C922.781 528.016 918.577 532.466 915.093 537.369C916.48 539.745 917.923 542.105 919.244 544.517C915.532 548.352 911.766 552.012 907.751 555.533L924.947 571.739C905.231 589.493 887 608.996 868.276 627.794C853.548 642.581 838.386 656.914 823.549 671.589C807.298 687.661 791.312 704.111 774.832 719.937C771.686 717.095 768.455 714.308 765.452 711.315C758.897 717.378 752.424 723.567 745.596 729.323Q730.892 715.768 717.371 701.033C709.447 708.865 701.7 717.377 693.24 724.583L617.918 649.655C601.684 633.488 585.606 616.739 568.39 601.626C566.309 603.694 564.183 605.731 562.145 607.841C551.406 598.283 541.759 587.721 531.422 577.761C503.644 604.318 476.746 631.692 449.508 658.792L322.391 784.88L280.062 826.794C272.96 833.864 266.097 841.22 258.777 848.063C256.583 859.765 255.657 871.574 255.164 883.454C247.013 893.525 236.439 901.942 227.193 911.018C218.624 919.428 210.794 928.525 202.292 936.964Q177.745 936.743 153.2 937.114L101.096 884.925C101.031 875.677 99.7866 853.572 101.744 845.89C102.316 843.649 103.423 841.915 105.078 840.303C105.506 839.886 105.53 839.884 105.935 839.577C106.028 837.34 106.191 835.133 106.427 832.907C106.497 825.411 107.23 819.604 111.522 813.208C116.798 807.058 122.768 801.262 128.444 795.476Q144 779.634 159.852 764.088C162.792 761.156 165.874 758.357 168.907 755.521C178.54 755.303 188.239 755.309 197.858 754.829C201.506 754.647 205.071 754.762 207.642 751.896C214.875 743.081 223.505 735.343 231.721 727.455C253.879 706.226 275.963 685.076 297.372 663.074C303.423 657.113 309.505 651.105 315.889 645.502C318.616 641.547 323.778 637.713 327.255 634.344C334.859 626.977 342.203 619.346 350.05 612.233C358.492 604.887 366.568 596.646 373.995 588.283C387.377 574.039 401.71 560.478 415.547 546.661Q429.101 533.409 442.409 519.909L457.721 504.422L468.719 493.488C472.918 489.674 476.494 485.342 480.919 481.721C482.735 479.931 484.769 478.354 486.733 476.729C481.835 469.367 474.992 463.253 468.753 457.028L472.563 453.24C477.968 447.696 483.181 441.921 489.541 437.449C493.708 434.049 497.528 430.24 501.406 426.519C505.052 423.349 508.295 419.62 511.617 416.113L516.546 410.704Z"/>
	<path fill="#763F1A" transform="scale(0.407715 0.407715)" d="M106.427 832.907C106.543 835.707 106.573 838.464 106.485 841.267C109.799 839.654 112.417 838.371 116.18 838.288C118.487 838.156 120.797 837.975 123.108 838.016C127.205 842.798 132.384 849.926 137.955 852.84Q144.918 859.877 152.239 866.539C157.954 873.417 164.897 880.005 171.516 886.003C178.372 886.067 186.255 886.856 192.958 885.263C197.29 889.643 200.156 895.106 204.379 899.579C197.518 903.012 169.836 901.839 162.119 900.282C161.968 900.158 161.815 900.037 161.667 899.909C158.138 896.861 154.93 893.226 151.548 889.988Q134.894 874.347 119.313 857.637C115.203 853.28 109.874 848.433 106.817 843.276C106.156 842.161 106.052 840.842 105.935 839.577C106.028 837.34 106.191 835.133 106.427 832.907Z"/>
	<path fill="#763F1A" transform="scale(0.407715 0.407715)" d="M480.919 481.721C483.159 484.399 504.258 505.73 506.259 506.817C509.132 506.205 510.881 505.253 513.139 503.353C515.148 504.93 516.943 506.634 518.758 508.421L518.937 508.866C522.811 512.441 539.699 528.081 540.216 532.276C540.247 532.533 540.21 532.794 540.208 533.053C528.259 545.809 514.959 557.036 502.775 569.539C501.22 571.032 499.64 572.857 497.905 574.115C489.661 581.662 475.435 593.024 469.764 602.157C467.743 600.246 465.846 598.172 463.916 596.169L456.537 588.727C451.62 583.662 446.895 578.486 441.703 573.691L441.408 573.24C439.694 572.004 438.193 570.322 436.677 568.848L433.276 565.535C428.667 561.182 424.063 556.794 419.926 551.984L419.682 551.986C418.467 550.137 416.918 548.404 415.547 546.661Q429.101 533.409 442.409 519.909L457.721 504.422L468.719 493.488C472.918 489.674 476.494 485.342 480.919 481.721Z"/>
	<path fill="#8D271C" transform="scale(0.407715 0.407715)" d="M469.593 545.078L474.341 540.299L502.775 569.539C501.22 571.032 499.64 572.857 497.905 574.115C495.704 570.911 492.495 568.124 489.766 565.33C483.114 558.517 476.184 551.936 469.593 545.078Z"/>
	<path fill="#A15719" transform="scale(0.407715 0.407715)" d="M513.139 503.353C515.148 504.93 516.943 506.634 518.758 508.421L518.937 508.866C518.522 518.696 522.071 525.606 527.665 533.364C521.791 539.433 516.097 545.501 509.373 550.65C506.66 549.067 504.039 547.467 501.631 545.439C497.729 542.154 488.389 531.55 484.156 530.41L484.265 529.981C490.268 523.039 497.212 516.889 503.906 510.624C505.281 509.402 505.817 508.567 506.259 506.817C509.132 506.205 510.881 505.253 513.139 503.353Z"/>
	<path fill="#D88134" transform="scale(0.407715 0.407715)" d="M480.919 481.721C483.159 484.399 504.258 505.73 506.259 506.817C505.817 508.567 505.281 509.402 503.906 510.624C497.212 516.889 490.268 523.039 484.265 529.981L484.156 530.41C480.964 533.735 477.267 536.768 474.341 540.299L469.593 545.078L469.158 545.04C466.548 543.33 464.23 540.535 462.018 538.309C455.775 532.027 449.673 525.022 442.409 519.909L457.721 504.422L468.719 493.488C472.918 489.674 476.494 485.342 480.919 481.721Z"/>
	<path fill="#FCDD2E" transform="scale(0.407715 0.407715)" d="M480.302 526.542C485.4 520.58 491.832 513.874 499.296 510.95C500.995 510.284 502.23 509.93 503.906 510.624C497.212 516.889 490.268 523.039 484.265 529.981L480.302 526.542Z"/>
	<path fill="#FCDD2E" transform="scale(0.407715 0.407715)" d="M481.955 488.828L482.533 489.171C483.966 492.724 483.087 510.446 481.584 514.246C481.081 515.518 480.737 515.982 479.501 516.529C477.364 514.762 475.366 512.84 473.347 510.939C470.986 508.888 468.795 506.566 466.559 504.373C471.356 498.805 476.543 493.783 481.955 488.828Z"/>
	<path fill="#D03318" transform="scale(0.407715 0.407715)" d="M442.409 519.909L457.721 504.422C465.192 511.849 472.916 519.036 480.302 526.542L484.265 529.981L484.156 530.41C480.964 533.735 477.267 536.768 474.341 540.299L469.593 545.078L469.158 545.04C466.548 543.33 464.23 540.535 462.018 538.309C455.775 532.027 449.673 525.022 442.409 519.909Z"/>
	<path fill="#A15719" transform="scale(0.407715 0.407715)" d="M442.409 519.909C449.673 525.022 455.775 532.027 462.018 538.309C464.23 540.535 466.548 543.33 469.158 545.04L469.593 545.078C476.184 551.936 483.114 558.517 489.766 565.33C492.495 568.124 495.704 570.911 497.905 574.115C489.661 581.662 475.435 593.024 469.764 602.157C467.743 600.246 465.846 598.172 463.916 596.169L456.537 588.727C451.62 583.662 446.895 578.486 441.703 573.691L441.408 573.24C439.694 572.004 438.193 570.322 436.677 568.848L433.276 565.535C428.667 561.182 424.063 556.794 419.926 551.984L419.682 551.986C418.467 550.137 416.918 548.404 415.547 546.661Q429.101 533.409 442.409 519.909Z"/>
	<path fill="#763F1A" transform="scale(0.407715 0.407715)" d="M469.158 545.04L469.593 545.078C476.184 551.936 483.114 558.517 489.766 565.33C492.495 568.124 495.704 570.911 497.905 574.115C489.661 581.662 475.435 593.024 469.764 602.157C467.743 600.246 465.846 598.172 463.916 596.169C472.398 588.931 482.034 581.56 485.875 570.712C482.149 560.947 473.134 555.758 466.621 548.029C467.298 546.946 468.305 545.994 469.158 545.04Z"/>
	<path fill="#D88134" transform="scale(0.407715 0.407715)" d="M442.409 519.909C449.673 525.022 455.775 532.027 462.018 538.309C464.23 540.535 466.548 543.33 469.158 545.04C468.305 545.994 467.298 546.946 466.621 548.029L465.912 548.199C460.494 553.911 455.148 559.737 449.483 565.206C446.985 568.112 444.587 571.041 441.408 573.24C439.694 572.004 438.193 570.322 436.677 568.848L433.276 565.535C428.667 561.182 424.063 556.794 419.926 551.984L419.682 551.986C418.467 550.137 416.918 548.404 415.547 546.661Q429.101 533.409 442.409 519.909Z"/>
	<path fill="#FCDD2E" transform="scale(0.407715 0.407715)" d="M436.677 568.848C440.208 566.188 443.517 562.319 447.505 560.436C448.19 562.009 448.941 563.579 449.483 565.206C446.985 568.112 444.587 571.041 441.408 573.24C439.694 572.004 438.193 570.322 436.677 568.848Z"/>
	<path fill="#FCDD2E" transform="scale(0.407715 0.407715)" d="M462.223 545.01C463.478 546.047 464.696 547.117 465.912 548.199C460.494 553.911 455.148 559.737 449.483 565.206C448.941 563.579 448.19 562.009 447.505 560.436C447.653 560.189 447.819 559.952 447.948 559.695C450.826 553.934 457.365 549.217 462.223 545.01Z"/>
	<path fill="#FCDD2E" transform="scale(0.407715 0.407715)" d="M444.335 527.095Q451.443 534.274 458.376 541.622C447.636 546.15 446.477 551.385 439.765 559.781C438.032 561.949 435.428 563.779 433.276 565.535C428.667 561.182 424.063 556.794 419.926 551.984C427.96 543.598 435.894 535.076 444.335 527.095Z"/>
	<path fill="#8D271C" transform="scale(0.407715 0.407715)" d="M896.462 520.582C900.087 517.788 906.736 507.621 911.092 507.28C911.292 507.264 911.492 507.31 911.693 507.311C912.148 507.313 912.603 507.282 913.058 507.272C913.409 511.415 923.532 520.205 926.778 523.529C922.781 528.016 918.577 532.466 915.093 537.369C906.57 545.207 898.515 553.689 890.307 561.862L856.046 595.692C835.764 615.856 814.92 635.414 795.746 656.663L789.462 650.135C786.817 646.439 782.992 643.636 780.241 639.949C778.224 642.128 776.196 644.272 774.073 646.349C776.321 640.95 782.739 637.041 786.799 632.909C778.891 626.794 772.022 620.102 765.457 612.593C778.397 596.881 795.097 584.247 808.545 568.922C816.411 559.951 825.639 551.159 834.485 543.14L836.339 543.07C843.22 538.99 847.319 532.253 853.326 527.237C858.649 530.513 863.589 534.858 868.502 538.742C877.374 532.768 886.208 523.977 896.462 520.582Z"/>
	<path fill="#D03318" transform="scale(0.407715 0.407715)" d="M868.502 538.742C877.374 532.768 886.208 523.977 896.462 520.582C892.432 527.336 791.383 630.739 787.343 632.88L786.799 632.909C778.891 626.794 772.022 620.102 765.457 612.593C778.397 596.881 795.097 584.247 808.545 568.922C816.411 559.951 825.639 551.159 834.485 543.14L836.339 543.07C843.22 538.99 847.319 532.253 853.326 527.237C858.649 530.513 863.589 534.858 868.502 538.742Z"/>
	<path fill="#F4AF4E" transform="scale(0.407715 0.407715)" d="M834.485 543.14L836.339 543.07L838.228 545.055C843.559 548.942 847.926 553.68 852.388 558.496C842.967 566.727 832.63 574.151 823.718 582.931L811.078 571.294C810.159 570.637 809.356 569.712 808.545 568.922C816.411 559.951 825.639 551.159 834.485 543.14Z"/>
	<path fill="#E75504" transform="scale(0.407715 0.407715)" d="M834.485 543.14L836.339 543.07L838.228 545.055C828.889 553.003 819.255 562.119 811.078 571.294C810.159 570.637 809.356 569.712 808.545 568.922C816.411 559.951 825.639 551.159 834.485 543.14Z"/>
	<path fill="#6A1413" transform="scale(0.407715 0.407715)" d="M608.038 530.72C619.703 542.609 631.874 553.952 643.845 565.529L717.427 635.584C721.247 631.305 725.214 627.118 728.934 622.758C736.354 629.318 743.236 636.466 750.352 643.35C754.927 647.777 759.826 651.946 764.255 656.507C767.589 653.2 771.063 649.958 774.073 646.349C776.196 644.272 778.224 642.128 780.241 639.949C782.992 643.636 786.817 646.439 789.462 650.135C785.061 654.612 781.1 659.514 776.695 663.997C770.18 670.628 763.302 676.869 756.911 683.63C747.068 674.848 737.8 665.589 728.525 656.217C718.635 666.344 708.207 675.935 698.441 686.185C668.963 658.395 640.662 629.378 611.504 601.242C598.778 588.961 586.769 575.601 572.468 565.111L572.549 564.6C577.815 560.995 582.501 555.802 587.001 551.288C593.93 544.337 600.782 537.335 608.038 530.72Z"/>
	<path fill="#8D271C" transform="scale(0.407715 0.407715)" d="M675.843 625.252C676.061 625.318 676.287 625.36 676.496 625.45C682.303 627.952 696.676 643.706 699.473 649.432C698.4 651.121 697.136 652.509 695.784 653.978C694.818 653.514 693.916 652.831 693.039 652.214C688.616 649.102 672.868 635.383 672.648 630.421C672.55 628.221 674.446 626.672 675.843 625.252Z"/>
	<path fill="#8D271C" transform="scale(0.407715 0.407715)" d="M605.955 553.289C611.399 556.115 656.004 601.951 659.201 608.007L658.842 608.735C657.344 609.588 655.729 609.502 654.052 609.582C643.181 604.118 631.151 589.668 622.289 581.009Q611.277 570.24 599.56 560.243L605.955 553.289Z"/>
	<path fill="#464A42" transform="scale(0.407715 0.407715)" d="M516.546 410.704L522.42 404.657C530.38 412.791 538.169 421.374 546.935 428.644C556.791 437.687 566.182 447.252 576.121 456.187C586.347 463.815 593.844 474.278 602.86 483.178C606.242 486.515 609.933 489.228 613.741 492.04C615.378 493.476 617.202 494.869 618.643 496.497C618.328 504.001 617.98 512.287 619.021 519.721L615.272 523.526L608.038 530.72C600.782 537.335 593.93 544.337 587.001 551.288C582.501 555.802 577.815 560.995 572.549 564.6L572.468 565.111C566.884 563.263 543.389 538.896 540.208 533.053C540.21 532.794 540.247 532.533 540.216 532.276C539.699 528.081 522.811 512.441 518.937 508.866L518.758 508.421C516.943 506.634 515.148 504.93 513.139 503.353C510.881 505.253 509.132 506.205 506.259 506.817C504.258 505.73 483.159 484.399 480.919 481.721C482.735 479.931 484.769 478.354 486.733 476.729C481.835 469.367 474.992 463.253 468.753 457.028L472.563 453.24C477.968 447.696 483.181 441.921 489.541 437.449C493.708 434.049 497.528 430.24 501.406 426.519C505.052 423.349 508.295 419.62 511.617 416.113L516.546 410.704Z"/>
	<path fill="#2E3A2C" transform="scale(0.407715 0.407715)" d="M541.619 490.222C544.727 491.953 567.138 515.224 572.02 519.859Q571.996 542.233 572.549 564.6L572.468 565.111C566.884 563.263 543.389 538.896 540.208 533.053C540.21 532.794 540.247 532.533 540.216 532.276C539.699 528.081 522.811 512.441 518.937 508.866L518.758 508.421C525.102 502.146 534.277 497.616 541.619 490.222Z"/>
	<path fill="#848467" transform="scale(0.407715 0.407715)" d="M516.546 410.704L522.42 404.657C530.38 412.791 538.169 421.374 546.935 428.644C556.791 437.687 566.182 447.252 576.121 456.187L554.534 477.181C550.283 481.365 546.149 485.932 541.671 489.853L541.619 490.222C534.277 497.616 525.102 502.146 518.758 508.421C516.943 506.634 515.148 504.93 513.139 503.353C510.881 505.253 509.132 506.205 506.259 506.817C504.258 505.73 483.159 484.399 480.919 481.721C482.735 479.931 484.769 478.354 486.733 476.729C481.835 469.367 474.992 463.253 468.753 457.028L472.563 453.24C477.968 447.696 483.181 441.921 489.541 437.449C493.708 434.049 497.528 430.24 501.406 426.519C505.052 423.349 508.295 419.62 511.617 416.113L516.546 410.704Z"/>
	<path fill="#C3AE81" transform="scale(0.407715 0.407715)" d="M516.546 410.704L522.42 404.657C530.38 412.791 538.169 421.374 546.935 428.644C541.614 434.073 536.042 439.249 530.656 444.613C525.023 450.223 519.112 457.376 512.448 461.683C504.547 453.955 496.57 445.986 489.541 437.449C493.708 434.049 497.528 430.24 501.406 426.519C505.052 423.349 508.295 419.62 511.617 416.113L516.546 410.704Z"/>
	<path fill="#464A42" transform="scale(0.407715 0.407715)" d="M489.541 437.449C496.57 445.986 504.547 453.955 512.448 461.683C521.99 471.298 531.374 481.035 541.671 489.853L541.619 490.222C534.277 497.616 525.102 502.146 518.758 508.421C516.943 506.634 515.148 504.93 513.139 503.353C510.881 505.253 509.132 506.205 506.259 506.817C504.258 505.73 483.159 484.399 480.919 481.721C482.735 479.931 484.769 478.354 486.733 476.729C481.835 469.367 474.992 463.253 468.753 457.028L472.563 453.24C477.968 447.696 483.181 441.921 489.541 437.449Z"/>
	<path fill="#A15719" transform="scale(0.407715 0.407715)" d="M486.733 476.729C494.888 486.528 504.274 494.331 513.139 503.353C510.881 505.253 509.132 506.205 506.259 506.817C504.258 505.73 483.159 484.399 480.919 481.721C482.735 479.931 484.769 478.354 486.733 476.729Z"/>
	<path fill="#8D271C" transform="scale(0.407715 0.407715)" d="M873.698 439.496C876.219 441.923 878.838 444.897 881.788 446.761L882.021 447.201C881.987 453.286 882.439 459.948 879.434 465.451C879.619 470.139 882.006 474.773 884.298 478.79C884.05 479.426 883.827 480.111 883.516 480.719L884.41 481.036C885.132 481.288 885.722 481.448 886.494 481.467C886.732 481.326 886.959 481.163 887.209 481.044C888.502 480.431 892.702 480.562 893.991 481.037L894.443 481.475C894.392 485.392 891.562 485.803 890.087 488.945C877.899 501.733 864.925 513.916 853.326 527.237C847.319 532.253 843.22 538.99 836.339 543.07L834.485 543.14C825.639 551.159 816.411 559.951 808.545 568.922C795.097 584.247 778.397 596.881 765.457 612.593C772.022 620.102 778.891 626.794 786.799 632.909C782.739 637.041 776.321 640.95 774.073 646.349C771.063 649.958 767.589 653.2 764.255 656.507C759.826 651.946 754.927 647.777 750.352 643.35C743.236 636.466 736.354 629.318 728.934 622.758C725.214 627.118 721.247 631.305 717.427 635.584L643.845 565.529C631.874 553.952 619.703 542.609 608.038 530.72L615.272 523.526L619.021 519.721C623.683 526.045 638.242 537.878 644.622 544.075Q660.043 558.855 675.158 573.948C683.915 582.708 692.515 591.72 701.538 600.199C703.519 602.061 706.649 605.402 709.216 606.322C711.736 603.556 719.3 598.4 719.93 595.022C727.165 587.046 734.789 579.628 742.308 571.918L764.717 548.505C767.77 545.379 770.741 542.23 773.594 538.919C780.82 534.733 791.33 522.532 797.12 516.006C801.022 512.263 804.704 508.246 808.567 504.452L809.07 503.861L836.778 476.552L839.532 473.878C841.867 471.387 844.369 469.023 846.794 466.616C851.05 462.048 855.543 457.701 859.977 453.307L861.838 451.746C865.864 447.9 870.429 444.016 873.698 439.496Z"/>
	<path fill="#8D271C" transform="scale(0.407715 0.407715)" d="M879.434 465.451C879.619 470.139 882.006 474.773 884.298 478.79C878.748 478.041 876.155 474.456 872.838 470.374C874.79 468.348 876.916 466.703 879.434 465.451Z"/>
	<path fill="#311414" transform="scale(0.407715 0.407715)" d="M619.021 519.721C623.683 526.045 638.242 537.878 644.622 544.075Q660.043 558.855 675.158 573.948C683.915 582.708 692.515 591.72 701.538 600.199C703.519 602.061 706.649 605.402 709.216 606.322C713.321 609.999 717.411 613.858 722.027 616.89C720.195 618.769 718.147 620.031 715.937 621.401Q666.098 571.956 615.272 523.526L619.021 519.721Z"/>
	<path fill="#A15719" transform="scale(0.407715 0.407715)" d="M883.516 480.719L884.41 481.036C885.132 481.288 885.722 481.448 886.494 481.467C886.732 481.326 886.959 481.163 887.209 481.044C888.502 480.431 892.702 480.562 893.991 481.037L894.443 481.475C894.392 485.392 891.562 485.803 890.087 488.945C877.899 501.733 864.925 513.916 853.326 527.237C847.319 532.253 843.22 538.99 836.339 543.07L834.485 543.14C833.767 541.727 833.1 540.596 833.086 538.964C840.819 522.68 855.567 509.769 867.684 496.747C872.689 491.368 877.553 485.012 883.516 480.719Z"/>
	<path fill="#A15719" transform="scale(0.407715 0.407715)" d="M873.698 439.496C876.219 441.923 878.838 444.897 881.788 446.761L882.021 447.201C881.987 453.286 882.439 459.948 879.434 465.451C876.916 466.703 874.79 468.348 872.838 470.374C862.395 480.701 851.384 490.402 840.786 500.56L776.995 562.785L742.369 597.458C736.213 603.662 729.078 611.969 722.027 616.89C717.411 613.858 713.321 609.999 709.216 606.322C711.736 603.556 719.3 598.4 719.93 595.022C727.165 587.046 734.789 579.628 742.308 571.918L764.717 548.505C767.77 545.379 770.741 542.23 773.594 538.919C780.82 534.733 791.33 522.532 797.12 516.006C801.022 512.263 804.704 508.246 808.567 504.452L809.07 503.861L836.778 476.552L839.532 473.878C841.867 471.387 844.369 469.023 846.794 466.616C851.05 462.048 855.543 457.701 859.977 453.307L861.838 451.746C865.864 447.9 870.429 444.016 873.698 439.496Z"/>
	<path fill="#E75504" transform="scale(0.407715 0.407715)" d="M231.721 727.455C234.305 729.727 236.802 732.034 239.222 734.48L240.566 735.775C246.774 741.787 252.858 748.192 259.459 753.76L259.512 754.042C266.645 757.463 271.692 765.099 277.686 770.164C282.159 774.304 286.438 778.631 290.736 782.949C284.382 790.603 276.938 797.322 269.497 803.896C265.989 806.995 262.044 810.009 258.872 813.444C261.036 822.364 259.622 833.891 259.381 843.098C250.283 855.309 238.769 865.728 228.062 876.502C220.353 884.26 212.842 892.644 204.379 899.579C200.156 895.106 197.29 889.643 192.958 885.263C186.255 886.856 178.372 886.067 171.516 886.003C164.897 880.005 157.954 873.417 152.239 866.539Q144.918 859.877 137.955 852.84C132.384 849.926 127.205 842.798 123.108 838.016C120.797 837.975 118.487 838.156 116.18 838.288C112.417 838.371 109.799 839.654 106.485 841.267C106.573 838.464 106.543 835.707 106.427 832.907C106.497 825.411 107.23 819.604 111.522 813.208C116.798 807.058 122.768 801.262 128.444 795.476Q144 779.634 159.852 764.088C162.792 761.156 165.874 758.357 168.907 755.521C178.54 755.303 188.239 755.309 197.858 754.829C201.506 754.647 205.071 754.762 207.642 751.896C214.875 743.081 223.505 735.343 231.721 727.455Z"/>
	<path fill="#A15719" transform="scale(0.407715 0.407715)" d="M207.642 751.896C208.1 753.799 209.33 754.599 210.682 755.966C210.228 761.858 211.319 765.956 215.272 770.554C218.139 773.889 221.484 776.798 224.453 780.045C235.462 792.084 245.377 803.96 258.872 813.444C261.036 822.364 259.622 833.891 259.381 843.098C250.283 855.309 238.769 865.728 228.062 876.502C220.353 884.26 212.842 892.644 204.379 899.579C200.156 895.106 197.29 889.643 192.958 885.263C199.414 876.16 207.663 869.419 215.334 861.448C221.288 855.26 226.674 848.524 232.535 842.249C236.273 838.247 241.032 834.73 243.895 830.014C245.73 826.993 245.696 822.719 247.331 819.377C247.419 819.195 247.514 819.017 247.606 818.837C231.3 803.627 218.697 784.294 201.263 770.309L199.603 767.983C196.242 766.351 172.781 768.052 166.761 767.961C164.502 766.56 162.303 765.136 159.852 764.088C162.792 761.156 165.874 758.357 168.907 755.521C178.54 755.303 188.239 755.309 197.858 754.829C201.506 754.647 205.071 754.762 207.642 751.896Z"/>
	<path fill="#F4AF4E" transform="scale(0.407715 0.407715)" d="M131.336 843.999C136.602 836.161 144.797 828.992 151.446 822.285L185.312 788.248C190.35 783.176 197.309 777.376 200.807 771.139C202.079 778.046 218.038 789.4 223.294 794.493L188.374 829.875Q170.046 847.95 152.239 866.539Q144.918 859.877 137.955 852.84C136.72 849.626 133.425 846.785 131.336 843.999Z"/>
	<path fill="#FCDD2E" transform="scale(0.407715 0.407715)" d="M159.852 764.088C162.303 765.136 164.502 766.56 166.761 767.961C172.781 768.052 196.242 766.351 199.603 767.983L201.263 770.309L200.807 771.139C197.309 777.376 190.35 783.176 185.312 788.248L151.446 822.285C144.797 828.992 136.602 836.161 131.336 843.999C133.425 846.785 136.72 849.626 137.955 852.84C132.384 849.926 127.205 842.798 123.108 838.016C120.797 837.975 118.487 838.156 116.18 838.288C112.417 838.371 109.799 839.654 106.485 841.267C106.573 838.464 106.543 835.707 106.427 832.907C106.497 825.411 107.23 819.604 111.522 813.208C116.798 807.058 122.768 801.262 128.444 795.476Q144 779.634 159.852 764.088Z"/>
	<path fill="#D88134" transform="scale(0.407715 0.407715)" d="M159.852 764.088C162.303 765.136 164.502 766.56 166.761 767.961C172.781 768.052 196.242 766.351 199.603 767.983L199.146 768.079C192.337 769.44 179.162 769.042 173.6 771.599C165.659 775.25 149.852 794.207 142.799 801.365C134.482 809.806 124.451 817.657 117.782 827.514C117.602 827.78 117.428 828.049 117.251 828.317C121.596 833.876 126.913 838.543 131.336 843.999C133.425 846.785 136.72 849.626 137.955 852.84C132.384 849.926 127.205 842.798 123.108 838.016C120.797 837.975 118.487 838.156 116.18 838.288C112.417 838.371 109.799 839.654 106.485 841.267C106.573 838.464 106.543 835.707 106.427 832.907C106.497 825.411 107.23 819.604 111.522 813.208C116.798 807.058 122.768 801.262 128.444 795.476Q144 779.634 159.852 764.088Z"/>
	<path fill="#E75504" transform="scale(0.407715 0.407715)" d="M111.522 813.208C117.924 822.815 115.231 828.12 116.18 838.288C112.417 838.371 109.799 839.654 106.485 841.267C106.573 838.464 106.543 835.707 106.427 832.907C106.497 825.411 107.23 819.604 111.522 813.208Z"/>
	<path fill="#763F1A" transform="scale(0.407715 0.407715)" d="M231.721 727.455C234.305 729.727 236.802 732.034 239.222 734.48L240.566 735.775C246.774 741.787 252.858 748.192 259.459 753.76L259.512 754.042C266.645 757.463 271.692 765.099 277.686 770.164C282.159 774.304 286.438 778.631 290.736 782.949C284.382 790.603 276.938 797.322 269.497 803.896C265.989 806.995 262.044 810.009 258.872 813.444C245.377 803.96 235.462 792.084 224.453 780.045C221.484 776.798 218.139 773.889 215.272 770.554C211.319 765.956 210.228 761.858 210.682 755.966C209.33 754.599 208.1 753.799 207.642 751.896C214.875 743.081 223.505 735.343 231.721 727.455Z"/>
	<path fill="#A15719" transform="scale(0.407715 0.407715)" d="M256.783 757.148C264.555 764.169 271.788 771.306 278.474 779.402Q272.094 784.016 266.187 789.223Q260.28 794.43 254.901 800.181C249.185 794.546 239.138 786.13 235.315 779.477C242.269 771.857 249.312 764.265 256.783 757.148Z"/>
	<path fill="#F4AF4E" transform="scale(0.407715 0.407715)" d="M231.721 727.455C234.305 729.727 236.802 732.034 239.222 734.48L240.566 735.775C246.774 741.787 252.858 748.192 259.459 753.76L259.512 754.042C258.624 755.106 257.767 756.171 256.783 757.148C249.312 764.265 242.269 771.857 235.315 779.477L210.682 755.966C209.33 754.599 208.1 753.799 207.642 751.896C214.875 743.081 223.505 735.343 231.721 727.455Z"/>
	<path fill="#FCDD2E" transform="scale(0.407715 0.407715)" d="M233.895 735.85C239.86 740.179 244.712 747.116 250.09 752.258C244.329 757.336 238.806 762.643 232.735 767.36L231.577 767.697C226.341 765.163 221.35 757.406 217.859 752.85L233.895 735.85Z"/>
	<path fill="#4B0B0E" transform="scale(0.407715 0.407715)" d="M373.995 588.283C387.377 574.039 401.71 560.478 415.547 546.661C416.918 548.404 418.467 550.137 419.682 551.986L419.926 551.984C424.063 556.794 428.667 561.182 433.276 565.535L436.677 568.848C438.193 570.322 439.694 572.004 441.408 573.24L441.703 573.691C446.895 578.486 451.62 583.662 456.537 588.727L463.916 596.169C465.846 598.172 467.743 600.246 469.764 602.157C462.98 610.992 454.964 618.793 447.098 626.649L421.746 651.936Q372.213 700.873 323.762 750.883C313.178 761.662 300.581 771.777 290.736 782.949C286.438 778.631 282.159 774.304 277.686 770.164C271.692 765.099 266.645 757.463 259.512 754.042L259.459 753.76C252.858 748.192 246.774 741.787 240.566 735.775L239.222 734.48C236.802 732.034 234.305 729.727 231.721 727.455C253.879 706.226 275.963 685.076 297.372 663.074C303.423 657.113 309.505 651.105 315.889 645.502C318.616 641.547 323.778 637.713 327.255 634.344C334.859 626.977 342.203 619.346 350.05 612.233C358.492 604.887 366.568 596.646 373.995 588.283Z"/>
	<path fill="#26162A" transform="scale(0.407715 0.407715)" d="M399.084 612.146L402.093 613.528C401.925 615.198 401.694 615.669 400.626 616.973C395.031 623.805 387.764 629.88 381.48 636.133C377.136 640.455 372.917 645.623 368.198 649.463L367.417 650.088C365.92 649.612 365.087 648.297 364.114 647.136C366.664 644.602 369.357 642.189 371.983 639.732L374.748 637.017Q387.435 625.09 399.084 612.146Z"/>
	<path fill="#26162A" transform="scale(0.407715 0.407715)" d="M322.057 686.832C322.145 686.734 322.232 686.634 322.322 686.538C324.336 684.387 328.802 679.333 331.775 679.182C330.97 681.716 329.899 683.66 328.272 685.748C323.911 691.344 293.889 721.995 289.213 724.039C288.374 724.406 287.922 724.541 287.035 724.451C290.971 718.213 296.538 713.528 301.529 708.157Q312.394 698.073 322.057 686.832Z"/>
	<path fill="#6A1413" transform="scale(0.407715 0.407715)" d="M373.995 588.283C387.377 574.039 401.71 560.478 415.547 546.661C416.918 548.404 418.467 550.137 419.682 551.986L419.926 551.984C424.063 556.794 428.667 561.182 433.276 565.535L436.677 568.848C438.193 570.322 439.694 572.004 441.408 573.24L441.703 573.691C439.27 575.462 437.312 578.089 435.109 580.178C427.635 587.265 406.53 605.579 402.093 613.528L399.084 612.146Q396.155 609.621 393.332 606.977C393.064 606.745 392.8 606.507 392.53 606.277C385.97 600.662 380.446 594.025 373.995 588.283Z"/>
	<path fill="#4B0B0E" transform="scale(0.407715 0.407715)" d="M373.995 588.283C387.377 574.039 401.71 560.478 415.547 546.661C416.918 548.404 418.467 550.137 419.682 551.986C415.779 556.938 408.083 561.148 403.039 565.337C393.991 572.85 385.764 582.27 376.148 588.902C379.932 592.503 392.586 602.686 393.332 606.977C393.064 606.745 392.8 606.507 392.53 606.277C385.97 600.662 380.446 594.025 373.995 588.283Z"/>
	<path fill="#311414" transform="scale(0.407715 0.407715)" d="M456.537 588.727L463.916 596.169C465.846 598.172 467.743 600.246 469.764 602.157C462.98 610.992 454.964 618.793 447.098 626.649L421.746 651.936Q372.213 700.873 323.762 750.883C313.178 761.662 300.581 771.777 290.736 782.949C286.438 778.631 282.159 774.304 277.686 770.164C279.989 767.411 283.786 765.016 286.593 762.72Q294.062 756.729 300.839 749.965C305.639 745.085 309.614 739.494 314.321 734.55C325.926 722.363 337.897 710.487 349.417 698.22C355.298 691.958 360.924 684.705 367.406 679.102C370.063 676.804 373.673 675.883 376.314 673.696C378.501 671.886 379.708 669.394 382.124 667.736C383.563 667.579 385.074 667.457 386.432 666.924C391.394 664.978 415.095 641.273 418.816 635.42C420.619 632.584 418.927 630.153 421.793 626.845C432.617 614.353 449.645 603.76 456.537 588.727Z"/>
	<path fill="#6A1413" transform="scale(0.407715 0.407715)" d="M373.995 588.283C380.446 594.025 385.97 600.662 392.53 606.277C392.8 606.507 393.064 606.745 393.332 606.977Q396.155 609.621 399.084 612.146Q387.435 625.09 374.748 637.017L371.983 639.732C369.357 642.189 366.664 644.602 364.114 647.136C362.531 648.745 360.943 650.337 359.44 652.023C358.539 653.033 357.571 653.712 356.425 654.415C355.178 654.301 355.085 653.893 354.195 653.07C354.817 654.428 355.297 655.018 355.093 656.521C351.357 660.76 335.756 676.576 331.775 679.182C328.802 679.333 324.336 684.387 322.322 686.538C322.232 686.634 322.145 686.734 322.057 686.832Q312.394 698.073 301.529 708.157C296.538 713.528 290.971 718.213 287.035 724.451C280.046 735.881 267.221 742.82 259.459 753.76C252.858 748.192 246.774 741.787 240.566 735.775L239.222 734.48C236.802 732.034 234.305 729.727 231.721 727.455C253.879 706.226 275.963 685.076 297.372 663.074C303.423 657.113 309.505 651.105 315.889 645.502C318.616 641.547 323.778 637.713 327.255 634.344C334.859 626.977 342.203 619.346 350.05 612.233C358.492 604.887 366.568 596.646 373.995 588.283Z"/>
	<path fill="#4B0B0E" transform="scale(0.407715 0.407715)" d="M297.372 663.074C303.423 657.113 309.505 651.105 315.889 645.502C314.614 648.841 311.131 651.734 308.691 654.342C312.636 658.204 317.181 662.052 319.702 667.034C316.164 663.493 312.627 659.75 308.475 656.921C306.309 658.588 301.39 664.516 299.179 664.394L297.372 663.074Z"/>
	<path fill="#8D271C" transform="scale(0.407715 0.407715)" d="M239.222 734.48C248.332 726.966 256.636 718.736 266.253 711.823C260.769 718.878 255.164 724.853 248.07 730.368C245.641 732.256 242.943 733.855 240.566 735.775L239.222 734.48Z"/>
	<path fill="#763F1A" transform="scale(0.407715 0.407715)" d="M354.346 622.067C360.211 627.971 366.306 633.641 371.983 639.732C369.357 642.189 366.664 644.602 364.114 647.136C362.531 648.745 360.943 650.337 359.44 652.023C358.539 653.033 357.571 653.712 356.425 654.415C355.178 654.301 355.085 653.893 354.195 653.07C350.702 648.122 344.154 642.959 339.966 637.497C343.932 631.83 348.791 626.226 354.346 622.067Z"/>
	<path fill="#763F1A" transform="scale(0.407715 0.407715)" d="M279.679 686.408C287.158 680.167 293.679 672.756 300.352 665.68Q310.962 676.504 322.057 686.832Q312.394 698.073 301.529 708.157C293.777 701.399 286.886 693.732 279.679 686.408Z"/>
	<path fill="#763F1A" transform="scale(0.407715 0.407715)" d="M373.995 588.283C380.446 594.025 385.97 600.662 392.53 606.277C392.8 606.507 393.064 606.745 393.332 606.977Q396.155 609.621 399.084 612.146Q387.435 625.09 374.748 637.017C365.989 629.359 358.057 620.666 350.05 612.233C358.492 604.887 366.568 596.646 373.995 588.283Z"/>
</svg>
