<?xml version="1.0" encoding="utf-8" ?>
<svg xmlns="http://www.w3.org/2000/svg" xmlns:xlink="http://www.w3.org/1999/xlink" width="417" height="417">
	<path transform="scale(0.407715 0.407715)" d="M189.034 884.168C198.016 884.125 207.121 883.812 216.081 884.428C214.954 893.177 215.144 902.955 215.651 911.756C207.732 909.866 197.244 911.192 189.011 911.379L189.034 884.168Z"/>
	<path transform="scale(0.407715 0.407715)" d="M780.498 856.023L808.049 856.052C807.986 865.344 807.675 874.704 807.947 883.989Q794.223 883.7 780.499 884.038L780.37 860.727L780.498 856.023Z"/>
	<path transform="scale(0.407715 0.407715)" d="M835.032 531.062C844.468 531.11 854.039 530.826 863.452 531.475C863.477 540.849 863.623 550.241 863.399 559.612C853.977 559.197 844.498 559.499 835.064 559.419L835.032 531.062Z"/>
	<path transform="scale(0.407715 0.407715)" d="M780.455 469.031L807.427 468.976C807.419 479.326 807.243 489.706 807.523 500.052L780.571 499.96L780.455 469.031Z"/>
	<path transform="scale(0.407715 0.407715)" d="M189.053 499.614Q198.654 499.399 208.255 499.618C210.664 499.743 213.07 499.89 215.483 499.889L215.479 528.027L188.811 528.022C188.597 537.644 188.287 547.321 188.813 556.939C179.739 557.485 170.564 556.4 161.553 557.193L161.636 527.872Q175.237 528.006 188.838 527.816Q188.843 513.714 189.053 499.614Z"/>
	<path transform="scale(0.407715 0.407715)" d="M353.123 114.82C369.244 115.374 385.44 115.031 401.567 114.879C401.899 124.062 401.749 133.232 401.625 142.417L353.509 142.496L353.506 171.018C344.603 171.015 335.608 170.75 326.722 171.299C326.98 161.567 326.729 151.816 326.919 142.078L353.266 141.996Q353.034 128.409 353.123 114.82Z"/>
	<path transform="scale(0.407715 0.407715)" d="M807.947 883.989Q821.269 884.078 834.59 883.959C834.596 893.156 834.696 902.363 834.6 911.559C825.744 911.638 816.763 911.366 807.927 911.746L807.948 939.41L669.959 939.176L669.933 911.836Q738.915 911.171 807.899 911.496L807.947 883.989Z"/>
	<path transform="scale(0.407715 0.407715)" d="M133.946 586.518C134.121 595.843 134.664 605.374 133.778 614.665L133.439 615.872Q119.695 616.076 105.949 616.017L105.998 647.044L105.989 675.358C124.24 675.441 142.779 676.156 160.99 675.127Q160.922 688.86 161.011 702.592L80.0524 702.609L80.0414 615.563L105.908 615.626Q105.649 601.134 105.918 586.643Q119.933 586.692 133.946 586.518Z"/>
	<path fill="#F36E0C" transform="scale(0.407715 0.407715)" d="M696.611 856.527L762.894 856.173L780.498 856.023L780.37 860.727L780.499 884.038Q794.223 883.7 807.947 883.989L807.899 911.496Q738.915 911.171 669.933 911.836L669.526 911.572L669.629 884.522Q683.071 884.822 696.515 884.657L696.611 856.527Z"/>
	<path fill="#FAB424" transform="scale(0.407715 0.407715)" d="M762.894 856.173L780.498 856.023L780.37 860.727C778.988 867.946 779.97 876.747 780.221 884.101C771.752 885.219 762.586 884.573 754.026 884.512L754.021 856.572C756.59 856.58 760.506 857.017 762.894 856.173Z"/>
	<path transform="scale(0.407715 0.407715)" d="M401.569 87.051L621.965 86.9933L622.016 114.541Q645.473 114.903 668.932 115.017C668.925 124.313 668.826 133.62 668.951 142.916C678.428 142.864 688.004 142.52 697.468 142.941C696.593 150.632 696.599 158.264 696.667 165.989C696.665 167.696 696.58 169.145 696.174 170.806C687.699 172.031 677.406 171.056 668.736 171.016Q668.371 157.031 668.716 143.046L621.97 143.017C621.612 133.684 621.764 124.376 621.997 115.043L466.195 114.967L423.639 115.005C416.552 115.014 408.766 115.653 401.768 114.672C401.393 105.475 401.537 96.2545 401.569 87.051Z"/>
	<path fill="#F36E0C" transform="scale(0.407715 0.407715)" d="M188.811 528.022L215.479 528.027L215.774 529.335Q216.114 543.223 216.022 557.115C215.928 568.106 215.592 579.132 215.694 590.118C215.771 598.433 216.415 606.89 215.973 615.189L215.752 615.403Q202.456 615.616 189.159 615.494C188.001 625.859 188.838 636.1 189.015 646.484C179.9 647.997 170.219 646.976 160.996 647.003L160.99 675.127C142.779 676.156 124.24 675.441 105.989 675.358L105.998 647.044L105.949 616.017Q119.695 616.076 133.439 615.872L133.778 614.665C134.664 605.374 134.121 595.843 133.946 586.518L134.122 586.094C134.528 576.66 134.212 567.102 134.207 557.654Q147.648 557.84 161.085 557.492L161.553 557.193C170.564 556.4 179.739 557.485 188.813 556.939C188.287 547.321 188.597 537.644 188.811 528.022Z"/>
	<path fill="#FAB424" transform="scale(0.407715 0.407715)" d="M105.949 616.017Q119.695 616.076 133.439 615.872Q133.608 631.434 133.478 646.996C124.321 647.022 115.153 647.151 105.998 647.044L105.949 616.017Z"/>
	<path fill="#FAB424" transform="scale(0.407715 0.407715)" d="M188.811 528.022L215.479 528.027L215.774 529.335Q216.114 543.223 216.022 557.115L188.967 557.013L188.983 586.082L161.378 586.068Q161.514 600.74 161.416 615.413C157.417 615.438 135.563 616.347 133.778 614.665C134.664 605.374 134.121 595.843 133.946 586.518L134.122 586.094C134.528 576.66 134.212 567.102 134.207 557.654Q147.648 557.84 161.085 557.492L161.553 557.193C170.564 556.4 179.739 557.485 188.813 556.939C188.287 547.321 188.597 537.644 188.811 528.022Z"/>
	<path transform="scale(0.407715 0.407715)" d="M134.207 557.654Q147.648 557.84 161.085 557.492C161.319 566.967 161.837 576.563 160.984 586.014C152.054 585.914 143.043 585.665 134.122 586.094C134.528 576.66 134.212 567.102 134.207 557.654Z"/>
	<path transform="scale(0.407715 0.407715)" d="M754.017 804.416Q767.271 804.53 780.525 804.446C780.509 821.628 780.243 838.846 780.498 856.023L762.894 856.173L696.611 856.527L696.515 884.657Q683.071 884.822 669.629 884.522L669.526 911.572C658.023 911.004 646.361 911.481 634.842 911.495L557.671 911.634C557.738 920.758 558.029 929.855 557.756 938.979L432.769 938.963C432.304 929.83 433.682 920.655 432.589 911.538Q495.112 910.965 557.636 911.451C557.47 902.336 557.103 893.083 557.881 883.991L669.531 884.494C670.112 875.339 669.947 866.144 669.938 856.974Q683.242 857.108 696.533 856.51Q696.296 843.241 696.679 829.976L753.68 829.987Q753.375 817.195 754.017 804.416Z"/>
	<path transform="scale(0.407715 0.407715)" d="M835.064 559.419C844.498 559.499 853.977 559.197 863.399 559.612L863.517 559.868C872.501 559.912 881.513 559.715 890.493 559.896L890.471 586.541L916.593 586.643L916.659 615.474L916.935 615.564C925.763 615.559 934.605 615.444 943.431 615.569L943.435 702.398Q903.196 701.792 862.957 702.382L863.065 674.698Q848.994 674.74 834.925 674.539C834.847 699.047 834.437 723.663 834.96 748.162C825.931 747.886 816.937 747.742 807.929 748.532C808.241 738.947 807.547 729.34 807.515 719.751L807.538 649.075C807.532 637.937 806.943 626.484 807.739 615.395L807.61 614.986C806.821 596.773 807.485 578.27 807.478 560.025C816.682 560.053 825.879 560.089 835.064 559.419Z"/>
	<path fill="#F36E0C" transform="scale(0.407715 0.407715)" d="M835.064 559.419C844.498 559.499 853.977 559.197 863.399 559.612L863.517 559.868C872.501 559.912 881.513 559.715 890.493 559.896L890.471 586.541L916.593 586.643L916.659 615.474L916.935 615.564Q917.18 631.299 917.006 647.035L916.925 675.102L889.924 675.007C889.067 665.701 889.48 656.113 889.489 646.768L835.139 646.916C835.026 636.434 835.185 625.93 835.222 615.446Q821.48 615.607 807.739 615.395L807.61 614.986C806.821 596.773 807.485 578.27 807.478 560.025C816.682 560.053 825.879 560.089 835.064 559.419Z"/>
	<path fill="#FAB424" transform="scale(0.407715 0.407715)" d="M863.889 586.848C872.618 587.32 881.326 587.115 890.061 587.01C889.479 595.522 888.208 607.331 889.803 615.612C880.934 615.021 871.9 615.369 863.01 615.378C863.617 609.084 862.584 591.22 863.889 586.848Z"/>
	<path fill="#FAB424" transform="scale(0.407715 0.407715)" d="M835.064 559.419C844.498 559.499 853.977 559.197 863.399 559.612L863.517 559.868C863.455 566.388 862.401 581.318 863.572 586.808C860.338 586.455 856.84 586.861 853.576 586.917C847.413 587.023 841.244 587 835.08 587.017Q834.931 573.218 835.064 559.419Z"/>
	<path fill="#FAB424" transform="scale(0.407715 0.407715)" d="M916.659 615.474L916.935 615.564Q917.18 631.299 917.006 647.035Q903.234 646.906 889.465 646.559C889.539 636.692 887.578 625.499 889.929 615.861C898.841 616.211 907.747 615.652 916.659 615.474Z"/>
	<path transform="scale(0.407715 0.407715)" d="M863.517 559.868C872.501 559.912 881.513 559.715 890.493 559.896L890.471 586.541L916.593 586.643L916.659 615.474C907.747 615.652 898.841 616.211 889.929 615.861L889.803 615.612C888.208 607.331 889.479 595.522 890.061 587.01C881.326 587.115 872.618 587.32 863.889 586.848L863.572 586.808C862.401 581.318 863.455 566.388 863.517 559.868Z"/>
	<path fill="#142E3E" transform="scale(0.407715 0.407715)" d="M401.567 114.879L401.768 114.672C408.766 115.653 416.552 115.014 423.639 115.005L466.195 114.967L621.997 115.043C621.764 124.376 621.612 133.684 621.97 143.017L668.716 143.046Q668.371 157.031 668.736 171.016C677.406 171.056 687.699 172.031 696.174 170.806C696.58 169.145 696.665 167.696 696.667 165.989C696.761 167.697 696.553 169.41 697.527 170.839C698.652 171.077 699.649 171.154 700.799 171.162C709.04 170.858 717.412 170.848 725.659 171.05Q725.363 185.518 725.594 199.988L725.935 200.072C735.058 200.099 744.32 199.781 753.424 200.244C753.441 220.771 752.888 241.519 753.524 262.023L780.189 262.039C780.209 263.799 780.349 265.641 780.199 267.391C780.741 314.395 780.309 361.448 780.322 408.457C780.328 428.565 779.634 448.951 780.455 469.031L780.571 499.96L807.523 500.052L808.183 500.144C817.087 500.13 826.243 499.66 835.115 500.282C834.93 510.539 834.688 520.806 835.032 531.062L835.064 559.419C825.879 560.089 816.682 560.053 807.478 560.025C807.485 578.27 806.821 596.773 807.61 614.986L807.739 615.395C806.943 626.484 807.532 637.937 807.538 649.075L807.515 719.751C807.547 729.34 808.241 738.947 807.929 748.532L807.856 749.453Q808.289 776.789 807.885 804.126C798.96 804.567 789.53 805.011 780.633 804.136L780.525 804.446Q767.271 804.53 754.017 804.416Q753.375 817.195 753.68 829.987L696.679 829.976Q696.296 843.241 696.533 856.51Q683.242 857.108 669.938 856.974C669.947 866.144 670.112 875.339 669.531 884.494L557.881 883.991C557.103 893.083 557.47 902.336 557.636 911.451Q495.112 910.965 432.589 911.538L430.634 911.245C405.281 910.532 379.842 911.048 354.481 911.133L354.497 939.03L215.625 938.95C215.556 929.95 216.062 920.721 215.651 911.756C215.144 902.955 214.954 893.177 216.081 884.428C215.843 875.217 216.024 865.971 216.043 856.756Q229.539 856.805 243.035 856.649L243.016 804.016C234.048 803.844 225.059 803.97 216.089 803.968Q215.804 775.967 216.022 747.965L215.375 747.81C206.681 747.383 197.764 747.883 189.049 747.969L189.031 674.948Q175.01 674.884 160.99 675.127L160.996 647.003C170.219 646.976 179.9 647.997 189.015 646.484C188.838 636.1 188.001 625.859 189.159 615.494Q202.456 615.616 215.752 615.403L215.973 615.189C216.415 606.89 215.771 598.433 215.694 590.118C215.592 579.132 215.928 568.106 216.022 557.115Q216.114 543.223 215.774 529.335L215.479 528.027L215.483 499.889C213.07 499.89 210.664 499.743 208.255 499.618L215.659 499.531L215.773 492.528C215.338 485.212 215.613 477.849 215.96 470.535C224.915 469.543 234.429 470.804 243.497 470.563L243.596 261.572Q257.357 261.597 271.118 261.769L271.17 200.046C280.454 199.91 289.751 200.019 299.037 200.024C299.31 190.621 299.07 181.146 299.071 171.735C308.111 171.289 317.232 171.516 326.284 171.508L326.722 171.299C335.608 170.75 344.603 171.015 353.506 171.018L353.509 142.496L401.625 142.417C401.749 133.232 401.899 124.062 401.567 114.879Z"/>
	<path transform="scale(0.407715 0.407715)" d="M299.071 171.735C308.111 171.289 317.232 171.516 326.284 171.508C326.754 180.969 326.135 190.539 326.37 200.025L299.037 200.024C299.31 190.621 299.07 181.146 299.071 171.735Z"/>
	<path transform="scale(0.407715 0.407715)" d="M215.96 470.535C224.915 469.543 234.429 470.804 243.497 470.563C243.456 480.208 243.326 489.861 243.409 499.505L215.999 499.538C215.944 497.214 215.99 494.841 215.773 492.528C215.338 485.212 215.613 477.849 215.96 470.535Z"/>
	<path transform="scale(0.407715 0.407715)" d="M700.799 171.162C709.04 170.858 717.412 170.848 725.659 171.05Q725.363 185.518 725.594 199.988C716.306 200.892 706.798 200.243 697.482 200.003C697.502 190.736 697.178 181.448 697.39 172.188C698.508 171.295 699.4 171.362 700.799 171.162Z"/>
	<path transform="scale(0.407715 0.407715)" d="M216.022 747.965L243.02 747.978L243.016 804.016C234.048 803.844 225.059 803.97 216.089 803.968Q215.804 775.967 216.022 747.965Z"/>
	<path transform="scale(0.407715 0.407715)" d="M780.957 747.979C788.701 747.911 797.252 747.174 804.904 748.13C806.281 748.302 806.992 748.34 807.856 749.453Q808.289 776.789 807.885 804.126C798.96 804.567 789.53 805.011 780.633 804.136C781.757 786.152 780.917 766.182 780.957 747.979Z"/>
	<path transform="scale(0.407715 0.407715)" d="M725.935 200.072C735.058 200.099 744.32 199.781 753.424 200.244C753.441 220.771 752.888 241.519 753.524 262.023L726.057 261.962L725.935 200.072Z"/>
	<path transform="scale(0.407715 0.407715)" d="M215.774 529.335L216.243 528.297C223.032 526.216 236.046 527.481 243.49 527.658L243.519 615.021C238.024 614.995 219.943 615.962 215.973 615.189C216.415 606.89 215.771 598.433 215.694 590.118C215.592 579.132 215.928 568.106 216.022 557.115Q216.114 543.223 215.774 529.335Z"/>
	<path transform="scale(0.407715 0.407715)" d="M808.183 500.144C817.087 500.13 826.243 499.66 835.115 500.282C834.93 510.539 834.688 520.806 835.032 531.062L835.064 559.419C825.879 560.089 816.682 560.053 807.478 560.025C807.485 578.27 806.821 596.773 807.61 614.986L781.027 614.963Q781.051 573.305 780.593 531.65C789.531 531.649 798.571 531.842 807.471 530.953C807.969 524.425 807.053 503.891 808.183 500.144Z"/>
	<path fill="#FAB424" transform="scale(0.407715 0.407715)" d="M807.513 531.04Q821.273 530.835 835.032 531.062L835.064 559.419C825.879 560.089 816.682 560.053 807.478 560.025L807.513 531.04Z"/>
	<path transform="scale(0.407715 0.407715)" d="M215.752 615.403C216.78 621.168 216.187 745.366 215.375 747.81C206.681 747.383 197.764 747.883 189.049 747.969L189.031 674.948Q175.01 674.884 160.99 675.127L160.996 647.003C170.219 646.976 179.9 647.997 189.015 646.484C188.838 636.1 188.001 625.859 189.159 615.494Q202.456 615.616 215.752 615.403Z"/>
	<path transform="scale(0.407715 0.407715)" d="M243.016 804.016L270.773 803.955C270.782 812.652 270.689 821.363 270.836 830.059L327.988 829.972L327.977 857.009Q341.228 856.911 354.477 856.647C354.563 862.124 355.882 880.451 353.519 884.143L352.611 884.243C344.517 883.505 336.109 884.022 327.996 884.298L327.973 857.024Q299.021 856.638 270.068 856.992Q270.346 870.799 270.046 884.605L242.984 884.537Q233.298 884.664 223.611 884.684L216.081 884.428C215.843 875.217 216.024 865.971 216.043 856.756Q229.539 856.805 243.035 856.649L243.016 804.016Z"/>
	<path fill="#FDDF22" transform="scale(0.407715 0.407715)" d="M243.009 856.69Q256.538 856.934 270.068 856.992Q270.346 870.799 270.046 884.605L242.984 884.537L243.009 856.69Z"/>
	<path fill="#F36E0C" transform="scale(0.407715 0.407715)" d="M270.068 856.992Q299.021 856.638 327.973 857.024L327.996 884.298C336.109 884.022 344.517 883.505 352.611 884.243L353.998 884.597C353.991 893.548 353.834 902.528 354.11 911.474L256.659 911.91L230.864 911.972C226.325 911.977 221.103 912.423 216.645 911.618L215.651 911.756C215.144 902.955 214.954 893.177 216.081 884.428L223.611 884.684Q233.298 884.664 242.984 884.537L270.046 884.605Q270.346 870.799 270.068 856.992Z"/>
	<path fill="#FAB424" transform="scale(0.407715 0.407715)" d="M216.081 884.428L223.611 884.684C226.978 886.002 238.785 885.037 242.987 884.918C242.493 893.797 242.566 902.674 242.511 911.563C234.014 911.513 225.095 910.916 216.645 911.618L215.651 911.756C215.144 902.955 214.954 893.177 216.081 884.428Z"/>
	<path transform="scale(0.407715 0.407715)" d="M753.524 262.023L780.189 262.039C780.209 263.799 780.349 265.641 780.199 267.391C779.274 288.215 780.095 309.413 780.103 330.276L780.069 469.051L752.582 469.012L752.992 343.713C753.014 316.519 752.387 289.191 753.524 262.023Z"/>
	<path transform="scale(0.407715 0.407715)" d="M353.998 884.597Q378.751 884.406 403.503 884.597C413.245 884.604 423.322 883.975 433.017 884.913C433.025 892.562 434.083 903.431 432.128 910.645C431.096 911.285 431.611 911.133 430.634 911.245C405.281 910.532 379.842 911.048 354.481 911.133L354.497 939.03L215.625 938.95C215.556 929.95 216.062 920.721 215.651 911.756L216.645 911.618C221.103 912.423 226.325 911.977 230.864 911.972L256.659 911.91L354.11 911.474C353.834 902.528 353.991 893.548 353.998 884.597Z"/>
	<path transform="scale(0.407715 0.407715)" d="M271.17 200.046C280.454 199.91 289.751 200.019 299.037 200.024Q298.725 231.007 299.057 261.99L271.084 262.039L271.035 470.959C261.924 471.037 252.562 471.5 243.497 470.563L243.596 261.572Q257.357 261.597 271.118 261.769L271.17 200.046Z"/>
	<path fill="#B7A185" transform="scale(0.407715 0.407715)" d="M299.165 614.163C299.697 617.995 299.452 622.127 299.468 625.995C299.511 636.149 299.165 646.292 299.058 656.444C298.836 677.46 299.56 698.458 299.054 719.48L327.507 719.497L327.492 748.118C336.491 748.522 345.489 748.139 354.491 748.038L354.498 776.033L403.993 776.033C404.008 785.399 404.54 794.766 404.505 804.12L465.708 804.502L465.544 831.037C496.3 831.087 527.295 831.901 558.019 830.583L558.015 804.325C577.96 804.532 598.046 805.016 617.978 804.312L617.993 776.027Q643.98 775.415 669.974 775.515L670.017 747.498Q683.295 747.528 696.57 747.821L696.671 720.035Q711.343 719.531 726.023 719.438C726.776 684.883 725.721 650.428 726.051 615.898Q739.884 616.034 753.718 615.937L753.938 719.509L726.023 719.486L726.045 776.003L696.586 776.012L696.856 804.004L669.951 804.009L669.995 830.51L643.848 830.491L644.009 856.767L558.02 856.487Q558.068 870.248 557.978 884.009L465.972 884.012L465.996 856.5L381.846 856.499C381.787 847.813 381.903 839.118 381.934 830.431Q368.371 830.333 354.81 830.071L354.548 803.999L327.755 804.003L327.71 775.996L299.03 776.083L299.006 719.509L270.98 719.497L270.959 615.433C278.153 615.445 292.322 616.957 298.655 615.392L299.165 614.163Z"/>
	<path fill="#FEFEFE" transform="scale(0.407715 0.407715)" d="M326.422 261.913C372.386 260.781 418.532 261.633 464.512 261.998L464.479 290.887C475.295 290.888 486.138 290.724 496.95 290.992L496.928 318.989L527.699 318.865Q527.6 304.931 527.773 290.998L560.488 290.967L560.499 261.998L697.378 261.994L697.451 291.569L725.504 291.758L725.565 381.013C716.159 381.035 706.551 381.425 697.177 380.642L697.066 409.027C687.755 409.022 678.421 409.144 669.116 408.778L669.035 439.517Q629.745 439.225 590.454 439.423Q590.281 453.204 590.501 466.984L641.376 466.994L641.462 498.393C650.614 498.308 659.915 497.923 669.05 498.532L669.085 529.265Q683.046 529.024 697.008 529.081L697.015 559.724C706.696 559.935 716.357 559.811 726.038 559.729L726.051 615.898C725.721 650.428 726.776 684.883 726.023 719.438Q711.343 719.531 696.671 720.035L696.57 747.821Q683.295 747.528 670.017 747.498L669.974 775.515Q643.98 775.415 617.993 776.027L617.978 804.312C598.046 805.016 577.96 804.532 558.015 804.325L558.019 830.583C527.295 831.901 496.3 831.087 465.544 831.037L465.708 804.502L404.505 804.12C404.54 794.766 404.008 785.399 403.993 776.033L354.498 776.033L354.491 748.038C345.489 748.139 336.491 748.522 327.492 748.118L327.507 719.497L299.054 719.48C299.56 698.458 298.836 677.46 299.058 656.444C299.165 646.292 299.511 636.149 299.468 625.995C299.452 622.127 299.697 617.995 299.165 614.163Q298.219 585.635 298.714 557.095L326.463 556.962L326.449 527.739L354.617 527.695L354.713 499.76L383.967 499.705Q383.826 484.137 383.992 468.571Q408.295 468.829 432.598 468.563C432.746 458.742 432.942 448.946 432.597 439.127L354.51 439.101L354.513 408.948Q340.254 408.911 326.001 408.496L325.973 379.03L299.716 378.951C299.308 349.629 299.932 320.317 299.794 290.998L326.483 290.966C326.456 281.284 326.339 271.594 326.422 261.913Z"/>
	<path fill="#FAB424" transform="scale(0.407715 0.407715)" d="M433.646 379.004Q447.482 379.358 461.322 379.333L464.38 379.894C465.091 383.906 465.448 403.415 463.913 406.703Q461.942 406.919 459.965 407.081L433.99 407.1Q433.916 393.051 433.646 379.004Z"/>
	<path fill="#FAB424" transform="scale(0.407715 0.407715)" d="M564.316 379.346C572.864 377.969 582.497 378.963 591.161 378.895C591.57 388.446 591.476 398.015 591.473 407.572C581.198 407.182 570.835 406.636 560.56 407.202C560.382 402.187 559.765 383.521 561.016 379.868L564.316 379.346Z"/>
	<path transform="scale(0.407715 0.407715)" d="M621.952 291.506C637.128 291.439 652.947 290.471 668.045 292.025L668.11 349.005L621.972 348.884Q621.742 320.195 621.952 291.506Z"/>
	<path transform="scale(0.407715 0.407715)" d="M354.965 292.017L402.188 291.911L402.302 348.422Q378.641 348.852 354.983 348.294C353.745 329.691 354.672 310.66 354.965 292.017Z"/>
	<path fill="#FAB424" transform="scale(0.407715 0.407715)" d="M465.369 408.391C469.661 407.034 479.076 408.432 483.992 408.468L527.644 408.529C538.514 408.56 549.238 409.054 560.076 407.857C560.018 411.328 559.789 414.84 560.408 418.271C560.719 424.997 560.559 431.789 560.251 438.512L527.991 438.501L527.959 467.007Q512.654 466.872 497.348 466.933L497.419 438.076C486.763 437.722 476.064 437.986 465.403 438.063C465.233 428.172 465.516 418.282 465.369 408.391Z"/>
	<path fill="#FDDF22" transform="scale(0.407715 0.407715)" d="M464.996 349.486Q512.555 349.829 560.114 349.49C560.055 357.986 558.607 370.479 560.686 378.381C561.838 379.356 562.838 379.196 564.316 379.346L561.016 379.868C559.765 383.521 560.382 402.187 560.56 407.202L560.408 418.271C559.789 414.84 560.018 411.328 560.076 407.857C549.238 409.054 538.514 408.56 527.644 408.529L483.992 408.468C479.076 408.432 469.661 407.034 465.369 408.391C463.84 407.241 461.812 407.268 459.965 407.081Q461.942 406.919 463.913 406.703C465.448 403.415 465.091 383.906 464.38 379.894L461.322 379.333C462.502 379.309 463.362 379.187 464.482 378.808C466.886 373.684 465.181 356.094 464.996 349.486Z"/>
</svg>
