<?xml version="1.0" encoding="utf-8" ?>
<svg xmlns="http://www.w3.org/2000/svg" xmlns:xlink="http://www.w3.org/1999/xlink" width="423" height="423">
	<path fill="#2B509D" transform="matrix(0.407672 0.00592582 -0.00592582 0.407672 6.06799 0)" d="M755.098 142.884L755.179 147.19C749.88 145.999 747.13 146.98 742.94 142.912C746.974 143.139 751.058 142.948 755.098 142.884Z"/>
	<path fill="#0D178C" transform="matrix(0.407672 0.00592582 -0.00592582 0.407672 6.06799 0)" d="M798.881 567.994C798.867 565.873 798.976 563.872 799.272 561.771C799.392 567.911 798.749 575.101 799.899 581.078C799.479 580.249 799.083 579.442 798.748 578.573C798.663 578.351 798.584 578.127 798.502 577.904C796.395 576.302 793.566 576.891 791.036 576.988L791.058 568.118L798.881 567.994Z"/>
	<path fill="#0D178C" transform="matrix(0.407672 0.00592582 -0.00592582 0.407672 6.06799 0)" d="M819.69 562.452C819.918 564.244 819.74 565.404 820.989 566.749C823.517 567.864 826.765 567.059 829.502 567.11L829.499 576.527C826.559 576.468 823.371 575.921 820.584 576.904C819.906 577.862 819.853 578.625 819.716 579.772C819.341 573.999 819.498 568.227 819.69 562.452Z"/>
	<path fill="#0D178C" transform="matrix(0.407672 0.00592582 -0.00592582 0.407672 6.06799 0)" d="M241.066 505.829C241.426 508.206 241.503 510.402 241.463 512.796C243.61 512.837 245.771 512.827 247.912 512.987L247.953 524.063L240.42 524.067C240.512 526.615 240.472 528.444 239.63 530.902C239.661 525.87 237.636 521.191 238.026 516.169C238.295 512.697 240.619 511.629 241 506.727L241.066 505.829Z"/>
	<path fill="#0D178C" transform="matrix(0.407672 0.00592582 -0.00592582 0.407672 6.06799 0)" d="M221.143 531.404C223.345 528.716 221.122 526.822 225.775 526.316C227.524 526.126 231.359 525.899 232.662 527.013C233.511 527.739 233.855 528.316 233.951 529.437C233.969 529.643 233.965 529.85 233.972 530.057C235.457 531.163 236.877 531.021 238.519 531.588C236.968 532.171 235.275 531.976 233.643 531.947C232.698 533.12 232.904 535.438 232.842 536.931L222.496 536.884C222.282 535.228 222.412 532.446 221.143 531.404Z"/>
	<path fill="#0D178C" transform="matrix(0.407672 0.00592582 -0.00592582 0.407672 6.06799 0)" d="M801.909 551.031L814.503 551.061C814.469 554.033 814.191 557.155 814.923 560.052C815.943 560.78 815.42 560.564 816.446 560.806C811.554 561.243 805.906 561.4 801.055 560.655C802.246 558.059 801.92 553.903 801.909 551.031Z"/>
	<path fill="#0D178C" transform="matrix(0.407672 0.00592582 -0.00592582 0.407672 6.06799 0)" d="M760.218 148.173C764.001 148.841 768.254 148.371 772.096 148.262C770.749 151.568 771.449 156.931 771.478 160.521L760.228 160.512C760.218 156.405 760.114 152.277 760.218 148.173Z"/>
	<path fill="#0D178C" transform="matrix(0.407672 0.00592582 -0.00592582 0.407672 6.06799 0)" d="M761.156 115.27L771.549 115.194C771.652 119.615 771.676 124.052 772.074 128.457C767.677 128.503 763.249 128.677 758.873 128.174C759.858 127.73 760.076 127.688 760.487 126.616C761.713 123.414 761.177 118.659 761.156 115.27Z"/>
	<path fill="#0D178C" transform="matrix(0.407672 0.00592582 -0.00592582 0.407672 6.06799 0)" d="M774.018 129.601C777.477 130.162 780.968 130.06 784.461 130.058Q784.594 136.816 784.622 143.576C781.172 143.595 777.606 143.422 774.171 143.644C773.582 139.115 773.994 134.179 774.018 129.601Z"/>
	<path fill="#0D178C" transform="matrix(0.407672 0.00592582 -0.00592582 0.407672 6.06799 0)" d="M215.695 511.086C217.225 512.362 219.1 512.161 220.972 512.444C221.143 515.291 222.26 520.472 220.187 522.668C219.139 523.778 217.566 523.617 216.171 523.598C213.461 523.442 210.8 523.683 208.1 523.886L208.234 512.674C210.468 512.661 213.34 512.986 215.424 512.173L215.695 511.086Z"/>
	<path fill="#0D178C" transform="matrix(0.407672 0.00592582 -0.00592582 0.407672 6.06799 0)" d="M742.266 131.017Q748.438 131.051 754.608 130.854C755.103 134.841 755.054 138.872 755.098 142.884C751.058 142.948 746.974 143.139 742.94 142.912C741.841 139.231 742.237 134.846 742.266 131.017Z"/>
	<path fill="#0D178C" transform="matrix(0.407672 0.00592582 -0.00592582 0.407672 6.06799 0)" d="M801.49 582.973C806.244 582.942 811.756 582.371 816.405 583.358C815.525 586.522 815.987 590.591 816.011 593.896Q808.969 593.744 801.925 593.785C801.963 590.154 801.772 586.593 801.49 582.973Z"/>
	<path fill="#FEFEFE" transform="matrix(0.407672 0.00592582 -0.00592582 0.407672 6.06799 0)" d="M255.903 132.016L271.013 131.981L271.026 147.606L255.913 147.561Q255.738 139.789 255.903 132.016Z"/>
	<path fill="#FEFEFE" transform="matrix(0.407672 0.00592582 -0.00592582 0.407672 6.06799 0)" d="M801.931 215.291L802.449 215.771C802.919 221.065 802.565 226.597 802.534 231.918C797.057 231.836 791.571 231.963 786.094 232.019C784.174 228.794 785.418 219.396 785.501 215.414L801.931 215.291Z"/>
	<path fill="#FEFEFE" transform="matrix(0.407672 0.00592582 -0.00592582 0.407672 6.06799 0)" d="M538.968 103.932L557.557 103.903L557.61 121.624C551.395 121.433 545.134 121.579 538.914 121.583Q538.872 112.757 538.968 103.932Z"/>
	<path fill="#FEFEFE" transform="matrix(0.407672 0.00592582 -0.00592582 0.407672 6.06799 0)" d="M758.873 128.174C763.249 128.677 767.677 128.503 772.074 128.457L774.018 129.601C773.994 134.179 773.582 139.115 774.171 143.644C773.999 144.85 773.938 146.862 772.935 147.693C772.675 147.909 772.376 148.072 772.096 148.262C768.254 148.371 764.001 148.841 760.218 148.173C758.727 147.471 756.806 147.382 755.179 147.19L755.098 142.884C755.054 138.872 755.103 134.841 754.608 130.854C754.733 130.538 754.828 130.208 754.984 129.905C755.612 128.686 757.667 128.459 758.873 128.174Z"/>
	<path fill="#FEFEFE" transform="matrix(0.407672 0.00592582 -0.00592582 0.407672 6.06799 0)" d="M801.055 560.655C805.906 561.4 811.554 561.243 816.446 560.806C817.794 561.159 818.765 561.316 819.69 562.452C819.498 568.227 819.341 573.999 819.716 579.772C818.869 581.609 818.388 582.595 816.405 583.358C811.756 582.371 806.244 582.942 801.49 582.973L799.899 581.078C798.749 575.101 799.392 567.911 799.272 561.771L801.055 560.655Z"/>
	<path fill="#38FEFB" transform="matrix(0.407672 0.00592582 -0.00592582 0.407672 6.06799 0)" d="M814.222 336.427L815.409 337.218C815.853 346.164 815.742 355.156 815.637 364.11C809.907 364.283 804.184 364.098 798.456 364.177C798.446 359.191 799.269 340.715 798.015 337.524L797.605 337.244L798.943 336.549C804.054 336.268 809.109 336.322 814.222 336.427Z"/>
	<path fill="#38FEFB" transform="matrix(0.407672 0.00592582 -0.00592582 0.407672 6.06799 0)" d="M756.998 305.971C763.904 305.625 777.535 304.194 783.87 306.044L784.553 307.507C784.563 312.294 784.734 317.202 784.361 321.973L783.826 324.34C774.895 324.599 765.933 324.436 756.998 324.421Q756.909 315.196 756.998 305.971Z"/>
	<path fill="#38FEFB" transform="matrix(0.407672 0.00592582 -0.00592582 0.407672 6.06799 0)" d="M798.012 262.971L815.953 262.919C816.011 272.192 816.434 281.666 815.819 290.916L814.012 291.699C809.268 291.995 804.492 292.249 799.739 291.984L798.388 290.789C796.492 282.262 797.753 271.705 798.012 262.971Z"/>
	<path fill="#FEFEFE" transform="matrix(0.407672 0.00592582 -0.00592582 0.407672 6.06799 0)" d="M223.666 498.597L232.97 498.529L233.19 504.547C235.53 504.496 238.035 504.211 240.29 504.912L241.066 505.829L241 506.727C240.619 511.629 238.295 512.697 238.026 516.169C237.636 521.191 239.661 525.87 239.63 530.902L238.519 531.588C236.877 531.021 235.457 531.163 233.972 530.057C233.965 529.85 233.969 529.643 233.951 529.437C233.855 528.316 233.511 527.739 232.662 527.013C231.359 525.899 227.524 526.126 225.775 526.316C221.122 526.822 223.345 528.716 221.143 531.404C218.599 530.739 217.003 530.49 215.591 528.143C215.48 526.481 215.756 525.204 216.171 523.598C217.566 523.617 219.139 523.778 220.187 522.668C222.26 520.472 221.143 515.291 220.972 512.444C219.1 512.161 217.225 512.362 215.695 511.086C215.526 509.409 215.355 507.896 215.634 506.225C216.587 504.95 216.781 504.957 218.315 504.458C219.829 504.297 221.295 504.121 222.781 503.79C223.859 502.348 223.513 500.377 223.666 498.597Z"/>
	<path fill="#0D178C" transform="matrix(0.407672 0.00592582 -0.00592582 0.407672 6.06799 0)" d="M223.666 498.597L232.97 498.529L233.19 504.547L233.005 511.041L223.526 511.089C223.575 509.197 223.863 507.103 223.093 505.336C221.711 504.32 219.961 504.513 218.315 504.458C219.829 504.297 221.295 504.121 222.781 503.79C223.859 502.348 223.513 500.377 223.666 498.597Z"/>
	<path fill="#38FEFB" transform="matrix(0.407672 0.00592582 -0.00592582 0.407672 6.06799 0)" d="M829.141 306.099C838.52 305.269 848.229 305.768 857.635 305.862Q858.018 315.445 857.817 325.033C850.901 324.995 835.194 323.962 829.244 325.347C828.719 326.696 828.735 327.842 828.735 329.259C828.593 326.819 828.424 324.417 828.082 321.994C827.83 318.684 829.032 310.343 827.198 307.907L825.588 307.735C827.453 307.417 827.746 307.489 829.141 306.099Z"/>
	<path fill="#CCFCFB" transform="matrix(0.407672 0.00592582 -0.00592582 0.407672 6.06799 0)" d="M798.388 290.789L799.739 291.984C804.492 292.249 809.268 291.995 814.012 291.699L815.819 290.916Q822.384 290.993 828.949 291.003C828.999 296.013 828.88 301.1 829.141 306.099C827.746 307.489 827.453 307.417 825.588 307.735L827.198 307.907C829.032 310.343 827.83 318.684 828.082 321.994C828.424 324.417 828.593 326.819 828.735 329.259C828.907 331.888 828.918 334.465 828.869 337.097C824.408 337.082 819.855 336.877 815.409 337.218L814.222 336.427C809.109 336.322 804.054 336.268 798.943 336.549L797.605 337.244C793.113 337.756 788.463 337.54 783.944 337.546Q783.982 330.942 783.826 324.34L784.361 321.973C784.734 317.202 784.563 312.294 784.553 307.507L783.87 306.044C784.525 301.206 784.064 295.861 784.052 290.962C788.835 290.98 793.609 291.016 798.388 290.789Z"/>
	<path fill="#0D178C" transform="matrix(0.407672 0.00592582 -0.00592582 0.407672 6.06799 0)" d="M825.588 307.735L827.198 307.907C829.032 310.343 827.83 318.684 828.082 321.994L814.989 322.013L814.993 308.014Q820.294 307.992 825.588 307.735Z"/>
	<path fill="#0D178C" transform="matrix(0.407672 0.00592582 -0.00592582 0.407672 6.06799 0)" d="M799.018 323.057L814.032 322.99C814.037 327.445 813.859 331.988 814.222 336.427C809.109 336.322 804.054 336.268 798.943 336.549L799.018 323.057Z"/>
	<path fill="#0D178C" transform="matrix(0.407672 0.00592582 -0.00592582 0.407672 6.06799 0)" d="M799.739 291.984C804.492 292.249 809.268 291.995 814.012 291.699L814.003 306.109L799.535 306.128C799.582 301.437 799.44 296.662 799.739 291.984Z"/>
	<path fill="#0D178C" transform="matrix(0.407672 0.00592582 -0.00592582 0.407672 6.06799 0)" d="M784.553 307.507L798.944 307.477C798.87 312.314 798.866 317.164 798.699 321.999L784.361 321.973C784.734 317.202 784.563 312.294 784.553 307.507Z"/>
	<path fill="#FEFEFE" transform="matrix(0.407672 0.00592582 -0.00592582 0.407672 6.06799 0)" d="M375.75 70.0045L395.59 70.014L395.573 89.9799L416.015 89.9561L416.022 109.618C409.193 109.54 402.356 109.61 395.526 109.615C395.62 113.825 396.865 125.957 395.114 129.429L393.876 129.752L375.971 129.993Q375.911 119.549 375.971 109.105C368.345 109.376 360.609 109.064 352.972 109.021Q352.822 99.4933 352.981 89.9659L375.574 89.884Q375.577 79.9435 375.75 70.0045Z"/>
	<path fill="#FEFEFE" transform="matrix(0.407672 0.00592582 -0.00592582 0.407672 6.06799 0)" d="M630.529 80.0513C636.826 80.1096 643.132 80.0882 649.418 80.4962Q649.74 91.4677 649.591 102.443L671.009 102.511L671.048 121.472L649.97 121.508L649.953 144.059L631.395 144.028L630.653 143.972C630.161 136.489 630.08 129.062 630.028 121.567C622.972 121.57 615.811 121.313 608.768 121.648Q608.522 112.058 608.762 102.468Q619.607 102.117 630.457 101.943L630.529 80.0513Z"/>
	<path fill="#FEFEFE" transform="matrix(0.407672 0.00592582 -0.00592582 0.407672 6.06799 0)" d="M821.695 439.987L841.495 439.985L841.576 461.982L862.011 461.983L862.037 482.529L841.327 482.516C841.43 488.71 841.93 495.306 841.228 501.461C841.068 502.869 841.122 503.66 839.97 504.548L821.937 504.667L821.408 482.404L799.965 482.469L800.02 462.164C800.253 462.186 800.485 462.213 800.718 462.23C805.143 462.538 816.468 463.911 819.753 460.563C823.204 457.046 821.68 444.983 821.695 439.987Z"/>
	<path fill="#38FEFB" transform="matrix(0.407672 0.00592582 -0.00592582 0.407672 6.06799 0)" d="M206.593 367.001L224.173 366.98C224.618 375.133 224.398 383.386 224.27 391.546L239.175 391.633C239.285 396.938 239.278 402.193 239.085 407.497L256.397 407.639Q256.461 415.851 256.412 424.064L239.08 424.153C239.395 429.453 239.436 434.666 239.333 439.971L224.437 439.888L224.45 458.001L208.393 458.008L207.447 457.724C205.822 454.278 206.917 444.326 207.028 440.192C202.088 440.705 196.893 440.402 191.92 440.416C191.58 434.964 191.7 429.565 191.923 424.114C181.523 424.467 171.081 424.331 160.675 424.378C160.496 418.4 160.603 412.402 160.614 406.421L191.462 406.425L191.373 391C196.581 390.93 201.795 390.987 207.003 390.993C206.443 383.024 206.602 374.987 206.593 367.001Z"/>
	<path fill="#0D178C" transform="matrix(0.407672 0.00592582 -0.00592582 0.407672 6.06799 0)" d="M207.88 424.6C212.716 424.735 217.646 425.083 222.464 424.586C222.803 429.309 222.505 434.249 222.504 438.997L208.002 439.136Q208.042 431.867 207.88 424.6Z"/>
	<path fill="#2B509D" transform="matrix(0.407672 0.00592582 -0.00592582 0.407672 6.06799 0)" d="M192.521 408.031L207.015 408.026C206.817 413.222 206.653 418.381 206.789 423.582C201.972 423.479 197.264 423.619 192.459 423.916C192.64 418.624 192.554 413.325 192.521 408.031Z"/>
	<path fill="#0D178C" transform="matrix(0.407672 0.00592582 -0.00592582 0.407672 6.06799 0)" d="M223.453 408.025L238.025 407.993C238.02 413.164 237.925 418.353 238.069 423.523C233.199 423.502 228.31 423.359 223.48 424.082Q223.532 416.053 223.453 408.025Z"/>
	<path fill="#0D178C" transform="matrix(0.407672 0.00592582 -0.00592582 0.407672 6.06799 0)" d="M207.527 392.015L223.026 391.996L222.935 407.623C217.815 407.326 212.631 407.51 207.502 407.534C207.669 402.339 207.75 397.212 207.527 392.015Z"/>
	<path fill="#F9FB98" transform="matrix(0.407672 0.00592582 -0.00592582 0.407672 6.06799 0)" d="M207.502 407.534C212.631 407.51 217.815 407.326 222.935 407.623L223.453 408.025Q223.532 416.053 223.48 424.082L222.464 424.586C217.646 425.083 212.716 424.735 207.88 424.6L206.789 423.582C206.653 418.381 206.817 413.222 207.015 408.026L207.502 407.534Z"/>
	<path fill="#38FEFB" transform="matrix(0.407672 0.00592582 -0.00592582 0.407672 6.06799 0)" d="M206.126 217.559L223.994 217.505L224.028 241.047L239.334 240.963C239.386 246.142 239.585 251.362 239.124 256.525L257.994 256.583C258.073 263.043 258.009 269.512 258.009 275.973C253.735 275.67 242.207 274.45 238.75 276.097L238.615 277.625L238.729 289.972L223.709 289.956C224.177 297.932 223.945 306.024 223.85 314.009C218.093 313.921 212.321 314.015 206.563 314.034Q206.33 302.018 206.51 290.002L192.475 290.114C192.36 285.41 192.424 280.694 192.418 275.989Q180.239 275.931 168.059 275.996C167.865 269.678 167.991 263.324 168.004 257.001Q179.986 256.929 191.969 256.986C191.825 251.643 191.934 246.289 191.972 240.944C196.777 240.947 201.584 240.991 206.386 240.797C205.979 233.074 206.135 225.293 206.126 217.559Z"/>
	<path fill="#2B509D" transform="matrix(0.407672 0.00592582 -0.00592582 0.407672 6.06799 0)" d="M207.056 274.949C212.516 275.113 217.943 275.232 223.403 274.926C223.252 279.618 223.348 284.315 223.394 289.008Q215.29 288.991 207.186 289.095L207.056 274.949Z"/>
	<path fill="#2B509D" transform="matrix(0.407672 0.00592582 -0.00592582 0.407672 6.06799 0)" d="M223.913 257.218Q230.94 256.976 237.971 257C237.674 262.668 237.637 268.262 237.76 273.935C233.189 273.765 228.707 273.808 224.139 274.051L223.913 257.218Z"/>
	<path fill="#2B509D" transform="matrix(0.407672 0.00592582 -0.00592582 0.407672 6.06799 0)" d="M191.969 256.986C196.812 257.01 201.706 256.903 206.544 257.069C206.514 262.696 206.381 268.349 206.512 273.973C201.819 273.842 197.105 273.96 192.41 273.987C192.007 268.369 192.09 262.621 191.969 256.986Z"/>
	<path fill="#2B509D" transform="matrix(0.407672 0.00592582 -0.00592582 0.407672 6.06799 0)" d="M206.977 241.495L223.528 241.459L223.539 257.016C218.128 256.714 212.683 256.856 207.265 256.882C207.424 251.716 207.401 246.652 206.977 241.495Z"/>
	<path fill="#FEE8FE" transform="matrix(0.407672 0.00592582 -0.00592582 0.407672 6.06799 0)" d="M207.265 256.882C212.683 256.856 218.128 256.714 223.539 257.016L223.913 257.218L224.139 274.051L223.403 274.926C217.943 275.232 212.516 275.113 207.056 274.949L206.512 273.973C206.381 268.349 206.514 262.696 206.544 257.069L207.265 256.882Z"/>
	<path fill="#2B509D" transform="matrix(0.407672 0.00592582 -0.00592582 0.407672 6.06799 0)" d="M280.048 857.721C282.597 857.541 285.158 857.306 287.71 857.188L287.753 863.659C292.371 863.427 296.953 863.179 301.578 863.368L302.203 863.944C302.549 868.524 302.935 873.066 302.769 877.665C305.192 877.598 310.42 878.457 312.391 877.566L312.741 879.413Q313.079 884.708 313.045 890.014C317.997 889.995 323.064 890.205 327.999 889.872C328.068 891.447 327.855 892.249 328.843 893.513C333.371 895.122 337.978 893.343 342.604 894.334C342.584 897.424 342.435 900.565 342.731 903.643L343.118 904.792C351.366 905.125 359.638 905.078 367.892 905.133C372.405 905.163 377.364 905.565 381.835 905.068C384.903 904.559 388.22 905.263 391.186 904.552C382.353 903.993 373.326 904.371 364.473 904.383C357.469 904.393 350.499 904.04 343.5 904L343.497 893.5C339.654 893.448 333.092 894.69 329.844 892.61C327.59 889.55 328.473 883.264 328.503 879.503C333.318 879.477 338.211 879.266 343 879.814C343.071 883.181 341.788 889.429 343.765 892.084C346.262 893.554 359.316 892.711 362.281 892.07C356.053 891.822 349.748 892.01 343.512 892.005L343.477 879.217C352.749 880.601 362.384 879.999 371.744 879.871L624.033 879.989C633.217 880.011 674.462 878.314 679.828 879.827Q679.594 885.95 679.605 892.078L680.673 895.1C685.646 895.046 690.66 895.11 695.628 894.93L695.782 894.661C696.085 889.796 695.926 884.87 695.915 879.995Q703.506 880.04 711.096 879.887L711.217 879.615Q719.348 879.198 727.486 878.96L727.496 864.158C733.438 864.256 739.419 864.046 745.364 863.97C745.364 862.234 745.014 859.643 745.932 858.137C753.795 857.897 761.708 858.057 769.577 858.038L769.628 872.02L789.482 872.117C789.607 876.985 789.586 881.867 789.633 886.738Q798.593 886.856 807.553 886.706L807.651 903.392L789.992 903.464L790.007 915.575C783.993 915.578 777.998 915.603 771.988 915.862L772.021 928.647C758.063 928.329 740.28 929.57 726.881 928.188L726.947 940.836C711.442 939.889 695.46 940.709 679.912 940.781L679.925 955.003C661.136 954.623 642.247 954.805 623.455 955.005L623.432 965.279C595.642 964.44 567.617 965.343 539.804 965.521L400.097 965.993L400.1 954.595Q371.114 954.49 342.13 954.84L342.046 942.493C328.166 942.324 314.269 942.456 300.386 942.451L300.238 927.902L254.947 928.076C254.965 924.522 254.849 921.033 254.589 917.49L236.157 917.459L236.08 903.988L220.157 903.982C220.246 898.679 220.155 893.357 220.152 888.052L237.091 887.996C237.197 882.829 237.345 877.664 237.198 872.497L254.554 872.373L254.532 859.006C261.809 858.888 273.464 860.1 280.048 857.721Z"/>
	<path fill="#0D178C" transform="matrix(0.407672 0.00592582 -0.00592582 0.407672 6.06799 0)" d="M328.701 894.557C333.327 894.496 337.996 894.82 342.604 894.334C342.584 897.424 342.435 900.565 342.731 903.643C340.204 905.123 332.187 904.064 329.037 904.011C329.043 900.852 328.871 897.71 328.701 894.557Z"/>
	<path fill="#0D178C" transform="matrix(0.407672 0.00592582 -0.00592582 0.407672 6.06799 0)" d="M695.915 879.995Q703.506 880.04 711.096 879.887C712.347 884.48 711.673 890.19 711.485 894.923C706.028 895.416 701.193 895.598 695.782 894.661C696.085 889.796 695.926 884.87 695.915 879.995Z"/>
	<path fill="#0D178C" transform="matrix(0.407672 0.00592582 -0.00592582 0.407672 6.06799 0)" d="M646.118 891.813C655.85 890.006 669.415 892.026 679.605 892.078L680.673 895.1C685.646 895.046 690.66 895.11 695.628 894.93C695.644 898.78 695.597 902.643 695.709 906.491Q688.356 906.518 681.003 906.452C680.984 909.714 680.922 912.981 680.947 916.242Q619.751 916.661 558.555 916.155L343.055 916.001C342.936 912.312 342.588 908.45 343.118 904.792C351.366 905.125 359.638 905.078 367.892 905.133C372.405 905.163 377.364 905.565 381.835 905.068C388.209 905.531 394.685 905.26 401.076 905.219L432.996 905.045L475.501 905.011C482.289 905.017 489.209 905.321 495.985 905.056C505.248 903.988 515.465 904.804 524.846 904.83C524.109 902.399 522.814 899.266 523.081 896.736C523.336 894.328 524.764 893.307 526.537 891.895C536.953 890.698 548.338 891.89 558.861 891.956L613.158 891.984C624.148 891.99 635.135 892.384 646.118 891.813Z"/>
	<path fill="#778DDB" transform="matrix(0.407672 0.00592582 -0.00592582 0.407672 6.06799 0)" d="M646.118 891.813C655.85 890.006 669.415 892.026 679.605 892.078L680.673 895.1C680.842 898.429 681.012 901.637 680.613 904.958Q663.539 905.137 646.465 905.046C640.121 905.03 633.279 905.427 626.99 904.577C632.988 903.948 639.172 904.73 645.223 904.459C646.25 901.493 647.105 897.763 647.234 894.613C647.291 893.227 647.057 892.782 646.118 891.813Z"/>
	<path fill="#99A9E3" transform="matrix(0.407672 0.00592582 -0.00592582 0.407672 6.06799 0)" d="M526.537 891.895C536.953 890.698 548.338 891.89 558.861 891.956L613.158 891.984C624.148 891.99 635.135 892.384 646.118 891.813C647.057 892.782 647.291 893.227 647.234 894.613C647.105 897.763 646.25 901.493 645.223 904.459C639.172 904.73 632.988 903.948 626.99 904.577C601.386 905.696 575.694 904.816 550.071 904.971C532.492 905.077 513.382 906.804 495.985 905.056C505.248 903.988 515.465 904.804 524.846 904.83C524.109 902.399 522.814 899.266 523.081 896.736C523.336 894.328 524.764 893.307 526.537 891.895Z"/>
	<path fill="#0D178C" transform="matrix(0.407672 0.00592582 -0.00592582 0.407672 6.06799 0)" d="M624.033 879.989C633.217 880.011 674.462 878.314 679.828 879.827Q679.594 885.95 679.605 892.078C669.415 892.026 655.85 890.006 646.118 891.813C635.135 892.384 624.148 891.99 613.158 891.984L558.861 891.956C548.338 891.89 536.953 890.698 526.537 891.895C524.764 893.307 523.336 894.328 523.081 896.736C522.814 899.266 524.109 902.399 524.846 904.83C515.465 904.804 505.248 903.988 495.985 905.056C489.209 905.321 482.289 905.017 475.501 905.011L432.996 905.045L401.076 905.219C394.685 905.26 388.209 905.531 381.835 905.068C384.903 904.559 388.22 905.263 391.186 904.552C382.353 903.993 373.326 904.371 364.473 904.383C357.469 904.393 350.499 904.04 343.5 904L343.497 893.5C339.654 893.448 333.092 894.69 329.844 892.61C327.59 889.55 328.473 883.264 328.503 879.503C333.318 879.477 338.211 879.266 343 879.814C343.071 883.181 341.788 889.429 343.765 892.084C346.262 893.554 359.316 892.711 362.281 892.07C356.053 891.822 349.748 892.01 343.512 892.005L343.477 879.217C352.749 880.601 362.384 879.999 371.744 879.871L624.033 879.989Z"/>
	<path fill="#DAE8F7" transform="matrix(0.407672 0.00592582 -0.00592582 0.407672 6.06799 0)" d="M328.503 879.503C333.318 879.477 338.211 879.266 343 879.814C343.071 883.181 341.788 889.429 343.765 892.084C346.262 893.554 359.316 892.711 362.281 892.07C380.225 891.469 398.306 891.982 416.269 891.988L526.537 891.895C524.764 893.307 523.336 894.328 523.081 896.736C522.814 899.266 524.109 902.399 524.846 904.83C515.465 904.804 505.248 903.988 495.985 905.056C489.209 905.321 482.289 905.017 475.501 905.011L432.996 905.045L401.076 905.219C394.685 905.26 388.209 905.531 381.835 905.068C384.903 904.559 388.22 905.263 391.186 904.552C382.353 903.993 373.326 904.371 364.473 904.383C357.469 904.393 350.499 904.04 343.5 904L343.497 893.5C339.654 893.448 333.092 894.69 329.844 892.61C327.59 889.55 328.473 883.264 328.503 879.503Z"/>
	<path fill="#0D178C" transform="matrix(0.407672 0.00592582 -0.00592582 0.407672 6.06799 0)" d="M630.653 143.972L631.395 144.028C630.323 147.123 631.38 152.661 631.508 156.064Q655.516 156.233 679.514 155.525C679.517 159.69 679.59 163.866 679.517 168.03L695.002 168.452C695.013 173.621 694.903 178.823 695.127 183.987L695.47 184.226Q699.993 184.371 704.519 184.395C704.662 187.902 704.74 191.429 705.093 194.922L719.939 194.974C719.959 199.321 719.922 203.676 720.019 208.021L733.475 208.14L733.539 267.996L720.575 267.995L720.578 280.04L705.406 280.111Q705.671 300.028 705.29 319.943L718.912 320.081L718.88 328.05L731.792 327.973L731.967 342.491L744.812 342.531L745.439 784.349C745.487 793.131 744.636 855.231 745.932 858.137C745.014 859.643 745.364 862.234 745.364 863.97C739.419 864.046 733.438 864.256 727.496 864.158L727.486 878.96Q719.348 879.198 711.217 879.615L711.096 879.887Q703.506 880.04 695.915 879.995C695.926 884.87 696.085 889.796 695.782 894.661L695.628 894.93C690.66 895.11 685.646 895.046 680.673 895.1L679.605 892.078Q679.594 885.95 679.828 879.827C674.462 878.314 633.217 880.011 624.033 879.989L371.744 879.871C362.384 879.999 352.749 880.601 343.477 879.217L343.512 892.005C349.748 892.01 356.053 891.822 362.281 892.07C359.316 892.711 346.262 893.554 343.765 892.084C341.788 889.429 343.071 883.181 343 879.814C338.211 879.266 333.318 879.477 328.503 879.503C328.473 883.264 327.59 889.55 329.844 892.61C333.092 894.69 339.654 893.448 343.497 893.5L343.5 904C350.499 904.04 357.469 904.393 364.473 904.383C373.326 904.371 382.353 903.993 391.186 904.552C388.22 905.263 384.903 904.559 381.835 905.068C377.364 905.565 372.405 905.163 367.892 905.133C359.638 905.078 351.366 905.125 343.118 904.792L342.731 903.643C342.435 900.565 342.584 897.424 342.604 894.334C337.978 893.343 333.371 895.122 328.843 893.513C327.855 892.249 328.068 891.447 327.999 889.872C323.064 890.205 317.997 889.995 313.045 890.014Q313.079 884.708 312.741 879.413L312.391 877.566C310.42 878.457 305.192 877.598 302.769 877.665C302.935 873.066 302.549 868.524 302.203 863.944L301.578 863.368C296.953 863.179 292.371 863.427 287.753 863.659L287.71 857.188C285.158 857.306 282.597 857.541 280.048 857.721C280.725 840.707 280.344 823.523 280.381 806.486L280.467 713.109L280.456 486.996C280.444 442.379 280.059 397.7 280.718 353.089C285.807 353.065 291.114 352.73 296.161 353.389Q296.229 344.93 296.203 336.471L304.065 336.397L304.139 328.158C309.904 328.11 315.136 328.716 320.42 326.02C320.9 310.587 320.522 295.044 320.511 279.599C316.027 279.836 311.525 279.881 307.035 279.99L307.02 269.135C303.201 269.041 299.373 269.081 295.553 269.064L295.396 208.394L306.032 208.095Q305.809 200.729 306.009 193.363L319.977 193.387L319.912 183.062L329.293 183.01C328.9 178.414 329.117 173.63 329.071 169.009Q336.78 168.979 344.488 168.805L344.533 157.286L392.145 157.951L392.099 144.173C414.46 143.553 436.994 144.109 459.373 144.117C516.435 144.137 573.599 144.722 630.653 143.972Z"/>
	<path fill="#E3C656" transform="matrix(0.407672 0.00592582 -0.00592582 0.407672 6.06799 0)" d="M307.449 255.379C314.614 256.203 321.827 255.555 329.022 255.44C329.038 258.943 328.938 262.49 329.11 265.986L328.826 267.488C326.954 268.619 323.886 268.298 321.746 268.407C316.949 268.509 312.137 268.368 307.339 268.308L307.449 255.379Z"/>
	<defs>
		<linearGradient id="gradient_0" gradientUnits="userSpaceOnUse" x1="307.67053" y1="209.57434" x2="328.76111" y2="221.67326">
			<stop offset="0" stop-color="#FFFFCE"/>
			<stop offset="1" stop-color="#FDFFF4"/>
		</linearGradient>
	</defs>
	<path fill="url(#gradient_0)" transform="matrix(0.407672 0.00592582 -0.00592582 0.407672 6.06799 0)" d="M307.493 208.019L329.473 207.994C329.485 213.327 329.599 218.687 329.474 224.017C322.109 224.284 314.825 223.946 307.486 223.354L307.493 208.019Z"/>
	<path fill="#60450A" transform="matrix(0.407672 0.00592582 -0.00592582 0.407672 6.06799 0)" d="M633.013 255.004C643.596 255.002 654.475 254.522 665.028 255.068C664.993 257.858 664.122 266.41 665.88 268.22C654.25 268.144 642.68 267.974 631.054 268.449L631.2 268.04L632.472 267.749C634.248 264.479 633.237 258.688 633.013 255.004Z"/>
	<path fill="#60450A" transform="matrix(0.407672 0.00592582 -0.00592582 0.407672 6.06799 0)" d="M686.428 255.041C697.644 254.149 708.885 254.6 720.113 255.016L720.49 267.942C709.127 268.51 696.928 269.214 685.608 268.216L686.331 267.492C686.825 263.429 686.496 259.134 686.428 255.041Z"/>
	<path fill="#E3C656" transform="matrix(0.407672 0.00592582 -0.00592582 0.407672 6.06799 0)" d="M329.473 207.994L358.969 208.003L358.998 223.945C349.2 223.949 339.254 223.581 329.474 224.017C329.599 218.687 329.485 213.327 329.473 207.994Z"/>
	<path fill="#B4BED4" transform="matrix(0.407672 0.00592582 -0.00592582 0.407672 6.06799 0)" d="M587.995 155.999L624.508 156.007C624.343 159.265 623.389 164.991 625.158 167.74C625.839 167.947 626.468 168.139 627.172 168.249C626.38 168.431 624.967 168.481 624.551 169.209C622.735 172.386 624.175 178.032 623.58 181.763C623.386 177.862 623.529 173.896 623.527 169.988L589.057 170.012C588.955 165.362 588.368 160.64 587.995 155.999Z"/>
	<path fill="#A06E27" transform="matrix(0.407672 0.00592582 -0.00592582 0.407672 6.06799 0)" d="M687.048 207.918C698.008 207.858 709.077 207.444 720.019 208.021L720.067 224.033C716.007 224.008 688.655 223.203 686.929 224.54C686.772 224.662 686.654 224.827 686.516 224.97L686.473 223.657C686.869 218.467 686.777 213.135 687.048 207.918Z"/>
	<path fill="#F9FB98" transform="matrix(0.407672 0.00592582 -0.00592582 0.407672 6.06799 0)" d="M307.486 223.354C314.825 223.946 322.109 224.284 329.474 224.017Q329.479 239.732 329.022 255.44C321.827 255.555 314.614 256.203 307.449 255.379L307.486 223.354Z"/>
	<path fill="#9C2AB0" transform="matrix(0.407672 0.00592582 -0.00592582 0.407672 6.06799 0)" d="M610.461 279.999L632.031 279.998Q631.64 296.531 632.012 313.065L610.422 312.993C610.633 302.009 610.464 290.986 610.461 279.999Z"/>
	<path fill="#99A9E3" transform="matrix(0.407672 0.00592582 -0.00592582 0.407672 6.06799 0)" d="M678.943 280.004L694.974 280.097L695.007 319.584C695.009 322.189 694.862 324.894 695.083 327.483C692.16 327.506 682.494 326.796 680.389 328.067L680.1 329.011C680.004 327.9 679.937 327.37 679.246 326.481C676.715 325.567 673.651 326.071 670.949 325.884C673.597 325.671 676.333 325.754 678.992 325.719C679.602 310.473 679.123 295.253 678.943 280.004Z"/>
	<path fill="#DAE8F7" transform="matrix(0.407672 0.00592582 -0.00592582 0.407672 6.06799 0)" d="M627.172 168.249C634.968 167.4 643.13 167.863 650.965 167.982L651.087 170.73C652.539 178.96 651.316 188.126 651.482 196.504L623.019 196.642C622.967 192.412 623.245 188.183 623.23 183.951L623.421 183.721L623.58 181.763C624.175 178.032 622.735 172.386 624.551 169.209C624.967 168.481 626.38 168.431 627.172 168.249Z"/>
	<path fill="#B4BED4" transform="matrix(0.407672 0.00592582 -0.00592582 0.407672 6.06799 0)" d="M651.087 170.73C652.539 178.96 651.316 188.126 651.482 196.504L623.019 196.642C622.967 192.412 623.245 188.183 623.23 183.951L623.421 183.721C626.147 186.11 646.223 185.095 651.08 185.041C651.396 180.314 651.051 175.477 651.087 170.73Z"/>
	<path fill="#711690" transform="matrix(0.407672 0.00592582 -0.00592582 0.407672 6.06799 0)" d="M632.031 279.998Q648.514 279.87 664.998 279.992Q664.877 296.522 664.997 313.051L632.012 313.065Q631.64 296.531 632.031 279.998Z"/>
	<path fill="#FEFEFE" transform="matrix(0.407672 0.00592582 -0.00592582 0.407672 6.06799 0)" d="M359.491 279.993L393.998 279.91L393.998 313.005L359.493 313.014L359.491 279.993Z"/>
	<path fill="#BE44CB" transform="matrix(0.407672 0.00592582 -0.00592582 0.407672 6.06799 0)" d="M575.981 280L610.461 279.999C610.464 290.986 610.633 302.009 610.422 312.993L547.726 312.886C555.006 311.165 568.304 312.495 576.01 312.738Q576.165 296.369 575.981 280Z"/>
	<path fill="#99A9E3" transform="matrix(0.407672 0.00592582 -0.00592582 0.407672 6.06799 0)" d="M650.965 167.982C660.476 167.933 670.009 167.754 679.517 168.03L695.002 168.452C695.013 173.621 694.903 178.823 695.127 183.987L695.47 184.226L695.615 196.502Q673.549 196.829 651.482 196.504C651.316 188.126 652.539 178.96 651.087 170.73L650.965 167.982Z"/>
	<path fill="#0D178C" transform="matrix(0.407672 0.00592582 -0.00592582 0.407672 6.06799 0)" d="M679.517 168.03L695.002 168.452C695.013 173.621 694.903 178.823 695.127 183.987L679.438 184.017L679.517 168.03Z"/>
	<path fill="#DAE8F7" transform="matrix(0.407672 0.00592582 -0.00592582 0.407672 6.06799 0)" d="M497.959 155.994L587.995 155.999C588.368 160.64 588.955 165.362 589.057 170.012L497.85 170.002C498.371 165.209 498.251 160.794 497.959 155.994Z"/>
	<path fill="#845D22" transform="matrix(0.407672 0.00592582 -0.00592582 0.407672 6.06799 0)" d="M686.516 224.97C686.654 224.827 686.772 224.662 686.929 224.54C688.655 223.203 716.007 224.008 720.067 224.033L720.113 255.016C708.885 254.6 697.644 254.149 686.428 255.041C686.496 259.134 686.825 263.429 686.331 267.492L685.608 268.216Q675.744 268.061 665.88 268.22C664.122 266.41 664.993 257.858 665.028 255.068L665.335 254.97Q675.893 254.693 686.45 255.009C686.691 245.007 686.526 234.975 686.516 224.97Z"/>
	<path fill="#B4BED4" transform="matrix(0.407672 0.00592582 -0.00592582 0.407672 6.06799 0)" d="M608.484 325.014Q630.004 325.642 651.533 325.761C657.945 325.826 664.565 325.496 670.949 325.884C673.651 326.071 676.715 325.567 679.246 326.481C679.937 327.37 680.004 327.9 680.1 329.011Q680.185 336.133 680.081 343.255C685.361 343.853 690.696 343.068 695.967 343.61Q696.14 351.594 696.085 359.579C688.729 360.767 680.413 360.438 672.995 359.963C657.013 359.955 640.948 359.597 624.991 360.548L624.976 338.99L608.984 339C608.979 334.318 609.019 329.673 608.484 325.014Z"/>
	<path fill="#A9844D" transform="matrix(0.407672 0.00592582 -0.00592582 0.407672 6.06799 0)" d="M633.002 207.875L665.007 207.92L687.048 207.918C686.777 213.135 686.869 218.467 686.473 223.657L686.516 224.97C686.526 234.975 686.691 245.007 686.45 255.009Q675.893 254.693 665.335 254.97L665.028 255.068C654.475 254.522 643.596 255.002 633.013 255.004L633.036 224.352L632.915 224.079C633.133 218.706 632.985 213.256 633.002 207.875Z"/>
	<path fill="#DFA847" transform="matrix(0.407672 0.00592582 -0.00592582 0.407672 6.06799 0)" d="M665.007 207.92L687.048 207.918C686.777 213.135 686.869 218.467 686.473 223.657C679.443 224.39 672.121 224.009 665.048 223.99L665.007 207.92Z"/>
	<path fill="#A06E27" transform="matrix(0.407672 0.00592582 -0.00592582 0.407672 6.06799 0)" d="M633.036 224.352C639.552 222.89 657.277 224.058 665.069 224.008C665.029 229.984 663.984 250.465 665.335 254.97L665.028 255.068C654.475 254.522 643.596 255.002 633.013 255.004L633.036 224.352Z"/>
	<path fill="#845D22" transform="matrix(0.407672 0.00592582 -0.00592582 0.407672 6.06799 0)" d="M359.017 255.007C369.814 255.138 380.628 254.181 391.403 255.082L391.752 254.968L412.984 255.088Q429.527 254.911 446.071 255.077L446.339 254.975C453.289 255.119 460.206 255.194 467.156 254.985L467.397 255.101Q484.202 254.897 501.008 254.992L521.399 254.973L521.899 255.073C533.388 255.049 545.036 254.623 556.508 255.047L556.827 254.957Q567.24 255.041 577.652 254.96L577.903 255.078Q594.457 254.945 611.012 254.995L633.013 255.004C633.237 258.688 634.248 264.479 632.472 267.749L631.2 268.04L631.054 268.449C606.691 267.97 582.226 268.421 557.851 268.421L444.335 268.32Q388.731 268.723 333.128 268.341C335.82 266.248 352.821 269.042 358.089 267.56C359.239 266.479 358.965 265.82 359.054 264.284L359.017 255.007Z"/>
	<path fill="#A06E27" transform="matrix(0.407672 0.00592582 -0.00592582 0.407672 6.06799 0)" d="M521.399 254.973L521.899 255.073L522.06 267.894L500.969 267.902L501.008 254.992L521.399 254.973Z"/>
	<path fill="#A06E27" transform="matrix(0.407672 0.00592582 -0.00592582 0.407672 6.06799 0)" d="M446.339 254.975C453.289 255.119 460.206 255.194 467.156 254.985L467.397 255.101L467.544 267.863L446.036 267.828L446.071 255.077L446.339 254.975Z"/>
	<path fill="#A06E27" transform="matrix(0.407672 0.00592582 -0.00592582 0.407672 6.06799 0)" d="M556.827 254.957Q567.24 255.041 577.652 254.96L577.903 255.078L578.048 267.882L556.498 267.884L556.508 255.047L556.827 254.957Z"/>
	<path fill="#A06E27" transform="matrix(0.407672 0.00592582 -0.00592582 0.407672 6.06799 0)" d="M391.752 254.968L412.984 255.088C413.091 259.391 413.094 263.646 412.897 267.946L390.989 268.128Q391.411 261.612 391.403 255.082L391.752 254.968Z"/>
	<path fill="#A06E27" transform="matrix(0.407672 0.00592582 -0.00592582 0.407672 6.06799 0)" d="M611.012 254.995L633.013 255.004C633.237 258.688 634.248 264.479 632.472 267.749L631.2 268.04C624.497 267.599 617.644 267.875 610.922 267.896L611.012 254.995Z"/>
	<path fill="#DFA847" transform="matrix(0.407672 0.00592582 -0.00592582 0.407672 6.06799 0)" d="M358.969 208.003L391.919 207.906L413.015 207.914Q412.929 215.962 412.984 224.01Q413.304 239.549 412.984 255.088L391.752 254.968L391.403 255.082C380.628 254.181 369.814 255.138 359.017 255.007L359.054 264.284C358.965 265.82 359.239 266.479 358.089 267.56C352.821 269.042 335.82 266.248 333.128 268.341Q327.438 268.524 321.746 268.407C323.886 268.298 326.954 268.619 328.826 267.488L329.11 265.986C328.938 262.49 329.038 258.943 329.022 255.44Q329.479 239.732 329.474 224.017C339.254 223.581 349.2 223.949 358.998 223.945L358.969 208.003Z"/>
	<path fill="#E3C656" transform="matrix(0.407672 0.00592582 -0.00592582 0.407672 6.06799 0)" d="M391.919 207.906L413.015 207.914Q412.929 215.962 412.984 224.01C409.258 223.969 397.345 224.849 394.748 224.156C393.769 223.896 393.269 223.508 392.534 222.845C390.532 218.97 391.723 212.227 391.919 207.906Z"/>
	<path fill="#A9844D" transform="matrix(0.407672 0.00592582 -0.00592582 0.407672 6.06799 0)" d="M358.965 223.981L391.605 223.971C391.551 234.099 390.703 244.945 391.752 254.968L391.403 255.082C380.628 254.181 369.814 255.138 359.017 255.007L359.054 264.284C358.965 265.82 359.239 266.479 358.089 267.56C352.821 269.042 335.82 266.248 333.128 268.341Q327.438 268.524 321.746 268.407C323.886 268.298 326.954 268.619 328.826 267.488L329.11 265.986C328.938 262.49 329.038 258.943 329.022 255.44C339.02 255.776 349.01 255.407 358.995 254.937Q358.685 239.459 358.965 223.981Z"/>
	<path fill="#A06E27" transform="matrix(0.407672 0.00592582 -0.00592582 0.407672 6.06799 0)" d="M359.054 264.284C358.965 265.82 359.239 266.479 358.089 267.56C352.821 269.042 335.82 266.248 333.128 268.341Q327.438 268.524 321.746 268.407C323.886 268.298 326.954 268.619 328.826 267.488L329.11 265.986C330.62 265.515 333.067 266.035 334.688 266.081C342.139 266.294 352.045 266.849 359.054 264.284Z"/>
	<path fill="#0D178C" transform="matrix(0.407672 0.00592582 -0.00592582 0.407672 6.06799 0)" d="M497.85 170.002L589.057 170.012L623.527 169.988C623.529 173.896 623.386 177.862 623.58 181.763L623.421 183.721L623.23 183.951C623.245 188.183 622.967 192.412 623.019 196.642Q604.071 196.613 585.124 196.774Q547.374 197.225 509.623 196.799C511.326 195.584 518.617 196.381 520.995 196.426Q520.947 189.881 520.987 183.336C509.226 180.975 494.554 182.942 482.433 182.985L399.975 182.996L399.993 169.909L497.85 170.002Z"/>
	<path fill="#DAE8F7" transform="matrix(0.407672 0.00592582 -0.00592582 0.407672 6.06799 0)" d="M581.632 183.687C595.547 183.327 609.336 183.936 623.23 183.951C623.245 188.183 622.967 192.412 623.019 196.642Q604.071 196.613 585.124 196.774C586.073 196.146 587.403 196.334 588.535 196.284C589.695 194.129 588.976 188.529 588.828 185.985C586.888 182.757 584.664 185.119 582.033 183.935C581.89 183.871 581.766 183.77 581.632 183.687Z"/>
	<path fill="#CCFCFB" transform="matrix(0.407672 0.00592582 -0.00592582 0.407672 6.06799 0)" d="M520.987 183.336C541.169 184.144 561.451 182.792 581.632 183.687C581.766 183.77 581.89 183.871 582.033 183.935C584.664 185.119 586.888 182.757 588.828 185.985C588.976 188.529 589.695 194.129 588.535 196.284C587.403 196.334 586.073 196.146 585.124 196.774Q547.374 197.225 509.623 196.799C511.326 195.584 518.617 196.381 520.995 196.426Q520.947 189.881 520.987 183.336Z"/>
	<path fill="#FEFEFE" transform="matrix(0.407672 0.00592582 -0.00592582 0.407672 6.06799 0)" d="M399.758 156.106L497.959 155.994C498.251 160.794 498.371 165.209 497.85 170.002L399.993 169.909L399.975 182.996L482.433 182.985C494.554 182.942 509.226 180.975 520.987 183.336Q520.947 189.881 520.995 196.426C518.617 196.381 511.326 195.584 509.623 196.799C489.361 197.867 468.64 197.035 448.326 197.033L332.936 197.015L332.958 183.449L344.309 182.956C344.548 178.2 344.435 173.39 344.465 168.627Q372.054 168.199 399.642 168.688L399.758 156.106Z"/>
	<path fill="#EE7FEA" transform="matrix(0.407672 0.00592582 -0.00592582 0.407672 6.06799 0)" d="M393.998 279.91L575.981 280Q576.165 296.369 576.01 312.738C568.304 312.495 555.006 311.165 547.726 312.886C530.333 313.246 512.865 312.941 495.464 312.951L393.998 313.005L393.998 279.91Z"/>
	<path fill="#DFA847" transform="matrix(0.407672 0.00592582 -0.00592582 0.407672 6.06799 0)" d="M468.047 207.771C497.672 208.621 527.32 206.705 556.957 207.907L578.055 207.916L610.933 207.898C618.297 207.77 625.639 207.664 633.002 207.875C632.985 213.256 633.133 218.706 632.915 224.079L633.036 224.352L633.013 255.004L611.012 254.995Q594.457 254.945 577.903 255.078L577.652 254.96Q567.24 255.041 556.827 254.957L556.508 255.047C545.036 254.623 533.388 255.049 521.899 255.073L521.399 254.973L501.008 254.992Q484.202 254.897 467.397 255.101L467.156 254.985C460.206 255.194 453.289 255.119 446.339 254.975L446.071 255.077Q429.527 254.911 412.984 255.088Q413.304 239.549 412.984 224.01Q412.929 215.962 413.015 207.914C423.967 207.918 435.017 208.2 445.956 207.819Q457.001 207.622 468.047 207.771Z"/>
	<path fill="#E3C656" transform="matrix(0.407672 0.00592582 -0.00592582 0.407672 6.06799 0)" d="M500.926 208.154Q511.471 208.16 522.014 207.98Q522.062 215.946 521.856 223.909C514.925 224.17 507.932 223.991 500.993 223.989L500.926 208.154Z"/>
	<path fill="#E3C656" transform="matrix(0.407672 0.00592582 -0.00592582 0.407672 6.06799 0)" d="M556.957 207.907L578.055 207.916Q577.588 215.911 577.539 223.919L556.783 223.974Q556.806 215.94 556.957 207.907Z"/>
	<path fill="#E3C656" transform="matrix(0.407672 0.00592582 -0.00592582 0.407672 6.06799 0)" d="M445.956 207.819Q457.001 207.622 468.047 207.771C468.053 213.191 468.037 218.588 467.764 224.003L446.463 223.996C446.532 218.609 446.185 213.202 445.956 207.819Z"/>
	<path fill="#E3C656" transform="matrix(0.407672 0.00592582 -0.00592582 0.407672 6.06799 0)" d="M610.933 207.898C618.297 207.77 625.639 207.664 633.002 207.875C632.985 213.256 633.133 218.706 632.915 224.079C625.618 223.857 618.331 224.222 611.059 223.408L610.933 207.898Z"/>
	<path fill="#A9844D" transform="matrix(0.407672 0.00592582 -0.00592582 0.407672 6.06799 0)" d="M610.94 223.941C611.11 234.281 610.679 244.671 611.012 254.995Q594.457 254.945 577.903 255.078L577.652 254.96C579.126 247.679 577.959 232.188 577.946 224.001C588.935 223.996 599.955 224.146 610.94 223.941Z"/>
	<path fill="#A9844D" transform="matrix(0.407672 0.00592582 -0.00592582 0.407672 6.06799 0)" d="M412.984 224.01L446.445 223.989C446.625 234.26 445.83 244.754 446.339 254.975L446.071 255.077Q429.527 254.911 412.984 255.088Q413.304 239.549 412.984 224.01Z"/>
	<path fill="#A9844D" transform="matrix(0.407672 0.00592582 -0.00592582 0.407672 6.06799 0)" d="M467.558 224.009L501.02 223.983Q500.862 239.488 501.008 254.992Q484.202 254.897 467.397 255.101L467.156 254.985C468.656 247.129 467.269 232.802 467.558 224.009Z"/>
	<path fill="#A9844D" transform="matrix(0.407672 0.00592582 -0.00592582 0.407672 6.06799 0)" d="M521.59 224.012L556.588 223.948C556.558 229.622 555.604 250.978 556.827 254.957L556.508 255.047C545.036 254.623 533.388 255.049 521.899 255.073L521.399 254.973C522.599 244.679 521.089 234.357 521.59 224.012Z"/>
	<path fill="#778DDB" transform="matrix(0.407672 0.00592582 -0.00592582 0.407672 6.06799 0)" d="M695.007 319.584L705.083 319.483C705.007 321.508 704.7 323.599 705.514 325.498C707.019 327.065 708.881 327.022 710.917 327.074L711.431 327.083C711.586 329.726 711.692 332.38 711.934 335.016L719.497 335.008L719.533 342.43L727.844 342.457L727.654 350.954L734.517 351.01L734.436 855.992L726.981 856.006L727.014 864.044C722.165 863.859 716.207 863.073 711.501 864.307C711.566 869.337 711.923 874.629 711.217 879.615L711.096 879.887Q703.506 880.04 695.915 879.995C695.926 884.87 696.085 889.796 695.782 894.661L695.628 894.93C690.66 895.11 685.646 895.046 680.673 895.1L679.605 892.078Q679.594 885.95 679.828 879.827C674.462 878.314 633.217 880.011 624.033 879.989C624.019 867.558 623.585 854.993 624.3 842.587C631.882 843.563 639.924 843.022 647.555 842.94C648.747 835.119 648.058 826.413 648.037 818.484L664 818.502L664.021 801.019L679.87 800.989L679.513 762.886C679.527 736.445 679.841 709.947 679.128 683.516C678.914 674.458 679.337 665.315 679.408 656.248Q679.605 628.015 679.466 599.781C688.864 600.325 698.208 601.305 707.567 599.706C708.972 541.211 707.973 482.511 707.535 424.005L707.457 376.113Q707.474 368.534 707.361 360.956L705.921 359.516L696.085 359.579Q696.14 351.594 695.967 343.61C690.696 343.068 685.361 343.853 680.081 343.255Q680.185 336.133 680.1 329.011L680.389 328.067C682.494 326.796 692.16 327.506 695.083 327.483C694.862 324.894 695.009 322.189 695.007 319.584Z"/>
	<path fill="#0D178C" transform="matrix(0.407672 0.00592582 -0.00592582 0.407672 6.06799 0)" d="M695.967 343.61C699.304 343.593 702.646 343.613 705.982 343.555C706.201 348.908 706.452 354.169 705.921 359.516L696.085 359.579Q696.14 351.594 695.967 343.61Z"/>
	<path fill="#0D178C" transform="matrix(0.407672 0.00592582 -0.00592582 0.407672 6.06799 0)" d="M695.083 327.483C696.448 331.679 695.543 338.515 695.494 343.007C690.399 343 685.15 342.73 680.081 343.255Q680.185 336.133 680.1 329.011L680.389 328.067C682.494 326.796 692.16 327.506 695.083 327.483Z"/>
	<path fill="#0D178C" transform="matrix(0.407672 0.00592582 -0.00592582 0.407672 6.06799 0)" d="M707.361 360.956L718.999 360.991L719.488 847.492L708.712 847.77Q708.946 855.936 708.973 864.105C706.228 864.095 703.461 864.017 700.719 864.088L695.493 863.989L695.473 847.998L708.093 847.942C707.469 819.1 707.958 790.147 707.913 761.291L707.567 599.706C708.972 541.211 707.973 482.511 707.535 424.005L707.457 376.113Q707.474 368.534 707.361 360.956Z"/>
	<path fill="#1C8145" transform="matrix(0.407672 0.00592582 -0.00592582 0.407672 6.06799 0)" d="M679.466 599.781C688.864 600.325 698.208 601.305 707.567 599.706L707.913 761.291C707.958 790.147 707.469 819.1 708.093 847.942L695.473 847.998L695.493 863.989L700.719 864.088C704.31 864.818 707.875 864.715 711.501 864.307C711.566 869.337 711.923 874.629 711.217 879.615L711.096 879.887Q703.506 880.04 695.915 879.995C695.926 884.87 696.085 889.796 695.782 894.661L695.628 894.93C690.66 895.11 685.646 895.046 680.673 895.1L679.605 892.078Q679.594 885.95 679.828 879.827C674.462 878.314 633.217 880.011 624.033 879.989C624.019 867.558 623.585 854.993 624.3 842.587C631.882 843.563 639.924 843.022 647.555 842.94C648.747 835.119 648.058 826.413 648.037 818.484L664 818.502L664.021 801.019L679.87 800.989L679.513 762.886C679.527 736.445 679.841 709.947 679.128 683.516C678.914 674.458 679.337 665.315 679.408 656.248Q679.605 628.015 679.466 599.781Z"/>
	<path fill="#99A9E3" transform="matrix(0.407672 0.00592582 -0.00592582 0.407672 6.06799 0)" d="M680.429 863.789Q687.961 863.846 695.493 863.989L700.719 864.088C704.31 864.818 707.875 864.715 711.501 864.307C711.566 869.337 711.923 874.629 711.217 879.615L711.096 879.887Q703.506 880.04 695.915 879.995C695.926 884.87 696.085 889.796 695.782 894.661L695.628 894.93C690.66 895.11 685.646 895.046 680.673 895.1L679.605 892.078Q679.594 885.95 679.828 879.827L680.006 879.599C680.416 874.305 680.471 869.094 680.429 863.789Z"/>
	<path fill="#0D178C" transform="matrix(0.407672 0.00592582 -0.00592582 0.407672 6.06799 0)" d="M680.429 863.789Q687.961 863.846 695.493 863.989L695.479 879.499L680.006 879.599C680.416 874.305 680.471 869.094 680.429 863.789Z"/>
	<path fill="#FEFEFE" transform="matrix(0.407672 0.00592582 -0.00592582 0.407672 6.06799 0)" d="M333.479 280.001L347.963 279.995L348.068 327.06C381.628 323.784 418.857 324.965 452.789 324.969L608.484 325.014C609.019 329.673 608.979 334.318 608.984 339L624.976 338.99L624.991 360.548L624.94 360.839Q625.03 368.617 625.013 376.395L464.683 376.492Q444.716 376.431 424.75 376.6C413.174 376.77 401.556 377.331 389.986 376.708C389.988 388.351 390.186 400.035 389.937 411.673C389.948 415.833 390.094 420.043 389.824 424.194L389.686 424.398Q389.938 441.246 390.001 458.095L389.99 469.201C377.506 468.803 364.634 467.909 352.207 469.446C340.58 469.733 328.885 469.491 317.251 469.499L317.319 733.492L317.181 811.378C317.164 823.316 318.537 835.881 316.8 847.689L317.023 848.127L328.574 847.985C328.599 853.008 328.687 858.038 328.469 863.058L328.79 864.013C329.051 868.963 329.156 873.916 328.633 878.854C333.513 879.04 338.648 878.623 343.477 879.217L343.512 892.005C349.748 892.01 356.053 891.822 362.281 892.07C359.316 892.711 346.262 893.554 343.765 892.084C341.788 889.429 343.071 883.181 343 879.814C338.211 879.266 333.318 879.477 328.503 879.503C328.473 883.264 327.59 889.55 329.844 892.61C333.092 894.69 339.654 893.448 343.497 893.5L343.5 904C350.499 904.04 357.469 904.393 364.473 904.383C373.326 904.371 382.353 903.993 391.186 904.552C388.22 905.263 384.903 904.559 381.835 905.068C377.364 905.565 372.405 905.163 367.892 905.133C359.638 905.078 351.366 905.125 343.118 904.792L342.731 903.643C342.435 900.565 342.584 897.424 342.604 894.334C337.978 893.343 333.371 895.122 328.843 893.513C327.855 892.249 328.068 891.447 327.999 889.872C323.064 890.205 317.997 889.995 313.045 890.014Q313.079 884.708 312.741 879.413L312.391 877.566C310.42 878.457 305.192 877.598 302.769 877.665C302.935 873.066 302.549 868.524 302.203 863.944L301.578 863.368L301.462 857.093L290.47 856.695L290.959 358.89L303.807 358.894L303.781 343.927L319.519 343.543L319.518 327.034L333.438 326.982L333.479 280.001Z"/>
	<path fill="#0D178C" transform="matrix(0.407672 0.00592582 -0.00592582 0.407672 6.06799 0)" d="M302.203 863.944L312.498 864.004C312.483 868.502 312.647 873.078 312.391 877.566C310.42 878.457 305.192 877.598 302.769 877.665C302.935 873.066 302.549 868.524 302.203 863.944Z"/>
	<path fill="#0D178C" transform="matrix(0.407672 0.00592582 -0.00592582 0.407672 6.06799 0)" d="M312.741 879.413C317.908 879.817 322.808 879.918 327.965 879.394L327.999 889.872C323.064 890.205 317.997 889.995 313.045 890.014Q313.079 884.708 312.741 879.413Z"/>
	<path fill="#0D178C" transform="matrix(0.407672 0.00592582 -0.00592582 0.407672 6.06799 0)" d="M317.023 848.127L328.574 847.985C328.599 853.008 328.687 858.038 328.469 863.058L316.367 862.996C316.403 858.04 316.762 853.075 317.023 848.127Z"/>
	<path fill="#0D178C" transform="matrix(0.407672 0.00592582 -0.00592582 0.407672 6.06799 0)" d="M320.396 344.025L333.443 344L333.325 358.047C329.282 358.586 325.116 358.419 321.041 358.429C320.59 353.644 320.532 348.828 320.396 344.025Z"/>
	<path fill="#0D178C" transform="matrix(0.407672 0.00592582 -0.00592582 0.407672 6.06799 0)" d="M335.03 328.024L348.308 327.989L348.399 342.965L334.938 342.985L335.03 328.024Z"/>
	<path fill="#F9CC99" transform="matrix(0.407672 0.00592582 -0.00592582 0.407672 6.06799 0)" d="M352.016 411.507C361.508 412.314 380.952 413.207 389.937 411.673C389.948 415.833 390.094 420.043 389.824 424.194L389.686 424.398C384.76 422.751 358.547 423.498 352.362 424.381L352.058 424.229L352.016 411.507Z"/>
	<path fill="#F9FB98" transform="matrix(0.407672 0.00592582 -0.00592582 0.407672 6.06799 0)" d="M317.472 375.969Q334.768 376.135 352.065 375.991L352.016 411.507C340.357 410.488 328.92 411.053 317.252 411.076C317.741 399.402 317.48 387.654 317.472 375.969Z"/>
	<path fill="#F9FB98" transform="matrix(0.407672 0.00592582 -0.00592582 0.407672 6.06799 0)" d="M389.998 360.997L528.396 360.789L586.626 361.043C599.454 361.131 612.117 361.805 624.94 360.839Q625.03 368.617 625.013 376.395L464.683 376.492Q444.716 376.431 424.75 376.6C413.174 376.77 401.556 377.331 389.986 376.708L389.998 360.997Z"/>
	<path fill="#F2E950" transform="matrix(0.407672 0.00592582 -0.00592582 0.407672 6.06799 0)" d="M317.252 411.076C328.92 411.053 340.357 410.488 352.016 411.507L352.058 424.229L352.362 424.381C358.547 423.498 384.76 422.751 389.686 424.398Q389.938 441.246 390.001 458.095L389.99 469.201C377.506 468.803 364.634 467.909 352.207 469.446C340.58 469.733 328.885 469.491 317.251 469.499L317.359 456.059C317.552 446.012 317.334 435.929 317.293 425.879C316.806 421.007 317.029 415.961 317.252 411.076Z"/>
	<path fill="#DFA847" transform="matrix(0.407672 0.00592582 -0.00592582 0.407672 6.06799 0)" d="M317.252 411.076C328.92 411.053 340.357 410.488 352.016 411.507L352.058 424.229C345.893 423.815 322.741 422.936 317.864 424.668L317.293 425.879C316.806 421.007 317.029 415.961 317.252 411.076Z"/>
	<path fill="#DFA847" transform="matrix(0.407672 0.00592582 -0.00592582 0.407672 6.06799 0)" d="M336.105 441.044L352.281 441.025C351.484 449.642 351.478 460.829 352.207 469.446C340.58 469.733 328.885 469.491 317.251 469.499L317.359 456.059C323.612 456.181 329.882 456.081 336.136 456.066C336.353 451.051 336.225 446.059 336.105 441.044Z"/>
	<path fill="#F9FB98" transform="matrix(0.407672 0.00592582 -0.00592582 0.407672 6.06799 0)" d="M352.362 424.381C358.547 423.498 384.76 422.751 389.686 424.398Q389.938 441.246 390.001 458.095L389.99 469.201C377.506 468.803 364.634 467.909 352.207 469.446C351.478 460.829 351.484 449.642 352.281 441.025C352.534 435.494 352.378 429.918 352.362 424.381Z"/>
	<path fill="#F9CC99" transform="matrix(0.407672 0.00592582 -0.00592582 0.407672 6.06799 0)" d="M352.281 441.025Q352.435 449.536 352.39 458.048C364.9 458.043 377.502 457.719 390.001 458.095L389.99 469.201C377.506 468.803 364.634 467.909 352.207 469.446C351.478 460.829 351.484 449.642 352.281 441.025Z"/>
	<path fill="#0D178C" transform="matrix(0.407672 0.00592582 -0.00592582 0.407672 6.06799 0)" d="M305.492 360.009L317.5 360.007L317.472 375.969C317.48 387.654 317.741 399.402 317.252 411.076C317.029 415.961 316.806 421.007 317.293 425.879C317.334 435.929 317.552 446.012 317.359 456.059L317.251 469.499L317.319 733.492L317.181 811.378C317.164 823.316 318.537 835.881 316.8 847.689C313.022 847.072 309.383 847.222 305.58 847.399L305.492 360.009Z"/>
	<path fill="#7ADAF3" transform="matrix(0.407672 0.00592582 -0.00592582 0.407672 6.06799 0)" d="M696.085 359.579L705.921 359.516L707.361 360.956Q707.474 368.534 707.457 376.113L707.535 424.005C707.973 482.511 708.972 541.211 707.567 599.706C698.208 601.305 688.864 600.325 679.466 599.781Q679.605 628.015 679.408 656.248C679.337 665.315 678.914 674.458 679.128 683.516L624.079 683.48L590.449 683.678L590.468 647.839C580.984 648.043 571.419 648.425 561.961 647.519C562.07 639.807 561.993 632.086 561.994 624.373C557.702 624.32 553.391 624.474 549.098 624.536C549.589 619.069 549.477 613.491 549.568 608.002L549.437 607.638C544.274 608.766 537.498 608.117 532.163 608.186C532.563 613.656 532.452 618.998 531.924 624.454C518.992 624.408 505.999 624.593 493.074 624.207C493.132 626.059 493.218 627.793 492.852 629.617C492.838 627.979 492.814 626.591 492.322 625.02C489.001 623.243 480.357 624.406 476.451 624.46L476.173 624.134C469.162 623.356 462.349 623.7 455.33 624.065C455.371 618.498 455.209 612.978 454.956 607.419L454.546 606.989C449.138 607.035 443.729 606.991 438.368 607.803L437.341 608.851C430.429 612.238 420.556 610.127 413.03 610.497L412.98 617.322L397.775 617.508L390.368 617.397C389.177 568.07 389.886 518.549 389.99 469.201L390.001 458.095Q389.938 441.246 389.686 424.398L389.824 424.194C390.094 420.043 389.948 415.833 389.937 411.673C390.186 400.035 389.988 388.351 389.986 376.708C401.556 377.331 413.174 376.77 424.75 376.6Q444.716 376.431 464.683 376.492L625.013 376.395Q625.03 368.617 624.94 360.839L624.991 360.548C640.948 359.597 657.013 359.955 672.995 359.963C680.413 360.438 688.729 360.767 696.085 359.579Z"/>
	<path fill="#5BD0FA" transform="matrix(0.407672 0.00592582 -0.00592582 0.407672 6.06799 0)" d="M392.376 512.213C391.831 514.59 392.265 518.115 391.199 520.166C389.959 515.049 389.966 508.245 390.889 503.068L391.409 503.407C391.854 504.871 392.137 506.283 392.375 507.794L392.376 512.213Z"/>
	<path fill="#FEFEFE" transform="matrix(0.407672 0.00592582 -0.00592582 0.407672 6.06799 0)" d="M397.567 600.503L413.025 600.494L413.03 610.497L412.98 617.322L397.775 617.508C397.389 611.857 397.542 606.165 397.567 600.503Z"/>
	<path fill="#FEFEFE" transform="matrix(0.407672 0.00592582 -0.00592582 0.407672 6.06799 0)" d="M589.562 607.428C591.329 612.258 590.383 618.983 589.958 624.017C584.307 624.026 578.604 623.875 572.966 624.267L572.873 607.508L589.562 607.428Z"/>
	<path fill="#FEFEFE" transform="matrix(0.407672 0.00592582 -0.00592582 0.407672 6.06799 0)" d="M598.966 472.017L617.008 471.991L616.915 487.98L598.998 488.026L598.966 472.017Z"/>
	<path fill="#0D178C" transform="matrix(0.407672 0.00592582 -0.00592582 0.407672 6.06799 0)" d="M477.021 534.01L494.539 534.006C494.532 540.259 495.296 547.725 494.184 553.815L493.653 554.271C488.169 553.962 482.76 554.244 477.286 554.614C476.145 548.196 476.958 540.541 477.021 534.01Z"/>
	<path fill="#0D178C" transform="matrix(0.407672 0.00592582 -0.00592582 0.407672 6.06799 0)" d="M529.909 533.977L548.496 533.933Q548.406 543.974 548.485 554.014C542.333 553.961 536.17 554.075 530.018 554.11Q530.043 544.043 529.909 533.977Z"/>
	<path fill="#0D178C" transform="matrix(0.407672 0.00592582 -0.00592582 0.407672 6.06799 0)" d="M548.931 554.59C556.467 554.752 564.014 554.964 571.547 554.568C571.524 561.276 571.839 568.163 571.446 574.847L549.16 575.007Q549.217 564.797 548.931 554.59Z"/>
	<path fill="#0D178C" transform="matrix(0.407672 0.00592582 -0.00592582 0.407672 6.06799 0)" d="M437.006 575.419C442.789 575.202 449.227 574.468 454.907 575.44L454.579 592.002C454.617 596.991 454.753 602.003 454.546 606.989C449.138 607.035 443.729 606.991 438.368 607.803L437.552 607.461C435.554 603.119 436.861 581.71 437.006 575.419Z"/>
	<path fill="#0D178C" transform="matrix(0.407672 0.00592582 -0.00592582 0.407672 6.06799 0)" d="M495.031 513.01C506.347 512.997 517.687 513.121 529 512.912L528.992 533.671C518.137 532.412 506.024 533.411 495.063 533.607L495.031 513.01Z"/>
	<path fill="#FEFEFE" transform="matrix(0.407672 0.00592582 -0.00592582 0.407672 6.06799 0)" d="M463.99 423.405C469.401 423.277 474.757 423.359 480.165 423.553C480.047 427.219 480.042 430.896 479.983 434.564L487.599 434.497L487.497 448.003L477.998 448.016L478.036 455.413L477.734 455.73C474.006 456.898 468.018 456.053 464.027 456.016L464.268 448.005L455.476 448.006L455.383 434.274L463.993 434.429L463.99 423.405Z"/>
	<path fill="#0D178C" transform="matrix(0.407672 0.00592582 -0.00592582 0.407672 6.06799 0)" d="M572.004 575.54L589.504 575.735C589.473 586.294 589.307 596.872 589.562 607.428L572.873 607.508L572.966 624.267C569.303 624.374 565.657 624.454 561.994 624.373C557.702 624.32 553.391 624.474 549.098 624.536C549.589 619.069 549.477 613.491 549.568 608.002L549.437 607.638C549.254 602.591 549.453 597.556 549.183 592.498Q560.637 592.385 572.088 592.648L572.004 575.54Z"/>
	<path fill="#DFA847" transform="matrix(0.407672 0.00592582 -0.00592582 0.407672 6.06799 0)" d="M549.183 592.498Q560.637 592.385 572.088 592.648C572.087 597.756 571.981 602.88 572.496 607.968L549.568 608.002L549.437 607.638C549.254 602.591 549.453 597.556 549.183 592.498Z"/>
	<path fill="#FEFEFE" transform="matrix(0.407672 0.00592582 -0.00592582 0.407672 6.06799 0)" d="M407.983 488.003L424.897 487.989C424.692 492.686 424.771 497.299 424.958 501.992L440.529 502.066L440.495 520.007L425.551 520.017C425.35 525.362 424.891 530.68 424.444 536.009L407.765 536.016Q407.503 528.017 407.712 520.016C402.614 520.022 397.476 519.891 392.385 520.147C392.392 517.508 392.468 514.849 392.376 512.213L392.375 507.794C392.37 506.207 392.128 504.205 392.867 502.785C397.758 501.884 403.018 502.546 408.004 501.98L407.983 488.003Z"/>
	<path fill="#F9FB98" transform="matrix(0.407672 0.00592582 -0.00592582 0.407672 6.06799 0)" d="M495.063 533.607C506.024 533.411 518.137 532.412 528.992 533.671L529.909 533.977Q530.043 544.043 530.018 554.11C536.17 554.075 542.333 553.961 548.485 554.014L548.931 554.59Q549.217 564.797 549.16 575.007L571.446 574.847L572.004 575.54L572.088 592.648Q560.637 592.385 549.183 592.498C549.453 597.556 549.254 602.591 549.437 607.638C544.274 608.766 537.498 608.117 532.163 608.186C532.563 613.656 532.452 618.998 531.924 624.454C518.992 624.408 505.999 624.593 493.074 624.207C493.132 626.059 493.218 627.793 492.852 629.617C492.838 627.979 492.814 626.591 492.322 625.02C489.001 623.243 480.357 624.406 476.451 624.46L476.173 624.134C469.162 623.356 462.349 623.7 455.33 624.065C455.371 618.498 455.209 612.978 454.956 607.419L454.546 606.989C454.753 602.003 454.617 596.991 454.579 592.002L454.907 575.44L455.098 575.053C454.781 568.414 455.027 561.663 455.035 555.011Q466.036 555.044 477.036 554.873L477.286 554.614C482.76 554.244 488.169 553.962 493.653 554.271L494.184 553.815C495.296 547.725 494.532 540.259 494.539 534.006L495.063 533.607Z"/>
	<path fill="#E3C656" transform="matrix(0.407672 0.00592582 -0.00592582 0.407672 6.06799 0)" d="M476.638 609.248L476.982 615.917Q484.995 616.063 493.007 615.898L493.074 624.207C493.132 626.059 493.218 627.793 492.852 629.617C492.838 627.979 492.814 626.591 492.322 625.02C489.001 623.243 480.357 624.406 476.451 624.46L476.173 624.134C477.099 619.521 476.617 613.961 476.638 609.248Z"/>
	<path fill="#DFA847" transform="matrix(0.407672 0.00592582 -0.00592582 0.407672 6.06799 0)" d="M454.579 592.002Q465.789 592.039 476.998 591.93C477.021 596.478 477.921 603.364 476.628 607.646C469.376 606.689 462.232 607.089 454.956 607.419L454.546 606.989C454.753 602.003 454.617 596.991 454.579 592.002Z"/>
	<path fill="#0D178C" transform="matrix(0.407672 0.00592582 -0.00592582 0.407672 6.06799 0)" d="M454.956 607.419C462.232 607.089 469.376 606.689 476.628 607.646L476.638 609.248C476.617 613.961 477.099 619.521 476.173 624.134C469.162 623.356 462.349 623.7 455.33 624.065C455.371 618.498 455.209 612.978 454.956 607.419Z"/>
	<path fill="#FEFED4" transform="matrix(0.407672 0.00592582 -0.00592582 0.407672 6.06799 0)" d="M477.286 554.614C482.76 554.244 488.169 553.962 493.653 554.271C495.202 555.879 494.5 572.501 494.487 575.97C489.271 576.095 481.833 577.146 476.964 575.228L477.036 554.873L477.286 554.614Z"/>
	<path fill="#0D178C" transform="matrix(0.407672 0.00592582 -0.00592582 0.407672 6.06799 0)" d="M455.035 555.011Q466.036 555.044 477.036 554.873L476.964 575.228C469.701 574.42 462.384 574.824 455.098 575.053C454.781 568.414 455.027 561.663 455.035 555.011Z"/>
	<path fill="#DFA847" transform="matrix(0.407672 0.00592582 -0.00592582 0.407672 6.06799 0)" d="M696.085 359.579L705.921 359.516L707.361 360.956Q707.474 368.534 707.457 376.113L707.535 424.005L673.598 424.014L624.481 424.027L592.99 424.012C593.641 431.661 593.425 439.374 593.324 447.04C587.725 446.937 582.117 446.967 576.517 446.944L576.67 462.51L523.432 462.597C523.493 457.278 523.685 451.903 523.192 446.602C516.688 446.284 510.048 446.578 503.53 446.612Q503.455 435.273 503.831 423.94C496.203 423.516 488.457 423.708 480.811 423.583C481.151 416.703 481.016 409.765 481.036 402.875C472.865 402.281 464.614 402.838 456.424 402.883L410.384 402.954C410.499 410.039 410.44 417.136 410.464 424.223C403.63 424.073 396.644 423.735 389.824 424.194C390.094 420.043 389.948 415.833 389.937 411.673C390.186 400.035 389.988 388.351 389.986 376.708C401.556 377.331 413.174 376.77 424.75 376.6Q444.716 376.431 464.683 376.492L625.013 376.395Q625.03 368.617 624.94 360.839L624.991 360.548C640.948 359.597 657.013 359.955 672.995 359.963C680.413 360.438 688.729 360.767 696.085 359.579Z"/>
	<path fill="#E3C656" transform="matrix(0.407672 0.00592582 -0.00592582 0.407672 6.06799 0)" d="M624.991 360.548C640.948 359.597 657.013 359.955 672.995 359.963L673.029 376.425L625.013 376.395Q625.03 368.617 624.94 360.839L624.991 360.548Z"/>
	<path fill="#A06E27" transform="matrix(0.407672 0.00592582 -0.00592582 0.407672 6.06799 0)" d="M696.085 359.579L705.921 359.516L707.361 360.956Q707.474 368.534 707.457 376.113L707.535 424.005L673.598 424.014L624.481 424.027L624.586 409.058C640.752 408.384 656.871 408.785 673.041 409.001C673.149 398.148 673.035 387.28 673.029 376.425L672.995 359.963C680.413 360.438 688.729 360.767 696.085 359.579Z"/>
	<path fill="#A9844D" transform="matrix(0.407672 0.00592582 -0.00592582 0.407672 6.06799 0)" d="M696.085 359.579L705.921 359.516L707.361 360.956Q707.474 368.534 707.457 376.113C695.974 376.274 684.516 376.53 673.029 376.425L672.995 359.963C680.413 360.438 688.729 360.767 696.085 359.579Z"/>
	<path fill="#F2E950" transform="matrix(0.407672 0.00592582 -0.00592582 0.407672 6.06799 0)" d="M389.986 376.708C401.556 377.331 413.174 376.77 424.75 376.6Q444.716 376.431 464.683 376.492L625.013 376.395C625.158 387.141 625.855 398.313 624.682 409.017L576.965 408.974L576.968 428.769Q546.957 429.242 516.948 428.607C516.953 422.409 516.898 416.204 516.981 410.007L496.57 410.021L496.59 392.004L398.41 391.986L398.307 411.391C395.526 411.481 392.711 411.482 389.937 411.673C390.186 400.035 389.988 388.351 389.986 376.708Z"/>
	<path fill="#1BC6C7" transform="matrix(0.407672 0.00592582 -0.00592582 0.407672 6.06799 0)" d="M673.598 424.014L707.535 424.005C707.973 482.511 708.972 541.211 707.567 599.706C698.208 601.305 688.864 600.325 679.466 599.781Q679.605 628.015 679.408 656.248C679.337 665.315 678.914 674.458 679.128 683.516L624.079 683.48L624.481 424.027L673.598 424.014Z"/>
	<path fill="#40BA59" transform="matrix(0.407672 0.00592582 -0.00592582 0.407672 6.06799 0)" d="M648.43 600.014L662.55 600.003L662.477 613.034L648.509 612.975L648.43 600.014Z"/>
	<path fill="#FEFEFE" transform="matrix(0.407672 0.00592582 -0.00592582 0.407672 6.06799 0)" d="M651.345 524.504C655.893 524.314 660.395 524.266 664.946 524.379Q665.3 531.688 665.472 539.004L673.591 538.943L681.397 539.003C681.518 543.516 682.228 549.192 680.791 553.479C675.702 553.936 670.582 553.927 665.477 554.006L665.461 567.779L651.879 568.015L651.853 553.503L638.078 553.5L638.084 538.939L651.223 538.904Q651.183 531.703 651.345 524.504Z"/>
	<path fill="#0A8D7C" transform="matrix(0.407672 0.00592582 -0.00592582 0.407672 6.06799 0)" d="M673.598 424.014L707.535 424.005C707.973 482.511 708.972 541.211 707.567 599.706C698.208 601.305 688.864 600.325 679.466 599.781C678.969 588.77 677.545 563.096 680.791 553.479C682.228 549.192 681.518 543.516 681.397 539.003L673.591 538.943C672.761 526.344 673.508 513.196 673.519 500.531L673.598 424.014Z"/>
	<path fill="#6CF198" transform="matrix(0.407672 0.00592582 -0.00592582 0.407672 6.06799 0)" d="M352.207 469.446C364.634 467.909 377.506 468.803 389.99 469.201C389.886 518.549 389.177 568.07 390.368 617.397L397.775 617.508L412.98 617.322L413.03 610.497C420.556 610.127 430.429 612.238 437.341 608.851L438.368 607.803C443.729 606.991 449.138 607.035 454.546 606.989L454.956 607.419C455.209 612.978 455.371 618.498 455.33 624.065C462.349 623.7 469.162 623.356 476.173 624.134L476.451 624.46C480.357 624.406 489.001 623.243 492.322 625.02C492.814 626.591 492.838 627.979 492.852 629.617C493.218 627.793 493.132 626.059 493.074 624.207C505.999 624.593 518.992 624.408 531.924 624.454C532.452 618.998 532.563 613.656 532.163 608.186C537.498 608.117 544.274 608.766 549.437 607.638L549.568 608.002C549.477 613.491 549.589 619.069 549.098 624.536C553.391 624.474 557.702 624.32 561.994 624.373C561.993 632.086 562.07 639.807 561.961 647.519C571.419 648.425 580.984 648.043 590.468 647.839L590.449 683.678L624.079 683.48L679.128 683.516C679.841 709.947 679.527 736.445 679.513 762.886L679.87 800.989L664.021 801.019L664 818.502L648.037 818.484C648.058 826.413 648.747 835.119 647.555 842.94C639.924 843.022 631.882 843.563 624.3 842.587C623.585 854.993 624.019 867.558 624.033 879.989L371.744 879.871C362.384 879.999 352.749 880.601 343.477 879.217C338.648 878.623 333.513 879.04 328.633 878.854C329.156 873.916 329.051 868.963 328.79 864.013L328.469 863.058C328.687 858.038 328.599 853.008 328.574 847.985L317.023 848.127L316.8 847.689C318.537 835.881 317.164 823.316 317.181 811.378L317.319 733.492L317.251 469.499C328.885 469.491 340.58 469.733 352.207 469.446Z"/>
	<path fill="#FEFEFE" transform="matrix(0.407672 0.00592582 -0.00592582 0.407672 6.06799 0)" d="M328.508 678.102Q335.839 677.972 343.17 678.053L343.029 691.036L328.507 691.087L328.508 678.102Z"/>
	<path fill="#0D178C" transform="matrix(0.407672 0.00592582 -0.00592582 0.407672 6.06799 0)" d="M328.79 864.013C332.08 862.645 338.747 863.755 342.397 863.916L342.522 878.7C337.907 878.64 333.232 878.425 328.633 878.854C329.156 873.916 329.051 868.963 328.79 864.013Z"/>
	<path fill="#CCFCFB" transform="matrix(0.407672 0.00592582 -0.00592582 0.407672 6.06799 0)" d="M472.023 712.032L488.132 712.019L488.021 726.044L471.996 726.067L472.023 712.032Z"/>
	<path fill="#FEFEFE" transform="matrix(0.407672 0.00592582 -0.00592582 0.407672 6.06799 0)" d="M399.944 687.01L415.944 687.009L415.475 701.629C410.338 702.069 405.114 701.955 399.96 702.013L399.944 687.01Z"/>
	<path fill="#40BA59" transform="matrix(0.407672 0.00592582 -0.00592582 0.407672 6.06799 0)" d="M548.358 712.018L563.763 711.984C563.913 717.303 563.851 722.637 563.866 727.959L548.358 727.993L548.358 712.018Z"/>
	<path fill="#FEFEFE" transform="matrix(0.407672 0.00592582 -0.00592582 0.407672 6.06799 0)" d="M462.025 794.51L478.017 794.533L478.008 810.004L462.028 810.021L462.025 794.51Z"/>
	<path fill="#40BA59" transform="matrix(0.407672 0.00592582 -0.00592582 0.407672 6.06799 0)" d="M568.476 768.013L584.002 767.98L584.015 784.509L568.496 784.496L568.476 768.013Z"/>
	<path fill="#FEFEFE" transform="matrix(0.407672 0.00592582 -0.00592582 0.407672 6.06799 0)" d="M476.416 646.908C481.784 646.864 487.2 646.665 492.556 647.063L493.409 647.447Q493.539 659.205 493.5 670.964C487.811 671.435 482.196 671.42 476.494 671.395Q476.387 659.151 476.416 646.908Z"/>
	<path fill="#FEFEFE" transform="matrix(0.407672 0.00592582 -0.00592582 0.407672 6.06799 0)" d="M549.098 624.536C553.391 624.474 557.702 624.32 561.994 624.373C561.993 632.086 562.07 639.807 561.961 647.519L548.961 647.05L549.014 671.738C543.36 671.958 537.584 672.435 532.005 671.259L531.988 647.394L532.155 647.1C537.638 646.69 543.017 646.748 548.502 646.949Q548.36 635.885 548.601 624.823L549.098 624.536Z"/>
	<path fill="#0D178C" transform="matrix(0.407672 0.00592582 -0.00592582 0.407672 6.06799 0)" d="M493.409 647.447C506.266 647.358 519.135 647.656 531.988 647.394L532.005 671.259C519.654 669.27 505.992 670.653 493.5 670.964Q493.539 659.205 493.409 647.447Z"/>
	<path fill="#FEFEFE" transform="matrix(0.407672 0.00592582 -0.00592582 0.407672 6.06799 0)" d="M438.368 607.803C443.729 606.991 449.138 607.035 454.546 606.989L454.956 607.419C455.209 612.978 455.371 618.498 455.33 624.065C462.349 623.7 469.162 623.356 476.173 624.134L476.451 624.46C480.357 624.406 489.001 623.243 492.322 625.02C492.814 626.591 492.838 627.979 492.852 629.617C492.106 635.229 492.53 641.399 492.556 647.063C487.2 646.665 481.784 646.864 476.416 646.908L476.234 646.694C469.66 648.317 461.737 647.542 454.991 647.502L454.995 624.918C449.326 625.075 443.637 625.045 437.965 625.103C437.939 619.662 437.688 614.279 437.341 608.851L438.368 607.803Z"/>
	<path fill="#0D178C" transform="matrix(0.407672 0.00592582 -0.00592582 0.407672 6.06799 0)" d="M476.451 624.46C480.357 624.406 489.001 623.243 492.322 625.02C492.814 626.591 492.838 627.979 492.852 629.617C492.106 635.229 492.53 641.399 492.556 647.063C487.2 646.665 481.784 646.864 476.416 646.908L476.234 646.694C475.76 639.338 476.101 631.819 476.451 624.46Z"/>
	<path fill="#FEFEFE" transform="matrix(0.407672 0.00592582 -0.00592582 0.407672 6.06799 0)" d="M407.491 727.966C412.837 727.94 418.193 727.846 423.537 728.012C423.541 733.001 423.616 737.928 423.981 742.907C429.371 742.952 434.675 742.976 440.038 743.586L440.023 760.01L423.766 760.004L423.96 776.506L407.877 776.509C407.797 771.009 407.623 765.493 407.737 759.995C402.19 760.013 396.633 760.1 391.087 760.045C392.369 755.58 391.935 747.556 391.189 743.013Q399.344 742.853 407.501 742.918L407.491 727.966Z"/>
	<path fill="#F2E950" transform="matrix(0.407672 0.00592582 -0.00592582 0.407672 6.06799 0)" d="M532.163 608.186C537.498 608.117 544.274 608.766 549.437 607.638L549.568 608.002C549.477 613.491 549.589 619.069 549.098 624.536L548.601 624.823Q548.36 635.885 548.502 646.949C543.017 646.748 537.638 646.69 532.155 647.1L531.988 647.394C519.135 647.656 506.266 647.358 493.409 647.447L492.556 647.063C492.53 641.399 492.106 635.229 492.852 629.617C493.218 627.793 493.132 626.059 493.074 624.207C505.999 624.593 518.992 624.408 531.924 624.454C532.452 618.998 532.563 613.656 532.163 608.186Z"/>
	<path fill="#0D178C" transform="matrix(0.407672 0.00592582 -0.00592582 0.407672 6.06799 0)" d="M532.118 624.57Q540.356 624.94 548.601 624.823Q548.36 635.885 548.502 646.949C543.017 646.748 537.638 646.69 532.155 647.1C531.705 639.584 531.847 632.089 532.118 624.57Z"/>
	<path fill="#CCFCFB" transform="matrix(0.407672 0.00592582 -0.00592582 0.407672 6.06799 0)" d="M352.207 469.446C364.634 467.909 377.506 468.803 389.99 469.201C389.886 518.549 389.177 568.07 390.368 617.397C390.4 636.533 389.795 655.839 390.416 674.956C389.797 686.032 390.174 697.28 390.152 708.379L390.056 767.627L390.107 802.096C390.119 807.962 389.668 814.344 390.422 820.147C389.889 827.349 390.326 834.804 390.01 842.065L352.745 842.022C351.901 806.263 352.455 770.428 352.499 734.659L352.448 570.975L352.418 505.775C352.412 493.717 352.832 481.484 352.207 469.446Z"/>
	<path fill="#40BA59" transform="matrix(0.407672 0.00592582 -0.00592582 0.407672 6.06799 0)" d="M624.079 683.48L679.128 683.516C679.841 709.947 679.527 736.445 679.513 762.886L679.87 800.989L664.021 801.019L664 818.502L648.037 818.484C648.058 826.413 648.747 835.119 647.555 842.94C639.924 843.022 631.882 843.563 624.3 842.587C623.585 854.993 624.019 867.558 624.033 879.989L371.744 879.871C377.757 879.226 384.036 879.553 390.082 879.548C391.395 867.175 390.623 854.425 390.401 842.001C400.098 842.944 410.054 842.497 419.793 842.474L467.738 842.433Q545.877 842.989 624.015 842.452L624.079 683.48Z"/>
</svg>
