<?xml version="1.0" encoding="utf-8" ?>
<svg xmlns="http://www.w3.org/2000/svg" xmlns:xlink="http://www.w3.org/1999/xlink" width="417" height="417">
	<path fill="#5A2711" transform="scale(0.407715 0.407715)" d="M112.865 351.492C113.789 367.017 113.043 382.945 113.025 398.514L145.003 398.488C145 403.556 144.632 408.994 145.29 414.013C134.415 413.735 123.51 413.91 112.632 413.987C112.991 393.172 112.19 372.296 112.865 351.492Z"/>
	<path fill="#894420" transform="scale(0.407715 0.407715)" d="M847.043 564.347C858.181 558.94 868.261 552.074 879.131 546.264Q878.865 567.068 879.006 587.874C868.201 587.407 857.237 587.685 846.426 587.97C846.105 582.063 844.645 569.287 847.043 564.347Z"/>
	<path fill="#D1712E" transform="scale(0.407715 0.407715)" d="M879.084 495.433L879.371 495.92C879.549 512.311 880.538 529.995 879.131 546.264C868.261 552.074 858.181 558.94 847.043 564.347C845.301 561.362 846.385 549.187 846.421 545.061C846.14 536.837 846.248 528.64 846.385 520.414C857.251 520.74 868.254 520.223 879.136 520.134C879.417 511.917 878.408 503.649 879.084 495.433Z"/>
	<path fill="#5A2711" transform="scale(0.407715 0.407715)" d="M473.573 136.949L510.054 136.979C510.038 148.032 509.863 159.117 510.07 170.167Q498.929 170.75 487.778 170.42C483.426 169.311 478.012 169.891 473.518 169.98Q473.831 153.465 473.573 136.949Z"/>
	<path fill="#324D79" transform="scale(0.407715 0.407715)" d="M847.034 862.075L947.598 862.018C947.717 866.66 947.897 871.31 947.893 875.955C946.533 874.949 857.86 875.593 847.008 875.232L847.034 862.075Z"/>
	<path fill="#75381E" transform="scale(0.407715 0.407715)" d="M145.003 398.488Q160.786 399.16 176.583 398.992C176.636 405.987 175.771 441.7 177.001 445.47L145.505 445.497C145.53 435.064 145.992 424.411 145.29 414.013C144.632 408.994 145 403.556 145.003 398.488Z"/>
	<path fill="#5A2711" transform="scale(0.407715 0.407715)" d="M184.192 398.912C192.455 398.794 200.766 399.102 209.014 398.63C209.011 404.648 208.02 427.484 209.528 431.372C209.103 436.068 209.594 440.675 208.718 445.349L177.001 445.47C175.771 441.7 176.636 405.987 176.583 398.992C179.166 399.126 181.609 399.193 184.192 398.912Z"/>
	<path fill="#324D79" transform="scale(0.407715 0.407715)" d="M81.0234 862.512C123.485 862.485 165.912 861.896 208.376 862.485L208.37 874.289C196.103 876.803 174.355 874.925 161.12 874.906C134.469 874.868 107.634 875.657 81.0065 874.91L81.0234 862.512Z"/>
	<path fill="#894420" transform="scale(0.407715 0.407715)" d="M879.371 495.92C890.217 495.914 901.197 495.58 912.03 495.968Q911.942 521.213 912.219 546.456Q895.676 546.243 879.131 546.264C880.538 529.995 879.549 512.311 879.371 495.92Z"/>
	<path fill="#E3822E" transform="scale(0.407715 0.407715)" d="M846.43 460.486L879.519 460.511C878.729 472.177 878.033 483.756 879.084 495.433C878.408 503.649 879.417 511.917 879.136 520.134C868.254 520.223 857.251 520.74 846.385 520.414L846.43 460.486Z"/>
	<path fill="#E3822E" transform="scale(0.407715 0.407715)" d="M208.01 102.036C241.615 101.249 275.405 101.988 309.03 101.993L308.801 115.62C309.103 122.573 308.777 129.541 308.95 136.5L308.583 136.611C297.177 136.175 285.865 136.445 274.457 136.504C268.363 136.232 262.183 136.527 256.076 136.44Q232.076 135.909 208.08 136.581L208.261 130.898Q208.526 116.464 208.01 102.036Z"/>
	<path fill="#D1712E" transform="scale(0.407715 0.407715)" d="M308.364 130.511C308.342 127.685 307.677 117.859 308.801 115.62C309.103 122.573 308.777 129.541 308.95 136.5L308.583 136.611C297.177 136.175 285.865 136.445 274.457 136.504C268.363 136.232 262.183 136.527 256.076 136.44Q232.076 135.909 208.08 136.581L208.261 130.898C219.142 131.593 230.483 130.962 241.413 130.916L308.364 130.511Z"/>
	<path fill="#C2C0C6" transform="scale(0.407715 0.407715)" d="M880.026 383.985L912.052 383.975L912.03 495.968C901.197 495.58 890.217 495.914 879.371 495.92L879.084 495.433C878.033 483.756 878.729 472.177 879.519 460.511C880.807 452.001 880.09 442.556 880.093 433.915L880.026 383.985Z"/>
	<path fill="#FEFEFE" transform="scale(0.407715 0.407715)" d="M846.485 352.044L880.011 351.774L880.026 383.985L880.093 433.915C880.09 442.556 880.807 452.001 879.519 460.511L846.43 460.486L846.485 352.044Z"/>
	<path fill="#D1712E" transform="scale(0.407715 0.407715)" d="M239.953 669.316Q256.877 669.49 273.801 669.462L273.832 703.432C284.751 703.451 295.728 703.717 306.639 703.351L307.674 703.874C308.961 709.468 308.008 718.167 307.978 724.105L308.024 748.944L308.121 782.741C296.549 782.203 284.997 783.377 273.421 782.527L273.049 782.568C262.051 782.24 250.948 782.537 239.939 782.538C240.126 771.362 239.972 760.155 239.98 748.976C240.26 722.435 240.055 695.859 239.953 669.316Z"/>
	<path fill="#894420" transform="scale(0.407715 0.407715)" d="M273.832 703.432C284.751 703.451 295.728 703.717 306.639 703.351L307.674 703.874C308.961 709.468 308.008 718.167 307.978 724.105L308.024 748.944C299.63 749.009 280.897 750.237 273.598 748.328C273.047 733.502 273.161 718.245 273.832 703.432Z"/>
	<path fill="#9C5621" transform="scale(0.407715 0.407715)" d="M273.598 748.328C280.897 750.237 299.63 749.009 308.024 748.944L308.121 782.741C296.549 782.203 284.997 783.377 273.421 782.527L273.049 782.568C262.051 782.24 250.948 782.537 239.939 782.538C240.126 771.362 239.972 760.155 239.98 748.976L273.49 748.961L273.598 748.328Z"/>
	<path fill="#E3822E" transform="scale(0.407715 0.407715)" d="M239.98 748.976L273.49 748.961Q273.853 765.745 273.421 782.527L273.049 782.568C262.051 782.24 250.948 782.537 239.939 782.538C240.126 771.362 239.972 760.155 239.98 748.976Z"/>
	<path fill="#9C5621" transform="scale(0.407715 0.407715)" d="M846.421 545.061C846.385 549.187 845.301 561.362 847.043 564.347C844.645 569.287 846.105 582.063 846.426 587.97L846.477 715.129L846.477 753.533C846.483 759.975 846.993 766.991 846.317 773.389C844.813 769.5 846.11 754.184 846.253 748.999L812.965 748.973C812.533 740.853 812.826 732.682 812.829 724.553L812.718 684.609L812.49 545.013Q829.456 544.896 846.421 545.061Z"/>
	<path fill="#5A2711" transform="scale(0.407715 0.407715)" d="M548.112 196.269C548.295 197.486 548.147 198.441 549.098 199.276C560.474 200.302 572.334 199.27 583.782 199.365C583.023 266.031 584.148 332.754 584.036 399.43L548.614 398.965L548.521 398.624C548.162 378.354 548.454 358.027 548.434 337.751L548.112 196.269Z"/>
	<path fill="#894420" transform="scale(0.407715 0.407715)" d="M208.08 136.581Q208.472 143.531 208.417 150.491C207.477 163.313 207.951 176.52 207.966 189.383C207.977 198.154 207.368 207.568 208.376 216.256L208.538 223.407C208.533 231.786 208.237 240.273 208.575 248.639C208.381 257.369 210.099 269.146 208.172 277.332C207.05 277.995 206.619 277.849 205.296 277.801L176.492 278.012L176.589 398.71C179.088 398.739 181.716 398.601 184.192 398.912C181.609 399.193 179.166 399.126 176.583 398.992Q160.786 399.16 145.003 398.488L113.025 398.514C113.043 382.945 113.789 367.017 112.865 351.492C112.477 345.75 112.819 339.791 112.837 334.031L112.905 302.119L112.963 200.005L144.735 200.009C144.136 189.72 144.782 179.128 144.948 168.817L176.051 168.923L176.032 136.658C186.703 136.696 197.414 136.924 208.08 136.581Z"/>
	<path fill="#75381E" transform="scale(0.407715 0.407715)" d="M208.08 136.581Q208.472 143.531 208.417 150.491C207.477 163.313 207.951 176.52 207.966 189.383C207.977 198.154 207.368 207.568 208.376 216.256L208.538 223.407C208.533 231.786 208.237 240.273 208.575 248.639C208.381 257.369 210.099 269.146 208.172 277.332C207.05 277.995 206.619 277.849 205.296 277.801C199.64 276.152 183.17 277.258 176.521 277.534C175.965 263.083 176.437 248.55 176.474 234.091Q176.521 201.505 176.051 168.923L176.032 136.658C186.703 136.696 197.414 136.924 208.08 136.581Z"/>
	<path fill="#75381E" transform="scale(0.407715 0.407715)" d="M309.03 101.993C316.392 102.063 323.76 102.064 331.12 102.211L473.552 102.159L473.573 136.949Q473.831 153.465 473.518 169.98C478.012 169.891 483.426 169.311 487.778 170.42Q498.929 170.75 510.07 170.167L548.024 170.017L548.112 196.269L548.434 337.751C548.454 358.027 548.162 378.354 548.521 398.624L548.614 398.965C548.517 409.631 548.42 420.398 548.901 431.058C536.294 431.115 523.657 431.345 511.055 430.96C502.138 429.909 492.756 430.397 483.779 430.413Q458.134 430.412 432.497 431.06C433.555 422.401 433.73 403.538 432.94 394.923C432.573 388.858 432.805 382.642 432.77 376.561L432.651 341.117C433.411 330.632 433.01 319.895 433.016 309.377L433.011 255.267C433.006 215.905 434.225 176.346 432.487 137.026C421.583 136.507 410.754 136.934 399.849 136.963L342.863 137.021C331.613 137.023 320.157 137.479 308.95 136.5C308.777 129.541 309.103 122.573 308.801 115.62L309.03 101.993Z"/>
	<path fill="#894420" transform="scale(0.407715 0.407715)" d="M309.03 101.993C316.392 102.063 323.76 102.064 331.12 102.211C333.671 103.492 421.957 102.595 432.707 102.589C432.084 113.976 432.492 125.611 432.487 137.026C421.583 136.507 410.754 136.934 399.849 136.963L342.863 137.021C331.613 137.023 320.157 137.479 308.95 136.5C308.777 129.541 309.103 122.573 308.801 115.62L309.03 101.993Z"/>
	<path fill="#D1712E" transform="scale(0.407715 0.407715)" d="M510.07 170.167L548.024 170.017L548.112 196.269L548.434 337.751C548.454 358.027 548.162 378.354 548.521 398.624C523.708 398.006 498.771 398.489 473.944 398.507C473.062 389.492 473.764 380.23 473.842 371.177L473.981 326.565L473.63 170.499L487.778 170.42Q498.929 170.75 510.07 170.167Z"/>
	<path fill="#FEFEFE" transform="scale(0.407715 0.407715)" d="M308.995 430.493C321.32 429.922 350.007 428.08 361.014 430.6C361.003 440.933 360.858 451.285 361.072 461.615L360.958 461.875Q361.013 485.358 361.441 508.836Q380.751 508.66 400.059 508.956L400.412 546.941C411.153 546.793 421.912 546.501 432.653 546.618C433.739 577.283 433.094 607.972 433.203 638.647C433.28 660.096 434.64 681.967 433.026 703.366L335.849 702.938C330.247 702.937 310.972 702.018 306.639 703.351C295.728 703.717 284.751 703.451 273.832 703.432L273.801 669.462Q256.877 669.49 239.953 669.316L239.903 508.786C240.272 493.202 240.027 477.565 240.032 461.975Q240.285 446.662 240.114 431.348C238.075 431.545 235.958 431.411 233.909 431.389L239.844 430.989C247.634 429.081 274.954 430.716 284.219 430.911C292.47 431.084 300.748 430.741 308.995 430.493Z"/>
	<path fill="#C2C0C6" transform="scale(0.407715 0.407715)" d="M308.995 430.493C321.32 429.922 350.007 428.08 361.014 430.6C361.003 440.933 360.858 451.285 361.072 461.615L360.958 461.875C351.425 459.991 340.314 461.429 330.594 461.548C311.664 461.778 292.697 461.966 273.766 461.844C273.859 468.626 274.893 506.74 273.632 508.932L239.903 508.786C240.272 493.202 240.027 477.565 240.032 461.975Q240.285 446.662 240.114 431.348C238.075 431.545 235.958 431.411 233.909 431.389L239.844 430.989C247.634 429.081 274.954 430.716 284.219 430.911C292.47 431.084 300.748 430.741 308.995 430.493Z"/>
	<path fill="#894420" transform="scale(0.407715 0.407715)" d="M239.844 430.989L273.529 430.898L273.489 461.672Q256.764 462.159 240.032 461.975Q240.285 446.662 240.114 431.348C238.075 431.545 235.958 431.411 233.909 431.389L239.844 430.989Z"/>
	<path fill="#D1712E" transform="scale(0.407715 0.407715)" d="M273.489 461.672C273.499 477.391 273.096 493.229 273.632 508.932L239.903 508.786C240.272 493.202 240.027 477.565 240.032 461.975Q256.764 462.159 273.489 461.672Z"/>
	<path fill="#FEFEFE" transform="scale(0.407715 0.407715)" d="M208.08 136.581Q232.076 135.909 256.076 136.44C262.183 136.527 268.363 136.232 274.457 136.504C285.865 136.445 297.177 136.175 308.583 136.611L308.95 136.5C320.157 137.479 331.613 137.023 342.863 137.021L399.849 136.963C410.754 136.934 421.583 136.507 432.487 137.026C434.225 176.346 433.006 215.905 433.011 255.267L433.016 309.377C433.01 319.895 433.411 330.632 432.651 341.117L432.77 376.561C432.805 382.642 432.573 388.858 432.94 394.923C433.73 403.538 433.555 422.401 432.497 431.06L432.533 437.377L432.543 461.985L388.241 462.015C379.333 462.06 369.882 462.903 361.072 461.615C360.858 451.285 361.003 440.933 361.014 430.6C350.007 428.08 321.32 429.922 308.995 430.493C300.748 430.741 292.47 431.084 284.219 430.911C274.954 430.716 247.634 429.081 239.844 430.989L233.909 431.389Q221.718 431.609 209.528 431.372C208.02 427.484 209.011 404.648 209.014 398.63C200.766 399.102 192.455 398.794 184.192 398.912C181.716 398.601 179.088 398.739 176.589 398.71L176.492 278.012L205.296 277.801C206.619 277.849 207.05 277.995 208.172 277.332C210.099 269.146 208.381 257.369 208.575 248.639C208.237 240.273 208.533 231.786 208.538 223.407L208.376 216.256C207.368 207.568 207.977 198.154 207.966 189.383C207.951 176.52 207.477 163.313 208.417 150.491Q208.472 143.531 208.08 136.581Z"/>
	<path fill="#324D79" transform="scale(0.407715 0.407715)" d="M209.066 369.05L240.528 369.013L240.492 397.924L209.325 398.024L209.066 369.05Z"/>
	<path fill="#324D79" transform="scale(0.407715 0.407715)" d="M241.008 340.996L272.922 340.988C278.078 340.985 283.539 340.593 288.662 341.082C283.812 341.623 278.804 341.446 273.926 341.499Q273.731 355.24 274.037 368.979C263.056 368.394 251.969 368.843 240.976 368.994L241.008 340.996Z"/>
	<path fill="#324D79" transform="scale(0.407715 0.407715)" d="M274.257 369.014L308.055 368.946L308.277 397.886C297.052 398.414 285.599 397.999 274.353 397.993C274.521 388.339 274.814 378.658 274.257 369.014Z"/>
	<path fill="#9D9995" transform="scale(0.407715 0.407715)" d="M308.587 398.468C324.147 400.554 344.906 399.05 360.991 398.915L361.014 430.6C350.007 428.08 321.32 429.922 308.995 430.493Q309.001 414.478 308.587 398.468Z"/>
	<path fill="#894420" transform="scale(0.407715 0.407715)" d="M432.94 394.923C433.73 403.538 433.555 422.401 432.497 431.06L432.533 437.377L432.543 461.985L388.241 462.015C379.333 462.06 369.882 462.903 361.072 461.615C360.858 451.285 361.003 440.933 361.014 430.6L360.991 398.915Q384.248 399.216 407.507 399.072C415.507 399.031 423.736 399.419 431.684 398.615C432.856 397.617 432.696 396.401 432.94 394.923Z"/>
	<path fill="#9C5621" transform="scale(0.407715 0.407715)" d="M361.014 430.6C369.556 431.682 378.559 431.145 387.165 431.093Q409.831 430.779 432.497 431.06L432.533 437.377L432.543 461.985L388.241 462.015C379.333 462.06 369.882 462.903 361.072 461.615C360.858 451.285 361.003 440.933 361.014 430.6Z"/>
	<path fill="#0E0302" transform="scale(0.407715 0.407715)" d="M208.773 278.492L308.511 278.589Q308.661 309.932 308.108 341.271L288.662 341.082C283.539 340.593 278.078 340.985 272.922 340.988L241.008 340.996L208.714 340.985C208.741 320.168 208.464 299.303 208.773 278.492Z"/>
	<path fill="#F9A937" transform="scale(0.407715 0.407715)" d="M208.08 136.581Q232.076 135.909 256.076 136.44C262.183 136.527 268.363 136.232 274.457 136.504Q274.06 192.547 274.557 248.588L253.909 248.498C238.881 249.287 223.642 248.412 208.575 248.639C208.237 240.273 208.533 231.786 208.538 223.407L208.376 216.256C207.368 207.568 207.977 198.154 207.966 189.383C207.951 176.52 207.477 163.313 208.417 150.491Q208.472 143.531 208.08 136.581Z"/>
	<path fill="#E3822E" transform="scale(0.407715 0.407715)" d="M208.417 150.491C208.85 156.982 208.62 163.58 208.592 170.088L253.93 169.99C253.927 178.425 254.269 187.016 253.816 195.431C246.603 193.698 236.886 194.707 229.481 195.404L208.344 195.509Q208.45 205.882 208.376 216.256C207.368 207.568 207.977 198.154 207.966 189.383C207.951 176.52 207.477 163.313 208.417 150.491Z"/>
	<path fill="#0E0302" transform="scale(0.407715 0.407715)" d="M229.481 195.404C236.886 194.707 246.603 193.698 253.816 195.431C253.946 213.098 254.309 230.836 253.909 248.498C238.881 249.287 223.642 248.412 208.575 248.639C208.237 240.273 208.533 231.786 208.538 223.407L208.376 216.256Q208.45 205.882 208.344 195.509L229.481 195.404Z"/>
	<path fill="#FEFEFE" transform="scale(0.407715 0.407715)" d="M208.344 195.509L229.481 195.404Q229.527 209.421 229.227 223.435Q218.882 223.564 208.538 223.407L208.376 216.256Q208.45 205.882 208.344 195.509Z"/>
	<path fill="#F9A937" transform="scale(0.407715 0.407715)" d="M308.95 136.5C320.157 137.479 331.613 137.023 342.863 137.021L399.849 136.963C410.754 136.934 421.583 136.507 432.487 137.026C434.225 176.346 433.006 215.905 433.011 255.267L433.016 309.377C433.01 319.895 433.411 330.632 432.651 341.117L401.952 340.997L402.035 309.506C385.531 309.32 368.749 308.919 352.275 309.956C352.072 299.481 352.317 288.982 352.417 278.506L308.892 278.498C309.902 271.742 309.539 264.654 309.535 257.835L309.511 227.959C309.484 200.019 310.244 171.866 309.409 143.955C309.336 141.505 309.349 138.958 308.583 136.611L308.95 136.5Z"/>
	<path fill="#E3822E" transform="scale(0.407715 0.407715)" d="M352.974 170.091C369.316 170.037 385.666 169.876 402.008 170.03C401.976 178.692 402.136 187.4 401.867 196.055C394.123 195.209 385.854 195.869 378.051 196.019C369.712 195.563 361.265 195.889 352.912 195.96Q353.073 183.026 352.974 170.091Z"/>
	<path fill="#0E0302" transform="scale(0.407715 0.407715)" d="M378.051 196.019C385.854 195.869 394.123 195.209 401.867 196.055L401.879 248.685C385.596 249.057 369.306 248.489 353.019 248.501C353.19 239.982 353.875 230.942 352.784 222.493C351.735 216.067 351.679 202.379 352.912 195.96C361.265 195.889 369.712 195.563 378.051 196.019Z"/>
	<path fill="#FEFEFE" transform="scale(0.407715 0.407715)" d="M352.912 195.96C361.265 195.889 369.712 195.563 378.051 196.019L378.023 222.506L352.784 222.493C351.735 216.067 351.679 202.379 352.912 195.96Z"/>
	<path fill="#D1712E" transform="scale(0.407715 0.407715)" d="M432.497 431.06Q458.134 430.412 483.779 430.413C492.756 430.397 502.138 429.909 511.055 430.96C510.946 441.15 510.658 451.409 511.124 461.59Q529.801 461.297 548.479 461.42C548.486 472.787 548.374 484.168 548.514 495.533L667.964 495.579Q711.928 495.325 755.889 495.955C774.567 496.128 793.285 496.025 811.957 496.426Q812.006 520.722 812.49 545.013L812.718 684.609L812.829 724.553C812.826 732.682 812.533 740.853 812.965 748.973L846.253 748.999C846.11 754.184 844.813 769.5 846.317 773.389C846.447 776.468 846.273 780.002 846.916 782.995C835.605 782.806 824.269 783.033 812.956 783.102Q807.224 783.025 801.492 783.117C794.994 783.103 787.807 782.498 781.397 783.389C780.673 784.989 780.709 786.52 780.65 788.252C780.15 775.275 780.906 761.949 780.965 748.938C764.559 748.868 748.123 748.598 731.721 748.845C731.489 759.985 730.725 772.179 731.931 783.236Q714.701 783.278 697.472 783.145L693.232 783.109Q677.599 782.953 661.97 783.35C661.715 775.572 661.879 767.767 661.926 759.986L661.955 748.992L559.12 749.045L528.734 749.031C522.677 749.033 516.316 748.67 510.314 749.464L510.158 749.758Q510.484 766.634 510.103 783.509L474.022 783.498L473.981 749.732C463.568 748.354 452.53 750.402 441.982 749.794C440.103 749.686 434.159 748.762 432.815 749.751C432.684 749.847 432.616 750.009 432.516 750.137L432.483 749.026C433.399 743.038 433.057 736.758 433.056 730.707L433.026 703.366C434.64 681.967 433.28 660.096 433.203 638.647C433.094 607.972 433.739 577.283 432.653 546.618C421.912 546.501 411.153 546.793 400.412 546.941L400.059 508.956Q380.751 508.66 361.441 508.836Q361.013 485.358 360.958 461.875L361.072 461.615C369.882 462.903 379.333 462.06 388.241 462.015L432.543 461.985L432.533 437.377L432.497 431.06Z"/>
	<path fill="#F9A937" transform="scale(0.407715 0.407715)" d="M780.965 748.938C791.644 748.673 802.306 747.955 812.952 749.125L812.956 783.102Q807.224 783.025 801.492 783.117C794.994 783.103 787.807 782.498 781.397 783.389C780.673 784.989 780.709 786.52 780.65 788.252C780.15 775.275 780.906 761.949 780.965 748.938Z"/>
	<path fill="#894420" transform="scale(0.407715 0.407715)" d="M474.025 672.392Q491.978 672.706 509.92 672.018Q509.85 685.35 510.106 698.679Q509.924 724.073 510.314 749.464L510.158 749.758Q510.484 766.634 510.103 783.509L474.022 783.498L473.981 749.732L474.097 749.402C473.735 740.109 473.987 730.752 473.994 721.449L474.025 672.392Z"/>
	<path fill="#9C5621" transform="scale(0.407715 0.407715)" d="M474.097 749.402C482.761 750.028 504.143 748.171 510.158 749.758Q510.484 766.634 510.103 783.509L474.022 783.498L473.981 749.732L474.097 749.402Z"/>
	<path fill="#FEFEFE" transform="scale(0.407715 0.407715)" d="M510.403 670.011L755.065 670L755.027 703.474C704.571 704.302 653.954 703.502 603.483 703.501C591.796 703.501 514.876 704.422 510.675 702.836L510.495 698.557Q510.335 684.284 510.403 670.011Z"/>
	<path fill="#C2C0C6" transform="scale(0.407715 0.407715)" d="M510.106 698.679L510.495 698.557L510.675 702.836C514.876 704.422 591.796 703.501 603.483 703.501C653.954 703.502 704.571 704.302 755.027 703.474C763.693 703.496 772.383 703.376 781.045 703.57C781.026 718.677 781.286 733.838 780.965 748.938C764.559 748.868 748.123 748.598 731.721 748.845C731.489 759.985 730.725 772.179 731.931 783.236Q714.701 783.278 697.472 783.145L693.232 783.109Q677.599 782.953 661.97 783.35C661.715 775.572 661.879 767.767 661.926 759.986L661.955 748.992L559.12 749.045L528.734 749.031C522.677 749.033 516.316 748.67 510.314 749.464Q509.924 724.073 510.106 698.679Z"/>
	<path fill="#894420" transform="scale(0.407715 0.407715)" d="M661.955 748.992L706.901 749.103C715.093 749.104 723.559 749.474 731.721 748.845C731.489 759.985 730.725 772.179 731.931 783.236Q714.701 783.278 697.472 783.145L693.232 783.109Q677.599 782.953 661.97 783.35C661.715 775.572 661.879 767.767 661.926 759.986L661.955 748.992Z"/>
	<path fill="#E3822E" transform="scale(0.407715 0.407715)" d="M661.926 759.986L697.488 760.002L697.472 783.145L693.232 783.109Q677.599 782.953 661.97 783.35C661.715 775.572 661.879 767.767 661.926 759.986Z"/>
	<path fill="#5A2711" transform="scale(0.407715 0.407715)" d="M432.497 431.06Q458.134 430.412 483.779 430.413C492.756 430.397 502.138 429.909 511.055 430.96C510.946 441.15 510.658 451.409 511.124 461.59Q529.801 461.297 548.479 461.42C548.486 472.787 548.374 484.168 548.514 495.533L667.964 495.579Q711.928 495.325 755.889 495.955L755.95 544.444Q735.245 544.153 714.538 544.302L714.586 586.718C697.096 586.974 679.602 586.454 662.115 586.948Q662.236 608.007 662.012 629.065C636.173 629.646 610.342 629.337 584.5 629.48L584.476 586.942C572.693 586.845 560.898 586.981 549.113 587.007L549.503 545.09C536.851 545.263 524.146 545.483 511.499 545.051Q511.604 527.034 511.473 509.018Q492.814 508.27 474.146 508.771L474.011 462.002Q453.277 461.832 432.543 461.985L432.533 437.377L432.497 431.06Z"/>
	<path fill="#381603" transform="scale(0.407715 0.407715)" d="M432.497 431.06Q458.134 430.412 483.779 430.413C492.756 430.397 502.138 429.909 511.055 430.96C510.946 441.15 510.658 451.409 511.124 461.59C506.455 463.023 481.364 461.97 474.042 461.969Q473.927 449.735 473.965 437.501C460.177 437.512 446.312 437.816 432.533 437.377L432.497 431.06Z"/>
	<path fill="#2D6487" transform="scale(0.407715 0.407715)" d="M306.639 703.351C310.972 702.018 330.247 702.937 335.849 702.938L433.026 703.366L433.056 730.707C433.057 736.758 433.399 743.038 432.483 749.026L432.516 750.137C432.616 750.009 432.684 749.847 432.815 749.751C434.159 748.762 440.103 749.686 441.982 749.794C452.53 750.402 463.568 748.354 473.981 749.732L474.022 783.498L510.103 783.509Q510.484 766.634 510.158 749.758L510.314 749.464C516.316 748.67 522.677 749.033 528.734 749.031L559.12 749.045L661.955 748.992L661.926 759.986C661.879 767.767 661.715 775.572 661.97 783.35Q677.599 782.953 693.232 783.109L697.472 783.145Q714.701 783.278 731.931 783.236C730.725 772.179 731.489 759.985 731.721 748.845C748.123 748.598 764.559 748.868 780.965 748.938C780.906 761.949 780.15 775.275 780.65 788.252C780.709 786.52 780.673 784.989 781.397 783.389C787.807 782.498 794.994 783.103 801.492 783.117Q807.224 783.025 812.956 783.102C824.269 783.033 835.605 782.806 846.916 782.995C847.482 809.346 846.796 835.722 847.034 862.075L847.008 875.232C857.86 875.593 946.533 874.949 947.893 875.955L947.825 951.437L81.0541 951.486L81.0065 874.91C107.634 875.657 134.469 874.868 161.12 874.906C174.355 874.925 196.103 876.803 208.37 874.289L208.376 862.485L208.897 861.939L208.948 854.007L240.044 854.021C239.416 830.251 239.944 806.325 239.939 782.538C250.948 782.537 262.051 782.24 273.049 782.568L273.421 782.527C284.997 783.377 296.549 782.203 308.121 782.741L308.024 748.944L307.978 724.105C308.008 718.167 308.961 709.468 307.674 703.874L306.639 703.351ZM306.639 703.351L307.674 703.874C308.961 709.468 308.008 718.167 307.978 724.105L308.024 748.944L308.121 782.741C308.011 809.087 307.366 835.638 308.121 861.96L308.655 862.42C339.551 862.493 370.635 861.467 401.502 862.342L401.486 850.488L432.903 850.616L432.879 788.868C431.646 776.149 432.35 762.912 432.516 750.137L432.483 749.026C433.399 743.038 433.057 736.758 433.056 730.707L433.026 703.366L335.849 702.938C330.247 702.937 310.972 702.018 306.639 703.351ZM510.314 749.464L510.158 749.758Q510.484 766.634 510.103 783.509C510.037 809.858 509.098 836.698 510.132 862.993C522.043 861.533 539.924 862.562 552.328 862.575L634.967 862.614L634.889 855.063C643.977 854.948 653.073 855.022 662.161 855.025C661.821 831.141 662.198 807.238 661.97 783.35C661.715 775.572 661.879 767.767 661.926 759.986L661.955 748.992L559.12 749.045L528.734 749.031C522.677 749.033 516.316 748.67 510.314 749.464ZM731.721 748.845C731.489 759.985 730.725 772.179 731.931 783.236C732.532 824.495 730.993 865.843 732.027 907.085C739.07 906.052 747.981 906.177 755.069 906.902C774.142 907.587 793.415 907.293 812.506 907.213L847.023 907.225L847.008 875.232L847.034 862.075C846.796 835.722 847.482 809.346 846.916 782.995C835.605 782.806 824.269 783.033 812.956 783.102Q807.224 783.025 801.492 783.117C794.994 783.103 787.807 782.498 781.397 783.389C780.673 784.989 780.709 786.52 780.65 788.252C780.15 775.275 780.906 761.949 780.965 748.938C764.559 748.868 748.123 748.598 731.721 748.845Z"/>
	<path fill="#324D79" transform="scale(0.407715 0.407715)" d="M401.502 862.342L401.487 874.91C390.512 877.501 377.201 875.643 365.916 875.532L308.732 875.227L308.655 862.42C339.551 862.493 370.635 861.467 401.502 862.342Z"/>
	<path fill="#324D79" transform="scale(0.407715 0.407715)" d="M510.132 862.993C522.043 861.533 539.924 862.562 552.328 862.575L634.967 862.614C635.043 866.88 635.169 871.152 635.177 875.418C626.292 876.174 617.308 875.854 608.402 875.768L573.877 875.48Q555.189 875.277 536.501 875.41C527.775 875.512 518.994 875.95 510.271 875.747C510.329 871.483 510.346 867.254 510.132 862.993Z"/>
	<path fill="#FEFEFE" transform="scale(0.407715 0.407715)" d="M697.472 783.145Q714.701 783.278 731.931 783.236C732.532 824.495 730.993 865.843 732.027 907.085C723.667 908.048 714.45 907.366 705.986 907.396C691.716 907.446 677.122 907.987 662.89 907.083C653.637 907.335 644.299 907.046 635.037 907.022Q634.888 891.219 635.177 875.418C635.169 871.152 635.043 866.88 634.967 862.614L634.889 855.063C643.977 854.948 653.073 855.022 662.161 855.025C661.821 831.141 662.198 807.238 661.97 783.35Q677.599 782.953 693.232 783.109L697.472 783.145Z"/>
	<path fill="#C2C0C6" transform="scale(0.407715 0.407715)" d="M697.472 783.145Q714.701 783.278 731.931 783.236C732.532 824.495 730.993 865.843 732.027 907.085C723.667 908.048 714.45 907.366 705.986 907.396C691.716 907.446 677.122 907.987 662.89 907.083C674.356 906.141 686.477 906.901 698.014 906.928C697.022 878.332 697.571 849.67 697.592 821.058C697.601 808.813 698.131 796.247 697.332 784.048C696.226 783.342 694.532 783.314 693.232 783.109L697.472 783.145Z"/>
	<path fill="#FEFEFE" transform="scale(0.407715 0.407715)" d="M273.421 782.527C284.997 783.377 296.549 782.203 308.121 782.741C308.011 809.087 307.366 835.638 308.121 861.96C308.105 877.003 308.571 892.083 308.468 907.113C297.021 907.117 285.458 907.459 274.024 907.082C252.351 906.795 230.634 907.066 208.957 907.064L208.897 861.939L208.948 854.007L240.044 854.021C239.416 830.251 239.944 806.325 239.939 782.538C250.948 782.537 262.051 782.24 273.049 782.568L273.421 782.527Z"/>
	<path fill="#C2C0C6" transform="scale(0.407715 0.407715)" d="M273.421 782.527C284.997 783.377 296.549 782.203 308.121 782.741C308.011 809.087 307.366 835.638 308.121 861.96C308.105 877.003 308.571 892.083 308.468 907.113C297.021 907.117 285.458 907.459 274.024 907.082C274.21 881.485 273.381 855.796 273.346 830.179C273.325 815.058 274.749 797.346 273.049 782.568L273.421 782.527Z"/>
	<path fill="#FEFEFE" transform="scale(0.407715 0.407715)" d="M432.516 750.137C432.616 750.009 432.684 749.847 432.815 749.751C434.159 748.762 440.103 749.686 441.982 749.794C452.53 750.402 463.568 748.354 473.981 749.732L474.022 783.498L510.103 783.509C510.037 809.858 509.098 836.698 510.132 862.993C510.346 867.254 510.329 871.483 510.271 875.747C510.251 886.252 510.371 896.785 510.187 907.287C498.374 907.296 486.277 907.823 474.499 907.165C466.179 906.831 457.724 907.119 449.39 907.117L401.486 907.086L401.487 874.91L401.502 862.342L401.486 850.488L432.903 850.616L432.879 788.868C431.646 776.149 432.35 762.912 432.516 750.137Z"/>
	<path fill="#E3822E" transform="scale(0.407715 0.407715)" d="M432.516 750.137C432.616 750.009 432.684 749.847 432.815 749.751C434.159 748.762 440.103 749.686 441.982 749.794C452.53 750.402 463.568 748.354 473.981 749.732L474.022 783.498C464.905 783.049 441.431 781.743 433.377 783.436C432.757 785.252 432.856 786.967 432.879 788.868C431.646 776.149 432.35 762.912 432.516 750.137Z"/>
	<path fill="#C2C0C6" transform="scale(0.407715 0.407715)" d="M474.022 783.498L510.103 783.509C510.037 809.858 509.098 836.698 510.132 862.993C510.346 867.254 510.329 871.483 510.271 875.747C510.251 886.252 510.371 896.785 510.187 907.287C498.374 907.296 486.277 907.823 474.499 907.165L474.447 831.892C474.435 815.768 474.708 799.61 474.022 783.498Z"/>
	<path fill="#FEFEFE" transform="scale(0.407715 0.407715)" d="M731.721 748.845C748.123 748.598 764.559 748.868 780.965 748.938C780.906 761.949 780.15 775.275 780.65 788.252C780.709 786.52 780.673 784.989 781.397 783.389C787.807 782.498 794.994 783.103 801.492 783.117Q807.224 783.025 812.956 783.102C824.269 783.033 835.605 782.806 846.916 782.995C847.482 809.346 846.796 835.722 847.034 862.075L847.008 875.232L847.023 907.225L812.506 907.213C793.415 907.293 774.142 907.587 755.069 906.902C747.981 906.177 739.07 906.052 732.027 907.085C730.993 865.843 732.532 824.495 731.931 783.236C730.725 772.179 731.489 759.985 731.721 748.845ZM731.721 748.845C731.489 759.985 730.725 772.179 731.931 783.236C732.532 824.495 730.993 865.843 732.027 907.085C739.07 906.052 747.981 906.177 755.069 906.902L755.033 855.048L781.037 855.023C780.27 832.866 780.527 810.424 780.65 788.252C780.15 775.275 780.906 761.949 780.965 748.938C764.559 748.868 748.123 748.598 731.721 748.845Z"/>
	<path fill="#C2C0C6" transform="scale(0.407715 0.407715)" d="M812.956 783.102C824.269 783.033 835.605 782.806 846.916 782.995C847.482 809.346 846.796 835.722 847.034 862.075L847.008 875.232L847.023 907.225L812.506 907.213L812.946 783.474Q807.215 783.437 801.492 783.117Q807.224 783.025 812.956 783.102Z"/>
	<path fill="#C2C0C6" transform="scale(0.407715 0.407715)" d="M306.639 703.351C310.972 702.018 330.247 702.937 335.849 702.938L433.026 703.366L433.056 730.707C433.057 736.758 433.399 743.038 432.483 749.026C422.705 748.532 412.833 748.956 403.041 748.979L352.837 749.139C352.501 740.825 352.636 732.449 352.579 724.126C337.737 724.42 322.826 724.227 307.978 724.105C308.008 718.167 308.961 709.468 307.674 703.874L306.639 703.351Z"/>
</svg>
