<?xml version="1.0" encoding="utf-8" ?>
<svg xmlns="http://www.w3.org/2000/svg" xmlns:xlink="http://www.w3.org/1999/xlink" width="417" height="417">
	<path fill="#E26F1B" transform="scale(0.407715 0.407715)" d="M265.263 748.365L275.114 748.421L275.065 769.121C268.129 769.08 261.01 768.733 254.101 769.31C253.449 762.458 253.988 755.352 253.474 748.422L265.263 748.365Z"/>
	<path fill="#511705" transform="scale(0.407715 0.407715)" d="M748.467 912.414L748.481 934.619L728.083 934.614C728.866 927.267 728.205 919.891 728.284 912.529Q738.375 912.311 748.467 912.414Z"/>
	<path fill="#67260C" transform="scale(0.407715 0.407715)" d="M788.064 491.612L788.652 491.78C786.855 495.215 788.072 509.526 788.151 513.88C781.511 513.25 774.83 513.899 768.199 513.443L767.778 512.106C767.126 505.237 767.581 498.424 768.056 491.564Q778.06 491.742 788.064 491.612Z"/>
	<path fill="#511705" transform="scale(0.407715 0.407715)" d="M597.191 913.015L618.71 913.034C619.782 919.836 618.887 927.663 619.028 934.629L597.377 934.589C597.404 927.394 597.461 920.206 597.191 913.015Z"/>
	<path fill="#D7D6D5" transform="scale(0.407715 0.407715)" d="M105.474 855.016C110.338 857.667 123.448 855.836 129.445 856.031L129.442 878.055C121.598 877.966 113.744 878.06 105.899 878.071C105.308 870.428 105.499 862.681 105.474 855.016Z"/>
	<path fill="#FEFDFD" transform="scale(0.407715 0.407715)" d="M105.444 832.976C111.553 832.851 117.58 832.457 123.701 832.618C125.39 833.014 127.755 833.173 129.004 834.356C130.867 840.799 130.019 849.402 129.445 856.031C123.448 855.836 110.338 857.667 105.474 855.016L105.444 832.976Z"/>
	<path fill="#AC541E" transform="scale(0.407715 0.407715)" d="M727.648 872.025L748.5 872.023L748.467 912.414Q738.375 912.311 728.284 912.529L727.899 912.419C729.197 899.237 727.806 885.323 727.648 872.025Z"/>
	<path fill="#AC541E" transform="scale(0.407715 0.407715)" d="M273.986 871.943C281.753 871.674 289.445 871.487 297.206 872.013C296.653 877.117 296.951 882.402 296.962 887.535L296.992 912.526C289.575 913.58 281.542 913.036 274.047 913.02Q274.382 902.543 274.086 892.064L273.986 871.943Z"/>
	<path fill="#14263E" transform="scale(0.407715 0.407715)" d="M768.829 599.51L790.986 599.513L790.949 631.696C790.934 638.519 790.154 646.429 791.636 653.078C784.246 652.976 776.845 653.054 769.453 653.05C768.317 647.755 768.808 641.282 768.848 635.849C768.937 623.803 769.56 611.53 768.829 599.51Z"/>
	<path fill="#14263E" transform="scale(0.407715 0.407715)" d="M230.091 600.044L252.857 600.004C252.273 606.639 252.599 613.444 252.679 620.1Q252.953 636.126 252.973 652.154C247.897 651.949 242.366 651.483 237.367 652.434L230.017 652.517Q230.22 626.281 230.091 600.044Z"/>
	<path fill="#AC541E" transform="scale(0.407715 0.407715)" d="M316.008 189.679L315.982 210.404L293.264 210.505C292.475 224.643 293.048 238.829 292.96 252.981L269.676 253.072Q269.861 231.791 269.571 210.511C277.542 210.533 285.518 210.401 293.489 210.336Q293.612 200.171 293.354 190.008C300.862 190.083 308.532 190.403 316.008 189.679Z"/>
	<path fill="#AC541E" transform="scale(0.407715 0.407715)" d="M209.014 652.511L229.551 652.559L229.455 678.028C229.101 685.404 228.171 693.765 229.784 701.023C229.423 709.229 229.412 717.31 230.012 725.506Q219.275 725.114 208.532 725.04L209.014 652.511Z"/>
	<path fill="#AC541E" transform="scale(0.407715 0.407715)" d="M791.981 653.467L812.913 653.52L812.997 726.028C805.968 726.015 798.922 726.104 791.896 725.951C792.254 718.023 792.003 709.973 792.034 702.03L792.029 679.025Q792.267 666.245 791.981 653.467Z"/>
	<path fill="#ACBBBD" transform="scale(0.407715 0.407715)" d="M253.035 748.085C257.076 748.039 261.26 747.777 265.263 748.365L253.474 748.422C253.988 755.352 253.449 762.458 254.101 769.31L254.031 791.014C246.221 790.471 238.337 790.535 230.514 790.765L230.619 812.404C223.034 812.354 214.526 813.14 207.064 812.059L199.599 811.993C199.542 805.001 199.825 797.994 200.007 791.004C210.058 791.104 220.064 791.273 230.113 790.852C229.966 785.915 230.349 780.939 230.428 775.999Q230.627 761.931 230.326 747.864C237.876 748.033 245.511 747.598 253.035 748.085Z"/>
	<path fill="#6F3209" transform="scale(0.407715 0.407715)" d="M748.009 469.986C754.502 469.912 761.06 469.737 767.543 470.094L767.938 470.114C767.961 477.255 767.847 484.427 768.056 491.564C767.581 498.424 767.126 505.237 767.778 512.106L768.199 513.443C767.42 520.436 767.763 527.471 767.979 534.487L748.973 534.37C747.171 530.964 748.269 517.338 748.398 513.01L728.028 513.01C727.937 505.64 728.02 498.261 728.032 490.89C734.7 490.996 741.38 490.931 748.049 490.944L748.009 469.986Z"/>
	<path fill="#A0461E" transform="scale(0.407715 0.407715)" d="M767.543 470.094L767.938 470.114C767.961 477.255 767.847 484.427 768.056 491.564C767.581 498.424 767.126 505.237 767.778 512.106L767.171 512.923C761.003 513.365 754.604 513.017 748.409 512.978Q748.13 502.024 748.118 491.067L767.678 491.086Q767.511 480.591 767.543 470.094Z"/>
	<path fill="#6F3209" transform="scale(0.407715 0.407715)" d="M873.019 342.119L894.796 342.031Q894.523 352.629 894.689 363.229L914.955 363.485L914.983 384.021C907.98 383.532 901.092 383.482 894.092 384.017L873.019 383.999L852.05 384.051L852.062 363.454C859.034 363.428 866.061 363.569 873.023 363.211L873.019 342.119Z"/>
	<path fill="#AC541E" transform="scale(0.407715 0.407715)" d="M873.045 363.345C880.166 363.055 887.41 362.729 894.529 363.144C894.657 369.954 895.234 377.276 894.092 384.017L873.019 383.999Q872.882 373.672 873.045 363.345Z"/>
	<path fill="#A0461E" transform="scale(0.407715 0.407715)" d="M597.021 848.758C605.567 847.824 614.675 848.243 623.293 848.138C628.743 848.062 635.032 847.822 640.4 848.786Q639.839 860.163 640.058 871.551Q640.063 882.085 640.516 892.61C633.479 892.462 625.941 891.858 618.952 892.766C618.705 899.54 618.295 906.195 619.092 912.945L618.71 913.034L597.191 913.015L597.419 910.109C596.427 903.238 597.099 895.384 597.109 888.413L597.021 848.758Z"/>
	<path fill="#AC541E" transform="scale(0.407715 0.407715)" d="M597.727 893.233C604.765 892.736 611.887 893.127 618.952 892.766C618.705 899.54 618.295 906.195 619.092 912.945L618.71 913.034L597.191 913.015L597.419 910.109C598.102 904.621 597.719 898.771 597.727 893.233Z"/>
	<path fill="#AC541E" transform="scale(0.407715 0.407715)" d="M623.293 848.138C628.743 848.062 635.032 847.822 640.4 848.786Q639.839 860.163 640.058 871.551Q640.063 882.085 640.516 892.61C633.479 892.462 625.941 891.858 618.952 892.766C619.071 878.434 618.023 863.592 619.154 849.348C620.305 848.434 621.865 848.397 623.293 848.138Z"/>
	<path fill="#67260C" transform="scale(0.407715 0.407715)" d="M727.899 912.419L728.284 912.529C728.205 919.891 728.866 927.267 728.083 934.614L619.028 934.629C618.887 927.663 619.782 919.836 618.71 913.034L619.092 912.945Q630.145 913.083 641.198 913.013C646.857 912.993 678.332 914.514 681.424 913.213L684.486 912.974C690.215 912.993 718.733 913.924 721.886 912.658L727.899 912.419Z"/>
	<path fill="#FEFDFD" transform="scale(0.407715 0.407715)" d="M237.367 652.434L253.028 652.525L253.031 677.541C260.308 677.413 268.26 676.72 275.474 677.784L275.374 702.016C268.215 702.094 260.633 702.637 253.532 701.609C253.532 707.747 253.851 714.102 253.383 720.211C252.998 722.103 252.838 723.769 252.906 725.699C253.046 733.16 252.863 740.628 253.035 748.085C245.511 747.598 237.876 748.033 230.326 747.864L230.207 747.495Q230.194 736.5 230.012 725.506C229.412 717.31 229.423 709.229 229.784 701.023C228.171 693.765 229.101 685.404 229.455 678.028L229.551 652.559L230.017 652.517L237.367 652.434Z"/>
	<path fill="#E26F1B" transform="scale(0.407715 0.407715)" d="M230.012 725.506C237.654 725.681 245.262 725.796 252.906 725.699C253.046 733.16 252.863 740.628 253.035 748.085C245.511 747.598 237.876 748.033 230.326 747.864L230.207 747.495Q230.194 736.5 230.012 725.506Z"/>
	<path fill="#E26F1B" transform="scale(0.407715 0.407715)" d="M229.455 678.028C237.284 677.981 245.13 678.045 252.956 677.857C252.796 685.681 252.745 693.422 253.051 701.242C245.331 701.155 237.492 700.767 229.784 701.023C228.171 693.765 229.101 685.404 229.455 678.028Z"/>
	<path fill="#AC541E" transform="scale(0.407715 0.407715)" d="M275.474 677.784C282.858 678.129 290.266 677.98 297.656 677.928C304.783 677.919 311.936 677.789 319.059 678.003Q318.972 690.01 319.028 702.017Q319.222 714.123 319.059 726.23C319.07 730.14 319.858 746.476 318.501 749.103C311.63 748.418 304.507 748.795 297.597 748.845L297.486 748.576C290.049 748.259 282.559 748.421 275.114 748.421L265.263 748.365C261.26 747.777 257.076 748.039 253.035 748.085C252.863 740.628 253.046 733.16 252.906 725.699C252.838 723.769 252.998 722.103 253.383 720.211C253.851 714.102 253.532 707.747 253.532 701.609C260.633 702.637 268.215 702.094 275.374 702.016L275.474 677.784Z"/>
	<path fill="#D7D6D5" transform="scale(0.407715 0.407715)" d="M252.906 725.699C252.838 723.769 252.998 722.103 253.383 720.211C253.374 722.086 253.074 723.168 254.129 724.753C260.699 728.466 268.44 723.679 275.039 725.87L275.114 748.421L265.263 748.365C261.26 747.777 257.076 748.039 253.035 748.085C252.863 740.628 253.046 733.16 252.906 725.699Z"/>
	<path fill="#6F3209" transform="scale(0.407715 0.407715)" d="M275.039 725.87C282.511 725.923 289.989 726.038 297.46 726.006C297.48 733.52 297.649 741.066 297.486 748.576C290.049 748.259 282.559 748.421 275.114 748.421L275.039 725.87Z"/>
	<path fill="#6F3209" transform="scale(0.407715 0.407715)" d="M297.656 677.928C304.783 677.919 311.936 677.789 319.059 678.003Q318.972 690.01 319.028 702.017L297.414 702.006C297.661 693.991 297.594 685.948 297.656 677.928Z"/>
	<path fill="#D7D6D5" transform="scale(0.407715 0.407715)" d="M297.414 702.006L319.028 702.017Q319.222 714.123 319.059 726.23C312.121 725.412 304.526 725.988 297.514 726.009Q296.595 714.011 297.414 702.006Z"/>
	<path fill="#D7D6D5" transform="scale(0.407715 0.407715)" d="M199.571 747.493Q214.889 747.415 230.207 747.495L230.326 747.864Q230.627 761.931 230.428 775.999C230.349 780.939 229.966 785.915 230.113 790.852C220.064 791.273 210.058 791.104 200.007 791.004C199.825 797.994 199.542 805.001 199.599 811.993L207.064 812.059L207.058 834.097L176.041 834.058L176.04 856.032L129.445 856.031C130.019 849.402 130.867 840.799 129.004 834.356C127.755 833.173 125.39 833.014 123.701 832.618C125.446 832.66 127.245 832.608 128.975 832.835Q128.915 822.139 128.966 811.442L152.454 811.409L152.368 790.031L175.469 789.966L175.428 767.147C179.869 766.991 184.3 767.033 188.742 767.08C192.344 766.948 195.972 767.012 199.577 766.991L199.571 747.493Z"/>
	<path fill="#FEFDFD" transform="scale(0.407715 0.407715)" d="M175.428 767.147C179.869 766.991 184.3 767.033 188.742 767.08C192.468 767.407 196.185 767.498 199.923 767.584Q200.008 779.261 199.975 790.939C191.831 791.44 184.051 790.748 175.938 790.423Q176.63 801.397 176.4 812.391C168.64 812.482 160.775 812.773 153.044 811.959C153.655 818.986 153.523 825.976 153.197 833.013C145.732 833.051 136.2 833.998 128.975 832.835Q128.915 822.139 128.966 811.442L152.454 811.409L152.368 790.031L175.469 789.966L175.428 767.147Z"/>
	<path fill="#FEFDFD" transform="scale(0.407715 0.407715)" d="M641.986 848.92C653.583 847.485 666.334 848.521 678.052 848.528C694.445 848.538 711.204 847.751 727.534 849.027C727.56 856.668 727.334 864.397 727.648 872.025C727.806 885.323 729.197 899.237 727.899 912.419L721.886 912.658C718.733 913.924 690.215 912.993 684.486 912.974L681.424 913.213C678.332 914.514 646.857 912.993 641.198 913.013Q630.145 913.083 619.092 912.945C618.295 906.195 618.705 899.54 618.952 892.766C625.941 891.858 633.479 892.462 640.516 892.61Q640.063 882.085 640.058 871.551Q639.839 860.163 640.4 848.786L641.986 848.92Z"/>
	<path fill="#AC541E" transform="scale(0.407715 0.407715)" d="M684.554 893.507L704.289 893.558C704.869 899.87 704.646 906.227 704.545 912.557L721.886 912.658C718.733 913.924 690.215 912.993 684.486 912.974L684.554 893.507Z"/>
	<path fill="#AC541E" transform="scale(0.407715 0.407715)" d="M641.281 893.494Q651.305 893.636 661.328 893.469C662.167 900.089 661.929 906.457 661.537 913.088C668.112 913.065 674.873 912.734 681.424 913.213C678.332 914.514 646.857 912.993 641.198 913.013C641.411 906.496 641.392 900.013 641.281 893.494Z"/>
	<path fill="#EF8D31" transform="scale(0.407715 0.407715)" d="M641.986 848.92C653.583 847.485 666.334 848.521 678.052 848.528C694.445 848.538 711.204 847.751 727.534 849.027C727.56 856.668 727.334 864.397 727.648 872.025L706.102 871.932L640.058 871.551Q639.839 860.163 640.4 848.786L641.986 848.92Z"/>
	<path fill="#AC541E" transform="scale(0.407715 0.407715)" d="M641.986 848.92C653.583 847.485 666.334 848.521 678.052 848.528C694.445 848.538 711.204 847.751 727.534 849.027C727.56 856.668 727.334 864.397 727.648 872.025L706.102 871.932C705.547 864.324 705.909 856.431 705.852 848.788C696.289 849.235 686.607 849.022 677.031 849.032C665.363 849.044 653.649 849.209 641.986 848.92Z"/>
	<path fill="#6F3209" transform="scale(0.407715 0.407715)" d="M873.019 383.999L894.092 384.017Q894.005 394.905 894.04 405.793C887.27 405.62 880.245 405.278 873.5 405.925L873.481 427.006C866.166 426.938 858.826 426.751 851.514 426.969L851.483 448.05L831.002 448.025L831.03 470.024L808.537 470.004L808.493 491.849L788.652 491.78L788.064 491.612Q778.06 491.742 768.056 491.564C767.847 484.427 767.961 477.255 767.938 470.114L767.543 470.094L767.242 447.957L788.117 447.873C788.206 440.935 788.36 433.994 788.131 427.058L809.046 427.016C809.148 419.875 809.051 412.718 809.049 405.575L830.558 405.605C830.512 398.465 830.651 391.255 830.126 384.134C837.424 383.899 844.748 384.03 852.05 384.051L873.019 383.999Z"/>
	<path fill="#AC541E" transform="scale(0.407715 0.407715)" d="M830.835 406.002L851.999 405.92C852.03 412.802 852.18 419.695 851.416 426.544L830.989 426.517L830.835 406.002Z"/>
	<path fill="#AC541E" transform="scale(0.407715 0.407715)" d="M767.938 470.114Q777.988 469.88 788.041 469.983C788.036 477.181 787.87 484.419 788.064 491.612Q778.06 491.742 768.056 491.564C767.847 484.427 767.961 477.255 767.938 470.114Z"/>
	<path fill="#AC541E" transform="scale(0.407715 0.407715)" d="M788.081 448.019L809.018 447.941Q809.075 458.77 808.889 469.597C801.923 469.113 795.108 469.238 788.139 469.48C787.944 462.333 788.059 455.168 788.081 448.019Z"/>
	<path fill="#AC541E" transform="scale(0.407715 0.407715)" d="M852.05 384.051L873.019 383.999L873.182 405.582C866.135 405.516 859.027 405.295 851.999 405.92L852.05 384.051Z"/>
	<path fill="#AC541E" transform="scale(0.407715 0.407715)" d="M809.046 427.016L830.975 426.907C830.951 433.92 831.062 440.966 830.792 447.973L809.018 447.941Q808.948 437.478 809.046 427.016Z"/>
	<path fill="#FEFDFD" transform="scale(0.407715 0.407715)" d="M769.453 653.05C776.845 653.054 784.246 652.976 791.636 653.078L791.981 653.467Q792.267 666.245 792.029 679.025L792.034 702.03C792.003 709.973 792.254 718.023 791.896 725.951L791.576 726.032L791.546 749.456C784.539 749.428 776.898 748.857 769.965 749.712L769.978 773.513L748.912 773.516C748.909 765.701 748.731 757.843 748.939 750.033C741.791 750.004 734.623 749.87 727.479 750.102C726.941 742.064 727.318 734.055 727.6 726.016L705.899 726.032L705.984 702.042L705.978 677.995C712.814 677.966 719.711 677.736 726.541 677.937C733.886 677.963 741.298 677.793 748.632 678.163L748.968 678.488C755.818 677.774 762.625 678.14 769.488 678.421L769.453 653.05Z"/>
	<path fill="#AC541E" transform="scale(0.407715 0.407715)" d="M769.865 726.001Q780.72 726.088 791.576 726.032L791.546 749.456C784.539 749.428 776.898 748.857 769.965 749.712C770.142 741.826 769.91 733.891 769.865 726.001Z"/>
	<path fill="#E26F1B" transform="scale(0.407715 0.407715)" d="M769.974 678.685Q781 678.943 792.029 679.025L792.034 702.03C784.628 701.656 777.368 701.518 769.97 702.128C769.738 694.322 769.909 686.494 769.974 678.685Z"/>
	<path fill="#AC541E" transform="scale(0.407715 0.407715)" d="M748.769 702.473C755.709 702.283 762.561 702.128 769.497 702.558C768.705 710.197 770.003 717.884 769.181 725.533C762.331 725.049 755.802 724.854 748.947 725.594L748.974 750.002C755.574 750.049 763.5 750.924 769.965 749.712L769.978 773.513L748.912 773.516C748.909 765.701 748.731 757.843 748.939 750.033C741.791 750.004 734.623 749.87 727.479 750.102C726.941 742.064 727.318 734.055 727.6 726.016Q738.073 725.452 748.56 725.533C748.411 717.891 748.042 710.088 748.769 702.473Z"/>
	<path fill="#E26F1B" transform="scale(0.407715 0.407715)" d="M705.978 677.995C712.814 677.966 719.711 677.736 726.541 677.937C733.886 677.963 741.298 677.793 748.632 678.163L748.968 678.488C749.093 686.408 749.564 694.592 748.769 702.473C748.042 710.088 748.411 717.891 748.56 725.533Q738.073 725.452 727.6 726.016L705.899 726.032L705.984 702.042L705.978 677.995Z"/>
	<path fill="#AC541E" transform="scale(0.407715 0.407715)" d="M705.978 677.995C712.814 677.966 719.711 677.736 726.541 677.937C726.533 685.871 726.194 694.102 727.254 701.984Q716.619 701.912 705.984 702.042L705.978 677.995Z"/>
	<path fill="#FEFDFD" transform="scale(0.407715 0.407715)" d="M705.984 702.042Q716.619 701.912 727.254 701.984Q727.947 707.968 728.034 713.991Q728.12 720.015 727.6 726.016L705.899 726.032L705.984 702.042Z"/>
	<path fill="#4F4C59" transform="scale(0.407715 0.407715)" d="M319.067 492.076C326.052 491.668 332.999 491.349 339.998 491.45C340.11 497.832 340.736 504.665 340.235 511.001C340.103 512.666 339.959 514.294 340.046 515.964C340.172 521.096 340.068 526.351 340.612 531.452C333.584 532.132 326.529 532.078 319.475 532.009C319.149 539.423 318.261 547.659 319.348 555.019C319.733 561.825 319.844 569.01 319.2 575.798C311.899 576.693 305.107 575.942 297.823 575.987C297.523 591.7 297.828 607.286 298.014 622.988L275.478 623.006C275.155 641.336 275.275 659.465 275.474 677.784C268.26 676.72 260.308 677.413 253.031 677.541L253.028 652.525L237.367 652.434C242.366 651.483 247.897 651.949 252.973 652.154Q252.953 636.126 252.679 620.1C252.599 613.444 252.273 606.639 252.857 600.004C253.566 592.14 252.934 583.918 252.628 576.042L274.415 576.004C274.086 558.988 274.306 541.932 274.185 524.911C281.8 524.682 289.47 524.881 297.091 524.895L297.032 492.061Q308.049 492.154 319.067 492.076Z"/>
	<path fill="#14263E" transform="scale(0.407715 0.407715)" d="M319.508 516.007L340.046 515.964C340.172 521.096 340.068 526.351 340.612 531.452C333.584 532.132 326.529 532.078 319.475 532.009L319.508 516.007Z"/>
	<path fill="#EF8D31" transform="scale(0.407715 0.407715)" d="M316.008 189.679C323.122 188.169 330.773 188.875 337.996 189.091Q337.289 249.596 337.956 310.101Q338.07 322.062 337.966 334.023C330.862 334.062 323.533 334.426 316.481 333.441Q316.963 345.201 316.96 356.971Q305.194 356.931 293.428 357.031C293.559 365.146 293.273 373.329 293.674 381.426L270.056 381.448L246.068 381.477L246.02 253.495C253.846 253.534 261.677 253.631 269.499 253.333L269.676 253.072L292.96 252.981C293.048 238.829 292.475 224.643 293.264 210.505L315.982 210.404L316.008 189.679Z"/>
	<path fill="#AC541E" transform="scale(0.407715 0.407715)" d="M246.02 253.495C253.846 253.534 261.677 253.631 269.499 253.333C269.294 287.405 268.133 323.048 269.798 357.012L293.124 357.002L293.014 333.254C300.835 333.347 308.662 333.501 316.484 333.506L316.441 310.084L337.956 310.101Q338.07 322.062 337.966 334.023C330.862 334.062 323.533 334.426 316.481 333.441Q316.963 345.201 316.96 356.971Q305.194 356.931 293.428 357.031C293.559 365.146 293.273 373.329 293.674 381.426L270.056 381.448L246.068 381.477L246.02 253.495Z"/>
	<path fill="#366480" transform="scale(0.407715 0.407715)" d="M192.043 891.584Q233.061 892.378 274.086 892.064Q274.382 902.543 274.047 913.02C281.542 913.036 289.575 913.58 296.992 912.526C304.604 912.747 311.932 912.871 319.539 912.409C326.54 913.213 333.58 913.058 340.615 912.934C347.957 913.341 355.294 913.103 362.641 912.941Q373.115 913.056 383.589 913.006L387.797 913.092C392.154 912.975 396.502 912.854 400.862 912.93C402.613 913.082 404.251 913.267 405.995 912.983C413.26 914.121 419.247 913.267 426.444 913.029L426.499 934.087L426.471 958.042C400.531 957.56 374.511 957.997 348.567 958.072L227.545 958.185L227.52 935.962C194.732 935.442 161.851 935.911 129.054 935.892L129.063 912.203C150.025 911.817 171.057 912.083 192.026 912.042L192.043 891.584Z"/>
	<path fill="#67260C" transform="scale(0.407715 0.407715)" d="M387.797 913.092C392.154 912.975 396.502 912.854 400.862 912.93C402.613 913.082 404.251 913.267 405.995 912.983C413.26 914.121 419.247 913.267 426.444 913.029L426.499 934.087L405.483 934.1L384.164 934.1C384.605 930.044 383.421 915.99 384.471 913.805C385.574 913.511 386.676 913.303 387.797 913.092Z"/>
	<path fill="#511705" transform="scale(0.407715 0.407715)" d="M405.995 912.983C413.26 914.121 419.247 913.267 426.444 913.029L426.499 934.087L405.483 934.1C405.526 927.066 405.837 920.017 405.995 912.983Z"/>
	<path fill="#6F3209" transform="scale(0.407715 0.407715)" d="M296.992 912.526C304.604 912.747 311.932 912.871 319.539 912.409C326.54 913.213 333.58 913.058 340.615 912.934C347.957 913.341 355.294 913.103 362.641 912.941Q373.115 913.056 383.589 913.006L387.797 913.092C386.676 913.303 385.574 913.511 384.471 913.805C383.421 915.99 384.605 930.044 384.164 934.1L274.039 934.013L274.047 913.02C281.542 913.036 289.575 913.58 296.992 912.526Z"/>
	<path fill="#A0461E" transform="scale(0.407715 0.407715)" d="M427.074 99.3777C483.514 98.5924 540.106 98.8555 596.551 99.2233C596.552 106.811 596.237 114.536 596.825 122.099L427.05 122.512L427.005 144.982C419.447 144.888 411.884 144.725 404.33 145.012Q404.313 156.261 404.05 167.507C396.714 167.374 389.222 166.931 381.9 167.331L381.508 209.976L359.886 210.007L359.494 310.008L359.412 402.634C352.219 401.167 345.267 401.709 337.983 402.066C337.967 409.854 337.368 418.24 338.275 425.955C323.537 426.256 308.747 426.008 294.004 426.015L294.033 402.506L270.063 402.54L270.056 381.448L293.674 381.426C293.273 373.329 293.559 365.146 293.428 357.031Q305.194 356.931 316.96 356.971Q316.963 345.201 316.481 333.441C323.533 334.426 330.862 334.062 337.966 334.023Q338.07 322.062 337.956 310.101Q337.289 249.595 337.996 189.091C330.773 188.875 323.122 188.169 316.008 189.679L316.039 167.588C323.353 167.965 330.705 167.837 338.028 167.828L337.656 145.483C352.464 145.643 367.288 145.51 382.098 145.517C382.147 137.874 382.288 130.217 382.069 122.578L427.084 122.501C427.404 114.826 427.202 107.059 427.074 99.3777Z"/>
	<path fill="#A0461E" transform="scale(0.407715 0.407715)" d="M596.825 122.099C611.713 121.799 626.63 122 641.521 122.025L641.598 145.63Q663.304 145.778 685.009 145.548L685.04 168.13C692.185 168.293 699.313 168.139 706.456 168.195C706.456 175.586 706.294 183.018 706.543 190.404L706.968 190.976Q718.727 191.085 730.486 191.051C730.452 197.793 730.003 204.863 730.829 211.562L754.102 211.643C754.949 225.53 753.526 239.619 754.561 253.454C762.441 254.267 770.611 254.131 778.513 253.568L778.477 380.185L752.589 380.057C752.616 387.74 752.437 395.496 752.945 403.163Q740.747 403.069 728.55 403.281C728.578 410.629 728.341 418.136 728.836 425.467C715.047 425.373 701.405 425.28 687.636 426.023C687.723 418.686 687.564 411.347 687.683 404.002L664.996 404.001C664.833 372.677 666.433 341.404 664.477 310.083L664.506 248.415C664.509 235.845 665.017 223.062 663.965 210.537C656.657 209.96 649.352 210.066 642.03 210.144L641.999 167.535L619.99 167.531L620.001 144.88C612.34 144.832 604.67 144.959 597.008 145C596.99 137.405 597.351 129.668 596.825 122.099Z"/>
	<path fill="#EF8D31" transform="scale(0.407715 0.407715)" d="M685.387 190.062C692.349 189.955 699.633 189.551 706.543 190.404L706.968 190.976Q718.727 191.085 730.486 191.051C730.452 197.793 730.003 204.863 730.829 211.562L754.102 211.643C754.949 225.53 753.526 239.619 754.561 253.454L754.467 253.868C754.797 265.167 754.419 276.457 754.402 287.758Q754.485 322.382 754.098 357.004L729.045 357.011Q728.971 345.55 729.347 334.094L706.984 334.083L707.008 310.282L685.628 310.386L685.387 190.062Z"/>
	<path fill="#AC541E" transform="scale(0.407715 0.407715)" d="M706.968 190.976Q718.727 191.085 730.486 191.051C730.452 197.793 730.003 204.863 730.829 211.562C722.88 211.93 714.977 211.714 707.027 211.491L706.968 190.976Z"/>
	<path fill="#AC541E" transform="scale(0.407715 0.407715)" d="M730.829 211.562L754.102 211.643C754.949 225.53 753.526 239.619 754.561 253.454L754.467 253.868C750.283 252.504 736.172 253.437 731.019 253.435C730.9 239.428 731.534 225.583 730.829 211.562Z"/>
	<path fill="#14263E" transform="scale(0.407715 0.407715)" d="M665.006 427.552C671.665 426.968 678.277 427.73 684.924 427.373C684.926 434.249 684.779 441.166 685.023 448.036L705.96 447.935L705.886 468.815L706.26 469.026C713.318 469.023 720.423 468.842 727.475 469.059L727.524 490.27L728.032 490.89C728.02 498.261 727.937 505.64 728.028 513.01L748.398 513.01C748.269 517.338 747.171 530.964 748.973 534.37C747.568 537.672 748.567 569.295 748.584 575.058C755.243 575.105 761.915 575.067 768.572 575.224C768.573 583.308 768.409 591.437 768.829 599.51C769.56 611.53 768.937 623.803 768.848 635.849C768.808 641.282 768.317 647.755 769.453 653.05L769.488 678.421C762.625 678.14 755.818 677.774 748.968 678.488L748.632 678.163C741.298 677.793 733.886 677.963 726.541 677.937C719.711 677.736 712.814 677.966 705.978 677.995L705.984 702.042L684.565 701.875Q672.005 701.895 659.45 701.505C659.494 704.704 659.447 707.934 659.619 711.127C660.106 716.046 660.764 722.737 659.643 727.537Q643.202 727.561 626.766 727.148L626.859 727.637C620.032 726.733 613.128 727.013 606.261 727.109C600.877 726.374 595.414 726.718 590.003 726.902C583.798 725.962 576.951 726.262 570.672 726.17C564.792 727.515 557.11 727.112 551.126 726.355C550.775 721.436 551.002 716.381 550.997 711.445L551.001 700.942L550.991 669.997Q551.101 658.784 550.884 647.573L550.303 647.411C550.65 639.61 550.462 631.805 550.31 624.002L607.055 624.01L627.358 623.998L627.389 553.381C620.673 553.77 614.112 553.143 607.407 552.993Q597.683 552.922 587.973 553.445C588.378 546.262 588.656 539.18 588.169 531.987C587.993 529.242 588.087 526.469 588.098 523.719C588.01 519.455 588.123 515.271 588.407 511.016L608.334 511C608.845 503.847 608.659 496.756 608.495 489.595C615.295 489.974 622.199 489.787 629.015 489.915L629.76 490.511C633.511 488.477 640.733 489.59 644.894 489.872C646.081 483.208 645.204 476.26 645.953 469.508C646.75 462.393 646.372 455.218 646.145 448.08C651.664 448.372 660.768 449.865 665.536 446.864C665.168 440.4 664.998 434.028 665.006 427.552Z"/>
	<path fill="#5B4143" transform="scale(0.407715 0.407715)" d="M607.055 624.01L627.358 623.998L658.754 624.015C658.387 631.571 657.598 640.513 658.842 647.958L642.989 647.942C636.464 648.013 629.332 648.558 622.893 647.587C617.634 647.345 612.272 647.527 607.002 647.506L607.055 624.01Z"/>
	<path fill="#E26F1B" transform="scale(0.407715 0.407715)" d="M607.055 624.01L627.358 623.998C627.427 631.45 628.12 639.509 627.223 646.884C626.056 647.762 624.3 647.544 622.893 647.587C617.634 647.345 612.272 647.527 607.002 647.506L607.055 624.01Z"/>
	<path fill="#5B4143" transform="scale(0.407715 0.407715)" d="M550.31 624.002L607.055 624.01L607.002 647.506L550.884 647.573L550.303 647.411C550.65 639.61 550.462 631.805 550.31 624.002Z"/>
	<path fill="#0B0B0C" transform="scale(0.407715 0.407715)" d="M684.505 624.189C691.243 624.016 698.826 623.228 705.444 624.655L705.978 677.995L705.984 702.042L684.565 701.875C685.979 691.656 685.013 680.343 684.912 670.007C685.075 664.752 684.672 659.348 684.6 654.078C684.463 644.118 684.507 634.15 684.505 624.189Z"/>
	<path fill="#815A59" transform="scale(0.407715 0.407715)" d="M627.36 553.057Q642.915 552.944 658.469 553.054Q658.452 575.081 658.735 597.106C658.852 605.969 659.608 615.198 658.754 624.015L627.358 623.998L627.389 553.381L627.36 553.057Z"/>
	<path fill="#815A59" transform="scale(0.407715 0.407715)" d="M629.76 490.511C633.511 488.477 640.733 489.59 644.894 489.872Q651.889 489.889 658.884 489.83Q658.437 510.912 658.494 531.998L658.469 553.054Q642.915 552.944 627.36 553.057L627.389 553.381C620.673 553.77 614.112 553.143 607.407 552.993Q597.683 552.922 587.973 553.445C588.378 546.262 588.656 539.18 588.169 531.987C587.993 529.242 588.087 526.469 588.098 523.719C588.01 519.455 588.123 515.271 588.407 511.016L608.334 511C608.845 503.847 608.659 496.756 608.495 489.595C615.295 489.974 622.199 489.787 629.015 489.915L629.76 490.511Z"/>
	<path fill="#AC541E" transform="scale(0.407715 0.407715)" d="M629.76 490.511C633.511 488.477 640.733 489.59 644.894 489.872C643.863 496.577 644.419 504.036 644.444 510.836L630.194 511.008C630.436 504.151 630.773 497.325 629.76 490.511Z"/>
	<path fill="#67260C" transform="scale(0.407715 0.407715)" d="M627.075 531.896L658.494 531.998L658.469 553.054Q642.915 552.944 627.36 553.057C626.693 546.132 627.093 538.863 627.075 531.896Z"/>
	<path fill="#511705" transform="scale(0.407715 0.407715)" d="M608.495 489.595C615.295 489.974 622.199 489.787 629.015 489.915L629.76 490.511C630.773 497.325 630.436 504.151 630.194 511.008L608.375 511.029C607.65 517.949 607.875 525.029 607.849 531.984L627.075 531.896C627.093 538.863 626.693 546.132 627.36 553.057L627.389 553.381C620.673 553.77 614.112 553.143 607.407 552.993Q597.683 552.922 587.973 553.445C588.378 546.262 588.656 539.18 588.169 531.987C587.993 529.242 588.087 526.469 588.098 523.719C588.01 519.455 588.123 515.271 588.407 511.016L608.334 511C608.845 503.847 608.659 496.756 608.495 489.595Z"/>
	<path fill="#5B4143" transform="scale(0.407715 0.407715)" d="M588.098 523.719C588.704 526.444 588.623 529.216 588.636 531.992L607.58 532.035C607.543 538.994 607.728 546.045 607.407 552.993Q597.683 552.922 587.973 553.445C588.378 546.262 588.656 539.18 588.169 531.987C587.993 529.242 588.087 526.469 588.098 523.719Z"/>
	<path fill="#E26F1B" transform="scale(0.407715 0.407715)" d="M607.849 531.984L627.075 531.896C627.093 538.863 626.693 546.132 627.36 553.057L627.389 553.381C620.673 553.77 614.112 553.143 607.407 552.993C607.728 546.045 607.543 538.994 607.58 532.035L607.849 531.984Z"/>
	<path fill="#4F4C59" transform="scale(0.407715 0.407715)" d="M706.068 489.989C713.21 490.001 720.393 489.87 727.524 490.27L728.032 490.89C728.02 498.261 727.937 505.64 728.028 513.01L748.398 513.01C748.269 517.338 747.171 530.964 748.973 534.37C747.568 537.672 748.567 569.295 748.584 575.058C755.243 575.105 761.915 575.067 768.572 575.224C768.573 583.308 768.409 591.437 768.829 599.51C769.56 611.53 768.937 623.803 768.848 635.849C768.808 641.282 768.317 647.755 769.453 653.05L769.488 678.421C762.625 678.14 755.818 677.774 748.968 678.488L748.632 678.163C750.668 670.44 749.159 660.523 749.062 652.503C748.949 643.167 749.007 633.824 749.011 624.487L727.954 624.506C726.883 608.085 727.662 591.433 727.993 574.985Q716.994 575.358 705.989 575.488L705.954 519.98L684.988 520.004Q684.834 505.014 684.929 490.024L706.068 489.989Z"/>
	<path fill="#AC541E" transform="scale(0.407715 0.407715)" d="M643.501 669.507L658.661 669.576L658.92 669.559C667.472 669.883 676.466 668.598 684.912 670.007C685.013 680.343 685.979 691.656 684.565 701.875Q672.005 701.895 659.45 701.505C659.494 704.704 659.447 707.934 659.619 711.127C660.106 716.046 660.764 722.737 659.643 727.537Q643.202 727.561 626.766 727.148L626.859 727.637C620.032 726.733 613.128 727.013 606.261 727.109C600.877 726.374 595.414 726.718 590.003 726.902C583.798 725.962 576.951 726.262 570.672 726.17C564.792 727.515 557.11 727.112 551.126 726.355C550.775 721.436 551.002 716.381 550.997 711.445L551.001 700.942L550.991 669.997Q566.305 669.444 581.628 669.687L643.501 669.507Z"/>
	<path fill="#A0461E" transform="scale(0.407715 0.407715)" d="M643.501 669.507L658.661 669.576C660.213 676.043 658.922 693.287 659.142 701.017C653.921 700.982 648.641 700.78 643.43 701.09L643.005 701.035C643.052 690.636 642.46 680.466 642.999 670.035C636.12 670.24 583.963 670.993 581.628 669.687L643.501 669.507Z"/>
	<path fill="#511705" transform="scale(0.407715 0.407715)" d="M658.661 669.576L658.92 669.559C667.472 669.883 676.466 668.598 684.912 670.007C685.013 680.343 685.979 691.656 684.565 701.875Q672.005 701.895 659.45 701.505C654.155 701.372 648.68 701.779 643.43 701.09C648.641 700.78 653.921 700.982 659.142 701.017C658.922 693.287 660.213 676.043 658.661 669.576Z"/>
	<path fill="#0B0B0C" transform="scale(0.407715 0.407715)" d="M551.001 700.942C581.657 700.92 612.354 700.64 643.005 701.035L643.43 701.09C648.68 701.779 654.155 701.372 659.45 701.505C659.494 704.704 659.447 707.934 659.619 711.127C660.106 716.046 660.764 722.737 659.643 727.537Q643.202 727.561 626.766 727.148L626.859 727.637C620.032 726.733 613.128 727.013 606.261 727.109C600.877 726.374 595.414 726.718 590.003 726.902C583.798 725.962 576.951 726.262 570.672 726.17C564.792 727.515 557.11 727.112 551.126 726.355C550.775 721.436 551.002 716.381 550.997 711.445L551.001 700.942Z"/>
	<path fill="#330F05" transform="scale(0.407715 0.407715)" d="M550.997 711.445L588.766 711.629C582.983 712.488 576.671 711.966 570.824 711.783C571.021 716.626 570.596 721.358 570.672 726.17C564.792 727.515 557.11 727.112 551.126 726.355C550.775 721.436 551.002 716.381 550.997 711.445Z"/>
	<path fill="#511705" transform="scale(0.407715 0.407715)" d="M588.766 711.629C594.606 711.447 601.129 710.861 606.867 711.92C606.996 716.804 607.612 722.38 606.261 727.109C600.877 726.374 595.414 726.718 590.003 726.902C583.798 725.962 576.951 726.262 570.672 726.17C570.596 721.358 571.021 716.626 570.824 711.783C576.671 711.966 582.983 712.488 588.766 711.629Z"/>
	<path fill="#511705" transform="scale(0.407715 0.407715)" d="M659.619 711.127C660.106 716.046 660.764 722.737 659.643 727.537Q643.202 727.561 626.766 727.148L626.859 727.637C620.032 726.733 613.128 727.013 606.261 727.109C607.612 722.38 606.996 716.804 606.867 711.92L615.748 711.919C630.132 710.323 645.561 713.126 659.619 711.127Z"/>
	<path fill="#A0461E" transform="scale(0.407715 0.407715)" d="M615.748 711.919Q621.182 712.092 626.618 711.984C626.481 716.871 625.912 722.332 626.766 727.148L626.859 727.637C620.032 726.733 613.128 727.013 606.261 727.109C607.612 722.38 606.996 716.804 606.867 711.92L615.748 711.919Z"/>
	<path fill="#EF8D31" transform="scale(0.407715 0.407715)" d="M596.825 122.099C597.351 129.668 596.99 137.405 597.008 145C604.67 144.959 612.34 144.832 620.001 144.88L619.99 167.531L641.999 167.535L642.03 210.144C649.352 210.066 656.657 209.96 663.965 210.537C665.017 223.062 664.509 235.845 664.506 248.415L664.477 310.083C656.472 309.838 648.415 310.014 640.403 310.008C633.473 310.31 626.52 310.198 619.584 310.182L619.645 335.105Q608.344 334.858 597.043 335.157L597.037 310.004L555.982 309.949L555.714 309.596C543.839 308.552 531.821 309.314 519.913 309.366C502.965 309.44 485.968 309.113 469.028 309.586L468.899 310.187C455.366 309.516 441.521 310.133 427.955 310.16L427.993 335.902C419.998 335.553 412.013 335.676 404.017 335.894L404.015 310.47L386.521 310.426C378.139 308.942 368.065 309.96 359.494 310.008L359.886 210.007L381.508 209.976L381.9 167.331C389.222 166.931 396.714 167.374 404.05 167.507Q404.313 156.261 404.33 145.012C411.884 144.725 419.447 144.888 427.005 144.982L427.05 122.512L596.825 122.099Z"/>
	<path fill="#FEFDFD" transform="scale(0.407715 0.407715)" d="M608.982 251.577C612.663 251.823 616.324 251.936 620.012 251.985C620.041 257.856 620.143 263.74 620.049 269.61C617.845 269.654 615.565 269.579 613.381 269.884Q610.893 269.979 608.403 269.986C606.836 269.976 605.376 269.871 604.235 268.695C604.389 265.349 603.604 254.03 604.93 251.806L608.982 251.577Z"/>
	<path fill="#A0461E" transform="scale(0.407715 0.407715)" d="M447.372 231.95C452.745 232.013 462.807 230.709 467.575 232.895C468.214 234.523 468.102 236.129 468.098 237.846C467.977 242.76 468.049 247.652 468.156 252.564C461.432 252.204 454.234 251.386 447.561 252.521C447.265 245.75 448.033 238.724 447.125 232.012L447.372 231.95Z"/>
	<path fill="#6F3209" transform="scale(0.407715 0.407715)" d="M614.879 232.075Q628.442 231.931 642.006 232.012L642.006 251.985L620.012 251.985C616.324 251.936 612.663 251.823 608.982 251.577C612.572 251.046 616.272 251.295 619.89 251.381C619.952 245.4 620.448 238.961 619.754 233.037C618.558 232.112 616.376 232.203 614.879 232.075Z"/>
	<path fill="#511705" transform="scale(0.407715 0.407715)" d="M382.055 231.491C395.023 231.49 408.229 231.139 421.17 231.918C415.83 232.45 410.358 232.211 404.995 232.194C404.978 235.905 404.176 248.978 405.306 251.58L403.826 251.947L382.071 252.023L382.055 231.491Z"/>
	<path fill="#67260C" transform="scale(0.407715 0.407715)" d="M577.469 231.984C589.849 232.169 602.566 231.433 614.879 232.075C616.376 232.203 618.558 232.112 619.754 233.037C620.448 238.961 619.952 245.4 619.89 251.381C616.272 251.295 612.572 251.046 608.982 251.577L604.93 251.806C603.604 254.03 604.389 265.349 604.235 268.695C603.292 263.295 603.756 257.424 603.888 251.961C595.141 251.981 586.266 251.693 577.538 252.197C577.605 264.996 578.339 278.271 577.339 291.004C576.597 286.157 577.126 280.914 577.138 276.015C577.157 268.22 577.031 260.431 577.138 252.635C578.197 246.151 577.513 238.561 577.469 231.984Z"/>
	<path fill="#330F05" transform="scale(0.407715 0.407715)" d="M421.17 231.918C429.888 231.554 438.412 231.464 447.125 232.012C448.033 238.724 447.265 245.75 447.561 252.521L447.46 252.91C445.577 252.649 443.512 253.04 441.617 253.194C435.802 253.667 431.174 253.827 425.46 252.542C420.59 250.493 412.036 251.802 406.792 252.034L405.306 251.58C404.176 248.978 404.978 235.905 404.995 232.194C410.358 232.211 415.83 232.45 421.17 231.918Z"/>
	<path fill="#FEFDFD" transform="scale(0.407715 0.407715)" d="M403.826 251.947L405.306 251.58L406.792 252.034C406.775 257.735 406.618 263.474 406.859 269.17L404.027 269.186L404.021 291.725C396.689 291.646 389.329 291.879 381.996 291.974Q381.883 271.998 382.071 252.023L403.826 251.947Z"/>
	<path fill="#A0461E" transform="scale(0.407715 0.407715)" d="M403.826 251.947L405.306 251.58L406.792 252.034C406.775 257.735 406.618 263.474 406.859 269.17L404.027 269.186C404.09 263.431 404.2 257.695 403.826 251.947Z"/>
	<path fill="#0B0B0C" transform="scale(0.407715 0.407715)" d="M577.538 252.197C586.266 251.693 595.141 251.981 603.888 251.961C603.756 257.424 603.292 263.295 604.235 268.695C605.376 269.871 606.836 269.976 608.403 269.986Q610.893 269.979 613.381 269.884L620.017 269.978L620.023 290.996Q598.681 290.801 577.339 291.004C578.339 278.271 577.605 264.996 577.538 252.197Z"/>
	<path fill="#0B0B0C" transform="scale(0.407715 0.407715)" d="M406.792 252.034C412.036 251.802 420.59 250.493 425.46 252.542C431.174 253.827 435.802 253.667 441.617 253.194C443.512 253.04 445.577 252.649 447.46 252.91Q447.537 272.411 447.348 291.911C433.11 292.147 418.177 293.24 404.021 291.725L404.027 269.186L406.859 269.17C406.618 263.474 406.775 257.735 406.792 252.034Z"/>
	<path fill="#FEFDFD" transform="scale(0.407715 0.407715)" d="M406.792 252.034C412.036 251.802 420.59 250.493 425.46 252.542L425.511 269.415Q416.183 269.479 406.859 269.17C406.618 263.474 406.775 257.735 406.792 252.034Z"/>
	<path fill="#FEFDFD" transform="scale(0.407715 0.407715)" d="M468.541 286.022Q512.276 285.176 556.013 285.924C556.098 293.307 557.136 302.438 555.714 309.596C543.839 308.552 531.821 309.314 519.913 309.366C502.965 309.44 485.968 309.113 469.028 309.586C467.275 302.311 468.346 293.516 468.541 286.022Z"/>
	<path fill="#FEFDFD" transform="scale(0.407715 0.407715)" d="M404.012 188.505L468.815 188.501L468.507 209.919C475.845 209.918 483.191 209.841 490.528 209.925L490.519 253.292C483.21 253.451 475.821 253.66 468.517 253.256C468.484 248.178 468.76 242.882 468.098 237.846C468.102 236.129 468.214 234.523 467.575 232.895C462.807 230.709 452.745 232.013 447.372 231.95C446.156 225.108 446.936 216.983 446.989 210.009L404.444 210.039Q404.005 199.276 404.012 188.505Z"/>
	<path fill="#FEFDFD" transform="scale(0.407715 0.407715)" d="M555.533 188.604C577.069 188.353 598.649 188.632 620.187 188.738C620.362 195.827 620.323 202.932 620.372 210.023L577.024 210.019C577.075 217.221 577.56 224.741 576.911 231.901L577.469 231.984C577.513 238.561 578.197 246.151 577.138 252.635C570.127 253.08 563.052 252.997 556.027 253.073C548.773 253.643 541.458 253.449 534.186 253.421Q534.024 231.716 534.131 210.012L555.524 209.993C555.676 202.871 555.551 195.728 555.533 188.604Z"/>
	<path fill="#A0461E" transform="scale(0.407715 0.407715)" d="M576.911 231.901L577.469 231.984C577.513 238.561 578.197 246.151 577.138 252.635C570.127 253.08 563.052 252.997 556.027 253.073L556.003 232.009C563.033 232.356 569.892 232.467 576.911 231.901Z"/>
	<path fill="#14263E" transform="scale(0.407715 0.407715)" d="M659.45 701.505Q672.005 701.895 684.565 701.875L705.984 702.042L705.899 726.032L727.6 726.016C727.318 734.055 726.941 742.064 727.479 750.102L727.534 849.027C711.204 847.751 694.445 848.538 678.052 848.528C666.334 848.521 653.583 847.485 641.986 848.92L640.4 848.786C635.032 847.822 628.743 848.062 623.293 848.138C614.675 848.243 605.567 847.824 597.021 848.758C585.285 849.302 573.388 848.951 561.636 848.957L498.596 848.956L452.811 848.934C444.106 848.928 435.132 849.355 426.47 848.583L426.444 913.029C419.247 913.267 413.26 914.121 405.995 912.983C404.251 913.267 402.613 913.082 400.862 912.93C396.502 912.854 392.154 912.975 387.797 913.092L383.589 913.006Q373.115 913.056 362.641 912.941C355.294 913.103 347.957 913.341 340.615 912.934C333.58 913.058 326.54 913.213 319.539 912.409C311.932 912.871 304.604 912.747 296.992 912.526L296.962 887.535C296.951 882.402 296.653 877.117 297.206 872.013C298.488 865.46 297.486 844.057 297.508 835.95Q298.057 792.398 297.597 748.845C304.507 748.795 311.63 748.418 318.501 749.103C319.858 746.476 319.07 730.14 319.059 726.23Q324.269 726.857 329.516 726.988Q334.762 727.119 339.997 726.752L363.462 726.997C363.461 735.39 363.551 743.794 363.454 752.186C363.242 759.482 362.959 766.691 363.617 773.973L366.533 774.275C372.141 774.556 377.736 774.525 383.349 774.503L398.958 774.501C405.675 774.534 412.339 774.529 419.039 774.002C422.766 773.988 426.969 773.599 430.619 774.267Q430.365 785.125 430.519 795.984C435.233 796.122 446.009 797.333 449.879 794.961C450.572 794.084 450.902 793.351 450.982 792.219C451.396 786.335 450.444 781.425 451.187 774.623Q461.783 774.243 472.383 774.519L472.979 774.328Q473.163 762.972 472.992 751.615C480.252 750.18 488.653 751.082 496.026 751.224L496.052 727.286C506.011 728.044 516.69 728.073 526.61 726.947L526.954 726.911C534.744 725.4 543.152 726.144 550.999 726.729L551.126 726.355C557.11 727.112 564.792 727.515 570.672 726.17C576.951 726.262 583.798 725.962 590.003 726.902C595.414 726.718 600.877 726.374 606.261 727.109C613.128 727.013 620.032 726.733 626.859 727.637L626.766 727.148Q643.202 727.561 659.643 727.537C660.764 722.737 660.106 716.046 659.619 711.127C659.447 707.934 659.494 704.704 659.45 701.505Z"/>
	<path fill="#4F4C59" transform="scale(0.407715 0.407715)" d="M659.878 742.019L705.681 742.001C705.857 744.847 705.909 747.656 705.887 750.506C694.527 751.717 682.789 751.085 671.375 751.015C667.52 750.991 663.43 750.731 659.6 751.102L659.878 742.019Z"/>
	<path fill="#FEFDFD" transform="scale(0.407715 0.407715)" d="M590.509 773.984C590.633 775.882 590.679 777.82 590.925 779.704C590.919 784.452 591.101 789.284 590.768 794.019L590.508 795.931L572.006 796.023L571.569 789.931C571.568 784.702 571.81 779.51 572.086 774.291C577.601 773.078 584.82 773.947 590.509 773.984Z"/>
	<path fill="#A0461E" transform="scale(0.407715 0.407715)" d="M705.899 726.032L727.6 726.016C727.318 734.055 726.941 742.064 727.479 750.102C720.284 750.114 713.07 750.597 705.887 750.506C705.909 747.656 705.857 744.847 705.681 742.001C705.542 736.666 705.714 731.363 705.899 726.032Z"/>
	<path fill="#F2CF7C" transform="scale(0.407715 0.407715)" d="M318.542 850.019C318.606 849.946 318.659 849.86 318.734 849.799C320.769 848.15 357.061 848.978 362.626 848.991C362.728 856.524 362.92 864.071 362.82 871.604L318.764 871.863Q318.394 860.944 318.542 850.019Z"/>
	<path fill="#4F4C59" transform="scale(0.407715 0.407715)" d="M319.059 726.23Q324.269 726.857 329.516 726.988Q334.762 727.119 339.997 726.752L363.462 726.997C363.461 735.39 363.551 743.794 363.454 752.186C355.802 751.215 347.754 751.833 340.044 752.021C333.082 751.944 326.11 752.045 319.147 752.071C319.021 751.068 318.738 750.085 318.501 749.103C319.858 746.476 319.07 730.14 319.059 726.23Z"/>
	<path fill="#6F3209" transform="scale(0.407715 0.407715)" d="M319.059 726.23Q324.269 726.857 329.516 726.988Q334.762 727.119 339.997 726.752C340.01 735.171 339.924 743.603 340.044 752.021C333.082 751.944 326.11 752.045 319.147 752.071C319.021 751.068 318.738 750.085 318.501 749.103C319.858 746.476 319.07 730.14 319.059 726.23Z"/>
	<path fill="#AC541E" transform="scale(0.407715 0.407715)" d="M384.02 848.996C391.325 849.038 398.68 849.239 405.972 848.762L406.005 891.974C398.66 891.163 390.925 891.733 383.551 891.928C383.85 885.182 383.828 878.406 383.913 871.654C376.931 871.195 369.813 871.514 362.82 871.604C362.92 864.071 362.728 856.524 362.626 848.991L384.02 848.996Z"/>
	<path fill="#EF8D31" transform="scale(0.407715 0.407715)" d="M362.626 848.991L384.02 848.996L383.913 871.654C376.931 871.195 369.813 871.514 362.82 871.604C362.92 864.071 362.728 856.524 362.626 848.991Z"/>
	<path fill="#6F3209" transform="scale(0.407715 0.407715)" d="M405.972 848.762C412.694 848.12 419.717 848.481 426.47 848.583L426.444 913.029C419.247 913.267 413.26 914.121 405.995 912.983C404.251 913.267 402.613 913.082 400.862 912.93C396.502 912.854 392.154 912.975 387.797 913.092L383.589 913.006C382.742 905.951 383.193 898.998 383.551 891.928C390.925 891.733 398.66 891.163 406.005 891.974L405.972 848.762Z"/>
	<path fill="#FEFDFD" transform="scale(0.407715 0.407715)" d="M383.551 891.928C390.925 891.733 398.66 891.163 406.005 891.974C406.051 898.451 406.667 905.581 405.779 911.973C404.518 912.867 402.393 912.794 400.862 912.93C396.502 912.854 392.154 912.975 387.797 913.092L383.589 913.006C382.742 905.951 383.193 898.998 383.551 891.928Z"/>
	<path fill="#14263E" transform="scale(0.407715 0.407715)" d="M659.45 701.505Q672.005 701.895 684.565 701.875L705.984 702.042L705.899 726.032C705.714 731.363 705.542 736.666 705.681 742.001L659.878 742.019C659.875 737.376 659.94 732.725 659.633 728.09L659.643 727.537C660.764 722.737 660.106 716.046 659.619 711.127C659.447 707.934 659.494 704.704 659.45 701.505Z"/>
	<path fill="#FEFDFD" transform="scale(0.407715 0.407715)" d="M362.82 871.604C369.813 871.514 376.931 871.195 383.913 871.654C383.828 878.406 383.85 885.182 383.551 891.928C383.193 898.998 382.742 905.951 383.589 913.006Q373.115 913.056 362.641 912.941C355.294 913.103 347.957 913.341 340.615 912.934C333.58 913.058 326.54 913.213 319.539 912.409C311.932 912.871 304.604 912.747 296.992 912.526L296.962 887.535C296.951 882.402 296.653 877.117 297.206 872.013C304.384 871.977 311.59 872.072 318.764 871.863L362.82 871.604Z"/>
	<path fill="#AC541E" transform="scale(0.407715 0.407715)" d="M362.98 892.019L383.551 891.928C383.193 898.998 382.742 905.951 383.589 913.006Q373.115 913.056 362.641 912.941C363.862 906.222 363.165 898.82 362.98 892.019Z"/>
	<path fill="#AC541E" transform="scale(0.407715 0.407715)" d="M319.654 891.928L340.514 891.926C340.531 898.889 340.249 905.989 340.615 912.934C333.58 913.058 326.54 913.213 319.539 912.409L319.654 891.928Z"/>
	<path fill="#4F4C59" transform="scale(0.407715 0.407715)" d="M363.617 773.973L366.533 774.275C372.141 774.556 377.736 774.525 383.349 774.503L398.958 774.501C405.675 774.534 412.339 774.529 419.039 774.002C422.766 773.988 426.969 773.599 430.619 774.267Q430.365 785.125 430.519 795.984L430.507 824.495C399.458 823.989 368.46 824.609 337.419 824.422C335.036 824.407 320.021 824.825 318.839 823.556C318.7 823.406 318.604 823.221 318.486 823.054C319.341 810.994 318.574 798.351 318.569 786.224C319.101 782.177 318.883 777.92 318.899 773.837L363.617 773.973Z"/>
	<path fill="#14263E" transform="scale(0.407715 0.407715)" d="M419.039 774.002C422.766 773.988 426.969 773.599 430.619 774.267Q430.365 785.125 430.519 795.984L363.964 796.009C363.943 792.484 363.154 776.552 364.48 774.545L366.533 774.275C372.141 774.556 377.736 774.525 383.349 774.503L398.958 774.501C405.675 774.534 412.339 774.529 419.039 774.002Z"/>
	<path fill="#4F4C59" transform="scale(0.407715 0.407715)" d="M590.003 726.902C595.414 726.718 600.877 726.374 606.261 727.109C613.128 727.013 620.032 726.733 626.859 727.637L626.766 727.148Q643.202 727.561 659.643 727.537L659.633 728.09C659.94 732.725 659.875 737.376 659.878 742.019L659.6 751.102Q659.495 762.547 659.522 773.993L705.92 774.015Q705.804 799.034 706 824.051C667.512 824.054 628.96 824.486 590.478 824.045C590.595 814.677 590.808 805.298 590.508 795.931L590.768 794.019C591.101 789.284 590.919 784.452 590.925 779.704C590.679 777.82 590.633 775.882 590.509 773.984L590.481 751.489C590.391 743.292 590.044 735.104 590.003 726.902Z"/>
	<path fill="#14263E" transform="scale(0.407715 0.407715)" d="M605.939 774.008L622.421 774.089C628.92 774.662 635.511 774.236 642.026 774.021L659.522 773.993L659.495 796.019C650.016 796.342 595.635 797.957 591.16 795.289L590.768 794.019C591.101 789.284 590.919 784.452 590.925 779.704Q591.008 776.995 591.292 774.3C595.951 773.509 601.202 773.99 605.939 774.008Z"/>
	<path fill="#EF8D31" transform="scale(0.407715 0.407715)" d="M590.003 726.902C595.414 726.718 600.877 726.374 606.261 727.109C613.128 727.013 620.032 726.733 626.859 727.637L626.766 727.148Q643.202 727.561 659.643 727.537L659.633 728.09C659.94 732.725 659.875 737.376 659.878 742.019L659.6 751.102Q659.495 762.547 659.522 773.993L642.026 774.021C635.511 774.236 628.92 774.662 622.421 774.089L605.939 774.008C601.202 773.99 595.951 773.509 591.292 774.3Q591.008 776.995 590.925 779.704C590.679 777.82 590.633 775.882 590.509 773.984L590.481 751.489C590.391 743.292 590.044 735.104 590.003 726.902Z"/>
	<path fill="#815A59" transform="scale(0.407715 0.407715)" d="M590.003 726.902C595.414 726.718 600.877 726.374 606.261 727.109C604.784 741.457 606.016 759.264 605.939 774.008C601.202 773.99 595.951 773.509 591.292 774.3Q591.008 776.995 590.925 779.704C590.679 777.82 590.633 775.882 590.509 773.984L590.481 751.489C590.391 743.292 590.044 735.104 590.003 726.902Z"/>
	<path fill="#815A59" transform="scale(0.407715 0.407715)" d="M626.766 727.148Q643.202 727.561 659.643 727.537L659.633 728.09C659.94 732.725 659.875 737.376 659.878 742.019L659.6 751.102Q659.495 762.547 659.522 773.993L642.026 774.021C635.511 774.236 628.92 774.662 622.421 774.089Q624.668 773.955 626.916 773.851C628 770.545 627.158 733.65 626.859 727.637L626.766 727.148Z"/>
	<path fill="#4F4C59" transform="scale(0.407715 0.407715)" d="M551.126 726.355C557.11 727.112 564.792 727.515 570.672 726.17C576.951 726.262 583.798 725.962 590.003 726.902C590.044 735.104 590.391 743.292 590.481 751.489L590.509 773.984C584.82 773.947 577.601 773.078 572.086 774.291C571.81 779.51 571.568 784.702 571.569 789.931L572.006 796.023C571.784 805.398 571.99 814.821 571.998 824.201Q511.996 823.744 451.993 824.075Q452.03 810.039 451.895 796.004Q462.166 796.104 472.437 796.034C472.472 790.74 473.644 779.175 472.383 774.519L472.979 774.328Q473.163 762.972 472.992 751.615C480.252 750.18 488.653 751.082 496.026 751.224L496.052 727.286C506.011 728.044 516.69 728.073 526.61 726.947L526.954 726.911C534.744 725.4 543.152 726.144 550.999 726.729L551.126 726.355Z"/>
	<path fill="#14263E" transform="scale(0.407715 0.407715)" d="M554.651 774.933C560.471 774.989 566.319 775.182 572.086 774.291C571.81 779.51 571.568 784.702 571.569 789.931C571.368 791.927 571.379 793.949 571.328 795.955L550.018 796.012C549.994 791.83 549.091 778.516 550.433 775.243L554.651 774.933Z"/>
	<path fill="#4F4C59" transform="scale(0.407715 0.407715)" d="M472.979 774.328C480.259 774.454 487.536 773.91 494.822 774.002C493.803 780.991 494.539 788.908 494.628 795.993C487.265 796.028 479.788 796.343 472.437 796.034C472.472 790.74 473.644 779.175 472.383 774.519L472.979 774.328Z"/>
	<path fill="#14263E" transform="scale(0.407715 0.407715)" d="M496.052 727.286C506.011 728.044 516.69 728.073 526.61 726.947L526.954 726.911L526.971 751.364C534.546 751.15 542.123 750.783 549.673 751.577C548.899 759.038 549.412 766.917 549.57 774.421C531.366 773.421 513.048 774.077 494.822 774.002C487.536 773.91 480.259 774.454 472.979 774.328Q473.163 762.972 472.992 751.615C480.252 750.18 488.653 751.082 496.026 751.224L496.052 727.286Z"/>
	<path fill="#FEFDFD" transform="scale(0.407715 0.407715)" d="M551.126 726.355C557.11 727.112 564.792 727.515 570.672 726.17C576.951 726.262 583.798 725.962 590.003 726.902C590.044 735.104 590.391 743.292 590.481 751.489L590.509 773.984C584.82 773.947 577.601 773.078 572.086 774.291C566.319 775.182 560.471 774.989 554.651 774.933C553.198 774.762 551.464 774.787 550.226 773.95C549.133 766.761 550.648 759.224 549.734 752.008C549.716 751.864 549.694 751.721 549.673 751.577C542.123 750.783 534.546 751.15 526.971 751.364L526.954 726.911C534.744 725.4 543.152 726.144 550.999 726.729L551.126 726.355Z"/>
	<path fill="#14263E" transform="scale(0.407715 0.407715)" d="M571.997 751.317C578.141 751.738 584.325 751.518 590.481 751.489L590.509 773.984C584.82 773.947 577.601 773.078 572.086 774.291C571.773 766.645 571.945 758.968 571.997 751.317Z"/>
	<path fill="#67260C" transform="scale(0.407715 0.407715)" d="M551.126 726.355C557.11 727.112 564.792 727.515 570.672 726.17C576.951 726.262 583.798 725.962 590.003 726.902C590.044 735.104 590.391 743.292 590.481 751.489C584.325 751.518 578.141 751.738 571.997 751.317C564.676 750.015 557.261 750.773 549.877 751.035C550.988 742.965 551.039 734.858 550.999 726.729L551.126 726.355Z"/>
	<path fill="#FEFDFD" transform="scale(0.407715 0.407715)" d="M469.028 309.586C485.968 309.113 502.965 309.44 519.913 309.366C531.821 309.314 543.839 308.552 555.714 309.596L555.982 309.949L597.037 310.004L597.043 335.157Q608.343 334.858 619.645 335.105L619.584 310.182C626.52 310.198 633.473 310.31 640.403 310.008C648.415 310.014 656.472 309.838 664.477 310.083C666.433 341.404 664.833 372.677 664.996 404.001L687.683 404.002C687.564 411.347 687.723 418.686 687.636 426.023L684.924 427.373C678.277 427.73 671.665 426.968 665.006 427.552C664.998 434.028 665.168 440.4 665.536 446.864C660.768 449.865 651.664 448.372 646.145 448.08C646.372 455.218 646.75 462.393 645.953 469.508C645.204 476.26 646.081 483.208 644.894 489.872C640.733 489.59 633.511 488.477 629.76 490.511L629.015 489.915C622.199 489.787 615.295 489.974 608.495 489.595C608.659 496.756 608.845 503.847 608.334 511L588.407 511.016C588.123 515.271 588.01 519.455 588.098 523.719C588.087 526.469 587.993 529.242 588.169 531.987L567.035 532.013C560.087 531.99 553.112 531.848 546.167 532.042L546.111 553.013C539.794 552.891 533.454 553.028 527.135 553.061L522.999 553.525C515.228 553.723 507.28 553.752 499.514 553.439C498.085 553.297 496.564 553.35 495.123 553.315C489.613 553.493 483.974 553.822 478.525 552.837Q478.792 544.365 478.878 535.889C478.373 534.506 478.544 532.623 478.128 531.104C476.764 524.906 477.355 518.149 477.712 511.85C477.394 511.559 477.15 511.159 476.76 510.975C475.168 510.226 460.907 510.979 457.91 510.886L438.496 510.991L438.505 489.998L418.475 489.995L418.53 470C412.101 469.915 405.66 470.031 399.231 470.072C398.901 464.639 398.96 459.216 399.089 453.779Q399.413 452.138 399.792 450.509C401.033 449.731 402.151 450.008 403.587 450.02C403.282 442.446 403.473 434.794 403.445 427.211C395.761 426.23 387.789 426.55 380.081 426.89C378.394 426.339 376.053 426.471 374.212 426.097C372.083 425.991 369.903 426.089 367.768 426.09C364.816 426.497 361.876 426.593 358.902 426.7C352.284 426.398 345.672 426.936 339.025 426.526L338.275 425.955C337.368 418.24 337.967 409.854 337.983 402.066C345.267 401.709 352.219 401.167 359.412 402.634L359.494 310.008C368.065 309.96 378.139 308.942 386.521 310.426L404.015 310.47L404.017 335.894C412.013 335.676 419.998 335.553 427.993 335.902L427.955 310.16C441.521 310.133 455.366 309.516 468.899 310.187L469.028 309.586Z"/>
	<path fill="#BC9A83" transform="scale(0.407715 0.407715)" d="M490.546 395.035L532.999 395.103C532.657 401.621 532.306 407.8 533.327 414.283C544.288 413.764 555.135 413.809 566.102 413.928L566.019 427.798C555.175 429.176 544.26 427.684 533.357 428.466C533.531 424.159 533.369 419.848 533.263 415.541C519.02 415.321 504.401 417.094 490.293 415.061C489.901 419.371 490.005 423.717 490.008 428.041C480.095 426.433 466.585 427.237 456.503 427.939L456.453 413.594C467.687 413.499 478.903 413.842 490.129 413.802C491.041 407.422 490.91 401.459 490.546 395.035Z"/>
	<path fill="#D7D6D5" transform="scale(0.407715 0.407715)" d="M359.494 310.008C368.065 309.96 378.139 308.942 386.521 310.426C384.736 310.507 382.449 310.345 380.783 311.003C380.21 317.176 380.664 323.565 380.609 329.769Q380.452 352.01 380.54 374.25C380.547 384.396 380.888 394.63 379.831 404.732C387.801 405.701 395.518 405.342 403.506 404.988L403.445 427.211C395.761 426.23 387.789 426.55 380.081 426.89C378.394 426.339 376.053 426.471 374.212 426.097C372.083 425.991 369.903 426.089 367.768 426.09C364.816 426.497 361.876 426.593 358.902 426.7C352.284 426.398 345.672 426.936 339.025 426.526L338.275 425.955C337.368 418.24 337.967 409.854 337.983 402.066C345.267 401.709 352.219 401.167 359.412 402.634L359.494 310.008Z"/>
	<path fill="#511705" transform="scale(0.407715 0.407715)" d="M359.743 404.025C366.168 403.808 373.163 403.019 379.507 404.173C379.532 408.277 380.363 422.951 379 425.795C377.373 426.021 375.853 426.112 374.212 426.097C372.083 425.991 369.903 426.089 367.768 426.09Q363.633 426.025 359.497 426.022C359.426 418.706 359.172 411.327 359.743 404.025Z"/>
	<path fill="#0B0B0C" transform="scale(0.407715 0.407715)" d="M469.028 309.586C485.968 309.113 502.965 309.44 519.913 309.366C531.821 309.314 543.839 308.552 555.714 309.596L555.982 309.949L555.97 333.076L555.978 353.416L535.598 353.119L535.612 372.086C520.257 372.618 504.891 372.116 489.527 372.476Q489.639 362.996 490.016 353.522C482.976 353.069 475.909 353.416 468.858 353.273C469.031 346.525 468.975 339.759 469.009 333.007L468.899 310.187L469.028 309.586Z"/>
	<path fill="#67260C" transform="scale(0.407715 0.407715)" d="M469.028 309.586C485.968 309.113 502.965 309.44 519.913 309.366C531.821 309.314 543.839 308.552 555.714 309.596L555.982 309.949L555.97 333.076C545.342 331.984 534.454 332.839 523.779 332.88L469.009 333.007L468.899 310.187L469.028 309.586Z"/>
	<path fill="#D7D6D5" transform="scale(0.407715 0.407715)" d="M640.403 310.008C648.415 310.014 656.472 309.838 664.477 310.083C666.433 341.404 664.833 372.677 664.996 404.001L687.683 404.002C687.564 411.347 687.723 418.686 687.636 426.023L684.924 427.373C678.277 427.73 671.665 426.968 665.006 427.552C664.998 434.028 665.168 440.4 665.536 446.864C660.768 449.865 651.664 448.372 646.145 448.08C646.372 455.218 646.75 462.393 645.953 469.508C645.204 476.26 646.081 483.208 644.894 489.872C640.733 489.59 633.511 488.477 629.76 490.511L629.015 489.915C622.199 489.787 615.295 489.974 608.495 489.595C608.659 496.756 608.845 503.847 608.334 511L588.407 511.016C588.123 515.271 588.01 519.455 588.098 523.719C588.087 526.469 587.993 529.242 588.169 531.987L567.035 532.013C560.087 531.99 553.112 531.848 546.167 532.042L546.111 553.013C539.794 552.891 533.454 553.028 527.135 553.061L522.999 553.525C515.228 553.723 507.28 553.752 499.514 553.439C498.085 553.297 496.564 553.35 495.123 553.315C489.613 553.493 483.974 553.822 478.525 552.837Q478.792 544.365 478.878 535.889C478.373 534.506 478.544 532.623 478.128 531.104C476.764 524.906 477.355 518.149 477.712 511.85C477.394 511.559 477.15 511.159 476.76 510.975C475.168 510.226 460.907 510.979 457.91 510.886L438.496 510.991L438.505 489.998L418.475 489.995L418.53 470C412.101 469.915 405.66 470.031 399.231 470.072C398.901 464.639 398.96 459.216 399.089 453.779Q399.413 452.138 399.792 450.509C401.033 449.731 402.151 450.008 403.587 450.02C403.282 442.446 403.473 434.794 403.445 427.211C409.946 429.098 447.1 428.315 456.503 427.939C466.585 427.237 480.095 426.433 490.008 428.041C490.005 423.717 489.901 419.371 490.293 415.061C504.401 417.094 519.02 415.321 533.263 415.541C533.369 419.848 533.531 424.159 533.357 428.466C544.26 427.684 555.175 429.176 566.019 427.798C571.041 427.082 576.558 427.308 581.645 427.191Q601.317 426.879 620.99 426.991C620.997 419.33 620.862 411.665 620.779 404.005L642.053 404.087Q641.717 372.16 641.991 340.233C642.031 332.817 643.1 319.553 642.047 312.711C641.825 311.265 641.56 310.859 640.403 310.008Z"/>
	<path fill="#511705" transform="scale(0.407715 0.407715)" d="M642.143 404.243L664.506 404.222C664.512 411.811 664.657 419.431 664.448 427.016Q653.688 426.865 642.928 427.005L642.577 426.848C642.085 419.325 642.155 411.779 642.143 404.243Z"/>
	<path fill="#FEFDFD" transform="scale(0.407715 0.407715)" d="M490.293 415.061C504.401 417.094 519.02 415.321 533.263 415.541C533.369 419.848 533.531 424.159 533.357 428.466C532.431 435.28 533.047 443.085 533.014 450.011L489.998 450.015L490.008 428.041C490.005 423.717 489.901 419.371 490.293 415.061Z"/>
	<path fill="#67260C" transform="scale(0.407715 0.407715)" d="M642.577 426.848L642.928 427.005L642.978 448.057C638.498 448.037 634.012 447.967 629.533 448.01L629.531 469.014C622.37 468.826 615.269 468.728 608.11 469.02C602.579 469.323 569.827 470.51 567.092 469.486C566.832 462.853 567.018 456.143 567.007 449.501Q594.02 449.583 621.027 449.003L620.993 427.008C628.178 427.026 635.4 427.187 642.577 426.848Z"/>
	<path fill="#67260C" transform="scale(0.407715 0.407715)" d="M399.089 453.779Q399.413 452.138 399.792 450.509C401.033 449.731 402.151 450.008 403.587 450.02L453.502 449.995C453.447 454.701 452.428 469.141 453.963 473.03Q510.403 473.099 566.839 472.494C566.087 478.467 566.492 484.805 566.439 490.829C566.221 497.389 566.36 503.902 566.56 510.461C543.971 510.244 521.458 510.987 498.879 511.066C496.651 511.074 478.832 510.547 477.98 510.921L477.712 511.85C477.394 511.559 477.15 511.159 476.76 510.975C475.168 510.226 460.907 510.979 457.91 510.886L438.496 510.991L438.505 489.998L418.475 489.995L418.53 470C412.101 469.915 405.66 470.031 399.231 470.072C398.901 464.639 398.96 459.216 399.089 453.779Z"/>
	<path fill="#511705" transform="scale(0.407715 0.407715)" d="M453.963 473.03Q510.403 473.099 566.839 472.494C566.087 478.467 566.492 484.805 566.439 490.829C562.443 491.378 557.944 491.084 553.892 491.151Q540.428 491.456 526.961 491.348L453.966 490.514Q453.885 481.772 453.963 473.03Z"/>
	<path fill="#A0461E" transform="scale(0.407715 0.407715)" d="M642.928 427.005Q653.688 426.865 664.448 427.016L665.006 427.552C664.998 434.028 665.168 440.4 665.536 446.864C660.768 449.865 651.664 448.372 646.145 448.08C646.372 455.218 646.75 462.393 645.953 469.508C645.204 476.26 646.081 483.208 644.894 489.872C640.733 489.59 633.511 488.477 629.76 490.511L629.015 489.915C622.199 489.787 615.295 489.974 608.495 489.595C608.659 496.756 608.845 503.847 608.334 511L588.407 511.016C588.123 515.271 588.01 519.455 588.098 523.719C588.087 526.469 587.993 529.242 588.169 531.987L567.035 532.013C560.087 531.99 553.112 531.848 546.167 532.042L546.111 553.013C539.794 552.891 533.454 553.028 527.135 553.061L522.999 553.525C515.228 553.723 507.28 553.752 499.514 553.439C498.085 553.297 496.564 553.35 495.123 553.315C489.613 553.493 483.974 553.822 478.525 552.837Q478.792 544.365 478.878 535.889C478.373 534.506 478.544 532.623 478.128 531.104C476.764 524.906 477.355 518.149 477.712 511.85L477.98 510.921C478.832 510.547 496.651 511.074 498.879 511.066C521.458 510.987 543.971 510.244 566.56 510.461C566.36 503.902 566.221 497.389 566.439 490.829C566.492 484.805 566.087 478.467 566.839 472.494L567.092 469.486C569.827 470.51 602.579 469.323 608.11 469.02C615.269 468.728 622.37 468.826 629.531 469.014L629.533 448.01C634.012 447.967 638.498 448.037 642.978 448.057L642.928 427.005Z"/>
	<path fill="#67260C" transform="scale(0.407715 0.407715)" d="M478.878 535.889C478.979 534.653 479.103 533.43 479.259 532.198C485.672 531.281 492.933 531.939 499.44 531.979C499.473 538.698 499.986 545.847 499.248 552.507C497.881 553.023 496.236 552.597 495.123 553.315C489.613 553.493 483.974 553.822 478.525 552.837Q478.792 544.365 478.878 535.889Z"/>
	<path fill="#67260C" transform="scale(0.407715 0.407715)" d="M522.997 532.008L546.167 532.042L546.111 553.013C539.794 552.891 533.454 553.028 527.135 553.061C525.856 552.983 524.592 552.828 523.321 552.674C521.703 546.65 522.852 538.263 522.997 532.008Z"/>
	<path fill="#FEFDFD" transform="scale(0.407715 0.407715)" d="M642.928 427.005Q653.688 426.865 664.448 427.016L665.006 427.552C664.998 434.028 665.168 440.4 665.536 446.864C660.768 449.865 651.664 448.372 646.145 448.08C646.372 455.218 646.75 462.393 645.953 469.508C645.204 476.26 646.081 483.208 644.894 489.872C640.733 489.59 633.511 488.477 629.76 490.511L629.015 489.915C622.199 489.787 615.295 489.974 608.495 489.595C608.659 496.756 608.845 503.847 608.334 511L588.407 511.016C588.123 515.271 588.01 519.455 588.098 523.719C588.087 526.469 587.993 529.242 588.169 531.987L567.035 532.013C566.239 525.038 566.788 517.411 566.738 510.359C573.672 509.416 580.568 509.926 587.53 510.245L587.73 489.006C594.479 488.833 601.321 488.628 608.036 489.41L608.11 469.02C615.269 468.728 622.37 468.826 629.531 469.014L629.533 448.01C634.012 447.967 638.498 448.037 642.978 448.057L642.928 427.005Z"/>
	<path fill="#67260C" transform="scale(0.407715 0.407715)" d="M629.833 469.42L645.953 469.508C645.204 476.26 646.081 483.208 644.894 489.872C640.733 489.59 633.511 488.477 629.76 490.511L629.015 489.915C631.045 485.878 629.938 474.207 629.833 469.42Z"/>
	<path fill="#815A59" transform="scale(0.407715 0.407715)" d="M367.768 426.09C369.903 426.089 372.083 425.991 374.212 426.097C376.053 426.471 378.394 426.339 380.081 426.89C387.789 426.55 395.761 426.23 403.445 427.211C403.473 434.794 403.282 442.446 403.587 450.02C402.151 450.008 401.033 449.731 399.792 450.509Q399.413 452.138 399.089 453.779C398.96 459.216 398.901 464.639 399.231 470.072C405.66 470.031 412.101 469.915 418.53 470L418.475 489.995L438.505 489.998L438.496 510.991L457.91 510.886C460.907 510.979 475.168 510.226 476.76 510.975C477.15 511.159 477.394 511.559 477.712 511.85C477.355 518.149 476.764 524.906 478.128 531.104C478.544 532.623 478.373 534.506 478.878 535.889Q478.792 544.365 478.525 552.837C483.974 553.822 489.613 553.493 495.123 553.315C496.564 553.35 498.085 553.297 499.514 553.439C507.28 553.752 515.228 553.723 522.999 553.525L527.135 553.061C533.454 553.028 539.794 552.891 546.111 553.013L546.167 532.042C553.112 531.848 560.087 531.99 567.035 532.013L588.169 531.987C588.656 539.18 588.378 546.262 587.973 553.445Q597.683 552.921 607.407 552.993C614.112 553.143 620.673 553.77 627.389 553.381L627.358 623.998L607.055 624.01L550.31 624.002C550.462 631.805 550.65 639.61 550.303 647.411L550.884 647.573Q551.101 658.784 550.991 669.997L551.001 700.942L550.997 711.445C551.002 716.381 550.775 721.436 551.126 726.355L550.999 726.729C543.152 726.144 534.744 725.4 526.954 726.911L526.61 726.947C516.69 728.073 506.011 728.044 496.052 727.286L496.026 751.224C488.653 751.082 480.252 750.18 472.992 751.615Q473.163 762.972 472.979 774.328L472.383 774.519Q461.783 774.243 451.187 774.623C450.444 781.425 451.396 786.335 450.982 792.219C450.902 793.351 450.572 794.084 449.879 794.961C446.009 797.333 435.233 796.122 430.519 795.984Q430.365 785.125 430.619 774.267C426.969 773.599 422.766 773.988 419.039 774.002C412.339 774.529 405.675 774.534 398.958 774.501L383.349 774.503C377.736 774.525 372.141 774.556 366.533 774.275L363.617 773.973C362.959 766.691 363.242 759.482 363.454 752.186C363.551 743.794 363.461 735.39 363.462 726.997L339.997 726.752Q334.762 727.119 329.516 726.988Q324.269 726.857 319.059 726.23Q319.222 714.123 319.028 702.017Q318.972 690.01 319.059 678.003C311.936 677.789 304.783 677.919 297.656 677.928C290.266 677.98 282.858 678.129 275.474 677.784C275.275 659.465 275.155 641.336 275.478 623.006L298.014 622.988C297.828 607.286 297.523 591.7 297.823 575.987C305.107 575.942 311.899 576.693 319.2 575.798C319.844 569.01 319.733 561.825 319.348 555.019C318.261 547.659 319.149 539.423 319.475 532.009C326.529 532.078 333.584 532.132 340.612 531.452C340.068 526.351 340.172 521.096 340.046 515.964C339.959 514.294 340.103 512.666 340.235 511.001C340.736 504.665 340.11 497.832 339.998 491.45C332.999 491.349 326.052 491.668 319.067 492.076L319.073 471.594L339.598 471.562C339.563 456.601 339.96 441.455 339.025 426.526C345.672 426.936 352.284 426.398 358.902 426.7C361.876 426.593 364.816 426.497 367.768 426.09Z"/>
	<path fill="#330F05" transform="scale(0.407715 0.407715)" d="M418.616 511.409L435.689 511.463C435.082 518.204 435.385 525.21 435.549 531.976L418.463 532.044Q417.961 526.895 417.999 521.722Q418.038 516.55 418.616 511.409Z"/>
	<path fill="#511705" transform="scale(0.407715 0.407715)" d="M436.042 532.015L456.106 531.99C455.55 538.905 455.926 546.087 455.95 553.034L436.185 553L436.042 532.015Z"/>
	<path fill="#511705" transform="scale(0.407715 0.407715)" d="M480.429 575.808C486.659 576.243 492.856 575.516 499.072 575.761C499.054 582.528 498.82 589.389 499.206 596.142L498.767 597.418C496.001 598.945 481.732 598.025 477.72 598C477.665 594.224 476.685 578.291 478.272 576.105L480.429 575.808Z"/>
	<path fill="#511705" transform="scale(0.407715 0.407715)" d="M523.828 575.5L537.899 575.574C540.621 575.804 543.294 575.927 546.027 575.94L546 598.007L523.724 597.995C523.827 590.834 524.762 582.568 523.828 575.5Z"/>
	<path fill="#67260C" transform="scale(0.407715 0.407715)" d="M499.479 598.463C507.462 598.551 515.473 598.696 523.454 598.427Q523.022 610.707 523.111 622.995Q511.357 622.877 499.605 623.107C498.774 614.879 499.378 606.705 499.479 598.463Z"/>
	<path fill="#5B4143" transform="scale(0.407715 0.407715)" d="M418.421 624L472.544 624.009C472.526 628.115 471.692 644.262 472.885 647.217L472.104 647.573C454.241 647.236 436.335 648.007 418.465 648.003Q418.612 636.001 418.421 624Z"/>
	<path fill="#511705" transform="scale(0.407715 0.407715)" d="M546.167 532.042C553.112 531.848 560.087 531.99 567.035 532.013L588.169 531.987C588.656 539.18 588.378 546.262 587.973 553.445C581.147 553.484 574.229 553.75 567.424 553.188C566.846 560.611 566.934 568.064 567.055 575.504C560.048 575.56 553.019 575.721 546.016 575.508L546.111 553.013L546.167 532.042Z"/>
	<path fill="#FEFDFD" transform="scale(0.407715 0.407715)" d="M546.167 532.042C553.112 531.848 560.087 531.99 567.035 532.013C567.282 538.983 566.91 545.977 567.445 552.933Q556.779 553.1 546.111 553.013L546.167 532.042Z"/>
	<path fill="#EF8D31" transform="scale(0.407715 0.407715)" d="M607.407 552.993C614.112 553.143 620.673 553.77 627.389 553.381L627.358 623.998L607.055 624.01L606.974 581.544C606.966 572.061 606.678 562.449 607.407 552.993Z"/>
	<path fill="#EF8D31" transform="scale(0.407715 0.407715)" d="M399.004 532.006C403.24 531.961 414.842 531.007 418.4 532.339L418.421 624Q418.612 636.001 418.465 648.003L399.076 647.991Q398.896 635.957 399.063 623.922L399.111 616.289C398.77 606.715 399.022 597.036 399.014 587.45L399.004 532.006Z"/>
	<path fill="#E26F1B" transform="scale(0.407715 0.407715)" d="M399.111 616.289C399.275 618.854 399.467 621.418 399.498 623.989L418.421 624Q418.612 636.001 418.465 648.003L399.076 647.991Q398.896 635.957 399.063 623.922L399.111 616.289Z"/>
	<path fill="#F2CF7C" transform="scale(0.407715 0.407715)" d="M499.605 623.107Q511.357 622.877 523.111 622.995L523.514 623.954L550.31 624.002C550.462 631.805 550.65 639.61 550.303 647.411L550.884 647.573Q551.101 658.784 550.991 669.997L551.001 700.942L550.997 711.445C551.002 716.381 550.775 721.436 551.126 726.355L550.999 726.729C543.152 726.144 534.744 725.4 526.954 726.911L526.61 726.947C516.69 728.073 506.011 728.044 496.052 727.286C490.326 725.33 478.281 726.263 472.029 726.831L471.866 725.996C472.288 721.423 472.01 716.642 472.01 712.044L471.994 701.004L471.99 669.879Q471.883 658.725 472.104 647.573L472.885 647.217C471.692 644.262 472.526 628.115 472.544 624.009C481.273 623.927 490.378 622.819 499.023 624.101L499.485 623.431L499.605 623.107Z"/>
	<path fill="#FEFDFD" transform="scale(0.407715 0.407715)" d="M499.605 623.107Q511.357 622.877 523.111 622.995L523.514 623.954L523.491 647.656C515.646 649.244 507.406 648.376 499.48 647.952Q499.326 635.692 499.485 623.431L499.605 623.107Z"/>
	<path fill="#14263E" transform="scale(0.407715 0.407715)" d="M472.544 624.009C481.273 623.927 490.378 622.819 499.023 624.101L499.068 647.061C490.357 646.865 481.577 646.466 472.885 647.217C471.692 644.262 472.526 628.115 472.544 624.009Z"/>
	<path fill="#14263E" transform="scale(0.407715 0.407715)" d="M523.514 623.954L550.31 624.002C550.462 631.805 550.65 639.61 550.303 647.411C541.948 646.097 531.883 646.849 523.491 647.656L523.514 623.954Z"/>
	<path fill="#330F05" transform="scale(0.407715 0.407715)" d="M494.041 670.1L530.001 670.111L529.895 701.982Q511.936 701.953 493.98 702.269L494.041 670.1Z"/>
	<path fill="#FEFDFD" transform="scale(0.407715 0.407715)" d="M367.768 426.09C369.903 426.089 372.083 425.991 374.212 426.097C376.053 426.471 378.394 426.339 380.081 426.89C387.789 426.55 395.761 426.23 403.445 427.211C403.473 434.794 403.282 442.446 403.587 450.02C402.151 450.008 401.033 449.731 399.792 450.509Q399.413 452.138 399.089 453.779C398.96 459.216 398.901 464.639 399.231 470.072C405.66 470.031 412.101 469.915 418.53 470L418.475 489.995L438.505 489.998L438.496 510.991L457.91 510.886C460.907 510.979 475.168 510.226 476.76 510.975C477.15 511.159 477.394 511.559 477.712 511.85C477.355 518.149 476.764 524.906 478.128 531.104C478.544 532.623 478.373 534.506 478.878 535.889Q478.792 544.365 478.525 552.837C483.974 553.822 489.613 553.493 495.123 553.315C496.564 553.35 498.085 553.297 499.514 553.439C507.28 553.752 515.228 553.723 522.999 553.525L527.135 553.061C533.454 553.028 539.794 552.891 546.111 553.013L546.016 575.508C543.316 575.511 540.596 575.442 537.899 575.574L523.828 575.5C522.809 582.721 523.415 590.675 523.453 597.978C518.437 598.025 503.515 599.103 499.676 597.53L499.206 596.142C498.82 589.389 499.054 582.528 499.072 575.761C492.856 575.516 486.659 576.243 480.429 575.808L477.506 575.24C470.573 574.145 463.87 574.559 456.924 575.117L456.539 554.001C456.194 546.815 457.274 539.062 456.106 531.99L436.042 532.015C435.851 525.34 436.732 518.018 435.689 511.463L418.616 511.409Q418.038 516.55 417.999 521.723Q417.961 526.895 418.463 532.044L418.4 532.339C414.842 531.007 403.24 531.961 399.004 532.006C393.149 532.012 387.264 531.888 381.413 532.034C375.459 531.692 369.527 532.145 363.559 531.556L340.612 531.452C340.068 526.351 340.172 521.096 340.046 515.964C339.959 514.294 340.103 512.666 340.235 511.001C340.736 504.665 340.11 497.832 339.998 491.45C332.999 491.349 326.052 491.668 319.067 492.076L319.073 471.594L339.598 471.562C339.563 456.601 339.96 441.455 339.025 426.526C345.672 426.936 352.284 426.398 358.902 426.7C361.876 426.593 364.816 426.497 367.768 426.09Z"/>
	<path fill="#330F05" transform="scale(0.407715 0.407715)" d="M399.105 490.93L417.716 490.684C417.432 497.446 416.702 504.4 418.298 511.039C411.803 510.46 405.516 510.741 399.017 511.03Q399.281 500.981 399.105 490.93Z"/>
	<path fill="#511705" transform="scale(0.407715 0.407715)" d="M457.91 510.886C460.907 510.979 475.168 510.226 476.76 510.975C477.15 511.159 477.394 511.559 477.712 511.85C477.355 518.149 476.764 524.906 478.128 531.104C471.402 531.057 464.665 531.203 457.939 531.267L457.91 510.886Z"/>
	<path fill="#511705" transform="scale(0.407715 0.407715)" d="M456.539 554.001L477.602 553.894Q477.495 564.567 477.506 575.24C470.573 574.145 463.87 574.559 456.924 575.117L456.539 554.001Z"/>
	<path fill="#511705" transform="scale(0.407715 0.407715)" d="M499.514 553.439C507.28 553.752 515.228 553.723 522.999 553.525C522.908 560.712 522.981 567.908 522.979 575.096C515.151 575.008 507.314 575.095 499.485 575.101L499.514 553.439Z"/>
	<path fill="#AC541E" transform="scale(0.407715 0.407715)" d="M380.081 426.89C387.789 426.55 395.761 426.23 403.445 427.211C403.473 434.794 403.282 442.446 403.587 450.02C402.151 450.008 401.033 449.731 399.792 450.509Q399.413 452.138 399.089 453.779C399.116 452.071 399.239 450.521 398.591 448.901C393.759 447.491 384.524 448.503 379.285 448.54C380.972 441.605 379.839 434 380.081 426.89Z"/>
	<path fill="#14263E" transform="scale(0.407715 0.407715)" d="M339.025 426.526C345.672 426.936 352.284 426.398 358.902 426.7C359.286 433.89 359.14 441.067 359.036 448.262C365.723 448.249 372.476 447.798 379.132 448.482C378.586 456.013 378.602 463.352 379.015 470.901C385.529 470.881 392.058 470.958 398.565 470.615C399.708 477.199 398.543 484.259 399.105 490.93Q399.281 500.981 399.017 511.03C405.516 510.741 411.803 510.46 418.298 511.039L418.616 511.409Q418.038 516.55 417.999 521.723Q417.961 526.895 418.463 532.044L418.4 532.339C414.842 531.007 403.24 531.961 399.004 532.006C393.149 532.012 387.264 531.888 381.413 532.034C375.459 531.692 369.527 532.145 363.559 531.556L340.612 531.452C340.068 526.351 340.172 521.096 340.046 515.964C339.959 514.294 340.103 512.666 340.235 511.001C340.736 504.665 340.11 497.832 339.998 491.45C332.999 491.349 326.052 491.668 319.067 492.076L319.073 471.594L339.598 471.562C339.563 456.601 339.96 441.455 339.025 426.526Z"/>
	<path fill="#4F4C59" transform="scale(0.407715 0.407715)" d="M398.565 470.615C399.708 477.199 398.543 484.259 399.105 490.93Q399.281 500.981 399.017 511.03C387.808 512.596 374.22 512.871 363.008 511.296L363.002 491.506C374.684 491.651 386.971 492.433 398.558 490.898C398.226 484.185 398.199 477.328 398.565 470.615Z"/>
	<path fill="#5B4143" transform="scale(0.407715 0.407715)" d="M340.235 511.001C347.781 510.297 355.505 510.068 363.008 511.296C374.22 512.871 387.808 512.596 399.017 511.03C405.516 510.741 411.803 510.46 418.298 511.039L418.616 511.409Q418.038 516.55 417.999 521.723Q417.961 526.895 418.463 532.044L418.4 532.339C414.842 531.007 403.24 531.961 399.004 532.006C393.149 532.012 387.264 531.888 381.413 532.034C375.459 531.692 369.527 532.145 363.559 531.556L340.612 531.452C340.068 526.351 340.172 521.096 340.046 515.964C339.959 514.294 340.103 512.666 340.235 511.001Z"/>
	<path fill="#AC541E" transform="scale(0.407715 0.407715)" d="M399.017 511.03C405.516 510.741 411.803 510.46 418.298 511.039L418.616 511.409Q418.038 516.55 417.999 521.723Q417.961 526.895 418.463 532.044L418.4 532.339C414.842 531.007 403.24 531.961 399.004 532.006L399.017 511.03Z"/>
	<path fill="#0B0B0C" transform="scale(0.407715 0.407715)" d="M319.475 532.009C326.529 532.078 333.584 532.132 340.612 531.452L363.559 531.556C369.527 532.145 375.459 531.692 381.413 532.034C387.264 531.888 393.149 532.012 399.004 532.006L399.014 587.45C399.022 597.036 398.77 606.715 399.111 616.289L399.063 623.922Q398.896 635.957 399.076 647.991L418.465 648.003C436.335 648.007 454.241 647.236 472.104 647.573Q471.883 658.725 471.99 669.879L471.994 701.004L472.01 712.044C472.01 716.642 472.288 721.423 471.866 725.996L472.029 726.831C478.281 726.263 490.326 725.33 496.052 727.286L496.026 751.224C488.653 751.082 480.252 750.18 472.992 751.615Q473.163 762.972 472.979 774.328L472.383 774.519Q461.783 774.243 451.187 774.623C450.444 781.425 451.396 786.335 450.982 792.219C450.902 793.351 450.572 794.084 449.879 794.961C446.009 797.333 435.233 796.122 430.519 795.984Q430.365 785.125 430.619 774.267C426.969 773.599 422.766 773.988 419.039 774.002C412.339 774.529 405.675 774.534 398.958 774.501L383.349 774.503C377.736 774.525 372.141 774.556 366.533 774.275L363.617 773.973C362.959 766.691 363.242 759.482 363.454 752.186C363.551 743.794 363.461 735.39 363.462 726.997L339.997 726.752Q334.762 727.119 329.516 726.988Q324.269 726.857 319.059 726.23Q319.222 714.123 319.028 702.017Q318.972 690.01 319.059 678.003C311.936 677.789 304.783 677.919 297.656 677.928C290.266 677.98 282.858 678.129 275.474 677.784C275.275 659.465 275.155 641.336 275.478 623.006L298.014 622.988C297.828 607.286 297.523 591.7 297.823 575.987C305.107 575.942 311.899 576.693 319.2 575.798C319.844 569.01 319.733 561.825 319.348 555.019C318.261 547.659 319.149 539.423 319.475 532.009Z"/>
	<path fill="#67260C" transform="scale(0.407715 0.407715)" d="M363.176 711.914C369.817 711.908 376.524 712.088 383.156 711.796C382.638 716.8 381.951 721.973 382.722 726.98L363.462 726.997C363.492 721.973 363.291 716.936 363.176 711.914Z"/>
	<path fill="#14263E" transform="scale(0.407715 0.407715)" d="M339.994 712.01L363.176 711.914C363.291 716.936 363.492 721.973 363.462 726.997L339.997 726.752L339.994 712.01Z"/>
	<path fill="#67260C" transform="scale(0.407715 0.407715)" d="M364.484 669.068L364.743 669.347C363.489 679.07 364.588 690.662 364.726 700.595C356.63 701.004 348.54 700.992 340.436 701.001L340.435 669.016Q352.46 668.96 364.484 669.068Z"/>
	<path fill="#511705" transform="scale(0.407715 0.407715)" d="M400.966 712.052Q436.488 711.833 472.01 712.044C472.01 716.642 472.288 721.423 471.866 725.996C464.874 726.963 457.997 727.057 450.952 727.008L418.917 727.025L418.875 727.346C415.184 726.271 403.07 726.498 399.064 727.339L398.994 727.079C399.859 722.283 399.281 716.877 399.086 712.013L400.966 712.052Z"/>
	<path fill="#AC541E" transform="scale(0.407715 0.407715)" d="M399.086 712.013L400.966 712.052C406.592 713.06 412.843 712.537 418.555 712.42C418.516 717.219 418.185 722.274 418.917 727.025L418.875 727.346C415.184 726.271 403.07 726.498 399.064 727.339L398.994 727.079C399.859 722.283 399.281 716.877 399.086 712.013Z"/>
	<path fill="#815A59" transform="scale(0.407715 0.407715)" d="M383.156 711.796Q391.13 711.207 399.086 712.013C399.281 716.877 399.859 722.283 398.994 727.079L399.064 727.339C403.07 726.498 415.184 726.271 418.875 727.346Q419.181 740.062 418.983 752.781L419.039 774.002C412.339 774.529 405.675 774.534 398.958 774.501L383.349 774.503C377.736 774.525 372.141 774.556 366.533 774.275L363.617 773.973C362.959 766.691 363.242 759.482 363.454 752.186C363.551 743.794 363.461 735.39 363.462 726.997L382.722 726.98C381.951 721.973 382.638 716.8 383.156 711.796Z"/>
	<path fill="#511705" transform="scale(0.407715 0.407715)" d="M383.156 711.796Q391.13 711.207 399.086 712.013C399.281 716.877 399.859 722.283 398.994 727.079C393.605 726.836 388.121 727.001 382.722 726.98C381.951 721.973 382.638 716.8 383.156 711.796Z"/>
	<path fill="#AC541E" transform="scale(0.407715 0.407715)" d="M363.462 726.997L382.722 726.98C384.394 741.991 382.561 759.051 383.349 774.503C377.736 774.525 372.141 774.556 366.533 774.275L363.617 773.973C362.959 766.691 363.242 759.482 363.454 752.186C363.551 743.794 363.461 735.39 363.462 726.997Z"/>
	<path fill="#EF8D31" transform="scale(0.407715 0.407715)" d="M399.064 727.339C403.07 726.498 415.184 726.271 418.875 727.346Q419.181 740.062 418.983 752.781L419.039 774.002C412.339 774.529 405.675 774.534 398.958 774.501L399.064 727.339Z"/>
	<path fill="#AC541E" transform="scale(0.407715 0.407715)" d="M364.743 669.347C400.476 669.982 436.283 668.907 471.99 669.879L471.994 701.004L364.726 700.595C364.588 690.662 363.489 679.07 364.743 669.347Z"/>
	<path fill="#FEFDFD" transform="scale(0.407715 0.407715)" d="M450.952 727.008C457.997 727.057 464.874 726.963 471.866 725.996L472.029 726.831C478.281 726.263 490.326 725.33 496.052 727.286L496.026 751.224C488.653 751.082 480.252 750.18 472.992 751.615Q473.163 762.972 472.979 774.328L472.383 774.519Q461.783 774.243 451.187 774.623C450.444 781.425 451.396 786.335 450.982 792.219C450.902 793.351 450.572 794.084 449.879 794.961C446.009 797.333 435.233 796.122 430.519 795.984Q430.365 785.125 430.619 774.267C426.969 773.599 422.766 773.988 419.039 774.002L418.983 752.781Q419.181 740.062 418.875 727.346L418.917 727.025L450.952 727.008Z"/>
	<path fill="#14263E" transform="scale(0.407715 0.407715)" d="M430.994 751.547C437.67 751.589 444.344 751.246 451.013 750.983L450.959 773.997C444.346 773.972 437.624 773.728 431.028 774.157L430.619 774.267C426.969 773.599 422.766 773.988 419.039 774.002L418.983 752.781C423.063 752.598 426.97 752.248 430.994 751.547Z"/>
	<path fill="#A0461E" transform="scale(0.407715 0.407715)" d="M418.983 752.781C423.063 752.598 426.97 752.248 430.994 751.547C430.951 759.078 430.803 766.629 431.028 774.157L430.619 774.267C426.969 773.599 422.766 773.988 419.039 774.002L418.983 752.781Z"/>
	<path fill="#815A59" transform="scale(0.407715 0.407715)" d="M450.952 727.008C457.997 727.057 464.874 726.963 471.866 725.996L472.029 726.831C471.953 734.683 471.487 742.827 472.332 750.639L462.162 750.58Q456.589 750.831 451.013 750.983C444.344 751.246 437.67 751.589 430.994 751.547C426.97 752.248 423.063 752.598 418.983 752.781Q419.181 740.062 418.875 727.346L418.917 727.025L450.952 727.008Z"/>
	<path fill="#67260C" transform="scale(0.407715 0.407715)" d="M450.952 727.008C457.997 727.057 464.874 726.963 471.866 725.996L472.029 726.831C471.953 734.683 471.487 742.827 472.332 750.639L462.162 750.58C458.486 750.188 454.711 750.375 451.014 750.411Q451.093 738.709 450.952 727.008Z"/>
	<path fill="#14263E" transform="scale(0.407715 0.407715)" d="M319.475 532.009C326.529 532.078 333.584 532.132 340.612 531.452L363.559 531.556C369.527 532.145 375.459 531.692 381.413 532.034C387.264 531.888 393.149 532.012 399.004 532.006L399.014 587.45C399.022 597.036 398.77 606.715 399.111 616.289L399.063 623.922Q398.896 635.957 399.076 647.991L418.465 648.003C436.335 648.007 454.241 647.236 472.104 647.573Q471.883 658.725 471.99 669.879C436.283 668.907 400.476 669.982 364.743 669.347L364.484 669.068C362.01 663.497 363.412 654.105 363.599 647.976Q351.787 648.126 339.978 648.464L339.927 598.979L319.031 599.031L319.059 678.003C311.936 677.789 304.783 677.919 297.656 677.928C290.266 677.98 282.858 678.129 275.474 677.784C275.275 659.465 275.155 641.336 275.478 623.006L298.014 622.988C297.828 607.286 297.523 591.7 297.823 575.987C305.107 575.942 311.899 576.693 319.2 575.798C319.844 569.01 319.733 561.825 319.348 555.019C318.261 547.659 319.149 539.423 319.475 532.009Z"/>
	<path fill="#5B4143" transform="scale(0.407715 0.407715)" d="M319.475 532.009C326.529 532.078 333.584 532.132 340.612 531.452C340.513 539.339 340.704 547.116 341.051 554.996L319.348 555.019C318.261 547.659 319.149 539.423 319.475 532.009Z"/>
	<path fill="#5B4143" transform="scale(0.407715 0.407715)" d="M363.995 624.076C375.676 624.026 387.386 624.155 399.063 623.922Q398.896 635.957 399.076 647.991C387.316 647.954 375.665 648.647 363.906 647.96L363.995 624.076Z"/>
	<path fill="#815A59" transform="scale(0.407715 0.407715)" d="M363.559 531.556C369.527 532.145 375.459 531.692 381.413 532.034C387.264 531.888 393.149 532.012 399.004 532.006L399.014 587.45C399.022 597.036 398.77 606.715 399.111 616.289L399.063 623.922C387.386 624.155 375.676 624.026 363.995 624.076C363.878 600.539 364.546 576.921 363.767 553.401C362.863 546.42 363.522 538.626 363.559 531.556Z"/>
	<path fill="#67260C" transform="scale(0.407715 0.407715)" d="M363.559 531.556C369.527 532.145 375.459 531.692 381.413 532.034L381.455 553.252C375.561 553.307 369.66 553.428 363.767 553.401C362.863 546.42 363.522 538.626 363.559 531.556Z"/>
</svg>
