<?xml version="1.0" encoding="utf-8" ?>
<svg xmlns="http://www.w3.org/2000/svg" xmlns:xlink="http://www.w3.org/1999/xlink" width="417" height="417">
	<path transform="scale(0.407715 0.407715)" d="M676.548 107.987L677.348 108.337C678.259 115.29 677.499 123.146 677.498 130.19C675.257 125.082 676.225 113.8 676.548 107.987Z"/>
	<path transform="scale(0.407715 0.407715)" d="M134.643 407.563L157.497 407.671C157.499 415.467 157.09 423.506 157.647 431.269C149.915 431.22 142.167 431.174 134.443 431.565C135.335 423.605 134.891 415.55 134.643 407.563Z"/>
	<path transform="scale(0.407715 0.407715)" d="M157.559 384.058C165.223 383.949 172.901 384.033 180.567 384.029C180.568 391.519 181.378 400.072 180.297 407.438Q168.898 407.617 157.497 407.671C157.875 399.811 157.662 391.924 157.559 384.058Z"/>
	<path transform="scale(0.407715 0.407715)" d="M865.486 407.282L888.45 407.456C888.458 415.423 888.223 423.472 888.553 431.428C880.747 431.101 872.964 431.255 865.16 431.527C864.82 423.558 865.084 415.251 865.486 407.282Z"/>
	<path transform="scale(0.407715 0.407715)" d="M652.598 108.06L676.548 107.987C676.225 113.8 675.257 125.082 677.498 130.19L677.525 131.511Q664.971 131.587 652.424 132.022C651.181 125.231 651.865 117.266 652.22 110.382C652.493 109.734 652.501 108.768 652.598 108.06Z"/>
	<path transform="scale(0.407715 0.407715)" d="M888.553 431.428Q900.263 431.61 911.975 431.569L911.968 483.46L888.464 483.48L888.554 456.986L888.553 431.428Z"/>
	<path transform="scale(0.407715 0.407715)" d="M110.557 432.019L134.383 431.942C134.855 440.52 134.47 448.994 134.514 457.563L134.554 458.003L134.493 483.459C126.563 483.212 118.592 483.4 110.657 483.436L110.557 432.019Z"/>
	<path transform="scale(0.407715 0.407715)" d="M395.414 61.5848C399.461 61.5597 417.413 60.7137 420.205 61.974C421.182 69.3996 420.57 77.4897 420.481 84.9904C420.44 92.6167 420.106 100.363 420.432 107.976C412.154 107.589 403.757 107.917 395.468 108.007L372.673 108.031C373.797 100.599 372.899 91.7639 372.871 84.2118L395.399 84.451L395.414 61.5848ZM419.891 84.9436L420.481 84.9904C420.57 77.4897 421.182 69.3996 420.205 61.974C418.528 64.5243 419.089 80.9252 419.758 84.3499Q419.817 84.6484 419.891 84.9436Z"/>
	<path transform="scale(0.407715 0.407715)" d="M419.891 84.9436Q419.817 84.6483 419.758 84.3499C419.089 80.9252 418.528 64.5243 420.205 61.974C421.182 69.3996 420.57 77.4897 420.481 84.9904L419.891 84.9436Z"/>
	<path fill="#222023" transform="scale(0.407715 0.407715)" d="M419.891 84.9436L420.481 84.9904C420.44 92.6167 420.106 100.363 420.432 107.976C412.154 107.589 403.757 107.917 395.468 108.007L395.483 85.018Q407.687 85.1187 419.891 84.9436Z"/>
	<path transform="scale(0.407715 0.407715)" d="M602.521 61.1856C611.156 61.1882 619.81 61.0671 628.442 61.2346L628.495 84.191C636.3 84.1157 644.428 83.6294 652.19 84.3749C652.722 92.0199 652.212 99.7138 652.34 107.375L652.598 108.06C652.501 108.768 652.493 109.734 652.22 110.382C652.048 109.53 651.939 109.332 651.46 108.652C644.276 107.972 636.638 108.494 629.407 108.49C620.454 108.484 611.367 108.055 602.431 108.501L602.217 108.305C602.993 100.541 602.272 92.3803 602.107 84.5756C601.978 76.8987 601.416 68.8051 602.521 61.1856Z"/>
	<path fill="#222023" transform="scale(0.407715 0.407715)" d="M602.107 84.5756C606.453 86.215 622.879 84.4711 628.51 84.493L628.486 108.054C632.503 108.101 650.249 108.987 652.34 107.375L652.598 108.06C652.501 108.768 652.493 109.734 652.22 110.382C652.048 109.53 651.939 109.332 651.46 108.652C644.276 107.972 636.638 108.494 629.407 108.49C620.454 108.484 611.367 108.055 602.431 108.501L602.217 108.305C602.993 100.541 602.272 92.3803 602.107 84.5756Z"/>
	<path transform="scale(0.407715 0.407715)" d="M888.61 588.015C892.664 588.002 909.598 587.148 912.188 588.435L912.059 589.332C913.121 597.645 912.41 606.832 912.417 615.238L912.452 666.707L912.501 750.615C912.509 764.977 913.066 779.579 912.427 793.918Q912.661 824.941 912.527 855.965Q900.389 856.06 888.25 856.03Q888.217 867.49 888.373 878.948L752.566 878.995L752.582 855.958Q741.072 855.875 729.562 855.977C729.571 844.473 729.458 832.953 729.618 821.451L753.042 821.497L752.951 856.083C761.336 856.255 769.748 856.621 778.134 856.463L795.572 856.486L795.575 832.226C795.796 829.423 795.914 826.659 795.922 823.847Q807.961 824.198 820.003 824.03C820.051 828.214 819.854 832.585 820.428 836.728L820.467 855.98L841.765 855.987Q841.756 839.981 841.982 823.977L866.007 823.993L866.045 855.989L888.074 855.987L888.115 841.043L888.076 832.657C888.861 825.308 888.486 817.505 888.503 810.098L888.458 768.205C888.444 729.076 889.038 689.878 888.431 650.758C889.013 629.901 888.569 608.888 888.61 588.015ZM912.059 589.332C911.274 597.003 911.734 605.029 911.744 612.748Q911.831 634.145 911.685 655.541Q911.16 722.429 911.372 789.318C911.377 811.175 911.923 833.158 911.302 854.996L911.813 855.054L911.991 854.872C911.89 847.089 911.094 798.135 912.427 793.918C913.066 779.579 912.509 764.977 912.501 750.615L912.452 666.707L912.417 615.238C912.41 606.832 913.121 597.645 912.059 589.332Z"/>
	<path transform="scale(0.407715 0.407715)" d="M912.059 589.332C913.121 597.645 912.41 606.832 912.417 615.238L912.452 666.707L912.501 750.615C912.509 764.977 913.066 779.579 912.427 793.918C911.094 798.135 911.89 847.089 911.991 854.872L911.813 855.054L911.302 854.996C911.923 833.158 911.377 811.175 911.372 789.318Q911.16 722.43 911.685 655.541Q911.831 634.145 911.744 612.748C911.734 605.029 911.274 597.003 912.059 589.332Z"/>
	<path fill="#413C42" transform="scale(0.407715 0.407715)" d="M839.079 511.571C846.734 511.509 854.481 511.205 862.125 511.574C863.578 511.585 864.857 511.33 866.123 512.084C867.079 517.874 866.501 524.586 866.431 530.467Q866.626 547.035 866.565 563.604C866.568 571.705 866.814 579.93 866.314 588.012Q877.462 588.084 888.61 588.015C888.569 608.888 889.013 629.901 888.431 650.758C889.038 689.878 888.444 729.076 888.458 768.205L888.503 810.098C888.486 817.505 888.861 825.308 888.076 832.657L888.115 841.043L888.074 855.987L866.045 855.989L866.007 823.993L841.982 823.977Q841.756 839.981 841.765 855.987L820.467 855.98L820.428 836.728C819.854 832.585 820.051 828.214 820.003 824.03Q807.961 824.198 795.922 823.847C795.914 826.659 795.796 829.423 795.575 832.226L795.572 856.486L778.134 856.463C769.748 856.621 761.336 856.255 752.951 856.083L753.042 821.497C752.27 805.788 753.009 789.715 753.086 773.965C754.521 763.669 753.608 752.713 753.555 742.334L753.484 688.809L753.48 579.865C753.481 557.245 753.787 534.585 753.144 511.974L805.398 511.815C816.628 511.719 827.847 511.245 839.079 511.571Z"/>
	<path fill="#413C42" transform="scale(0.407715 0.407715)" d="M866.481 824.038L887.882 824C887.834 826.903 887.904 829.759 888.076 832.657L888.115 841.043Q877.217 841.319 866.316 841.18L866.481 824.038Z"/>
	<path fill="#222023" transform="scale(0.407715 0.407715)" d="M842.051 800.93Q854.043 800.881 866.034 800.708L866.007 823.993L841.982 823.977L842.051 800.93Z"/>
	<path fill="#5A555A" transform="scale(0.407715 0.407715)" d="M862.125 511.574C863.578 511.585 864.857 511.33 866.123 512.084C867.079 517.874 866.501 524.586 866.431 530.467C865.305 537.688 866.001 545.825 866.067 553.138Q866.313 570.555 865.925 587.969C850.793 588.187 835.633 588.008 820.498 588.018L820.589 563.259L843.57 563.054C843.615 546.045 843.434 529.001 843.824 511.998C849.901 512.067 856.067 512.086 862.125 511.574Z"/>
	<path fill="#5A555A" transform="scale(0.407715 0.407715)" d="M866.314 588.012Q877.462 588.084 888.61 588.015C888.569 608.888 889.013 629.901 888.431 650.758C886.983 657.76 888.058 678.286 888.053 686.699L887.991 775.051C872.986 775.074 857.977 775.455 842.974 775.068L842.987 751.439Q854.496 751.135 866.009 750.985L866.352 640.315Q866.399 624.903 866.192 609.492C866.091 602.388 865.678 595.092 866.314 588.012Z"/>
	<path fill="#222023" transform="scale(0.407715 0.407715)" d="M753.144 511.974L805.398 511.815C816.628 511.719 827.847 511.245 839.079 511.571C832.94 512.131 826.665 511.952 820.5 512.006L820.519 535.999L776.109 536.033L776.496 772.505L796.502 772.495L796.488 801.016C804.323 801.007 812.19 801.128 820.014 800.668C820.071 812.431 821.502 825.064 820.428 836.728C819.854 832.585 820.051 828.214 820.003 824.03Q807.961 824.198 795.922 823.847C795.914 826.659 795.796 829.423 795.575 832.226L795.572 856.486L778.134 856.463C769.748 856.621 761.336 856.255 752.951 856.083L753.042 821.497C752.27 805.788 753.009 789.715 753.086 773.965C754.521 763.669 753.608 752.713 753.555 742.334L753.484 688.809L753.48 579.865C753.481 557.245 753.787 534.585 753.144 511.974Z"/>
	<path fill="#413C42" transform="scale(0.407715 0.407715)" d="M774.498 823.492L795.426 823.592C795.37 826.481 795.456 829.34 795.575 832.226L795.572 856.486L778.134 856.463C777.05 856.306 776.028 856.069 774.968 855.804C773.492 853.082 774.465 828.35 774.498 823.492Z"/>
	<path transform="scale(0.407715 0.407715)" d="M395.468 108.007C403.757 107.917 412.154 107.589 420.432 107.976C436.027 107.58 451.67 107.828 467.27 107.835L550.788 107.924L584.448 107.907C589.994 107.896 596.828 107.153 602.217 108.305L602.431 108.501C611.367 108.055 620.454 108.484 629.407 108.49C636.638 108.494 644.276 107.972 651.46 108.652C651.939 109.332 652.048 109.53 652.22 110.382C651.865 117.266 651.181 125.231 652.424 132.022Q664.971 131.587 677.525 131.511L677.628 131.839Q689.467 131.834 701.305 131.995C701.714 153.73 701.467 175.5 701.484 197.24L701.566 312.503L752.523 312.144L752.543 336.852L818.902 336.586C818.897 344.268 818.783 351.968 818.928 359.648L841.853 359.526C841.757 367.349 841.547 375.191 841.7 383.013C849.493 383.034 857.296 382.964 865.087 383.078C865.084 391.069 864.86 399.132 865.233 407.112L865.486 407.282C865.084 415.251 864.82 423.558 865.16 431.527C872.964 431.255 880.747 431.101 888.553 431.428L888.554 456.986L888.464 483.48L888.5 551.861C888.507 563.882 888.184 576.005 888.61 588.015Q877.462 588.084 866.314 588.012C866.814 579.93 866.568 571.705 866.565 563.604Q866.626 547.035 866.431 530.467C866.501 524.586 867.079 517.874 866.123 512.084C864.857 511.33 863.578 511.585 862.125 511.574C854.481 511.205 846.734 511.509 839.079 511.571C827.847 511.245 816.628 511.719 805.398 511.815L753.144 511.974C753.787 534.585 753.481 557.245 753.48 579.865L753.484 688.809L753.555 742.334C753.608 752.713 754.521 763.669 753.086 773.965L705.53 773.999L705.536 899.56L731.555 899.525L731.55 950.56L613.5 950.517C592.735 950.554 571.673 951.392 550.947 950.536C550.597 940.579 550.828 930.654 550.743 920.699Q550.431 871.348 551.111 822.002L498.966 822.225C490.534 822.261 481.568 822.907 473.182 822.247L473.486 950.517C451.529 951.485 429.548 950.582 407.579 950.549L294.074 950.453L294.04 900.056L319.568 899.981C319.589 870.362 318.719 840.434 319.828 810.845C319.984 797.794 319.507 784.777 320.021 771.726C303.985 771.828 287.931 771.55 271.901 771.789L271.958 818.03C279.315 818.038 286.711 817.883 294.063 818.087L293.992 856.53Q282.755 856.755 271.515 856.688L271.466 879.027L136.031 878.978L136.065 856.646L135.943 856.019C127.674 855.789 119.386 855.945 111.114 855.998L111.139 588.06L135.013 588.044Q134.393 535.752 134.493 483.459L134.554 458.003L134.514 457.563C134.47 448.994 134.855 440.52 134.383 431.942L134.443 431.565C142.167 431.174 149.915 431.22 157.647 431.269C157.09 423.506 157.499 415.467 157.497 407.671Q168.898 407.617 180.297 407.438C181.378 400.072 180.568 391.519 180.567 384.029L180.992 383.907C182.139 376.582 181.485 368.389 181.475 360.953C189.492 360.933 197.539 361.044 205.544 360.591L205.542 337.107C227.369 337.009 249.444 336.417 271.242 337.273L271.245 312.034L322.503 312.05L322.553 132.044L346.571 132.014Q346.494 120.018 346.669 108.024L372.673 108.031L395.468 108.007Z"/>
	<path fill="#222023" transform="scale(0.407715 0.407715)" d="M227.033 839.772C234.318 840.193 241.68 840.1 248.971 839.851L248.964 856.515L227.029 856.509L227.033 839.772Z"/>
	<path fill="#222023" transform="scale(0.407715 0.407715)" d="M136.029 839.761C143.461 840.407 151.132 840.041 158.596 839.992C158.722 845.639 158.907 851.293 158.961 856.942C151.315 856.957 143.703 857.02 136.065 856.646L135.943 856.019C136.095 850.612 136.003 845.171 136.029 839.761Z"/>
	<path fill="#413C42" transform="scale(0.407715 0.407715)" d="M227.001 817.997L249.006 818.041L248.971 839.851C241.68 840.1 234.318 840.193 227.033 839.772L227.001 817.997Z"/>
	<path fill="#222023" transform="scale(0.407715 0.407715)" d="M575.354 833.476C610.381 833.641 645.6 834.492 680.602 833.013L680.937 854.051C645.817 854.105 610.573 854.94 575.465 854.365C575.498 847.393 574.973 840.449 575.354 833.476Z"/>
	<path fill="#222023" transform="scale(0.407715 0.407715)" d="M344.564 795.345C346.082 805.153 345.147 822.503 344.793 832.887C379.837 832.51 414.941 833.136 449.967 832.458L449.975 854.047Q397.233 854.793 344.492 854.033C344.471 834.48 344.239 814.894 344.564 795.345Z"/>
	<path fill="#222023" transform="scale(0.407715 0.407715)" d="M775.956 456.979L888.554 456.986L888.464 483.48C851.067 483.588 813.551 484.152 776.166 483.422C774.588 475.013 775.763 465.533 775.956 456.979Z"/>
	<path fill="#222023" transform="scale(0.407715 0.407715)" d="M270.574 438.431C271.911 453.445 270.833 468.97 270.978 484.047C232.801 484.016 194.506 484.639 156.349 483.5C149.056 483.361 141.787 483.266 134.493 483.459L134.554 458.003C141.734 458.001 149.436 457.315 156.552 457.891C161.583 458.086 166.703 457.703 171.747 457.653L198.399 457.651L270.508 457.489C270.46 451.139 270.329 444.779 270.574 438.431Z"/>
	<path fill="#413C42" transform="scale(0.407715 0.407715)" d="M134.554 458.003C141.734 458.001 149.436 457.315 156.552 457.891C156.499 466.389 156.784 475.02 156.349 483.5C149.056 483.361 141.787 483.266 134.493 483.459L134.554 458.003Z"/>
	<path fill="#413C42" transform="scale(0.407715 0.407715)" d="M344.505 791.769C371.194 790.556 398.327 791.497 425.059 791.542L425.001 811.801C433.272 811.334 441.708 811.368 449.992 811.56L449.967 832.458C414.941 833.136 379.837 832.51 344.793 832.887C345.147 822.503 346.082 805.153 344.564 795.345L344.505 791.769Z"/>
	<path fill="#222023" transform="scale(0.407715 0.407715)" d="M575.479 874.832C587.452 874.416 599.495 874.906 611.477 874.943L680.407 875.058C680.499 883.364 680.193 891.678 679.977 899.98C688.496 899.926 697.019 899.708 705.536 899.56Q704.898 913.079 704.999 926.613C661.965 928.268 618.575 927.167 575.499 927.029L575.496 901L575.479 874.832Z"/>
	<path fill="#222023" transform="scale(0.407715 0.407715)" d="M319.568 899.981C319.589 870.362 318.719 840.434 319.828 810.845C320.466 840.471 320.189 870.388 319.794 900.021L344.537 900.009Q344.436 887.484 344.954 874.97C364.009 874.626 383.063 875.123 402.119 874.91C418.013 874.732 434.077 873.726 449.953 874.361L449.968 926.983L319.505 926.975L319.568 899.981Z"/>
	<path fill="#222023" transform="scale(0.407715 0.407715)" d="M203.235 511.415C225.694 511.214 248.438 510.284 270.867 511.397L270.523 691.187L270.704 740.999C270.733 751.091 270.081 761.49 271.355 771.526C263.93 772.18 256.442 772.043 248.999 771.779Q249.145 794.91 249.006 818.041L227.001 817.997Q215.503 817.834 204.006 818.087L204.001 795.999L226.088 795.999C226.392 787.837 226.389 779.647 226.509 771.48L248.983 771.504L248.805 534.511C233.554 534.477 218.283 534.934 203.027 534.987L203.235 511.415Z"/>
	<path fill="#413C42" transform="scale(0.407715 0.407715)" d="M205.997 360.324C215.12 359.817 224.347 359.938 233.485 359.822C245.967 359.663 258.433 359.368 270.903 360.11L270.864 377.713C270.925 397.949 270.404 418.185 270.574 438.431C270.329 444.779 270.46 451.139 270.508 457.489L198.399 457.651L171.747 457.653C166.703 457.703 161.583 458.086 156.552 457.891C149.436 457.315 141.734 458.001 134.554 458.003L134.514 457.563C134.47 448.994 134.855 440.52 134.383 431.942L134.443 431.565C142.167 431.174 149.915 431.22 157.647 431.269C157.09 423.506 157.499 415.467 157.497 407.671Q168.898 407.617 180.297 407.438C181.378 400.072 180.568 391.519 180.567 384.029L180.992 383.907C188.303 384.035 195.977 383.518 203.221 384.158C203.976 384.075 204.709 383.89 205.451 383.73C206.463 382.113 206.136 380.57 206.114 378.706C205.826 372.594 205.979 366.442 205.997 360.324Z"/>
	<path fill="#5A555A" transform="scale(0.407715 0.407715)" d="M180.992 383.907C188.303 384.035 195.977 383.518 203.221 384.158C203.903 391.835 203.516 399.76 203.502 407.471C200.529 407.538 182.09 407.151 180.935 408.228C180.878 408.282 180.855 408.364 180.815 408.432L180.297 407.438C181.378 400.072 180.568 391.519 180.567 384.029L180.992 383.907Z"/>
	<path fill="#676266" transform="scale(0.407715 0.407715)" d="M157.497 407.671Q168.898 407.617 180.297 407.438L180.815 408.432C181.179 416.373 181.022 424.356 181.009 432.305C173.585 432.533 165.657 433.273 158.348 431.772C158.243 431.751 158.137 431.733 158.031 431.713L157.647 431.269C157.09 423.506 157.499 415.467 157.497 407.671Z"/>
	<path fill="#5A555A" transform="scale(0.407715 0.407715)" d="M157.647 431.269L158.031 431.713C155.779 434.626 157.092 452.414 156.415 457.378Q145.465 457.541 134.514 457.563C134.47 448.994 134.855 440.52 134.383 431.942L134.443 431.565C142.167 431.174 149.915 431.22 157.647 431.269Z"/>
	<path fill="#5A555A" transform="scale(0.407715 0.407715)" d="M205.997 360.324C215.12 359.817 224.347 359.938 233.485 359.822C245.967 359.663 258.433 359.368 270.903 360.11L270.864 377.713C270.51 379.652 270.319 381.511 270.24 383.48C257.17 383.473 244.075 383.63 231.009 383.38Q231.365 395.249 231.042 407.119Q219.033 407.709 207.019 407.252C207.059 400.063 208.039 384.871 206.114 378.706C205.826 372.594 205.979 366.442 205.997 360.324Z"/>
	<path fill="#413C42" transform="scale(0.407715 0.407715)" d="M752.847 360.149Q774.926 359.933 797.005 359.989Q807.988 360.158 818.971 360.006C818.776 367.65 817.792 376.499 819.358 383.963C826.714 383.213 834.303 383.193 841.7 383.013C849.493 383.034 857.296 382.964 865.087 383.078C865.084 391.069 864.86 399.132 865.233 407.112L865.486 407.282C865.084 415.251 864.82 423.558 865.16 431.527C872.964 431.255 880.747 431.101 888.553 431.428L888.554 456.986L775.956 456.979L752.927 457.058Q753.245 408.603 752.847 360.149Z"/>
	<path fill="#676266" transform="scale(0.407715 0.407715)" d="M797.005 359.989Q807.988 360.158 818.971 360.006C818.776 367.65 817.792 376.499 819.358 383.963C819.603 391.911 819.969 399.879 819.973 407.831C812.43 408.524 804.571 408.125 797.003 408.008Q796.88 383.998 797.005 359.989Z"/>
	<path fill="#5A555A" transform="scale(0.407715 0.407715)" d="M841.7 383.013C849.493 383.034 857.296 382.964 865.087 383.078C865.084 391.069 864.86 399.132 865.233 407.112L865.486 407.282C865.084 415.251 864.82 423.558 865.16 431.527C858.131 433.229 848.797 432.158 841.569 432.04C834.391 431.891 827.182 432.023 820.001 432.017L819.973 407.831C819.969 399.879 819.603 391.911 819.358 383.963C826.714 383.213 834.303 383.193 841.7 383.013Z"/>
	<path fill="#676266" transform="scale(0.407715 0.407715)" d="M819.973 407.831C827.145 407.056 834.405 407.792 841.58 407.033C841.731 415.336 842.114 423.752 841.569 432.04C834.391 431.891 827.182 432.023 820.001 432.017L819.973 407.831Z"/>
	<path transform="scale(0.407715 0.407715)" d="M841.7 383.013C849.493 383.034 857.296 382.964 865.087 383.078C865.084 391.069 864.86 399.132 865.233 407.112C857.299 406.944 849.461 406.877 841.522 407.043L841.7 383.013Z"/>
	<path fill="#413C42" transform="scale(0.407715 0.407715)" d="M179.97 511.018Q191.607 510.964 203.235 511.415L203.027 534.987C218.283 534.934 233.554 534.477 248.805 534.511L248.983 771.504L226.509 771.48C226.389 779.647 226.392 787.837 226.088 795.999L204.001 795.999L204.006 818.087Q204.282 837.033 204.052 855.979L182.136 856.043C181.824 843.475 181.988 830.866 181.975 818.292L158.486 818.198L158.596 839.992C151.132 840.041 143.461 840.407 136.029 839.761L135.497 668.064C135.488 642.342 134.771 616.425 135.619 590.733C135.561 589.826 135.604 589.676 135.94 588.882C140.698 587.048 147.685 587.978 152.764 588.072L157.567 587.883C158.705 586.537 158.074 568.018 158.365 564.566L158.426 563.881L158.37 511.369C165.562 511.102 172.773 511.104 179.97 511.018Z"/>
	<path fill="#222023" transform="scale(0.407715 0.407715)" d="M158.006 796.003L181.993 795.984L181.975 818.292L158.486 818.198Q158.362 807.098 158.006 796.003Z"/>
	<path fill="#5A555A" transform="scale(0.407715 0.407715)" d="M158.37 511.369C165.562 511.102 172.773 511.104 179.97 511.018Q180.632 537.524 180.427 564.037L203.499 564.015L203.504 587.986L158.588 588.004C158.594 580.041 159.033 571.808 158.426 563.881L158.37 511.369Z"/>
	<path fill="#5A555A" transform="scale(0.407715 0.407715)" d="M135.619 590.733C135.561 589.826 135.604 589.676 135.94 588.882C140.698 587.048 147.685 587.978 152.764 588.072L158.076 588.573C159.311 592.704 158.437 620.742 158.441 627.882L158.486 746.028C166.261 746.007 174.224 745.697 181.963 746.46C181.881 754.639 181.931 762.843 181.683 771.018C166.51 771.699 151.277 771.473 136.091 771.408L135.978 642.686L136.004 607.958C136.004 602.516 136.634 596.074 135.619 590.733Z"/>
	<path fill="#222023" transform="scale(0.407715 0.407715)" d="M461.402 656.418C464.359 656.411 467.375 656.258 470.277 656.906L562.66 657.01L562.911 656.898Q574.067 657.143 585.225 656.993L585.089 663.911Q584.957 672.325 585.108 680.739C586.105 688.183 585.208 695.764 585.426 703.238Q585.526 715.658 585.491 728.078Q627.976 728.32 670.461 728.107C689.816 728.174 709.212 728.725 728.563 728.375Q728.61 740.182 728.82 751.987L680.964 751.896L680.935 795.71C680.923 803.153 681.533 811.368 680.579 818.728C680.576 823.479 680.445 828.266 680.602 833.013C645.6 834.492 610.381 833.641 575.354 833.476C575.661 826.126 575.536 818.77 575.478 811.416C575.281 807.188 574.974 802.933 574.985 798.701L450.011 798.033L449.992 811.56C441.708 811.368 433.272 811.334 425.001 811.801L425.059 791.542C398.327 791.497 371.194 790.556 344.505 791.769L344.432 755.931L294.504 755.974L294.48 729.085L294.508 701.921L294.488 663.521C320.57 663.402 347.024 664.746 373.056 663.406L373.911 663.562C396.096 663.569 418.341 663.249 440.519 663.639L440.506 657.052C447.159 655.919 454.631 656.473 461.402 656.418Z"/>
	<path fill="#413C42" transform="scale(0.407715 0.407715)" d="M600.381 791.036C627.061 790.982 653.821 790.566 680.492 791.031C680.455 800.244 680.186 809.523 680.579 818.728C680.576 823.479 680.445 828.266 680.602 833.013C645.6 834.492 610.381 833.641 575.354 833.476C575.661 826.126 575.536 818.77 575.478 811.416Q587.773 811.166 600.068 811.441L600.381 791.036Z"/>
	<path fill="#413C42" transform="scale(0.407715 0.407715)" d="M373.911 663.562C396.096 663.569 418.341 663.249 440.519 663.639Q440.582 682.59 440.431 701.54L440.417 713.301C440.463 718.359 441.301 725.024 440.213 729.912L439.903 729.052C438.681 728.401 437.423 728.503 436.082 728.488C419.918 728.3 403.699 728.881 387.527 728.959L294.48 729.085L294.508 701.921L294.488 663.521C320.57 663.402 347.024 664.746 373.056 663.406L373.911 663.562Z"/>
	<path fill="#EA3D23" transform="scale(0.407715 0.407715)" d="M373.911 663.562C396.096 663.569 418.341 663.249 440.519 663.639Q440.582 682.59 440.431 701.54L373.049 702.01Q373.029 701.382 373.023 700.753C372.978 696.763 372.514 665.377 373.223 664.266C373.4 663.99 373.682 663.797 373.911 663.562Z"/>
	<path fill="#D71D2A" transform="scale(0.407715 0.407715)" d="M373.056 663.406L373.911 663.562C373.682 663.797 373.4 663.99 373.223 664.266C372.514 665.377 372.978 696.763 373.023 700.753Q373.029 701.382 373.049 702.01L294.508 701.921L294.488 663.521C320.57 663.402 347.024 664.746 373.056 663.406Z"/>
	<path fill="#FC8C00" transform="scale(0.407715 0.407715)" d="M461.402 656.418C464.359 656.411 467.375 656.258 470.277 656.906L562.66 657.01L562.911 656.898Q574.067 657.143 585.225 656.993L585.089 663.911Q584.957 672.325 585.108 680.739C586.105 688.183 585.208 695.764 585.426 703.238Q585.526 715.658 585.491 728.078L585.499 736.013L562.522 736.009L461.956 736.059C456.292 736.339 445.261 737.752 440.434 735.571C439.759 733.892 440.128 731.697 440.213 729.912C441.301 725.024 440.463 718.359 440.417 713.301L440.431 701.54Q440.582 682.59 440.519 663.639L440.506 657.052C447.159 655.919 454.631 656.473 461.402 656.418Z"/>
	<path fill="#DC6C21" transform="scale(0.407715 0.407715)" d="M440.417 713.301Q451.02 713.3 461.623 713.405C461.74 720.952 461.956 728.512 461.956 736.059C456.292 736.339 445.261 737.752 440.434 735.571C439.759 733.892 440.128 731.697 440.213 729.912C441.301 725.024 440.463 718.359 440.417 713.301Z"/>
	<path fill="#DC6C21" transform="scale(0.407715 0.407715)" d="M585.108 680.739C586.105 688.183 585.208 695.764 585.426 703.238Q585.526 715.658 585.491 728.078L585.499 736.013L562.522 736.009L562.553 713.537L585.053 713.916C585.019 702.857 585.222 691.797 585.108 680.739Z"/>
	<path fill="#FEBD01" transform="scale(0.407715 0.407715)" d="M461.421 656.898Q465.849 656.966 470.277 656.906L562.66 657.01C564.141 662.72 562.587 704.186 562.488 713.452L461.588 713.065L461.421 656.898Z"/>
	<path fill="#413C42" transform="scale(0.407715 0.407715)" d="M294.127 336.138Q307.819 336.008 321.512 336.045Q320.935 382.659 321.054 429.276Q333.994 429.397 346.932 429.113Q359.586 428.905 372.241 428.974Q372.467 441.362 372.415 453.751Q385.703 453.646 398.991 453.698L398.944 478.296C407.411 478.252 415.874 477.899 424.342 477.965C424.515 486.414 425.12 495.271 423.938 503.662L423.703 529.021L447.061 529.028C490.042 529.028 533.098 528.495 576.071 529.029L600.269 529.014L600 503.498L627.036 503.5L626.909 479.297L652.551 479.27L652.494 454.281Q665.244 454.588 677.995 454.282Q678.052 444.658 677.913 435.034L678.07 431.415C678.97 430.355 679.509 430.511 680.851 430.302C687.878 430.773 694.983 430.646 702.017 430.4L701.995 337.415C710.727 337.155 719.745 336.54 728.452 337.297L728.961 587.418L728.983 663.502C728.971 676.08 728.393 688.92 728.98 701.472C728.074 710.306 728.392 719.495 728.563 728.375C709.212 728.725 689.816 728.174 670.461 728.107Q627.976 728.32 585.491 728.078Q585.526 715.658 585.426 703.238C585.208 695.764 586.105 688.183 585.108 680.739Q584.957 672.325 585.089 663.911L585.225 656.993Q574.067 657.143 562.911 656.898L562.66 657.01L470.277 656.906C467.375 656.258 464.359 656.411 461.402 656.418C454.631 656.473 447.159 655.919 440.506 657.052L440.519 663.639C418.341 663.249 396.096 663.569 373.911 663.562L373.056 663.406C347.024 664.746 320.57 663.402 294.488 663.521Q293.833 596.955 294.015 530.39C294.011 507.78 293.135 484.89 294.077 462.319C294.068 420.267 293.673 378.186 294.127 336.138Z"/>
	<path fill="#DC6C21" transform="scale(0.407715 0.407715)" d="M440.472 635.57L461.855 635.497C460.952 642.55 461.046 649.336 461.402 656.418C454.631 656.473 447.159 655.919 440.506 657.052L440.472 635.57Z"/>
	<path fill="#DC6C21" transform="scale(0.407715 0.407715)" d="M563.025 635.488L585.154 635.5L585.225 656.993Q574.067 657.143 562.911 656.898Q563.063 646.193 563.025 635.488Z"/>
	<path transform="scale(0.407715 0.407715)" d="M346.932 429.113Q359.586 428.905 372.241 428.974Q372.467 441.362 372.415 453.751Q385.703 453.646 398.991 453.698L398.944 478.296C407.411 478.252 415.874 477.899 424.342 477.965C424.515 486.414 425.12 495.271 423.938 503.662C415.381 502.667 406.819 503.095 398.239 503.474L398.522 478.497C389.684 478.54 380.834 478.823 371.997 479.014L372.026 454.026L346.532 454.02C346.549 445.728 346.437 437.392 346.932 429.113Z"/>
	<path fill="#FC8C00" transform="scale(0.407715 0.407715)" d="M461.855 635.497L563.025 635.488Q563.063 646.193 562.911 656.898L562.66 657.01L470.277 656.906C467.375 656.258 464.359 656.411 461.402 656.418C461.046 649.336 460.952 642.55 461.855 635.497Z"/>
	<path fill="#222023" transform="scale(0.407715 0.407715)" d="M728.961 587.418L728.983 663.502L654.105 663.455C653.782 654.688 653.967 645.881 653.995 637.108C662.613 636.772 671.267 636.977 679.891 637.039Q679.458 624.522 679.754 612.002L704.007 612.053L704.008 587.489Q716.485 587.55 728.961 587.418Z"/>
	<path fill="#222023" transform="scale(0.407715 0.407715)" d="M294.077 462.319C295.17 477.295 294.496 492.711 294.505 507.746L294.505 587.965L320.503 587.804L320.496 612.013L346.249 611.995L346.442 637.019L372.994 636.923C372.998 645.72 372.701 654.623 373.056 663.406C347.024 664.746 320.57 663.402 294.488 663.521Q293.833 596.955 294.015 530.39C294.011 507.78 293.135 484.89 294.077 462.319Z"/>
	<path fill="#222023" transform="scale(0.407715 0.407715)" d="M447.061 529.028C490.042 529.028 533.098 528.495 576.071 529.029C575.759 536.809 576.052 544.71 576.06 552.503L554.002 552.559L554.012 573.996L469.268 573.996L469.209 553.014L447.021 553.004L447.061 529.028Z"/>
	<path fill="#EA3D23" transform="scale(0.407715 0.407715)" d="M654.105 663.455L728.983 663.502C728.971 676.08 728.393 688.92 728.98 701.472C728.074 710.306 728.392 719.495 728.563 728.375C709.212 728.725 689.816 728.174 670.461 728.107Q627.976 728.32 585.491 728.078Q585.526 715.658 585.426 703.238C585.208 695.764 586.105 688.183 585.108 680.739Q584.957 672.325 585.089 663.911C608.007 662.904 631.161 663.457 654.105 663.455Z"/>
	<path fill="#413C42" transform="scale(0.407715 0.407715)" d="M585.426 703.238C596.645 701.881 611.576 703.008 623.164 703.016L700.324 702.989C706.307 702.982 723.485 703.903 728.281 702.689L728.98 701.472C728.074 710.306 728.392 719.495 728.563 728.375C709.212 728.725 689.816 728.174 670.461 728.107Q627.976 728.32 585.491 728.078Q585.526 715.658 585.426 703.238Z"/>
	<path fill="#222023" transform="scale(0.407715 0.407715)" d="M395.468 108.007C403.757 107.917 412.154 107.589 420.432 107.976C436.027 107.58 451.67 107.828 467.27 107.835L550.788 107.924L584.448 107.907C589.994 107.896 596.828 107.153 602.217 108.305L602.431 108.501C611.367 108.055 620.454 108.484 629.407 108.49C636.638 108.494 644.276 107.972 651.46 108.652C651.939 109.332 652.048 109.53 652.22 110.382C651.865 117.266 651.181 125.231 652.424 132.022Q664.971 131.587 677.525 131.511L677.628 131.839Q677.456 144.85 677.598 157.86L677.579 164.791C678.342 174.643 677.911 184.662 677.869 194.536L677.987 229.394L677.73 376.246L677.527 415.018C677.54 418.073 677.235 421.155 677.359 424.203C677.435 426.09 677.718 427.795 678.405 429.561C679.317 430.066 679.839 430.146 680.851 430.302C679.509 430.511 678.97 430.355 678.07 431.415L677.913 435.034Q678.052 444.658 677.995 454.282Q665.244 454.588 652.494 454.281L652.551 479.27L626.909 479.297L627.036 503.5L600 503.498L600.269 529.014L576.071 529.029C533.098 528.495 490.042 529.028 447.061 529.028L423.703 529.021L423.938 503.662C425.12 495.271 424.515 486.414 424.342 477.965C415.874 477.899 407.411 478.252 398.944 478.296L398.991 453.698Q385.703 453.646 372.415 453.751Q372.467 441.362 372.241 428.974Q359.586 428.905 346.932 429.113C347.634 403.433 347.002 377.574 346.998 351.877L346.932 205.008Q346.101 168.709 346.886 132.41C355.352 132.555 364.068 133.004 372.491 132.02C372.483 124.046 372.253 115.993 372.673 108.031L395.468 108.007Z"/>
	<path transform="scale(0.407715 0.407715)" d="M651.991 429.971C660.016 429.914 669.211 428.921 677.088 430.183C677.746 431.653 677.75 433.431 677.913 435.034Q678.052 444.658 677.995 454.282Q665.244 454.588 652.494 454.281L652.551 479.27L626.909 479.297L627.036 503.5L600 503.498L599.967 478.969L626.902 479.004Q626.815 466.484 626.959 453.964L652.06 453.975C651.944 445.976 652.003 437.97 651.991 429.971Z"/>
	<path fill="#D71D2A" transform="scale(0.407715 0.407715)" d="M427.99 428.803C436.933 429.425 446.041 428.658 454.999 428.558C469.694 428.396 484.417 428.603 499.114 428.612L552.5 428.652C568.065 428.818 583.615 429.349 599.179 428.68L599.056 455.083L553.946 455.07L553.996 428.971L466.489 428.931L466.968 455.083L427.989 455.208L427.99 428.803Z"/>
	<path transform="scale(0.407715 0.407715)" d="M423.938 503.662C442.438 505.15 464.769 503.742 483.739 503.664L600 503.498L600.269 529.014L576.071 529.029C533.098 528.495 490.042 529.028 447.061 529.028L423.703 529.021L423.938 503.662Z"/>
	<path fill="#EA3D23" transform="scale(0.407715 0.407715)" d="M447.613 328.478Q459.27 328.388 470.927 328.493L470.817 334.606L470.984 406.513L560.058 406.322L585.429 406.029C590.394 405.961 596.035 405.429 600.909 406.266L599.762 406.605C598.414 411.714 599.221 422.908 599.179 428.68C583.615 429.349 568.065 428.818 552.5 428.652L499.114 428.612C484.417 428.603 469.694 428.396 454.999 428.558C446.041 428.658 436.933 429.425 427.99 428.803L427.999 405.945L401.379 406.008C400.356 388.783 400.964 371.241 400.974 353.978L412.289 353.981L428.095 354.244C428.422 345.676 428.377 337.088 428.426 328.515L447.613 328.478Z"/>
	<path fill="#D71D2A" transform="scale(0.407715 0.407715)" d="M447.613 328.478Q459.27 328.388 470.927 328.493L470.817 334.606C469.495 337.602 470.513 373.579 470.553 379.97L447.828 380.084C447.535 362.883 448.27 345.676 447.613 328.478Z"/>
	<path fill="#F68767" transform="scale(0.407715 0.407715)" d="M495.972 328.491C508.748 328.052 522.433 326.955 535.134 328.39L554.356 328.517C561.893 328.466 569.483 328.234 577.015 328.5L599.426 328.523L599.416 354.27C607.087 354.168 614.773 353.96 622.443 354.011Q622.85 380.219 622.562 406.428C615.368 406.461 608.088 406.713 600.909 406.266C596.035 405.429 590.394 405.961 585.429 406.029L560.058 406.322L470.984 406.513L470.817 334.606L470.927 328.493L495.972 328.491Z"/>
	<path fill="#D71D2A" transform="scale(0.407715 0.407715)" d="M554.356 328.517C561.893 328.466 569.483 328.234 577.015 328.5C576.795 345.491 577.071 362.52 577.107 379.514L554.478 379.411L554.356 328.517Z"/>
	<path fill="#D71D2A" transform="scale(0.407715 0.407715)" d="M495.972 328.491C508.748 328.052 522.433 326.955 535.134 328.39C532.434 328.529 529.709 328.457 527.004 328.461L527.103 379.441L496.024 379.508L495.972 328.491Z"/>
	<path transform="scale(0.407715 0.407715)" d="M372.045 255.975L652.476 256.022L652.516 301.522C645.843 311.112 631.084 325.269 622.472 333.83L622.443 354.011C614.773 353.96 607.087 354.168 599.416 354.27L599.426 328.523L577.015 328.5C569.483 328.234 561.893 328.466 554.356 328.517L535.134 328.39C522.433 326.955 508.748 328.052 495.972 328.491L470.927 328.493Q459.27 328.388 447.613 328.478L428.426 328.515C428.377 337.088 428.422 345.676 428.095 354.244L412.289 353.981C410.001 349.517 406.301 345.651 403.044 341.866Q394.906 332.367 386.469 323.133C381.527 317.699 375.9 312.197 372.079 305.91Q371.893 280.942 372.045 255.975Z"/>
	<path fill="#EA3D23" transform="scale(0.407715 0.407715)" d="M409.775 278.129Q422.219 278.027 434.66 278.274C433.945 288.066 433.107 300.349 434.688 309.945C435.946 310.824 437.718 310.619 439.202 310.666C429.393 311.233 419.531 311.068 409.711 310.993C409.328 300.053 409.54 289.071 409.775 278.129Z"/>
	<path fill="#FCF003" transform="scale(0.407715 0.407715)" d="M434.66 278.274L460.002 278.44L460.003 310.735Q449.603 310.54 439.202 310.666C437.718 310.619 435.946 310.824 434.688 309.945C433.107 300.349 433.945 288.066 434.66 278.274Z"/>
	<path fill="#EA3D23" transform="scale(0.407715 0.407715)" d="M460.002 278.44L485.963 278.508Q485.797 294.477 485.909 310.447C477.269 310.75 468.648 311.136 460.003 310.735L460.002 278.44Z"/>
	<path fill="#EA3D23" transform="scale(0.407715 0.407715)" d="M590.503 278.509L616.028 278.435Q616.104 294.703 616.017 310.971C607.488 311.249 598.726 311.909 590.235 310.941C590.734 300.154 590.511 289.306 590.503 278.509Z"/>
	<path fill="#EA3D23" transform="scale(0.407715 0.407715)" d="M536.475 278.34L562.94 278.496C562.805 289.18 562.558 299.876 562.865 310.559Q549.694 310.828 536.523 310.573L536.475 278.34Z"/>
	<path fill="#FCF003" transform="scale(0.407715 0.407715)" d="M562.94 278.496Q576.722 278.598 590.503 278.509C590.511 289.306 590.734 300.154 590.235 310.941C581.254 309.986 571.898 310.496 562.865 310.559C562.558 299.876 562.805 289.18 562.94 278.496Z"/>
	<path fill="#222023" transform="scale(0.407715 0.407715)" d="M395.468 108.007C403.757 107.917 412.154 107.589 420.432 107.976C436.027 107.58 451.67 107.828 467.27 107.835L550.788 107.924L584.448 107.907C589.994 107.896 596.828 107.153 602.217 108.305L602.431 108.501C611.367 108.055 620.454 108.484 629.407 108.49C636.638 108.494 644.276 107.972 651.46 108.652C651.939 109.332 652.048 109.53 652.22 110.382C651.865 117.266 651.181 125.231 652.424 132.022Q664.971 131.587 677.525 131.511L677.628 131.839Q677.456 144.85 677.598 157.86L677.579 164.791C678.342 174.643 677.911 184.662 677.869 194.536L677.987 229.394Q665.512 229.376 653.038 229.158C624.203 228.553 595.176 229.343 566.32 229.313L372.453 229.128L372.435 205.031C364.025 204.03 355.374 204.669 346.932 205.008Q346.101 168.709 346.886 132.41C355.352 132.555 364.068 133.004 372.491 132.02C372.483 124.046 372.253 115.993 372.673 108.031L395.468 108.007Z"/>
	<path fill="#676266" transform="scale(0.407715 0.407715)" d="M401.291 157.594C407.459 157.474 413.859 157.134 419.995 157.825L419.988 181.505L443.389 181.519L443.424 191.301C443.013 195.855 443.018 200.397 442.999 204.965L396.045 205.006L395.975 173.673C395.973 168.895 395.303 163.035 396.36 158.426Q398.838 158.084 401.291 157.594Z"/>
	<path fill="#5A555A" transform="scale(0.407715 0.407715)" d="M395.468 108.007C403.757 107.917 412.154 107.589 420.432 107.976Q420.527 119.979 420.495 131.982L396.011 132.005C395.974 140.101 395.144 149.083 396.233 157.067C397.867 157.766 399.55 157.606 401.291 157.594Q398.838 158.084 396.36 158.426C395.303 163.035 395.973 168.895 395.975 173.673L396.045 205.006Q384.237 205.066 372.431 204.8C372.393 180.515 372.159 156.318 372.491 132.02C372.483 124.046 372.253 115.993 372.673 108.031L395.468 108.007Z"/>
	<path transform="scale(0.407715 0.407715)" d="M420.432 107.976C436.027 107.58 451.67 107.828 467.27 107.835L550.788 107.924L584.448 107.907C589.994 107.896 596.828 107.153 602.217 108.305L602.431 108.501L602.512 131.737C594.843 130.626 587.208 131.312 579.496 131.438Q565.324 131.558 551.151 131.516L420.495 131.982Q420.527 119.979 420.432 107.976Z"/>
	<path fill="#5A555A" transform="scale(0.407715 0.407715)" d="M602.431 108.501C611.367 108.055 620.454 108.484 629.407 108.49C636.638 108.494 644.276 107.972 651.46 108.652C651.939 109.332 652.048 109.53 652.22 110.382C651.865 117.266 651.181 125.231 652.424 132.022Q664.971 131.587 677.525 131.511L677.628 131.839Q677.456 144.85 677.598 157.86L677.579 164.791C678.342 174.643 677.911 184.662 677.869 194.536L677.987 229.394Q665.512 229.376 653.038 229.158Q653.052 217.066 652.709 204.979C628.309 204.957 603.891 204.764 579.493 205.053L579.449 182.111L603.966 181.98L603.996 157.507L628.49 157.394L628.508 131.953C619.952 132.054 611.036 132.572 602.512 131.737L602.431 108.501Z"/>
	<path fill="#413C42" transform="scale(0.407715 0.407715)" d="M628.49 157.394Q628.565 169.851 628.067 182.299Q616.019 181.949 603.966 181.98L603.996 157.507L628.49 157.394Z"/>
	<path fill="#413C42" transform="scale(0.407715 0.407715)" d="M677.579 164.791C678.342 174.643 677.911 184.662 677.869 194.536L677.987 229.394Q665.512 229.376 653.038 229.158Q653.052 217.066 652.709 204.979C660.982 205.09 669.269 204.987 677.543 204.989C677.175 191.737 676.958 178.028 677.579 164.791Z"/>
	<path fill="#413C42" transform="scale(0.407715 0.407715)" d="M652.424 132.022Q664.971 131.587 677.525 131.511L677.628 131.839Q677.456 144.85 677.598 157.86Q665.038 157.998 652.477 157.99Q652.555 145.006 652.424 132.022Z"/>
	<path fill="#413C42" transform="scale(0.407715 0.407715)" d="M346.886 132.41C355.352 132.555 364.068 133.004 372.491 132.02C372.159 156.318 372.393 180.515 372.431 204.8Q384.237 205.066 396.045 205.006L442.999 204.965C443.018 200.397 443.013 195.855 443.424 191.301Q443.631 198.224 443.49 205.148Q485.001 205.587 526.513 205.413C544.104 205.405 561.925 205.917 579.493 205.053C603.891 204.764 628.309 204.957 652.709 204.979Q653.052 217.066 653.038 229.158C624.203 228.553 595.176 229.343 566.32 229.313L372.453 229.128L372.435 205.031C364.025 204.03 355.374 204.669 346.932 205.008Q346.101 168.709 346.886 132.41Z"/>
</svg>
